<?xml version="1.0" encoding="iso-8859-1"?>
<!-- Generator: Adobe Illustrator 27.4.0, SVG Export Plug-In . SVG Version: 6.00 Build 0)  -->
<svg version="1.1" id="Layer_1" xmlns="http://www.w3.org/2000/svg" xmlns:xlink="http://www.w3.org/1999/xlink" x="0px" y="0px"
	 viewBox="0 0 24 24" style="enable-background:new 0 0 24 24;" xml:space="preserve">
<g>
	<path d="M11.994,21.666c-0.195,0-0.39-0.027-0.576-0.083c-0.424-0.127-0.707-0.38-1.135-0.762
		c-2.273-2.029-6.312-5.722-7.808-7.647C0.146,10.178,0.589,6.041,3.505,3.55c2.514-2.147,6.001-2.026,8.486,0.162
		c2.477-2.196,5.899-2.316,8.479-0.171c2.905,2.415,3.362,6.646,1.041,9.633c-1.493,1.922-5.532,5.616-7.808,7.647
		c-0.429,0.382-0.711,0.635-1.138,0.762C12.382,21.639,12.188,21.666,11.994,21.666z M7.583,3.994c-0.934,0-1.895,0.322-2.778,1.076
		c-2.088,1.784-2.411,4.74-0.751,6.876c1.451,1.868,5.771,5.785,7.561,7.382c0.176,0.157,0.357,0.319,0.42,0.354
		c-0.02-0.035,0.163-0.197,0.338-0.354c1.791-1.599,6.112-5.519,7.56-7.382c1.684-2.166,1.366-5.119-0.739-6.868
		c-2.238-1.861-4.934-1.053-6.439,0.707c-0.379,0.445-1.139,0.444-1.52,0C10.319,4.717,8.982,3.994,7.583,3.994z M13,15.5
		c-0.023,0-0.047-0.001-0.071-0.003c-0.403-0.028-0.75-0.297-0.878-0.681l-1.236-3.71l-0.42,0.841
		C10.225,12.286,9.879,12.5,9.5,12.5h-1c-0.552,0-1-0.448-1-1s0.448-1,1-1h0.382l1.224-2.447c0.181-0.362,0.566-0.576,0.965-0.55
		c0.403,0.029,0.75,0.298,0.878,0.681l1.237,3.71l0.42-0.841c0.17-0.339,0.516-0.553,0.895-0.553h1c0.553,0,1,0.448,1,1
		s-0.447,1-1,1h-0.382l-1.224,2.447C13.725,15.288,13.377,15.5,13,15.5z"/>
</g>
</svg>
