<?xml version="1.0" encoding="iso-8859-1"?>
<!-- Generator: Adobe Illustrator 27.4.0, SVG Export Plug-In . SVG Version: 6.00 Build 0)  -->
<svg version="1.1" id="Layer_1" xmlns="http://www.w3.org/2000/svg" xmlns:xlink="http://www.w3.org/1999/xlink" x="0px" y="0px"
	 viewBox="0 0 24 24" style="enable-background:new 0 0 24 24;" xml:space="preserve">
<g>
	<path d="M8.625,21.5C7.178,21.5,6,20.322,6,18.875v-6.126c-2.769-0.066-5-2.339-5-5.124C1,4.799,3.299,2.5,6.125,2.5
		s5.125,2.299,5.125,5.125v11.25C11.25,20.322,10.072,21.5,8.625,21.5z M6.125,4.5C4.402,4.5,3,5.902,3,7.625
		s1.402,3.125,3.125,3.125c0.417,0,0.627,0,0.865,0.082c0.458,0.158,0.771,0.471,0.929,0.93C8,11.998,8,12.213,8,12.539v6.336
		C8,19.22,8.28,19.5,8.625,19.5s0.625-0.28,0.625-0.625V7.625C9.25,5.902,7.848,4.5,6.125,4.5z"/>
</g>
<g>
	<path d="M15.375,21.5c-1.447,0-2.625-1.178-2.625-2.625V7.625c0-2.826,2.299-5.125,5.125-5.125S23,4.799,23,7.625
		c0,2.784-2.231,5.057-5,5.124v6.126C18,20.322,16.822,21.5,15.375,21.5z M17.875,4.5c-1.723,0-3.125,1.402-3.125,3.125v11.25
		c0,0.345,0.28,0.625,0.625,0.625S16,19.22,16,18.875v-6.336c0-0.326,0-0.541,0.082-0.778c0.159-0.459,0.472-0.771,0.93-0.929
		c0.236-0.082,0.446-0.082,0.863-0.082C19.598,10.75,21,9.348,21,7.625S19.598,4.5,17.875,4.5z"/>
</g>
</svg>
