<?xml version="1.0" encoding="iso-8859-1"?>
<!-- Generator: Adobe Illustrator 27.4.0, SVG Export Plug-In . SVG Version: 6.00 Build 0)  -->
<svg version="1.1" id="Layer_1" xmlns="http://www.w3.org/2000/svg" xmlns:xlink="http://www.w3.org/1999/xlink" x="0px" y="0px"
	 viewBox="0 0 24 24" style="enable-background:new 0 0 24 24;" xml:space="preserve">
<g>
	<path d="M15.292,22H8.708c-0.706,0-1.172,0-1.584-0.335c-0.359-0.29-0.562-0.723-0.556-1.186c0.009-0.532,0.306-0.889,0.754-1.428
		l3.295-3.955c0.277-0.331,0.491-0.588,0.87-0.726c0.328-0.122,0.697-0.121,1.033,0.003c0.372,0.135,0.585,0.392,0.857,0.717
		l3.298,3.956c0.45,0.541,0.749,0.898,0.758,1.429c0.006,0.466-0.196,0.898-0.556,1.189C16.463,22,15.997,22,15.292,22z M9.135,20
		h5.73L12,16.562L9.135,20z M19,19c-0.553,0-1-0.447-1-1s0.447-1,1-1c1.103,0,2-0.897,2-2V7.8c0-1.47,0-2.28-0.218-2.708
		c-0.193-0.379-0.495-0.681-0.874-0.874C19.479,4,18.67,4,17.2,4H6.8C5.33,4,4.52,4,4.092,4.218
		C3.713,4.411,3.411,4.713,3.218,5.092C3,5.52,3,6.33,3,7.8V15c0,1.103,0.897,2,2,2c0.552,0,1,0.447,1,1s-0.448,1-1,1
		c-2.206,0-4-1.794-4-4V7.8c0-1.838,0-2.76,0.436-3.616c0.386-0.757,0.991-1.362,1.748-1.748C4.04,2,4.962,2,6.8,2h10.4
		c1.837,0,2.76,0,3.616,0.436c0.758,0.386,1.362,0.991,1.748,1.749C23,5.04,23,5.962,23,7.8V15C23,17.206,21.206,19,19,19z"/>
</g>
</svg>
