<?xml version="1.0" encoding="iso-8859-1"?>
<!-- Generator: Adobe Illustrator 27.4.0, SVG Export Plug-In . SVG Version: 6.00 Build 0)  -->
<svg version="1.1" id="Layer_1" xmlns="http://www.w3.org/2000/svg" xmlns:xlink="http://www.w3.org/1999/xlink" x="0px" y="0px"
	 viewBox="0 0 24 24" style="enable-background:new 0 0 24 24;" xml:space="preserve">
<g>
	<path d="M21,22c-0.256,0-0.512-0.098-0.707-0.293l-2.139-2.139C16.478,21.14,14.305,22,12,22c-2.068,0-4.029-0.692-5.619-1.968
		l-1.674,1.675c-0.391,0.391-1.023,0.391-1.414,0s-0.391-1.023,0-1.414l1.674-1.675C3.692,17.028,3,15.067,3,13
		c0-2.306,0.862-4.48,2.432-6.153L4,5.414L2.707,6.707c-0.391,0.391-1.023,0.391-1.414,0s-0.391-1.023,0-1.414L2.586,4L2.293,3.707
		c-0.391-0.391-0.391-1.023,0-1.414s1.023-0.391,1.414,0l15.098,15.098c0.027,0.024,0.052,0.05,0.076,0.076l2.826,2.826
		c0.391,0.391,0.391,1.023,0,1.414C21.512,21.902,21.256,22,21,22z M6.848,8.262C5.653,9.558,5,11.229,5,13
		c0,1.869,0.728,3.628,2.05,4.95C8.372,19.272,10.13,20,12,20c1.771,0,3.442-0.653,4.738-1.847L6.848,8.262z M19.859,15.5
		c-0.062,0-0.125-0.006-0.188-0.018c-0.542-0.104-0.898-0.627-0.795-1.17C18.958,13.882,19,13.44,19,13
		c0-1.87-0.728-3.628-2.05-4.95c-1.633-1.632-3.989-2.362-6.263-1.926c-0.543,0.102-1.065-0.252-1.17-0.795
		C9.414,4.787,9.77,4.263,10.312,4.16c2.925-0.556,5.953,0.378,8.052,2.477C20.064,8.336,21,10.596,21,13
		c0,0.565-0.054,1.134-0.159,1.688C20.749,15.167,20.33,15.5,19.859,15.5z M22,7c-0.256,0-0.512-0.098-0.707-0.293l-3-3
		c-0.391-0.391-0.391-1.023,0-1.414s1.023-0.391,1.414,0l3,3c0.391,0.391,0.391,1.023,0,1.414C22.512,6.902,22.256,7,22,7z"/>
</g>
</svg>
