<?xml version="1.0" encoding="iso-8859-1"?>
<!-- Generator: Adobe Illustrator 27.4.0, SVG Export Plug-In . SVG Version: 6.00 Build 0)  -->
<svg version="1.1" id="Layer_1" xmlns="http://www.w3.org/2000/svg" xmlns:xlink="http://www.w3.org/1999/xlink" x="0px" y="0px"
	 viewBox="0 0 24 24" style="enable-background:new 0 0 24 24;" xml:space="preserve">
<g>
	<path d="M20,22c-0.256,0-0.512-0.098-0.707-0.293l-1.675-1.675C16.028,21.308,14.066,22,12,22c-2.068,0-4.029-0.692-5.619-1.968
		l-1.674,1.675c-0.391,0.391-1.023,0.391-1.414,0s-0.391-1.023,0-1.414l1.674-1.675C3.692,17.028,3,15.067,3,13
		c0-2.404,0.936-4.665,2.636-6.364C7.335,4.936,9.596,4,12,4c2.403,0,4.664,0.936,6.364,2.636C20.064,8.336,21,10.596,21,13
		c0,2.067-0.692,4.028-1.968,5.618l1.675,1.675c0.391,0.391,0.391,1.023,0,1.414C20.512,21.902,20.256,22,20,22z M12,6
		c-1.87,0-3.628,0.728-4.95,2.05C5.728,9.372,5,11.13,5,13c0,1.869,0.728,3.628,2.05,4.95C8.372,19.272,10.13,20,12,20
		c1.869,0,3.628-0.729,4.95-2.05C18.271,16.628,19,14.869,19,13c0-1.87-0.728-3.628-2.05-4.95C15.628,6.728,13.869,6,12,6z M14,16
		c-0.256,0-0.512-0.098-0.707-0.293l-2-2C11.105,13.52,11,13.266,11,13V9c0-0.552,0.448-1,1-1s1,0.448,1,1v3.586l1.707,1.707
		c0.391,0.391,0.391,1.023,0,1.414C14.512,15.902,14.256,16,14,16z M22,7c-0.256,0-0.512-0.098-0.707-0.293l-3-3
		c-0.391-0.391-0.391-1.023,0-1.414s1.023-0.391,1.414,0l3,3c0.391,0.391,0.391,1.023,0,1.414C22.512,6.902,22.256,7,22,7z M2,7
		C1.744,7,1.488,6.902,1.293,6.707c-0.391-0.391-0.391-1.023,0-1.414l3-3c0.391-0.391,1.023-0.391,1.414,0s0.391,1.023,0,1.414l-3,3
		C2.512,6.902,2.256,7,2,7z"/>
</g>
</svg>
