<?xml version="1.0" encoding="iso-8859-1"?>
<!-- Generator: Adobe Illustrator 27.4.0, SVG Export Plug-In . SVG Version: 6.00 Build 0)  -->
<svg version="1.1" id="Layer_1" xmlns="http://www.w3.org/2000/svg" xmlns:xlink="http://www.w3.org/1999/xlink" x="0px" y="0px"
	 viewBox="0 0 24 24" style="enable-background:new 0 0 24 24;" xml:space="preserve">
<g>
	<path d="M11.999,22.856c-0.134,0-0.269-0.014-0.402-0.041c-0.299-0.062-0.518-0.184-0.849-0.367l-7.412-4.117
		c-0.357-0.198-0.592-0.328-0.811-0.567c-0.189-0.205-0.334-0.449-0.425-0.722C2,16.732,2,16.464,2,16.059V7.941
		c0-0.406,0-0.674,0.101-0.979c0.091-0.274,0.235-0.519,0.429-0.729c0.217-0.236,0.45-0.365,0.801-0.561l7.407-4.115
		c0.343-0.19,0.562-0.312,0.86-0.373c0.269-0.055,0.539-0.054,0.806,0c0.298,0.061,0.517,0.183,0.849,0.366l7.41,4.118
		c0.354,0.197,0.589,0.327,0.807,0.562c0.198,0.215,0.343,0.461,0.432,0.734C22,7.266,22,7.535,22,7.941v8.117
		c0,0.406,0,0.675-0.102,0.981c-0.087,0.266-0.235,0.519-0.429,0.728c-0.218,0.237-0.453,0.367-0.809,0.564l-7.398,4.11
		c-0.342,0.189-0.561,0.311-0.857,0.372C12.27,22.843,12.134,22.856,11.999,22.856z M11.971,3.136
		c-0.022,0.03-0.11,0.085-0.253,0.165L4.309,7.417C4.149,7.506,4.048,7.555,3.977,7.61C3.994,7.648,4,7.762,4,7.941v8.117
		c0,0.18-0.006,0.293,0.008,0.384c0.042,0.005,0.144,0.054,0.298,0.139l7.403,4.113c0.153,0.085,0.242,0.141,0.321,0.17
		c0.019-0.029,0.108-0.085,0.252-0.165l7.409-4.116c0.156-0.087,0.258-0.136,0.33-0.192C20.007,16.351,20,16.237,20,16.059V7.941
		c0-0.179,0.007-0.292-0.008-0.382c-0.041-0.006-0.144-0.055-0.301-0.143l-7.4-4.111C12.139,3.222,12.051,3.166,11.971,3.136z
		 M12.01,17c-0.552,0-1.005-0.447-1.005-1s0.443-1,0.995-1h0.01c0.552,0,1,0.447,1,1S12.562,17,12.01,17z M12,13
		c-0.552,0-1-0.448-1-1V8c0-0.552,0.448-1,1-1s1,0.448,1,1v4C13,12.552,12.552,13,12,13z"/>
</g>
</svg>
