<?xml version="1.0" encoding="iso-8859-1"?>
<!-- Generator: Adobe Illustrator 27.4.0, SVG Export Plug-In . SVG Version: 6.00 Build 0)  -->
<svg version="1.1" id="Layer_1" xmlns="http://www.w3.org/2000/svg" xmlns:xlink="http://www.w3.org/1999/xlink" x="0px" y="0px"
	 viewBox="0 0 24 24" style="enable-background:new 0 0 24 24;" xml:space="preserve">
<g>
	<path d="M20.225,21.5H3.775c-1.09,0-1.691,0-2.217-0.383c-0.458-0.334-0.754-0.848-0.812-1.41
		c-0.067-0.646,0.233-1.165,0.778-2.106L9.75,3.391l0,0l0.865,0.501L9.751,3.388c0.543-0.938,0.843-1.456,1.436-1.719
		c0.516-0.229,1.108-0.23,1.625,0c0.593,0.264,0.893,0.78,1.436,1.717l8.228,14.213c0.549,0.947,0.848,1.465,0.779,2.111
		c-0.058,0.561-0.354,1.075-0.812,1.408C21.916,21.5,21.315,21.5,20.225,21.5z M2.773,19.478C2.983,19.5,3.385,19.5,3.775,19.5
		h16.45c0.391,0,0.792,0,1.002-0.022c-0.086-0.191-0.284-0.535-0.478-0.87L12.52,4.393C12.323,4.054,12.124,3.71,12,3.54
		c-0.124,0.17-0.324,0.515-0.518,0.85l-0.867-0.499l0.865,0.501L3.255,18.6C3.06,18.938,2.859,19.285,2.773,19.478z M12.01,18
		c-0.552,0-1.005-0.447-1.005-1s0.443-1,0.995-1h0.01c0.552,0,1,0.447,1,1S12.562,18,12.01,18z M12,14c-0.552,0-1-0.447-1-1V9
		c0-0.552,0.448-1,1-1s1,0.448,1,1v4C13,13.553,12.552,14,12,14z"/>
</g>
</svg>
