<?xml version="1.0" encoding="iso-8859-1"?>
<!-- Generator: Adobe Illustrator 27.4.0, SVG Export Plug-In . SVG Version: 6.00 Build 0)  -->
<svg version="1.1" id="Layer_1" xmlns="http://www.w3.org/2000/svg" xmlns:xlink="http://www.w3.org/1999/xlink" x="0px" y="0px"
	 viewBox="0 0 24 24" style="enable-background:new 0 0 24 24;" xml:space="preserve">
<g>
	<path d="M12,23c-0.552,0-1-0.447-1-1v-4.086l-2.293,2.293c-0.391,0.391-1.023,0.391-1.414,0s-0.391-1.023,0-1.414l4-4
		c0.096-0.097,0.208-0.169,0.326-0.218c0.116-0.048,0.244-0.075,0.378-0.075l0,0c0.002,0,0.004,0,0.006,0l0,0
		c0.134,0,0.262,0.027,0.378,0.075c0.119,0.049,0.23,0.121,0.326,0.218l4,4c0.391,0.391,0.391,1.023,0,1.414s-1.023,0.391-1.414,0
		L13,17.914V22C13,22.553,12.552,23,12,23z M21,13H3c-0.552,0-1-0.448-1-1s0.448-1,1-1h18c0.553,0,1,0.448,1,1S21.553,13,21,13z
		 M12,9.5c-0.001,0-0.002,0-0.003,0l0,0c-0.134,0-0.262-0.027-0.378-0.075c-0.119-0.049-0.23-0.122-0.326-0.218l-4-4
		c-0.391-0.391-0.391-1.023,0-1.414s1.023-0.391,1.414,0L11,6.086V2c0-0.552,0.448-1,1-1s1,0.448,1,1v4.086l2.293-2.293
		c0.391-0.391,1.023-0.391,1.414,0s0.391,1.023,0,1.414l-4,4c-0.096,0.096-0.208,0.169-0.326,0.218
		C12.265,9.473,12.137,9.5,12.003,9.5l0,0C12.002,9.5,12.001,9.5,12,9.5z"/>
</g>
</svg>
