<?xml version="1.0" encoding="iso-8859-1"?>
<!-- Generator: Adobe Illustrator 27.4.0, SVG Export Plug-In . SVG Version: 6.00 Build 0)  -->
<svg version="1.1" id="Layer_1" xmlns="http://www.w3.org/2000/svg" xmlns:xlink="http://www.w3.org/1999/xlink" x="0px" y="0px"
	 viewBox="0 0 24 24" style="enable-background:new 0 0 24 24;" xml:space="preserve">
<g>
	<path d="M7,22c-1.03,0-1.597,0-2.148-0.229c-0.74-0.307-1.316-0.883-1.623-1.623C3,19.596,3,19.029,3,18V6
		c0-1.03,0-1.597,0.229-2.148c0.307-0.74,0.883-1.316,1.624-1.623C5.403,2,5.97,2,7,2s1.597,0,2.148,0.229
		c0.74,0.307,1.316,0.883,1.623,1.624C11,4.403,11,4.97,11,6v12c0,1.029,0,1.596-0.229,2.148c-0.307,0.74-0.883,1.316-1.624,1.623
		C8.597,22,8.03,22,7,22z M7,4C6.278,4,5.801,4,5.618,4.076C5.371,4.179,5.179,4.371,5.076,4.618C5,4.801,5,5.278,5,6v12
		c0,0.722,0,1.199,0.076,1.383c0.102,0.246,0.294,0.438,0.542,0.541C5.801,20,6.278,20,7,20s1.199,0,1.382-0.076
		c0.248-0.103,0.44-0.295,0.542-0.541C9,19.199,9,18.722,9,18V6c0-0.722,0-1.199-0.076-1.382C8.821,4.371,8.629,4.179,8.382,4.076
		C8.199,4,7.722,4,7,4z"/>
</g>
<g>
	<path d="M17,18c-1.029,0-1.596,0-2.148-0.229c-0.74-0.307-1.316-0.883-1.623-1.623C13,15.596,13,15.029,13,14V6
		c0-1.03,0-1.597,0.229-2.148c0.307-0.74,0.883-1.316,1.623-1.623C15.404,2,15.971,2,17,2s1.596,0,2.148,0.229
		c0.74,0.307,1.316,0.883,1.623,1.624C21,4.403,21,4.97,21,6v8c0,1.029,0,1.596-0.229,2.148c-0.307,0.74-0.883,1.316-1.623,1.623
		C18.596,18,18.029,18,17,18z M17,4c-0.722,0-1.199,0-1.383,0.076c-0.246,0.102-0.438,0.294-0.541,0.542C15,4.801,15,5.278,15,6v8
		c0,0.722,0,1.199,0.076,1.383c0.103,0.247,0.294,0.438,0.541,0.541C15.801,16,16.278,16,17,16s1.199,0,1.383-0.076
		c0.247-0.103,0.438-0.294,0.541-0.541C19,15.199,19,14.722,19,14V6c0-0.722,0-1.199-0.076-1.382
		c-0.103-0.248-0.295-0.44-0.541-0.542C18.199,4,17.722,4,17,4z"/>
</g>
</svg>
