<?xml version="1.0" encoding="iso-8859-1"?>
<!-- Generator: Adobe Illustrator 27.4.0, SVG Export Plug-In . SVG Version: 6.00 Build 0)  -->
<svg version="1.1" id="Layer_1" xmlns="http://www.w3.org/2000/svg" xmlns:xlink="http://www.w3.org/1999/xlink" x="0px" y="0px"
	 viewBox="0 0 24 24" style="enable-background:new 0 0 24 24;" xml:space="preserve">
<g>
	<path d="M21,19H8c-0.552,0-1-0.447-1-1s0.448-1,1-1h13c0.553,0,1,0.447,1,1S21.553,19,21,19z M21,15H4c-0.552,0-1-0.447-1-1
		s0.448-1,1-1h17c0.553,0,1,0.447,1,1S21.553,15,21,15z M21,11H8c-0.552,0-1-0.448-1-1s0.448-1,1-1h13c0.553,0,1,0.448,1,1
		S21.553,11,21,11z M21,7H4C3.448,7,3,6.552,3,6s0.448-1,1-1h17c0.553,0,1,0.448,1,1S21.553,7,21,7z"/>
</g>
</svg>
