<?xml version="1.0" encoding="iso-8859-1"?>
<!-- Generator: Adobe Illustrator 27.4.0, SVG Export Plug-In . SVG Version: 6.00 Build 0)  -->
<svg version="1.1" id="Layer_1" xmlns="http://www.w3.org/2000/svg" xmlns:xlink="http://www.w3.org/1999/xlink" x="0px" y="0px"
	 viewBox="0 0 24 24" style="enable-background:new 0 0 24 24;" xml:space="preserve">
<g>
	<path d="M12,22c-0.552,0-1-0.447-1-1V3c0-0.552,0.448-1,1-1s1,0.448,1,1v18C13,21.553,12.552,22,12,22z M19.5,17
		c-0.256,0-0.512-0.098-0.707-0.293l-4-4c-0.097-0.096-0.169-0.208-0.218-0.326c-0.048-0.116-0.075-0.244-0.075-0.378l0,0
		c0-0.002,0-0.004,0-0.006l0,0c0-0.134,0.027-0.262,0.075-0.378c0.049-0.119,0.121-0.23,0.218-0.326l4-4
		c0.391-0.391,1.023-0.391,1.414,0s0.391,1.023,0,1.414L17.914,11H22c0.553,0,1,0.448,1,1s-0.447,1-1,1h-4.086l2.293,2.293
		c0.391,0.391,0.391,1.023,0,1.414C20.012,16.902,19.756,17,19.5,17z M4.5,17c-0.256,0-0.512-0.098-0.707-0.293
		c-0.391-0.391-0.391-1.023,0-1.414L6.086,13H2c-0.552,0-1-0.448-1-1s0.448-1,1-1h4.086L3.793,8.707
		c-0.391-0.391-0.391-1.023,0-1.414s1.023-0.391,1.414,0l4,4c0.096,0.096,0.169,0.208,0.218,0.326
		C9.473,11.735,9.5,11.863,9.5,11.997l0,0c0,0.002,0,0.004,0,0.006l0,0c0,0.134-0.027,0.262-0.075,0.378
		c-0.049,0.119-0.122,0.23-0.218,0.326l-4,4C5.012,16.902,4.756,17,4.5,17z"/>
</g>
</svg>
