<?xml version="1.0" encoding="iso-8859-1"?>
<!-- Generator: Adobe Illustrator 27.4.0, SVG Export Plug-In . SVG Version: 6.00 Build 0)  -->
<svg version="1.1" id="Layer_1" xmlns="http://www.w3.org/2000/svg" xmlns:xlink="http://www.w3.org/1999/xlink" x="0px" y="0px"
	 viewBox="0 0 24 24" style="enable-background:new 0 0 24 24;" xml:space="preserve">
<g>
	<path d="M16,11H8c-1.03,0-1.597,0-2.148-0.229c-0.74-0.307-1.316-0.883-1.623-1.624C4,8.597,4,8.03,4,7s0-1.597,0.229-2.148
		c0.307-0.74,0.883-1.316,1.624-1.623C6.403,3,6.97,3,8,3h8c1.029,0,1.596,0,2.148,0.229c0.74,0.307,1.316,0.883,1.623,1.624
		C20,5.403,20,5.97,20,7s0,1.597-0.229,2.148c-0.307,0.74-0.883,1.316-1.623,1.623C17.596,11,17.029,11,16,11z M8,5
		C7.278,5,6.801,5,6.618,5.076C6.371,5.179,6.179,5.371,6.076,5.618C6,5.801,6,6.278,6,7s0,1.199,0.076,1.382
		c0.103,0.248,0.294,0.439,0.542,0.542C6.801,9,7.278,9,8,9h8c0.722,0,1.199,0,1.383-0.076c0.246-0.102,0.438-0.294,0.541-0.542
		C18,8.199,18,7.722,18,7s0-1.199-0.076-1.382c-0.103-0.248-0.295-0.44-0.541-0.542C17.199,5,16.722,5,16,5H8z"/>
</g>
<g>
	<path d="M18,21H6c-1.03,0-1.597,0-2.148-0.229c-0.74-0.307-1.316-0.883-1.623-1.623C2,18.596,2,18.029,2,17s0-1.596,0.229-2.148
		c0.307-0.74,0.883-1.316,1.624-1.623C4.403,13,4.97,13,6,13h12c1.029,0,1.596,0,2.148,0.229c0.74,0.307,1.316,0.883,1.623,1.623
		C22,15.404,22,15.971,22,17s0,1.596-0.229,2.148c-0.307,0.74-0.883,1.316-1.623,1.623C19.596,21,19.029,21,18,21z M6,15
		c-0.722,0-1.199,0-1.382,0.076c-0.248,0.103-0.44,0.295-0.542,0.541C4,15.801,4,16.278,4,17s0,1.199,0.076,1.383
		c0.102,0.246,0.294,0.438,0.542,0.541C4.801,19,5.278,19,6,19h12c0.722,0,1.199,0,1.383-0.076c0.247-0.103,0.438-0.294,0.541-0.541
		C20,18.199,20,17.722,20,17s0-1.199-0.076-1.383c-0.103-0.247-0.294-0.438-0.541-0.541C19.199,15,18.722,15,18,15H6z"/>
</g>
</svg>
