<?xml version="1.0" encoding="iso-8859-1"?>
<!-- Generator: Adobe Illustrator 27.4.0, SVG Export Plug-In . SVG Version: 6.00 Build 0)  -->
<svg version="1.1" id="Layer_1" xmlns="http://www.w3.org/2000/svg" xmlns:xlink="http://www.w3.org/1999/xlink" x="0px" y="0px"
	 viewBox="0 0 24 24" style="enable-background:new 0 0 24 24;" xml:space="preserve">
<g>
	<path d="M14,11H6c-1.03,0-1.597,0-2.148-0.229c-0.74-0.307-1.316-0.883-1.623-1.624C2,8.597,2,8.03,2,7s0-1.597,0.229-2.148
		c0.307-0.74,0.883-1.316,1.624-1.623C4.403,3,4.97,3,6,3h8c1.029,0,1.596,0,2.148,0.229c0.74,0.307,1.316,0.883,1.623,1.624
		C18,5.403,18,5.97,18,7s0,1.597-0.229,2.148c-0.307,0.74-0.883,1.316-1.623,1.623C15.596,11,15.029,11,14,11z M6,5
		C5.278,5,4.801,5,4.618,5.076C4.371,5.179,4.179,5.371,4.076,5.618C4,5.801,4,6.278,4,7s0,1.199,0.076,1.382
		c0.103,0.248,0.294,0.439,0.542,0.542C4.801,9,5.278,9,6,9h8c0.722,0,1.199,0,1.383-0.076c0.246-0.102,0.438-0.294,0.541-0.542
		C16,8.199,16,7.722,16,7s0-1.199-0.076-1.382c-0.103-0.248-0.295-0.44-0.541-0.542C15.199,5,14.722,5,14,5H6z"/>
</g>
<g>
	<path d="M18,21H6c-1.03,0-1.597,0-2.148-0.229c-0.74-0.307-1.316-0.883-1.623-1.623C2,18.596,2,18.029,2,17s0-1.596,0.229-2.148
		c0.307-0.74,0.883-1.316,1.624-1.623C4.403,13,4.97,13,6,13h12c1.029,0,1.596,0,2.148,0.229c0.74,0.307,1.316,0.883,1.623,1.623
		C22,15.404,22,15.971,22,17s0,1.596-0.229,2.148c-0.307,0.74-0.883,1.316-1.623,1.623C19.596,21,19.029,21,18,21z M6,15
		c-0.722,0-1.199,0-1.382,0.076c-0.248,0.103-0.44,0.295-0.542,0.541C4,15.801,4,16.278,4,17s0,1.199,0.076,1.383
		c0.102,0.246,0.294,0.438,0.542,0.541C4.801,19,5.278,19,6,19h12c0.722,0,1.199,0,1.383-0.076c0.247-0.103,0.438-0.294,0.541-0.541
		C20,18.199,20,17.722,20,17s0-1.199-0.076-1.383c-0.103-0.247-0.294-0.438-0.541-0.541C19.199,15,18.722,15,18,15H6z"/>
</g>
</svg>
