<?xml version="1.0" encoding="iso-8859-1"?>
<!-- Generator: Adobe Illustrator 27.4.0, SVG Export Plug-In . SVG Version: 6.00 Build 0)  -->
<svg version="1.1" id="Layer_1" xmlns="http://www.w3.org/2000/svg" xmlns:xlink="http://www.w3.org/1999/xlink" x="0px" y="0px"
	 viewBox="0 0 24 24" style="enable-background:new 0 0 24 24;" xml:space="preserve">
<g>
	<path d="M12,23c-2.938,0-5.7-1.145-7.778-3.222C2.144,17.7,1,14.938,1,12c0-0.552,0.448-1,1-1h3c0.552,0,1,0.448,1,1s-0.448,1-1,1
		H3.055c0.223,2.025,1.12,3.901,2.582,5.364c1.462,1.462,3.338,2.358,5.364,2.581V8.874C9.277,8.428,8,6.86,8,5c0-2.206,1.794-4,4-4
		c2.206,0,4,1.794,4,4c0,1.86-1.276,3.428-3,3.874v12.072c2.025-0.223,3.901-1.119,5.364-2.581c1.462-1.463,2.358-3.339,2.581-5.364
		H19c-0.553,0-1-0.448-1-1s0.447-1,1-1h3c0.553,0,1,0.448,1,1c0,2.938-1.145,5.7-3.222,7.778C17.7,21.855,14.938,23,12,23z M12,3
		c-1.103,0-2,0.897-2,2s0.897,2,2,2c1.103,0,2-0.897,2-2S13.103,3,12,3z"/>
</g>
</svg>
