<?xml version="1.0" encoding="iso-8859-1"?>
<!-- Generator: Adobe Illustrator 27.4.0, SVG Export Plug-In . SVG Version: 6.00 Build 0)  -->
<svg version="1.1" id="Layer_1" xmlns="http://www.w3.org/2000/svg" xmlns:xlink="http://www.w3.org/1999/xlink" x="0px" y="0px"
	 viewBox="0 0 24 24" style="enable-background:new 0 0 24 24;" xml:space="preserve">
<g>
	<path d="M7.754,23c-0.226,0-0.338-0.002-0.439-0.011c-1.192-0.098-2.211-0.894-2.595-2.027c-0.03-0.089-0.059-0.193-0.109-0.395
		L3.037,14.27C1.795,13.261,1,11.721,1,10c0-3.033,2.467-5.5,5.5-5.5h3.75c1.266,0,3.035-0.6,5.116-1.734
		c1.194-0.651,1.742-0.948,2.377-0.871c0.572,0.07,1.05,0.354,1.384,0.822C19.5,3.239,19.5,3.87,19.5,5.126v0.486
		C21.502,6.068,23,7.862,23,10s-1.498,3.932-3.5,4.388v0.486c0,1.257,0,1.888-0.373,2.409c-0.333,0.467-0.812,0.751-1.383,0.82
		c-0.649,0.083-1.186-0.22-2.379-0.87c-1.697-0.925-3.188-1.494-4.365-1.673v4.193c0,0.278-0.002,0.417-0.014,0.535
		c-0.139,1.426-1.273,2.56-2.697,2.696C8.175,22.997,8.035,23,7.754,23z M7.754,21c0.178,0,0.264,0.003,0.338-0.005
		c0.479-0.046,0.857-0.424,0.904-0.898C9.002,20.022,9,19.933,9,19.754V15.5H6.5c-0.385,0-0.76-0.04-1.123-0.115l1.168,4.672
		c0.036,0.144,0.05,0.207,0.069,0.262c0.129,0.38,0.469,0.646,0.867,0.678C7.544,21.003,7.614,21.001,7.754,21z M17.606,16.118
		L17.606,16.118L17.606,16.118z M11,13.544c1.485,0.168,3.271,0.816,5.323,1.934c0.446,0.243,0.904,0.493,1.151,0.596
		c0.025-0.249,0.025-0.73,0.025-1.199V5.126c0-0.469,0-0.95-0.025-1.2c-0.247,0.103-0.705,0.353-1.151,0.596
		C14.272,5.64,12.487,6.288,11,6.456V13.544z M6.5,6.5C4.57,6.5,3,8.07,3,10s1.57,3.5,3.5,3.5H9v-7H6.5z M19.5,7.709v4.582
		C20.382,11.905,21,11.023,21,10C21,8.977,20.382,8.095,19.5,7.709z M17.607,3.881L17.607,3.881z"/>
</g>
</svg>
