<?xml version="1.0" encoding="iso-8859-1"?>
<!-- Generator: Adobe Illustrator 27.4.0, SVG Export Plug-In . SVG Version: 6.00 Build 0)  -->
<svg version="1.1" id="Layer_1" xmlns="http://www.w3.org/2000/svg" xmlns:xlink="http://www.w3.org/1999/xlink" x="0px" y="0px"
	 viewBox="0 0 24 24" style="enable-background:new 0 0 24 24;" xml:space="preserve">
<g>
	<path d="M12,22.667c-0.184,0-0.367-0.034-0.541-0.102c-0.402-0.156-0.621-0.448-0.899-0.819L9.1,19.8l0,0l-0.01-0.012
		c-0.225-0.301-0.361-0.482-0.448-0.554c-0.12-0.101-0.263-0.172-0.413-0.207C8.116,19,7.884,19,7.5,19
		c-1.528,0-2.296,0-3.031-0.305c-0.987-0.409-1.756-1.178-2.165-2.164C2,15.796,2,15.028,2,13.5V7.8c0-1.838,0-2.76,0.436-3.616
		c0.386-0.757,0.991-1.362,1.748-1.748C5.04,2,5.962,2,7.8,2h8.4c1.837,0,2.76,0,3.616,0.436c0.758,0.386,1.362,0.991,1.748,1.749
		C22,5.04,22,5.962,22,7.8v5.7c0,1.528,0,2.296-0.305,3.031c-0.409,0.986-1.178,1.755-2.164,2.164C18.796,19,18.028,19,16.5,19
		c-0.384,0-0.616,0-0.73,0.027c-0.149,0.035-0.291,0.105-0.409,0.205c-0.088,0.073-0.223,0.252-0.446,0.549l-1.474,1.965
		c-0.277,0.371-0.497,0.663-0.897,0.819C12.368,22.633,12.184,22.667,12,22.667z M10.7,18.601l1.3,1.732l1.3-1.732
		c0.327-0.436,0.515-0.685,0.78-0.905c0.353-0.295,0.779-0.508,1.23-0.615C15.651,17,15.953,17,16.5,17c1.224,0,1.897,0,2.266-0.152
		c0.486-0.201,0.881-0.596,1.082-1.082C20,15.397,20,14.724,20,13.5V7.8c0-1.47,0-2.28-0.218-2.708
		c-0.193-0.379-0.495-0.681-0.874-0.874C18.479,4,17.67,4,16.2,4H7.8C6.33,4,5.52,4,5.092,4.218
		C4.713,4.411,4.411,4.713,4.218,5.092C4,5.52,4,6.33,4,7.8v5.7c0,1.224,0,1.897,0.152,2.266c0.204,0.493,0.589,0.877,1.083,1.082
		C5.603,17,6.276,17,7.5,17c0.548,0,0.85,0,1.19,0.081c0.45,0.105,0.876,0.319,1.232,0.616c0.266,0.221,0.455,0.473,0.768,0.891
		L9.9,19.2L10.7,18.601z M16.5,12c-0.827,0-1.5-0.673-1.5-1.5S15.673,9,16.5,9S18,9.673,18,10.5S17.327,12,16.5,12z M12,12
		c-0.827,0-1.5-0.673-1.5-1.5S11.173,9,12,9s1.5,0.673,1.5,1.5S12.827,12,12,12z M7.5,12C6.673,12,6,11.327,6,10.5S6.673,9,7.5,9
		S9,9.673,9,10.5S8.327,12,7.5,12z"/>
</g>
</svg>
