<?xml version="1.0" encoding="iso-8859-1"?>
<!-- Generator: Adobe Illustrator 27.4.0, SVG Export Plug-In . SVG Version: 6.00 Build 0)  -->
<svg version="1.1" id="Layer_1" xmlns="http://www.w3.org/2000/svg" xmlns:xlink="http://www.w3.org/1999/xlink" x="0px" y="0px"
	 viewBox="0 0 24 24" style="enable-background:new 0 0 24 24;" xml:space="preserve">
<g>
	<path d="M12,22.667c-0.184,0-0.367-0.034-0.541-0.102c-0.402-0.156-0.621-0.448-0.899-0.819L9.1,19.8l0,0l-0.01-0.012
		c-0.225-0.301-0.361-0.482-0.448-0.554c-0.12-0.101-0.263-0.172-0.413-0.207C8.116,19,7.884,19,7.5,19
		c-1.528,0-2.296,0-3.031-0.305c-0.987-0.409-1.756-1.178-2.165-2.164C2,15.796,2,15.028,2,13.5V7.8c0-1.838,0-2.76,0.436-3.616
		c0.386-0.757,0.991-1.362,1.748-1.748C5.04,2,5.962,2,7.8,2h8.4c1.837,0,2.76,0,3.616,0.436c0.758,0.386,1.362,0.991,1.748,1.749
		C22,5.04,22,5.962,22,7.8v5.7c0,1.528,0,2.296-0.305,3.031c-0.409,0.986-1.178,1.755-2.164,2.164C18.796,19,18.028,19,16.5,19
		c-0.384,0-0.616,0-0.73,0.027c-0.149,0.035-0.291,0.105-0.409,0.205c-0.088,0.073-0.223,0.252-0.446,0.549l-1.474,1.965
		c-0.277,0.371-0.497,0.663-0.897,0.819C12.368,22.633,12.184,22.667,12,22.667z M10.7,18.601l1.3,1.732l1.3-1.732
		c0.327-0.436,0.515-0.685,0.78-0.905c0.353-0.295,0.779-0.508,1.23-0.615C15.651,17,15.953,17,16.5,17c1.224,0,1.897,0,2.266-0.152
		c0.486-0.201,0.881-0.596,1.082-1.082C20,15.397,20,14.724,20,13.5V7.8c0-1.47,0-2.28-0.218-2.708
		c-0.193-0.379-0.495-0.681-0.874-0.874C18.479,4,17.67,4,16.2,4H7.8C6.33,4,5.52,4,5.092,4.218
		C4.713,4.411,4.411,4.713,4.218,5.092C4,5.52,4,6.33,4,7.8v5.7c0,1.224,0,1.897,0.152,2.266c0.204,0.493,0.589,0.877,1.083,1.082
		C5.603,17,6.276,17,7.5,17c0.548,0,0.85,0,1.19,0.081c0.45,0.105,0.876,0.319,1.232,0.616c0.266,0.221,0.455,0.473,0.768,0.891
		L9.9,19.2L10.7,18.601z M12.16,15.5c-0.552,0-1.005-0.447-1.005-1s0.443-1,0.995-1h0.01c0.552,0,1,0.447,1,1
		S12.712,15.5,12.16,15.5z M12.121,12.5c-0.419,0-0.809-0.265-0.949-0.684c-0.175-0.524,0.108-1.09,0.632-1.265
		c0.543-0.185,1.564-0.758,1.564-1.3c0.001-0.296-0.104-0.582-0.294-0.808c-0.189-0.225-0.453-0.376-0.743-0.426
		c-0.289-0.047-0.589,0.005-0.843,0.154c-0.254,0.149-0.448,0.385-0.545,0.663c-0.183,0.521-0.755,0.794-1.275,0.611
		C9.147,9.262,8.874,8.691,9.057,8.17c0.254-0.723,0.758-1.334,1.419-1.723s1.442-0.53,2.194-0.401
		c0.756,0.129,1.443,0.523,1.937,1.11s0.764,1.331,0.763,2.097c0,2.155-2.632,3.095-2.932,3.195
		C12.333,12.484,12.226,12.5,12.121,12.5z"/>
</g>
</svg>
