<?xml version="1.0" encoding="iso-8859-1"?>
<!-- Generator: Adobe Illustrator 27.4.0, SVG Export Plug-In . SVG Version: 6.00 Build 0)  -->
<svg version="1.1" id="Layer_1" xmlns="http://www.w3.org/2000/svg" xmlns:xlink="http://www.w3.org/1999/xlink" x="0px" y="0px"
	 viewBox="0 0 24 24" style="enable-background:new 0 0 24 24;" xml:space="preserve">
<g>
	<path d="M12,22.667c-0.184,0-0.367-0.034-0.541-0.102c-0.402-0.156-0.621-0.448-0.899-0.819L9.1,19.8
		c-0.235-0.312-0.371-0.494-0.458-0.565c-0.12-0.101-0.263-0.172-0.413-0.207C8.116,19,7.884,19,7.5,19
		c-1.528,0-2.296,0-3.031-0.305c-0.987-0.409-1.756-1.178-2.165-2.164C2,15.796,2,15.028,2,13.5V7.8c0-1.838,0-2.76,0.436-3.616
		c0.386-0.757,0.991-1.362,1.748-1.748C5.04,2,5.962,2,7.8,2h8.4c1.837,0,2.76,0,3.616,0.436c0.758,0.386,1.362,0.991,1.748,1.749
		C22,5.04,22,5.962,22,7.8v5.7c0,1.528,0,2.296-0.305,3.031c-0.409,0.986-1.178,1.755-2.164,2.164C18.796,19,18.028,19,16.5,19
		c-0.384,0-0.616,0-0.73,0.027c-0.149,0.035-0.291,0.105-0.409,0.205c-0.088,0.073-0.223,0.252-0.446,0.549l-1.474,1.965
		c-0.277,0.371-0.497,0.663-0.897,0.819C12.368,22.633,12.184,22.667,12,22.667z M12.369,20.815h0.01H12.369z M7.8,4
		C6.33,4,5.52,4,5.092,4.218C4.713,4.411,4.411,4.713,4.218,5.092C4,5.52,4,6.33,4,7.8v5.7c0,1.224,0,1.897,0.152,2.266
		c0.204,0.493,0.589,0.877,1.083,1.082C5.603,17,6.276,17,7.5,17c0.548,0,0.85,0,1.19,0.081c0.45,0.105,0.876,0.319,1.232,0.616
		c0.266,0.221,0.455,0.473,0.768,0.891L12,20.333l1.3-1.732c0.327-0.436,0.515-0.685,0.78-0.905c0.353-0.295,0.779-0.508,1.23-0.615
		C15.651,17,15.953,17,16.5,17c1.224,0,1.897,0,2.266-0.152c0.486-0.201,0.881-0.596,1.082-1.082C20,15.397,20,14.724,20,13.5V7.8
		c0-1.47,0-2.28-0.218-2.708c-0.193-0.379-0.495-0.681-0.874-0.874C18.479,4,17.67,4,16.2,4H7.8z"/>
</g>
<g>
	<path d="M11.997,15.179c-0.193,0-0.386-0.027-0.569-0.081c-0.428-0.128-0.703-0.373-1.12-0.742c-1.304-1.154-2.173-2-2.583-2.514
		C6.597,10.431,6.815,8.41,8.223,7.24C9.334,6.317,10.828,6.267,12,7.022c1.163-0.738,2.649-0.691,3.761,0.209
		c1.429,1.154,1.652,3.179,0.51,4.61c-0.413,0.516-1.283,1.362-2.585,2.515c-0.4,0.355-0.69,0.612-1.115,0.74
		C12.385,15.151,12.19,15.179,11.997,15.179z M10.238,8.498c-0.245,0-0.499,0.083-0.738,0.281c-0.579,0.481-0.669,1.245-0.213,1.814
		c0.329,0.412,1.163,1.216,2.348,2.266c0.161,0.142,0.341,0.303,0.402,0.337c-0.018-0.034,0.162-0.194,0.321-0.336
		c1.167-1.033,2.024-1.859,2.351-2.267c0.453-0.568,0.366-1.345-0.205-1.806c-0.631-0.51-1.354-0.253-1.756,0.204
		c-0.38,0.432-1.122,0.432-1.502,0C10.996,8.707,10.628,8.498,10.238,8.498z"/>
</g>
</svg>
