<?xml version="1.0" encoding="iso-8859-1"?>
<!-- Generator: Adobe Illustrator 27.4.0, SVG Export Plug-In . SVG Version: 6.00 Build 0)  -->
<svg version="1.1" id="Layer_1" xmlns="http://www.w3.org/2000/svg" xmlns:xlink="http://www.w3.org/1999/xlink" x="0px" y="0px"
	 viewBox="0 0 24 24" style="enable-background:new 0 0 24 24;" xml:space="preserve">
<g>
	<path d="M8.772,22H6.99c-0.612,0-1.017,0-1.429-0.199c-0.366-0.178-0.665-0.456-0.865-0.806c-0.228-0.397-0.256-0.801-0.3-1.411
		l-0.373-5.222c-0.301-0.075-0.548-0.158-0.786-0.274c-1.017-0.501-1.776-1.412-2.085-2.499C1,11.053,1,10.501,1,9.5
		s0-1.553,0.152-2.089c0.309-1.088,1.068-1.999,2.084-2.497C3.737,4.667,4.28,4.569,5.265,4.39l12.312-2.239
		C17.868,2.054,18.169,2.002,18.479,2c0.017,0,0.03,0,0.046,0C21.036,2.021,23,5.308,23,9.5c0,4.191-1.964,7.479-4.476,7.5
		c-0.016,0-0.029,0-0.046,0c-0.31-0.002-0.61-0.055-0.901-0.151l-6.484-1.179l0.272,3.53c0.055,0.718,0.088,1.15-0.117,1.611
		c-0.178,0.403-0.492,0.741-0.881,0.95C9.925,22,9.491,22,8.772,22z M6.057,14.754l0.335,4.688c0.018,0.247,0.037,0.526,0.06,0.602
		C6.462,20,6.73,20,6.99,20h1.782c0.249,0,0.504,0,0.635-0.013c0.002-0.131-0.017-0.386-0.036-0.633L9.059,15.3L6.057,14.754z
		 M18.089,14.909l0.484,0.088C19.734,14.902,21,12.583,21,9.5s-1.266-5.402-2.427-5.497l-0.484,0.088C17.033,4.552,16,6.714,16,9.5
		S17.033,14.448,18.089,14.909z M15.044,4.645L5.622,6.358C4.814,6.505,4.369,6.585,4.118,6.708C3.61,6.958,3.23,7.413,3.076,7.957
		C3,8.225,3,8.678,3,9.5s0,1.275,0.076,1.542c0.154,0.544,0.534,1,1.043,1.25c0.247,0.121,0.688,0.201,1.491,0.347l9.434,1.716
		C14.39,13.056,14,11.368,14,9.5S14.39,5.944,15.044,4.645z"/>
</g>
</svg>
