<?xml version="1.0" encoding="iso-8859-1"?>
<!-- Generator: Adobe Illustrator 27.4.0, SVG Export Plug-In . SVG Version: 6.00 Build 0)  -->
<svg version="1.1" id="Layer_1" xmlns="http://www.w3.org/2000/svg" xmlns:xlink="http://www.w3.org/1999/xlink" x="0px" y="0px"
	 viewBox="0 0 24 24" style="enable-background:new 0 0 24 24;" xml:space="preserve">
<g>
	<path d="M7.25,22c-0.284,0-0.426-0.003-0.545-0.015c-1.418-0.141-2.551-1.272-2.69-2.691C4.003,19.177,4,19.034,4,18.75v-3.263
		c-0.459-0.021-0.807-0.074-1.148-0.216c-0.739-0.307-1.315-0.883-1.623-1.622C1,13.096,1,12.529,1,11.5v-1.2
		c0-1.838,0-2.76,0.436-3.616c0.385-0.757,0.99-1.361,1.748-1.748C4.04,4.5,4.962,4.5,6.8,4.5h3.45c1.266,0,3.035-0.6,5.116-1.734
		c1.194-0.651,1.742-0.948,2.377-0.871c0.572,0.07,1.05,0.354,1.384,0.822C19.5,3.239,19.5,3.87,19.5,5.126v9.748
		c0,1.257,0,1.888-0.373,2.409c-0.333,0.467-0.812,0.751-1.383,0.82c-0.649,0.083-1.186-0.22-2.379-0.87
		c-1.948-1.061-3.622-1.654-4.865-1.726v3.242c0,0.284-0.003,0.427-0.015,0.546c-0.139,1.417-1.271,2.549-2.691,2.689
		C7.676,21.997,7.534,22,7.25,22z M7.25,20c0.181,0.001,0.271,0.004,0.346-0.005c0.475-0.047,0.853-0.424,0.899-0.896
		C8.503,19.021,8.5,18.931,8.5,18.75V14.5c0-0.553,0.448-1,1-1h0.75c1.62,0,3.663,0.665,6.073,1.978
		c0.446,0.243,0.904,0.493,1.151,0.596c0.025-0.249,0.025-0.73,0.025-1.199V5.126c0-0.469,0-0.95-0.025-1.2
		c-0.247,0.103-0.705,0.353-1.151,0.596C13.915,5.834,11.872,6.5,10.25,6.5H6.8c-1.47,0-2.28,0-2.708,0.218
		C3.713,6.911,3.411,7.213,3.218,7.592C3,8.02,3,8.83,3,10.3v1.2c0,0.722,0,1.199,0.076,1.383c0.101,0.243,0.298,0.44,0.542,0.541
		C3.801,13.5,4.278,13.5,5,13.5c0.552,0,1,0.447,1,1v4.25c0,0.181-0.003,0.271,0.005,0.347c0.046,0.475,0.424,0.852,0.897,0.898
		C6.979,20.004,7.068,20,7.25,20z M17.606,16.118L17.606,16.118L17.606,16.118z M17.607,3.881L17.607,3.881z M22,13
		c-0.553,0-1-0.448-1-1V8c0-0.552,0.447-1,1-1s1,0.448,1,1v4C23,12.552,22.553,13,22,13z"/>
</g>
</svg>
