<?xml version="1.0" encoding="iso-8859-1"?>
<!-- Generator: Adobe Illustrator 27.4.0, SVG Export Plug-In . SVG Version: 6.00 Build 0)  -->
<svg version="1.1" id="Layer_1" xmlns="http://www.w3.org/2000/svg" xmlns:xlink="http://www.w3.org/1999/xlink" x="0px" y="0px"
	 viewBox="0 0 24 24" style="enable-background:new 0 0 24 24;" xml:space="preserve">
<g>
	<path d="M15.2,22H8.8c-1.838,0-2.76,0-3.616-0.437c-0.757-0.385-1.362-0.989-1.748-1.747C3,18.96,3,18.037,3,16.2V8.829
		C2.01,8.481,1.267,7.638,1.058,6.585C1,6.295,1,6.013,1,5.5s0-0.795,0.058-1.086C1.295,3.22,2.22,2.295,3.415,2.058
		C3.705,2,3.987,2,4.5,2h15c0.514,0,0.796,0,1.086,0.058c1.193,0.237,2.118,1.162,2.356,2.356C23,4.706,23,4.988,23,5.5
		s0,0.794-0.057,1.083C22.733,7.637,21.99,8.48,21,8.829V16.2c0,1.837,0,2.76-0.436,3.616c-0.386,0.758-0.99,1.362-1.749,1.748
		C17.96,22,17.037,22,15.2,22z M5,9v7.2c0,1.47,0,2.279,0.218,2.708c0.193,0.379,0.495,0.681,0.873,0.873C6.52,20,7.33,20,8.8,20
		h6.4c1.47,0,2.279,0,2.708-0.219c0.379-0.192,0.681-0.494,0.873-0.872C19,18.479,19,17.67,19,16.2V9H5z M4.083,7h15.834
		c0.019-0.001,0.037-0.002,0.057-0.003c0.093-0.002,0.16-0.004,0.221-0.016c0.399-0.08,0.707-0.388,0.787-0.786
		C21,6.099,21,5.861,21,5.5s0-0.599-0.02-0.697c-0.079-0.396-0.387-0.705-0.785-0.784C20.099,4,19.86,4,19.5,4h-15
		C4.14,4,3.902,4,3.806,4.019C3.407,4.099,3.099,4.407,3.02,4.805C3,4.902,3,5.14,3,5.5s0,0.598,0.019,0.694
		c0.08,0.399,0.388,0.707,0.786,0.786c0.062,0.013,0.13,0.014,0.222,0.017C4.045,6.998,4.064,6.999,4.083,7z M14,14h-4
		c-0.552,0-1-0.447-1-1c0-0.552,0.448-1,1-1h4c0.553,0,1,0.448,1,1C15,13.553,14.553,14,14,14z"/>
</g>
</svg>
