<?xml version="1.0" encoding="iso-8859-1"?>
<!-- Generator: Adobe Illustrator 27.4.0, SVG Export Plug-In . SVG Version: 6.00 Build 0)  -->
<svg version="1.1" id="Layer_1" xmlns="http://www.w3.org/2000/svg" xmlns:xlink="http://www.w3.org/1999/xlink" x="0px" y="0px"
	 viewBox="0 0 24 24" style="enable-background:new 0 0 24 24;" xml:space="preserve">
<g>
	<path d="M12,22.995c-2.817,0-5.634-1.072-7.778-3.217c-2.768-2.768-3.86-6.839-2.849-10.625c0.143-0.534,0.69-0.852,1.224-0.708
		c0.534,0.143,0.851,0.69,0.708,1.224c-0.828,3.099,0.065,6.431,2.331,8.696c3.508,3.51,9.217,3.51,12.728,0
		c3.509-3.51,3.509-9.219,0-12.729c-2.265-2.265-5.598-3.159-8.695-2.33C9.136,3.447,8.586,3.131,8.444,2.598
		C8.302,2.064,8.619,1.516,9.152,1.373c3.787-1.009,7.857,0.08,10.626,2.849c4.289,4.289,4.289,11.268,0,15.557
		C17.634,21.923,14.817,22.995,12,22.995z M15,16H9c-0.552,0-1-0.447-1-1s0.448-1,1-1h3.586L4.293,5.707
		c-0.391-0.391-0.391-1.023,0-1.414s1.023-0.391,1.414,0L14,12.586V9c0-0.552,0.447-1,1-1s1,0.448,1,1v6c0,0.001,0,0.002,0,0.003
		l0,0c0,0.134-0.027,0.262-0.075,0.379l0,0l-0.001,0.001c-0.047,0.114-0.116,0.222-0.208,0.315
		c-0.001,0.001-0.002,0.003-0.002,0.002c-0.001,0.001-0.001,0.001-0.002,0.002c0,0-0.001,0-0.002,0.003h-0.001
		c0,0.001-0.001,0.001-0.002,0.002l0,0c-0.001,0.001-0.001,0.002-0.002,0.002v0.001c-0.002,0-0.003,0.002-0.003,0.002
		c0,0.001-0.001,0.001-0.002,0.002l0,0c-0.001,0.001-0.001,0.001-0.002,0.002c-0.093,0.091-0.199,0.16-0.312,0.207h-0.001l0,0
		C15.267,15.973,15.137,16,15,16z"/>
</g>
</svg>
