<?xml version="1.0" encoding="iso-8859-1"?>
<!-- Generator: Adobe Illustrator 27.4.0, SVG Export Plug-In . SVG Version: 6.00 Build 0)  -->
<svg version="1.1" id="Layer_1" xmlns="http://www.w3.org/2000/svg" xmlns:xlink="http://www.w3.org/1999/xlink" x="0px" y="0px"
	 viewBox="0 0 24 24" style="enable-background:new 0 0 24 24;" xml:space="preserve">
<g>
	<path d="M8,22c-0.256,0-0.512-0.098-0.707-0.293l-4-4C3.197,17.61,3.124,17.5,3.075,17.381C3.027,17.265,3,17.137,3,17.003l0,0
		c0-0.002,0-0.004,0-0.006l0,0c0-0.134,0.027-0.262,0.075-0.378c0.049-0.119,0.122-0.229,0.218-0.326l4-4
		c0.391-0.391,1.023-0.391,1.414,0s0.391,1.023,0,1.414L6.414,16H20c0.553,0,1,0.447,1,1s-0.447,1-1,1H6.414l2.293,2.293
		c0.391,0.391,0.391,1.023,0,1.414C8.512,21.902,8.256,22,8,22z M13,12c-0.256,0-0.512-0.098-0.707-0.293l-4-4
		C8.197,7.611,8.124,7.5,8.075,7.381C8.027,7.265,8,7.137,8,7.003l0,0c0-0.002,0-0.004,0-0.006l0,0c0-0.134,0.027-0.262,0.075-0.378
		C8.124,6.5,8.197,6.389,8.293,6.293l4-4c0.391-0.391,1.023-0.391,1.414,0s0.391,1.023,0,1.414L11.414,6H20c0.553,0,1,0.448,1,1
		s-0.447,1-1,1h-8.586l2.293,2.293c0.391,0.391,0.391,1.023,0,1.414C13.512,11.902,13.256,12,13,12z"/>
</g>
</svg>
