<?xml version="1.0" encoding="iso-8859-1"?>
<!-- Generator: Adobe Illustrator 27.4.0, SVG Export Plug-In . SVG Version: 6.00 Build 0)  -->
<svg version="1.1" id="Layer_1" xmlns="http://www.w3.org/2000/svg" xmlns:xlink="http://www.w3.org/1999/xlink" x="0px" y="0px"
	 viewBox="0 0 24 24" style="enable-background:new 0 0 24 24;" xml:space="preserve">
<g>
	<path d="M15.5,23c-0.256,0-0.512-0.098-0.707-0.293l-3-3c-0.391-0.391-0.391-1.023,0-1.414l3-3c0.391-0.391,1.023-0.391,1.414,0
		s0.391,1.023,0,1.414L14.914,18h2.38c1.379,0,2.469,0,2.733-0.195c0.23-0.17,0.378-0.433,0.403-0.72
		c0.028-0.325-0.54-1.255-1.26-2.433l-0.997-1.631c-0.288-0.471-0.14-1.086,0.332-1.375c0.472-0.289,1.087-0.14,1.375,0.332
		l0.997,1.631c1.085,1.776,1.63,2.668,1.545,3.65c-0.076,0.859-0.517,1.644-1.208,2.154C20.421,20,19.376,20,17.294,20h-2.38
		l1.293,1.293c0.391,0.391,0.391,1.023,0,1.414C16.012,22.902,15.756,23,15.5,23z M8.5,20H6.706c-2.082,0-3.126,0-3.92-0.586
		c-0.693-0.512-1.133-1.297-1.208-2.153c-0.086-0.984,0.459-1.875,1.544-3.65l0.933-1.528l-1.796,0.481
		c-0.533,0.143-1.082-0.174-1.225-0.707s0.173-1.082,0.707-1.225l4.098-1.098c0.533-0.145,1.082,0.173,1.225,0.707l0.005,0.02
		c0.021,0.056,0.036,0.114,0.046,0.172l1.046,3.906c0.143,0.533-0.173,1.082-0.707,1.225c-0.534,0.145-1.082-0.173-1.225-0.707
		L5.765,13.12l-0.937,1.533c-0.719,1.176-1.287,2.105-1.259,2.434c0.025,0.286,0.172,0.548,0.403,0.718C4.237,18,5.326,18,6.706,18
		H8.5c0.552,0,1,0.447,1,1S9.052,20,8.5,20z M16.902,10.098c-0.087,0-0.174-0.011-0.259-0.034l-4.099-1.098
		c-0.534-0.143-0.85-0.691-0.707-1.225c0.143-0.533,0.69-0.852,1.225-0.707L14.8,7.5l-0.923-1.51
		c-0.664-1.087-1.188-1.946-1.479-2.072c-0.253-0.11-0.543-0.109-0.795,0c-0.291,0.125-0.814,0.983-1.478,2.069L9.103,7.658
		C8.815,8.129,8.199,8.278,7.728,7.99c-0.471-0.288-0.62-0.903-0.332-1.375l1.02-1.668c1.012-1.657,1.52-2.487,2.391-2.864
		c0.757-0.328,1.628-0.328,2.386,0c0.872,0.378,1.38,1.208,2.391,2.864l0.97,1.587l0.48-1.793c0.143-0.533,0.692-0.848,1.225-0.707
		c0.533,0.143,0.85,0.691,0.707,1.225l-1.098,4.098c-0.068,0.256-0.236,0.475-0.466,0.607
		C17.249,10.053,17.076,10.098,16.902,10.098z"/>
</g>
</svg>
