<?xml version="1.0" encoding="iso-8859-1"?>
<!-- Generator: Adobe Illustrator 27.4.0, SVG Export Plug-In . SVG Version: 6.00 Build 0)  -->
<svg version="1.1" id="Layer_1" xmlns="http://www.w3.org/2000/svg" xmlns:xlink="http://www.w3.org/1999/xlink" x="0px" y="0px"
	 viewBox="0 0 24 24" style="enable-background:new 0 0 24 24;" xml:space="preserve">
<g>
	<path d="M12,23c-0.552,0-1-0.447-1-1V10.414l-2.293,2.293c-0.391,0.391-1.023,0.391-1.414,0s-0.391-1.023,0-1.414l4-4
		c0.096-0.096,0.208-0.169,0.326-0.218C11.735,7.027,11.863,7,11.997,7l0,0c0.002,0,0.004,0,0.006,0l0,0
		c0.134,0,0.262,0.027,0.378,0.075c0.119,0.049,0.23,0.122,0.326,0.218l4,4c0.391,0.391,0.391,1.023,0,1.414s-1.023,0.391-1.414,0
		L13,10.414V22C13,22.553,12.552,23,12,23z M17.001,21.662c-0.346,0-0.682-0.179-0.866-0.499c-0.277-0.479-0.113-1.09,0.364-1.366
		C19.275,18.19,21,15.203,21,12c0-4.962-4.037-9-9-9c-4.962,0-9,4.038-9,9c0,3.202,1.725,6.19,4.501,7.797
		c0.478,0.276,0.641,0.888,0.365,1.366s-0.889,0.644-1.367,0.364C3.107,19.564,1,15.914,1,12C1,5.935,5.935,1,12,1s11,4.935,11,11
		c0,3.914-2.107,7.565-5.499,9.527C17.343,21.619,17.171,21.662,17.001,21.662z"/>
</g>
</svg>
