<?xml version="1.0" encoding="iso-8859-1"?>
<!-- Generator: Adobe Illustrator 27.4.0, SVG Export Plug-In . SVG Version: 6.00 Build 0)  -->
<svg version="1.1" id="Layer_1" xmlns="http://www.w3.org/2000/svg" xmlns:xlink="http://www.w3.org/1999/xlink" x="0px" y="0px"
	 viewBox="0 0 24 24" style="enable-background:new 0 0 24 24;" xml:space="preserve">
<g>
	<path d="M12,20c-0.552,0-1-0.447-1-1V7.414l-5.293,5.293c-0.391,0.391-1.023,0.391-1.414,0s-0.391-1.023,0-1.414l7-7
		c0.096-0.096,0.208-0.169,0.326-0.218C11.735,4.027,11.863,4,11.997,4l0,0c0.002,0,0.004,0,0.006,0l0,0
		c0.134,0,0.262,0.027,0.378,0.075c0.119,0.049,0.23,0.122,0.326,0.218l7,7c0.391,0.391,0.391,1.023,0,1.414s-1.023,0.391-1.414,0
		L13,7.414V19C13,19.553,12.552,20,12,20z"/>
</g>
</svg>
