<?xml version="1.0" encoding="iso-8859-1"?>
<!-- Generator: Adobe Illustrator 27.4.0, SVG Export Plug-In . SVG Version: 6.00 Build 0)  -->
<svg version="1.1" id="Layer_1" xmlns="http://www.w3.org/2000/svg" xmlns:xlink="http://www.w3.org/1999/xlink" x="0px" y="0px"
	 viewBox="0 0 24 24" style="enable-background:new 0 0 24 24;" xml:space="preserve">
<g>
	<path d="M12,23C5.935,23,1,18.065,1,12S5.935,1,12,1s11,4.935,11,11S18.065,23,12,23z M12,3c-4.962,0-9,4.038-9,9
		c0,4.963,4.038,9,9,9c4.963,0,9-4.037,9-9C21,7.038,16.963,3,12,3z M15,16c-0.553,0-1-0.447-1-1v-3.586l-4.293,4.293
		c-0.391,0.391-1.023,0.391-1.414,0s-0.391-1.023,0-1.414L12.586,10H9c-0.552,0-1-0.448-1-1s0.448-1,1-1h6c0.001,0,0.002,0,0.003,0
		l0,0c0.134,0,0.262,0.027,0.378,0.075c0.119,0.049,0.229,0.122,0.326,0.218s0.169,0.208,0.218,0.326
		C15.973,8.735,16,8.863,16,8.997l0,0C16,8.998,16,8.999,16,9v6C16,15.553,15.553,16,15,16z"/>
</g>
</svg>
