<?xml version="1.0" encoding="iso-8859-1"?>
<!-- Generator: Adobe Illustrator 27.4.0, SVG Export Plug-In . SVG Version: 6.00 Build 0)  -->
<svg version="1.1" id="Layer_1" xmlns="http://www.w3.org/2000/svg" xmlns:xlink="http://www.w3.org/1999/xlink" x="0px" y="0px"
	 viewBox="0 0 24 24" style="enable-background:new 0 0 24 24;" xml:space="preserve">
<g>
	<path d="M12,23C5.935,23,1,18.065,1,12S5.935,1,12,1s11,4.935,11,11S18.065,23,12,23z M12,3c-4.962,0-9,4.038-9,9
		c0,4.963,4.038,9,9,9c4.963,0,9-4.037,9-9C21,7.038,16.963,3,12,3z M15,16c-0.256,0-0.512-0.098-0.707-0.293L10,11.414V15
		c0,0.553-0.448,1-1,1s-1-0.447-1-1V9c0-0.001,0-0.002,0-0.003l0,0c0-0.134,0.027-0.262,0.075-0.378
		C8.124,8.5,8.197,8.389,8.293,8.293S8.5,8.124,8.619,8.075C8.735,8.027,8.863,8,8.997,8l0,0C8.998,8,8.999,8,9,8h6
		c0.553,0,1,0.448,1,1s-0.447,1-1,1h-3.586l4.293,4.293c0.391,0.391,0.391,1.023,0,1.414C15.512,15.902,15.256,16,15,16z"/>
</g>
</svg>
