<?xml version="1.0" encoding="iso-8859-1"?>
<!-- Generator: Adobe Illustrator 27.4.0, SVG Export Plug-In . SVG Version: 6.00 Build 0)  -->
<svg version="1.1" id="Layer_1" xmlns="http://www.w3.org/2000/svg" xmlns:xlink="http://www.w3.org/1999/xlink" x="0px" y="0px"
	 viewBox="0 0 24 24" style="enable-background:new 0 0 24 24;" xml:space="preserve">
<g>
	<path d="M12,23C5.935,23,1,18.065,1,12S5.935,1,12,1c3.914,0,7.564,2.107,9.527,5.499c0.277,0.478,0.113,1.09-0.364,1.367
		c-0.481,0.275-1.09,0.113-1.366-0.365C18.19,4.725,15.202,3,12,3c-4.962,0-9,4.038-9,9c0,4.963,4.038,9,9,9
		c3.203,0,6.19-1.725,7.797-4.501c0.274-0.479,0.885-0.644,1.366-0.364c0.478,0.276,0.642,0.888,0.364,1.366
		C19.565,20.893,15.914,23,12,23z M12,17c-0.256,0-0.512-0.098-0.707-0.293l-4-4c-0.096-0.096-0.169-0.208-0.218-0.326
		C7.027,12.265,7,12.137,7,12.003l0,0c0-0.002,0-0.004,0-0.006l0,0c0-0.134,0.027-0.262,0.075-0.378
		c0.049-0.119,0.122-0.23,0.218-0.326l4-4c0.391-0.391,1.023-0.391,1.414,0s0.391,1.023,0,1.414L10.414,11H22c0.553,0,1,0.448,1,1
		s-0.447,1-1,1H10.414l2.293,2.293c0.391,0.391,0.391,1.023,0,1.414C12.512,16.902,12.256,17,12,17z"/>
</g>
</svg>
