<?xml version="1.0" encoding="iso-8859-1"?>
<!-- Generator: Adobe Illustrator 27.4.0, SVG Export Plug-In . SVG Version: 6.00 Build 0)  -->
<svg version="1.1" id="Layer_1" xmlns="http://www.w3.org/2000/svg" xmlns:xlink="http://www.w3.org/1999/xlink" x="0px" y="0px"
	 viewBox="0 0 24 24" style="enable-background:new 0 0 24 24;" xml:space="preserve">
<g>
	<path d="M17,18H7c-0.552,0-1-0.447-1-1s0.448-1,1-1h7.586L6.293,7.707c-0.391-0.391-0.391-1.023,0-1.414s1.023-0.391,1.414,0
		L16,14.586V7c0-0.552,0.447-1,1-1s1,0.448,1,1v10c0,0.001,0,0.002,0,0.003l0,0c0,0.134-0.027,0.262-0.075,0.378
		c-0.049,0.119-0.121,0.229-0.218,0.326s-0.207,0.169-0.326,0.218C17.265,17.973,17.137,18,17.003,18l0,0C17.002,18,17.001,18,17,18
		z"/>
</g>
</svg>
