<?xml version="1.0" encoding="iso-8859-1"?>
<!-- Generator: Adobe Illustrator 27.4.0, SVG Export Plug-In . SVG Version: 6.00 Build 0)  -->
<svg version="1.1" id="Layer_1" xmlns="http://www.w3.org/2000/svg" xmlns:xlink="http://www.w3.org/1999/xlink" x="0px" y="0px"
	 viewBox="0 0 24 24" style="enable-background:new 0 0 24 24;" xml:space="preserve">
<g>
	<path d="M18,19h-8c-0.552,0-1-0.447-1-1s0.448-1,1-1h5.586L5.293,6.707c-0.391-0.391-0.391-1.023,0-1.414s1.023-0.391,1.414,0
		L17,15.586V10c0-0.552,0.447-1,1-1s1,0.448,1,1v8c0,0.001,0,0.002,0,0.003l0,0c0,0.134-0.027,0.262-0.075,0.378
		c-0.049,0.119-0.121,0.229-0.218,0.326s-0.207,0.169-0.326,0.218C18.265,18.973,18.137,19,18.003,19l0,0C18.002,19,18.001,19,18,19
		z"/>
</g>
</svg>
