<?xml version="1.0" encoding="iso-8859-1"?>
<!-- Generator: Adobe Illustrator 27.4.0, SVG Export Plug-In . SVG Version: 6.00 Build 0)  -->
<svg version="1.1" id="Layer_1" xmlns="http://www.w3.org/2000/svg" xmlns:xlink="http://www.w3.org/1999/xlink" x="0px" y="0px"
	 viewBox="0 0 24 24" style="enable-background:new 0 0 24 24;" xml:space="preserve">
<g>
	<path d="M17,18c-0.256,0-0.512-0.098-0.707-0.293L8,9.414V17c0,0.553-0.448,1-1,1s-1-0.447-1-1V7c0-0.001,0-0.002,0-0.003l0,0
		c0-0.134,0.027-0.262,0.075-0.378C6.124,6.5,6.197,6.389,6.293,6.293S6.5,6.124,6.619,6.075C6.735,6.027,6.863,6,6.997,6l0,0
		C6.998,6,6.999,6,7,6h10c0.553,0,1,0.448,1,1s-0.447,1-1,1H9.414l8.293,8.293c0.391,0.391,0.391,1.023,0,1.414
		C17.512,17.902,17.256,18,17,18z"/>
</g>
</svg>
