<?xml version="1.0" encoding="iso-8859-1"?>
<!-- Generator: Adobe Illustrator 27.4.0, SVG Export Plug-In . SVG Version: 6.00 Build 0)  -->
<svg version="1.1" id="Layer_1" xmlns="http://www.w3.org/2000/svg" xmlns:xlink="http://www.w3.org/1999/xlink" x="0px" y="0px"
	 viewBox="0 0 24 24" style="enable-background:new 0 0 24 24;" xml:space="preserve">
<g>
	<path d="M12,22.995c-2.817,0-5.634-1.072-7.778-3.217c-4.289-4.289-4.289-11.268,0-15.557c2.769-2.769,6.84-3.857,10.626-2.849
		c0.534,0.143,0.851,0.691,0.708,1.224c-0.143,0.534-0.695,0.85-1.224,0.708c-3.1-0.829-6.431,0.065-8.696,2.33
		c-3.509,3.509-3.509,9.219,0,12.729c3.51,3.51,9.219,3.51,12.729,0c2.265-2.266,3.158-5.597,2.33-8.695
		c-0.143-0.534,0.174-1.082,0.708-1.225c0.527-0.139,1.081,0.174,1.224,0.708c1.012,3.786-0.079,7.857-2.848,10.626
		C17.634,21.923,14.817,22.995,12,22.995z M15,16H9c-0.137,0-0.268-0.027-0.387-0.078c-0.106-0.044-0.207-0.107-0.295-0.19
		c0-0.001-0.001-0.001-0.001-0.002h0c-0.016-0.015-0.031-0.03-0.045-0.045c0-0.002,0-0.002-0.001-0.002
		c-0.083-0.089-0.147-0.189-0.191-0.296C8.028,15.268,8,15.138,8,15V9c0-0.552,0.448-1,1-1s1,0.448,1,1v3.586l8.293-8.293
		c0.391-0.391,1.023-0.391,1.414,0s0.391,1.023,0,1.414L11.414,14H15c0.553,0,1,0.447,1,1S15.553,16,15,16z"/>
</g>
</svg>
