<?xml version="1.0" encoding="iso-8859-1"?>
<!-- Generator: Adobe Illustrator 27.4.0, SVG Export Plug-In . SVG Version: 6.00 Build 0)  -->
<svg version="1.1" id="Layer_1" xmlns="http://www.w3.org/2000/svg" xmlns:xlink="http://www.w3.org/1999/xlink" x="0px" y="0px"
	 viewBox="0 0 24 24" style="enable-background:new 0 0 24 24;" xml:space="preserve">
<g>
	<path d="M17,18c-0.553,0-1-0.447-1-1V9.414l-8.293,8.293c-0.391,0.391-1.023,0.391-1.414,0s-0.391-1.023,0-1.414L14.586,8H7
		C6.448,8,6,7.552,6,7s0.448-1,1-1h10c0.001,0,0.002,0,0.003,0l0,0c0.134,0,0.262,0.027,0.378,0.075
		c0.119,0.049,0.229,0.122,0.326,0.218s0.169,0.208,0.218,0.326C17.973,6.735,18,6.863,18,6.997l0,0C18,6.998,18,6.999,18,7v10
		C18,17.553,17.553,18,17,18z"/>
</g>
</svg>
