<?xml version="1.0" encoding="iso-8859-1"?>
<!-- Generator: Adobe Illustrator 27.4.0, SVG Export Plug-In . SVG Version: 6.00 Build 0)  -->
<svg version="1.1" id="Layer_1" xmlns="http://www.w3.org/2000/svg" xmlns:xlink="http://www.w3.org/1999/xlink" x="0px" y="0px"
	 viewBox="0 0 24 24" style="enable-background:new 0 0 24 24;" xml:space="preserve">
<g>
	<path d="M12,20c-0.256,0-0.512-0.098-0.707-0.293l-7-7c-0.096-0.096-0.169-0.208-0.218-0.326C4.027,12.265,4,12.137,4,12.003l0,0
		c0-0.002,0-0.004,0-0.006l0,0c0-0.134,0.027-0.262,0.075-0.378c0.049-0.119,0.122-0.23,0.218-0.326l7-7
		c0.391-0.391,1.023-0.391,1.414,0s0.391,1.023,0,1.414L7.414,11H19c0.553,0,1,0.448,1,1s-0.447,1-1,1H7.414l5.293,5.293
		c0.391,0.391,0.391,1.023,0,1.414C12.512,19.902,12.256,20,12,20z"/>
</g>
</svg>
