<?xml version="1.0" encoding="iso-8859-1"?>
<!-- Generator: Adobe Illustrator 27.4.0, SVG Export Plug-In . SVG Version: 6.00 Build 0)  -->
<svg version="1.1" id="Layer_1" xmlns="http://www.w3.org/2000/svg" xmlns:xlink="http://www.w3.org/1999/xlink" x="0px" y="0px"
	 viewBox="0 0 24 24" style="enable-background:new 0 0 24 24;" xml:space="preserve">
<g>
	<path d="M14,19H6c-0.001,0-0.002,0-0.003,0l0,0c-0.134,0-0.262-0.027-0.378-0.075c-0.119-0.049-0.23-0.121-0.326-0.218
		S5.124,18.5,5.075,18.381C5.027,18.265,5,18.137,5,18.003l0,0C5,18.002,5,18.001,5,18v-8c0-0.552,0.448-1,1-1s1,0.448,1,1v5.586
		L17.293,5.293c0.391-0.391,1.023-0.391,1.414,0s0.391,1.023,0,1.414L8.414,17H14c0.553,0,1,0.447,1,1S14.553,19,14,19z"/>
</g>
</svg>
