<?xml version="1.0" encoding="iso-8859-1"?>
<!-- Generator: Adobe Illustrator 27.4.0, SVG Export Plug-In . SVG Version: 6.00 Build 0)  -->
<svg version="1.1" id="Layer_1" xmlns="http://www.w3.org/2000/svg" xmlns:xlink="http://www.w3.org/1999/xlink" x="0px" y="0px"
	 viewBox="0 0 24 24" style="enable-background:new 0 0 24 24;" xml:space="preserve">
<g>
	<path d="M18,19c-0.256,0-0.512-0.098-0.707-0.293L7,8.414V14c0,0.553-0.448,1-1,1s-1-0.447-1-1V6c0-0.001,0-0.002,0-0.003l0,0
		c0-0.134,0.027-0.262,0.075-0.378C5.124,5.5,5.197,5.389,5.293,5.293S5.5,5.124,5.619,5.075C5.735,5.027,5.863,5,5.997,5l0,0
		C5.998,5,5.999,5,6,5h8c0.553,0,1,0.448,1,1s-0.447,1-1,1H8.414l10.293,10.293c0.391,0.391,0.391,1.023,0,1.414
		C18.512,18.902,18.256,19,18,19z"/>
</g>
</svg>
