<?xml version="1.0" encoding="iso-8859-1"?>
<!-- Generator: Adobe Illustrator 27.4.0, SVG Export Plug-In . SVG Version: 6.00 Build 0)  -->
<svg version="1.1" id="Layer_1" xmlns="http://www.w3.org/2000/svg" xmlns:xlink="http://www.w3.org/1999/xlink" x="0px" y="0px"
	 viewBox="0 0 24 24" style="enable-background:new 0 0 24 24;" xml:space="preserve">
<g>
	<path d="M17,21c-0.553,0-1-0.447-1-1v-8.586l-2.293,2.293c-0.391,0.391-1.023,0.391-1.414,0s-0.391-1.023,0-1.414l4-4
		c0.097-0.096,0.207-0.169,0.326-0.218C16.735,8.027,16.863,8,16.997,8l0,0c0.002,0,0.004,0,0.006,0l0,0
		c0.134,0,0.262,0.027,0.378,0.075c0.119,0.049,0.229,0.122,0.326,0.218l4,4c0.391,0.391,0.391,1.023,0,1.414s-1.023,0.391-1.414,0
		L18,11.414V20C18,20.553,17.553,21,17,21z M7,21c-0.552,0-1-0.447-1-1V6.414L3.707,8.707c-0.391,0.391-1.023,0.391-1.414,0
		s-0.391-1.023,0-1.414l4-4C6.389,3.197,6.5,3.124,6.619,3.075C6.735,3.027,6.863,3,6.997,3l0,0c0.002,0,0.004,0,0.006,0l0,0
		c0.134,0,0.262,0.027,0.378,0.075C7.5,3.124,7.611,3.197,7.707,3.293l4,4c0.391,0.391,0.391,1.023,0,1.414s-1.023,0.391-1.414,0
		L8,6.414V20C8,20.553,7.552,21,7,21z"/>
</g>
</svg>
