<?xml version="1.0" encoding="iso-8859-1"?>
<!-- Generator: Adobe Illustrator 27.4.0, SVG Export Plug-In . SVG Version: 6.00 Build 0)  -->
<svg version="1.1" id="Layer_1" xmlns="http://www.w3.org/2000/svg" xmlns:xlink="http://www.w3.org/1999/xlink" x="0px" y="0px"
	 viewBox="0 0 24 24" style="enable-background:new 0 0 24 24;" xml:space="preserve">
<g>
	<path d="M12,23C5.935,23,1,18.065,1,12S5.935,1,12,1s11,4.935,11,11S18.065,23,12,23z M12,3c-4.962,0-9,4.038-9,9
		c0,4.963,4.038,9,9,9c4.963,0,9-4.037,9-9C21,7.038,16.963,3,12,3z M15,16H9c-0.552,0-1-0.447-1-1s0.448-1,1-1h3.586L8.293,9.707
		c-0.391-0.391-0.391-1.023,0-1.414s1.023-0.391,1.414,0L14,12.586V9c0-0.552,0.447-1,1-1s1,0.448,1,1v6c0,0.001,0,0.002,0,0.003
		l0,0c0,0.134-0.027,0.262-0.075,0.378c-0.049,0.119-0.121,0.229-0.218,0.326s-0.207,0.169-0.326,0.218
		C15.265,15.973,15.137,16,15.003,16l0,0C15.002,16,15.001,16,15,16z"/>
</g>
</svg>
