<?xml version="1.0" encoding="iso-8859-1"?>
<!-- Generator: Adobe Illustrator 27.4.0, SVG Export Plug-In . SVG Version: 6.00 Build 0)  -->
<svg version="1.1" id="Layer_1" xmlns="http://www.w3.org/2000/svg" xmlns:xlink="http://www.w3.org/1999/xlink" x="0px" y="0px"
	 viewBox="0 0 24 24" style="enable-background:new 0 0 24 24;" xml:space="preserve">
<g>
	<path d="M14.2,22H9.8c-0.354,0-0.661,0-0.982-0.164c-0.283-0.145-0.511-0.372-0.655-0.658C8,20.862,8,20.556,8,20.2V11H5
		c-0.404,0-0.769-0.244-0.924-0.617c-0.155-0.374-0.069-0.804,0.217-1.09l7-7c0.391-0.391,1.023-0.391,1.414,0l7,7
		c0.286,0.286,0.372,0.716,0.217,1.09C19.77,10.756,19.404,11,19,11h-3v9.2c0,0.355,0,0.662-0.165,0.983
		c-0.142,0.281-0.37,0.51-0.657,0.654C14.862,22,14.556,22,14.2,22z M10,20h4V10c0-0.552,0.447-1,1-1h1.586L12,4.414L7.414,9H9
		c0.552,0,1,0.448,1,1V20z"/>
</g>
</svg>
