<?xml version="1.0" encoding="iso-8859-1"?>
<!-- Generator: Adobe Illustrator 27.4.0, SVG Export Plug-In . SVG Version: 6.00 Build 0)  -->
<svg version="1.1" id="Layer_1" xmlns="http://www.w3.org/2000/svg" xmlns:xlink="http://www.w3.org/1999/xlink" x="0px" y="0px"
	 viewBox="0 0 24 24" style="enable-background:new 0 0 24 24;" xml:space="preserve">
<g>
	<path d="M14,20c-0.129,0-0.259-0.024-0.383-0.076C13.243,19.77,13,19.404,13,19v-3H3.8c-0.354,0-0.661,0-0.982-0.164
		c-0.283-0.145-0.511-0.372-0.655-0.658C2,14.862,2,14.556,2,14.2V9.8c0-0.354,0-0.661,0.165-0.982
		c0.143-0.282,0.371-0.51,0.656-0.654C3.139,8,3.445,8,3.8,8H13V5c0-0.404,0.243-0.769,0.617-0.924
		c0.374-0.153,0.804-0.069,1.09,0.217l7,7c0.391,0.391,0.391,1.023,0,1.414l-7,7C14.516,19.898,14.26,20,14,20z M4,14h10
		c0.553,0,1,0.447,1,1v1.586L19.586,12L15,7.414V9c0,0.552-0.447,1-1,1H4V14z"/>
</g>
</svg>
