<?xml version="1.0" encoding="iso-8859-1"?>
<!-- Generator: Adobe Illustrator 27.4.0, SVG Export Plug-In . SVG Version: 6.00 Build 0)  -->
<svg version="1.1" id="Layer_1" xmlns="http://www.w3.org/2000/svg" xmlns:xlink="http://www.w3.org/1999/xlink" x="0px" y="0px"
	 viewBox="0 0 24 24" style="enable-background:new 0 0 24 24;" xml:space="preserve">
<g>
	<path d="M12.018,22.997c-2.885,0-5.71-1.133-7.796-3.219c-4.289-4.289-4.289-11.268,0-15.557c4.29-4.289,11.269-4.289,15.557,0
		c2.769,2.769,3.859,6.84,2.848,10.626c-0.142,0.535-0.695,0.854-1.224,0.708c-0.534-0.143-0.851-0.69-0.708-1.224
		c0.828-3.099-0.065-6.431-2.33-8.696c-3.511-3.508-9.22-3.509-12.729,0c-3.509,3.509-3.509,9.219,0,12.729
		c2.266,2.265,5.597,3.157,8.696,2.33c0.529-0.143,1.081,0.174,1.224,0.708c0.143,0.533-0.174,1.081-0.708,1.224
		C13.914,22.876,12.962,22.997,12.018,22.997z M19,20c-0.256,0-0.512-0.098-0.707-0.293L10,11.414V15c0,0.553-0.448,1-1,1
		s-1-0.447-1-1V9c0-0.137,0.028-0.268,0.078-0.387c0,0,0,0,0,0l0,0c0.044-0.106,0.108-0.206,0.191-0.294
		c0.001,0,0.001-0.002,0.001-0.002C8.285,8.3,8.3,8.285,8.316,8.271c0,0,0.001,0,0.002-0.001c0.088-0.083,0.189-0.147,0.295-0.191
		C8.732,8.028,8.863,8,9,8h6c0.553,0,1,0.448,1,1s-0.447,1-1,1h-3.586l8.293,8.293c0.391,0.391,0.391,1.023,0,1.414
		C19.512,19.902,19.256,20,19,20z"/>
</g>
</svg>
