<?xml version="1.0" encoding="iso-8859-1"?>
<!-- Generator: Adobe Illustrator 27.4.0, SVG Export Plug-In . SVG Version: 6.00 Build 0)  -->
<svg version="1.1" id="Layer_1" xmlns="http://www.w3.org/2000/svg" xmlns:xlink="http://www.w3.org/1999/xlink" x="0px" y="0px"
	 viewBox="0 0 24 24" style="enable-background:new 0 0 24 24;" xml:space="preserve">
<g>
	<path d="M12,23C5.935,23,1,18.065,1,12S5.935,1,12,1s11,4.935,11,11S18.065,23,12,23z M12,3c-4.962,0-9,4.038-9,9
		c0,4.963,4.038,9,9,9c4.963,0,9-4.037,9-9C21,7.038,16.963,3,12,3z M12,17c-0.001,0-0.002,0-0.003,0l0,0
		c-0.134,0-0.262-0.027-0.378-0.075c-0.119-0.049-0.23-0.121-0.326-0.218l-4-4c-0.391-0.391-0.391-1.023,0-1.414
		s1.023-0.391,1.414,0L11,13.586V8c0-0.552,0.448-1,1-1s1,0.448,1,1v5.586l2.293-2.293c0.391-0.391,1.023-0.391,1.414,0
		s0.391,1.023,0,1.414l-4,4c-0.096,0.097-0.208,0.169-0.326,0.218C12.265,16.973,12.137,17,12.003,17l0,0C12.002,17,12.001,17,12,17
		z"/>
</g>
</svg>
