<?xml version="1.0" encoding="iso-8859-1"?>
<!-- Generator: Adobe Illustrator 27.4.0, SVG Export Plug-In . SVG Version: 6.00 Build 0)  -->
<svg version="1.1" id="Layer_1" xmlns="http://www.w3.org/2000/svg" xmlns:xlink="http://www.w3.org/1999/xlink" x="0px" y="0px"
	 viewBox="0 0 24 24" style="enable-background:new 0 0 24 24;" xml:space="preserve">
<g>
	<path d="M11.983,22.997c-0.945,0.001-1.896-0.121-2.831-0.371c-0.534-0.143-0.851-0.69-0.708-1.224
		c0.142-0.533,0.692-0.854,1.225-0.708c3.1,0.828,6.431-0.065,8.695-2.33c3.509-3.51,3.509-9.219,0-12.729
		c-3.51-3.508-9.218-3.507-12.728,0c-2.265,2.265-3.158,5.597-2.331,8.696c0.142,0.533-0.175,1.082-0.708,1.224
		c-0.537,0.146-1.082-0.175-1.224-0.708C0.362,11.062,1.454,6.99,4.222,4.222c4.289-4.288,11.267-4.288,15.556,0
		c4.289,4.289,4.289,11.268,0,15.557C17.693,21.863,14.868,22.997,11.983,22.997z M5,20c-0.256,0-0.512-0.098-0.707-0.293
		c-0.391-0.391-0.391-1.023,0-1.414L12.586,10H9c-0.552,0-1-0.448-1-1s0.448-1,1-1h6c0.137,0,0.267,0.027,0.385,0.077l0,0l0.001,0
		c0.113,0.047,0.22,0.116,0.312,0.207c0.001,0.001,0.001-0.001,0.002,0.002c0.001,0,0.002,0.001,0.002,0.001
		c0,0-0.005,0,0.003,0.002l0,0c0.001,0.001,0.001,0.001,0.002,0.002l0,0c0.002,0.001,0.003,0.002,0.003,0.002
		c0,0,0.001,0.001,0.002,0.002v0c0.001,0-0.003-0.001,0.003,0.002c0,0,0,0.001,0.001,0.001c0.091,0.094,0.16,0.201,0.208,0.315
		C15.973,8.733,16,8.862,16,8.997l0,0C16,8.998,16,8.999,16,9v6c0,0.553-0.447,1-1,1s-1-0.447-1-1v-3.586l-8.293,8.293
		C5.512,19.902,5.256,20,5,20z"/>
</g>
</svg>
