<?xml version="1.0" encoding="iso-8859-1"?>
<!-- Generator: Adobe Illustrator 27.4.0, SVG Export Plug-In . SVG Version: 6.00 Build 0)  -->
<svg version="1.1" id="Layer_1" xmlns="http://www.w3.org/2000/svg" xmlns:xlink="http://www.w3.org/1999/xlink" x="0px" y="0px"
	 viewBox="0 0 24 24" style="enable-background:new 0 0 24 24;" xml:space="preserve">
<g>
	<path d="M10,20c-0.26,0-0.516-0.102-0.707-0.293l-7-7c-0.391-0.391-0.391-1.023,0-1.414l7-7c0.286-0.287,0.715-0.373,1.09-0.217
		C10.756,4.231,11,4.596,11,5v3h9.2c0.355,0,0.662,0,0.983,0.165c0.28,0.142,0.508,0.369,0.653,0.655C22,9.139,22,9.445,22,9.8v4.4
		c0,0.355,0,0.662-0.165,0.983c-0.142,0.281-0.37,0.51-0.657,0.654C20.862,16,20.556,16,20.2,16H11v3
		c0,0.404-0.244,0.77-0.617,0.924C10.259,19.976,10.129,20,10,20z M4.414,12L9,16.586V15c0-0.553,0.448-1,1-1h10v-4H10
		c-0.552,0-1-0.448-1-1V7.414L4.414,12z"/>
</g>
</svg>
