<?xml version="1.0" encoding="iso-8859-1"?>
<!-- Generator: Adobe Illustrator 27.4.0, SVG Export Plug-In . SVG Version: 6.00 Build 0)  -->
<svg version="1.1" id="Layer_1" xmlns="http://www.w3.org/2000/svg" xmlns:xlink="http://www.w3.org/1999/xlink" x="0px" y="0px"
	 viewBox="0 0 24 24" style="enable-background:new 0 0 24 24;" xml:space="preserve">
<g>
	<path d="M12,23c-3.915,0-7.566-2.107-9.528-5.499c-0.276-0.479-0.113-1.09,0.365-1.366c0.477-0.277,1.09-0.114,1.366,0.364
		C5.809,19.275,8.797,21,12,21c4.963,0,9-4.037,9-9c0-4.962-4.037-9-9-9C8.797,3,5.81,4.725,4.204,7.501
		C3.927,7.979,3.314,8.143,2.837,7.866C2.359,7.589,2.196,6.978,2.472,6.499C4.435,3.107,8.085,1,12,1c6.065,0,11,4.935,11,11
		S18.065,23,12,23z M12,17c-0.256,0-0.512-0.098-0.707-0.293c-0.391-0.391-0.391-1.023,0-1.414L13.586,13H2c-0.552,0-1-0.448-1-1
		s0.448-1,1-1h11.586l-2.293-2.293c-0.391-0.391-0.391-1.023,0-1.414s1.023-0.391,1.414,0l4,4c0.097,0.096,0.169,0.208,0.218,0.326
		C16.973,11.735,17,11.863,17,11.997l0,0c0,0.002,0,0.004,0,0.006l0,0c0,0.134-0.027,0.262-0.075,0.378
		c-0.049,0.119-0.121,0.23-0.218,0.326l-4,4C12.512,16.902,12.256,17,12,17z"/>
</g>
</svg>
