<?xml version="1.0" encoding="iso-8859-1"?>
<!-- Generator: Adobe Illustrator 27.4.0, SVG Export Plug-In . SVG Version: 6.00 Build 0)  -->
<svg version="1.1" id="Layer_1" xmlns="http://www.w3.org/2000/svg" xmlns:xlink="http://www.w3.org/1999/xlink" x="0px" y="0px"
	 viewBox="0 0 24 24" style="enable-background:new 0 0 24 24;" xml:space="preserve">
<g>
	<path d="M12,20c-0.001,0-0.002,0-0.003,0l0,0c-0.134,0-0.262-0.027-0.378-0.075c-0.119-0.049-0.23-0.121-0.326-0.218l-7-7
		c-0.391-0.391-0.391-1.023,0-1.414s1.023-0.391,1.414,0L11,16.586V5c0-0.552,0.448-1,1-1s1,0.448,1,1v11.586l5.293-5.293
		c0.391-0.391,1.023-0.391,1.414,0s0.391,1.023,0,1.414l-7,7c-0.096,0.097-0.208,0.169-0.326,0.218
		C12.265,19.973,12.137,20,12.003,20l0,0C12.002,20,12.001,20,12,20z"/>
</g>
</svg>
