<?xml version="1.0" encoding="iso-8859-1"?>
<!-- Generator: Adobe Illustrator 27.4.0, SVG Export Plug-In . SVG Version: 6.00 Build 0)  -->
<svg version="1.1" id="Layer_1" xmlns="http://www.w3.org/2000/svg" xmlns:xlink="http://www.w3.org/1999/xlink" x="0px" y="0px"
	 viewBox="0 0 24 24" style="enable-background:new 0 0 24 24;" xml:space="preserve">
<g>
	<path d="M14,19c-0.256,0-0.512-0.098-0.707-0.293c-0.391-0.391-0.391-1.023,0-1.414L17.586,13H4c-0.552,0-1-0.448-1-1s0.448-1,1-1
		h13.586l-4.293-4.293c-0.391-0.391-0.391-1.023,0-1.414s1.023-0.391,1.414,0l6,6c0.097,0.096,0.169,0.208,0.218,0.326
		C20.973,11.735,21,11.863,21,11.997l0,0c0,0.002,0,0.004,0,0.006l0,0c0,0.134-0.027,0.262-0.075,0.378
		c-0.049,0.119-0.121,0.23-0.218,0.326l-6,6C14.512,18.902,14.256,19,14,19z"/>
</g>
</svg>
