<?xml version="1.0" encoding="iso-8859-1"?>
<!-- Generator: Adobe Illustrator 27.4.0, SVG Export Plug-In . SVG Version: 6.00 Build 0)  -->
<svg version="1.1" id="Layer_1" xmlns="http://www.w3.org/2000/svg" xmlns:xlink="http://www.w3.org/1999/xlink" x="0px" y="0px"
	 viewBox="0 0 24 24" style="enable-background:new 0 0 24 24;" xml:space="preserve">
<g>
	<path d="M7,21c-0.001,0-0.002,0-0.003,0l0,0c-0.134,0-0.262-0.027-0.378-0.075c-0.119-0.049-0.23-0.121-0.326-0.218l-4-4
		c-0.391-0.391-0.391-1.023,0-1.414s1.023-0.391,1.414,0L6,17.586V4c0-0.552,0.448-1,1-1s1,0.448,1,1v13.586l2.293-2.293
		c0.391-0.391,1.023-0.391,1.414,0s0.391,1.023,0,1.414l-4,4c-0.096,0.097-0.208,0.169-0.326,0.218C7.265,20.973,7.137,21,7.003,21
		l0,0C7.002,21,7.001,21,7,21z M17,16c-0.001,0-0.002,0-0.003,0l0,0c-0.134,0-0.262-0.027-0.378-0.075
		c-0.119-0.049-0.229-0.121-0.326-0.218l-4-4c-0.391-0.391-0.391-1.023,0-1.414s1.023-0.391,1.414,0L16,12.586V4
		c0-0.552,0.447-1,1-1s1,0.448,1,1v8.586l2.293-2.293c0.391-0.391,1.023-0.391,1.414,0s0.391,1.023,0,1.414l-4,4
		c-0.097,0.097-0.207,0.169-0.326,0.218C17.265,15.973,17.137,16,17.003,16l0,0C17.002,16,17.001,16,17,16z"/>
</g>
</svg>
