<?xml version="1.0" encoding="iso-8859-1"?>
<!-- Generator: Adobe Illustrator 27.4.0, SVG Export Plug-In . SVG Version: 6.00 Build 0)  -->
<svg version="1.1" id="Layer_1" xmlns="http://www.w3.org/2000/svg" xmlns:xlink="http://www.w3.org/1999/xlink" x="0px" y="0px"
	 viewBox="0 0 24 24" style="enable-background:new 0 0 24 24;" xml:space="preserve">
<g>
	<path d="M17,18H7c-0.001,0-0.002,0-0.003,0l0,0c-0.134,0-0.262-0.027-0.378-0.075c-0.119-0.049-0.23-0.121-0.326-0.218
		S6.124,17.5,6.075,17.381C6.027,17.265,6,17.137,6,17.003l0,0C6,17.002,6,17.001,6,17V7c0-0.552,0.448-1,1-1s1,0.448,1,1v7.586
		l8.293-8.293c0.391-0.391,1.023-0.391,1.414,0s0.391,1.023,0,1.414L9.414,16H17c0.553,0,1,0.447,1,1S17.553,18,17,18z"/>
</g>
</svg>
