<?xml version="1.0" encoding="iso-8859-1"?>
<!-- Generator: Adobe Illustrator 27.4.0, SVG Export Plug-In . SVG Version: 6.00 Build 0)  -->
<svg version="1.1" id="Layer_1" xmlns="http://www.w3.org/2000/svg" xmlns:xlink="http://www.w3.org/1999/xlink" x="0px" y="0px"
	 viewBox="0 0 24 24" style="enable-background:new 0 0 24 24;" xml:space="preserve">
<g>
	<path d="M12,22c-0.256,0-0.512-0.098-0.707-0.293l-7-7c-0.286-0.286-0.372-0.716-0.217-1.09S4.596,13,5,13h3V3.8
		c0-0.354,0-0.661,0.165-0.982c0.143-0.282,0.371-0.51,0.656-0.654C9.139,2,9.445,2,9.8,2h4.4c0.355,0,0.662,0,0.983,0.165
		c0.28,0.142,0.508,0.369,0.653,0.655C16,3.139,16,3.445,16,3.8V13h3c0.404,0,0.77,0.243,0.924,0.617
		c0.155,0.374,0.069,0.804-0.217,1.09l-7,7C12.512,21.902,12.256,22,12,22z M7.414,15L12,19.586L16.586,15H15c-0.553,0-1-0.447-1-1
		V4h-4v10c0,0.553-0.448,1-1,1H7.414z"/>
</g>
</svg>
