<?xml version="1.0" encoding="iso-8859-1"?>
<!-- Generator: Adobe Illustrator 27.4.0, SVG Export Plug-In . SVG Version: 6.00 Build 0)  -->
<svg version="1.1" id="Layer_1" xmlns="http://www.w3.org/2000/svg" xmlns:xlink="http://www.w3.org/1999/xlink" x="0px" y="0px"
	 viewBox="0 0 24 24" style="enable-background:new 0 0 24 24;" xml:space="preserve">
<g>
	<path d="M12,21c-0.552,0-1-0.447-1-1v-5.586l-4.293,4.293c-0.391,0.391-1.023,0.391-1.414,0s-0.391-1.023,0-1.414L9.586,13H4
		c-0.552,0-1-0.448-1-1s0.448-1,1-1h5.586L5.293,6.707c-0.391-0.391-0.391-1.023,0-1.414s1.023-0.391,1.414,0L11,9.586V4
		c0-0.552,0.448-1,1-1s1,0.448,1,1v5.586l4.293-4.293c0.391-0.391,1.023-0.391,1.414,0s0.391,1.023,0,1.414L14.414,11H20
		c0.553,0,1,0.448,1,1s-0.447,1-1,1h-5.586l4.293,4.293c0.391,0.391,0.391,1.023,0,1.414s-1.023,0.391-1.414,0L13,14.414V20
		C13,20.553,12.552,21,12,21z"/>
</g>
</svg>
