<?xml version="1.0" encoding="iso-8859-1"?>
<!-- Generator: Adobe Illustrator 27.4.0, SVG Export Plug-In . SVG Version: 6.00 Build 0)  -->
<svg version="1.1" id="Layer_1" xmlns="http://www.w3.org/2000/svg" xmlns:xlink="http://www.w3.org/1999/xlink" x="0px" y="0px"
	 viewBox="0 0 24 24" style="enable-background:new 0 0 24 24;" xml:space="preserve">
<g>
	<path d="M12,23c-0.552,0-1-0.447-1-1v-7.586l-5.364,5.364c-0.391,0.391-1.023,0.391-1.414,0s-0.391-1.023,0-1.414L9.586,13H2
		c-0.552,0-1-0.448-1-1s0.448-1,1-1h7.586L4.222,5.636c-0.391-0.391-0.391-1.023,0-1.414s1.023-0.391,1.414,0L11,9.586V2
		c0-0.552,0.448-1,1-1s1,0.448,1,1v7.586l5.364-5.364c0.391-0.391,1.023-0.391,1.414,0s0.391,1.023,0,1.414L14.414,11H22
		c0.553,0,1,0.448,1,1s-0.447,1-1,1h-7.586l5.364,5.364c0.391,0.391,0.391,1.023,0,1.414s-1.023,0.391-1.414,0L13,14.414V22
		C13,22.553,12.552,23,12,23z"/>
</g>
</svg>
