<?xml version="1.0" encoding="iso-8859-1"?>
<!-- Generator: Adobe Illustrator 27.4.0, SVG Export Plug-In . SVG Version: 6.00 Build 0)  -->
<svg version="1.1" id="Layer_1" xmlns="http://www.w3.org/2000/svg" xmlns:xlink="http://www.w3.org/1999/xlink" x="0px" y="0px"
	 viewBox="0 0 24 24" style="enable-background:new 0 0 24 24;" xml:space="preserve">
<g>
	<path d="M11.999,23.001c-0.062,0-0.125-0.001-0.188-0.002c-2.472-0.043-4.885-0.931-6.795-2.5c-1.911-1.57-3.25-3.767-3.77-6.182
		c-0.521-2.418-0.205-4.97,0.89-7.187C3.231,4.914,5.065,3.111,7.3,2.055c2.236-1.057,4.792-1.33,7.2-0.767
		c2.407,0.562,4.58,1.938,6.116,3.874C22.153,7.099,23,9.527,23,12v1c0,1.068-0.416,2.072-1.172,2.828
		c-1.512,1.512-4.145,1.512-5.656,0c-0.16-0.16-0.305-0.331-0.434-0.512C14.822,16.349,13.485,17,12,17c-2.757,0-5-2.243-5-5
		s2.243-5,5-5c1.125,0,2.164,0.374,3,1.002V8c0-0.552,0.447-1,1-1s1,0.448,1,1v5c0,0.534,0.208,1.036,0.586,1.414
		c0.756,0.756,2.072,0.756,2.828,0C20.792,14.036,21,13.534,21,13v-1c0-2.023-0.692-4.01-1.95-5.594
		c-1.257-1.584-3.034-2.71-5.005-3.17c-1.97-0.46-4.062-0.237-5.89,0.628C6.326,4.728,4.825,6.203,3.93,8.016
		c-0.895,1.814-1.154,3.902-0.728,5.88c0.426,1.976,1.521,3.772,3.084,5.058c1.562,1.284,3.537,2.01,5.559,2.045
		c2.023,0.048,4.021-0.623,5.626-1.854c0.439-0.335,1.066-0.252,1.402,0.186c0.336,0.438,0.253,1.066-0.186,1.402
		C16.775,22.199,14.406,23,11.999,23.001z M12,9c-1.654,0-3,1.346-3,3s1.346,3,3,3s3-1.346,3-3S13.654,9,12,9z"/>
</g>
</svg>
