<?xml version="1.0" encoding="iso-8859-1"?>
<!-- Generator: Adobe Illustrator 27.4.0, SVG Export Plug-In . SVG Version: 6.00 Build 0)  -->
<svg version="1.1" id="Layer_1" xmlns="http://www.w3.org/2000/svg" xmlns:xlink="http://www.w3.org/1999/xlink" x="0px" y="0px"
	 viewBox="0 0 24 24" style="enable-background:new 0 0 24 24;" xml:space="preserve">
<g>
	<path d="M16.834,21.886c-0.804,0-1.674-0.135-2.596-0.405c-0.732-0.216-1.476-0.512-2.217-0.881
		c-0.742,0.369-1.485,0.665-2.218,0.881c-2.639,0.775-4.864,0.431-6.268-0.975c-1.795-1.795-1.82-5.012-0.095-8.48
		c-1.682-3.377-1.762-6.633,0.095-8.49S8.648,1.76,12.025,3.44c0.74-0.368,1.482-0.664,2.213-0.879
		c2.641-0.777,4.864-0.43,6.268,0.974c1.796,1.796,1.82,5.014,0.093,8.484c0.369,0.742,0.666,1.486,0.882,2.22
		c0.775,2.638,0.43,4.863-0.975,6.267C19.593,21.42,18.331,21.886,16.834,21.886z M14.14,19.342c0.222,0.082,0.443,0.155,0.663,0.22
		c1.879,0.552,3.439,0.382,4.289-0.47c0.851-0.85,1.021-2.413,0.47-4.289c-0.214-0.728-0.523-1.471-0.917-2.213
		c-0.039-0.059-0.073-0.121-0.1-0.186c-0.741-1.349-1.759-2.689-2.988-3.919c-1.125-1.125-2.338-2.059-3.538-2.769
		C10.8,6.435,9.597,7.374,8.485,8.485c-0.295,0.295-0.577,0.596-0.845,0.9C7.275,9.8,6.644,9.841,6.229,9.476
		c-0.415-0.365-0.455-0.997-0.09-1.412c0.296-0.336,0.607-0.667,0.933-0.993C7.969,6.173,8.926,5.374,9.91,4.695
		C7.822,3.911,5.969,3.929,4.95,4.95c-1.917,1.917-0.297,6.774,3.536,10.607c1.113,1.113,2.316,2.052,3.536,2.771
		c1.219-0.719,2.422-1.657,3.536-2.771c0.282-0.282,0.553-0.57,0.81-0.861c0.367-0.413,1-0.45,1.412-0.086
		c0.413,0.366,0.452,0.998,0.086,1.412c-0.284,0.32-0.582,0.638-0.894,0.949C16.075,17.866,15.12,18.664,14.14,19.342z M4.7,14.144
		c-0.785,2.133-0.716,3.981,0.25,4.948c0.85,0.852,2.413,1.021,4.289,0.47c0.22-0.064,0.441-0.138,0.664-0.22
		c-0.981-0.678-1.936-1.476-2.831-2.371C6.161,16.061,5.368,15.108,4.7,14.144z M14.143,4.699c0.965,0.668,1.917,1.462,2.828,2.373
		c0.896,0.895,1.692,1.849,2.37,2.83c0.786-2.134,0.718-3.984-0.249-4.951c-0.849-0.85-2.41-1.021-4.289-0.47
		C14.584,4.544,14.364,4.618,14.143,4.699z M12,14c-1.103,0-2-0.897-2-2c0-1.103,0.897-2,2-2c1.103,0,2,0.897,2,2
		C14,13.103,13.103,14,12,14z M12,11.999V12V11.999z"/>
</g>
</svg>
