<?xml version="1.0" encoding="iso-8859-1"?>
<!-- Generator: Adobe Illustrator 27.4.0, SVG Export Plug-In . SVG Version: 6.00 Build 0)  -->
<svg version="1.1" id="Layer_1" xmlns="http://www.w3.org/2000/svg" xmlns:xlink="http://www.w3.org/1999/xlink" x="0px" y="0px"
	 viewBox="0 0 24 24" style="enable-background:new 0 0 24 24;" xml:space="preserve">
<g>
	<path d="M5.521,22.192c-1.123,0-2.047-0.334-2.713-1c-1.249-1.248-1.331-3.404-0.232-6.072c0.416-1.01,0.984-2.06,1.68-3.112
		c-2.55-3.849-3.221-7.427-1.447-9.2c1.773-1.772,5.352-1.102,9.2,1.447c1.053-0.696,2.102-1.264,3.112-1.68
		c2.667-1.099,4.824-1.016,6.072,0.232c1.249,1.248,1.331,3.405,0.233,6.073C21.008,9.893,20.438,10.944,19.74,12
		c0.697,1.056,1.268,2.107,1.685,3.119c1.098,2.668,1.016,4.825-0.233,6.073c-1.248,1.249-3.405,1.329-6.072,0.232
		c-1.012-0.417-2.063-0.987-3.119-1.685c-1.056,0.698-2.108,1.269-3.12,1.685C7.636,21.938,6.502,22.192,5.521,22.192z
		 M13.744,18.474c2.786,1.693,5.157,2.177,6.033,1.305c0.622-0.622,0.546-2.079-0.202-3.897c-0.286-0.695-0.655-1.413-1.098-2.142
		c-0.675,0.852-1.425,1.693-2.235,2.504l0,0C15.434,17.052,14.594,17.8,13.744,18.474z M5.52,13.744
		c-0.441,0.727-0.81,1.443-1.095,2.137C3.675,17.7,3.6,19.156,4.221,19.778C4.842,20.4,6.3,20.324,8.119,19.575
		c0.695-0.286,1.414-0.655,2.142-1.098c-0.852-0.675-1.693-1.425-2.504-2.235C6.932,15.418,6.185,14.58,5.52,13.744z M6.708,11.997
		c0.701,0.936,1.524,1.892,2.463,2.832c0.94,0.939,1.896,1.763,2.833,2.464c0.957-0.719,1.909-1.548,2.825-2.463
		c0.917-0.917,1.747-1.871,2.467-2.829c-0.72-0.958-1.55-1.912-2.467-2.829c-0.939-0.939-1.896-1.763-2.832-2.463
		c-0.957,0.719-1.909,1.548-2.825,2.464C8.255,10.088,7.426,11.04,6.708,11.997z M15.535,15.536h0.01H15.535z M13.743,5.52
		c0.836,0.665,1.674,1.412,2.499,2.237c0.811,0.811,1.561,1.652,2.235,2.503c0.442-0.728,0.812-1.447,1.098-2.141
		c0.748-1.819,0.824-3.276,0.202-3.898s-2.079-0.546-3.897,0.203C15.188,4.71,14.47,5.079,13.743,5.52z M5.525,3.794
		c-0.57,0-1.017,0.141-1.304,0.427C3.346,5.097,3.833,7.47,5.526,10.256c0.673-0.85,1.421-1.689,2.23-2.498S9.405,6.2,10.255,5.527
		C8.382,4.388,6.695,3.794,5.525,3.794z M12,13.5c-0.827,0-1.5-0.673-1.5-1.5s0.673-1.5,1.5-1.5s1.5,0.673,1.5,1.5
		S12.827,13.5,12,13.5z"/>
</g>
</svg>
