<?xml version="1.0" encoding="iso-8859-1"?>
<!-- Generator: Adobe Illustrator 27.4.0, SVG Export Plug-In . SVG Version: 6.00 Build 0)  -->
<svg version="1.1" id="Layer_1" xmlns="http://www.w3.org/2000/svg" xmlns:xlink="http://www.w3.org/1999/xlink" x="0px" y="0px"
	 viewBox="0 0 24 24" style="enable-background:new 0 0 24 24;" xml:space="preserve">
<g>
	<path d="M12,23c-3.584,0-6.5-2.916-6.5-6.5V5.667C5.5,3.093,7.593,1,10.167,1s4.667,2.093,4.667,4.667v10.779
		c0,1.562-1.271,2.834-2.833,2.834s-2.833-1.271-2.833-2.834V6.651c0-0.552,0.448-1,1-1s1,0.448,1,1v9.794
		c0,0.46,0.374,0.834,0.833,0.834s0.833-0.374,0.833-0.834V5.667c0-1.47-1.196-2.667-2.667-2.667S7.5,4.196,7.5,5.667V16.5
		c0,2.481,2.019,4.5,4.5,4.5s4.5-2.019,4.5-4.5V5.256c0-0.552,0.447-1,1-1s1,0.448,1,1V16.5C18.5,20.084,15.584,23,12,23z"/>
</g>
</svg>
