<?xml version="1.0" encoding="iso-8859-1"?>
<!-- Generator: Adobe Illustrator 27.4.0, SVG Export Plug-In . SVG Version: 6.00 Build 0)  -->
<svg version="1.1" id="Layer_1" xmlns="http://www.w3.org/2000/svg" xmlns:xlink="http://www.w3.org/1999/xlink" x="0px" y="0px"
	 viewBox="0 0 24 24" style="enable-background:new 0 0 24 24;" xml:space="preserve">
<g>
	<path d="M12,23c-1.603,0-3.109-0.624-4.243-1.758C6.624,20.109,6,18.603,6,17c0-1.488,0.539-2.895,1.523-3.995L3.92,8.501
		C3.638,8.149,3.468,7.936,3.329,7.666C3.205,7.42,3.115,7.165,3.062,6.901C3,6.604,3,6.33,3,5.877V5.2c0-1.238,0-1.92,0.327-2.562
		C3.617,2.07,4.07,1.617,4.637,1.327C5.28,1,5.962,1,7.2,1h9.6c1.238,0,1.921,0,2.562,0.327c0.567,0.29,1.02,0.742,1.311,1.31
		C21,3.28,21,3.962,21,5.2v0.677c0,0.453,0,0.726-0.062,1.025c-0.055,0.265-0.144,0.521-0.267,0.761
		c-0.14,0.273-0.311,0.486-0.592,0.838l-3.604,4.505C17.462,14.105,18,15.512,18,17c0,1.603-0.624,3.109-1.758,4.242
		C15.109,22.376,13.603,23,12,23z M9.483,13.891c-0.108,0.088-0.212,0.182-0.312,0.281C8.416,14.928,8,15.932,8,17
		s0.416,2.072,1.171,2.828c1.512,1.512,4.145,1.512,5.657,0C15.584,19.072,16,18.068,16,17s-0.416-2.072-1.172-2.828l0,0
		c-1.401-1.4-3.779-1.523-5.307-0.312c-0.006,0.006-0.013,0.011-0.02,0.017C9.495,13.881,9.489,13.886,9.483,13.891z M13.826,11.281
		c0.378,0.121,0.743,0.279,1.091,0.473l3.601-4.502c0.204-0.255,0.327-0.408,0.374-0.5c0.04-0.077,0.069-0.163,0.088-0.251
		C19,6.399,19,6.203,19,5.877V5.2c0-0.207,0-0.397-0.002-0.569L13.826,11.281z M5.001,4.631C5,4.803,5,4.993,5,5.2v0.677
		c0,0.326,0,0.522,0.021,0.622c0.018,0.089,0.048,0.175,0.09,0.257c0.045,0.088,0.168,0.241,0.372,0.496l3.602,4.501
		c0.347-0.194,0.712-0.352,1.091-0.472L5.001,4.631z M6.273,3.008L12,10.371l5.727-7.363C17.473,3,17.162,3,16.8,3H7.2
		C6.838,3,6.528,3,6.273,3.008z"/>
</g>
</svg>
