<?xml version="1.0" encoding="iso-8859-1"?>
<!-- Generator: Adobe Illustrator 27.4.0, SVG Export Plug-In . SVG Version: 6.00 Build 0)  -->
<svg version="1.1" id="Layer_1" xmlns="http://www.w3.org/2000/svg" xmlns:xlink="http://www.w3.org/1999/xlink" x="0px" y="0px"
	 viewBox="0 0 24 24" style="enable-background:new 0 0 24 24;" xml:space="preserve">
<g>
	<path d="M17,23c-0.178,0-0.355-0.047-0.515-0.143L12,20.166l-4.485,2.691c-0.329,0.197-0.743,0.189-1.063-0.021
		c-0.321-0.211-0.493-0.587-0.442-0.968L6.9,15.159C5.129,13.69,4,11.475,4,9c0-4.411,3.589-8,8-8s8,3.589,8,8
		c0,2.474-1.129,4.689-2.899,6.158l0.891,6.71c0.051,0.381-0.121,0.757-0.442,0.968C17.383,22.945,17.191,23,17,23z M12,18.083
		c0.109,0,0.217,0.012,0.323,0.035c0.238,0.053,0.406,0.153,0.601,0.27l2.812,1.688l-0.498-3.76
		c-1.979,0.881-4.492,0.88-6.474,0.001l-0.499,3.759l2.809-1.686c0.197-0.118,0.365-0.219,0.603-0.271
		C11.783,18.095,11.892,18.083,12,18.083z M12,3C8.691,3,6,5.691,6,9s2.691,6,6,6s6-2.691,6-6S15.309,3,12,3z"/>
</g>
</svg>
