<?xml version="1.0" encoding="iso-8859-1"?>
<!-- Generator: Adobe Illustrator 27.4.0, SVG Export Plug-In . SVG Version: 6.00 Build 0)  -->
<svg version="1.1" id="Layer_1" xmlns="http://www.w3.org/2000/svg" xmlns:xlink="http://www.w3.org/1999/xlink" x="0px" y="0px"
	 viewBox="0 0 24 24" style="enable-background:new 0 0 24 24;" xml:space="preserve">
<g>
	<path d="M17,23c-0.126,0-0.252-0.023-0.371-0.071l-4.646-1.858l-4.611,1.858c-0.308,0.123-0.657,0.085-0.932-0.101
		C6.165,22.642,6,22.332,6,22v-6.484c-1.543-1.54-2.5-3.668-2.5-6.016C3.5,4.813,7.313,1,12,1c4.687,0,8.5,3.813,8.5,8.5
		c0,2.347-0.957,4.476-2.5,6.016V22c0,0.332-0.165,0.642-0.439,0.828C17.393,22.941,17.197,23,17,23z M8,16.999v3.524l3.332-1.333
		c0.141-0.057,0.27-0.108,0.439-0.135c0.151-0.023,0.307-0.023,0.458,0c0.169,0.026,0.298,0.078,0.434,0.133L16,20.523v-3.524
		C14.808,17.638,13.445,18,12,18S9.193,17.638,8,16.999z M12,3C8.416,3,5.5,5.916,5.5,9.5S8.416,16,12,16s6.5-2.916,6.5-6.5
		S15.584,3,12,3z"/>
</g>
</svg>
