<?xml version="1.0" encoding="iso-8859-1"?>
<!-- Generator: Adobe Illustrator 27.4.0, SVG Export Plug-In . SVG Version: 6.00 Build 0)  -->
<svg version="1.1" id="Layer_1" xmlns="http://www.w3.org/2000/svg" xmlns:xlink="http://www.w3.org/1999/xlink" x="0px" y="0px"
	 viewBox="0 0 24 24" style="enable-background:new 0 0 24 24;" xml:space="preserve">
<g>
	<path d="M17,23c-0.178,0-0.355-0.047-0.515-0.143L12,20.166l-4.485,2.691c-0.329,0.197-0.743,0.189-1.063-0.021
		c-0.321-0.211-0.493-0.587-0.442-0.968l0.833-6.273l-0.191-0.462c-0.054-0.13-0.155-0.23-0.284-0.284l-1.308-0.542
		c-0.613-0.253-1.112-0.751-1.366-1.366c-0.258-0.622-0.258-1.308-0.001-1.931l0.542-1.309C4.288,9.573,4.287,9.43,4.233,9.3
		L3.692,7.989C3.565,7.682,3.5,7.357,3.5,7.024s0.065-0.658,0.192-0.966C3.82,5.75,4.004,5.475,4.24,5.239s0.511-0.42,0.819-0.547
		l1.308-0.542c0.13-0.054,0.231-0.154,0.285-0.284l0.542-1.307c0.258-0.623,0.743-1.108,1.366-1.366
		c0.622-0.258,1.308-0.258,1.932,0l1.308,0.542c0.128,0.052,0.271,0.053,0.4,0l1.312-0.541c0.612-0.254,1.318-0.253,1.93,0.001
		c0.621,0.256,1.106,0.741,1.366,1.365l0.542,1.311l0,0V3.867l0,0c0.053,0.127,0.156,0.23,0.283,0.283l1.309,0.542
		c0.614,0.253,1.112,0.751,1.366,1.367c0.255,0.613,0.255,1.318,0,1.933l-0.542,1.307c-0.053,0.127-0.053,0.273,0,0.4l0.542,1.31
		c0.128,0.311,0.192,0.635,0.192,0.966c0,0.331-0.064,0.655-0.191,0.964c-0.13,0.311-0.313,0.585-0.548,0.82
		c-0.237,0.237-0.513,0.421-0.82,0.549l-1.308,0.541c-0.128,0.053-0.231,0.156-0.285,0.284l-0.189,0.458l0.833,6.276
		c0.051,0.381-0.121,0.757-0.442,0.968C17.383,22.945,17.191,23,17,23z M12,18.083c0.109,0,0.217,0.012,0.323,0.035
		c0.238,0.053,0.406,0.153,0.601,0.27l2.813,1.688l-0.301-2.266c-0.61,0.252-1.313,0.254-1.929-0.002L12.2,17.266
		c-0.128-0.054-0.271-0.051-0.402,0.001l-1.308,0.542c-0.623,0.257-1.306,0.256-1.925,0.002l-0.301,2.265l2.809-1.686
		c0.197-0.118,0.365-0.219,0.603-0.271C11.783,18.095,11.892,18.083,12,18.083z M8.796,15.085l0.245,0.592
		c0.053,0.127,0.156,0.23,0.283,0.283c0.131,0.054,0.273,0.054,0.402,0.001l1.308-0.542c0.624-0.257,1.309-0.26,1.931-0.001
		l1.309,0.542c0.131,0.055,0.271,0.054,0.4,0.001c0.131-0.055,0.231-0.155,0.285-0.286l0.239-0.577
		c0.006-0.016,0.012-0.03,0.019-0.045l0.284-0.686c0.256-0.615,0.754-1.112,1.367-1.365l1.308-0.542
		c0.064-0.026,0.121-0.064,0.17-0.113s0.088-0.107,0.115-0.173c0.025-0.062,0.039-0.13,0.039-0.199c0-0.068-0.014-0.138-0.041-0.203
		l-0.54-1.306c-0.255-0.611-0.256-1.316-0.001-1.931l0.542-1.309c0.054-0.13,0.054-0.271,0-0.4
		c-0.053-0.129-0.155-0.231-0.283-0.284l-1.31-0.543c-0.614-0.255-1.111-0.752-1.365-1.366L14.96,3.325
		c-0.054-0.129-0.154-0.23-0.283-0.283c-0.129-0.054-0.275-0.053-0.402,0l-1.31,0.54c-0.62,0.259-1.305,0.258-1.93,0.001L9.726,3.04
		c-0.13-0.054-0.272-0.054-0.401,0c-0.13,0.054-0.23,0.154-0.284,0.284L8.499,4.632C8.239,5.256,7.754,5.74,7.132,5.998L5.824,6.539
		C5.76,6.565,5.703,6.604,5.654,6.653C5.605,6.702,5.566,6.759,5.54,6.823S5.5,6.955,5.5,7.024s0.014,0.137,0.04,0.201l0.542,1.311
		c0.257,0.622,0.258,1.308,0.001,1.93L5.54,11.775c-0.053,0.128-0.053,0.271,0,0.4c0.053,0.128,0.156,0.231,0.283,0.284l1.31,0.542
		c0.624,0.259,1.108,0.744,1.365,1.367l0.292,0.703C8.792,15.076,8.794,15.08,8.796,15.085z"/>
</g>
</svg>
