<?xml version="1.0" encoding="iso-8859-1"?>
<!-- Generator: Adobe Illustrator 27.4.0, SVG Export Plug-In . SVG Version: 6.00 Build 0)  -->
<svg version="1.1" id="Layer_1" xmlns="http://www.w3.org/2000/svg" xmlns:xlink="http://www.w3.org/1999/xlink" x="0px" y="0px"
	 viewBox="0 0 24 24" style="enable-background:new 0 0 24 24;" xml:space="preserve">
<g>
	<path d="M12,22.996c-1.921,0-3.841-0.73-5.303-2.192C4.054,18.16,3.8,14.02,5.934,11.089L2.457,4.868
		C1.932,3.929,1.643,3.412,1.718,2.771C1.782,2.213,2.08,1.705,2.536,1.377C3.059,1,3.652,1,4.727,1h2.235
		C7.358,1,7.62,1,7.919,1.097c0.264,0.085,0.504,0.222,0.714,0.408c0.237,0.21,0.376,0.448,0.57,0.777L12,7.03l2.798-4.749
		c0.205-0.348,0.336-0.569,0.568-0.776c0.211-0.187,0.451-0.323,0.716-0.408C16.38,1,16.642,1,17.038,1h2.235
		c1.075,0,1.667,0,2.19,0.377c0.456,0.328,0.754,0.836,0.818,1.395c0.074,0.641-0.215,1.158-0.739,2.097l-3.477,6.221
		c2.134,2.931,1.88,7.071-0.763,9.715C15.842,22.266,13.921,22.996,12,22.996z M7.868,11.87c-1.898,2.158-1.817,5.459,0.243,7.52
		c2.145,2.146,5.635,2.144,7.779,0c2.06-2.061,2.141-5.363,0.242-7.521c-0.01-0.011-0.02-0.022-0.029-0.033
		c-0.068-0.076-0.14-0.152-0.213-0.225c-2.146-2.145-5.635-2.144-7.779,0c-0.073,0.073-0.144,0.148-0.212,0.224
		C7.889,11.847,7.878,11.859,7.868,11.87z M13.642,8.184c1.06,0.236,2.078,0.704,2.974,1.403l3.182-5.694
		c0.188-0.335,0.38-0.68,0.462-0.871C20.052,3,19.657,3,19.273,3h-2.235c-0.173,0-0.283-0.006-0.372,0.007
		c-0.004,0.038-0.054,0.133-0.139,0.277L13.642,8.184z M3.742,3.022c0.082,0.191,0.274,0.535,0.461,0.871l3.183,5.694
		C8.28,8.888,9.298,8.42,10.358,8.184l-2.88-4.888C7.391,3.146,7.34,3.048,7.284,2.979C7.246,2.994,7.135,3,6.962,3H4.727
		C4.343,3,3.948,3,3.742,3.022z M13.25,19h-2.5c-0.552,0-1-0.447-1-1s0.448-1,1-1H11v-2.134c-0.454,0.262-1.038,0.13-1.332-0.312
		c-0.306-0.46-0.182-1.08,0.277-1.387l1.5-1c0.307-0.205,0.702-0.224,1.026-0.05C12.797,12.292,13,12.631,13,13v4h0.25
		c0.553,0,1,0.447,1,1S13.803,19,13.25,19z"/>
</g>
</svg>
