<?xml version="1.0" encoding="iso-8859-1"?>
<!-- Generator: Adobe Illustrator 27.4.0, SVG Export Plug-In . SVG Version: 6.00 Build 0)  -->
<svg version="1.1" id="Layer_1" xmlns="http://www.w3.org/2000/svg" xmlns:xlink="http://www.w3.org/1999/xlink" x="0px" y="0px"
	 viewBox="0 0 24 24" style="enable-background:new 0 0 24 24;" xml:space="preserve">
<g>
	<path d="M16.8,22H7.2c-1.238,0-1.92,0-2.562-0.326c-0.57-0.292-1.022-0.744-1.312-1.311C3,19.721,3,19.038,3,17.8V13
		c0,0,0-0.001,0-0.001c-0.194-0.259-0.364-0.537-0.505-0.83C2,11.141,2,9.996,2,7.714c0-1.749,0-2.627,0.396-3.45
		c0.392-0.813,1.056-1.477,1.869-1.869C5.087,2,5.965,2,7.714,2h8.572c1.749,0,2.626,0,3.449,0.396
		c0.813,0.392,1.477,1.056,1.869,1.869C22,5.087,22,5.965,22,7.714c0,2.282,0,3.427-0.496,4.456c-0.141,0.293-0.31,0.57-0.504,0.829
		c0,0,0,0,0,0.001v4.8c0,1.238,0,1.921-0.326,2.562c-0.291,0.567-0.744,1.021-1.311,1.311C18.721,22,18.038,22,16.8,22z M5,14.581
		V17.8c0,0.867,0,1.44,0.109,1.654c0.096,0.188,0.248,0.341,0.438,0.438C5.76,20,6.333,20,7.2,20h9.6c0.867,0,1.44,0,1.654-0.109
		c0.188-0.096,0.341-0.248,0.438-0.438C19,19.24,19,18.667,19,17.8v-3.219C18.014,15,16.872,15,14.714,15H9.286
		C7.128,15,5.987,15,5,14.581z M7.714,4c-1.4,0-2.171,0-2.583,0.198C4.726,4.394,4.394,4.726,4.198,5.132C4,5.543,4,6.314,4,7.714
		c0,1.978,0,2.971,0.297,3.587c0.294,0.61,0.792,1.108,1.401,1.401C6.315,13,7.308,13,9.286,13h5.428c1.978,0,2.971,0,3.587-0.297
		c0.611-0.293,1.108-0.791,1.401-1.401C20,10.685,20,9.692,20,7.714c0-1.4,0-2.171-0.198-2.583
		c-0.195-0.406-0.527-0.738-0.934-0.934C18.457,4,17.686,4,16.286,4H7.714z M15,11H9c-0.552,0-1-0.448-1-1s0.448-1,1-1h6
		c0.553,0,1,0.448,1,1S15.553,11,15,11z"/>
</g>
</svg>
