<?xml version="1.0" encoding="iso-8859-1"?>
<!-- Generator: Adobe Illustrator 27.4.0, SVG Export Plug-In . SVG Version: 6.00 Build 0)  -->
<svg version="1.1" id="Layer_1" xmlns="http://www.w3.org/2000/svg" xmlns:xlink="http://www.w3.org/1999/xlink" x="0px" y="0px"
	 viewBox="0 0 24 24" style="enable-background:new 0 0 24 24;" xml:space="preserve">
<g>
	<path d="M18.8,20H5.2c-1.238,0-1.92,0-2.562-0.326c-0.57-0.292-1.022-0.744-1.312-1.311C1,17.721,1,17.038,1,15.8V8.2
		c0-1.238,0-1.92,0.327-2.562C1.617,5.07,2.07,4.617,2.637,4.327C3.28,4,3.962,4,5.2,4h13.6c1.238,0,1.921,0,2.562,0.327
		c0.567,0.29,1.02,0.742,1.311,1.31C23,6.28,23,6.962,23,8.2v7.6c0,1.238,0,1.921-0.326,2.562c-0.291,0.567-0.744,1.021-1.311,1.311
		C20.721,20,20.038,20,18.8,20z M5.2,6C4.333,6,3.76,6,3.545,6.109c-0.186,0.095-0.341,0.25-0.437,0.438C3,6.76,3,7.333,3,8.2v7.6
		c0,0.867,0,1.44,0.109,1.654c0.096,0.188,0.248,0.341,0.438,0.438C3.76,18,4.333,18,5.2,18h13.6c0.867,0,1.44,0,1.654-0.109
		c0.188-0.096,0.341-0.248,0.438-0.438C21,17.24,21,16.667,21,15.8V8.2c0-0.868,0-1.44-0.109-1.655
		c-0.096-0.188-0.248-0.34-0.438-0.437C20.24,6,19.667,6,18.8,6H5.2z M12,17c-0.552,0-1-0.447-1-1h-1c-0.552,0-1-0.447-1-1
		s0.448-1,1-1h2.5c0.276,0,0.5-0.225,0.5-0.5S12.776,13,12.5,13h-1C10.122,13,9,11.878,9,10.5c0-1.208,0.86-2.217,2-2.45V8
		c0-0.552,0.448-1,1-1s1,0.448,1,1h1c0.553,0,1,0.448,1,1s-0.447,1-1,1h-2.5c-0.276,0-0.5,0.224-0.5,0.5s0.224,0.5,0.5,0.5h1
		c1.379,0,2.5,1.122,2.5,2.5c0,1.207-0.86,2.218-2,2.45V16C13,16.553,12.552,17,12,17z M18,13.5c-0.827,0-1.5-0.673-1.5-1.5
		s0.673-1.5,1.5-1.5s1.5,0.673,1.5,1.5S18.827,13.5,18,13.5z M6,13.5c-0.827,0-1.5-0.673-1.5-1.5s0.673-1.5,1.5-1.5
		s1.5,0.673,1.5,1.5S6.827,13.5,6,13.5z"/>
</g>
</svg>
