<?xml version="1.0" encoding="iso-8859-1"?>
<!-- Generator: Adobe Illustrator 27.4.0, SVG Export Plug-In . SVG Version: 6.00 Build 0)  -->
<svg version="1.1" id="Layer_1" xmlns="http://www.w3.org/2000/svg" xmlns:xlink="http://www.w3.org/1999/xlink" x="0px" y="0px"
	 viewBox="0 0 24 24" style="enable-background:new 0 0 24 24;" xml:space="preserve">
<g>
	<path d="M19.4,22H4.6c-0.651,0-1.081,0-1.51-0.219c-0.377-0.192-0.679-0.494-0.872-0.873C2,20.48,2,20.051,2,19.4V18.6
		c0-0.65,0-1.08,0.218-1.508c0.193-0.379,0.496-0.681,0.875-0.874c0.28-0.143,0.562-0.192,0.908-0.209V9.991
		C3.655,9.975,3.373,9.925,3.092,9.782C2.713,9.588,2.412,9.287,2.219,8.91C2,8.48,2,8.05,2,7.4V6.284c0-0.538,0-0.893,0.162-1.27
		c0.144-0.335,0.375-0.624,0.67-0.835c0.334-0.24,0.68-0.317,1.205-0.433l7.399-1.645c0.193-0.043,0.291-0.06,0.388-0.069
		c0.116-0.011,0.236-0.011,0.356,0c0.094,0.008,0.192,0.025,0.385,0.068l7.399,1.645c0.524,0.116,0.871,0.193,1.205,0.433
		c0.297,0.215,0.527,0.503,0.67,0.836C22,5.391,22,5.746,22,6.284V7.4c0,0.651,0,1.081-0.219,1.51
		c-0.192,0.377-0.494,0.679-0.873,0.872C20.627,9.925,20.345,9.975,20,9.991v6.018c0.346,0.017,0.628,0.066,0.909,0.21
		c0.378,0.191,0.681,0.494,0.873,0.874C22,17.519,22,17.949,22,18.6V19.4c0,0.65,0,1.081-0.219,1.509
		c-0.191,0.378-0.494,0.681-0.874,0.873C20.481,22,20.051,22,19.4,22z M4.6,18c-0.278,0-0.566,0-0.648,0.02
		C4,18.033,4,18.321,4,18.6V19.4c0,0.278,0,0.566,0.02,0.648C4.034,20,4.322,20,4.6,20h14.8c0.278,0,0.565,0,0.647-0.02
		C20,19.966,20,19.679,20,19.4V18.6c0-0.278,0-0.565-0.02-0.647C19.966,18,19.679,18,19.4,18H4.6z M15.5,16H18v-6h-2.5V16z M10.5,16
		h3v-6h-3V16z M6,16h2.5v-6H6V16z M11.989,4.023l-0.119,0.03c0,0,0,0,0,0l-7.4,1.645C4.262,5.744,4.026,5.796,3.964,5.824
		C4,5.829,4,6.06,4,6.284V7.4c0,0.279,0,0.567,0.02,0.649C4.033,8,4.321,8,4.6,8h14.8c0.278,0,0.566,0,0.648-0.02
		C20,7.966,20,7.678,20,7.4V6.284c0-0.224,0-0.455-0.014-0.521c-0.013,0.036-0.248-0.017-0.456-0.064L11.989,4.023z M11.653,3.077
		h0.01H11.653z"/>
</g>
</svg>
