<?xml version="1.0" encoding="iso-8859-1"?>
<!-- Generator: Adobe Illustrator 27.4.0, SVG Export Plug-In . SVG Version: 6.00 Build 0)  -->
<svg version="1.1" id="Layer_1" xmlns="http://www.w3.org/2000/svg" xmlns:xlink="http://www.w3.org/1999/xlink" x="0px" y="0px"
	 viewBox="0 0 24 24" style="enable-background:new 0 0 24 24;" xml:space="preserve">
<g>
	<path d="M7,21c-2.588,0-4.058-0.407-4.835-0.75c-0.192-0.085-0.335-0.169-0.547-0.372c-0.187-0.179-0.411-0.522-0.499-0.767
		C1,18.783,1,18.557,1,18.337V7.589c0-1.122,0-1.634,0.272-2.101C1.532,5.043,1.85,4.781,2.336,4.609
		C2.846,4.43,3.374,4.531,4.65,4.776C5.423,4.925,6.211,5,7,5c1.241,0,2.572-0.412,3.981-0.848C12.727,3.612,14.705,3,17,3
		c2.591,0,4.06,0.408,4.836,0.75c0.187,0.083,0.329,0.166,0.543,0.369c0.191,0.183,0.416,0.529,0.504,0.773
		C23,5.217,23,5.443,23,5.663v10.749c0,1.122,0,1.635-0.273,2.103c-0.257,0.441-0.574,0.704-1.062,0.876
		c-0.514,0.181-1.044,0.078-2.322-0.167C18.577,19.075,17.788,19,17,19c-1.241,0-2.572,0.412-3.981,0.848
		C11.273,20.388,9.295,21,7,21z M3.009,18.436C3.55,18.662,4.727,19,7,19c1.992,0,3.739-0.54,5.428-1.062
		C13.985,17.455,15.456,17,17,17c0.915,0,1.831,0.087,2.721,0.258c0.51,0.099,1.035,0.199,1.279,0.22c0-0.126,0-0.604,0-1.066
		L20.999,5.568c-0.001,0-0.003-0.001-0.005-0.002C20.451,5.338,19.276,5,17,5c-1.992,0-3.738,0.541-5.428,1.063
		C10.015,6.545,8.543,7,7,7C6.085,7,5.169,6.913,4.279,6.742C3.744,6.639,3.238,6.542,3,6.522c0,0.125,0,0.603,0,1.066l0.001,10.844
		c0,0,0,0,0,0C3.002,18.432,3.005,18.433,3.009,18.436z M21.098,17.48L21.098,17.48L21.098,17.48z M21.052,5.591h0.011H21.052z
		 M6,16c-0.552,0-1-0.447-1-1v-4c0-0.552,0.448-1,1-1s1,0.448,1,1v4C7,15.553,6.552,16,6,16z M12,15.5c-1.93,0-3.5-1.57-3.5-3.5
		s1.57-3.5,3.5-3.5s3.5,1.57,3.5,3.5S13.93,15.5,12,15.5z M12,10.5c-0.827,0-1.5,0.673-1.5,1.5s0.673,1.5,1.5,1.5s1.5-0.673,1.5-1.5
		S12.827,10.5,12,10.5z M18,14c-0.553,0-1-0.447-1-1V9c0-0.552,0.447-1,1-1s1,0.448,1,1v4C19,13.553,18.553,14,18,14z"/>
</g>
</svg>
