<?xml version="1.0" encoding="iso-8859-1"?>
<!-- Generator: Adobe Illustrator 27.4.0, SVG Export Plug-In . SVG Version: 6.00 Build 0)  -->
<svg version="1.1" id="Layer_1" xmlns="http://www.w3.org/2000/svg" xmlns:xlink="http://www.w3.org/1999/xlink" x="0px" y="0px"
	 viewBox="0 0 24 24" style="enable-background:new 0 0 24 24;" xml:space="preserve">
<g>
	<path d="M20,21c-0.553,0-1-0.447-1-1v-7c0-0.552,0.447-1,1-1s1,0.448,1,1v7C21,20.553,20.553,21,20,21z M12,21
		c-0.552,0-1-0.447-1-1V10c0-0.552,0.448-1,1-1s1,0.448,1,1v10C13,20.553,12.552,21,12,21z M4,21c-0.552,0-1-0.447-1-1v-4
		c0-0.553,0.448-1,1-1s1,0.447,1,1v4C5,20.553,4.552,21,4,21z M4,13c-0.668,0-1.296-0.26-1.768-0.732
		C1.76,11.796,1.5,11.168,1.5,10.5s0.26-1.296,0.732-1.768c0.782-0.783,2.062-0.941,3.001-0.408l4.332-3.249
		C9.522,4.889,9.5,4.696,9.5,4.5c0-0.668,0.26-1.296,0.732-1.768c0.943-0.943,2.59-0.944,3.535,0l0,0v0l0,0
		c0.441,0.441,0.697,1.018,0.729,1.636l3.709,1.391c0.009-0.009,0.018-0.018,0.026-0.027c0.973-0.973,2.56-0.975,3.535,0l0,0
		C22.24,6.204,22.5,6.832,22.5,7.5s-0.26,1.296-0.732,1.768c-0.975,0.972-2.561,0.975-3.535,0c-0.441-0.44-0.697-1.017-0.729-1.636
		l-3.709-1.391c-0.009,0.009-0.018,0.018-0.026,0.027c-0.783,0.782-2.065,0.939-3.001,0.407L6.434,9.924
		C6.478,10.111,6.5,10.304,6.5,10.5c0,0.668-0.26,1.296-0.732,1.768C5.296,12.74,4.668,13,4,13z M4,10
		c-0.077,0-0.226,0.019-0.353,0.146C3.519,10.274,3.5,10.423,3.5,10.5s0.019,0.226,0.146,0.353C3.774,10.981,3.923,11,4,11
		s0.226-0.019,0.353-0.146C4.481,10.726,4.5,10.577,4.5,10.5s-0.019-0.226-0.146-0.353c0,0,0,0,0,0C4.226,10.019,4.077,10,4,10z
		 M20,7c-0.128,0-0.256,0.049-0.354,0.146C19.519,7.274,19.5,7.423,19.5,7.5s0.019,0.226,0.146,0.353
		c0.195,0.195,0.512,0.195,0.707,0C20.481,7.726,20.5,7.577,20.5,7.5s-0.019-0.226-0.146-0.353v0C20.256,7.049,20.128,7,20,7z M12,4
		c-0.077,0-0.226,0.019-0.353,0.146C11.519,4.274,11.5,4.423,11.5,4.5s0.019,0.226,0.146,0.353C11.774,4.981,11.923,5,12,5
		s0.226-0.019,0.353-0.146C12.481,4.726,12.5,4.577,12.5,4.5s-0.019-0.226-0.146-0.353c0,0,0,0,0,0C12.226,4.019,12.077,4,12,4z"/>
</g>
</svg>
