<?xml version="1.0" encoding="iso-8859-1"?>
<!-- Generator: Adobe Illustrator 27.4.0, SVG Export Plug-In . SVG Version: 6.00 Build 0)  -->
<svg version="1.1" id="Layer_1" xmlns="http://www.w3.org/2000/svg" xmlns:xlink="http://www.w3.org/1999/xlink" x="0px" y="0px"
	 viewBox="0 0 24 24" style="enable-background:new 0 0 24 24;" xml:space="preserve">
<g>
	<path d="M19.4,22H4.6c-0.651,0-1.081,0-1.51-0.219c-0.377-0.192-0.679-0.494-0.872-0.873C2,20.48,2,20.051,2,19.4V13.6
		c0-0.65,0-1.08,0.218-1.507c0.194-0.379,0.495-0.681,0.873-0.874C3.52,11,3.95,11,4.6,11H8V8.6c0-0.65,0-1.08,0.218-1.508
		C8.412,6.713,8.713,6.412,9.09,6.219C9.52,6,9.95,6,10.6,6h2.8c0.223,0,0.42,0,0.6,0.009V4.6c0-0.651,0-1.081,0.219-1.51
		c0.192-0.377,0.494-0.679,0.873-0.872C15.52,2,15.949,2,16.6,2H19.4c0.65,0,1.08,0,1.508,0.218
		c0.379,0.193,0.681,0.496,0.874,0.875C22,3.519,22,3.949,22,4.6v14.8c0,0.65,0,1.081-0.219,1.509
		c-0.191,0.378-0.494,0.681-0.874,0.873C20.481,22,20.051,22,19.4,22z M4.6,13c-0.279,0-0.567,0-0.649,0.02
		C4,13.033,4,13.321,4,13.6V19.4c0,0.278,0,0.566,0.02,0.648C4.034,20,4.322,20,4.6,20H8v-7H4.6z M16,20h3.4
		c0.278,0,0.565,0,0.647-0.02C20,19.966,20,19.679,20,19.4V4.6c0-0.278,0-0.566-0.02-0.648C19.967,4,19.679,4,19.4,4H16.6
		c-0.278,0-0.566,0-0.648,0.02C16,4.034,16,4.322,16,4.6V8c0,0.033-0.002,0.066-0.005,0.099C16,8.252,16,8.417,16,8.6V20z M10,20h4
		V8.6c0-0.278,0-0.566-0.02-0.648C13.967,8,13.679,8,13.4,8h-2.8c-0.279,0-0.567,0-0.649,0.02C10,8.033,10,8.321,10,8.6V20z"/>
</g>
</svg>
