<?xml version="1.0" encoding="iso-8859-1"?>
<!-- Generator: Adobe Illustrator 27.4.0, SVG Export Plug-In . SVG Version: 6.00 Build 0)  -->
<svg version="1.1" id="Layer_1" xmlns="http://www.w3.org/2000/svg" xmlns:xlink="http://www.w3.org/1999/xlink" x="0px" y="0px"
	 viewBox="0 0 24 24" style="enable-background:new 0 0 24 24;" xml:space="preserve">
<g>
	<path d="M21,22H6.2c-1.238,0-1.92,0-2.562-0.326c-0.57-0.292-1.022-0.744-1.312-1.311C2,19.721,2,19.038,2,17.8V3
		c0-0.552,0.448-1,1-1s1,0.448,1,1v14.8c0,0.867,0,1.44,0.109,1.654c0.096,0.188,0.248,0.341,0.438,0.438C4.76,20,5.333,20,6.2,20
		H21c0.553,0,1,0.447,1,1S21.553,22,21,22z M20.5,18.5c-0.553,0-1-0.447-1-1v-3c0-0.553,0.447-1,1-1s1,0.447,1,1v3
		C21.5,18.053,21.053,18.5,20.5,18.5z M16,18.5c-0.553,0-1-0.447-1-1v-6c0-0.552,0.447-1,1-1s1,0.448,1,1v6
		C17,18.053,16.553,18.5,16,18.5z M11.5,18.5c-0.552,0-1-0.447-1-1v-9c0-0.552,0.448-1,1-1s1,0.448,1,1v9
		C12.5,18.053,12.052,18.5,11.5,18.5z M7,18.5c-0.552,0-1-0.447-1-1v-12c0-0.552,0.448-1,1-1s1,0.448,1,1v12
		C8,18.053,7.552,18.5,7,18.5z"/>
</g>
</svg>
