<?xml version="1.0" encoding="iso-8859-1"?>
<!-- Generator: Adobe Illustrator 27.4.0, SVG Export Plug-In . SVG Version: 6.00 Build 0)  -->
<svg version="1.1" id="Layer_1" xmlns="http://www.w3.org/2000/svg" xmlns:xlink="http://www.w3.org/1999/xlink" x="0px" y="0px"
	 viewBox="0 0 24 24" style="enable-background:new 0 0 24 24;" xml:space="preserve">
<g>
	<path d="M19.4,22H4.6c-0.651,0-1.081,0-1.51-0.219c-0.377-0.192-0.679-0.494-0.872-0.873C2,20.48,2,20.051,2,19.4V4.6
		c0-0.65,0-1.08,0.218-1.508C2.412,2.713,2.713,2.412,3.09,2.219C3.52,2,3.95,2,4.6,2h2.8c0.65,0,1.08,0,1.508,0.218
		C9.287,2.412,9.588,2.713,9.781,3.09C10,3.52,10,3.95,10,4.6V6h3.4c0.65,0,1.08,0,1.508,0.218c0.379,0.193,0.681,0.496,0.874,0.875
		C16,7.519,16,7.949,16,8.6V10h3.4c0.65,0,1.08,0,1.508,0.218c0.379,0.193,0.681,0.496,0.874,0.875C22,11.519,22,11.949,22,12.6v6.8
		c0,0.65,0,1.081-0.219,1.509c-0.191,0.378-0.494,0.681-0.874,0.873C20.481,22,20.051,22,19.4,22z M4.6,4
		C4.321,4,4.033,4,3.951,4.02C4,4.033,4,4.321,4,4.6v14.8c0,0.278,0,0.566,0.02,0.648C4.034,20,4.322,20,4.6,20H8V4.6
		c0-0.279,0-0.567-0.02-0.649C7.967,4,7.679,4,7.4,4H4.6z M16,20h3.4c0.278,0,0.565,0,0.647-0.02C20,19.966,20,19.679,20,19.4v-6.8
		c0-0.278,0-0.566-0.02-0.648C19.967,12,19.679,12,19.4,12H16V20z M10,20h4V8.6c0-0.278,0-0.566-0.02-0.648
		C13.967,8,13.679,8,13.4,8H10V20z"/>
</g>
</svg>
