<?xml version="1.0" encoding="iso-8859-1"?>
<!-- Generator: Adobe Illustrator 27.4.0, SVG Export Plug-In . SVG Version: 6.00 Build 0)  -->
<svg version="1.1" id="Layer_1" xmlns="http://www.w3.org/2000/svg" xmlns:xlink="http://www.w3.org/1999/xlink" x="0px" y="0px"
	 viewBox="0 0 24 24" style="enable-background:new 0 0 24 24;" xml:space="preserve">
<g>
	<path d="M9.499,19c-0.19,0-0.383-0.055-0.554-0.168c-0.459-0.307-0.583-0.927-0.277-1.387L11.631,13H7.5
		c-0.369,0-0.708-0.203-0.882-0.528c-0.174-0.325-0.155-0.72,0.05-1.026l4-6c0.306-0.459,0.926-0.584,1.387-0.277
		c0.459,0.306,0.583,0.927,0.277,1.387L9.369,11H13.5c0.369,0,0.708,0.203,0.882,0.528s0.154,0.72-0.05,1.026l-4,6
		C10.139,18.844,9.822,19,9.499,19z M14.2,19H14c-0.553,0-1-0.447-1-1s0.447-1,1-1h0.2c1.47,0,2.279,0,2.708-0.219
		c0.379-0.192,0.681-0.494,0.873-0.872C18,15.479,18,14.67,18,13.2V10c0-0.814,0-1.263-0.068-1.517
		c-0.185-0.689-0.727-1.231-1.414-1.416C16.264,7,15.814,7,15,7c-0.553,0-1-0.448-1-1s0.447-1,1-1c1.016,0,1.525,0,2.034,0.136
		c1.377,0.369,2.461,1.453,2.829,2.829C20,8.473,20,8.983,20,10v3.2c0,1.837,0,2.76-0.436,3.616
		c-0.386,0.758-0.99,1.362-1.749,1.748C16.96,19,16.037,19,14.2,19z M6,19c-1.017,0-1.527,0-2.036-0.137
		c-1.375-0.368-2.459-1.452-2.828-2.828C1,15.525,1,15.016,1,14v-3.2c0-1.838,0-2.76,0.436-3.616
		c0.386-0.757,0.991-1.362,1.748-1.748C4.04,5,4.962,5,6.8,5H7c0.552,0,1,0.448,1,1S7.552,7,7,7H6.8C5.33,7,4.52,7,4.092,7.218
		C3.713,7.411,3.411,7.713,3.218,8.092C3,8.52,3,9.33,3,10.8V14c0,0.814,0,1.264,0.068,1.519c0.184,0.687,0.726,1.229,1.414,1.413
		C4.737,17,5.186,17,6,17c0.552,0,1,0.447,1,1S6.552,19,6,19z M22,14c-0.553,0-1-0.447-1-1v-2c0-0.552,0.447-1,1-1s1,0.448,1,1v2
		C23,13.553,22.553,14,22,14z"/>
</g>
</svg>
