<?xml version="1.0" encoding="iso-8859-1"?>
<!-- Generator: Adobe Illustrator 27.4.0, SVG Export Plug-In . SVG Version: 6.00 Build 0)  -->
<svg version="1.1" id="Layer_1" xmlns="http://www.w3.org/2000/svg" xmlns:xlink="http://www.w3.org/1999/xlink" x="0px" y="0px"
	 viewBox="0 0 24 24" style="enable-background:new 0 0 24 24;" xml:space="preserve">
<g>
	<path d="M14.2,19H6.8c-1.838,0-2.76,0-3.616-0.437c-0.757-0.385-1.362-0.989-1.748-1.747C1,15.96,1,15.037,1,13.2v-2.4
		c0-1.838,0-2.76,0.436-3.616c0.386-0.757,0.991-1.362,1.748-1.748C4.04,5,4.962,5,6.8,5h7.4c1.837,0,2.76,0,3.616,0.436
		c0.758,0.386,1.362,0.991,1.748,1.749C20,8.04,20,8.962,20,10.8v2.4c0,1.837,0,2.76-0.436,3.616
		c-0.386,0.758-0.99,1.362-1.749,1.748C16.96,19,16.037,19,14.2,19z M6.8,7C5.33,7,4.52,7,4.092,7.218
		C3.713,7.411,3.411,7.713,3.218,8.092C3,8.52,3,9.33,3,10.8v2.4c0,1.47,0,2.279,0.218,2.708c0.193,0.379,0.495,0.681,0.873,0.873
		C4.52,17,5.33,17,6.8,17h7.4c1.47,0,2.279,0,2.708-0.219c0.379-0.192,0.681-0.494,0.873-0.872C18,15.479,18,14.67,18,13.2v-2.4
		c0-1.47,0-2.28-0.218-2.708c-0.193-0.379-0.495-0.681-0.874-0.874C16.479,7,15.67,7,14.2,7H6.8z M14.5,15c-0.553,0-1-0.447-1-1v-4
		c0-0.552,0.447-1,1-1s1,0.448,1,1v4C15.5,14.553,15.053,15,14.5,15z M10.5,15c-0.552,0-1-0.447-1-1v-4c0-0.552,0.448-1,1-1
		s1,0.448,1,1v4C11.5,14.553,11.052,15,10.5,15z M6.5,15c-0.552,0-1-0.447-1-1v-4c0-0.552,0.448-1,1-1s1,0.448,1,1v4
		C7.5,14.553,7.052,15,6.5,15z M22,14c-0.553,0-1-0.447-1-1v-2c0-0.552,0.447-1,1-1s1,0.448,1,1v2C23,13.553,22.553,14,22,14z"/>
</g>
</svg>
