<?xml version="1.0" encoding="iso-8859-1"?>
<!-- Generator: Adobe Illustrator 27.4.0, SVG Export Plug-In . SVG Version: 6.00 Build 0)  -->
<svg version="1.1" id="Layer_1" xmlns="http://www.w3.org/2000/svg" xmlns:xlink="http://www.w3.org/1999/xlink" x="0px" y="0px"
	 viewBox="0 0 24 24" style="enable-background:new 0 0 24 24;" xml:space="preserve">
<g>
	<path d="M18.5,23h-13c-0.512,0-0.794,0-1.083-0.057c-1.196-0.239-2.121-1.164-2.359-2.357C2,20.296,2,20.014,2,19.5
		c0-0.106,0-0.202,0-0.291c0-0.129,0-0.266,0-0.409v-0.301c0-0.598,0-0.958,0.103-1.342c0.091-0.34,0.241-0.658,0.443-0.947
		c0.227-0.321,0.5-0.55,0.953-0.929l3.709-3.09c0.333-0.277,0.533-0.444,0.61-0.553c0.067-0.096,0.117-0.202,0.147-0.314
		C8,11.195,8,10.934,8,10.501V6.996c-0.235-0.01-0.455-0.044-0.683-0.161C7.035,6.692,6.808,6.465,6.663,6.18
		C6.5,5.861,6.5,5.555,6.5,5.2V2.8c0-0.354,0-0.661,0.165-0.982c0.143-0.282,0.371-0.51,0.656-0.654C7.639,1,7.945,1,8.3,1h7.4
		c0.355,0,0.662,0,0.983,0.165c0.28,0.142,0.508,0.369,0.653,0.655C17.5,2.139,17.5,2.445,17.5,2.8v2.4c0,0.354,0,0.661-0.164,0.982
		c-0.145,0.283-0.372,0.511-0.658,0.655C16.454,6.953,16.235,6.986,16,6.996v3.505c0,0.434,0,0.695,0.034,0.823
		c0.03,0.112,0.081,0.219,0.147,0.314c0.076,0.107,0.274,0.273,0.604,0.548l3.702,3.085c0.469,0.393,0.74,0.618,0.966,0.939
		c0.2,0.285,0.35,0.603,0.442,0.943C22,17.542,22,17.902,22,18.499V18.8c0,0.144,0,0.279-0.001,0.409C22,19.298,22,19.394,22,19.5
		c0,0.513,0,0.795-0.057,1.084c-0.239,1.195-1.164,2.12-2.357,2.358C19.295,23,19.013,23,18.5,23z M6.2,21h11.6
		c0.867,0,1.44,0,1.654-0.109c0.188-0.096,0.341-0.248,0.438-0.438c0.09-0.177,0.105-0.604,0.107-1.242
		c-0.001-0.201-0.005-0.34-0.019-0.408c-0.079-0.396-0.388-0.704-0.785-0.784C19.1,18,18.861,18,18.5,18h-13
		c-0.361,0-0.599,0-0.697,0.02c-0.396,0.079-0.705,0.387-0.784,0.785C4.006,18.873,4.002,19.01,4,19.211
		c0.002,0.639,0.018,1.065,0.108,1.243c0.096,0.188,0.248,0.341,0.438,0.438C4.76,21,5.333,21,6.2,21z M5.762,16h12.477
		l-2.727-2.272c-0.462-0.385-0.737-0.614-0.965-0.938c-0.201-0.286-0.351-0.604-0.443-0.944C14,11.459,14,11.119,14,10.501V7h-4
		v3.501c0,0.598,0,0.959-0.104,1.342c-0.091,0.339-0.24,0.658-0.443,0.947c-0.229,0.325-0.506,0.556-0.965,0.938L5.762,16z M8.5,5h7
		V3h-7V5z"/>
</g>
</svg>
