<?xml version="1.0" encoding="iso-8859-1"?>
<!-- Generator: Adobe Illustrator 27.4.0, SVG Export Plug-In . SVG Version: 6.00 Build 0)  -->
<svg version="1.1" id="Layer_1" xmlns="http://www.w3.org/2000/svg" xmlns:xlink="http://www.w3.org/1999/xlink" x="0px" y="0px"
	 viewBox="0 0 24 24" style="enable-background:new 0 0 24 24;" xml:space="preserve">
<g>
	<path d="M12,23c-4.687,0-8.5-3.813-8.5-8.5c0-3.526,2.207-6.713,5.5-7.955V3H8.5c-0.552,0-1-0.448-1-1s0.448-1,1-1h7
		c0.553,0,1,0.448,1,1s-0.447,1-1,1H15v3.545c3.298,1.249,5.5,4.433,5.5,7.955C20.5,19.187,16.687,23,12,23z M11,3v3.661
		c0,0.286,0,0.511-0.1,0.771c-0.09,0.235-0.227,0.43-0.417,0.595c-0.205,0.179-0.417,0.257-0.711,0.365
		C7.213,9.329,5.5,11.782,5.5,14.5c0,3.584,2.916,6.5,6.5,6.5s6.5-2.916,6.5-6.5c0-2.718-1.714-5.171-4.264-6.105
		c-0.295-0.108-0.517-0.19-0.726-0.374c-0.183-0.157-0.32-0.353-0.411-0.59C13,7.172,13,6.946,13,6.661V3H11z"/>
</g>
</svg>
