<?xml version="1.0" encoding="iso-8859-1"?>
<!-- Generator: Adobe Illustrator 27.4.0, SVG Export Plug-In . SVG Version: 6.00 Build 0)  -->
<svg version="1.1" id="Layer_1" xmlns="http://www.w3.org/2000/svg" xmlns:xlink="http://www.w3.org/1999/xlink" x="0px" y="0px"
	 viewBox="0 0 24 24" style="enable-background:new 0 0 24 24;" xml:space="preserve">
<g>
	<path d="M12,23c-1.86,0-3.428-1.276-3.873-3H5.858c-1.916,0-2.314,0-2.71-0.29c-0.379-0.277-0.561-0.596-0.606-1.064
		c-0.048-0.485,0.132-0.79,1.303-2.771C4.619,14.564,5,13.005,5,11.2c0-1.66,0.766-3.275,2.103-4.433
		c0.486-0.421,1.03-0.772,1.615-1.048C8.575,5.334,8.5,4.922,8.5,4.5C8.5,2.57,10.07,1,12,1s3.5,1.57,3.5,3.5
		c0,0.422-0.074,0.834-0.218,1.219c0.586,0.275,1.13,0.627,1.616,1.048C18.234,7.925,19,9.541,19,11.2
		c0,1.804,0.381,3.363,1.133,4.636c1.191,2.016,1.373,2.322,1.326,2.809c-0.047,0.472-0.229,0.79-0.609,1.066
		C20.456,20,20.058,20,18.143,20h-2.27C15.429,21.724,13.86,23,12,23z M10.269,20c0.346,0.598,0.992,1,1.731,1s1.386-0.402,1.731-1
		H10.269z M19.497,18.765h0.01H19.497z M4.917,17.998C5.2,18,5.525,18,5.858,18h12.284c0.333,0,0.658,0,0.941-0.002
		c-0.185-0.319-0.415-0.709-0.66-1.124C17.475,15.27,17,13.367,17,11.2c0-1.095-0.501-2.132-1.412-2.921C14.65,7.466,13.343,7,12,7
		c-1.342,0-2.65,0.466-3.587,1.279C7.502,9.068,7,10.105,7,11.2c0,2.167-0.475,4.069-1.411,5.653
		C5.336,17.282,5.103,17.677,4.917,17.998z M19.942,17.966L19.942,17.966L19.942,17.966z M4.058,17.966L4.058,17.966L4.058,17.966z
		 M12,5c0.464,0,0.922,0.04,1.368,0.118C13.454,4.926,13.5,4.716,13.5,4.5C13.5,3.673,12.827,3,12,3c-0.827,0-1.5,0.673-1.5,1.5
		c0,0.216,0.045,0.426,0.132,0.618C11.079,5.04,11.536,5,12,5z M2.547,9.323c-0.548,0-0.995-0.441-1-0.99
		c-0.018-1.82,0.956-3.506,2.541-4.4c0.481-0.27,1.091-0.101,1.362,0.38s0.101,1.091-0.38,1.362C4.12,6.21,3.536,7.222,3.547,8.313
		c0.005,0.552-0.438,1.004-0.99,1.01C2.553,9.323,2.55,9.323,2.547,9.323z M21.453,9.323c-0.003,0-0.007,0-0.01,0
		c-0.553-0.006-0.996-0.458-0.99-1.01c0.011-1.091-0.572-2.102-1.523-2.638c-0.481-0.271-0.651-0.881-0.38-1.362
		c0.271-0.48,0.88-0.652,1.362-0.38c1.586,0.894,2.56,2.58,2.541,4.401C22.447,8.882,22.001,9.323,21.453,9.323z"/>
</g>
</svg>
