<?xml version="1.0" encoding="iso-8859-1"?>
<!-- Generator: Adobe Illustrator 27.4.0, SVG Export Plug-In . SVG Version: 6.00 Build 0)  -->
<svg version="1.1" id="Layer_1" xmlns="http://www.w3.org/2000/svg" xmlns:xlink="http://www.w3.org/1999/xlink" x="0px" y="0px"
	 viewBox="0 0 24 24" style="enable-background:new 0 0 24 24;" xml:space="preserve">
<g>
	<path d="M12,23c-1.86,0-3.428-1.276-3.874-3H5.858c-1.916,0-2.314,0-2.71-0.29c-0.378-0.276-0.56-0.595-0.606-1.062
		c-0.047-0.49,0.134-0.797,1.313-2.792C4.619,14.564,5,13.005,5,11.2c0-1.131,0.35-2.237,1-3.196L2.335,4.748
		C1.923,4.38,1.886,3.749,2.252,3.335C2.62,2.923,3.251,2.885,3.665,3.252l4.301,3.823c0.036,0.026,0.07,0.055,0.103,0.086
		c0.015,0.014,0.03,0.029,0.043,0.044l12.37,10.996c0.043,0.032,0.084,0.068,0.121,0.107l1.062,0.944
		c0.413,0.366,0.45,0.999,0.083,1.411c-0.367,0.413-0.999,0.45-1.411,0.083L19.495,20h-3.622C15.429,21.724,13.86,23,12,23z
		 M10.269,20c0.346,0.598,0.993,1,1.731,1s1.386-0.402,1.731-1H10.269z M4.917,17.998C5.2,18,5.525,18,5.858,18h11.387L7.514,9.351
		C7.179,9.924,7,10.558,7,11.2c0,2.167-0.475,4.069-1.411,5.653C5.337,17.279,5.103,17.675,4.917,17.998z M18.025,13.165
		c-0.526,0-0.967-0.411-0.997-0.943C17.01,11.895,17,11.554,17,11.2c0-1.095-0.502-2.132-1.412-2.921
		C14.653,7.469,13.353,7.004,12.016,7c-0.001,0-0.003,0-0.005,0s-0.003,0-0.006,0c-0.257,0.006-0.503,0.016-0.75,0.047
		c-0.444,0.057-0.766,0.098-1.15-0.006C9.793,6.956,9.434,6.747,9.209,6.52C8.951,6.26,8.858,6.063,8.763,5.833
		C8.589,5.41,8.5,4.961,8.5,4.5C8.5,2.57,10.07,1,12,1s3.5,1.57,3.5,3.5c0,0.422-0.074,0.834-0.218,1.22
		c0.586,0.275,1.129,0.626,1.615,1.047C18.233,7.924,19,9.541,19,11.2c0,0.315,0.008,0.618,0.024,0.908
		c0.032,0.551-0.39,1.023-0.941,1.055C18.063,13.164,18.045,13.165,18.025,13.165z M12.009,5c0.461,0,0.916,0.041,1.359,0.118
		C13.454,4.926,13.5,4.716,13.5,4.5C13.5,3.673,12.827,3,12,3s-1.5,0.673-1.5,1.5c0,0.198,0.038,0.391,0.112,0.571
		c0.084,0.039,0.204,0.015,0.391-0.008C11.333,5.021,11.665,5,12,5C12.003,5,12.007,4.999,12.009,5z"/>
</g>
</svg>
