<?xml version="1.0" encoding="iso-8859-1"?>
<!-- Generator: Adobe Illustrator 27.4.0, SVG Export Plug-In . SVG Version: 6.00 Build 0)  -->
<svg version="1.1" id="Layer_1" xmlns="http://www.w3.org/2000/svg" xmlns:xlink="http://www.w3.org/1999/xlink" x="0px" y="0px"
	 viewBox="0 0 24 24" style="enable-background:new 0 0 24 24;" xml:space="preserve">
<g>
	<path d="M11.494,22.792c-1.436,0-2.776-0.78-3.484-2.032l-1.225,0.328c-1.855,0.497-2.238,0.599-2.694,0.421
		C3.656,21.34,3.398,21.08,3.232,20.64c-0.173-0.459-0.077-0.801,0.543-3.024c0.407-1.456,0.371-3.062-0.096-4.805
		c-0.43-1.603-0.107-3.361,0.884-4.826c0.36-0.532,0.795-1.013,1.289-1.43C5.614,6.219,5.435,5.84,5.326,5.433
		C5.083,4.53,5.208,3.586,5.675,2.777C6.143,1.967,6.897,1.388,7.8,1.146c0.902-0.243,1.846-0.118,2.656,0.35
		s1.389,1.222,1.631,2.125c0.109,0.408,0.144,0.825,0.105,1.234c0.637,0.115,1.253,0.313,1.832,0.594
		c1.59,0.773,2.748,2.135,3.177,3.737l0,0c0.468,1.744,1.239,3.152,2.294,4.185c1.672,1.638,1.929,1.889,2.009,2.374
		c0.077,0.46-0.016,0.815-0.312,1.184c-0.309,0.382-0.693,0.485-2.542,0.98l-3.157,0.846c0.016,1.78-1.168,3.419-2.965,3.9
		C12.183,22.748,11.836,22.792,11.494,22.792z M10.079,20.205c0.489,0.488,1.217,0.708,1.932,0.519
		c0.713-0.191,1.233-0.747,1.413-1.414L10.079,20.205z M5.157,20.245L5.157,20.245L5.157,20.245z M10.861,6.743
		c-0.502,0-1.012,0.066-1.508,0.199C8.057,7.289,6.914,8.078,6.219,9.105c-0.675,0.998-0.892,2.13-0.608,3.187
		c0.562,2.094,0.595,4.054,0.101,5.826c-0.133,0.479-0.257,0.921-0.353,1.279c0.269-0.069,0.576-0.152,0.891-0.236l7.851-2.104
		c0.011-0.003,0.021-0.006,0.032-0.009s0.021-0.006,0.033-0.009l3.968-1.062c0.322-0.086,0.637-0.171,0.909-0.246
		c-0.265-0.265-0.594-0.587-0.945-0.931c-1.314-1.287-2.266-3.002-2.827-5.097c0,0,0,0,0,0c-0.283-1.057-1.036-1.929-2.12-2.456
		C12.461,6.914,11.671,6.743,10.861,6.743z M19.639,16.364h0.01H19.639z M8.708,3.026c-0.13,0-0.261,0.017-0.391,0.052
		C7.931,3.182,7.607,3.43,7.407,3.777s-0.253,0.751-0.15,1.138c0.056,0.208,0.154,0.399,0.288,0.562
		C7.956,5.287,8.387,5.13,8.835,5.01s0.901-0.2,1.352-0.24c0.034-0.208,0.024-0.422-0.032-0.631
		c-0.104-0.387-0.352-0.711-0.699-0.911C9.225,3.094,8.968,3.026,8.708,3.026z"/>
</g>
</svg>
