<?xml version="1.0" encoding="iso-8859-1"?>
<!-- Generator: Adobe Illustrator 27.4.0, SVG Export Plug-In . SVG Version: 6.00 Build 0)  -->
<svg version="1.1" id="Layer_1" xmlns="http://www.w3.org/2000/svg" xmlns:xlink="http://www.w3.org/1999/xlink" x="0px" y="0px"
	 viewBox="0 0 24 24" style="enable-background:new 0 0 24 24;" xml:space="preserve">
<g>
	<path d="M12.742,22.793c-0.693,0-1.377-0.182-1.994-0.538c-0.629-0.363-1.136-0.878-1.483-1.495L8.04,21.088
		c-1.854,0.496-2.238,0.599-2.695,0.42c-0.436-0.168-0.694-0.429-0.859-0.87c-0.172-0.457-0.076-0.802,0.549-3.041
		c0.402-1.438,0.366-3.043-0.101-4.787c-0.43-1.602-0.107-3.361,0.884-4.826c0.36-0.532,0.795-1.012,1.289-1.43
		C6.868,6.218,6.689,5.84,6.581,5.432C6.338,4.529,6.462,3.586,6.93,2.776c0.467-0.81,1.222-1.389,2.125-1.63
		c0.901-0.243,1.846-0.118,2.656,0.35c0.81,0.467,1.389,1.222,1.631,2.125c0.109,0.408,0.144,0.825,0.105,1.234
		c0.637,0.115,1.253,0.313,1.831,0.594c1.591,0.772,2.749,2.135,3.178,3.737l0,0c0.468,1.744,1.239,3.152,2.294,4.185
		c1.672,1.636,1.929,1.887,2.009,2.374c0.077,0.458-0.016,0.812-0.31,1.182c-0.31,0.383-0.691,0.485-2.525,0.977l-3.174,0.851
		c0.008,0.708-0.175,1.408-0.538,2.037c-0.533,0.925-1.396,1.587-2.428,1.864C13.439,22.748,13.089,22.793,12.742,22.793z
		 M11.333,20.205c0.123,0.123,0.262,0.229,0.416,0.318c0.463,0.268,1.004,0.339,1.517,0.2c0.516-0.139,0.947-0.47,1.215-0.933
		c0.089-0.153,0.155-0.315,0.2-0.482L11.333,20.205z M6.412,20.244L6.412,20.244L6.412,20.244z M5.774,19.59L5.774,19.59
		L5.774,19.59z M12.116,6.743c-0.502,0-1.011,0.066-1.508,0.199C9.312,7.289,8.169,8.077,7.474,9.105
		c-0.675,0.999-0.892,2.13-0.608,3.188c0.562,2.093,0.595,4.054,0.101,5.826c-0.133,0.477-0.257,0.919-0.354,1.279
		c0.27-0.07,0.58-0.152,0.896-0.237l2.067-0.555c0.005-0.001,0.011-0.003,0.016-0.004c0.005-0.002,0.011-0.003,0.016-0.004
		l9.78-2.621c0.323-0.087,0.638-0.171,0.908-0.246c-0.27-0.27-0.603-0.596-0.944-0.93c-1.314-1.287-2.266-3.002-2.827-5.097
		c0,0,0,0,0,0c-0.283-1.057-1.036-1.929-2.119-2.456C13.716,6.914,12.925,6.743,12.116,6.743z M20.893,16.364h0.011H20.893z
		 M21.119,15.478L21.119,15.478L21.119,15.478z M9.961,3.026c-0.128,0-0.258,0.017-0.388,0.051C9.186,3.182,8.862,3.43,8.662,3.776
		c-0.2,0.347-0.253,0.751-0.15,1.138C8.568,5.124,8.667,5.314,8.8,5.477C9.21,5.287,9.642,5.13,10.09,5.01s0.901-0.2,1.352-0.241
		c0.034-0.208,0.024-0.422-0.032-0.631C11.23,3.469,10.623,3.026,9.961,3.026z M2.056,12.614c-0.438,0-0.84-0.29-0.963-0.732
		c-0.488-1.753,0.016-3.634,1.315-4.908c0.394-0.386,1.027-0.38,1.415,0.014c0.386,0.395,0.38,1.028-0.014,1.415
		c-0.78,0.764-1.082,1.892-0.789,2.943c0.148,0.532-0.163,1.083-0.695,1.231C2.235,12.602,2.145,12.614,2.056,12.614z M20.318,7.72
		c-0.445,0-0.852-0.299-0.968-0.75c-0.272-1.057-1.098-1.883-2.154-2.155c-0.535-0.138-0.857-0.683-0.72-1.218
		s0.691-0.854,1.218-0.719c1.763,0.454,3.139,1.83,3.594,3.593c0.138,0.535-0.185,1.08-0.719,1.218
		C20.485,7.71,20.401,7.72,20.318,7.72z"/>
</g>
</svg>
