<?xml version="1.0" encoding="iso-8859-1"?>
<!-- Generator: Adobe Illustrator 27.4.0, SVG Export Plug-In . SVG Version: 6.00 Build 0)  -->
<svg version="1.1" id="Layer_1" xmlns="http://www.w3.org/2000/svg" xmlns:xlink="http://www.w3.org/1999/xlink" x="0px" y="0px"
	 viewBox="0 0 24 24" style="enable-background:new 0 0 24 24;" xml:space="preserve">
<g>
	<path d="M12,23c-1.86,0-3.428-1.276-3.874-3H5.858c-1.916,0-2.314,0-2.71-0.29c-0.379-0.277-0.561-0.596-0.606-1.064
		c-0.048-0.486,0.133-0.793,1.313-2.789C4.619,14.565,5,13.006,5,11.2c0-1.659,0.766-3.275,2.103-4.433
		c0.486-0.421,1.03-0.772,1.615-1.047C8.574,5.334,8.5,4.922,8.5,4.5C8.5,2.57,10.07,1,12,1c1.93,0,3.5,1.57,3.5,3.5
		c0,0.422-0.075,0.834-0.218,1.22c0.585,0.275,1.129,0.626,1.615,1.047C18.233,7.926,19,9.542,19,11.2
		c0,1.805,0.381,3.364,1.132,4.636c1.191,2.016,1.373,2.322,1.326,2.809c-0.047,0.471-0.228,0.788-0.605,1.065
		C20.456,20,20.058,20,18.142,20h-2.269C15.429,21.724,13.86,23,12,23z M10.268,20c0.346,0.598,0.993,1,1.731,1s1.385-0.402,1.732-1
		H10.268z M19.496,18.765h0.01H19.496z M4.504,18.764L4.504,18.764L4.504,18.764z M4.917,17.998C5.199,18,5.525,18,5.858,18h12.284
		c0.333,0,0.658,0,0.941-0.002c-0.185-0.319-0.415-0.709-0.66-1.124C17.475,15.271,17,13.368,17,11.2
		c0-1.094-0.502-2.132-1.413-2.921C14.649,7.466,13.342,7,12,7S9.35,7.466,8.412,8.279C7.501,9.068,7,10.105,7,11.2
		c0,2.169-0.475,4.07-1.411,5.653C5.336,17.279,5.103,17.676,4.917,17.998z M4.057,17.966L4.057,17.966L4.057,17.966z
		 M19.943,17.966C19.943,17.966,19.943,17.966,19.943,17.966L19.943,17.966z M12,3c-0.827,0-1.5,0.673-1.5,1.5
		c0,0.216,0.046,0.426,0.132,0.618c0.891-0.156,1.844-0.155,2.735,0C13.454,4.926,13.5,4.716,13.5,4.5C13.5,3.673,12.827,3,12,3z"/>
</g>
</svg>
