<?xml version="1.0" encoding="iso-8859-1"?>
<!-- Generator: Adobe Illustrator 27.4.0, SVG Export Plug-In . SVG Version: 6.00 Build 0)  -->
<svg version="1.1" id="Layer_1" xmlns="http://www.w3.org/2000/svg" xmlns:xlink="http://www.w3.org/1999/xlink" x="0px" y="0px"
	 viewBox="0 0 24 24" style="enable-background:new 0 0 24 24;" xml:space="preserve">
<g>
	<path d="M12,23c-1.219,0-2.394-0.444-3.308-1.25c-0.414-0.365-0.454-0.997-0.088-1.411c0.365-0.415,0.998-0.455,1.412-0.089
		c1.096,0.967,2.871,0.967,3.969,0c0.412-0.364,1.044-0.326,1.411,0.089c0.365,0.414,0.326,1.046-0.089,1.411
		C14.394,22.556,13.219,23,12,23z M21,22c-0.256,0-0.512-0.098-0.707-0.293L16.586,18H5.389c-1.718,0-2.126,0-2.524-0.297
		c-0.375-0.276-0.561-0.609-0.6-1.079c-0.04-0.496,0.154-0.808,1.23-2.537C4.496,12.479,5,10.434,5,8
		c0-0.483,0.05-0.964,0.149-1.437L2.293,3.707c-0.391-0.391-0.391-1.023,0-1.414s1.023-0.391,1.414,0L6.93,5.515
		C6.954,5.538,6.978,5.561,7,5.585l14.708,14.708c0.391,0.391,0.391,1.023,0,1.414C21.512,21.902,21.256,22,21,22z M4.225,16.767
		L4.225,16.767L4.225,16.767z M4.664,15.999C4.887,16,5.136,16,5.389,16h9.197l-7.59-7.59c-0.056,2.638-0.66,4.898-1.797,6.724
		C5.007,15.441,4.821,15.74,4.664,15.999z M3.79,15.968L3.79,15.968L3.79,15.968z M18.648,14.032c-0.433,0-0.831-0.282-0.959-0.717
		C17.231,11.765,17,9.976,17,8c0-1.335-0.521-2.591-1.465-3.536c-1.641-1.641-4.422-1.906-6.34-0.603
		c-0.457,0.31-1.08,0.192-1.389-0.266c-0.31-0.458-0.191-1.079,0.266-1.389C9.235,1.417,10.594,1,12,1
		c1.869,0,3.627,0.728,4.949,2.05C18.271,4.372,19,6.13,19,8c0,1.785,0.204,3.382,0.607,4.75c0.156,0.53-0.146,1.085-0.676,1.242
		C18.837,14.02,18.741,14.032,18.648,14.032z"/>
</g>
</svg>
