<?xml version="1.0" encoding="iso-8859-1"?>
<!-- Generator: Adobe Illustrator 27.4.0, SVG Export Plug-In . SVG Version: 6.00 Build 0)  -->
<svg version="1.1" id="Layer_1" xmlns="http://www.w3.org/2000/svg" xmlns:xlink="http://www.w3.org/1999/xlink" x="0px" y="0px"
	 viewBox="0 0 24 24" style="enable-background:new 0 0 24 24;" xml:space="preserve">
<g>
	<path d="M12,23c-1.219,0-2.394-0.444-3.307-1.25c-0.414-0.365-0.454-0.997-0.088-1.411c0.365-0.415,0.998-0.455,1.412-0.089
		c1.095,0.966,2.872,0.968,3.969,0c0.414-0.364,1.046-0.326,1.411,0.089c0.365,0.414,0.325,1.046-0.089,1.411
		C14.393,22.557,13.218,23,12,23z M18.611,18H5.389c-1.717,0-2.125,0-2.523-0.296c-0.377-0.277-0.563-0.612-0.601-1.083
		c-0.041-0.492,0.154-0.806,1.235-2.542C4.496,12.478,5,10.433,5,8c0-1.87,0.728-3.627,2.05-4.95S10.13,1,12,1
		c1.87,0,3.628,0.728,4.95,2.05S19,6.13,19,8c0,2.432,0.505,4.477,1.5,6.077c1.08,1.738,1.274,2.049,1.236,2.541
		c-0.041,0.478-0.228,0.811-0.605,1.089C20.739,18,20.33,18,18.611,18z M19.775,16.767h0.01H19.775z M4.664,15.999
		C4.888,16,5.136,16,5.389,16h13.222c0.253,0,0.501,0,0.726-0.001c-0.157-0.257-0.342-0.553-0.53-0.856
		C17.606,13.211,17,10.811,17,8c0-1.335-0.52-2.591-1.464-3.536S13.336,3,12,3c-1.335,0-2.591,0.52-3.535,1.464S7,6.665,7,8
		c0,2.812-0.606,5.213-1.801,7.134C5.008,15.44,4.822,15.74,4.664,15.999z M20.211,15.968L20.211,15.968L20.211,15.968z M2.294,6.82
		c-0.548,0-0.995-0.441-1-0.99c-0.018-1.82,0.956-3.506,2.541-4.4c0.482-0.271,1.091-0.102,1.362,0.379
		C5.468,2.289,5.299,2.899,4.818,3.17C3.867,3.707,3.283,4.719,3.294,5.81c0.005,0.552-0.438,1.004-0.99,1.01
		C2.3,6.82,2.297,6.82,2.294,6.82z M21.702,6.82c-0.003,0-0.007,0-0.01,0c-0.553-0.006-0.996-0.458-0.99-1.01
		c0.011-1.091-0.572-2.103-1.523-2.639c-0.481-0.271-0.651-0.881-0.38-1.362c0.271-0.481,0.879-0.652,1.362-0.38
		c1.586,0.895,2.56,2.581,2.541,4.401C22.696,6.379,22.25,6.82,21.702,6.82z"/>
</g>
</svg>
