<?xml version="1.0" encoding="iso-8859-1"?>
<!-- Generator: Adobe Illustrator 27.4.0, SVG Export Plug-In . SVG Version: 6.00 Build 0)  -->
<svg version="1.1" id="Layer_1" xmlns="http://www.w3.org/2000/svg" xmlns:xlink="http://www.w3.org/1999/xlink" x="0px" y="0px"
	 viewBox="0 0 24 24" style="enable-background:new 0 0 24 24;" xml:space="preserve">
<g>
	<path d="M12,23c-1.219,0-2.394-0.444-3.308-1.25c-0.414-0.365-0.454-0.997-0.088-1.411c0.365-0.415,0.998-0.455,1.412-0.089
		c1.096,0.967,2.871,0.967,3.969,0c0.412-0.364,1.044-0.326,1.411,0.089c0.365,0.414,0.326,1.046-0.089,1.411
		C14.394,22.556,13.219,23,12,23z M18.611,18H5.389c-1.718,0-2.126,0-2.524-0.297c-0.375-0.276-0.561-0.609-0.6-1.079
		c-0.04-0.496,0.154-0.808,1.23-2.537C4.496,12.479,5,10.434,5,8c0-1.869,0.728-3.627,2.05-4.95c1.599-1.599,3.9-2.329,6.117-1.952
		c0.545,0.092,0.911,0.608,0.819,1.153c-0.092,0.544-0.602,0.913-1.154,0.818c-1.577-0.269-3.226,0.252-4.368,1.395
		C7.52,5.409,7,6.665,7,8c0,2.813-0.606,5.214-1.801,7.134c-0.191,0.308-0.377,0.606-0.535,0.865C4.887,16,5.136,16,5.389,16h13.223
		c0.253,0,0.501,0,0.726-0.001c-0.157-0.257-0.342-0.553-0.53-0.856c-0.625-1.005-1.092-2.149-1.394-3.41
		c-0.128-0.537,0.203-1.077,0.74-1.205c0.537-0.125,1.077,0.204,1.205,0.74c0.251,1.051,0.635,1.997,1.141,2.81
		c1.083,1.74,1.276,2.052,1.236,2.547c-0.038,0.469-0.225,0.804-0.604,1.083C20.736,18,20.328,18,18.611,18z M19.774,16.766
		L19.774,16.766L19.774,16.766z M3.79,15.968L3.79,15.968L3.79,15.968z M20.211,15.968L20.211,15.968L20.211,15.968z M18,9
		c-0.553,0-1-0.448-1-1V6h-2c-0.553,0-1-0.448-1-1s0.447-1,1-1h2V2c0-0.552,0.447-1,1-1s1,0.448,1,1v2h2c0.553,0,1,0.448,1,1
		s-0.447,1-1,1h-2v2C19,8.552,18.553,9,18,9z"/>
</g>
</svg>
