<?xml version="1.0" encoding="iso-8859-1"?>
<!-- Generator: Adobe Illustrator 27.4.0, SVG Export Plug-In . SVG Version: 6.00 Build 0)  -->
<svg version="1.1" id="Layer_1" xmlns="http://www.w3.org/2000/svg" xmlns:xlink="http://www.w3.org/1999/xlink" x="0px" y="0px"
	 viewBox="0 0 24 24" style="enable-background:new 0 0 24 24;" xml:space="preserve">
<g>
	<path d="M20.4,22H19.6c-0.65,0-1.081,0-1.509-0.219c-0.378-0.191-0.681-0.494-0.873-0.874c-0.144-0.28-0.192-0.562-0.209-0.907
		H6.991c-0.017,0.345-0.066,0.627-0.209,0.908c-0.193,0.379-0.496,0.681-0.875,0.874C5.481,22,5.051,22,4.4,22H3.6
		c-0.651,0-1.081,0-1.51-0.219c-0.377-0.192-0.679-0.494-0.872-0.873C1,20.48,1,20.051,1,19.4V18.6c0-0.65,0-1.08,0.218-1.508
		c0.193-0.379,0.496-0.681,0.875-0.874C2.519,16,2.949,16,3.6,16h0.8c0.056,0,0.11,0,0.163,0l4.95-8.663
		C9.397,7.209,9.299,7.066,9.219,6.91C9,6.48,9,6.05,9,5.4V4.6c0-0.65,0-1.08,0.218-1.508c0.194-0.379,0.495-0.681,0.873-0.874
		C10.52,2,10.95,2,11.6,2h0.8c0.651,0,1.081,0,1.508,0.218c0.379,0.193,0.681,0.496,0.874,0.875C15,3.519,15,3.949,15,4.6v0.8
		c0,0.651,0,1.081-0.219,1.51c-0.08,0.156-0.179,0.3-0.294,0.428L19.438,16c0.053,0,0.106,0,0.162,0H20.4
		c0.65,0,1.081,0,1.509,0.219c0.378,0.191,0.681,0.494,0.873,0.874C23,17.519,23,17.949,23,18.6V19.4c0,0.65,0,1.081-0.219,1.509
		c-0.191,0.378-0.494,0.681-0.874,0.873C21.481,22,21.051,22,20.4,22z M3.6,18c-0.278,0-0.566,0-0.648,0.02
		C3,18.033,3,18.321,3,18.6V19.4c0,0.278,0,0.566,0.02,0.648C3.034,20,3.322,20,3.6,20h0.8c0.278,0,0.566,0,0.648-0.02
		C5,19.967,5,19.679,5,19.4V18.6c0-0.246,0-0.499-0.013-0.611c-0.019-0.003-0.037-0.007-0.056-0.011C4.835,18,4.615,18,4.4,18H3.6z
		 M19,19v0.4c0,0.278,0,0.565,0.02,0.647C19.034,20,19.321,20,19.6,20H20.4c0.278,0,0.565,0,0.647-0.02C21,19.966,21,19.679,21,19.4
		V18.6c0-0.278,0-0.565-0.02-0.647C20.966,18,20.679,18,20.4,18H19.6c-0.278,0-0.565,0-0.647,0.02C19,18.034,19,18.321,19,18.6V19z
		 M6.991,18h10.018c0.017-0.346,0.066-0.628,0.21-0.909c0.08-0.157,0.179-0.301,0.294-0.429L12.562,8C12.51,8,12.456,8,12.4,8h-0.8
		c-0.056,0-0.11,0-0.163,0l-4.95,8.662c0.115,0.129,0.214,0.272,0.294,0.43C6.925,17.373,6.975,17.655,6.991,18z M11.013,6.012
		c0.019,0.003,0.037,0.006,0.056,0.01C11.165,6,11.385,6,11.6,6h0.8c0.279,0,0.567,0,0.649-0.02C13,5.966,13,5.678,13,5.4V4.6
		c0-0.278,0-0.566-0.02-0.648C12.967,4,12.679,4,12.4,4h-0.8c-0.279,0-0.567,0-0.649,0.02C11,4.033,11,4.321,11,4.6v0.8
		C11,5.646,11,5.899,11.013,6.012z"/>
</g>
</svg>
