<?xml version="1.0" encoding="iso-8859-1"?>
<!-- Generator: Adobe Illustrator 27.4.0, SVG Export Plug-In . SVG Version: 6.00 Build 0)  -->
<svg version="1.1" id="Layer_1" xmlns="http://www.w3.org/2000/svg" xmlns:xlink="http://www.w3.org/1999/xlink" x="0px" y="0px"
	 viewBox="0 0 24 24" style="enable-background:new 0 0 24 24;" xml:space="preserve">
<g>
	<path d="M20.4,20H19.6c-0.65,0-1.081,0-1.509-0.219c-0.378-0.191-0.681-0.494-0.873-0.874C17,18.481,17,18.051,17,17.4V16.6
		c0-0.65,0-1.081,0.219-1.509c0.191-0.378,0.494-0.681,0.874-0.873c0.262-0.134,0.523-0.186,0.838-0.205
		c-0.336-2.372-1.865-4.406-4.034-5.389c-0.029,0.097-0.067,0.191-0.115,0.286c-0.192,0.377-0.494,0.679-0.873,0.872
		C13.48,10,13.051,10,12.4,10h-0.8c-0.65,0-1.08,0-1.508-0.218C9.713,9.588,9.412,9.287,9.219,8.91
		C9.17,8.815,9.133,8.721,9.104,8.624c-2.169,0.983-3.698,3.018-4.034,5.389c0.314,0.021,0.578,0.072,0.84,0.206
		c0.377,0.192,0.679,0.494,0.872,0.873C7,15.52,7,15.949,7,16.6V17.4c0,0.65,0,1.08-0.218,1.508
		c-0.193,0.379-0.496,0.681-0.875,0.874C5.481,20,5.051,20,4.4,20H3.6c-0.651,0-1.081,0-1.51-0.219
		c-0.377-0.192-0.679-0.494-0.872-0.873C1,18.48,1,18.051,1,17.4V16.6c0-0.65,0-1.08,0.218-1.508
		c0.193-0.379,0.496-0.681,0.875-0.874c0.295-0.15,0.592-0.197,0.962-0.211C3.318,11.614,4.524,9.468,6.337,8H4.731
		C4.385,8.597,3.739,9,3,9C1.897,9,1,8.103,1,7s0.897-2,2-2c0.739,0,1.385,0.403,1.731,1h4.277c0.017-0.345,0.066-0.627,0.209-0.908
		c0.194-0.379,0.495-0.681,0.873-0.874C10.52,4,10.95,4,11.6,4h0.8c0.651,0,1.081,0,1.508,0.218
		c0.379,0.193,0.681,0.496,0.874,0.875c0.143,0.28,0.192,0.562,0.209,0.908h4.277C19.614,5.403,20.261,5,21,5c1.103,0,2,0.897,2,2
		s-0.897,2-2,2c-0.739,0-1.386-0.403-1.731-1h-1.605c1.812,1.468,3.019,3.614,3.282,6.007c0.371,0.014,0.668,0.061,0.964,0.212
		c0.378,0.191,0.681,0.494,0.873,0.874C23,15.519,23,15.949,23,16.6V17.4c0,0.65,0,1.081-0.219,1.509
		c-0.191,0.378-0.494,0.681-0.874,0.873C21.481,20,21.051,20,20.4,20z M3.6,16c-0.278,0-0.566,0-0.648,0.02
		C3,16.033,3,16.321,3,16.6V17.4c0,0.278,0,0.566,0.02,0.648C3.034,18,3.322,18,3.6,18h0.8c0.278,0,0.566,0,0.648-0.02
		C5,17.967,5,17.679,5,17.4V16.6c0-0.278,0-0.566-0.02-0.648C4.966,16,4.678,16,4.4,16H3.6z M19.6,16c-0.278,0-0.565,0-0.647,0.02
		C19,16.034,19,16.321,19,16.6V17.4c0,0.278,0,0.565,0.02,0.647C19.034,18,19.321,18,19.6,18H20.4c0.278,0,0.565,0,0.647-0.02
		C21,17.966,21,17.679,21,17.4V16.6c0-0.278,0-0.565-0.02-0.647C20.966,16,20.679,16,20.4,16H19.6z M11,7.274V7.4
		c0,0.279,0,0.567,0.02,0.649C11.033,8,11.321,8,11.6,8h0.8c0.279,0,0.567,0,0.649-0.02C13,7.966,13,7.678,13,7.4V7.274
		c0-0.014,0-0.029,0-0.044V6.6c0-0.278,0-0.566-0.02-0.648C12.967,6,12.679,6,12.4,6h-0.8c-0.279,0-0.567,0-0.649,0.02
		C11,6.033,11,6.321,11,6.6v0.631C11,7.246,11,7.26,11,7.274z"/>
</g>
</svg>
