<?xml version="1.0" encoding="iso-8859-1"?>
<!-- Generator: Adobe Illustrator 27.4.0, SVG Export Plug-In . SVG Version: 6.00 Build 0)  -->
<svg version="1.1" id="Layer_1" xmlns="http://www.w3.org/2000/svg" xmlns:xlink="http://www.w3.org/1999/xlink" x="0px" y="0px"
	 viewBox="0 0 24 24" style="enable-background:new 0 0 24 24;" xml:space="preserve">
<g>
	<path d="M12.4,23h-0.8c-0.651,0-1.081,0-1.51-0.219c-0.377-0.192-0.679-0.494-0.872-0.873c-0.141-0.276-0.191-0.553-0.208-0.89
		c-2.823-0.941-5.087-3.206-6.028-6.028c-0.337-0.018-0.614-0.067-0.891-0.209c-0.377-0.192-0.679-0.494-0.872-0.873
		C1,13.48,1,13.051,1,12.4v-0.8c0-0.65,0-1.08,0.218-1.508C1.412,9.713,1.713,9.412,2.09,9.219C2.368,9.078,2.645,9.027,2.981,9.01
		C3.923,6.188,6.187,3.922,9.01,2.981c0.018-0.336,0.067-0.613,0.208-0.889c0.194-0.379,0.495-0.681,0.873-0.874
		C10.52,1,10.95,1,11.6,1h0.8c0.651,0,1.081,0,1.508,0.218c0.379,0.193,0.681,0.496,0.874,0.875c0.141,0.275,0.19,0.552,0.208,0.889
		c2.823,0.941,5.087,3.206,6.028,6.029c0.337,0.018,0.613,0.067,0.89,0.208c0.379,0.193,0.681,0.496,0.874,0.875
		C23,10.519,23,10.949,23,11.6v0.8c0,0.651,0,1.082-0.219,1.509c-0.191,0.378-0.494,0.681-0.874,0.873
		c-0.275,0.141-0.552,0.19-0.889,0.208c-0.941,2.822-3.206,5.087-6.028,6.028c-0.018,0.337-0.068,0.614-0.209,0.891
		c-0.191,0.378-0.494,0.681-0.874,0.873C13.481,23,13.051,23,12.4,23z M11,20.284V20.4c0,0.278,0,0.566,0.02,0.648
		C11.034,21,11.322,21,11.6,21h0.8c0.278,0,0.566,0,0.648-0.02C13,20.966,13,20.679,13,20.4v-0.116c0-0.015,0-0.028,0-0.043V19.6
		c0-0.278,0-0.565-0.02-0.647C12.966,19,12.678,19,12.4,19h-0.8c-0.278,0-0.566,0-0.648,0.02C11,19.033,11,19.321,11,19.6v0.642
		C11,20.256,11,20.27,11,20.284z M5.119,14.983c0.758,1.733,2.164,3.14,3.897,3.897c0.022-0.292,0.075-0.541,0.202-0.789
		c0.193-0.379,0.496-0.681,0.875-0.874C10.519,17,10.949,17,11.6,17h0.8c0.651,0,1.082,0,1.509,0.219
		c0.378,0.191,0.681,0.494,0.873,0.874c0.126,0.247,0.18,0.496,0.202,0.788c1.732-0.758,3.139-2.164,3.896-3.897
		c-0.292-0.021-0.542-0.075-0.79-0.202c-0.378-0.191-0.681-0.494-0.873-0.874C17,13.481,17,13.051,17,12.4v-0.8
		c0-0.651,0-1.081,0.219-1.51c0.192-0.377,0.494-0.679,0.873-0.872c0.248-0.126,0.497-0.18,0.789-0.202
		c-0.758-1.733-2.164-3.139-3.897-3.897c-0.021,0.293-0.075,0.542-0.202,0.791c-0.192,0.377-0.494,0.679-0.873,0.872
		C13.48,7,13.051,7,12.4,7h-0.8c-0.65,0-1.08,0-1.508-0.218C9.713,6.588,9.412,6.287,9.219,5.91
		c-0.127-0.249-0.18-0.499-0.203-0.791C7.283,5.877,5.877,7.283,5.119,9.016C5.411,9.039,5.66,9.091,5.908,9.218
		c0.379,0.194,0.681,0.495,0.874,0.873C7,10.52,7,10.95,7,11.6v0.8c0,0.651,0,1.081-0.218,1.508
		c-0.193,0.379-0.496,0.681-0.875,0.874C5.66,14.908,5.412,14.962,5.119,14.983z M3.6,11c-0.279,0-0.567,0-0.649,0.02
		C3,11.033,3,11.321,3,11.6v0.8c0,0.279,0,0.567,0.02,0.649C3.034,13,3.322,13,3.6,13h0.116c0.014,0,0.028,0,0.042,0H4.4
		c0.278,0,0.566,0,0.648-0.02C5,12.967,5,12.679,5,12.4v-0.8c0-0.279,0-0.567-0.02-0.649C4.967,11,4.679,11,4.4,11H3.759
		c-0.014,0.001-0.028,0-0.042,0H3.6z M19.6,11c-0.278,0-0.566,0-0.648,0.02C19,11.034,19,11.322,19,11.6v0.8
		c0,0.278,0,0.566,0.02,0.648C19.034,13,19.321,13,19.6,13h0.642c0.016,0,0.029,0,0.043,0H20.4c0.278,0,0.565,0,0.647-0.02
		C21,12.966,21,12.678,21,12.4v-0.8c0-0.278,0-0.566-0.02-0.648C20.967,11,20.679,11,20.4,11h-0.116c-0.014,0-0.027,0-0.043,0H19.6z
		 M11,3.759V4.4c0,0.279,0,0.567,0.02,0.649C11.033,5,11.321,5,11.6,5h0.8c0.279,0,0.567,0,0.649-0.02C13,4.966,13,4.678,13,4.4
		V3.759c0-0.015,0-0.029,0-0.043V3.6c0-0.278,0-0.566-0.02-0.648C12.967,3,12.679,3,12.4,3h-0.8c-0.279,0-0.567,0-0.649,0.02
		C11,3.033,11,3.321,11,3.6v0.116C11,3.73,11,3.744,11,3.759z"/>
</g>
</svg>
