<?xml version="1.0" encoding="iso-8859-1"?>
<!-- Generator: Adobe Illustrator 27.4.0, SVG Export Plug-In . SVG Version: 6.00 Build 0)  -->
<svg version="1.1" id="Layer_1" xmlns="http://www.w3.org/2000/svg" xmlns:xlink="http://www.w3.org/1999/xlink" x="0px" y="0px"
	 viewBox="0 0 24 24" style="enable-background:new 0 0 24 24;" xml:space="preserve">
<g>
	<path d="M8,23c-0.144,0-0.289-0.031-0.424-0.095C7.225,22.741,7,22.388,7,22v-7.865l-4.36,3.634
		c-0.425,0.352-1.055,0.296-1.408-0.128c-0.354-0.425-0.296-1.056,0.128-1.409L6.438,12L1.36,7.768
		C0.936,7.415,0.878,6.784,1.232,6.36C1.585,5.936,2.216,5.878,2.64,6.232L7,9.865V2c0-0.388,0.225-0.741,0.576-0.906
		C7.926,0.93,8.342,0.982,8.64,1.232l6,5C14.868,6.422,15,6.703,15,7s-0.132,0.578-0.359,0.768L9.562,12l5.079,4.231
		C14.868,16.422,15,16.703,15,17s-0.132,0.578-0.359,0.769l-6,5C8.457,22.921,8.229,23,8,23z M9,14.135v5.73L12.438,17L9,14.135z
		 M9,4.135v5.729L12.438,7L9,4.135z M20.144,18.5c-0.202,0-0.406-0.062-0.583-0.188c-0.448-0.322-0.551-0.947-0.228-1.396
		c1.034-1.438,1.581-3.139,1.581-4.916c0-1.778-0.547-3.478-1.581-4.916c-0.323-0.448-0.221-1.073,0.228-1.396
		c0.449-0.321,1.073-0.22,1.396,0.228c1.281,1.781,1.958,3.885,1.958,6.084s-0.677,4.303-1.958,6.084
		C20.761,18.355,20.454,18.5,20.144,18.5z M16.999,16.143c-0.197,0-0.396-0.059-0.571-0.18c-0.453-0.316-0.563-0.939-0.248-1.393
		c0.527-0.756,0.806-1.645,0.806-2.57s-0.278-1.815-0.806-2.571c-0.315-0.453-0.205-1.076,0.248-1.392
		c0.455-0.316,1.077-0.204,1.393,0.249c0.762,1.093,1.165,2.377,1.165,3.714s-0.403,2.622-1.165,3.715
		C17.626,15.993,17.315,16.143,16.999,16.143z"/>
</g>
</svg>
