<?xml version="1.0" encoding="iso-8859-1"?>
<!-- Generator: Adobe Illustrator 27.4.0, SVG Export Plug-In . SVG Version: 6.00 Build 0)  -->
<svg version="1.1" id="Layer_1" xmlns="http://www.w3.org/2000/svg" xmlns:xlink="http://www.w3.org/1999/xlink" x="0px" y="0px"
	 viewBox="0 0 24 24" style="enable-background:new 0 0 24 24;" xml:space="preserve">
<g>
	<path d="M9,23c-0.144,0-0.289-0.031-0.424-0.095C8.225,22.741,8,22.388,8,22v-7.865l-4.36,3.634
		c-0.425,0.352-1.055,0.296-1.408-0.128c-0.354-0.425-0.296-1.056,0.128-1.409L7.438,12L2.36,7.768
		C1.936,7.415,1.878,6.784,2.232,6.36C2.585,5.936,3.216,5.878,3.64,6.232L8,9.865V2c0-0.388,0.225-0.741,0.576-0.906
		C8.926,0.93,9.342,0.982,9.64,1.232l6,5C15.868,6.422,16,6.703,16,7s-0.132,0.578-0.359,0.768L10.562,12l5.079,4.231
		C15.868,16.422,16,16.703,16,17s-0.132,0.578-0.359,0.769l-6,5C9.457,22.921,9.229,23,9,23z M10,14.135v5.73L13.438,17L10,14.135z
		 M10,4.135v5.729L13.438,7L10,4.135z M21.01,13c-0.553,0-1.005-0.448-1.005-1s0.442-1,0.995-1h0.01c0.553,0,1,0.448,1,1
		S21.562,13,21.01,13z M18.01,13c-0.553,0-1.005-0.448-1.005-1s0.442-1,0.995-1h0.01c0.553,0,1,0.448,1,1S18.562,13,18.01,13z
		 M15.01,13c-0.553,0-1.005-0.448-1.005-1s0.442-1,0.995-1h0.01c0.553,0,1,0.448,1,1S15.562,13,15.01,13z"/>
</g>
</svg>
