<?xml version="1.0" encoding="iso-8859-1"?>
<!-- Generator: Adobe Illustrator 27.4.0, SVG Export Plug-In . SVG Version: 6.00 Build 0)  -->
<svg version="1.1" id="Layer_1" xmlns="http://www.w3.org/2000/svg" xmlns:xlink="http://www.w3.org/1999/xlink" x="0px" y="0px"
	 viewBox="0 0 24 24" style="enable-background:new 0 0 24 24;" xml:space="preserve">
<g>
	<path d="M12,23c-0.144,0-0.289-0.031-0.424-0.095C11.225,22.741,11,22.388,11,22v-7.865l-4.36,3.634
		c-0.425,0.352-1.055,0.296-1.408-0.128c-0.354-0.425-0.296-1.056,0.128-1.409L10.438,12L5.36,7.768
		C4.936,7.415,4.878,6.784,5.232,6.36C5.585,5.936,6.216,5.878,6.64,6.232L11,9.865V2c0-0.388,0.225-0.741,0.576-0.906
		c0.35-0.165,0.766-0.112,1.064,0.138l6,5C18.868,6.422,19,6.703,19,7s-0.132,0.578-0.359,0.768L13.562,12l5.078,4.231
		C18.868,16.422,19,16.703,19,17s-0.132,0.578-0.359,0.769l-6,5C12.457,22.921,12.229,23,12,23z M13,14.135v5.73L16.438,17
		L13,14.135z M13,4.135v5.729L16.438,7L13,4.135z"/>
</g>
</svg>
