<?xml version="1.0" encoding="iso-8859-1"?>
<!-- Generator: Adobe Illustrator 27.4.0, SVG Export Plug-In . SVG Version: 6.00 Build 0)  -->
<svg version="1.1" id="Layer_1" xmlns="http://www.w3.org/2000/svg" xmlns:xlink="http://www.w3.org/1999/xlink" x="0px" y="0px"
	 viewBox="0 0 24 24" style="enable-background:new 0 0 24 24;" xml:space="preserve">
<g>
	<path d="M12,23c-0.144,0-0.289-0.031-0.424-0.095C11.225,22.741,11,22.388,11,22v-7.865l-4.36,3.634
		c-0.425,0.352-1.055,0.296-1.408-0.128c-0.354-0.425-0.296-1.056,0.128-1.409l5.159-4.299L2.293,3.707
		c-0.391-0.391-0.391-1.023,0-1.414s1.023-0.391,1.414,0l8.995,8.995c0.003,0.003,0.006,0.007,0.01,0.01l8.995,8.995
		c0.391,0.391,0.391,1.023,0,1.414s-1.023,0.391-1.414,0l-2.9-2.899l-4.752,3.961C12.457,22.921,12.229,23,12,23z M13,14.414v5.451
		l2.973-2.479L13,14.414z M15.083,10.432c-0.287,0-0.571-0.123-0.77-0.36c-0.354-0.424-0.296-1.055,0.128-1.408L16.438,7L13,4.135V7
		c0,0.552-0.448,1-1,1s-1-0.448-1-1V2c0-0.388,0.225-0.741,0.576-0.906c0.35-0.165,0.766-0.112,1.064,0.138l6,5
		C18.868,6.422,19,6.703,19,7s-0.132,0.578-0.359,0.768L15.723,10.2C15.535,10.356,15.309,10.432,15.083,10.432z"/>
</g>
</svg>
