<?xml version="1.0" encoding="iso-8859-1"?>
<!-- Generator: Adobe Illustrator 27.4.0, SVG Export Plug-In . SVG Version: 6.00 Build 0)  -->
<svg version="1.1" id="Layer_1" xmlns="http://www.w3.org/2000/svg" xmlns:xlink="http://www.w3.org/1999/xlink" x="0px" y="0px"
	 viewBox="0 0 24 24" style="enable-background:new 0 0 24 24;" xml:space="preserve">
<g>
	<path d="M16.5,21H4c-0.552,0-1-0.447-1-1s0.448-1,1-1h1V5H4C3.448,5,3,4.552,3,4s0.448-1,1-1h11.5c2.757,0,5,2.243,5,5
		c0,1.429-0.603,2.72-1.567,3.632C20.463,12.488,21.5,14.125,21.5,16C21.5,18.757,19.257,21,16.5,21z M10.5,19h6
		c1.654,0,3-1.346,3-3s-1.346-3-3-3h-6V19z M7,19h1.5V5H7V19z M10.5,11h5c1.654,0,3-1.346,3-3s-1.346-3-3-3h-5V11z"/>
</g>
</svg>
