<?xml version="1.0" encoding="iso-8859-1"?>
<!-- Generator: Adobe Illustrator 27.4.0, SVG Export Plug-In . SVG Version: 6.00 Build 0)  -->
<svg version="1.1" id="Layer_1" xmlns="http://www.w3.org/2000/svg" xmlns:xlink="http://www.w3.org/1999/xlink" x="0px" y="0px"
	 viewBox="0 0 24 24" style="enable-background:new 0 0 24 24;" xml:space="preserve">
<g>
	<path d="M19,22c-0.171,0-0.343-0.044-0.496-0.132L12,18.151l-6.504,3.717c-0.31,0.177-0.69,0.176-0.998-0.003
		C4.19,21.686,4,21.356,4,21V7.8c0-1.838,0-2.76,0.436-3.616c0.386-0.757,0.991-1.362,1.748-1.748C7.04,2,7.962,2,9.8,2h4.4
		c1.837,0,2.76,0,3.616,0.436c0.758,0.386,1.362,0.991,1.748,1.749C20,5.04,20,5.962,20,7.8V21c0,0.356-0.189,0.686-0.498,0.865
		C19.347,21.955,19.174,22,19,22z M12,16c0.171,0,0.342,0.044,0.496,0.132L18,19.276V7.8c0-1.47,0-2.28-0.218-2.708
		c-0.193-0.379-0.495-0.681-0.874-0.874C16.479,4,15.67,4,14.2,4H9.8C8.33,4,7.52,4,7.092,4.218
		C6.713,4.411,6.411,4.713,6.218,5.092C6,5.52,6,6.33,6,7.8v11.477l5.504-3.145C11.658,16.044,11.829,16,12,16z M12,14
		c-0.552,0-1-0.447-1-1v-2H9c-0.552,0-1-0.448-1-1s0.448-1,1-1h2V7c0-0.552,0.448-1,1-1s1,0.448,1,1v2h2c0.553,0,1,0.448,1,1
		s-0.447,1-1,1h-2v2C13,13.553,12.552,14,12,14z"/>
</g>
</svg>
