<?xml version="1.0" encoding="iso-8859-1"?>
<!-- Generator: Adobe Illustrator 27.4.0, SVG Export Plug-In . SVG Version: 6.00 Build 0)  -->
<svg version="1.1" id="Layer_1" xmlns="http://www.w3.org/2000/svg" xmlns:xlink="http://www.w3.org/1999/xlink" x="0px" y="0px"
	 viewBox="0 0 24 24" style="enable-background:new 0 0 24 24;" xml:space="preserve">
<g>
	<path d="M16.8,23h-8c-1.838,0-2.76,0-3.616-0.437c-0.757-0.385-1.362-0.989-1.748-1.747c-0.227-0.445-0.335-0.908-0.388-1.509
		C3.017,19.211,3,19.107,3,19c0-0.109,0.004-0.218,0.013-0.325C3,18.255,3,17.771,3,17.2V6.8c0-1.838,0-2.76,0.436-3.616
		c0.386-0.757,0.991-1.362,1.748-1.748C6.04,1,6.962,1,8.8,1h8c1.238,0,1.921,0,2.562,0.327c0.567,0.29,1.02,0.742,1.311,1.31
		C21,3.28,21,3.962,21,5.2V19c0,0.004,0,0.008,0,0.012c-0.001,1.106-0.02,1.746-0.326,2.351c-0.291,0.567-0.744,1.021-1.311,1.311
		C18.721,23,18.038,23,16.8,23z M5.017,18.74c0.023,0.55,0.076,0.922,0.202,1.168c0.193,0.379,0.495,0.681,0.873,0.873
		C6.52,21,7.33,21,8.8,21h8c0.867,0,1.44,0,1.654-0.109c0.188-0.096,0.341-0.248,0.438-0.438C19,20.24,19,19.667,19,18.8V17H7
		C5.985,17,5.145,17.76,5.017,18.74z M8.8,3C7.33,3,6.52,3,6.092,3.218C5.713,3.411,5.411,3.713,5.218,4.092C5,4.52,5,5.33,5,6.8
		v8.737C5.589,15.195,6.272,15,7,15h12V5.2c0-0.868,0-1.44-0.109-1.655c-0.096-0.188-0.248-0.34-0.438-0.437
		C18.24,3,17.667,3,16.8,3H8.8z"/>
</g>
</svg>
