<?xml version="1.0" encoding="iso-8859-1"?>
<!-- Generator: Adobe Illustrator 27.4.0, SVG Export Plug-In . SVG Version: 6.00 Build 0)  -->
<svg version="1.1" id="Layer_1" xmlns="http://www.w3.org/2000/svg" xmlns:xlink="http://www.w3.org/1999/xlink" x="0px" y="0px"
	 viewBox="0 0 24 24" style="enable-background:new 0 0 24 24;" xml:space="preserve">
<g>
	<path d="M18.8,21H5.2c-1.238,0-1.92,0-2.562-0.326c-0.57-0.292-1.022-0.744-1.312-1.311C1,18.721,1,18.038,1,16.8V7.2
		c0-1.238,0-1.92,0.327-2.562C1.617,4.07,2.07,3.617,2.637,3.327C3.28,3,3.962,3,5.2,3h0.4c2.397,0,3.601,0,4.67,0.545
		c0.688,0.351,1.275,0.846,1.73,1.453c0.454-0.607,1.041-1.102,1.729-1.453C14.8,3,16.003,3,18.4,3H18.8
		c1.238,0,1.921,0,2.562,0.327c0.567,0.29,1.02,0.742,1.311,1.31C23,5.28,23,5.962,23,7.2v9.6c0,1.238,0,1.921-0.326,2.562
		c-0.291,0.567-0.744,1.021-1.311,1.311C20.721,21,20.038,21,18.8,21z M13,19h5.8c0.867,0,1.44,0,1.654-0.109
		c0.188-0.096,0.341-0.248,0.438-0.438C21,18.24,21,17.667,21,16.8V7.2c0-0.868,0-1.44-0.109-1.655
		c-0.096-0.188-0.248-0.34-0.438-0.437C20.24,5,19.667,5,18.8,5H18.4c-2.077,0-3.12,0-3.763,0.327
		c-0.568,0.29-1.021,0.743-1.311,1.311C13,7.28,13,8.322,13,10.4V19z M5.2,5C4.333,5,3.76,5,3.545,5.109
		c-0.186,0.095-0.341,0.25-0.437,0.438C3,5.76,3,6.333,3,7.2v9.6c0,0.867,0,1.44,0.109,1.654c0.096,0.188,0.248,0.341,0.438,0.438
		C3.76,19,4.333,19,5.2,19H11v-8.6c0-2.078,0-3.12-0.327-3.762C10.384,6.07,9.931,5.617,9.362,5.327C8.72,5,7.678,5,5.6,5H5.2z"/>
</g>
</svg>
