<?xml version="1.0" encoding="iso-8859-1"?>
<!-- Generator: Adobe Illustrator 27.4.0, SVG Export Plug-In . SVG Version: 6.00 Build 0)  -->
<svg version="1.1" id="Layer_1" xmlns="http://www.w3.org/2000/svg" xmlns:xlink="http://www.w3.org/1999/xlink" x="0px" y="0px"
	 viewBox="0 0 24 24" style="enable-background:new 0 0 24 24;" xml:space="preserve">
<g>
	<path d="M15.7,22H8.3c-1.838,0-2.76,0-3.616-0.437c-0.757-0.385-1.362-0.989-1.748-1.747C2.5,18.96,2.5,18.037,2.5,16.2V8.929
		C2.359,8.897,2.226,8.85,2.092,8.782C1.713,8.588,1.412,8.287,1.219,7.91C1,7.48,1,7.05,1,6.4V4.6c0-0.65,0-1.08,0.218-1.508
		C1.412,2.713,1.713,2.412,2.09,2.219C2.52,2,2.95,2,3.6,2h16.8c0.65,0,1.08,0,1.508,0.218c0.379,0.193,0.681,0.496,0.874,0.875
		C23,3.519,23,3.949,23,4.6v1.8c0,0.651,0,1.081-0.219,1.51c-0.192,0.377-0.494,0.679-0.873,0.872
		C21.774,8.85,21.641,8.897,21.5,8.929V16.2c0,1.837,0,2.76-0.436,3.616c-0.386,0.758-0.99,1.362-1.749,1.748
		C18.46,22,17.537,22,15.7,22z M4.5,9v7.2c0,1.47,0,2.279,0.218,2.708c0.193,0.379,0.495,0.681,0.873,0.873C6.02,20,6.83,20,8.3,20
		h7.4c1.47,0,2.279,0,2.708-0.219c0.379-0.192,0.681-0.494,0.873-0.872C19.5,18.479,19.5,17.67,19.5,16.2V9H4.5z M3.6,4
		C3.321,4,3.033,4,2.951,4.02C3,4.033,3,4.321,3,4.6v1.8c0,0.279,0,0.567,0.02,0.649C3.032,7.006,3.257,7.007,3.5,7
		c0.035-0.002,0.066,0,0.1,0h16.8c0.278,0,0.566,0,0.648-0.02C21,6.966,21,6.678,21,6.4V4.6c0-0.278,0-0.566-0.02-0.648
		C20.967,4,20.679,4,20.4,4H3.6z M14.4,16.5H9.6c-0.651,0-1.081,0-1.51-0.219c-0.377-0.192-0.679-0.494-0.872-0.873
		C7,14.98,7,14.551,7,13.9V13.1c0-0.65,0-1.08,0.218-1.507c0.194-0.379,0.495-0.681,0.873-0.874C8.52,10.5,8.95,10.5,9.6,10.5h4.8
		c0.65,0,1.08,0,1.508,0.218c0.379,0.193,0.681,0.496,0.874,0.875C17,12.019,17,12.449,17,13.1V13.9c0,0.65,0,1.081-0.219,1.509
		c-0.191,0.378-0.494,0.681-0.874,0.873C15.481,16.5,15.051,16.5,14.4,16.5z M9.6,12.5c-0.279,0-0.567,0-0.649,0.02
		C9,12.533,9,12.821,9,13.1V13.9c0,0.278,0,0.566,0.02,0.648C9.034,14.5,9.322,14.5,9.6,14.5h4.8c0.278,0,0.565,0,0.647-0.02
		C15,14.466,15,14.179,15,13.9V13.1c0-0.278,0-0.566-0.02-0.647C14.967,12.5,14.679,12.5,14.4,12.5H9.6z"/>
</g>
</svg>
