<?xml version="1.0" encoding="iso-8859-1"?>
<!-- Generator: Adobe Illustrator 27.4.0, SVG Export Plug-In . SVG Version: 6.00 Build 0)  -->
<svg version="1.1" id="Layer_1" xmlns="http://www.w3.org/2000/svg" xmlns:xlink="http://www.w3.org/1999/xlink" x="0px" y="0px"
	 viewBox="0 0 24 24" style="enable-background:new 0 0 24 24;" xml:space="preserve">
<g>
	<path d="M18.57,21c-0.553,0-1-0.447-1-1s0.447-1,1-1c0.709,0,1.286-0.577,1.286-1.286v-4.571c0-0.265,0.105-0.52,0.293-0.708
		L20.585,12l-0.436-0.436c-0.188-0.188-0.293-0.442-0.293-0.707V6.286C19.856,5.577,19.279,5,18.57,5c-0.553,0-1-0.448-1-1
		s0.447-1,1-1c1.812,0,3.286,1.474,3.286,3.286v4.156l0.851,0.851C22.895,11.48,23,11.735,23,12c0,0.266-0.105,0.52-0.293,0.708
		l-0.851,0.849v4.157C21.856,19.525,20.382,21,18.57,21z M5.429,21c-1.812,0-3.286-1.475-3.286-3.286v-4.157l-0.85-0.85
		C1.105,12.52,1,12.265,1,12s0.105-0.52,0.293-0.707l0.85-0.85V6.286C2.143,4.474,3.617,3,5.429,3c0.552,0,1,0.448,1,1s-0.448,1-1,1
		C4.72,5,4.143,5.577,4.143,6.286v4.571c0,0.265-0.105,0.52-0.293,0.707L3.415,12l0.436,0.436c0.188,0.188,0.293,0.442,0.293,0.707
		v4.571C4.143,18.423,4.72,19,5.429,19c0.552,0,1,0.447,1,1S5.981,21,5.429,21z M15,16c-0.256,0-0.512-0.098-0.707-0.293L12,13.414
		l-2.293,2.293c-0.391,0.391-1.023,0.391-1.414,0s-0.391-1.023,0-1.414L10.586,12L8.293,9.707c-0.391-0.391-0.391-1.023,0-1.414
		s1.023-0.391,1.414,0L12,10.586l2.293-2.293c0.391-0.391,1.023-0.391,1.414,0s0.391,1.023,0,1.414L13.414,12l2.293,2.293
		c0.391,0.391,0.391,1.023,0,1.414C15.512,15.902,15.256,16,15,16z"/>
</g>
</svg>
