<?xml version="1.0" encoding="iso-8859-1"?>
<!-- Generator: Adobe Illustrator 27.4.0, SVG Export Plug-In . SVG Version: 6.00 Build 0)  -->
<svg version="1.1" id="Layer_1" xmlns="http://www.w3.org/2000/svg" xmlns:xlink="http://www.w3.org/1999/xlink" x="0px" y="0px"
	 viewBox="0 0 24 24" style="enable-background:new 0 0 24 24;" xml:space="preserve">
<g>
	<path d="M18.8,22H5.2c-1.238,0-1.92,0-2.562-0.326c-0.57-0.292-1.022-0.744-1.312-1.311C1,19.721,1,19.038,1,17.8v-7.6
		c0-1.238,0-1.92,0.327-2.562C1.617,7.07,2.07,6.617,2.637,6.327C3.28,6,3.962,6,5.2,6h1.808c0.013-0.42,0.045-0.728,0.128-1.035
		c0.369-1.376,1.453-2.46,2.829-2.829C10.474,2,10.983,2,12,2c1.016,0,1.525,0,2.034,0.136c1.377,0.369,2.461,1.453,2.829,2.829
		C16.946,5.272,16.979,5.58,16.991,6H18.8c1.238,0,1.921,0,2.562,0.327c0.567,0.29,1.02,0.742,1.311,1.31C23,8.28,23,8.962,23,10.2
		v7.6c0,1.238,0,1.921-0.326,2.562c-0.291,0.567-0.744,1.021-1.311,1.311C20.721,22,20.038,22,18.8,22z M5.2,8
		C4.333,8,3.76,8,3.545,8.109c-0.186,0.095-0.341,0.25-0.437,0.438C3,8.76,3,9.333,3,10.2v7.6c0,0.867,0,1.44,0.109,1.654
		c0.096,0.188,0.248,0.341,0.438,0.438C3.76,20,4.333,20,5.2,20h13.6c0.867,0,1.44,0,1.654-0.109
		c0.188-0.096,0.341-0.248,0.438-0.438C21,19.24,21,18.667,21,17.8v-7.6c0-0.868,0-1.44-0.109-1.655
		c-0.096-0.188-0.248-0.34-0.438-0.437C20.24,8,19.667,8,18.8,8H5.2z M9.01,6h5.98c-0.009-0.229-0.025-0.396-0.059-0.517
		c-0.185-0.689-0.727-1.231-1.414-1.416C13.264,4,12.814,4,12,4c-0.815,0-1.264,0-1.518,0.068C9.794,4.252,9.252,4.794,9.068,5.482
		C9.036,5.604,9.019,5.771,9.01,6z"/>
</g>
</svg>
