<?xml version="1.0" encoding="iso-8859-1"?>
<!-- Generator: Adobe Illustrator 27.4.0, SVG Export Plug-In . SVG Version: 6.00 Build 0)  -->
<svg version="1.1" id="Layer_1" xmlns="http://www.w3.org/2000/svg" xmlns:xlink="http://www.w3.org/1999/xlink" x="0px" y="0px"
	 viewBox="0 0 24 24" style="enable-background:new 0 0 24 24;" xml:space="preserve">
<g>
	<path d="M12,23c-1.93,0-3.5-1.57-3.5-3.5V16c-1.641-0.001-2.508-0.024-3.316-0.437c-0.757-0.385-1.362-0.989-1.748-1.747
		C3,12.96,3,12.038,3,10.2V3.6c0-0.65,0-1.08,0.218-1.508C3.412,1.713,3.713,1.412,4.09,1.219C4.52,1,4.95,1,5.6,1h12.8
		c0.65,0,1.08,0,1.508,0.218c0.379,0.193,0.681,0.496,0.874,0.875C21,2.519,21,2.949,21,3.6v6.6c0,1.838,0,2.76-0.437,3.616
		c-0.385,0.758-0.989,1.362-1.748,1.748C18.008,15.976,17.141,15.999,15.5,16v3.5C15.5,21.43,13.93,23,12,23z M10.5,16v3.5
		c0,0.827,0.673,1.5,1.5,1.5s1.5-0.673,1.5-1.5V16H10.5z M14.5,14h0.7c1.47,0,2.279,0,2.708-0.219
		c0.379-0.192,0.681-0.494,0.873-0.873c0.176-0.343,0.21-0.932,0.217-1.909H5.001c0.007,0.977,0.042,1.565,0.217,1.908
		c0.193,0.379,0.495,0.681,0.873,0.873C6.52,14,7.33,14,8.8,14H14.5z M5,9h14V3.6c0-0.278,0-0.566-0.02-0.648
		C18.967,3,18.679,3,18.4,3H5.6C5.321,3,5.033,3,4.951,3.02C5,3.033,5,3.321,5,3.6V9z"/>
</g>
</svg>
