<?xml version="1.0" encoding="iso-8859-1"?>
<!-- Generator: Adobe Illustrator 27.4.0, SVG Export Plug-In . SVG Version: 6.00 Build 0)  -->
<svg version="1.1" id="Layer_1" xmlns="http://www.w3.org/2000/svg" xmlns:xlink="http://www.w3.org/1999/xlink" x="0px" y="0px"
	 viewBox="0 0 24 24" style="enable-background:new 0 0 24 24;" xml:space="preserve">
<g>
	<path d="M4.152,23.038c-0.392,0-0.782-0.01-1.162-0.021C2.649,23.009,2.317,23,2,23c-0.348,0-0.671-0.182-0.853-0.479
		s-0.196-0.668-0.037-0.978c0.36-0.703,0.323-1.588,0.284-2.524c-0.053-1.249-0.112-2.664,0.924-3.701
		c0.942-0.942,2.261-1.411,3.569-1.302C5.894,13.5,6.032,12.986,6.3,12.53c0.224-0.378,0.532-0.664,1.092-1.182l0.917-0.85
		c0.007-0.007,0.015-0.014,0.022-0.021l8.931-8.27c1.269-1.175,3.22-1.137,4.443,0.085c1.223,1.223,1.26,3.175,0.085,4.443
		l-8.27,8.931c-0.007,0.008-0.014,0.016-0.021,0.023l-0.846,0.914l0,0l-0.734-0.68l0.73,0.683c-0.519,0.56-0.804,0.868-1.18,1.092
		c-0.456,0.27-0.971,0.407-1.488,0.414C9.995,18.241,10,18.37,10,18.5c0,1.202-0.468,2.332-1.318,3.182l0,0l0,0
		C7.51,22.854,5.812,23.038,4.152,23.038z M3.34,21.026c1.507,0.033,3.139,0.03,3.928-0.759l0,0C7.74,19.795,8,19.168,8,18.5
		c0-0.667-0.26-1.295-0.732-1.768c-0.945-0.945-2.591-0.945-3.536,0c-0.388,0.388-0.387,1.091-0.34,2.203
		C3.419,19.596,3.45,20.309,3.34,21.026z M8.974,12.61l-0.219,0.203c-0.397,0.368-0.658,0.609-0.732,0.735
		c-0.176,0.299-0.184,0.676-0.018,0.983c0.07,0.129,0.335,0.395,0.703,0.762c0.369,0.368,0.634,0.634,0.763,0.703
		c0.306,0.166,0.683,0.158,0.984-0.019c0.125-0.074,0.366-0.334,0.731-0.729l0.737,0.676l-0.734-0.68l0.203-0.219L8.974,12.61z
		 M10.442,11.25l2.308,2.308l7.575-8.18c0.441-0.477,0.427-1.211-0.032-1.67c-0.46-0.459-1.192-0.473-1.67-0.032L10.442,11.25z"/>
</g>
</svg>
