<?xml version="1.0" encoding="iso-8859-1"?>
<!-- Generator: Adobe Illustrator 27.4.0, SVG Export Plug-In . SVG Version: 6.00 Build 0)  -->
<svg version="1.1" id="Layer_1" xmlns="http://www.w3.org/2000/svg" xmlns:xlink="http://www.w3.org/1999/xlink" x="0px" y="0px"
	 viewBox="0 0 24 24" style="enable-background:new 0 0 24 24;" xml:space="preserve">
<g>
	<path d="M12,23c-1.93,0-3.5-1.57-3.5-3.5v-3.567c-0.509-0.059-0.92-0.167-1.316-0.369c-0.757-0.385-1.362-0.989-1.748-1.747
		C5,12.96,5,12.038,5,10.2V3.6c0-0.65,0-1.08,0.218-1.508C5.412,1.713,5.713,1.412,6.09,1.219C6.52,1,6.95,1,7.6,1h8.8
		c0.65,0,1.08,0,1.508,0.218c0.379,0.193,0.681,0.496,0.874,0.875C19,2.519,19,2.949,19,3.6v6.6c0,1.838,0,2.76-0.437,3.616
		c-0.385,0.758-0.989,1.362-1.748,1.748c-0.396,0.201-0.807,0.31-1.315,0.368V19.5C15.5,21.43,13.93,23,12,23z M10.5,16v3.5
		c0,0.827,0.673,1.5,1.5,1.5s1.5-0.673,1.5-1.5V16c-0.097,0-0.197,0-0.3,0h-2.4C10.697,16,10.597,16,10.5,16z M7.001,11
		c0.007,0.977,0.042,1.565,0.217,1.908c0.193,0.379,0.495,0.681,0.873,0.873C8.52,14,9.33,14,10.8,14h2.4
		c1.47,0,2.279,0,2.708-0.219c0.379-0.192,0.681-0.494,0.873-0.873c0.176-0.343,0.21-0.932,0.217-1.909H7.001z M7,9h10V3.6
		c0-0.278,0-0.566-0.02-0.648C16.967,3,16.679,3,16.4,3H7.6C7.321,3,7.033,3,6.951,3.02C7,3.033,7,3.321,7,3.6V9z"/>
</g>
</svg>
