<?xml version="1.0" encoding="iso-8859-1"?>
<!-- Generator: Adobe Illustrator 27.4.0, SVG Export Plug-In . SVG Version: 6.00 Build 0)  -->
<svg version="1.1" id="Layer_1" xmlns="http://www.w3.org/2000/svg" xmlns:xlink="http://www.w3.org/1999/xlink" x="0px" y="0px"
	 viewBox="0 0 24 24" style="enable-background:new 0 0 24 24;" xml:space="preserve">
<g>
	<path d="M22,22H2c-0.552,0-1-0.447-1-1s0.448-1,1-1h1V6.2c0-1.238,0-1.92,0.327-2.562C3.617,3.07,4.07,2.617,4.637,2.327
		C5.28,2,5.962,2,7.2,2h9.6c1.238,0,1.921,0,2.562,0.327c0.567,0.29,1.02,0.742,1.311,1.31C21,4.28,21,4.962,21,6.2V20h1
		c0.553,0,1,0.447,1,1S22.553,22,22,22z M5,20h14V6.2c0-0.868,0-1.44-0.109-1.655c-0.096-0.188-0.248-0.34-0.438-0.437
		C18.24,4,17.667,4,16.8,4H7.2C6.333,4,5.76,4,5.545,4.109c-0.186,0.095-0.341,0.25-0.437,0.438C5,4.76,5,5.333,5,6.2V20z M16.5,16
		h-2.75c-0.553,0-1-0.447-1-1s0.447-1,1-1h2.75c0.553,0,1,0.447,1,1S17.053,16,16.5,16z M10.25,16H7.5c-0.552,0-1-0.447-1-1
		s0.448-1,1-1h2.75c0.552,0,1,0.447,1,1S10.802,16,10.25,16z M16.5,12h-2.75c-0.553,0-1-0.448-1-1s0.447-1,1-1h2.75
		c0.553,0,1,0.448,1,1S17.053,12,16.5,12z M10.25,12H7.5c-0.552,0-1-0.448-1-1s0.448-1,1-1h2.75c0.552,0,1,0.448,1,1
		S10.802,12,10.25,12z M16.5,8h-2.75c-0.553,0-1-0.448-1-1s0.447-1,1-1h2.75c0.553,0,1,0.448,1,1S17.053,8,16.5,8z M10.25,8H7.5
		c-0.552,0-1-0.448-1-1s0.448-1,1-1h2.75c0.552,0,1,0.448,1,1S10.802,8,10.25,8z"/>
</g>
</svg>
