<?xml version="1.0" encoding="iso-8859-1"?>
<!-- Generator: Adobe Illustrator 27.4.0, SVG Export Plug-In . SVG Version: 6.00 Build 0)  -->
<svg version="1.1" id="Layer_1" xmlns="http://www.w3.org/2000/svg" xmlns:xlink="http://www.w3.org/1999/xlink" x="0px" y="0px"
	 viewBox="0 0 24 24" style="enable-background:new 0 0 24 24;" xml:space="preserve">
<g>
	<path d="M17.8,22H6.2c-1.238,0-1.92,0-2.562-0.326c-0.57-0.292-1.022-0.744-1.312-1.311C2,19.721,2,19.038,2,17.8V6.2
		c0-1.238,0-1.92,0.327-2.562C2.617,3.07,3.07,2.617,3.637,2.327C4.28,2,4.962,2,6.2,2h11.6c1.238,0,1.921,0,2.562,0.327
		c0.567,0.29,1.02,0.742,1.311,1.31C22,4.28,22,4.962,22,6.2v11.6c0,1.238,0,1.921-0.326,2.562
		c-0.291,0.567-0.744,1.021-1.311,1.311C19.721,22,19.038,22,17.8,22z M16,20h1.8c0.867,0,1.44,0,1.654-0.109
		c0.188-0.096,0.341-0.248,0.438-0.438C20,19.24,20,18.667,20,17.8v-7.336C19.411,10.805,18.728,11,18,11
		c-1.193,0-2.267-0.525-3-1.357C14.267,10.475,13.193,11,12,11s-2.267-0.525-3-1.357C8.267,10.475,7.193,11,6,11
		c-0.728,0-1.411-0.195-2-0.537V17.8c0,0.867,0,1.44,0.109,1.654c0.096,0.188,0.248,0.341,0.438,0.438C4.76,20,5.333,20,6.2,20H8
		v-4.4c0-0.65,0-1.08,0.218-1.508c0.193-0.379,0.496-0.681,0.875-0.874C9.519,13,9.949,13,10.6,13h2.8c0.65,0,1.081,0,1.509,0.219
		c0.378,0.191,0.681,0.494,0.873,0.874C16,14.519,16,14.949,16,15.6V20z M10,20h4v-4.4c0-0.278,0-0.565-0.02-0.647
		C13.966,15,13.679,15,13.4,15h-2.8c-0.278,0-0.566,0-0.648,0.02C10,15.033,10,15.321,10,15.6V20z M15,6c0.553,0,1,0.448,1,1
		c0,1.103,0.897,2,2,2s2-0.897,2-2V6.2c0-0.868,0-1.44-0.109-1.655c-0.096-0.188-0.248-0.34-0.438-0.437C19.24,4,18.667,4,17.8,4
		H6.2C5.333,4,4.76,4,4.545,4.109c-0.186,0.095-0.341,0.25-0.437,0.438C4,4.76,4,5.333,4,6.2V7c0,1.103,0.897,2,2,2s2-0.897,2-2
		c0-0.552,0.448-1,1-1s1,0.448,1,1c0,1.103,0.897,2,2,2c1.103,0,2-0.897,2-2C14,6.448,14.447,6,15,6z"/>
</g>
</svg>
