<?xml version="1.0" encoding="iso-8859-1"?>
<!-- Generator: Adobe Illustrator 27.4.0, SVG Export Plug-In . SVG Version: 6.00 Build 0)  -->
<svg version="1.1" id="Layer_1" xmlns="http://www.w3.org/2000/svg" xmlns:xlink="http://www.w3.org/1999/xlink" x="0px" y="0px"
	 viewBox="0 0 24 24" style="enable-background:new 0 0 24 24;" xml:space="preserve">
<g>
	<path d="M22,22H2c-0.552,0-1-0.447-1-1s0.448-1,1-1v-5.8c0-1.238,0-1.92,0.327-2.562c0.29-0.569,0.743-1.022,1.311-1.312
		C4.28,10,4.962,10,6.2,10H10V6.2c0-1.238,0-1.92,0.327-2.562c0.29-0.569,0.743-1.022,1.311-1.312C12.28,2,12.962,2,14.2,2h3.6
		c1.238,0,1.921,0,2.562,0.327c0.567,0.29,1.02,0.742,1.311,1.31C22,4.28,22,4.962,22,6.2V20c0.553,0,1,0.447,1,1S22.553,22,22,22z
		 M12,20h8V6.2c0-0.868,0-1.44-0.109-1.655c-0.096-0.188-0.248-0.34-0.438-0.437C19.24,4,18.667,4,17.8,4h-3.6
		c-0.867,0-1.44,0-1.655,0.109c-0.186,0.095-0.341,0.25-0.437,0.438C12,4.76,12,5.333,12,6.2V20z M4,20h6v-8H6.2
		c-0.868,0-1.44,0-1.655,0.109c-0.186,0.095-0.341,0.25-0.437,0.438C4,12.76,4,13.333,4,14.2V20z M17.5,16h-3c-0.553,0-1-0.447-1-1
		s0.447-1,1-1h3c0.553,0,1,0.447,1,1S18.053,16,17.5,16z M17.5,12h-3c-0.553,0-1-0.448-1-1s0.447-1,1-1h3c0.553,0,1,0.448,1,1
		S18.053,12,17.5,12z M17.5,8h-3c-0.553,0-1-0.448-1-1s0.447-1,1-1h3c0.553,0,1,0.448,1,1S18.053,8,17.5,8z"/>
</g>
</svg>
