<?xml version="1.0" encoding="iso-8859-1"?>
<!-- Generator: Adobe Illustrator 27.4.0, SVG Export Plug-In . SVG Version: 6.00 Build 0)  -->
<svg version="1.1" id="Layer_1" xmlns="http://www.w3.org/2000/svg" xmlns:xlink="http://www.w3.org/1999/xlink" x="0px" y="0px"
	 viewBox="0 0 24 24" style="enable-background:new 0 0 24 24;" xml:space="preserve">
<g>
	<path d="M21,22H3c-0.552,0-1-0.447-1-1s0.448-1,1-1h18c0.553,0,1,0.447,1,1S21.553,22,21,22z M18,19c-0.553,0-1-0.447-1-1v-8
		c0-0.552,0.447-1,1-1s1,0.448,1,1v8C19,18.553,18.553,19,18,19z M14,19c-0.553,0-1-0.447-1-1v-8c0-0.552,0.447-1,1-1s1,0.448,1,1v8
		C15,18.553,14.553,19,14,19z M10,19c-0.552,0-1-0.447-1-1v-8c0-0.552,0.448-1,1-1s1,0.448,1,1v8C11,18.553,10.552,19,10,19z M6,19
		c-0.552,0-1-0.447-1-1v-8c0-0.552,0.448-1,1-1s1,0.448,1,1v8C7,18.553,6.552,19,6,19z M20,8H4C3.554,8,3.162,7.705,3.039,7.276
		C2.916,6.847,3.092,6.388,3.47,6.152l7.576-4.735c0.199-0.125,0.372-0.232,0.618-0.29c0.222-0.05,0.449-0.05,0.663-0.002
		c0.254,0.059,0.427,0.167,0.627,0.292l7.576,4.734c0.378,0.236,0.554,0.695,0.431,1.124C20.838,7.705,20.446,8,20,8z M7.487,6
		h9.026L12,3.18L7.487,6z M12.236,3.034L12.236,3.034L12.236,3.034z M11.764,3.034L11.764,3.034L11.764,3.034z"/>
</g>
</svg>
