<?xml version="1.0" encoding="iso-8859-1"?>
<!-- Generator: Adobe Illustrator 27.4.0, SVG Export Plug-In . SVG Version: 6.00 Build 0)  -->
<svg version="1.1" id="Layer_1" xmlns="http://www.w3.org/2000/svg" xmlns:xlink="http://www.w3.org/1999/xlink" x="0px" y="0px"
	 viewBox="0 0 24 24" style="enable-background:new 0 0 24 24;" xml:space="preserve">
<g>
	<path d="M20,22H4c-0.552,0-1-0.447-1-1s0.448-1,1-1h1V6.2c0-1.238,0-1.92,0.327-2.562C5.617,3.07,6.07,2.617,6.637,2.327
		C7.28,2,7.962,2,9.2,2h5.6c1.238,0,1.921,0,2.562,0.327c0.567,0.29,1.02,0.742,1.311,1.31C19,4.28,19,4.962,19,6.2V20h1
		c0.553,0,1,0.447,1,1S20.553,22,20,22z M7,20h10V6.2c0-0.868,0-1.44-0.109-1.655c-0.096-0.188-0.248-0.34-0.438-0.437
		C16.24,4,15.667,4,14.8,4H9.2C8.333,4,7.76,4,7.545,4.109c-0.186,0.095-0.341,0.25-0.437,0.438C7,4.76,7,5.333,7,6.2V20z M14.5,16
		h-5c-0.552,0-1-0.447-1-1s0.448-1,1-1h5c0.553,0,1,0.447,1,1S15.053,16,14.5,16z M14.5,12h-5c-0.552,0-1-0.448-1-1s0.448-1,1-1h5
		c0.553,0,1,0.448,1,1S15.053,12,14.5,12z M14.5,8h-5c-0.552,0-1-0.448-1-1s0.448-1,1-1h5c0.553,0,1,0.448,1,1S15.053,8,14.5,8z"/>
</g>
</svg>
