<?xml version="1.0" encoding="iso-8859-1"?>
<!-- Generator: Adobe Illustrator 27.4.0, SVG Export Plug-In . SVG Version: 6.00 Build 0)  -->
<svg version="1.1" id="Layer_1" xmlns="http://www.w3.org/2000/svg" xmlns:xlink="http://www.w3.org/1999/xlink" x="0px" y="0px"
	 viewBox="0 0 24 24" style="enable-background:new 0 0 24 24;" xml:space="preserve">
<g>
	<path d="M22,22H2c-0.552,0-1-0.447-1-1s0.448-1,1-1V6.2c0-1.238,0-1.92,0.327-2.562C2.617,3.07,3.07,2.617,3.637,2.327
		C4.28,2,4.962,2,6.2,2h3.6c1.238,0,1.92,0,2.562,0.327c0.569,0.29,1.021,0.743,1.312,1.311C14,4.28,14,4.962,14,6.2V10h3.8
		c1.238,0,1.921,0,2.562,0.327c0.567,0.29,1.02,0.742,1.311,1.31C22,12.28,22,12.962,22,14.2V20c0.553,0,1,0.447,1,1
		S22.553,22,22,22z M14,20h6v-5.8c0-0.867,0-1.44-0.109-1.655c-0.096-0.188-0.248-0.34-0.438-0.437C19.24,12,18.667,12,17.8,12H14
		V20z M4,20h8V6.2c0-0.868,0-1.44-0.109-1.655c-0.095-0.186-0.25-0.341-0.438-0.437C11.24,4,10.667,4,9.8,4H6.2
		C5.333,4,4.76,4,4.545,4.109c-0.186,0.095-0.341,0.25-0.437,0.438C4,4.76,4,5.333,4,6.2V20z M9.5,16h-3c-0.552,0-1-0.447-1-1
		s0.448-1,1-1h3c0.552,0,1,0.447,1,1S10.052,16,9.5,16z M9.5,12h-3c-0.552,0-1-0.448-1-1s0.448-1,1-1h3c0.552,0,1,0.448,1,1
		S10.052,12,9.5,12z M9.5,8h-3c-0.552,0-1-0.448-1-1s0.448-1,1-1h3c0.552,0,1,0.448,1,1S10.052,8,9.5,8z"/>
</g>
</svg>
