<?xml version="1.0" encoding="iso-8859-1"?>
<!-- Generator: Adobe Illustrator 27.4.0, SVG Export Plug-In . SVG Version: 6.00 Build 0)  -->
<svg version="1.1" id="Layer_1" xmlns="http://www.w3.org/2000/svg" xmlns:xlink="http://www.w3.org/1999/xlink" x="0px" y="0px"
	 viewBox="0 0 24 24" style="enable-background:new 0 0 24 24;" xml:space="preserve">
<g>
	<path d="M21,22H3c-0.552,0-1-0.447-1-1s0.448-1,1-1h1V6.2c0-1.238,0-1.92,0.327-2.562C4.617,3.07,5.07,2.617,5.637,2.327
		C6.28,2,6.962,2,8.2,2h7.6c1.238,0,1.921,0,2.562,0.327c0.567,0.29,1.02,0.742,1.311,1.31C20,4.28,20,4.962,20,6.2V20h1
		c0.553,0,1,0.447,1,1S21.553,22,21,22z M16,20h2V6.2c0-0.868,0-1.44-0.109-1.655c-0.096-0.188-0.248-0.34-0.438-0.437
		C17.24,4,16.667,4,15.8,4H8.2C7.333,4,6.76,4,6.545,4.109c-0.186,0.095-0.341,0.25-0.437,0.438C6,4.76,6,5.333,6,6.2V20h2v-4.4
		c0-0.65,0-1.08,0.218-1.508c0.193-0.379,0.496-0.681,0.875-0.874C9.519,13,9.949,13,10.6,13h2.8c0.65,0,1.081,0,1.509,0.219
		c0.378,0.191,0.681,0.494,0.873,0.874C16,14.519,16,14.949,16,15.6V20z M10,20h4v-4.4c0-0.278,0-0.565-0.02-0.647
		C13.966,15,13.679,15,13.4,15h-2.8c-0.278,0-0.566,0-0.648,0.02C10,15.033,10,15.321,10,15.6V20z M14.5,9.5
		C13.673,9.5,13,8.827,13,8s0.673-1.5,1.5-1.5S16,7.173,16,8S15.327,9.5,14.5,9.5z M9.5,9.5C8.673,9.5,8,8.827,8,8
		s0.673-1.5,1.5-1.5S11,7.173,11,8S10.327,9.5,9.5,9.5z"/>
</g>
</svg>
