<?xml version="1.0" encoding="iso-8859-1"?>
<!-- Generator: Adobe Illustrator 27.4.0, SVG Export Plug-In . SVG Version: 6.00 Build 0)  -->
<svg version="1.1" id="Layer_1" xmlns="http://www.w3.org/2000/svg" xmlns:xlink="http://www.w3.org/1999/xlink" x="0px" y="0px"
	 viewBox="0 0 24 24" style="enable-background:new 0 0 24 24;" xml:space="preserve">
<g>
	<path d="M22,22H2c-0.552,0-1-0.447-1-1s0.448-1,1-1v-7.4c0-0.65,0-1.08,0.218-1.508c0.194-0.379,0.495-0.681,0.873-0.874
		C3.52,10,3.95,10,4.6,10h1.9V6.2c0-1.238,0-1.92,0.327-2.562C7.117,3.07,7.57,2.617,8.137,2.327C8.78,2,9.462,2,10.7,2h2.6
		c1.238,0,1.921,0,2.562,0.327c0.567,0.29,1.02,0.742,1.311,1.31C17.5,4.28,17.5,4.962,17.5,6.2V10h1.9c0.65,0,1.08,0,1.508,0.218
		c0.379,0.193,0.681,0.496,0.874,0.875C22,11.519,22,11.949,22,12.6V20c0.553,0,1,0.447,1,1S22.553,22,22,22z M17.5,20H20v-7.4
		c0-0.278,0-0.566-0.02-0.648C19.967,12,19.679,12,19.4,12h-1.9V20z M8.5,20h7V6.2c0-0.868,0-1.44-0.109-1.655
		c-0.096-0.188-0.248-0.34-0.438-0.437C14.74,4,14.167,4,13.3,4h-2.6C9.833,4,9.26,4,9.045,4.109
		c-0.186,0.095-0.341,0.25-0.437,0.438C8.5,4.76,8.5,5.333,8.5,6.2V20z M4,20h2.5v-8H4.6c-0.279,0-0.567,0-0.649,0.02
		C4,12.033,4,12.321,4,12.6V20z M13,16h-2c-0.552,0-1-0.447-1-1s0.448-1,1-1h2c0.553,0,1,0.447,1,1S13.553,16,13,16z M13,12h-2
		c-0.552,0-1-0.448-1-1s0.448-1,1-1h2c0.553,0,1,0.448,1,1S13.553,12,13,12z M13,8h-2c-0.552,0-1-0.448-1-1s0.448-1,1-1h2
		c0.553,0,1,0.448,1,1S13.553,8,13,8z"/>
</g>
</svg>
