<?xml version="1.0" encoding="iso-8859-1"?>
<!-- Generator: Adobe Illustrator 27.4.0, SVG Export Plug-In . SVG Version: 6.00 Build 0)  -->
<svg version="1.1" id="Layer_1" xmlns="http://www.w3.org/2000/svg" xmlns:xlink="http://www.w3.org/1999/xlink" x="0px" y="0px"
	 viewBox="0 0 24 24" style="enable-background:new 0 0 24 24;" xml:space="preserve">
<g>
	<path d="M18.2,23h-1.9c-0.355,0-0.662,0-0.983-0.165c-0.281-0.142-0.51-0.37-0.654-0.657C14.5,21.862,14.5,21.556,14.5,21.2V20h-5
		v1.2c0,0.355,0,0.662-0.165,0.983c-0.142,0.28-0.369,0.508-0.655,0.653C8.361,23,8.055,23,7.7,23H5.8c-0.354,0-0.661,0-0.982-0.164
		c-0.283-0.145-0.511-0.372-0.655-0.658C4,21.862,4,21.556,4,21.2v-1.736c-0.671-0.386-1.209-0.952-1.564-1.647
		C2,16.96,2,16.037,2,14.2V6.8c0-0.446,0-0.837,0.006-1.188C2.002,5.575,2,5.538,2,5.5c0-0.054,0.004-0.107,0.013-0.16
		c0.028-0.939,0.122-1.563,0.423-2.156c0.386-0.757,0.991-1.362,1.748-1.748C5.04,1,5.962,1,7.8,1h8.4c1.837,0,2.76,0,3.616,0.436
		c0.758,0.386,1.362,0.991,1.748,1.749c0.302,0.592,0.395,1.217,0.423,2.156C21.996,5.393,22,5.446,22,5.5
		c0,0.038-0.002,0.075-0.006,0.112C22,5.962,22,6.354,22,6.8v7.4c0,1.837,0,2.76-0.436,3.616c-0.354,0.695-0.893,1.262-1.564,1.648
		V21.2c0,0.355,0,0.662-0.165,0.983c-0.142,0.281-0.37,0.51-0.657,0.654C18.862,23,18.556,23,18.2,23z M16.5,21H18v-1.026
		c-0.423,0.022-0.911,0.025-1.5,0.026V21z M6,21h1.5v-1c-0.588-0.001-1.078-0.004-1.5-0.026V21z M4,13v1.2
		c0,1.47,0,2.279,0.218,2.708c0.193,0.379,0.495,0.681,0.873,0.873C5.52,18,6.33,18,7.8,18h8.4c1.47,0,2.279,0,2.708-0.219
		c0.379-0.192,0.681-0.494,0.873-0.872C20,16.479,20,15.67,20,14.2V13H4z M4,11h16V6.8c0-0.103,0-0.203,0-0.3H4
		c0,0.097,0,0.197,0,0.3V11z M4.09,4.5h15.82c-0.031-0.164-0.072-0.298-0.128-0.408c-0.193-0.379-0.495-0.681-0.874-0.874
		C18.479,3,17.67,3,16.2,3H7.8C6.33,3,5.52,3,5.092,3.218C4.713,3.411,4.411,3.713,4.218,4.092C4.163,4.202,4.121,4.336,4.09,4.5z
		 M17.5,16.5H16c-0.553,0-1-0.447-1-1s0.447-1,1-1h1.5c0.553,0,1,0.447,1,1S18.053,16.5,17.5,16.5z M8,16.5H6.5
		c-0.552,0-1-0.447-1-1s0.448-1,1-1H8c0.552,0,1,0.447,1,1S8.552,16.5,8,16.5z"/>
</g>
</svg>
