<?xml version="1.0" encoding="iso-8859-1"?>
<!-- Generator: Adobe Illustrator 27.4.0, SVG Export Plug-In . SVG Version: 6.00 Build 0)  -->
<svg version="1.1" id="Layer_1" xmlns="http://www.w3.org/2000/svg" xmlns:xlink="http://www.w3.org/1999/xlink" x="0px" y="0px"
	 viewBox="0 0 24 24" style="enable-background:new 0 0 24 24;" xml:space="preserve">
<g>
	<path d="M12.5,23H7.8c-1.838,0-2.76,0-3.616-0.437c-0.757-0.385-1.362-0.989-1.748-1.747C2,19.96,2,19.037,2,17.2V8.8
		c0-1.838,0-2.76,0.436-3.616c0.386-0.757,0.991-1.362,1.748-1.748C4.906,3.068,5.674,3.011,7,3.001V2c0-0.552,0.448-1,1-1
		s1,0.448,1,1v1h6V2c0-0.552,0.447-1,1-1s1,0.448,1,1v1.001c1.325,0.009,2.094,0.067,2.816,0.435
		c0.758,0.386,1.362,0.991,1.748,1.749C22,6.04,22,6.962,22,8.8v2.7c0,0.552-0.447,1-1,1s-1-0.448-1-1V11H4v6.2
		c0,1.47,0,2.279,0.218,2.708c0.193,0.379,0.495,0.681,0.874,0.873C5.52,21,6.33,21,7.8,21h4.7c0.553,0,1,0.447,1,1
		S13.053,23,12.5,23z M4,9h16V8.8c0-1.47,0-2.28-0.218-2.708c-0.193-0.379-0.495-0.681-0.874-0.874
		C18.564,5.043,17.977,5.009,17,5.001V6c0,0.552-0.447,1-1,1s-1-0.448-1-1V5H9v1c0,0.552-0.448,1-1,1S7,6.552,7,6V5.001
		C6.023,5.009,5.435,5.043,5.092,5.218C4.713,5.411,4.411,5.713,4.218,6.092C4,6.52,4,7.33,4,8.8V9z M17.498,22
		c-0.228,0-0.454-0.077-0.64-0.231c-0.25-0.208-2.462-2.057-3.19-2.95c-0.5-0.611-0.732-1.372-0.653-2.142
		c0.08-0.783,0.474-1.499,1.108-2.016c0.992-0.809,2.319-0.866,3.377-0.231c1.048-0.62,2.367-0.564,3.362,0.223
		c0.638,0.506,1.036,1.214,1.121,1.995c0.084,0.778-0.148,1.55-0.656,2.171c-0.728,0.893-2.939,2.742-3.189,2.95
		C17.952,21.923,17.726,22,17.498,22z M15.96,15.999c-0.191,0-0.39,0.062-0.575,0.214c-0.22,0.179-0.354,0.415-0.381,0.667
		c-0.024,0.24,0.05,0.474,0.213,0.675c0.389,0.475,1.489,1.454,2.281,2.135c0.791-0.681,1.892-1.66,2.28-2.135
		c0.166-0.204,0.243-0.449,0.217-0.691c-0.027-0.248-0.156-0.47-0.375-0.643c-0.501-0.396-1.051-0.204-1.378,0.159
		c-0.189,0.211-0.46,0.332-0.744,0.332l0,0c-0.284,0-0.554-0.12-0.744-0.332C16.557,16.16,16.267,15.999,15.96,15.999z"/>
</g>
</svg>
