<?xml version="1.0" encoding="iso-8859-1"?>
<!-- Generator: Adobe Illustrator 27.4.0, SVG Export Plug-In . SVG Version: 6.00 Build 0)  -->
<svg version="1.1" id="Layer_1" xmlns="http://www.w3.org/2000/svg" xmlns:xlink="http://www.w3.org/1999/xlink" x="0px" y="0px"
	 viewBox="0 0 24 24" style="enable-background:new 0 0 24 24;" xml:space="preserve">
<g>
	<path d="M12.5,23H7.8c-1.838,0-2.76,0-3.616-0.437c-0.757-0.385-1.362-0.989-1.748-1.747C2,19.96,2,19.037,2,17.2V8.8
		c0-1.838,0-2.76,0.436-3.616c0.386-0.757,0.991-1.362,1.748-1.748C4.906,3.068,5.674,3.011,7,3.001V2c0-0.552,0.448-1,1-1
		s1,0.448,1,1v1h6V2c0-0.552,0.447-1,1-1s1,0.448,1,1v1.001c1.325,0.009,2.094,0.067,2.816,0.435
		c0.758,0.386,1.362,0.991,1.748,1.749C22,6.04,22,6.962,22,8.8v2.7c0,0.552-0.447,1-1,1s-1-0.448-1-1V11H4v6.2
		c0,1.47,0,2.279,0.218,2.708c0.193,0.379,0.495,0.681,0.873,0.873C5.52,21,6.33,21,7.8,21h4.7c0.553,0,1,0.447,1,1
		S13.053,23,12.5,23z M4,9h16V8.8c0-1.47,0-2.28-0.218-2.708c-0.193-0.379-0.495-0.681-0.874-0.874
		C18.564,5.043,17.977,5.009,17,5.001V6c0,0.552-0.447,1-1,1s-1-0.448-1-1V5H9v1c0,0.552-0.448,1-1,1S7,6.552,7,6V5.001
		C6.023,5.009,5.435,5.043,5.092,5.218C4.713,5.411,4.411,5.713,4.218,6.092C4,6.52,4,7.33,4,8.8V9z M18,22c-0.553,0-1-0.447-1-1v-2
		h-2c-0.553,0-1-0.447-1-1s0.447-1,1-1h2v-2c0-0.553,0.447-1,1-1s1,0.447,1,1v2h2c0.553,0,1,0.447,1,1s-0.447,1-1,1h-2v2
		C19,21.553,18.553,22,18,22z"/>
</g>
</svg>
