<?xml version="1.0" encoding="iso-8859-1"?>
<!-- Generator: Adobe Illustrator 27.4.0, SVG Export Plug-In . SVG Version: 6.00 Build 0)  -->
<svg version="1.1" id="Layer_1" xmlns="http://www.w3.org/2000/svg" xmlns:xlink="http://www.w3.org/1999/xlink" x="0px" y="0px"
	 viewBox="0 0 24 24" style="enable-background:new 0 0 24 24;" xml:space="preserve">
<g>
	<path d="M16.2,23H7.8c-1.838,0-2.76,0-3.616-0.437c-0.757-0.385-1.362-0.989-1.748-1.747C2,19.96,2,19.037,2,17.2V8.8
		c0-0.268,0-0.516,0.001-0.748C2,8.035,2,8.018,2,8c0-0.022,0.001-0.044,0.002-0.066c0.011-1.285,0.073-2.04,0.434-2.75
		c0.386-0.757,0.991-1.362,1.748-1.748C4.906,3.068,5.674,3.011,7,3.001V2c0-0.552,0.448-1,1-1s1,0.448,1,1v1h6V2
		c0-0.552,0.447-1,1-1s1,0.448,1,1v1.001c1.325,0.009,2.094,0.067,2.816,0.435c0.758,0.386,1.362,0.991,1.748,1.749
		c0.361,0.709,0.423,1.464,0.434,2.749C21.999,7.956,22,7.978,22,8c0,0.018,0,0.035-0.001,0.052C22,8.284,22,8.532,22,8.8v8.4
		c0,1.837,0,2.76-0.436,3.616c-0.386,0.758-0.99,1.362-1.749,1.748C18.96,23,18.037,23,16.2,23z M4,9v8.2
		c0,1.47,0,2.279,0.218,2.708c0.193,0.379,0.495,0.681,0.873,0.873C5.52,21,6.33,21,7.8,21h8.4c1.47,0,2.279,0,2.708-0.219
		c0.379-0.192,0.681-0.494,0.873-0.872C20,19.479,20,18.67,20,17.2V9H4z M4.031,7h15.938c-0.028-0.411-0.082-0.703-0.187-0.908
		c-0.193-0.379-0.495-0.681-0.874-0.874C18.564,5.043,17.977,5.009,17,5.001C16.999,5.553,16.552,6,16,6c-0.553,0-1-0.448-1-1H9
		c0,0.552-0.448,1-1,1C7.448,6,7.001,5.553,7,5.001C6.023,5.009,5.435,5.043,5.092,5.218C4.713,5.411,4.411,5.713,4.218,6.092
		C4.114,6.297,4.059,6.589,4.031,7z M11.995,19.341c-0.141,0-0.281-0.02-0.418-0.06c-0.318-0.095-0.516-0.267-0.745-0.466
		c-1.096-0.953-2.521-2.239-3.107-2.974c-1.128-1.411-0.909-3.432,0.498-4.602c1.111-0.923,2.605-0.973,3.777-0.218
		c1.163-0.738,2.649-0.69,3.761,0.209c1.429,1.154,1.652,3.18,0.51,4.61c-0.583,0.73-2.01,2.018-3.103,2.969
		c-0.234,0.204-0.433,0.376-0.743,0.469C12.283,19.32,12.139,19.341,11.995,19.341z M10.238,12.498
		c-0.245,0-0.499,0.083-0.738,0.281c-0.579,0.481-0.669,1.245-0.213,1.815c0.361,0.451,1.369,1.412,2.71,2.584
		c1.347-1.177,2.353-2.136,2.711-2.584c0.454-0.569,0.367-1.346-0.204-1.807c-0.631-0.509-1.354-0.253-1.756,0.204
		c-0.38,0.432-1.122,0.432-1.502,0C10.996,12.707,10.628,12.498,10.238,12.498z"/>
</g>
</svg>
