<?xml version="1.0" encoding="iso-8859-1"?>
<!-- Generator: Adobe Illustrator 27.4.0, SVG Export Plug-In . SVG Version: 6.00 Build 0)  -->
<svg version="1.1" id="Layer_1" xmlns="http://www.w3.org/2000/svg" xmlns:xlink="http://www.w3.org/1999/xlink" x="0px" y="0px"
	 viewBox="0 0 24 24" style="enable-background:new 0 0 24 24;" xml:space="preserve">
<g>
	<path d="M22,23c-0.256,0-0.512-0.098-0.707-0.293L19.886,21.3c-0.021-0.019-0.041-0.039-0.061-0.061l-5.395-5.395
		c-0.004-0.003-0.007-0.005-0.01-0.008c-0.048-0.041-0.092-0.085-0.131-0.133l-5.508-5.507c-0.04-0.034-0.078-0.072-0.113-0.113
		L1.293,2.707c-0.391-0.391-0.391-1.023,0-1.414s1.023-0.391,1.414,0L5.419,4c0.103,0,0.155,0.001,0.204-0.002
		c0.38-0.023,0.72-0.269,0.864-0.625c0.017-0.042,0.032-0.091,0.064-0.188C6.603,3.029,6.63,2.952,6.657,2.882
		C7.088,1.812,8.109,1.075,9.26,1.005C9.337,1.001,9.418,1,9.581,1h4.838c0.163,0,0.243,0.001,0.317,0.005
		c1.154,0.07,2.176,0.807,2.605,1.876c0.028,0.071,0.056,0.148,0.107,0.304c0.032,0.097,0.048,0.146,0.065,0.189
		c0.143,0.355,0.482,0.601,0.866,0.624C18.426,4.001,18.483,4.001,18.595,4c0.421,0,0.632,0.003,0.8,0.02
		c1.891,0.188,3.399,1.696,3.586,3.586C22.997,7.774,23,7.976,23,8.377V18c0,0.981-0.35,1.9-0.97,2.616l0.677,0.677
		c0.391,0.391,0.391,1.023,0,1.414C22.512,22.902,22.256,23,22,23z M16.36,14.946l4.247,4.247C20.859,18.854,21,18.439,21,18V8.377
		c0-0.299,0.003-0.449-0.01-0.575c-0.094-0.945-0.848-1.699-1.793-1.793C19.07,5.998,18.914,6.001,18.595,6
		c-0.172,0-0.258-0.001-0.331-0.005c-1.154-0.07-2.176-0.807-2.605-1.876c-0.028-0.071-0.056-0.148-0.107-0.304
		c-0.032-0.097-0.048-0.146-0.065-0.189c-0.143-0.355-0.482-0.601-0.866-0.624C14.576,2.999,14.524,3,14.419,3H9.581
		C9.477,2.999,9.425,2.999,9.377,3.002c-0.38,0.023-0.72,0.269-0.864,0.625C8.497,3.668,8.481,3.718,8.449,3.815
		C8.397,3.971,8.37,4.048,8.343,4.118c-0.259,0.643-0.73,1.166-1.315,1.496l2.526,2.526C10.296,7.723,11.139,7.5,12,7.5
		c2.757,0,5,2.243,5,5C17,13.361,16.777,14.204,16.36,14.946z M11.064,9.65l3.787,3.786C14.948,13.136,15,12.82,15,12.5
		c0-1.654-1.346-3-3-3C11.68,9.5,11.364,9.551,11.064,9.65z M15.5,22H6.8c-1.838,0-2.76,0-3.616-0.437
		c-0.757-0.385-1.362-0.989-1.748-1.747C1,18.96,1,18.037,1,16.2V7.5c0-0.552,0.448-1,1-1s1,0.448,1,1v8.7
		c0,1.47,0,2.279,0.218,2.708c0.193,0.379,0.495,0.681,0.873,0.873C4.52,20,5.33,20,6.8,20h8.7c0.553,0,1,0.447,1,1
		S16.053,22,15.5,22z M12,17.5c-2.757,0-5-2.243-5-5c0-0.552,0.448-1,1-1s1,0.448,1,1c0,1.654,1.346,3,3,3c0.552,0,1,0.447,1,1
		S12.552,17.5,12,17.5z"/>
</g>
</svg>
