<?xml version="1.0" encoding="iso-8859-1"?>
<!-- Generator: Adobe Illustrator 27.4.0, SVG Export Plug-In . SVG Version: 6.00 Build 0)  -->
<svg version="1.1" id="Layer_1" xmlns="http://www.w3.org/2000/svg" xmlns:xlink="http://www.w3.org/1999/xlink" x="0px" y="0px"
	 viewBox="0 0 24 24" style="enable-background:new 0 0 24 24;" xml:space="preserve">
<g>
	<path d="M15.6,22H8.4c-2.397,0-3.6,0-4.669-0.544c-0.947-0.483-1.703-1.238-2.186-2.186C1,18.2,1,16.997,1,14.6V9.4
		c0-2.397,0-3.601,0.545-4.67C2.027,3.783,2.783,3.027,3.73,2.545C4.799,2,6.002,2,8.4,2h4.1c0.553,0,1,0.448,1,1s-0.447,1-1,1H8.4
		C6.322,4,5.28,4,4.638,4.327C4.07,4.616,3.616,5.07,3.327,5.638C3,6.28,3,7.322,3,9.4v5.2c0,2.077,0,3.12,0.327,3.763
		c0.29,0.568,0.743,1.021,1.311,1.312C5.279,20,6.322,20,8.4,20h7.2c2.078,0,3.121,0,3.764-0.327
		c0.566-0.289,1.021-0.743,1.311-1.312C21,17.721,21,16.678,21,14.6v-3.1c0-0.552,0.447-1,1-1s1,0.448,1,1v3.1
		c0,2.396,0,3.6-0.544,4.67c-0.483,0.947-1.239,1.703-2.185,2.186C19.199,22,17.996,22,15.6,22z M12,17c-2.757,0-5-2.243-5-5
		s2.243-5,5-5s5,2.243,5,5S14.757,17,12,17z M12,9c-1.654,0-3,1.346-3,3s1.346,3,3,3s3-1.346,3-3S13.654,9,12,9z M19,9
		c-0.553,0-1-0.448-1-1V6h-2c-0.553,0-1-0.448-1-1s0.447-1,1-1h2V2c0-0.552,0.447-1,1-1s1,0.448,1,1v2h2c0.553,0,1,0.448,1,1
		s-0.447,1-1,1h-2v2C20,8.552,19.553,9,19,9z"/>
</g>
</svg>
