<?xml version="1.0" encoding="iso-8859-1"?>
<!-- Generator: Adobe Illustrator 27.4.0, SVG Export Plug-In . SVG Version: 6.00 Build 0)  -->
<svg version="1.1" id="Layer_1" xmlns="http://www.w3.org/2000/svg" xmlns:xlink="http://www.w3.org/1999/xlink" x="0px" y="0px"
	 viewBox="0 0 24 24" style="enable-background:new 0 0 24 24;" xml:space="preserve">
<g>
	<path d="M17.2,22H6.8c-1.838,0-2.76,0-3.616-0.437c-0.757-0.385-1.362-0.989-1.748-1.747C1,18.96,1,18.037,1,16.2V7.702
		C1,5.661,2.661,4,4.702,4c0.346,0,0.651-0.22,0.76-0.548l0.089-0.268C5.603,3.029,5.63,2.952,5.657,2.882
		C6.088,1.812,7.109,1.075,8.26,1.005C8.337,1.001,8.418,1,8.581,1h6.838c0.163,0,0.243,0.001,0.317,0.005
		c1.154,0.07,2.176,0.807,2.605,1.876c0.028,0.071,0.056,0.148,0.107,0.304l0.089,0.266C18.647,3.78,18.953,4,19.298,4
		C21.339,4,23,5.661,23,7.702V16.2c0,1.837,0,2.76-0.436,3.616c-0.386,0.758-0.99,1.362-1.749,1.748C19.96,22,19.037,22,17.2,22z
		 M8.479,3C8.437,3,8.406,3,8.377,3.002c-0.38,0.023-0.72,0.269-0.864,0.625C7.497,3.668,7.481,3.718,7.449,3.815l-0.09,0.27
		C6.978,5.23,5.91,6,4.702,6C3.763,6,3,6.763,3,7.702V16.2c0,1.47,0,2.279,0.218,2.708c0.193,0.379,0.495,0.681,0.873,0.873
		C4.52,20,5.33,20,6.8,20h10.4c1.47,0,2.279,0,2.708-0.219c0.379-0.192,0.681-0.494,0.873-0.872C21,18.479,21,17.67,21,16.2V7.702
		C21,6.763,20.236,6,19.298,6c-1.207,0-2.274-0.77-2.656-1.915l-0.09-0.268c-0.033-0.1-0.049-0.149-0.066-0.192
		c-0.143-0.355-0.482-0.601-0.866-0.624C15.576,2.999,15.523,3,15.419,3H8.581C8.54,3,8.507,3,8.479,3z"/>
</g>
<g>
	<path d="M12,17.5c-3.033,0-5.5-2.468-5.5-5.5c0-3.033,2.467-5.5,5.5-5.5c3.032,0,5.5,2.467,5.5,5.5
		C17.5,15.032,15.032,17.5,12,17.5z M12,8.5c-1.93,0-3.5,1.57-3.5,3.5s1.57,3.5,3.5,3.5s3.5-1.57,3.5-3.5S13.93,8.5,12,8.5z"/>
</g>
</svg>
