<?xml version="1.0" encoding="iso-8859-1"?>
<!-- Generator: Adobe Illustrator 27.4.0, SVG Export Plug-In . SVG Version: 6.00 Build 0)  -->
<svg version="1.1" id="Layer_1" xmlns="http://www.w3.org/2000/svg" xmlns:xlink="http://www.w3.org/1999/xlink" x="0px" y="0px"
	 viewBox="0 0 24 24" style="enable-background:new 0 0 24 24;" xml:space="preserve">
<g>
	<path d="M12,22.995c-2.817,0-5.634-1.072-7.778-3.217c-4.289-4.289-4.289-11.268,0-15.557c4.29-4.289,11.269-4.289,15.557,0l0,0
		c4.289,4.289,4.289,11.268,0,15.557C17.634,21.923,14.817,22.995,12,22.995z M5.371,18.088c0.086,0.094,0.174,0.186,0.265,0.276
		c1.412,1.412,3.181,2.256,5.019,2.531c-1.848-1.734-3-4.122-3.167-6.737c-0.225-0.469-0.375-0.971-0.443-1.493
		C5.878,14.199,5.26,16.131,5.371,18.088z M10.081,16.62c0.735,1.782,2.091,3.268,3.872,4.164c1.618-0.357,3.156-1.164,4.412-2.42
		c0.241-0.241,0.466-0.493,0.674-0.754c-2.429,0.736-5.077,0.54-7.43-0.625C11.077,16.944,10.563,16.82,10.081,16.62z M15.054,15.96
		c1.912,0.244,3.893-0.188,5.532-1.264c0.611-1.959,0.539-4.089-0.218-6.009c-0.586,2.476-2.09,4.706-4.244,6.143
		c-0.173,0.25-0.369,0.486-0.589,0.705C15.383,15.688,15.222,15.83,15.054,15.96z M3.415,9.302c-0.61,1.952-0.541,4.073,0.207,5.986
		c0.577-2.47,2.07-4.664,4.253-6.118c0.172-0.25,0.369-0.486,0.589-0.706C8.617,8.312,8.778,8.17,8.946,8.04
		C7.035,7.796,5.056,8.228,3.415,9.302z M11.99,9c-0.797,0.002-1.547,0.314-2.111,0.878C9.312,10.445,9,11.199,9,12
		s0.312,1.555,0.878,2.121c1.134,1.133,3.11,1.133,4.243,0c0.126-0.126,0.239-0.261,0.339-0.403
		c0.039-0.088,0.091-0.171,0.155-0.245C14.866,13.028,15,12.524,15,12c0-0.449-0.099-0.884-0.284-1.279
		c-0.054-0.074-0.097-0.155-0.128-0.242c-0.128-0.217-0.284-0.418-0.467-0.601l0,0c-0.513-0.512-1.178-0.816-1.893-0.87
		C12.149,9.015,12.07,9.012,11.99,9z M16.514,9.842c0.225,0.469,0.374,0.972,0.443,1.494c1.166-1.534,1.783-3.464,1.671-5.425
		c-0.085-0.093-0.174-0.185-0.264-0.275c-1.418-1.418-3.196-2.263-5.043-2.535C15.168,4.846,16.345,7.26,16.514,9.842z
		 M12.391,7.015c0.525,0.041,1.034,0.162,1.511,0.358c-0.744-1.774-2.105-3.272-3.855-4.156C8.429,3.574,6.892,4.38,5.636,5.636
		C5.388,5.883,5.158,6.142,4.945,6.41C7.383,5.681,10.068,5.868,12.391,7.015z"/>
</g>
</svg>
