<?xml version="1.0" encoding="iso-8859-1"?>
<!-- Generator: Adobe Illustrator 27.4.0, SVG Export Plug-In . SVG Version: 6.00 Build 0)  -->
<svg version="1.1" id="Layer_1" xmlns="http://www.w3.org/2000/svg" xmlns:xlink="http://www.w3.org/1999/xlink" x="0px" y="0px"
	 viewBox="0 0 24 24" style="enable-background:new 0 0 24 24;" xml:space="preserve">
<g>
	<path d="M17.2,22H6.8c-1.838,0-2.76,0-3.616-0.437c-0.757-0.385-1.362-0.989-1.748-1.747C1,18.96,1,18.037,1,16.2V8.377
		c0-0.402,0.003-0.603,0.02-0.772c0.188-1.89,1.696-3.398,3.586-3.586C4.773,4.003,4.984,4,5.406,4C5.52,4,5.574,4.001,5.623,3.998
		c0.38-0.023,0.72-0.269,0.864-0.625c0.017-0.042,0.032-0.091,0.064-0.188C6.603,3.029,6.63,2.952,6.657,2.882
		C7.088,1.812,8.109,1.075,9.26,1.005C9.337,1.001,9.418,1,9.581,1h4.838c0.163,0,0.243,0.001,0.317,0.005
		c1.154,0.07,2.176,0.807,2.605,1.876c0.028,0.071,0.056,0.148,0.107,0.304c0.032,0.097,0.048,0.146,0.065,0.189
		c0.143,0.355,0.482,0.601,0.866,0.624C18.426,4.001,18.483,4.001,18.595,4c0.421,0,0.632,0.003,0.8,0.02
		c1.891,0.188,3.399,1.696,3.586,3.586C22.997,7.774,23,7.976,23,8.377V16.2c0,1.837,0,2.76-0.436,3.616
		c-0.386,0.758-0.99,1.362-1.749,1.748C19.96,22,19.037,22,17.2,22z M5.152,6c-0.16,0-0.262,0.001-0.35,0.01
		C3.857,6.104,3.104,6.857,3.01,7.803C2.997,7.929,3,8.078,3,8.377V16.2c0,1.47,0,2.279,0.218,2.708
		c0.193,0.379,0.495,0.681,0.873,0.873C4.52,20,5.33,20,6.8,20h10.4c1.47,0,2.279,0,2.708-0.219
		c0.379-0.192,0.681-0.494,0.873-0.872C21,18.479,21,17.67,21,16.2V8.377c0-0.299,0.003-0.449-0.01-0.575
		c-0.094-0.945-0.848-1.699-1.793-1.793C19.07,5.998,18.914,6.001,18.595,6c-0.172,0-0.258-0.001-0.331-0.005
		c-1.154-0.07-2.176-0.807-2.605-1.876c-0.028-0.071-0.056-0.148-0.107-0.304c-0.032-0.097-0.048-0.146-0.065-0.189
		c-0.143-0.355-0.482-0.601-0.866-0.624C14.576,2.999,14.524,3,14.419,3H9.581C9.477,2.999,9.425,2.999,9.377,3.002
		c-0.38,0.023-0.72,0.269-0.864,0.625C8.497,3.668,8.481,3.718,8.449,3.815C8.397,3.971,8.37,4.048,8.343,4.118
		C7.912,5.188,6.891,5.925,5.74,5.995C5.664,5.999,5.577,6,5.406,6C5.307,6,5.224,6,5.152,6z"/>
</g>
<g>
	<path d="M12,17.5c-2.757,0-5-2.243-5-5s2.243-5,5-5s5,2.243,5,5S14.757,17.5,12,17.5z M12,9.5c-1.654,0-3,1.346-3,3s1.346,3,3,3
		s3-1.346,3-3S13.654,9.5,12,9.5z"/>
</g>
</svg>
