<?xml version="1.0" encoding="iso-8859-1"?>
<!-- Generator: Adobe Illustrator 27.4.0, SVG Export Plug-In . SVG Version: 6.00 Build 0)  -->
<svg version="1.1" id="Layer_1" xmlns="http://www.w3.org/2000/svg" xmlns:xlink="http://www.w3.org/1999/xlink" x="0px" y="0px"
	 viewBox="0 0 24 24" style="enable-background:new 0 0 24 24;" xml:space="preserve">
<g>
	<path d="M19,23H5c-1.654,0-3-1.445-3-3.223V4.222C2,2.445,3.346,1,5,1h14c1.654,0,3,1.445,3,3.222v15.555
		C22,21.555,20.654,23,19,23z M5,3C4.449,3,4,3.548,4,4.222v15.555C4,20.451,4.449,21,5,21h14c0.552,0,1-0.549,1-1.223V4.222
		C20,3.548,19.552,3,19,3H5z M15,19.5H9c-0.552,0-1-0.447-1-1s0.448-1,1-1h6c0.553,0,1,0.447,1,1S15.553,19.5,15,19.5z M17,16H7
		c-0.552,0-1-0.447-1-1s0.448-1,1-1h10c0.553,0,1,0.447,1,1S17.553,16,17,16z M11.998,12.5c-0.227,0-0.454-0.077-0.64-0.231
		c-0.25-0.208-2.462-2.057-3.19-2.949C7.663,8.7,7.432,7.931,7.517,7.153c0.085-0.774,0.478-1.481,1.105-1.992
		C9.616,4.354,10.943,4.296,12,4.929c1.047-0.618,2.367-0.564,3.361,0.223C16,5.658,16.398,6.366,16.483,7.147
		c0.084,0.778-0.148,1.55-0.655,2.172c-0.729,0.893-2.941,2.742-3.191,2.95C12.452,12.423,12.225,12.5,11.998,12.5z M10.459,6.499
		c-0.191,0-0.389,0.062-0.575,0.214c-0.217,0.177-0.352,0.411-0.379,0.66C9.479,7.616,9.552,7.852,9.717,8.055
		c0.388,0.475,1.489,1.454,2.28,2.134c0.792-0.68,1.892-1.659,2.281-2.135c0.166-0.204,0.243-0.449,0.217-0.691
		c-0.027-0.248-0.157-0.47-0.375-0.643c-0.501-0.397-1.053-0.205-1.378,0.159c-0.38,0.423-1.108,0.423-1.488,0
		C11.056,6.66,10.766,6.499,10.459,6.499z"/>
</g>
</svg>
