<?xml version="1.0" encoding="iso-8859-1"?>
<!-- Generator: Adobe Illustrator 27.4.0, SVG Export Plug-In . SVG Version: 6.00 Build 0)  -->
<svg version="1.1" id="Layer_1" xmlns="http://www.w3.org/2000/svg" xmlns:xlink="http://www.w3.org/1999/xlink" x="0px" y="0px"
	 viewBox="0 0 24 24" style="enable-background:new 0 0 24 24;" xml:space="preserve">
<g>
	<path d="M15.192,23.192c-0.256,0-0.512-0.098-0.707-0.293l-2.475-2.475l-2.475,2.475c-0.391,0.391-1.023,0.391-1.414,0L6.222,21H5
		c-1.654,0-3-1.346-3-3V4c0-1.654,1.346-3,3-3h14c1.654,0,3,1.346,3,3v14c0,1.654-1.346,3-3,3h-1.2l-1.9,1.899
		C15.704,23.095,15.448,23.192,15.192,23.192z M13.922,19.508l1.271,1.271l1.415-1.414l-1.228-1.228
		C15.018,18.708,14.516,19.181,13.922,19.508z M7.414,19.364l1.415,1.414l1.264-1.264c-0.596-0.324-1.1-0.795-1.464-1.364
		L7.414,19.364z M18.953,19H19c0.552,0,1-0.448,1-1V4c0-0.551-0.448-1-1-1H5C4.449,3,4,3.449,4,4v14c0,0.552,0.449,1,1,1h0.069
		c0.05-0.127,0.125-0.244,0.224-0.343L8,15.95C8.027,13.768,9.811,12,12,12c2.182,0,3.961,1.756,3.999,3.928l2.729,2.729
		C18.827,18.756,18.903,18.873,18.953,19z M12,14c-1.103,0-2,0.897-2,2s0.897,2,2,2c1.103,0,2-0.897,2-2S13.103,14,12,14z M17,10.5
		H7c-0.552,0-1-0.448-1-1s0.448-1,1-1h10c0.553,0,1,0.448,1,1S17.553,10.5,17,10.5z M15,7H9C8.448,7,8,6.552,8,6s0.448-1,1-1h6
		c0.553,0,1,0.448,1,1S15.553,7,15,7z"/>
</g>
</svg>
