<?xml version="1.0" encoding="iso-8859-1"?>
<!-- Generator: Adobe Illustrator 27.4.0, SVG Export Plug-In . SVG Version: 6.00 Build 0)  -->
<svg version="1.1" id="Layer_1" xmlns="http://www.w3.org/2000/svg" xmlns:xlink="http://www.w3.org/1999/xlink" x="0px" y="0px"
	 viewBox="0 0 24 24" style="enable-background:new 0 0 24 24;" xml:space="preserve">
<g>
	<path d="M12,23C5.935,23,1,18.065,1,12C1,6.321,5.256,1.615,10.901,1.054c0.548-0.06,1.039,0.347,1.094,0.896
		C12.05,2.5,11.648,2.99,11.099,3.044C6.482,3.503,3,7.353,3,12c0,0.112,0.002,0.224,0.006,0.335C3.662,12.445,4.33,12.5,5,12.5
		c3.194,0,6.238-1.281,8.47-3.5H12c-0.552,0-1-0.448-1-1s0.448-1,1-1h3.608c0.008,0,0.018,0,0.025,0H16c0.553,0,1,0.448,1,1v4
		c0,0.552-0.447,1-1,1s-1-0.448-1-1v-1.703C12.386,12.96,8.784,14.5,5,14.5c-0.561,0-1.121-0.033-1.675-0.1
		C4.378,18.201,7.869,21,12,21c4.647,0,8.497-3.481,8.955-8.099c0.054-0.549,0.552-0.95,1.094-0.896
		c0.55,0.055,0.951,0.544,0.896,1.094C22.386,18.743,17.681,23,12,23z M22.011,9.5h-1.5c-0.553,0-1-0.448-1-1s0.447-1,1-1h1.5
		c0.553,0,1,0.448,1,1S22.563,9.5,22.011,9.5z M19.439,5.561c-0.256,0-0.512-0.098-0.707-0.293c-0.391-0.391-0.391-1.023,0-1.414
		l1.061-1.061c0.391-0.391,1.023-0.391,1.414,0s0.391,1.023,0,1.414l-1.061,1.061C19.951,5.463,19.695,5.561,19.439,5.561z
		 M15.5,4.5c-0.553,0-1-0.448-1-1V2c0-0.552,0.447-1,1-1s1,0.448,1,1v1.5C16.5,4.052,16.053,4.5,15.5,4.5z"/>
</g>
</svg>
