<?xml version="1.0" encoding="iso-8859-1"?>
<!-- Generator: Adobe Illustrator 27.4.0, SVG Export Plug-In . SVG Version: 6.00 Build 0)  -->
<svg version="1.1" id="Layer_1" xmlns="http://www.w3.org/2000/svg" xmlns:xlink="http://www.w3.org/1999/xlink" x="0px" y="0px"
	 viewBox="0 0 24 24" style="enable-background:new 0 0 24 24;" xml:space="preserve">
<g>
	<path d="M16.2,22H7.8c-1.838,0-2.76,0-3.616-0.437c-0.757-0.385-1.362-0.989-1.748-1.747C2,18.96,2,18.037,2,16.2v-2.835
		c0-0.012,0-0.023,0-0.034V7.8c0-1.838,0-2.76,0.436-3.616c0.386-0.757,0.991-1.362,1.748-1.748C5.04,2,5.962,2,7.8,2H11
		c0.552,0,1,0.448,1,1s-0.448,1-1,1H7.8C6.33,4,5.52,4,5.092,4.218C4.713,4.411,4.411,4.713,4.218,5.092C4,5.52,4,6.33,4,7.8v4.659
		c3.491,0.287,7.004-1.008,9.47-3.459H12c-0.552,0-1-0.448-1-1s0.448-1,1-1h3.608c0.008,0,0.018,0,0.025,0H16c0.553,0,1,0.448,1,1v4
		c0,0.552-0.447,1-1,1s-1-0.448-1-1v-1.703c-2.844,2.898-6.907,4.455-11,4.168V16.2c0,1.47,0,2.279,0.218,2.708
		c0.193,0.379,0.495,0.681,0.873,0.873C5.52,20,6.33,20,7.8,20h8.4c1.47,0,2.279,0,2.708-0.219c0.379-0.192,0.681-0.494,0.873-0.872
		C20,18.479,20,17.67,20,16.2V13c0-0.552,0.447-1,1-1s1,0.448,1,1v3.2c0,1.837,0,2.76-0.436,3.616
		c-0.386,0.758-0.99,1.362-1.749,1.748C18.96,22,18.037,22,16.2,22z M22.011,9.5h-1.5c-0.553,0-1-0.448-1-1s0.447-1,1-1h1.5
		c0.553,0,1,0.448,1,1S22.563,9.5,22.011,9.5z M19.439,5.561c-0.256,0-0.512-0.098-0.707-0.293c-0.391-0.391-0.391-1.023,0-1.414
		l1.061-1.061c0.391-0.391,1.023-0.391,1.414,0s0.391,1.023,0,1.414l-1.061,1.061C19.951,5.463,19.695,5.561,19.439,5.561z
		 M15.5,4.5c-0.553,0-1-0.448-1-1V2c0-0.552,0.447-1,1-1s1,0.448,1,1v1.5C16.5,4.052,16.053,4.5,15.5,4.5z"/>
</g>
</svg>
