<svg width="19" height="18" viewBox="0 0 19 18" xmlns="http://www.w3.org/2000/svg">
<path d="M10.008 0C15.12 0 18.99 4.19129 18.99 8.98648C18.99 14.5478 14.454 18 9.98999 18C8.51399 18 6.87599 17.6034 5.56199 16.8282C5.10299 16.5488 4.71599 16.3415 4.22099 16.5038L2.40299 17.0446C1.94399 17.1888 1.52999 16.8282 1.66499 16.3415L2.26799 14.3225C2.36699 14.0431 2.34899 13.7456 2.20499 13.5113C1.43099 12.0871 0.98999 10.5278 0.98999 9.01352C0.98999 4.27241 4.77899 0 10.008 0ZM14.121 7.8688C13.482 7.8688 12.969 8.38257 12.969 9.02253C12.969 9.65348 13.482 10.1763 14.121 10.1763C14.76 10.1763 15.273 9.65348 15.273 9.02253C15.273 8.38257 14.76 7.8688 14.121 7.8688ZM9.97199 7.8688C9.34199 7.85979 8.81999 8.38257 8.81999 9.01352C8.81999 9.65348 9.33299 10.1673 9.97199 10.1763C10.611 10.1763 11.124 9.65348 11.124 9.02253C11.124 8.38257 10.611 7.8688 9.97199 7.8688ZM5.82299 7.8688C5.18399 7.8688 4.67099 8.38257 4.67099 9.02253C4.67099 9.65348 5.19299 10.1763 5.82299 10.1763C6.46199 10.1673 6.97499 9.65348 6.97499 9.02253C6.97499 8.38257 6.46199 7.8688 5.82299 7.8688Z" />
</svg>
