<svg width="214" height="213" viewBox="0 0 214 213" fill="none" xmlns="http://www.w3.org/2000/svg">
<g id="Asset 1 5" clip-path="url(#clip0_11259_1141)">
<g id="&#226;&#128;&#148;&#195;&#142;&#195;&#147;&#195;&#136;_1">
<g id="Group">
<path id="Vector" d="M29.2446 116.473C27.8069 116.473 27.8048 118.704 29.2446 118.704C30.6844 118.704 30.6844 116.473 29.2446 116.473Z" fill="#98A2B3"/>
<path id="Vector_2" d="M171.378 98.1722C172.719 98.1722 172.721 96.0898 171.378 96.0898C170.034 96.0898 170.034 98.1722 171.378 98.1722Z" fill="#98A2B3"/>
<path id="Vector_3" d="M87.8655 39.1779C88.5366 39.1779 88.5377 38.1367 87.8655 38.1367C87.1933 38.1367 87.1933 39.1779 87.8655 39.1779Z" fill="#98A2B3"/>
<path id="Vector_4" d="M171.509 174.088C172.18 174.088 172.181 173.047 171.509 173.047C170.837 173.047 170.837 174.088 171.509 174.088Z" fill="#98A2B3"/>
<path id="Vector_5" d="M96.8618 17.9761C96.7515 17.5747 97.2731 17.3692 97.5626 17.4137C97.8054 17.4507 98.0386 17.6446 98.2114 17.7982C98.521 18.0735 98.749 18.4241 99.0469 18.7101C99.4827 19.1285 100.168 19.4769 100.752 19.1295C101.409 18.7387 101.766 17.6245 102.106 16.9879C102.524 16.202 102.917 15.4034 103.301 14.5995C103.833 15.0157 104.323 15.4743 104.771 15.987C105.256 16.5399 105.68 17.2601 106.317 17.6456C106.503 17.759 106.824 17.617 106.793 17.3724C106.689 16.5388 106.066 15.845 105.502 15.2561C104.852 14.5762 104.123 13.9682 103.362 13.4174C103.155 13.2681 102.794 13.3729 102.683 13.5954C102.117 14.734 101.532 15.863 100.937 16.9868C100.759 17.3236 100.462 18.3479 99.9693 18.2398C99.5823 18.1551 99.1243 17.4147 98.8402 17.1669C98.2984 16.6956 97.6198 16.3863 96.9148 16.667C96.2839 16.918 95.8789 17.5175 96.0857 18.189C96.2362 18.6805 96.9964 18.476 96.8586 17.9761H96.8618Z" fill="#98A2B3"/>
<path id="Vector_6" d="M46.1104 9.90579C47.1886 10.3824 48.5998 9.90261 49.273 8.9663C49.9664 8.0014 49.4851 6.74733 48.4058 6.33002C47.3445 5.91906 45.9948 6.59905 45.7064 7.69847C45.6576 7.88383 45.8835 8.00563 46.0202 7.88065C46.5387 7.40508 47.0593 6.80983 47.8407 6.87973C48.8648 6.97082 49.272 8.0946 48.5584 8.81167C47.9859 9.38786 46.9776 9.68548 46.2249 9.29359C45.8623 9.104 45.5696 8.746 45.4679 8.34881C45.3544 7.90289 45.5983 7.49405 45.7615 7.09263C45.8665 6.83419 45.4201 6.64354 45.3067 6.90091C45.0374 7.51206 44.7639 8.02364 44.9844 8.69622C45.1615 9.23428 45.5961 9.67913 46.1093 9.90579H46.1104Z" fill="#98A2B3"/>
<path id="Vector_7" d="M99.3065 177.665C98.4318 176.407 96.7068 177.687 95.8257 178.223C95.5586 178.386 94.8821 178.985 94.598 178.777C94.4241 178.65 94.3467 177.689 94.2948 177.463C94.1389 176.789 94.0605 175.935 93.6056 175.376C93.2335 174.918 92.6726 174.787 92.1361 175.044C91.288 175.45 90.5076 176.18 89.7421 176.723C89.405 176.962 89.8195 177.558 90.1652 177.32C90.813 176.878 91.5 176.246 92.2188 175.927C92.8603 175.642 92.9918 175.92 93.1222 176.435C93.2144 176.796 93.2653 177.171 93.3353 177.538C93.4975 178.385 93.5685 180.402 94.9511 179.918C95.5904 179.694 96.1915 179.189 96.764 178.832C97.2189 178.549 98.2282 177.671 98.6269 178.419C98.7901 178.726 98.7615 179.3 98.8135 179.654C98.876 180.081 98.9354 180.507 98.9948 180.934C99.1125 181.777 99.1612 182.668 99.3892 183.488C99.5312 183.998 100.399 184 100.376 183.406C100.339 182.415 100.085 181.415 99.9172 180.438C99.7751 179.609 99.8016 178.376 99.3065 177.665Z" fill="#98A2B3"/>
<path id="Vector_8" d="M133.769 156.513C133.793 156.764 134.018 156.746 134.095 156.577C134.168 156.418 134.241 156.26 134.315 156.107C134.495 156.7 134.862 157.195 135.311 157.374C136.275 157.759 137.996 157.043 138.069 155.217C138.206 151.807 133.416 152.945 133.768 156.513H133.769ZM137.243 155.453C137.125 155.933 136.649 156.212 136.359 156.335C136.055 156.464 135.692 156.534 135.383 156.393C135.05 156.241 134.76 155.765 134.782 155.269C135.204 154.633 135.712 154.222 136.437 154.342C136.747 154.394 137.445 154.643 137.244 155.452L137.243 155.453Z" fill="#98A2B3"/>
<path id="Vector_9" d="M139.869 121.079C141.307 121.079 141.309 118.848 139.869 118.848C138.429 118.848 138.429 121.079 139.869 121.079Z" fill="#98A2B3"/>
<path id="Vector_10" d="M195.611 74.2933C196.953 74.2933 196.955 72.2109 195.611 72.2109C194.268 72.2109 194.268 74.2933 195.611 74.2933Z" fill="#98A2B3"/>
<path id="Vector_11" d="M173.708 7.45403C174.02 7.09073 174.328 6.72637 174.642 6.3652C174.988 5.96589 175.583 5.00204 176.07 5.78689C176.564 6.58127 176.829 7.64785 177.181 8.51638C177.314 8.8426 177.652 8.94111 177.93 8.71444C178.876 7.94125 179.812 7.1564 180.748 6.37155C181.088 7.07696 181.365 7.80567 181.565 8.56722C181.798 9.45375 181.846 10.3763 182.115 11.2522C182.272 11.7638 182.968 11.6335 183.013 11.1304C183.183 9.23132 182.152 7.07696 181.288 5.42994C181.141 5.15138 180.788 5.16197 180.576 5.3378C179.636 6.11947 178.695 6.90114 177.761 7.69022C177.493 7.15216 177.225 6.61516 176.957 6.0771C176.735 5.63331 176.499 4.93107 175.958 4.76478C175.57 4.6451 175.29 4.876 175.047 5.15244C174.48 5.79748 173.964 6.49865 173.414 7.16169C173.246 7.36506 173.533 7.65951 173.708 7.45509V7.45403Z" fill="#98A2B3"/>
<path id="Vector_12" d="M150.499 56.6626C150.763 57.0609 151.277 57.0905 151.631 56.7876C152.017 56.4582 152.06 55.8841 151.735 55.4986C151.449 55.1596 150.746 54.9446 150.451 55.3831C150.365 55.5102 150.422 55.6585 150.53 55.7422C150.304 55.99 150.316 56.3883 150.498 56.6626H150.499ZM151.143 55.8873C151.309 55.9816 151.374 56.1298 151.267 56.3025C151.001 56.7293 150.513 56.2283 150.824 55.9328C150.859 55.9 150.875 55.8629 150.877 55.8259C150.967 55.8301 151.056 55.8375 151.143 55.8862V55.8873Z" fill="#98A2B3"/>
<path id="Vector_13" d="M48.6116 150.81C48.2076 150.825 47.8397 151.07 47.6256 151.406C47.5036 151.597 47.4061 151.861 47.4008 152.113C47.1379 152.461 47.2312 153.043 47.6097 153.313C48.3296 153.827 49.4322 153.172 49.781 152.487C50.1956 151.675 49.4746 150.775 48.6105 150.81H48.6116ZM49.1947 152.011C49.2414 152.384 48.6763 152.762 48.3826 152.861C48.1726 152.932 47.9161 152.966 47.7592 152.782C47.7305 152.749 47.7072 152.705 47.6892 152.659C47.7729 152.673 47.8609 152.644 47.9087 152.554C48.0677 152.253 48.0846 151.911 48.4048 151.709C48.6688 151.541 49.1491 151.645 49.1947 152.011Z" fill="#98A2B3"/>
<path id="Vector_14" d="M194.597 150.852C194.945 150.385 194.801 149.791 194.78 149.24C194.756 148.584 194.729 147.924 194.791 147.268C194.829 146.856 194.121 146.755 194.06 147.17C193.96 147.861 193.827 148.542 193.78 149.24C193.741 149.835 193.652 150.461 194.091 150.917C194.248 151.08 194.477 151.012 194.597 150.852Z" fill="#98A2B3"/>
<path id="Vector_15" d="M190.519 153.009C191.067 153.02 191.617 153.026 192.165 153.021C192.502 153.017 193.075 152.974 193.073 152.505C193.071 152.077 192.561 152.032 192.251 152.047C191.672 152.075 191.099 152.12 190.518 152.125C189.948 152.128 189.948 152.999 190.518 153.01L190.519 153.009Z" fill="#98A2B3"/>
<path id="Vector_16" d="M195.693 153.176C196.341 153.215 197.025 153.327 197.669 153.23C197.823 153.207 197.976 153.039 198.007 152.892C198.026 152.8 198.02 152.726 198.007 152.635C197.985 152.475 197.815 152.335 197.669 152.297C197.047 152.133 196.335 152.184 195.693 152.155C195.032 152.125 195.039 153.138 195.693 153.178V153.176Z" fill="#98A2B3"/>
<path id="Vector_17" d="M194.449 158.98C194.696 157.593 194.364 156.008 194.3 154.604C194.278 154.111 193.534 154.106 193.529 154.604C193.522 155.36 193.489 156.114 193.477 156.87C193.467 157.566 193.385 158.297 193.533 158.98C193.629 159.423 194.367 159.442 194.449 158.98Z" fill="#98A2B3"/>
<path id="Vector_18" d="M176.891 67.5865C177.189 66.8895 176.966 66.0877 176.915 65.3484C176.857 64.499 176.792 63.6474 176.8 62.7958C176.803 62.3732 176.165 62.3775 176.145 62.7958C176.106 63.6474 176.029 64.4948 176.033 65.3484C176.036 66.0623 175.921 66.9647 176.313 67.5865C176.433 67.7771 176.787 67.8312 176.892 67.5865H176.891Z" fill="#98A2B3"/>
<path id="Vector_19" d="M173.728 69.276C174.219 69.3025 174.69 69.4529 175.074 69.096C175.184 68.9932 175.171 68.8163 175.074 68.7125C174.72 68.3355 174.21 68.4615 173.728 68.4562C173.113 68.4488 172.497 68.4308 171.882 68.4181C171.382 68.4075 171.385 69.1701 171.882 69.1934C172.497 69.2209 173.113 69.2442 173.728 69.2781V69.276Z" fill="#98A2B3"/>
<path id="Vector_20" d="M180.7 68.0469C179.938 68.0607 179.18 68.173 178.44 68.3551C177.923 68.4822 178.143 69.2554 178.658 69.1485C179.337 69.0065 180.008 68.9504 180.7 68.944C180.908 68.9419 181.068 68.8042 181.133 68.6146C181.162 68.5299 181.161 68.4611 181.133 68.3763C181.072 68.191 180.904 68.0437 180.7 68.0469Z" fill="#98A2B3"/>
<path id="Vector_21" d="M176.391 75.7125C176.486 75.9762 176.931 76.1224 177.07 75.8014C177.412 75.0166 177.254 73.9786 177.213 73.1355C177.168 72.1918 177.024 71.2682 176.889 70.334C176.838 69.9855 176.267 70.0713 176.277 70.4166C176.305 71.3222 176.301 72.2288 176.31 73.1355C176.319 73.9405 176.115 74.9551 176.391 75.7125Z" fill="#98A2B3"/>
<path id="Vector_22" d="M108.005 69.7393C108.101 69.8495 108.301 69.8421 108.397 69.7393C108.798 69.3061 108.668 68.7045 108.633 68.1506C108.59 67.4727 108.493 66.8012 108.405 66.1286C108.349 65.7007 107.685 65.6721 107.711 66.1286C107.749 66.8023 107.767 67.4759 107.765 68.1506C107.763 68.7098 107.619 69.2903 108.005 69.7393Z" fill="#98A2B3"/>
<path id="Vector_23" d="M106.594 70.315C106.294 70.3711 105.995 70.4177 105.688 70.4262C105.404 70.4336 105.11 70.3923 104.839 70.4887C104.476 70.6168 104.454 71.1284 104.839 71.2481C105.151 71.3456 105.478 71.2672 105.795 71.2153C106.129 71.1602 106.462 71.1072 106.792 71.0342C107.264 70.9293 107.06 70.2292 106.594 70.316V70.315Z" fill="#98A2B3"/>
<path id="Vector_24" d="M109.935 70.9553C110.254 70.9828 110.575 71.0093 110.894 71.0369C111.199 71.0633 111.468 71.0983 111.748 70.9564C111.965 70.8473 111.92 70.5581 111.748 70.4384C111.496 70.2636 111.191 70.2764 110.894 70.2605C110.575 70.2446 110.254 70.2266 109.935 70.2096C109.452 70.1842 109.462 70.914 109.935 70.9542V70.9553Z" fill="#98A2B3"/>
<path id="Vector_25" d="M108.191 75.9747C108.321 76.267 108.724 76.1389 108.812 75.8931C109.017 75.3275 108.873 74.6359 108.818 74.0449C108.757 73.3903 108.694 72.7379 108.648 72.0822C108.619 71.6628 107.984 71.6522 107.986 72.0822C107.991 72.7707 107.986 73.4592 107.995 74.1476C108.003 74.7609 107.938 75.4102 108.191 75.9758V75.9747Z" fill="#98A2B3"/>
<path id="Vector_26" d="M195.127 181.689C195.127 181.689 195.127 181.689 195.125 181.689C195.125 181.691 195.125 181.691 195.127 181.689Z" fill="#98A2B3"/>
<path id="Vector_27" d="M199.623 171.361C199.738 170.944 199.252 170.571 198.872 170.725C196.529 171.666 194.265 172.816 192.002 173.933C191.041 174.407 190.081 174.887 189.123 175.367C188.602 175.628 188.163 175.836 187.754 176.259C184.871 179.236 182.375 182.574 179.572 185.626C176.481 188.993 173.498 192.453 170.592 195.98C170.178 196.067 169.864 196.665 170.284 197.046C171.971 198.579 173.719 200.131 175.646 201.356C176.333 201.793 177.332 202.58 178.182 202.154C178.753 201.868 179.235 201.213 179.675 200.758C182.068 198.279 184.37 195.712 186.665 193.143C189.094 190.425 191.503 187.69 193.89 184.935C194.368 184.382 194.846 183.829 195.322 183.275C195.625 182.922 195.992 182.578 196.212 182.164C196.658 181.322 196.901 180.324 197.191 179.422C198.049 176.754 198.878 174.063 199.622 171.361H199.623ZM195.564 180.59C195.797 180.763 196.001 180.964 196.13 181.242C196.289 181.583 195.931 181.858 195.627 181.834C195.456 181.822 195.289 181.768 195.129 181.69C194.812 182.146 194.383 182.557 194.021 182.976C189.603 188.104 185.129 193.192 180.515 198.145C180.375 198.295 180.235 198.444 180.095 198.594C180.136 198.632 180.18 198.668 180.221 198.705C180.583 199.034 180.18 199.74 179.736 199.454C179.642 199.393 179.55 199.332 179.458 199.272C179.282 199.458 179.106 199.644 178.929 199.83C178.681 200.09 178.432 200.349 178.181 200.607C177.788 201.014 177.544 201.125 177 200.838C174.879 199.717 173.102 198.1 171.39 196.447C171.978 195.764 172.571 195.086 173.168 194.412C173.163 194.409 173.16 194.406 173.156 194.403C172.704 194.026 173.272 193.387 173.738 193.716C173.747 193.723 173.757 193.73 173.767 193.736C177.07 190.031 180.471 186.416 183.707 182.653C185.178 180.943 186.639 179.22 188.158 177.552C188.317 177.377 188.492 177.211 188.652 177.036C188.592 176.993 188.531 176.948 188.472 176.905C188.035 176.589 188.573 175.994 189.004 176.278C189.136 176.365 189.268 176.451 189.401 176.536C190.17 176.151 190.939 175.764 191.71 175.381C192.892 174.793 194.073 174.196 195.264 173.615C195.157 173.523 195.051 173.43 194.944 173.339C194.522 172.978 195.064 172.347 195.499 172.685C195.716 172.854 195.935 173.021 196.153 173.187C196.836 172.862 197.522 172.544 198.213 172.239C198.024 172.917 197.824 173.593 197.617 174.267C197.869 174.469 198.075 174.702 198.084 174.97C198.091 175.215 197.932 175.385 197.698 175.424C197.561 175.448 197.421 175.413 197.283 175.346C197.034 176.137 196.78 176.926 196.526 177.715C196.217 178.677 195.907 179.641 195.564 180.592V180.59Z" fill="#98A2B3"/>
<path id="Vector_28" d="M192.792 178.75C191.671 177.997 190.532 177.272 189.401 176.534C189.269 176.448 189.136 176.363 189.005 176.276C188.573 175.992 188.036 176.587 188.473 176.903C188.533 176.946 188.594 176.991 188.653 177.034C189.806 177.872 190.948 178.726 192.115 179.549C192.716 179.972 193.317 180.396 193.917 180.821C194.291 181.085 194.689 181.476 195.127 181.687C195.127 181.687 195.127 181.687 195.128 181.687C195.289 181.764 195.454 181.817 195.626 181.831C195.93 181.854 196.289 181.58 196.129 181.239C195.998 180.962 195.796 180.759 195.562 180.587C195.306 180.397 195.013 180.241 194.741 180.058C194.091 179.622 193.442 179.184 192.792 178.748V178.75Z" fill="#98A2B3"/>
<path id="Vector_29" d="M197.283 175.343C197.421 175.411 197.561 175.445 197.698 175.421C197.932 175.381 198.091 175.212 198.084 174.967C198.076 174.7 197.869 174.466 197.617 174.264C197.375 174.068 197.093 173.902 196.909 173.762C196.657 173.569 196.404 173.377 196.153 173.184C195.935 173.018 195.716 172.851 195.499 172.682C195.064 172.345 194.523 172.975 194.943 173.336C195.051 173.428 195.157 173.52 195.264 173.612C195.604 173.907 195.942 174.203 196.283 174.499C196.539 174.721 196.905 175.158 197.282 175.342L197.283 175.343Z" fill="#98A2B3"/>
<path id="Vector_30" d="M173.739 193.715C173.273 193.385 172.704 194.023 173.157 194.401C173.161 194.404 173.164 194.407 173.169 194.41C175.195 196.102 177.249 197.816 179.458 199.27C179.55 199.331 179.642 199.392 179.736 199.452C180.18 199.738 180.583 199.033 180.221 198.703C180.18 198.665 180.136 198.629 180.095 198.592C178.127 196.815 175.928 195.265 173.768 193.735C173.758 193.728 173.748 193.721 173.739 193.715Z" fill="#98A2B3"/>
<path id="Vector_31" d="M9.20504 33.6458C11.1357 30.6325 14.274 29.2704 17.7971 29.4091C20.7255 29.5246 23.5203 30.3529 25.981 31.9649C27.2978 32.8271 28.2446 33.8513 28.7408 35.3681C29.1522 36.6242 29.4183 38.0086 29.3102 39.3315C29.0038 43.0873 27.1886 46.6843 25.7361 50.1096C26.0351 50.242 26.3341 50.3744 26.6341 50.5079C27.4304 48.702 28.1439 46.8283 28.8002 44.9684C29.3674 43.3595 29.889 41.7083 30.1244 40.0136C30.5082 37.2576 29.7512 33.8534 27.5385 32.0232C25.1233 30.0256 22.0561 28.9368 18.9676 28.6243C15.7551 28.2991 12.3963 28.905 10.0076 31.2426C8.59647 32.6237 7.63166 34.5504 6.6764 36.2578C5.83139 37.7671 5.13694 39.3325 4.42871 40.9075C4.61531 40.9849 4.80191 41.0611 4.98745 41.1384C6.28199 38.5752 7.65393 36.065 9.20504 33.6448V33.6458Z" fill="#98A2B3"/>
<path id="Vector_32" d="M26.2229 34.9644C24.7428 33.0897 21.9099 31.9829 19.6102 31.6715C16.9544 31.3124 14.273 31.5507 12.1494 33.3534C10.8559 34.4507 10.0268 36.1581 9.22 37.6209C8.43013 39.0539 7.75794 40.5283 7.09424 42.0217C7.28084 42.1001 7.46638 42.1785 7.65298 42.2569C8.83195 39.9521 10.0512 37.6463 11.4677 35.4771C13.0548 33.0463 15.6948 32.1873 18.4928 32.4171C20.8337 32.6099 23.285 33.4223 25.0577 35.0174C26.7011 36.4971 26.9078 39.1206 26.3745 41.1373C25.6493 43.8827 24.3526 46.4109 23.2585 49.0123C23.5575 49.1447 23.8565 49.2771 24.1554 49.4095C25.2973 46.8855 26.4487 44.2365 27.1835 41.5652C27.7772 39.4109 27.668 36.7947 26.2229 34.9655V34.9644Z" fill="#98A2B3"/>
<path id="Vector_33" d="M17.3592 72.7135C19.4055 71.9213 20.9364 70.4586 22.1398 68.6611C23.7004 66.3288 24.8943 63.737 26.0828 61.2035C27.4176 58.3585 28.692 55.4871 30.0957 52.6761C30.2102 52.4462 30.1795 52.084 29.9091 51.9643C28.8171 51.4782 27.7261 50.9931 26.6341 50.509C26.3351 50.3766 26.0361 50.2442 25.7361 50.1108C25.2091 49.8767 24.6812 49.6437 24.1542 49.4106C23.8552 49.2782 23.5563 49.1459 23.2573 49.0135C18.0717 46.7225 12.8755 44.459 7.65176 42.258C7.46516 42.1797 7.27962 42.1013 7.09302 42.0229C6.39114 41.7285 5.69033 41.4329 4.9874 41.1406C4.8008 41.0633 4.6142 40.987 4.42866 40.9097C3.61652 40.5729 2.80545 40.2361 1.99119 39.9024C1.80777 39.7012 1.4632 39.6514 1.29356 39.9618C0.858869 40.7593 0.428416 41.56 -0.000976562 42.3618V44.4241C0.644703 43.1848 1.28614 41.9445 1.91274 40.6979C11.0063 44.4908 19.9515 48.6332 28.9412 52.6644C26.8249 56.9361 24.9982 61.3528 22.7388 65.5525C21.7093 67.4653 20.5802 69.4746 18.7672 70.7488C17.0168 71.9795 15.0405 72.3386 12.937 72.113C8.25291 71.6099 4.11165 69.2055 -0.000976562 67.0851V68.3201C3.50308 70.1906 7.08665 72.095 10.9554 72.8766C13.0674 73.3035 15.3034 73.51 17.3582 72.7146L17.3592 72.7135Z" fill="#98A2B3"/>
<path id="Vector_34" d="M14.8117 54.7695C14.8901 52.5474 12.6286 51.2647 10.6259 51.4373C9.49143 51.5348 8.56797 51.9172 8.10359 53.0219C7.63603 54.1351 7.80142 55.1836 8.57221 56.0479C8.11207 56.765 7.82793 57.7341 7.53213 58.4999C7.19603 59.3716 6.58958 60.6236 7.23844 61.4984C7.77598 62.2219 8.96768 62.3479 9.66637 61.8067C10.4838 61.1733 10.804 59.9425 11.2387 59.0443C11.4412 58.627 11.6034 57.9905 11.895 57.6399C12.1409 57.3454 12.4982 57.4121 12.828 57.3454C13.1068 57.2882 13.374 57.1802 13.6168 57.0319C14.4268 56.5373 14.7777 55.6963 14.8106 54.7706L14.8117 54.7695ZM13.3231 56.3148C12.7962 56.6728 12.2332 56.4441 11.7105 56.693C11.0871 56.9895 10.8485 58.0561 10.5633 58.6493C10.1975 59.4108 9.76603 61.1637 8.84787 61.3883C8.0474 61.5842 7.60634 60.9307 7.71873 60.2168C7.80779 59.6565 8.06648 59.1121 8.27004 58.5857C8.42908 58.1748 8.5966 57.768 8.77789 57.3666C8.95389 56.9779 9.19987 56.6114 9.31119 56.2036C9.42357 56.0691 9.45432 55.8689 9.29423 55.7058C8.47997 54.8701 8.36228 53.311 9.43524 52.5738C10.3089 51.9743 11.8038 52.1491 12.6795 52.6236C13.5924 53.1183 14.1257 53.955 14.0059 55.0068C13.9465 55.5268 13.7695 56.0109 13.321 56.3148H13.3231Z" fill="#98A2B3"/>
<path id="Vector_35" d="M23.5115 59.48C24.1466 58.7565 24.4721 57.7228 24.8591 56.8511C25.297 55.8629 25.7009 54.8598 26.1335 53.8695C26.2066 53.7011 25.9628 53.5507 25.8811 53.7223C25.4178 54.6936 24.928 55.651 24.471 56.6255C24.066 57.4887 23.485 58.4346 23.3525 59.3889C23.3408 59.4715 23.4405 59.5615 23.5115 59.481V59.48Z" fill="#98A2B3"/>
<path id="Vector_36" d="M21.2311 63.8442C21.5884 63.5783 21.7199 63.1123 21.9043 62.7204C22.1397 62.2204 22.3889 61.729 22.6497 61.2428C22.7578 61.0416 22.4578 60.8647 22.3433 61.0638C22.0676 61.5404 21.7983 62.0213 21.5417 62.5085C21.3424 62.8877 21.0434 63.3146 21.0774 63.7562C21.0827 63.8251 21.1632 63.895 21.2311 63.8442Z" fill="#98A2B3"/>
<path id="Vector_37" d="M1.72287 10.0089C2.87322 9.91888 4.03735 9.91253 5.18982 9.87228C7.18093 9.80237 9.1731 9.74624 11.1642 9.70281C15.122 9.61702 19.082 9.60537 23.0409 9.59689C24.7383 9.59372 26.4792 9.71128 28.1713 9.55982C29.4521 9.44543 30.7774 9.16899 31.5291 8.02931C32.4557 6.62485 32.2628 4.70669 32.3561 3.10627C32.4144 2.10535 32.4674 1.10444 32.5151 0.103516H31.4793C31.4517 0.731606 31.4231 1.36076 31.3944 1.98885C31.351 2.93257 31.3022 3.87523 31.2471 4.8179C31.1972 5.68113 31.2195 6.56554 30.771 7.33873C30.1635 8.38732 28.8319 8.54619 27.7197 8.58326C25.8887 8.64364 24.0471 8.59068 22.215 8.59703C18.5307 8.60868 14.8474 8.64152 11.1642 8.70295C9.02997 8.73896 6.89679 8.79086 4.76361 8.85759C3.66627 8.89254 2.54773 8.87454 1.45569 8.98469C0.825918 9.04824 0.398646 9.26008 0 9.58101V10.9897C0.479223 10.4993 0.963748 10.0682 1.72287 10.0089Z" fill="#98A2B3"/>
<path id="Vector_38" d="M29.5592 0.639292C29.6504 0.470884 29.6906 0.290824 29.7097 0.105469H29.2485C29.2581 0.287647 29.2878 0.466647 29.3673 0.639292C29.4023 0.715553 29.521 0.708139 29.5581 0.639292H29.5592Z" fill="#98A2B3"/>
<path id="Vector_39" d="M166.4 48.3831C169.187 50.0513 172.545 51.1063 175.805 51.1232C179.12 51.1402 182.505 49.7929 185.106 47.7847C187.832 45.6791 189.29 42.7843 190.16 39.5104C190.94 36.5702 190.919 33.2666 189.77 30.4142C188.558 27.4094 186.259 24.8271 183.389 23.3157C180.477 21.7809 177.079 20.959 173.813 21.4854C173.812 21.4854 173.811 21.4854 173.809 21.4854C170.448 21.7735 167.219 23.0551 164.647 25.2561C162.253 27.3045 160.412 30.0361 159.709 33.1257C159.062 35.9675 159.208 39.0582 160.328 41.7643C161.492 44.5796 163.815 46.8367 166.4 48.3842V48.3831ZM160.49 35.4866C160.849 28.441 166.946 23.1324 173.772 22.4228C174.972 22.445 176.35 22.4874 177.525 22.6844C181.659 23.3813 185.308 25.3175 187.598 29.0945C189.034 31.4618 189.545 34.2262 189.29 36.9726C189.155 38.4407 188.7 39.9214 188.194 41.3015C187.667 42.7409 186.929 44.1115 185.892 45.2501C183.905 47.4299 181.164 48.8809 178.301 49.5281C175.218 50.224 171.885 49.5472 169.024 48.2942C166.472 47.1767 164.094 45.4503 162.477 43.1593C160.919 40.9498 160.353 38.1557 160.489 35.4877L160.49 35.4866Z" fill="#98A2B3"/>
<path id="Vector_40" d="M172.887 30.6705C173.62 29.4832 175.254 29.0627 176.563 28.9981C176.606 28.996 176.648 28.9949 176.69 28.9939C176.816 28.602 176.941 28.2101 177.063 27.8182C176.473 27.7949 175.875 27.8436 175.289 27.9548C173.309 28.3319 171.125 29.7819 171.36 32.0612C171.545 33.8693 173.074 34.7113 174.546 35.4771C174.671 35.0968 174.797 34.7155 174.923 34.3353C173.368 33.5028 171.803 32.4277 172.887 30.6705Z" fill="#98A2B3"/>
<path id="Vector_41" d="M180.177 30.115C180.671 30.5545 181.386 29.8555 180.908 29.3841C180.066 28.5548 179.015 28.0845 177.899 27.9023C177.803 28.2784 177.707 28.6544 177.611 29.0314C178.551 29.1395 179.455 29.472 180.177 30.115Z" fill="#98A2B3"/>
<path id="Vector_42" d="M171.24 43.0924C171.423 43.1973 171.611 43.2926 171.802 43.3795C171.941 42.9632 172.094 42.548 172.251 42.1349C171.935 41.9665 171.635 41.7621 171.372 41.5354C170.897 41.1266 170.551 40.6108 169.999 40.2941C169.59 40.059 169.211 40.4456 169.271 40.8533C169.421 41.8638 170.403 42.6147 171.241 43.0924H171.24Z" fill="#98A2B3"/>
<path id="Vector_43" d="M175.84 36.1838C177.768 37.3691 178.697 40.3379 176.572 41.8568C175.783 42.4213 174.624 42.6946 173.608 42.576C173.478 42.9912 173.343 43.4053 173.195 43.812C173.518 43.866 173.848 43.8893 174.182 43.8745C176.236 43.7866 178.18 42.7708 178.839 40.733C179.503 38.6803 178.471 36.5228 176.762 35.3429C176.561 35.2041 176.313 35.0622 176.038 34.916C175.924 35.3079 175.807 35.6998 175.686 36.0917C175.737 36.1224 175.788 36.1521 175.839 36.1828L175.84 36.1838Z" fill="#98A2B3"/>
<path id="Vector_44" d="M171.391 44.8699C171.255 45.5287 172.192 46.0149 172.535 45.3519C172.79 44.8625 173.003 44.3435 173.196 43.8129C173.343 43.4062 173.479 42.991 173.609 42.5768C173.803 41.9572 173.988 41.3355 174.187 40.7381C174.689 39.2351 175.183 37.73 175.651 36.2165C175.664 36.1762 175.676 36.1349 175.689 36.0947C175.808 35.7038 175.926 35.3119 176.041 34.919C176.609 32.9669 177.11 31.0011 177.612 29.0321C177.707 28.6561 177.804 28.2801 177.9 27.903C177.995 27.5355 178.089 27.168 178.184 26.8004C178.309 26.3174 177.581 26.1183 177.438 26.5949C177.315 27.0038 177.19 27.4116 177.063 27.8193C176.941 28.2112 176.817 28.6031 176.69 28.995C176.118 30.7797 175.516 32.5581 174.924 34.3364C174.798 34.7167 174.672 35.0969 174.547 35.4782C174.517 35.5693 174.486 35.6604 174.457 35.7515C173.977 37.2142 173.499 38.6769 173.001 40.1333C172.774 40.7942 172.509 41.4626 172.252 42.1362C172.095 42.5493 171.942 42.9645 171.803 43.3807C171.638 43.8754 171.494 44.3732 171.391 44.871V44.8699Z" fill="#98A2B3"/>
<path id="Vector_45" d="M186.868 33.081C187.064 33.8574 187.176 34.6539 187.199 35.4535C187.224 36.2754 187.087 37.0836 187.078 37.9023C187.076 38.0888 187.325 38.1004 187.386 37.9436C187.986 36.3983 187.718 34.4007 187.293 32.8427C186.835 31.1671 185.997 29.6567 184.849 28.3581C184.688 28.1759 184.428 28.4407 184.583 28.624C185.674 29.9109 186.458 31.4456 186.868 33.082V33.081Z" fill="#98A2B3"/>
<path id="Vector_46" d="M60.1723 86.314C63.7389 87.8085 67.7381 88.2672 71.5443 87.5596C75.5817 86.8087 79.2321 84.5696 82.0459 81.6177C87.1658 76.2455 89.669 67.7467 86.3886 60.7954C82.8899 53.3811 73.8185 49.6529 65.941 50.7745C64.796 50.9376 63.6923 51.2045 62.613 51.6197C62.5833 51.6314 62.5578 51.6462 62.5345 51.6621C58.7357 52.7626 55.0726 54.8184 52.4496 57.8138C49.8351 60.7996 48.5702 64.7959 48.5777 68.7328C48.5915 76.3112 53.1653 83.378 60.1734 86.314H60.1723ZM52.2768 59.3104C54.7599 55.8638 58.7272 53.5517 62.6946 52.2192C62.7201 52.2192 62.7476 52.2171 62.7763 52.2118C67.0076 51.3221 71.2475 51.2956 75.3866 52.6651C78.896 53.826 82.1053 56.0121 84.2427 59.0541C88.4826 65.0871 87.205 73.1369 83.0765 78.8723C80.8277 81.9969 77.5633 84.6363 73.9182 85.9327C70.4735 87.1582 66.6684 87.2302 63.1378 86.3257C56.0512 84.5113 50.8264 78.6859 49.6591 71.4824C48.9837 67.3146 49.7821 62.7728 52.2768 59.3115V59.3104Z" fill="#98A2B3"/>
<path id="Vector_47" d="M45.1478 68.8879C45.2676 77.9533 50.8996 86.2287 59.3528 89.5386C63.5905 91.1983 68.3393 91.6103 72.7816 90.5882C75.0887 90.0576 77.2123 89.0662 79.2925 87.9572C81.4109 86.8271 83.3511 85.4968 84.9796 83.7205C90.796 77.374 93.3003 67.4082 89.5619 59.404C85.515 50.7389 74.9254 46.2597 65.7205 47.537C64.3178 47.7319 62.9501 48.0687 61.6174 48.5433C61.5856 48.5549 61.5591 48.5697 61.5347 48.5856C57.0362 49.8302 52.737 52.3182 49.6612 55.859C46.5601 59.4284 45.0863 64.1979 45.1478 68.8868V68.8879ZM58.23 50.4953C59.3517 49.9615 60.5116 49.5177 61.697 49.1438C61.7235 49.1438 61.751 49.1438 61.7807 49.1364C64.3274 48.6026 66.9006 48.1895 69.5119 48.2763C71.9366 48.3568 74.3264 48.8441 76.6218 49.6194C80.7514 51.0133 84.5141 53.5118 87.0682 57.0844C92.0715 64.0824 90.9264 73.6902 86.2614 80.5504C85.0474 82.3362 83.5727 84.0171 81.8169 85.2871C79.9721 86.6216 77.8676 87.7285 75.7736 88.6203C71.7437 90.3372 67.1518 90.6041 62.8982 89.6445C58.7039 88.6987 54.7885 86.5782 51.8474 83.4272C48.9572 80.3301 47.052 76.3656 46.3205 72.2031C45.5338 67.7291 46.1784 62.9184 48.4462 58.9496C50.6176 55.1493 54.3305 52.352 58.23 50.4964V50.4953Z" fill="#98A2B3"/>
<path id="Vector_48" d="M62.2177 68.9232C62.6152 72.284 62.8358 75.7157 63.5175 79.032C63.5536 79.2068 63.6829 79.301 63.8292 79.3254C64.266 79.4419 64.7039 79.533 65.1418 79.6008C65.1354 79.5171 65.129 79.4334 65.1216 79.3497C65.0898 79.0129 65.8023 78.9049 65.8638 79.2332C65.8818 79.3286 65.9136 79.497 65.9497 79.6993C66.8254 79.7787 67.7022 79.7702 68.5812 79.6876C68.5748 79.6188 68.5684 79.551 68.5621 79.4821L68.6395 79.498C68.5928 78.9653 69.3816 78.978 69.4537 79.4821C69.459 79.515 69.4654 79.5478 69.4696 79.5806C69.9033 79.5171 70.3369 79.4366 70.7705 79.3413C72.8242 78.8901 74.827 77.9792 76.0802 76.2273C78.559 72.7638 76.1109 68.3227 72.2061 67.4573C70.6581 67.1142 69.0837 67.2826 67.6036 67.7719C69.4251 65.7383 70.9794 63.1274 69.9308 60.6415C69.1388 58.7636 67.3799 57.7839 65.4736 57.5435C65.428 58.0392 64.6668 58.0815 64.6435 57.5255C64.6435 57.5117 64.6413 57.4979 64.6413 57.4852C63.9851 57.4757 63.3245 57.5477 62.6937 57.6981C62.7329 58.1154 62.1318 58.2849 61.9653 57.9121C61.7151 57.9989 61.4723 58.0974 61.2391 58.2097C61.1044 58.2743 60.9867 58.4681 61.0048 58.6185C61.4076 62.0545 61.8137 65.4894 62.2198 68.9254L62.2177 68.9232ZM69.2035 61.4063C69.6117 62.9103 68.8536 64.4143 68.0182 65.6239C67.1297 66.9097 66.0483 68.0589 64.8757 69.0895C64.459 69.456 64.9976 70.1413 65.4662 69.8532C67.5538 68.5695 70.1821 67.7528 72.5962 68.5737C74.5704 69.2442 76.3081 71.139 76.2254 73.3103C76.131 75.8015 73.9597 77.5015 71.7756 78.2387C69.3689 79.0511 66.8063 79.2099 64.3328 78.6623C64.1685 75.3651 63.5737 72.0669 63.1708 68.7919C62.7647 65.4968 62.3725 62.2007 61.9844 58.9034C64.4834 57.8686 68.3924 58.4152 69.2035 61.4042V61.4063Z" fill="#98A2B3"/>
<path id="Vector_49" d="M62.6913 57.6953C62.6892 57.6763 62.6881 57.6562 62.6839 57.636C62.5768 57.17 62.5217 56.7167 62.4093 56.2496C62.3266 55.9075 61.6862 56.0791 61.7307 56.4074C61.7965 56.8872 61.8166 57.3712 61.9385 57.8415C61.9449 57.8659 61.9544 57.8881 61.964 57.9093C62.1304 58.2821 62.7305 58.1127 62.6924 57.6953H62.6913Z" fill="#98A2B3"/>
<path id="Vector_50" d="M65.4725 57.5416C65.4757 57.5013 65.4768 57.459 65.4704 57.4124C65.3941 56.8828 65.3358 56.3638 65.2658 55.8331C65.217 55.4614 64.4748 55.4402 64.4961 55.8374C64.5268 56.3882 64.6127 56.9315 64.6392 57.4833C64.6392 57.4971 64.6413 57.5109 64.6413 57.5236C64.6657 58.0797 65.4269 58.0362 65.4715 57.5416H65.4725Z" fill="#98A2B3"/>
<path id="Vector_51" d="M65.1216 79.3507C65.1291 79.4344 65.1354 79.5181 65.1418 79.6017C65.1672 79.9153 65.1884 80.2288 65.2128 80.5434C65.2414 80.9141 65.2128 81.2551 65.4768 81.54C65.6793 81.7572 65.9804 81.6152 66.0769 81.3822C66.1787 81.1354 66.0504 80.2786 65.9497 79.7013C65.9147 79.499 65.8818 79.3317 65.8638 79.2353C65.8023 78.9069 65.0898 79.015 65.1216 79.3518V79.3507Z" fill="#98A2B3"/>
<path id="Vector_52" d="M68.6384 79.498L68.561 79.4821C68.5674 79.5509 68.5738 79.6198 68.5801 79.6876C68.6045 79.9428 68.6363 80.196 68.6936 80.4788C68.7604 80.8082 68.6861 81.1323 68.9448 81.378C69.1473 81.5708 69.4453 81.5019 69.5895 81.2816C69.7718 81.003 69.6796 80.7022 69.6181 80.3961C69.563 80.125 69.5121 79.8538 69.4696 79.5806C69.4643 79.5477 69.458 79.5149 69.4537 79.4821C69.3806 78.9779 68.5928 78.9663 68.6395 79.498H68.6384Z" fill="#98A2B3"/>
<path id="Vector_53" d="M71.6294 53.7788C73.7011 54.0838 75.6943 54.857 77.4543 55.9872C78.3258 56.5475 79.1295 57.1989 79.8653 57.9265C80.6138 58.6679 81.1906 59.5714 81.9391 60.3023C82.0483 60.4092 82.2667 60.3023 82.2094 60.1444C81.8712 59.2113 81.1132 58.383 80.4325 57.6808C79.6543 56.879 78.7711 56.1715 77.8318 55.5677C75.9647 54.3666 73.8813 53.6581 71.6846 53.3784C71.4587 53.3498 71.4025 53.7449 71.6305 53.7788H71.6294Z" fill="#98A2B3"/>
<path id="Vector_54" d="M83.473 64.4239C83.578 64.8486 83.5992 65.3443 83.8388 65.7161C83.8876 65.7924 83.9925 65.7733 84.0222 65.6917C84.1887 65.2373 84.018 64.6537 83.8939 64.2025C83.7444 63.6581 83.5366 63.137 83.2917 62.6297C83.1719 62.3808 82.8146 62.5979 82.9238 62.8447C83.1518 63.3563 83.3373 63.8816 83.4719 64.425L83.473 64.4239Z" fill="#98A2B3"/>
<path id="Vector_55" d="M42.5876 108.282C42.5876 108.939 42.5929 109.597 42.5971 110.253C43.9786 112.022 46.9409 112.658 48.9351 112.945C52.7923 113.5 56.8073 113.227 60.4598 111.801C60.9974 111.591 61.5455 111.312 61.994 110.949C62.0343 110.452 62.0883 109.958 62.1626 109.465C62.2336 108.997 62.8962 109.16 62.9365 109.564C62.998 109.311 63.0171 109.035 62.9811 108.736C62.8029 107.258 61.5232 105.985 60.3188 105.228C58.7656 104.253 56.89 103.811 55.0951 103.549C53.1231 103.261 50.9157 103.077 48.9744 103.661C48.9055 103.638 48.8291 103.628 48.7432 103.644C47.261 103.91 45.9538 104.383 44.5935 105.013C43.2226 105.648 41.716 106.645 41.8507 108.352C41.8507 108.329 41.8507 108.305 41.8507 108.281C41.8528 107.808 42.5854 107.809 42.5865 108.281L42.5876 108.282ZM48.9776 104.492C49.0486 104.479 49.1069 104.453 49.1525 104.418C52.0967 104.359 54.9498 104.257 57.8093 105.166C59.0794 105.57 60.3358 106.198 61.1988 107.243C61.642 107.78 62.1435 108.568 61.9749 109.297C61.8116 110.003 61.0748 110.413 60.4641 110.684C57.5771 111.97 54.1589 112.339 51.0323 112.143C48.633 111.993 45.2286 111.695 43.5312 109.744C40.8318 106.64 46.7903 104.911 48.9765 104.491L48.9776 104.492Z" fill="#98A2B3"/>
<path id="Vector_56" d="M44.8213 138.839C48.6647 140.915 53.6393 140.969 57.7784 139.839C58.9436 139.522 60.0812 139.087 61.1616 138.547C61.6345 138.311 62.296 138.048 62.6788 137.679C63.0477 137.323 62.8866 136.632 62.8866 136.163C62.8866 133.44 62.876 130.717 62.8686 127.994C62.8611 124.941 62.8601 121.889 62.8855 118.837C62.911 115.77 63.1877 112.628 62.9364 109.57C62.9364 109.568 62.9364 109.566 62.9354 109.564C62.8951 109.162 62.2324 108.997 62.1614 109.466C62.0872 109.957 62.0331 110.453 61.9928 110.949C61.8603 112.557 61.8751 114.186 61.8603 115.797C61.9589 115.749 62.0585 115.702 62.1593 115.659C62.5897 115.469 63.0774 115.978 62.6915 116.348C62.436 116.594 62.1508 116.817 61.8454 117.025C61.82 119.064 61.8083 121.102 61.8041 123.141C61.8942 123.118 61.9843 123.099 62.0766 123.085C62.3384 123.047 62.6597 123.315 62.4646 123.59C62.2812 123.849 62.0543 124.062 61.803 124.246C61.802 126.413 61.8062 128.581 61.8136 130.749C61.9907 130.701 62.1709 130.664 62.3586 130.644C62.7021 130.608 62.7912 131.048 62.6141 131.261C62.3904 131.531 62.1158 131.739 61.8168 131.913C61.8221 133.599 61.8285 135.285 61.8306 136.971C59.2627 138.521 56.3206 139.37 53.3223 139.489C50.6314 139.595 47.8377 139.294 45.4246 138.024C44.8563 137.725 44.3124 137.383 43.7929 137.005C43.5533 136.83 43.1292 136.606 42.9935 136.322C42.8483 136.017 42.9755 135.23 42.9702 134.893C42.9479 133.536 42.9246 132.178 42.9013 130.822C42.6521 130.662 42.4061 130.495 42.1644 130.324C41.7658 130.04 42.1337 129.383 42.5535 129.659C42.6627 129.731 42.774 129.798 42.8854 129.867C42.8483 127.728 42.8154 125.588 42.7815 123.448C42.562 123.211 42.3606 122.959 42.1824 122.687C41.9587 122.346 42.4867 122.059 42.72 122.374C42.7348 122.393 42.7507 122.411 42.7656 122.431C42.7518 121.557 42.738 120.683 42.7232 119.809C42.7062 118.811 42.6892 117.811 42.6733 116.812C42.5408 116.723 42.4093 116.632 42.2789 116.538C41.8919 116.258 42.2556 115.611 42.6595 115.887C42.6309 114.009 42.6076 112.131 42.5959 110.254C42.5917 109.597 42.5864 108.939 42.5864 108.282C42.5864 107.81 41.8527 107.809 41.8506 108.282C41.8506 108.306 41.8506 108.329 41.8506 108.353C41.823 113.92 41.8241 119.487 41.8813 125.054C41.9089 127.808 41.9407 130.562 41.9704 133.316C41.9778 133.985 41.9842 134.655 41.9916 135.323C41.9969 135.819 41.8559 136.536 42.1506 136.96C42.4072 137.329 43.0179 137.675 43.3858 137.938C43.8459 138.269 44.3252 138.571 44.8224 138.84L44.8213 138.839Z" fill="#98A2B3"/>
<path id="Vector_57" d="M60.0122 117.994C60.659 117.722 61.2866 117.404 61.8464 117.024C62.1518 116.818 62.437 116.593 62.6925 116.348C63.0773 115.978 62.5896 115.469 62.1602 115.658C62.0595 115.703 61.9599 115.749 61.8613 115.797C61.2336 116.104 60.6378 116.477 60.0059 116.783C60.009 117.187 60.0112 117.589 60.0122 117.993V117.994Z" fill="#98A2B3"/>
<path id="Vector_58" d="M57.6807 118.792C58.2914 118.618 58.9456 118.411 59.5923 118.162C59.6018 117.761 59.6124 117.359 59.6252 116.958C58.9021 117.273 58.1536 117.537 57.3945 117.754C55.6779 118.245 53.9074 118.473 52.123 118.486C48.8638 118.509 45.3768 117.753 42.6604 115.888C42.2576 115.611 41.8928 116.258 42.2798 116.538C42.4102 116.633 42.5417 116.724 42.6742 116.813C45.4923 118.714 48.8395 119.557 52.2333 119.561C54.0653 119.563 55.9197 119.299 57.6797 118.793L57.6807 118.792Z" fill="#98A2B3"/>
<path id="Vector_59" d="M56.9005 125.039C55.097 125.49 53.231 125.654 51.3756 125.567C49.781 125.493 48.2066 125.215 46.6862 124.727C45.2803 124.277 43.6964 123.638 42.7676 122.429C42.7528 122.41 42.7369 122.392 42.722 122.372C42.4898 122.057 41.9618 122.344 42.1845 122.685C42.3626 122.956 42.564 123.21 42.7835 123.446C44.7577 125.572 48.2819 126.324 50.9939 126.55C53.0645 126.723 55.1659 126.562 57.1867 126.077C58.1727 125.84 59.1333 125.519 60.0674 125.125C60.6568 124.876 61.2845 124.626 61.804 124.245C62.0553 124.062 62.2811 123.848 62.4656 123.589C62.6607 123.314 62.3394 123.045 62.0776 123.085C61.9853 123.098 61.8952 123.117 61.8051 123.14C61.0449 123.329 60.3579 123.805 59.6422 124.116C58.758 124.501 57.8366 124.805 56.9005 125.039Z" fill="#98A2B3"/>
<path id="Vector_60" d="M57.6396 132.191C55.9422 132.596 54.196 132.759 52.4519 132.697C49.1101 132.578 45.7364 131.641 42.8887 129.866C42.7773 129.798 42.666 129.73 42.5568 129.658C42.137 129.382 41.7691 130.04 42.1677 130.323C42.4105 130.496 42.6565 130.661 42.9046 130.821C45.7301 132.64 48.9532 133.672 52.3342 133.82C54.1366 133.9 55.9549 133.736 57.7149 133.342C58.6267 133.137 59.5237 132.868 60.3952 132.532C60.8712 132.349 61.3738 132.169 61.8201 131.911C62.1191 131.738 62.3926 131.529 62.6174 131.259C62.7934 131.047 62.7054 130.607 62.3619 130.642C62.1742 130.661 61.994 130.698 61.8169 130.747C61.2221 130.909 60.6761 131.202 60.0919 131.428C59.2936 131.736 58.474 131.99 57.6407 132.188L57.6396 132.191Z" fill="#98A2B3"/>
<path id="Vector_61" d="M59.589 118.318C59.5594 119.668 59.3579 121.194 59.659 122.515C59.6802 122.611 59.8255 122.607 59.8488 122.515C60.1796 121.204 60.0121 119.664 60.0131 118.318C60.0131 118.21 60.0131 118.102 60.0131 117.994C60.0131 117.59 60.01 117.188 60.0068 116.784C59.9983 115.805 59.9845 114.827 59.9707 113.848C59.9686 113.697 59.7407 113.697 59.7354 113.848C59.6972 114.884 59.658 115.921 59.6272 116.957C59.6145 117.358 59.6039 117.759 59.5944 118.161C59.5933 118.213 59.5912 118.266 59.5901 118.318H59.589Z" fill="#98A2B3"/>
<path id="Vector_62" d="M15.3701 111.244C15.6288 111.246 15.8536 111.023 15.8515 110.763C15.8398 109.041 15.6543 107.329 15.5387 105.613C15.6469 105.3 15.4889 104.902 15.0489 104.901C11.3349 104.894 7.61562 105.054 3.90376 105.153C2.60286 105.188 1.3009 105.223 0 105.264V106.446C1.3009 106.409 2.60286 106.377 3.90376 106.346C7.46719 106.263 11.0529 106.275 14.611 106.017C14.7128 107.437 14.8474 108.857 14.8803 110.28C9.92268 110.249 4.95763 110.342 0 110.559V111.535C5.12091 111.301 10.2514 111.211 15.3701 111.245V111.244Z" fill="#98A2B3"/>
<path id="Vector_63" d="M2.68972 100.51C2.64519 100.897 3.12335 101.073 3.41385 100.925C7.58373 98.7801 11.5564 96.2868 15.6181 93.9492C15.9436 93.7618 15.9277 93.2947 15.6181 93.1029C11.7801 90.7315 8.0672 88.1513 4.02137 86.1368C3.70012 85.9768 3.22619 86.1654 3.25376 86.5763C3.3301 87.7245 3.25588 88.88 3.09578 90.0197C2.06418 89.9932 1.03258 89.9657 0.000976562 89.935V90.991C1.18101 91.0206 2.35999 91.046 3.53896 91.0693C3.74465 91.0736 4.00652 90.9062 4.04045 90.688C4.2069 89.6066 4.31611 88.5135 4.30551 87.4194C7.80956 89.2242 11.0782 91.4273 14.419 93.5118C10.862 95.5846 7.36003 97.7548 3.72026 99.6815C3.78281 98.5354 3.74146 97.3841 3.84007 96.2402C4.02455 95.9394 3.86445 95.4268 3.39371 95.3738C2.26669 95.2488 1.13542 95.1577 0.000976562 95.0878V96.3461C0.956243 96.379 1.91151 96.4107 2.86784 96.4404C2.76711 97.794 2.84451 99.1582 2.69078 100.509L2.68972 100.51Z" fill="#98A2B3"/>
<path id="Vector_64" d="M8.09293 91.6187C8.88068 92.1049 9.68539 92.7086 10.5781 92.9776C10.6714 93.0062 10.7393 92.8834 10.6725 92.8166C10.0787 92.2245 9.2719 91.8369 8.55095 91.4206C7.79182 90.9821 6.88109 90.6051 6.30538 89.9293C6.17922 89.781 5.97459 89.9929 6.0944 90.1401C6.61921 90.7872 7.39424 91.1866 8.09293 91.6176V91.6187Z" fill="#98A2B3"/>
<path id="Vector_65" d="M206.215 102.098C206.249 101.621 205.712 101.442 205.35 101.603C201.171 103.466 197.531 106.278 193.57 108.533C193.213 108.736 193.219 109.27 193.57 109.474C197.62 111.831 201.634 114.253 205.787 116.428C206.094 116.589 206.605 116.397 206.557 115.987C206.399 114.64 206.421 113.281 206.361 111.929C208.606 111.769 210.855 111.637 213.106 111.535V110.558C210.68 110.664 208.257 110.799 205.837 110.966C205.579 110.984 205.321 111.181 205.337 111.466C205.403 112.672 205.383 113.885 205.459 115.091C201.892 113.165 198.419 111.072 194.93 109.011C198.308 107.03 201.496 104.713 205.028 103.012C205.012 104.064 205.079 105.118 205.081 106.169C205.081 106.469 205.347 106.766 205.661 106.748C208.141 106.605 210.623 106.516 213.106 106.446V105.264C210.814 105.336 208.522 105.425 206.232 105.557C206.204 104.404 206.133 103.249 206.215 102.098Z" fill="#98A2B3"/>
<path id="Vector_66" d="M193.552 89.3726C193.697 91.35 193.394 93.3529 193.265 95.3241C193.245 95.6355 193.547 95.9056 193.845 95.9034C200.275 95.8653 206.686 96.1259 213.105 96.3472V95.0889C210.466 94.9269 207.813 94.8866 205.178 94.8273C201.608 94.7479 198.037 94.715 194.466 94.7405C194.586 93.1676 194.776 91.5778 194.726 90.0017C200.829 90.5864 206.972 90.8406 213.104 90.992V89.936C206.768 89.7464 200.424 89.4478 194.122 88.8027C193.829 88.7731 193.53 89.0887 193.55 89.3736L193.552 89.3726Z" fill="#98A2B3"/>
<path id="Vector_67" d="M124.065 81.4632C119.317 83.7585 114.497 85.9329 109.845 88.4199C109.391 88.6624 109.509 89.2429 109.847 89.4346C111.29 92.9023 113.218 96.136 115.105 99.377C117.226 103.021 119.3 106.7 121.498 110.298C121.681 110.599 122.026 110.757 122.365 110.594C134.104 104.983 145.956 99.6048 157.746 94.1034C161.074 92.5507 164.401 90.9958 167.733 89.4515C167.97 89.3414 168.092 89.0151 167.962 88.7811C165.64 84.5931 163.476 80.3172 161.267 76.0678C160.181 73.9802 159.088 71.8968 157.962 69.8303C157.564 69.0995 157.147 67.8465 156.26 67.5944C155.284 67.3169 153.926 68.1558 153.045 68.5C143.182 72.349 133.593 76.8548 124.066 81.4622L124.065 81.4632ZM154.914 68.9576C155.242 68.8315 155.756 68.5847 156.102 68.768C156.289 68.8675 156.51 69.4755 156.611 69.6577C157.689 71.6182 158.737 73.5946 159.785 75.571C162.117 79.9772 164.412 84.4046 166.816 88.7715C155.159 94.1511 143.483 99.4893 131.819 104.853C128.665 106.304 125.513 107.76 122.345 109.183C120.33 105.715 118.205 102.306 116.129 98.8739C114.218 95.7165 112.22 92.611 110.701 89.2418C114.483 87.2569 118.363 85.4627 122.21 83.6091C126.744 81.4251 131.269 79.2252 135.836 77.1111C140.411 74.9927 145.021 72.9464 149.686 71.0335C150.874 70.5463 152.064 70.0686 153.258 69.6005C153.811 69.3844 154.363 69.1694 154.916 68.9576H154.914Z" fill="#98A2B3"/>
<path id="Vector_68" d="M118.356 88.0472C118.327 90.1941 117.481 92.1631 115.932 93.6555C115.775 93.807 115.685 94.0749 115.805 94.2783C117.327 96.8658 118.869 99.4428 120.402 102.024C120.524 102.23 120.732 102.347 120.973 102.305C122.055 102.114 123.091 102.198 124.124 102.567C125.168 102.993 126.008 103.67 126.687 104.565C126.828 104.75 127.11 104.784 127.31 104.692C130.979 102.995 134.647 101.3 138.317 99.6028C144.113 96.922 149.909 94.2423 155.705 91.5615C157.052 90.9387 158.397 90.317 159.744 89.6942C159.933 89.6073 160.095 89.3362 160.025 89.1233C159.357 87.0981 160.005 85.2838 161.379 83.73C161.495 83.5986 161.493 83.355 161.416 83.2078C160.044 80.5906 158.683 77.9681 157.303 75.3551C157.184 75.1295 156.972 75.0543 156.732 75.0744C154.559 75.2576 152.274 74.852 150.68 73.2643C150.505 73.0895 150.284 73.044 150.056 73.1372C139.392 77.5338 129.046 82.6316 118.647 87.6108C118.486 87.6881 118.359 87.865 118.357 88.0472H118.356ZM156.529 76.123C157.8 78.5358 159.059 80.9549 160.325 83.3709C159.005 84.9692 158.369 86.9181 158.889 88.9432C155.352 90.5786 151.815 92.215 148.277 93.8504C142.481 96.5311 136.685 99.2109 130.889 101.892C129.669 102.455 128.45 103.02 127.231 103.583C126.494 102.712 125.585 102.055 124.523 101.611C124.503 101.601 124.483 101.592 124.46 101.584C124.438 101.576 124.417 101.569 124.396 101.562C123.33 101.193 122.244 101.089 121.137 101.231C119.731 98.8645 118.32 96.5025 116.922 94.1311C118.405 92.5645 119.281 90.5765 119.383 88.4126C129.578 83.5287 139.725 78.539 150.175 74.2133C151.931 75.7787 154.215 76.2501 156.528 76.123H156.529Z" fill="#98A2B3"/>
<path id="Vector_69" d="M138.229 83.5526C138.188 83.5388 138.145 83.5282 138.095 83.5282C133.474 83.4573 131.283 89.4363 134.453 92.5831C135.98 94.0998 138.469 94.7809 140.437 93.6974C142.409 92.6117 143.521 90.1904 143.319 87.9905C143.086 85.4549 140.876 83.2084 138.229 83.5526ZM142.175 88.8463C141.981 91.132 140.072 93.3563 137.632 92.9602C135.541 92.6212 133.905 90.719 133.987 88.5953C134.069 86.46 135.802 84.3597 138.046 84.3311C138.082 84.3311 138.116 84.3258 138.148 84.3173C139.289 84.6573 140.391 84.8331 141.252 85.7694C142.02 86.603 142.268 87.7374 142.174 88.8463H142.175Z" fill="#98A2B3"/>
<path id="Vector_70" d="M149.42 76.0248C148.884 76.261 148.338 76.4622 147.783 76.6529C147.329 76.8086 146.805 76.9071 146.416 77.2005C146.32 77.2725 146.384 77.4271 146.495 77.4335C146.988 77.4652 147.495 77.2238 147.946 77.0437C148.495 76.8255 149.029 76.566 149.559 76.3065C149.742 76.2165 149.606 75.9432 149.42 76.0248Z" fill="#98A2B3"/>
<path id="Vector_71" d="M144.944 77.9286C143.801 78.3597 142.658 78.7929 141.519 79.2378C140.4 79.6752 139.19 80.0512 138.134 80.6274C137.918 80.745 138.02 81.1274 138.279 81.0543C139.412 80.7376 140.508 80.1847 141.589 79.7282C142.759 79.2346 143.923 78.7294 145.086 78.222C145.281 78.1373 145.136 77.8577 144.943 77.9297L144.944 77.9286Z" fill="#98A2B3"/>
<path id="Vector_72" d="M6.35298 166.782C12.3507 165.638 18.2965 164.324 24.1797 162.737C24.1722 162.699 24.1627 162.661 24.1553 162.623C24.0344 162.034 24.8338 161.829 25.0438 162.378C25.0575 162.415 25.0713 162.452 25.0851 162.489C26.8642 162 28.639 161.487 30.4064 160.945C30.6365 160.874 30.8103 160.62 30.7298 160.376C27.2957 149.942 24.4511 139.351 22.3009 128.579C22.2511 128.326 21.9723 128.223 21.7475 128.265C14.3938 129.641 7.11634 131.514 -0.000976562 133.829V134.883C7.04106 132.558 14.2337 130.617 21.5164 129.222C23.6326 139.685 26.3383 150.059 29.696 160.195C22.0073 162.569 14.1987 164.52 6.31163 166.113C4.15406 158.41 1.94878 150.716 -0.000976562 142.959V147.075C1.70599 153.631 3.55715 160.15 5.3659 166.678C5.50691 167.185 6.14941 167.135 6.35086 166.782H6.35298Z" fill="#98A2B3"/>
<path id="Vector_73" d="M0.675282 174.355C9.16878 172.644 17.6633 170.945 26.1346 169.123C26.4102 169.064 26.5247 168.767 26.4791 168.517C26.1038 166.501 25.8069 164.418 25.086 162.488C25.0722 162.451 25.0595 162.414 25.0446 162.377C24.8347 161.829 24.0353 162.033 24.1562 162.622C24.1636 162.66 24.1731 162.698 24.1806 162.736C24.5665 164.589 25.0574 166.411 25.4284 168.268C17.288 170.015 9.13379 171.721 0.953062 173.27C0.642415 171.428 0.323286 169.588 0.000976562 167.748V173.724C0.0179402 173.816 0.0338437 173.908 0.0497471 173.999C0.100638 174.282 0.426128 174.405 0.675282 174.354V174.355Z" fill="#98A2B3"/>
<path id="Vector_74" d="M15.5389 137.049C16.227 136.87 16.9172 136.693 17.6063 136.52C18.2997 136.347 19.0398 136.234 19.6865 135.923C20.0332 135.756 19.8604 135.199 19.4925 135.209C18.1545 135.249 16.7263 135.83 15.436 136.176C13.9358 136.579 12.4398 136.993 10.9439 137.413C8.05473 138.225 5.17197 139.056 2.28179 139.866C1.81211 139.998 2.01037 140.726 2.48429 140.598C5.37978 139.811 8.26996 139.003 11.1654 138.216C12.6211 137.82 14.0768 137.429 15.5368 137.05L15.5389 137.049Z" fill="#98A2B3"/>
<path id="Vector_75" d="M16.8874 142.213C18.1883 141.834 19.6112 141.574 20.8442 141.009C21.2365 140.829 21.0562 140.114 20.6173 140.171C19.2719 140.346 17.9286 140.894 16.633 141.289C15.2557 141.709 13.8796 142.133 12.5034 142.555C9.70331 143.414 6.89901 144.263 4.07774 145.049C3.57625 145.189 3.78829 145.963 4.29296 145.828C7.12271 145.071 9.93444 144.253 12.7451 143.429C14.1266 143.025 15.507 142.617 16.8895 142.214L16.8874 142.213Z" fill="#98A2B3"/>
<path id="Vector_76" d="M14.3387 149.57C15.7934 149.165 17.2491 148.764 18.7111 148.385C19.414 148.203 20.1191 148.026 20.8252 147.857C21.4868 147.699 22.2215 147.627 22.8259 147.308C23.2341 147.092 23.0188 146.503 22.6022 146.483C21.9618 146.451 21.297 146.702 20.6789 146.858C19.976 147.035 19.2752 147.22 18.5765 147.411C17.0773 147.82 15.5856 148.252 14.0949 148.689C11.2153 149.534 8.3495 150.421 5.44341 151.169C4.96949 151.291 5.16987 152.017 5.64591 151.901C8.55836 151.185 11.4496 150.376 14.3387 149.571V149.57Z" fill="#98A2B3"/>
<path id="Vector_77" d="M20.1763 153.544C18.7895 153.977 17.3985 154.397 16.0032 154.801C13.2032 155.611 10.3819 156.352 7.53306 156.97C6.97008 157.092 7.20969 157.948 7.77055 157.831C10.6713 157.224 13.5424 156.49 16.3945 155.685C17.8364 155.278 19.274 154.854 20.7064 154.415C21.4093 154.2 22.1123 153.982 22.8131 153.761C23.3994 153.575 24.0249 153.461 24.4914 153.045C24.7586 152.806 24.5232 152.432 24.2253 152.403C23.5711 152.337 22.9 152.678 22.2851 152.875C21.5832 153.101 20.8803 153.323 20.1763 153.544Z" fill="#98A2B3"/>
<path id="Vector_78" d="M21.0118 135.269C21.3013 136.422 21.5133 137.672 22.0137 138.755C22.0434 138.819 22.1463 138.785 22.1452 138.72C22.1261 137.527 21.7402 136.297 21.4433 135.15C21.1168 133.891 20.7415 132.647 20.3714 131.401C20.3099 131.195 19.9929 131.281 20.0491 131.49C20.3905 132.744 20.6959 134.008 21.0129 135.269H21.0118Z" fill="#98A2B3"/>
<path id="Vector_79" d="M22.6814 142.571C22.7875 143.073 22.867 143.642 23.2137 144.035C23.2773 144.107 23.3717 144.042 23.3823 143.965C23.448 143.461 23.2211 142.942 23.0928 142.458C22.9454 141.9 22.8044 141.34 22.6963 140.772C22.6655 140.609 22.3803 140.644 22.4026 140.811C22.4811 141.4 22.5585 141.988 22.6814 142.57V142.571Z" fill="#98A2B3"/>
<path id="Vector_80" d="M205.613 62.7292C206.522 64.7163 208.522 65.9364 210.394 66.8929C211.295 67.3525 212.197 67.8345 213.106 68.3196V67.0846C213.02 67.0401 212.933 66.9956 212.847 66.9511C210.992 66 208.934 65.1812 207.477 63.6348C205.527 61.5641 206.069 58.9014 207.105 56.5182C208.898 52.3928 211.024 48.4156 213.105 44.4235V42.3613C210.811 46.651 208.597 51 206.555 55.4082C205.504 57.677 204.496 60.29 205.612 62.7292H205.613Z" fill="#98A2B3"/>
<path id="Vector_81" d="M197.372 7.70292C197.749 8.57145 198.444 9.26626 199.306 9.65816C200.274 10.0988 201.307 10.0045 202.343 10.0193C203.493 10.0352 204.642 10.0606 205.793 10.0553C205.499 11.034 205.25 12.0106 205.13 13.0348C204.986 14.2719 204.788 15.4773 204.498 16.6911C204.389 17.1497 204.907 17.6348 205.345 17.3414C207.916 15.6181 210.237 13.7222 212.494 11.6102C212.711 11.4079 212.908 11.194 213.107 10.9906V9.5819C212.888 9.75878 212.677 9.96744 212.445 10.2047C210.47 12.2192 208.216 13.9552 205.902 15.5662C206.256 13.5877 206.454 11.6017 207.041 9.65498C207.14 9.32452 206.866 8.9697 206.522 8.97499C205.311 8.99617 204.102 8.97605 202.892 8.95063C201.86 8.92839 200.662 9.06502 199.723 8.56191C197.713 7.48579 198.275 4.86857 198.283 2.99384C198.287 2.03317 198.281 1.06932 198.269 0.105469H197.162C197.161 1.61797 197.143 3.13259 197.094 4.66098C197.06 5.69685 196.949 6.72742 197.372 7.70398V7.70292Z" fill="#98A2B3"/>
<path id="Vector_82" d="M32.8363 203.704C32.8745 202.066 33.1947 200.232 32.1811 198.812C31.2047 197.442 29.7946 197.189 28.2169 197.192C26.0647 197.197 23.9124 197.171 21.7601 197.157C17.2679 197.128 12.7768 197.119 8.28463 197.141C5.52273 197.154 2.76084 197.181 0 197.227V198.275C2.26253 198.235 4.52506 198.209 6.78758 198.192C10.9299 198.161 15.0722 198.162 19.2145 198.176C21.2608 198.182 23.307 198.187 25.3533 198.193C26.3085 198.196 27.2627 198.199 28.2169 198.212C29.0863 198.224 29.8974 198.218 30.6396 198.737C32.1938 199.823 31.8313 201.778 31.7952 203.421C31.7528 205.344 31.6998 207.267 31.6319 209.189C31.5874 210.459 31.5344 211.729 31.4782 212.999H32.514C32.5671 211.909 32.6137 210.818 32.654 209.727C32.7293 207.72 32.7876 205.713 32.8353 203.705L32.8363 203.704Z" fill="#98A2B3"/>
<path id="Vector_83" d="M0.226889 211.882C1.18852 210.733 1.24365 208.883 0 207.932V212.111C0.0795172 212.043 0.155854 211.967 0.226889 211.882Z" fill="#98A2B3"/>
<path id="Vector_84" d="M7.93298 207.737C6.83671 208.1 6.01079 209.331 6.15074 210.475C6.23662 211.18 6.68297 211.819 7.31275 212.15C8.04855 212.535 8.79071 212.316 9.49046 211.966C10.2114 211.604 10.8645 211.096 11.0596 210.277C11.2345 209.546 11.0151 208.734 10.5369 208.162C9.94848 207.459 8.76208 207.322 7.93298 207.737ZM8.9296 211.232C8.06127 211.666 7.06253 211.37 6.91304 210.312C6.86003 209.938 6.96393 209.557 7.16644 209.228C7.28306 209.313 7.45588 209.307 7.57145 209.146C8.13867 208.356 9.46183 207.942 10.011 208.965C10.5677 210.002 9.81913 210.787 8.9296 211.233V211.232Z" fill="#98A2B3"/>
<path id="Vector_85" d="M20.4964 207.781C19.6122 207.074 17.4186 206.925 16.9934 208.205C16.2438 208.889 15.982 210.039 16.5015 211.028C17.3422 212.628 19.3249 212.543 20.6607 211.665C22.039 210.759 21.6552 208.706 20.4964 207.779V207.781ZM19.9992 210.924C19.2104 211.412 18.1565 211.619 17.443 210.878C16.792 210.201 16.915 209.28 17.4938 208.738C17.7462 208.582 18.0006 208.436 18.2593 208.332C18.2667 208.33 18.2731 208.328 18.2805 208.327C18.3208 208.319 18.3537 208.304 18.3834 208.287C18.8584 208.126 19.3461 208.13 19.8518 208.515C20.6014 209.083 20.8929 210.372 20.0002 210.925L19.9992 210.924Z" fill="#98A2B3"/>
<path id="Vector_86" d="M29.9613 205.344C29.9708 204.384 29.9549 203.425 29.9496 202.464C29.9486 202.25 29.6294 202.253 29.6188 202.464C29.5711 203.424 29.5139 204.384 29.481 205.344C29.4524 206.2 29.34 207.128 29.5658 207.964C29.5934 208.063 29.7323 208.058 29.763 207.964C30.026 207.137 29.9528 206.203 29.9613 205.344Z" fill="#98A2B3"/>
<path id="Vector_87" d="M29.7649 210.628C29.7702 210.352 29.3472 210.354 29.3356 210.628C29.3122 211.176 29.29 211.724 29.2709 212.271C29.2624 212.515 29.2369 212.759 29.2486 212.999H29.7098C29.7353 212.761 29.7236 212.514 29.7289 212.271C29.7427 211.724 29.7543 211.176 29.7639 210.628H29.7649Z" fill="#98A2B3"/>
<path id="Vector_88" d="M198.022 201.56C197.993 199.804 199.357 198.705 201.039 198.619C203.131 198.513 205.228 198.46 207.322 198.402C209.25 198.348 211.179 198.307 213.107 198.274V197.227C210.88 197.263 208.652 197.311 206.425 197.375C205.128 197.412 203.831 197.455 202.535 197.503C201.568 197.539 200.516 197.462 199.593 197.792C197.991 198.364 197.094 199.899 197.098 201.578C197.068 205.492 197.167 209.24 197.163 212.999H198.269C198.225 209.168 198.081 205.32 198.022 201.56Z" fill="#98A2B3"/>
<path id="Vector_89" d="M209.963 208.407C209.154 209.076 208.711 210.114 209.334 211.163C210.067 212.394 211.975 213.083 213.106 212.112V207.932C213.059 207.896 213.01 207.86 212.958 207.826C212.127 207.282 210.399 207.44 209.963 208.407ZM212.691 211.172C212.322 211.682 211.838 211.777 211.251 211.581C210.798 211.43 210.297 211.167 210.018 210.763C209.661 210.245 209.725 209.737 209.998 209.312C210.124 209.397 210.316 209.402 210.413 209.28C210.951 208.604 211.699 208.024 212.532 208.706C213.288 209.326 213.223 210.438 212.691 211.172Z" fill="#98A2B3"/>
<path id="Vector_90" d="M210.245 135.282C210.617 136.963 211.008 138.639 211.41 140.311C211.48 140.292 211.551 140.274 211.62 140.254C212.111 140.113 212.31 140.861 211.83 141.014C211.752 141.038 211.674 141.061 211.596 141.083C212.082 143.084 212.588 145.082 213.106 147.074V142.958C212.482 140.472 211.885 137.98 211.323 135.479C211.917 135.277 212.512 135.078 213.106 134.882V133.828C212.268 134.101 211.431 134.379 210.597 134.664C210.329 134.755 210.182 135.004 210.245 135.283V135.282Z" fill="#98A2B3"/>
<path id="Vector_91" d="M209.977 149.907C209.74 148.554 209.502 147.2 209.264 145.846C209.145 145.172 209.026 144.497 208.907 143.821C208.803 143.235 208.519 142.432 208.54 141.799C209.527 141.478 210.593 141.367 211.595 141.083C211.674 141.061 211.752 141.038 211.83 141.013C212.311 140.861 212.111 140.113 211.62 140.254C211.55 140.274 211.48 140.293 211.41 140.311C210.716 140.496 210.004 140.622 209.299 140.751C208.886 140.826 207.987 140.826 207.722 141.23C207.501 141.569 207.677 142.118 207.739 142.477C207.863 143.199 207.988 143.923 208.113 144.645C208.336 145.95 208.56 147.255 208.784 148.56C209.715 153.997 210.646 159.433 211.568 164.871C212.068 167.824 212.574 170.775 213.106 173.723V167.747C212.522 164.419 211.927 161.092 211.347 157.763C210.891 155.144 210.437 152.524 209.977 149.905V149.907Z" fill="#98A2B3"/>
<path id="Vector_92" d="M21.3445 183.173C21.2098 183.058 20.9691 182.98 20.809 183.104C20.0743 183.669 19.3374 184.231 18.6101 184.805C18.2592 185.081 17.7906 185.602 17.376 185.772C16.954 185.945 16.7356 185.306 16.5247 185.007C15.65 183.773 14.5378 182.752 13.2507 181.96C13.1213 181.88 12.8955 181.893 12.7937 182.019C12.0144 182.983 11.3083 184.005 10.6796 185.073C10.4909 185.394 10.9818 185.678 11.1779 185.364C11.7536 184.443 12.3993 183.59 13.1203 182.782C13.8592 183.298 14.5304 183.897 15.1135 184.589C15.4485 184.986 15.7507 185.411 16.0168 185.857C16.1939 186.153 16.3434 186.491 16.6423 186.687C17.3686 187.164 18.0641 186.469 18.5985 186.039C19.4138 185.383 20.2217 184.721 21.0296 184.057C21.8512 184.784 22.4884 185.63 23.2412 186.437C23.5667 186.786 24.1085 186.341 23.8879 185.939C23.2932 184.855 22.2775 183.966 21.3466 183.174L21.3445 183.173Z" fill="#98A2B3"/>
<path id="Vector_93" d="M204.069 39.1197C204.992 39.6662 206.242 39.214 206.729 38.3041C207.282 37.2693 206.95 35.8183 206.036 35.0948C205.302 34.5134 203.971 34.6998 203.876 35.6732C203.764 35.6573 203.641 35.7049 203.594 35.8405C203.226 36.8912 202.901 38.4281 204.069 39.1208V39.1197ZM204.015 36.1561C204.143 36.2038 204.32 36.1445 204.357 35.9983C204.672 34.7432 205.968 35.8352 206.203 36.5385C206.434 37.2323 206.327 38.1103 205.651 38.5181C205.023 38.8983 204.191 38.7469 203.904 38.0319C203.667 37.4409 203.834 36.7556 204.015 36.1561Z" fill="#98A2B3"/>
<path id="Vector_94" d="M41.6534 31.9705C41.1593 31.6231 40.115 31.6157 40.0662 32.4058C40.0546 32.5891 40.3016 32.749 40.4574 32.6304C40.6971 32.4482 40.8943 32.319 41.2028 32.4736C41.6046 32.6749 41.5209 33.1653 41.3205 33.4872C41.0851 33.8633 40.6356 34.1874 40.1797 34.2054C39.9369 34.2149 39.6867 34.1397 39.5923 33.8993C39.516 33.7076 39.5711 33.4544 39.7853 33.3887C40.0493 33.3061 39.939 32.8973 39.6708 32.9735C39.042 33.1515 38.936 34.0179 39.3569 34.4638C39.9994 35.1449 41.1434 34.6598 41.6619 34.074C42.1846 33.483 42.3913 32.4874 41.6555 31.9716L41.6534 31.9705Z" fill="#98A2B3"/>
<path id="Vector_95" d="M30.75 88.5345C29.3802 88.6457 27.7421 90.0925 28.2977 91.5796C28.3878 91.8222 28.6984 91.766 28.7302 91.5214C28.8617 90.5226 29.4024 89.671 30.4213 89.3808C31.3776 89.1075 32.2555 89.6519 32.4888 90.6031C32.6849 91.4038 32.4389 92.4195 31.6883 92.858C31.2027 93.1419 30.5019 93.1779 30.0311 92.8443C29.4205 92.4111 29.4735 91.4737 30.1499 91.1422C30.4605 90.9907 30.1891 90.5374 29.8795 90.6814C28.3772 91.3805 29.0706 93.43 30.4881 93.7149C32.0572 94.0305 33.2564 92.7013 33.3094 91.2237C33.3624 89.7536 32.299 88.4095 30.7489 88.5356L30.75 88.5345Z" fill="#98A2B3"/>
<path id="Vector_96" d="M49.5976 41.4118C50.6758 41.4118 50.6769 39.7383 49.5976 39.7383C48.5183 39.7383 48.5183 41.4118 49.5976 41.4118Z" fill="#98A2B3"/>
<path id="Vector_97" d="M85.0484 106.978C85.3273 106.394 85.2011 105.693 85.4831 105.091C85.9719 104.051 86.8869 104.433 87.7096 104.842C88.6405 105.305 89.5671 105.777 90.4906 106.254C91.2592 106.651 92.1371 107.312 93.0224 107.34C93.3871 107.351 93.5578 106.933 93.3405 106.664C92.9927 106.233 92.5008 106.052 92.0088 105.814C91.4724 105.556 90.9348 105.3 90.3994 105.039C89.4134 104.559 88.4443 104.014 87.4329 103.588C85.8224 102.91 84.5893 103.898 84.249 105.486C84.213 105.653 84.214 105.84 84.1631 106.002C84.1568 106.063 84.1504 106.125 84.1451 106.186C83.9808 106.537 83.7783 106.597 83.5387 106.369C83.1283 106.209 82.7265 105.753 82.3586 105.506C81.609 105.001 80.729 104.459 79.8459 104.223C79.302 104.078 78.6627 104.096 78.2979 104.581C78.0446 104.917 78.0742 105.313 78.0986 105.711C78.1357 106.335 78.1686 106.96 78.2025 107.584C78.229 108.083 79.0072 108.131 78.9892 107.621C78.9691 107.065 78.6128 105.097 79.3242 105.057C79.7335 105.034 80.2678 105.401 80.6008 105.583C80.9824 105.792 81.3514 106.02 81.7076 106.269C82.5028 106.823 84.2872 108.572 85.0484 106.976V106.978Z" fill="#98A2B3"/>
<path id="Vector_98" d="M75.9612 175.021C74.5766 174.977 73.1919 174.947 71.8073 174.915C71.627 173.667 71.2294 172.603 70.7014 171.457C71.7034 170.498 72.5611 169.412 73.5747 168.466C73.7666 168.287 73.757 167.958 73.5747 167.777C72.5229 166.736 71.3418 165.87 70.1554 164.992C69.9646 164.851 69.7091 164.94 69.5479 165.07C68.4442 165.963 67.4868 167.018 66.4075 167.939C65.2444 167.168 64.004 166.472 62.6236 166.224C62.4656 165.676 62.5907 164.87 62.578 164.355C62.5599 163.606 62.5419 162.859 62.5239 162.11C62.5175 161.856 62.3161 161.651 62.0595 161.646C60.3557 161.614 58.6498 161.62 56.946 161.653C56.6714 161.593 56.3385 161.744 56.33 162.109C56.312 162.904 56.2929 163.7 56.2749 164.494C56.2654 164.914 56.2558 165.336 56.2452 165.756C56.2357 166.167 56.2876 166.207 55.8572 166.332C54.675 166.676 53.6318 167.286 52.6182 167.964C51.5346 167.039 50.5762 165.98 49.4704 165.079C49.3156 164.953 49.0622 164.868 48.8787 165.002C47.687 165.877 46.5155 166.747 45.4447 167.77C45.2528 167.953 45.2549 168.289 45.4447 168.472C46.4169 169.415 47.2206 170.5 48.2023 171.432C47.4952 172.515 47.0446 173.648 46.7806 174.917C45.5422 174.949 44.3039 174.946 43.0655 174.982C42.8662 174.987 42.6033 175.134 42.5736 175.356C42.3764 176.813 42.4622 178.237 42.6033 179.695C42.6298 179.973 42.8227 180.231 43.1312 180.222C44.4109 180.187 45.6853 180.154 46.9629 180.066C47.1983 181.43 47.6415 182.787 48.4981 183.891C48.5108 183.908 48.5819 183.98 48.6487 184.053C48.5162 184.15 48.3402 184.391 48.3614 184.361C48.2288 184.547 48.0942 184.732 47.9627 184.918C47.3435 185.796 46.6756 186.632 45.9917 187.46C45.8454 187.637 45.7521 187.925 45.9048 188.136C46.4286 188.86 47.0265 189.49 47.7411 190.028C48.284 190.437 49.0919 191.094 49.8245 191.023C50.4649 190.961 51.1095 190.241 51.5951 189.867C52.3266 189.303 53.0507 188.733 53.8046 188.199C54.7121 188.886 55.5847 189.52 56.6629 189.877C56.5962 191.171 56.6746 192.453 56.8718 193.738C56.9089 193.982 57.2005 194.171 57.4337 194.166C58.6541 194.138 59.8723 194.209 61.0926 194.18C61.3322 194.175 61.628 194 61.6693 193.742C61.8772 192.457 61.9599 191.181 61.8835 189.888C63.1696 189.485 64.3475 188.807 65.4448 188.027C65.9908 188.578 66.557 189.109 67.12 189.645C67.6066 190.11 68.2831 190.877 68.9817 190.999C69.6921 191.123 70.5021 190.478 71.0291 190.088C71.7786 189.535 72.4095 188.885 72.9618 188.136C73.071 187.989 73.0573 187.735 72.9618 187.586C72.5091 186.881 72.0553 186.176 71.5888 185.479C71.2464 184.968 70.8308 184.476 70.4989 183.952C71.3015 182.823 71.8126 181.408 72.0596 180.055C73.3382 180.126 74.6147 180.146 75.8955 180.175C76.1722 180.181 76.3525 179.949 76.3758 179.695C76.5051 178.286 76.6186 176.901 76.433 175.491C76.3991 175.231 76.2443 175.028 75.9602 175.019L75.9612 175.021ZM71.1245 179.374C70.8944 180.772 70.3017 182.52 69.4684 183.542C69.3104 183.736 69.2595 183.97 69.3836 184.198C69.7334 184.839 70.2455 185.42 70.6516 186.029C71.0513 186.627 71.4404 187.232 71.8285 187.837C71.4097 188.357 70.922 188.827 70.3802 189.218C70.1268 189.4 69.8607 189.58 69.585 189.729C69.2468 189.91 69.2182 189.951 68.9022 189.736C67.7996 188.986 66.8168 187.874 65.9018 186.908C65.7481 186.746 65.4204 186.68 65.2285 186.821C63.9732 187.746 62.6373 188.531 61.1042 188.882C60.8657 188.938 60.6536 189.203 60.6696 189.452C60.7448 190.635 60.7236 191.822 60.5752 192.997C59.6941 193.007 58.8142 192.981 57.9331 192.992C57.7772 191.817 57.755 190.636 57.844 189.452C57.8621 189.209 57.6521 188.952 57.42 188.896C56.1148 188.582 55.1542 187.789 54.1036 186.998C53.953 186.885 53.6752 186.894 53.5236 186.998C52.3266 187.82 51.2208 188.759 50.0577 189.626C49.7651 189.844 49.7248 189.938 49.394 189.752C49.1247 189.601 48.8618 189.439 48.6084 189.261C48.0443 188.866 47.5323 188.387 47.0912 187.855C47.6807 187.102 48.2585 186.34 48.795 185.547C49.1703 184.992 49.9453 184.224 49.5128 183.537C49.305 183.206 49.0378 182.92 48.8469 182.571C48.3338 181.631 48.0656 180.566 47.9256 179.511C47.8906 179.246 47.7136 178.965 47.4018 178.988C46.137 179.076 44.8711 179.111 43.6041 179.153C43.5023 178.096 43.4398 177.047 43.5257 175.988C44.747 175.95 45.9695 175.936 47.1909 175.897C47.3923 175.891 47.6298 175.75 47.668 175.534C47.9298 174.067 48.4207 172.822 49.2827 171.605C49.4025 171.437 49.359 171.139 49.2053 171.004C48.2129 170.13 47.4241 169.078 46.5123 168.132C47.3351 167.38 48.2119 166.708 49.1067 166.041C50.185 166.962 51.1466 168.009 52.246 168.906C52.4051 169.036 52.6426 169.109 52.8313 168.982C53.4801 168.544 54.1354 168.107 54.8404 167.766C55.2147 167.585 55.6038 167.434 56.0024 167.315C56.3258 167.217 56.7563 167.213 56.9906 166.95C57.3765 166.518 57.2376 165.572 57.2471 165.055C57.263 164.222 57.28 163.389 57.2959 162.556C58.7315 162.536 60.1681 162.535 61.6036 162.563C61.6185 163.347 61.6333 164.131 61.6481 164.914C61.6587 165.458 61.5008 166.418 61.857 166.895C62.0425 167.143 62.2959 167.128 62.5822 167.191C62.9554 167.272 63.3159 167.402 63.6668 167.554C64.5553 167.938 65.3833 168.466 66.1849 169.002C66.3842 169.135 66.628 169.06 66.7966 168.923C67.8929 168.027 68.8513 166.983 69.9232 166.06C70.8223 166.726 71.6981 167.402 72.5325 168.146C71.6387 169.113 70.8764 170.191 69.8639 171.048C69.7038 171.184 69.7228 171.407 69.796 171.578C70.342 172.855 70.7619 174.002 70.869 175.404C70.8902 175.682 71.081 175.891 71.3673 175.902C72.7572 175.959 74.1472 175.926 75.5371 175.955C75.6336 177.041 75.5742 178.116 75.4661 179.199C74.1843 179.149 72.9046 179.1 71.6238 178.992C71.4182 178.975 71.1563 179.165 71.1224 179.373L71.1245 179.374Z" fill="#98A2B3"/>
<path id="Vector_99" d="M59.3877 170.256C58.6201 170.289 57.8377 170.402 57.0923 170.729C57.0902 170.729 57.0892 170.731 57.0881 170.732C54.2955 171.51 52.6532 173.892 51.9852 176.643C51.2197 179.796 52.967 183.429 55.9865 184.678C58.829 185.854 62.6596 185.292 64.6592 182.837C66.6567 180.384 67.2048 176.694 65.7194 173.884C64.4768 171.531 61.963 170.146 59.3888 170.256H59.3877ZM64.3263 181.079C63.0031 183.538 60.0917 184.429 57.4454 183.89C54.6665 183.324 52.6553 180.55 52.8663 177.722C52.967 176.378 53.5713 174.94 54.3103 173.817C55.0715 172.661 56.1763 171.975 57.5016 171.627C57.544 171.616 57.5822 171.6 57.6161 171.582C58.5947 171.285 59.7397 171.318 60.7681 171.524C62.0807 171.786 63.2586 172.474 64.0517 173.555C64.8013 174.578 65.3759 175.878 65.3579 177.164C65.3399 178.466 64.9412 179.936 64.3263 181.079Z" fill="#98A2B3"/>
<path id="Vector_100" d="M66.102 170.297C65.0746 169.495 63.7981 168.539 62.4877 168.318C62.247 168.277 62.1421 168.643 62.3859 168.687C63.6423 168.915 64.9093 169.883 65.8868 170.674C66.8951 171.49 67.5026 172.415 68.1854 173.492C68.2829 173.646 68.5183 173.547 68.478 173.369C68.1991 172.127 67.0658 171.049 66.102 170.298V170.297Z" fill="#98A2B3"/>
<path id="Vector_101" d="M69.1577 175.056C69.0781 174.833 68.7262 174.923 68.7982 175.155C68.9668 175.694 69.1089 176.241 69.2086 176.798C69.286 177.229 69.2414 177.719 69.5234 178.068C69.5627 178.117 69.6507 178.1 69.6782 178.048C69.8829 177.665 69.7259 177.194 69.6443 176.787C69.5266 176.197 69.3602 175.623 69.1577 175.057V175.056Z" fill="#98A2B3"/>
<path id="Vector_102" d="M162.794 143.782C160.378 144.952 158.47 147.776 158.791 150.499C158.972 152.032 159.809 153.303 160.956 154.306C161.936 155.163 163.196 155.951 164.53 156.043C164.625 156.164 164.769 156.25 164.961 156.264C167.518 156.46 170.602 155.244 171.717 152.808C172.838 150.358 172.01 147.591 170.221 145.699C168.395 143.768 165.331 142.553 162.794 143.783V143.782ZM170.826 151.623C170.176 154.079 167.315 155.235 164.961 155.069C164.834 155.06 164.729 155.084 164.644 155.133C162.763 154.383 160.764 153.351 160.105 151.283C159.366 148.962 160.779 146.715 162.623 145.388C166.385 142.68 171.929 147.46 170.826 151.624V151.623Z" fill="#98A2B3"/>
<path id="Vector_103" d="M173.558 156.125C176.106 152.929 175.506 148.024 173.433 144.721C178.584 139.436 183.54 133.937 188.424 128.407C188.598 128.211 188.622 127.91 188.424 127.716C185.744 125.089 182.834 122.721 180.151 120.096C179.966 119.914 179.676 119.923 179.489 120.096C178.171 121.318 177.098 122.749 175.845 124.03C175.674 124.205 175.651 124.527 175.845 124.7C177.062 125.78 178.233 126.909 179.453 127.986C179.218 128.251 179.007 128.538 178.756 128.774C177.84 127.991 176.866 127.283 175.969 126.478C175.795 126.322 175.509 126.251 175.3 126.392C174.385 127.007 173.935 127.911 173.232 128.727C173.03 128.962 173.018 129.275 173.232 129.51C174.572 130.98 176.167 132.148 177.547 133.57C175.18 136.354 172.644 138.987 170.251 141.749C168.716 140.796 167.097 140.012 165.252 139.965C163.343 139.917 161.37 140.473 159.814 141.586C158.213 142.731 156.889 144.497 156.096 146.287C155.219 148.264 155.222 150.289 155.834 152.345C156.902 155.934 160.208 158.813 163.942 159.372C167.465 159.899 171.249 159.021 173.558 156.125ZM165.48 158.373C162.407 158.203 159.095 156.337 157.673 153.538C156.867 151.948 156.41 149.829 156.835 148.081C157.263 146.32 158.359 144.651 159.625 143.371C160.949 142.032 162.809 141.246 164.684 141.138C166.673 141.024 168.343 141.833 169.996 142.844C170.197 143.078 170.547 143.168 170.794 142.866C173.316 139.796 176.123 136.98 178.68 133.94C178.879 133.703 178.895 133.396 178.68 133.159C177.336 131.684 175.738 130.512 174.355 129.082C174.738 128.562 175.083 128.003 175.562 127.576C176.481 128.349 177.458 129.05 178.359 129.845C178.53 129.995 178.805 130.065 179.009 129.929C179.613 129.527 179.908 128.832 180.502 128.424C180.76 128.246 180.887 127.83 180.609 127.594C179.343 126.517 178.127 125.387 176.857 124.315C177.833 123.219 178.76 122.093 179.817 121.073C182.288 123.475 184.931 125.686 187.403 128.086C182.515 133.605 177.594 139.08 172.35 144.266C172.186 144.429 172.133 144.727 172.264 144.928C174.048 147.635 174.845 151.398 173.332 154.413C171.904 157.259 168.498 158.537 165.479 158.371L165.48 158.373Z" fill="#98A2B3"/>
<path id="Vector_104" d="M168.519 123.273C170.936 122.102 172.725 119.444 172.404 116.721C172.223 115.188 171.478 113.903 170.331 112.901C169.246 111.952 167.894 111.093 166.087 111.061C163.579 110.945 160.789 111.999 159.708 114.362C158.587 116.812 159.278 119.616 161.067 121.508C162.893 123.439 165.983 124.501 168.52 123.273H168.519ZM160.46 115.583C161.111 113.127 163.943 111.866 166.296 112.033C168.222 112.516 170.473 113.702 171.182 115.924C171.92 118.245 170.508 120.492 168.663 121.819C164.902 124.527 159.358 119.747 160.46 115.583Z" fill="#98A2B3"/>
<path id="Vector_105" d="M166.035 127.242C167.944 127.291 169.917 126.735 171.473 125.622C173.074 124.477 174.398 122.711 175.191 120.921C176.068 118.944 176.065 116.918 175.453 114.863C174.386 111.274 171.079 108.394 167.345 107.836C163.823 107.309 160.039 108.187 157.729 111.082C155.181 114.279 155.781 119.184 157.854 122.487C152.702 127.772 147.747 133.271 142.863 138.801C142.689 138.997 142.665 139.298 142.863 139.492C145.543 142.118 148.453 144.487 151.136 147.111C151.321 147.293 151.611 147.285 151.798 147.111C153.116 145.89 154.189 144.459 155.442 143.178C155.613 143.003 155.636 142.681 155.442 142.508C154.225 141.428 153.054 140.299 151.835 139.221C152.069 138.957 152.279 138.67 152.531 138.433C153.446 139.216 154.421 139.925 155.318 140.73C155.492 140.885 155.779 140.956 155.987 140.816C156.902 140.2 157.352 139.297 158.055 138.481C158.257 138.246 158.269 137.932 158.055 137.697C156.715 136.227 155.12 135.06 153.74 133.638C156.107 130.854 158.643 128.221 161.036 125.459C162.571 126.412 164.19 127.196 166.035 127.242ZM156.933 138.123C156.55 138.643 156.205 139.202 155.727 139.629C154.807 138.856 153.83 138.156 152.929 137.361C152.758 137.21 152.483 137.14 152.279 137.277C151.675 137.678 151.38 138.373 150.786 138.782C150.528 138.96 150.401 139.375 150.679 139.611C151.945 140.688 153.161 141.819 154.431 142.89C153.456 143.987 152.528 145.113 151.471 146.133C149.001 143.73 146.357 141.52 143.885 139.12C148.774 133.6 153.694 128.126 158.938 122.94C159.102 122.777 159.155 122.478 159.024 122.278C157.241 119.571 156.443 115.807 157.956 112.793C159.384 109.947 162.935 108.556 165.954 108.723C169.026 108.892 172.343 110.812 173.764 113.613C174.571 115.203 174.881 117.378 174.454 119.128C174.026 120.888 172.93 122.558 171.664 123.838C170.34 125.177 168.48 125.963 166.606 126.071C164.617 126.185 162.946 125.376 161.293 124.364C161.092 124.13 160.743 124.04 160.496 124.342C157.973 127.413 155.166 130.229 152.61 133.269C152.41 133.506 152.394 133.812 152.61 134.05C153.953 135.525 155.552 136.696 156.934 138.126L156.933 138.123Z" fill="#98A2B3"/>
<path id="Vector_106" d="M182.175 131.409C182.671 131.029 183.02 130.49 183.397 129.998C183.912 129.323 184.432 128.653 184.952 127.982C185.11 127.778 184.828 127.487 184.663 127.694C184.181 128.301 183.7 128.909 183.214 129.512C182.785 130.044 182.255 130.58 181.979 131.21C181.929 131.324 182.047 131.507 182.176 131.407L182.175 131.409Z" fill="#98A2B3"/>
<path id="Vector_107" d="M103.072 156.97C103.118 155.135 103.176 153.302 103.231 151.467C103.338 147.885 103.37 144.304 103.336 140.721C103.068 140.808 102.814 140.844 102.519 140.8C102.458 144.357 102.27 147.913 102.128 151.467C102.057 153.254 101.983 155.04 101.92 156.827C101.866 158.361 101.647 160.037 101.804 161.591C102.046 161.689 102.286 161.755 102.498 161.738C102.649 161.725 102.804 161.696 102.961 161.654C103.029 160.998 103.004 160.329 103.016 159.67C103.031 158.77 103.051 157.87 103.073 156.971L103.072 156.97Z" fill="#98A2B3"/>
<path id="Vector_108" d="M121.635 152.07C121.959 151.886 122.578 151.69 122.777 151.361C122.993 151.001 122.875 150.26 122.894 149.849C122.95 148.646 123.01 147.443 123.071 146.238C123.354 140.659 123.645 135.077 123.672 129.489C123.672 129.329 123.591 129.223 123.481 129.17C123.399 129.317 123.236 129.421 123.05 129.385C123.1 129.525 123.072 129.687 122.921 129.79C122.838 136.829 122.343 143.853 121.985 150.882C116.39 153.979 110.956 157.358 105.372 160.473C104.677 160.86 103.793 161.433 102.96 161.653C102.803 161.694 102.648 161.724 102.497 161.736C102.284 161.753 102.046 161.688 101.803 161.589C101.46 161.449 101.11 161.244 100.827 161.112C100.3 160.869 99.7983 160.582 99.2904 160.299C96.5805 158.79 93.8695 157.281 91.1595 155.773C88.2322 154.144 85.3049 152.514 82.3776 150.884C82.4222 147.417 82.4667 143.952 82.5102 140.485C82.5324 138.74 82.5547 136.994 82.577 135.25C82.5982 133.555 82.6639 131.859 82.5261 130.17C82.4847 130.135 82.4423 130.1 82.402 130.064C82.3564 130.024 82.3267 129.977 82.3077 129.929C82.278 129.939 82.2483 129.948 82.2186 129.958C81.9111 130.049 81.6185 129.776 81.5952 129.494C81.4733 131.292 81.4966 133.326 81.4796 135.106C81.4627 136.899 81.4446 138.693 81.4277 140.486C81.3937 144.054 81.3588 147.623 81.3238 151.191C81.3216 151.372 81.4245 151.556 81.5835 151.645C85.6188 153.875 89.6529 156.105 93.6882 158.334C95.657 159.422 97.6163 160.528 99.5936 161.599C100.295 161.979 101.039 162.286 101.778 162.588C102.538 162.898 103.228 162.556 103.956 162.253C105.748 161.508 107.409 160.438 109.082 159.463C111.207 158.225 113.315 156.956 115.429 155.698C117.488 154.473 119.55 153.253 121.635 152.071V152.07Z" fill="#98A2B3"/>
<path id="Vector_109" d="M122.93 129.344C122.806 129.279 122.682 129.214 122.558 129.148C122.543 129.155 122.529 129.159 122.514 129.168C119.498 130.822 116.504 132.513 113.508 134.201C110.685 135.791 107.89 137.526 104.976 138.945C104.29 139.278 103.183 140.033 102.521 139.808C101.712 139.534 100.939 139.111 100.183 138.718C97.6736 137.413 95.2213 135.99 92.7351 134.64C91.0896 133.747 89.442 132.858 87.7976 131.962C86.9589 131.505 86.1213 131.046 85.2848 130.586C84.6116 130.215 83.9521 129.82 83.2365 129.547C82.9343 129.696 82.6247 129.829 82.3066 129.931C82.3257 129.98 82.3565 130.025 82.401 130.066C82.4413 130.102 82.4837 130.137 82.525 130.172C83.7804 131.24 85.4333 131.919 86.8752 132.695C88.403 133.516 89.9329 134.332 91.4628 135.15C94.1505 136.586 96.8063 138.092 99.512 139.493C100.329 139.917 101.16 140.338 102.022 140.667C102.203 140.736 102.365 140.779 102.517 140.801C102.813 140.845 103.066 140.809 103.334 140.722C103.571 140.645 103.819 140.53 104.117 140.397C106.948 139.133 109.598 137.449 112.279 135.899C115.809 133.859 119.334 131.81 122.889 129.813C122.901 129.806 122.909 129.798 122.92 129.791C123.071 129.688 123.099 129.527 123.049 129.387C123.01 129.379 122.97 129.368 122.929 129.345L122.93 129.344Z" fill="#98A2B3"/>
<path id="Vector_110" d="M82.2186 129.958C82.2483 129.95 82.278 129.939 82.3077 129.929C82.6258 129.828 82.9354 129.695 83.2375 129.545C83.7804 129.276 84.3031 128.954 84.8268 128.669C85.6898 128.199 86.5507 127.726 87.4106 127.251C89.019 126.362 90.621 125.461 92.2336 124.581C95.4259 122.837 98.6628 121.18 101.989 119.707C109.119 122.255 115.871 125.622 122.557 129.148C122.681 129.213 122.805 129.278 122.929 129.344C122.97 129.365 123.01 129.377 123.049 129.385C123.235 129.421 123.398 129.317 123.48 129.17C123.575 128.998 123.559 128.771 123.335 128.651C117.974 125.78 112.598 122.915 106.991 120.545C105.64 119.975 104.279 119.435 102.904 118.926C102.608 118.817 102.226 118.595 101.901 118.626C101.626 118.651 101.304 118.862 101.057 118.97C100.338 119.286 99.6234 119.609 98.912 119.941C96.1776 121.218 93.5027 122.616 90.851 124.053C89.3858 124.848 87.9237 125.649 86.4649 126.454C85.6835 126.885 84.9021 127.314 84.1186 127.74C83.3139 128.179 82.4561 128.559 81.7458 129.144C81.6281 129.24 81.5857 129.367 81.5963 129.492C81.6196 129.774 81.9122 130.048 82.2197 129.956L82.2186 129.958Z" fill="#98A2B3"/>
<path id="Vector_111" d="M120.702 133.976C120.638 135.25 120.547 136.522 120.498 137.798C120.447 139.117 120.314 140.478 120.46 141.794C120.476 141.934 120.7 141.996 120.729 141.83C120.958 140.543 120.912 139.198 120.932 137.895C120.952 136.588 120.924 135.283 120.93 133.977C120.93 133.83 120.708 133.831 120.701 133.977L120.702 133.976Z" fill="#98A2B3"/>
<path id="Vector_112" d="M120.37 143.951C120.345 144.441 120.321 144.931 120.298 145.421C120.28 145.807 120.219 146.208 120.411 146.554C120.453 146.63 120.556 146.621 120.6 146.554C120.814 146.226 120.781 145.803 120.792 145.421C120.805 144.931 120.816 144.441 120.828 143.951C120.835 143.655 120.385 143.659 120.371 143.951H120.37Z" fill="#98A2B3"/>
<path id="Vector_113" d="M90.7111 208.81C90.4545 208.902 90.1895 208.946 89.917 208.868C89.9064 208.865 89.8947 208.861 89.8841 208.857C89.8396 210.237 89.7569 211.618 89.6816 212.997H90.7408C90.7546 211.601 90.7387 210.206 90.7111 208.809V208.81Z" fill="#98A2B3"/>
<path id="Vector_114" d="M101.415 202.697C101.415 202.61 101.391 202.537 101.35 202.482C101.322 202.621 101.221 202.749 101.087 202.805C101.065 202.888 101.012 202.964 100.915 203.02C100.829 203.069 100.744 203.119 100.658 203.168C100.6 206.449 100.385 209.724 100.199 213H101.052C101.069 212.603 101.087 212.206 101.105 211.808C101.249 208.773 101.405 205.737 101.414 202.697H101.415Z" fill="#98A2B3"/>
<path id="Vector_115" d="M79.7909 208.351C79.8121 206.811 79.9934 205.158 79.828 203.6C79.6595 203.469 79.5068 203.327 79.3753 203.172C79.1633 203.184 78.9809 203.073 78.8887 202.914C78.5271 204.657 78.7222 206.583 78.7074 208.351C78.7 209.19 78.6936 210.029 78.6862 210.867C79.0424 210.855 79.3997 210.843 79.7559 210.83C79.7676 210.003 79.7793 209.177 79.7909 208.35V208.351Z" fill="#98A2B3"/>
<path id="Vector_116" d="M78.6775 211.892C78.6743 212.26 78.6711 212.629 78.668 212.998H79.725C79.7303 212.62 79.7356 212.241 79.7409 211.863C79.3868 211.873 79.0316 211.882 78.6775 211.892Z" fill="#98A2B3"/>
<path id="Vector_117" d="M100.751 202.785C100.588 202.699 100.424 202.613 100.259 202.527C98.3203 203.584 96.3939 204.666 94.4621 205.737C93.4517 206.297 92.4477 206.882 91.4193 207.409C91.1267 207.559 90.8234 207.694 90.5202 207.822C90.2233 207.947 90.1979 207.945 89.8671 207.801C88.3117 207.128 86.8561 206.187 85.3728 205.375C84.4334 204.862 83.493 204.351 82.5547 203.836C81.9302 203.494 81.274 203.029 80.5859 202.73C80.2074 202.931 79.8225 203.097 79.4398 203.165C79.4175 203.169 79.3963 203.17 79.374 203.171C79.5055 203.326 79.6582 203.468 79.8267 203.599C80.5678 204.175 81.6058 204.556 82.3798 204.968C83.4485 205.536 84.5193 206.102 85.588 206.672C86.943 207.395 88.3849 208.422 89.883 208.858C89.8936 208.861 89.9053 208.865 89.9159 208.869C90.1884 208.946 90.4524 208.902 90.71 208.81C90.9963 208.708 91.274 208.542 91.5433 208.415C92.5315 207.946 93.4666 207.344 94.4112 206.795C96.4914 205.582 98.5663 204.359 100.658 203.166C100.744 203.117 100.829 203.068 100.915 203.019C101.012 202.964 101.065 202.886 101.086 202.804C100.988 202.844 100.871 202.847 100.751 202.784V202.785Z" fill="#98A2B3"/>
<path id="Vector_118" d="M79.375 203.172C79.3962 203.171 79.4185 203.17 79.4408 203.166C79.8235 203.098 80.2094 202.933 80.5869 202.731C81.1075 202.453 81.6142 202.107 82.0807 201.848C82.9692 201.357 83.8524 200.856 84.7409 200.367C86.4022 199.453 88.0859 198.584 89.8151 197.806C93.4273 199.096 96.8646 200.756 100.259 202.526C100.424 202.612 100.587 202.697 100.751 202.784C100.872 202.847 100.988 202.845 101.086 202.804C101.221 202.748 101.322 202.62 101.349 202.481C101.378 202.337 101.328 202.182 101.156 202.09C99.2681 201.072 97.3809 200.05 95.4545 199.106C94.549 198.662 93.6351 198.238 92.7095 197.837C92.2579 197.643 91.8052 197.452 91.3471 197.271C90.9262 197.104 90.3166 196.753 89.8639 196.724C89.4896 196.7 89.1026 196.969 88.7687 197.118C88.2778 197.337 87.7911 197.563 87.3066 197.796C86.3662 198.248 85.4385 198.725 84.5171 199.214C83.5852 199.709 82.6586 200.213 81.734 200.72C80.8551 201.202 79.6592 201.63 78.9658 202.353C78.793 202.533 78.7919 202.748 78.8873 202.913C78.9796 203.072 79.1619 203.183 79.374 203.171L79.375 203.172Z" fill="#98A2B3"/>
<path id="Vector_119" d="M75.1967 211.987C76.3566 211.956 77.5175 211.925 78.6774 211.894C79.0316 211.884 79.3867 211.875 79.7408 211.865C79.7758 211.865 79.8108 211.863 79.8469 211.862C80.6304 211.841 81.4139 211.821 82.1985 211.8C82.9703 211.778 83.7973 211.844 84.5341 211.584C84.8883 211.459 84.9222 210.943 84.5341 210.831C83.8259 210.626 83.0753 210.719 82.3458 210.743C81.5613 210.768 80.7778 210.796 79.9932 210.822C79.9137 210.825 79.8352 210.827 79.7557 210.831C79.3995 210.843 79.0422 210.855 78.6859 210.868C77.5228 210.908 76.3598 210.947 75.1967 210.987C72.0224 211.096 68.8481 211.205 65.6737 211.307C65.4119 211.316 65.2157 211.516 65.204 211.776C65.186 212.184 65.1701 212.592 65.1553 212.999H66.0989C66.1052 212.743 66.1148 212.488 66.1243 212.233C69.1481 212.15 72.1719 212.069 75.1956 211.987H75.1967Z" fill="#98A2B3"/>
<path id="Vector_120" d="M99.0656 208.034C99.0518 207.219 99.0561 206.405 99.0815 205.59C99.0879 205.372 98.7571 205.375 98.7433 205.59C98.6924 206.404 98.6479 207.218 98.6235 208.034C98.6013 208.751 98.5111 209.538 98.7274 210.229C98.7698 210.364 98.9755 210.376 99.0126 210.229C99.1907 209.527 99.0784 208.752 99.0656 208.034Z" fill="#98A2B3"/>
<path id="Vector_121" d="M66.8369 28.6519C66.857 27.651 66.8846 26.649 66.91 25.6481C66.9556 23.7988 66.9387 21.9537 66.9026 20.1055C66.646 20.1976 66.381 20.2421 66.1085 20.1637C66.0979 20.1605 66.0862 20.1563 66.0756 20.1531C66.0173 21.9855 65.888 23.8158 65.8053 25.6471C65.7618 26.6014 65.7194 27.5557 65.6823 28.51C65.6568 29.1678 65.5604 29.8869 65.5996 30.5701C65.7671 30.64 65.9346 30.6961 66.1 30.73C66.3099 30.7724 66.5644 30.711 66.8263 30.6019C66.8846 29.9579 66.8263 29.279 66.8379 28.6509L66.8369 28.6519Z" fill="#98A2B3"/>
<path id="Vector_122" d="M77.2783 14.1004C77.2571 14.183 77.2041 14.2593 77.1065 14.3154C77.0206 14.3641 76.9358 14.4139 76.8499 14.4626C76.7863 18.0299 76.5372 21.5888 76.3431 25.1508C74.5238 26.1549 72.7341 27.2108 70.9392 28.2573C69.9892 28.8113 69.0382 29.3642 68.0787 29.9022C67.7627 30.0802 67.2814 30.4138 66.8244 30.6034C66.5625 30.7125 66.3091 30.7739 66.0982 30.7315C65.9328 30.6976 65.7652 30.6415 65.5977 30.5716C64.9648 30.3079 64.3286 29.8365 63.7816 29.5304C62.8994 29.0379 62.0184 28.5454 61.1363 28.054C59.3922 27.0795 57.6471 26.1061 55.903 25.1317C55.9295 23.3036 55.9549 21.4744 55.9804 19.6462C56.0016 18.1062 56.1829 16.4539 56.0175 14.8958C55.8489 14.7645 55.6963 14.6226 55.5648 14.4679C55.3527 14.4796 55.1704 14.3684 55.0781 14.2095C54.7177 15.9518 54.9117 17.8785 54.8968 19.6462C54.8809 21.576 54.865 23.5069 54.8491 25.4367C54.8481 25.6179 54.9499 25.8021 55.1089 25.8901C57.3131 27.1039 59.5163 28.3177 61.7205 29.5326C62.7383 30.0929 63.7423 30.6955 64.7814 31.2145C65.1429 31.3946 65.5458 31.6075 65.9349 31.7155C66.3356 31.8267 66.7173 31.6467 67.0916 31.492C69.2576 30.596 71.2657 29.1523 73.2717 27.9512C74.3785 27.2892 75.4875 26.6304 76.6082 25.9928C77.0641 25.7344 77.1754 25.6528 77.203 25.1243C77.238 24.4506 77.2624 23.777 77.2952 23.1034C77.4394 20.0678 77.5953 17.0322 77.6048 13.9924C77.6048 13.9044 77.5804 13.8324 77.5391 13.7773C77.5115 13.9161 77.4108 14.0443 77.2761 14.1004H77.2783Z" fill="#98A2B3"/>
<path id="Vector_123" d="M67.6107 18.7031C67.3181 18.8535 67.0148 18.988 66.7116 19.1162C66.4147 19.2412 66.3893 19.239 66.0585 19.095C64.5032 18.4224 63.0475 17.4808 61.5642 16.6695C60.6248 16.1558 59.6844 15.6453 58.7461 15.1305C58.1216 14.7884 57.4654 14.3234 56.7773 14.0237C56.3988 14.2249 56.0139 14.3912 55.6312 14.459C55.6089 14.4632 55.5877 14.4643 55.5654 14.4653C55.6969 14.62 55.8496 14.7619 56.0181 14.8933C56.7592 15.4694 57.7972 15.8497 58.5712 16.2617C59.6399 16.8305 60.7107 17.3961 61.7794 17.9659C63.1344 18.6893 64.5763 19.7157 66.0744 20.1521C66.085 20.1552 66.0967 20.1595 66.1073 20.1626C66.3798 20.24 66.6438 20.1965 66.9014 20.1044C67.1877 20.0017 67.4654 19.8364 67.7347 19.7093C68.7229 19.2401 69.658 18.6385 70.6027 18.0888C72.6828 16.876 74.7577 15.6527 76.8495 14.4601C76.9354 14.4113 77.0202 14.3615 77.1061 14.3128C77.2036 14.2578 77.2566 14.1804 77.2779 14.0978C77.1793 14.1381 77.0626 14.1412 76.9428 14.0777C76.7795 13.9919 76.6152 13.9061 76.4509 13.8203C74.5117 14.8774 72.5853 15.9588 70.6535 17.0296C69.6431 17.5899 68.6391 18.1746 67.6107 18.702V18.7031Z" fill="#98A2B3"/>
<path id="Vector_124" d="M66.1839 9.16457C69.7314 10.4451 73.1114 12.0805 76.4512 13.8218C76.6155 13.9075 76.7788 13.9923 76.9431 14.0791C77.064 14.1427 77.1795 14.1406 77.2781 14.0993C77.4128 14.0431 77.5135 13.915 77.5411 13.7762C77.5697 13.6322 77.5199 13.4775 77.3481 13.3854C75.4598 12.3675 73.5726 11.3454 71.6462 10.4017C70.7408 9.95789 69.8268 9.53316 68.9013 9.13279C68.4496 8.9379 67.9969 8.74725 67.5389 8.56613C67.1487 8.41149 66.5953 8.09798 66.1553 8.03125C66.1638 8.40938 66.1722 8.7875 66.1828 9.16457H66.1839Z" fill="#98A2B3"/>
<path id="Vector_125" d="M55.5655 14.4666C55.5867 14.4655 55.6089 14.4645 55.6312 14.4602C56.0139 14.3924 56.3999 14.2272 56.7773 14.0249C57.2979 13.7474 57.8047 13.401 58.2712 13.1426C59.1596 12.6511 60.0428 12.1502 60.9313 11.6608C62.3022 10.9067 63.6889 10.1833 65.1022 9.51599C65.0895 9.13045 65.0789 8.74491 65.0704 8.35938C65.0333 8.37844 64.9962 8.39539 64.9591 8.41233C64.4682 8.63158 63.9816 8.85719 63.497 9.0902C62.5566 9.54247 61.6289 10.0191 60.7076 10.5084C59.7756 11.0031 58.849 11.5072 57.9245 12.0146C57.0466 12.4965 55.8496 12.9244 55.1562 13.6468C54.9834 13.8268 54.9823 14.0418 55.0778 14.2071C55.17 14.366 55.3524 14.4772 55.5644 14.4655L55.5655 14.4666Z" fill="#98A2B3"/>
<path id="Vector_126" d="M89.4909 4.3231C89.4654 4.98085 89.369 5.70003 89.4082 6.38319C89.5757 6.4531 89.7432 6.50924 89.9086 6.54313C90.1185 6.5855 90.373 6.52406 90.6349 6.41497C90.6932 5.77099 90.6349 5.09206 90.6465 4.46397C90.6667 3.46305 90.6942 2.46107 90.7197 1.46015C90.7303 1.00789 90.7377 0.556677 90.742 0.105469H89.6828C89.6584 0.556677 89.6351 1.00894 89.6149 1.46015C89.5715 2.41447 89.5291 3.36878 89.492 4.3231H89.4909Z" fill="#98A2B3"/>
<path id="Vector_127" d="M78.9192 1.70059C81.1234 2.9144 83.3266 4.12821 85.5308 5.34308C86.5475 5.90339 87.5526 6.50606 88.5917 7.02505C88.9532 7.20511 89.3561 7.41801 89.7452 7.52604C90.146 7.63726 90.5276 7.4572 90.9019 7.30256C93.068 6.4065 95.076 4.96284 97.082 3.76174C98.1889 3.09975 99.2979 2.44095 100.419 1.80332C100.874 1.54383 100.986 1.46333 101.013 0.934802C101.027 0.658358 101.04 0.381913 101.051 0.105469H100.199C100.183 0.390387 100.167 0.676364 100.151 0.961281C98.332 1.96538 96.5423 3.02137 94.7474 4.06784C93.7974 4.62179 92.8464 5.17468 91.8869 5.71274C91.5709 5.89068 91.0896 6.22432 90.6326 6.41391C90.3707 6.523 90.1173 6.58444 89.9063 6.54207C89.741 6.50818 89.5734 6.45204 89.4059 6.38213C88.773 6.1184 88.1368 5.64707 87.5897 5.34097C86.7076 4.84845 85.8266 4.35593 84.9445 3.86448C83.2004 2.89004 81.4553 1.91666 79.7112 0.942216C79.7154 0.663653 79.7186 0.384032 79.7228 0.105469H78.6658C78.6626 0.485712 78.6594 0.867015 78.6563 1.24726C78.6552 1.42838 78.757 1.61267 78.916 1.70059H78.9192Z" fill="#98A2B3"/>
<path id="Vector_128" d="M65.0715 8.36173C65.08 8.74727 65.0906 9.13281 65.1033 9.51835C65.1553 11.0891 65.2422 12.6609 65.3716 14.237C65.4267 14.9011 66.4668 14.9117 66.418 14.237C66.2972 12.5476 66.2282 10.8571 66.1826 9.16564C66.172 8.78752 66.1636 8.40939 66.1551 8.03233C66.1445 7.54299 66.1349 7.05365 66.1265 6.56325C66.0904 4.42054 66.0416 2.25453 66.0989 0.105469H65.1553C65.0524 2.86356 65.0111 5.61211 65.0715 8.36173Z" fill="#98A2B3"/>
<path id="Vector_129" d="M75.3539 22.6263C75.5468 21.8298 75.3984 20.9221 75.3952 20.1065C75.392 19.1819 75.4154 18.2583 75.4588 17.3357C75.4705 17.0974 75.1068 17.1006 75.0899 17.3357C75.0199 18.2583 74.9701 19.1819 74.9499 20.1065C74.9319 20.9126 74.8184 21.8521 75.0687 22.6263C75.1111 22.7587 75.3178 22.7746 75.3539 22.6263Z" fill="#98A2B3"/>
<path id="Vector_130" d="M103.496 29.7071C102.494 34.7752 101.84 40.4323 103.656 45.3903C105.462 50.3165 109.158 54.0914 113.945 56.2044C116.872 57.4966 120.267 58.4785 122.098 61.316C122.47 61.8932 123.362 61.4283 123.14 60.8553C124.191 58.3429 126.587 56.8219 128.695 55.2406C130.866 53.6126 132.977 51.9264 134.607 49.7329C136.232 47.5446 137.325 44.9804 137.793 42.2954C138.228 39.7893 138.04 37.2961 137.524 34.8165C136.926 31.9388 135.951 29.1489 134.805 26.4469C134.69 26.1758 134.287 26.1133 134.058 26.2489C131.71 27.6353 129.182 28.9561 126.425 29.2347C123.875 29.4921 121.164 28.8089 119.426 26.8399C119.194 26.5762 118.736 26.6588 118.572 26.949C117.368 29.0673 115.098 30.278 112.736 30.6328C109.83 31.0692 106.898 30.243 104.17 29.3152C103.899 29.223 103.549 29.4296 103.494 29.7071H103.496ZM113.287 31.6454C115.595 31.2238 117.785 30.0227 119.135 28.095C121 29.8416 123.683 30.5343 126.208 30.3415C129.036 30.1254 131.645 28.9021 134.076 27.505C135.925 31.9568 137.558 37.0609 136.75 41.8897C136.309 44.526 135.273 47.0394 133.682 49.1938C132.04 51.4191 129.839 53.0735 127.677 54.7565C125.711 56.287 123.679 57.7741 122.552 60.0016C121.042 58.1205 118.862 57.0496 116.643 56.1208C114.09 55.051 111.659 53.9706 109.551 52.1298C105.717 48.7807 103.772 44.0176 103.675 38.9823C103.619 36.1627 103.937 33.3411 104.454 30.5714C107.293 31.4992 110.302 32.1908 113.287 31.6464V31.6454Z" fill="#98A2B3"/>
<path id="Vector_131" d="M120.768 48.5732C121.102 48.8613 121.524 48.7226 121.678 48.3296C122.678 45.7865 123.751 43.2678 124.948 40.8105C125.566 39.5417 126.215 38.2876 126.92 37.0653C127.256 36.4817 127.605 35.9055 127.975 35.3431C128.29 34.8643 128.697 34.4163 128.885 33.8708C129.016 33.4895 128.521 33.1146 128.187 33.3391C127.248 33.9704 126.618 35.3632 126.058 36.3175C125.289 37.6277 124.586 38.9771 123.919 40.3413C122.809 42.6111 121.772 44.9265 120.9 47.3001C118.715 45.5736 116.498 43.8885 114.329 42.1419C114.027 41.8994 113.592 42.3156 113.895 42.573C116.211 44.5452 118.464 46.5894 120.77 48.5732H120.768Z" fill="#98A2B3"/>
<path id="Vector_132" d="M134.027 35.0714C134.277 36.6517 134.139 38.2595 134.376 39.8292C134.401 39.9998 134.659 39.9765 134.698 39.8271C135.094 38.3326 134.806 36.5606 134.547 35.0619C134.262 33.4106 133.737 31.8611 133.077 30.3253C133.007 30.1643 132.725 30.2797 132.791 30.446C133.375 31.9246 133.778 33.5028 134.027 35.0725V35.0714Z" fill="#98A2B3"/>
<path id="Vector_133" d="M134.135 42.3525C134.021 42.9213 133.88 43.4784 133.713 44.0334C133.57 44.509 133.305 45.0026 133.356 45.5014C133.364 45.5862 133.46 45.6338 133.526 45.5713C133.88 45.2398 133.976 44.7208 134.102 44.2643C134.268 43.6669 134.386 43.0568 134.488 42.4457C134.526 42.2169 134.18 42.1195 134.134 42.3525H134.135Z" fill="#98A2B3"/>
<path id="Vector_134" d="M132.801 7.57251C136.315 7.68373 139.827 7.796 143.341 7.88603C145.176 7.93263 147.013 7.97288 148.849 8.01631C149.24 8.02584 149.632 8.03749 150.024 8.0449C150.235 8.04914 150.458 8.03113 150.668 8.05338C150.987 8.08833 151.07 8.16777 151.068 8.48764C151.059 9.61778 150.983 10.7511 150.942 11.8802C150.849 14.383 150.75 16.8848 150.638 19.3865C151.001 19.3283 151.36 19.3357 151.701 19.4035C151.769 16.996 151.85 14.5885 151.937 12.181C151.981 10.9746 152.032 9.76924 152.069 8.56284C152.08 8.17624 152.072 7.77058 151.826 7.44965C151.532 7.06834 151.074 7.04293 150.631 7.02386C146.693 6.85969 142.742 6.84486 138.802 6.80143C136.82 6.77919 134.838 6.76542 132.855 6.73047C132.883 7.0175 132.865 7.3003 132.804 7.57251H132.801Z" fill="#98A2B3"/>
<path id="Vector_135" d="M130.469 9.77029C131.64 9.59023 132.557 8.67828 132.8 7.57356C132.859 7.30241 132.878 7.01855 132.851 6.73152C132.847 6.68809 132.841 6.64573 132.835 6.6023C132.62 5.12793 131.396 4.13125 129.948 4.42993C129.919 4.42676 129.89 4.4257 129.856 4.42993C128.427 4.628 127.128 5.88524 127.31 7.38715C127.491 8.87741 128.984 9.99907 130.468 9.77029H130.469ZM129.883 5.11204C129.905 5.10886 129.925 5.10251 129.944 5.09721C130.334 5.14911 130.761 5.20737 131.08 5.4245C131.481 5.69776 131.758 6.13626 131.856 6.60865C132.061 7.58415 131.424 8.55118 130.461 8.79161C129.518 9.02781 128.479 8.44103 128.201 7.50683C127.865 6.37881 128.763 5.28045 129.883 5.11204Z" fill="#98A2B3"/>
<path id="Vector_136" d="M150.636 19.3869C150.468 19.4144 150.299 19.4547 150.131 19.5098C148.887 19.9239 148.021 21.4565 148.509 22.7C148.704 24.0187 150.085 25.116 151.429 24.8935C152.196 24.7664 152.981 24.2824 153.477 23.6903C154.041 23.0177 154.131 22.1948 153.869 21.3707C153.534 20.3126 152.694 19.6019 151.698 19.4038C151.358 19.336 150.998 19.3286 150.634 19.3869H150.636ZM152.791 21.2743C153.07 21.8219 153.193 22.467 152.834 23.005C152.531 23.4605 151.967 23.8502 151.448 24.0144C150.521 24.3068 149.325 23.6268 149.183 22.6481C149.391 21.8834 149.431 21.1885 150.116 20.6748C150.94 20.0573 152.329 20.3687 152.791 21.2754V21.2743Z" fill="#98A2B3"/>
<path id="Vector_137" d="M156.079 188.377C156.105 188.543 156.138 188.547 156.079 188.377V188.377Z" fill="#98A2B3"/>
<path id="Vector_138" d="M155.361 187.929C155.49 187.915 155.619 187.9 155.749 187.886C155.615 187.857 155.474 187.87 155.361 187.929Z" fill="#98A2B3"/>
<path id="Vector_139" d="M156.473 191.479C156.392 190.579 156.309 189.68 156.224 188.781C155.879 188.822 155.535 188.862 155.189 188.902C155.365 190.691 155.527 192.482 155.677 194.275C155.767 195.353 155.876 196.434 155.933 197.515C155.974 198.268 155.738 198.713 154.963 198.841C152.894 199.184 150.739 199.256 148.651 199.46C146.683 199.653 144.715 199.845 142.747 200.038C138.981 200.405 135.217 200.78 131.452 201.149C129.433 201.347 127.412 201.529 125.392 201.72C124.338 201.819 123.283 201.918 122.228 202.017C121.332 202.101 120.207 202.413 119.371 201.956C118.473 201.464 118.389 200.574 118.292 199.654C118.182 198.603 118.068 197.554 117.957 196.503C117.729 194.36 117.499 192.219 117.273 190.075C116.818 185.758 116.364 181.44 115.996 177.114C115.92 176.223 115.719 175.269 116.368 174.534C117.007 173.81 118.094 173.843 118.978 173.719C121.006 173.434 123.033 173.15 125.063 172.873C128.776 172.365 132.496 171.835 136.226 171.468C140.051 171.092 143.878 170.722 147.709 170.421C148.833 170.333 149.958 170.248 151.083 170.171C151.926 170.114 152.827 170.022 153.122 170.977C153.402 171.883 153.44 172.862 153.554 173.8C153.679 174.826 153.816 175.851 153.953 176.876C154.076 177.797 154.186 178.721 154.299 179.644C154.582 179.609 154.865 179.574 155.148 179.539C154.928 177.415 154.725 175.289 154.503 173.165C154.339 171.599 154.382 169.427 152.421 169.101C151.431 168.936 150.362 169.125 149.368 169.192C148.198 169.273 147.027 169.358 145.858 169.449C143.739 169.614 141.62 169.801 139.505 170.018C135.509 170.428 131.517 170.946 127.535 171.477C125.425 171.758 123.318 172.049 121.209 172.342C120.068 172.501 118.927 172.661 117.786 172.821C116.882 172.948 116.101 173.184 115.501 173.917C114.987 174.545 114.792 175.316 114.847 176.116C114.926 177.248 115.038 178.379 115.141 179.509C115.356 181.866 115.594 184.222 115.84 186.577C116.088 188.949 116.357 191.318 116.622 193.689C116.879 195.986 117.066 198.302 117.383 200.592C117.623 202.322 119.098 203.302 120.78 203.148C123.089 202.939 125.395 202.705 127.701 202.476C131.881 202.062 136.065 201.679 140.247 201.282C144.658 200.864 149.068 200.434 153.478 200.01C154.998 199.864 156.81 199.9 156.964 197.956C157.042 196.965 156.84 195.895 156.76 194.905C156.669 193.763 156.573 192.621 156.471 191.48L156.473 191.479Z" fill="#98A2B3"/>
<path id="Vector_140" d="M148.429 180.28C147.23 180.385 146.034 180.521 144.838 180.648C143.924 180.745 142.632 180.627 142.036 181.468C141.737 181.889 141.741 182.33 141.787 182.824C141.852 183.535 141.91 184.247 141.97 184.959C142.031 185.675 142.094 186.391 142.174 187.104C142.242 187.722 142.254 188.436 142.444 189.031C142.795 190.129 143.837 190.126 144.786 190.025C145.98 189.896 147.175 189.771 148.368 189.645C150.643 189.406 152.917 189.167 155.189 188.902C155.533 188.862 155.879 188.821 156.224 188.78C156.303 188.771 156.383 188.762 156.462 188.753C156.828 188.708 156.973 188.335 156.889 188.07C156.895 188.033 156.899 187.995 156.901 187.959C156.918 187.661 156.864 187.353 156.833 187.056C156.736 186.1 156.638 185.145 156.541 184.191C156.396 182.782 156.253 181.374 156.109 179.966C156.085 179.731 155.905 179.445 155.622 179.479C155.465 179.5 155.307 179.519 155.149 179.539C154.865 179.574 154.582 179.609 154.299 179.644C152.346 179.883 150.388 180.109 148.43 180.28H148.429ZM156.077 188.377C156.104 188.543 156.137 188.547 156.077 188.377V188.377ZM155.848 187.104C155.874 187.356 155.884 187.616 155.928 187.867C155.867 187.873 155.808 187.88 155.748 187.887C155.618 187.901 155.489 187.916 155.36 187.93C151.652 188.337 147.929 188.73 144.212 189.004C143.465 189.059 143.451 188.628 143.364 187.979C143.281 187.354 143.214 186.726 143.15 186.098C143.09 185.508 143.035 184.918 142.981 184.328C142.926 183.731 142.765 183.052 142.802 182.455C142.844 181.795 143.41 181.848 143.932 181.792C144.442 181.738 144.951 181.684 145.461 181.63C146.527 181.516 147.589 181.396 148.653 181.264C150.829 180.997 153.01 180.767 155.187 180.504C155.312 181.755 155.437 183.007 155.562 184.257C155.656 185.206 155.752 186.155 155.846 187.106L155.848 187.104Z" fill="#98A2B3"/>
<path id="Vector_141" d="M146.891 182.648C146.87 182.651 146.848 182.657 146.826 182.666C145.719 183.099 144.863 184.401 145.42 185.562C146.003 186.776 147.722 187.454 148.916 186.756C150.099 186.067 150.402 184.524 149.61 183.426C149.012 182.598 147.796 182.11 146.891 182.648ZM148.623 185.61C148.012 186.212 147.031 185.937 146.485 185.378C145.825 184.703 146.313 183.728 147.052 183.345C147.496 183.39 147.937 183.397 148.334 183.644C149.026 184.076 149.226 185.016 148.623 185.611V185.61Z" fill="#98A2B3"/>
<path id="Vector_142" d="M119.018 187.14C119.196 186.09 118.846 184.891 118.618 183.873C118.574 183.68 118.295 183.765 118.325 183.954C118.486 184.982 118.476 186.161 118.855 187.14C118.882 187.209 119.002 187.231 119.018 187.14Z" fill="#98A2B3"/>
<path id="Vector_143" d="M119.19 188.975C119.147 188.757 118.828 188.853 118.86 189.066C119.066 190.425 119.24 191.788 119.392 193.155C119.525 194.342 119.473 195.69 119.836 196.829C119.872 196.943 120.068 196.967 120.091 196.829C120.302 195.584 119.986 194.139 119.827 192.895C119.657 191.581 119.441 190.277 119.19 188.975Z" fill="#98A2B3"/>
</g>
</g>
</g>
<defs>
<clipPath id="clip0_11259_1141">
<rect width="213.106" height="212.894" fill="white" transform="translate(0 0.105469)"/>
</clipPath>
</defs>
</svg>
