<?xml version="1.0" encoding="iso-8859-1"?>
<!-- Generator: Adobe Illustrator 27.4.0, SVG Export Plug-In . SVG Version: 6.00 Build 0)  -->
<svg version="1.1" id="Layer_1" xmlns="http://www.w3.org/2000/svg" xmlns:xlink="http://www.w3.org/1999/xlink" x="0px" y="0px"
	 viewBox="0 0 24 24" style="enable-background:new 0 0 24 24;" xml:space="preserve">
<g>
	<path d="M11.994,21.666c-0.195,0-0.39-0.027-0.576-0.083c-0.424-0.127-0.707-0.38-1.135-0.762
		c-2.273-2.029-6.312-5.722-7.808-7.647C0.146,10.178,0.589,6.041,3.505,3.55c2.514-2.147,6.001-2.026,8.486,0.162
		c2.477-2.196,5.899-2.316,8.479-0.171c2.905,2.415,3.362,6.646,1.041,9.633c-1.493,1.922-5.532,5.616-7.808,7.647
		c-0.429,0.382-0.711,0.635-1.138,0.762C12.382,21.639,12.188,21.666,11.994,21.666z M7.583,3.994c-0.934,0-1.895,0.322-2.778,1.076
		c-2.088,1.784-2.411,4.74-0.751,6.876c1.451,1.868,5.771,5.785,7.561,7.382c0.176,0.157,0.357,0.319,0.42,0.354
		c-0.02-0.035,0.163-0.197,0.338-0.354c1.791-1.599,6.112-5.519,7.56-7.382c1.684-2.166,1.366-5.119-0.739-6.868
		c-2.238-1.861-4.934-1.053-6.439,0.707c-0.379,0.445-1.139,0.444-1.52,0C10.319,4.717,8.982,3.994,7.583,3.994z M11,14
		c-0.256,0-0.512-0.098-0.707-0.293l-2-2c-0.391-0.391-0.391-1.023,0-1.414s1.023-0.391,1.414,0L11,11.586l3.793-3.793
		c0.391-0.391,1.023-0.391,1.414,0s0.391,1.023,0,1.414l-4.5,4.5C11.512,13.902,11.256,14,11,14z"/>
</g>
</svg>
