<?xml version="1.0" encoding="iso-8859-1"?>
<!-- Generator: Adobe Illustrator 27.4.0, SVG Export Plug-In . SVG Version: 6.00 Build 0)  -->
<svg version="1.1" id="Layer_1" xmlns="http://www.w3.org/2000/svg" xmlns:xlink="http://www.w3.org/1999/xlink" x="0px" y="0px"
	 viewBox="0 0 24 24" style="enable-background:new 0 0 24 24;" xml:space="preserve">
<g>
	<path d="M12,22.999c-0.453,0-0.906-0.145-1.284-0.436l-1.203-0.922c-0.052-0.041-0.12-0.056-0.18-0.05l-1.504,0.199
		c-0.948,0.129-1.86-0.403-2.224-1.284l-0.601-1.453l-1.512-0.659c-0.88-0.365-1.408-1.279-1.283-2.223l0.206-1.562l-0.979-1.328
		c-0.581-0.754-0.581-1.809,0-2.565l0.959-1.249L2.21,7.827C2.085,6.884,2.613,5.971,3.492,5.605l1.456-0.601l0.657-1.511
		C5.97,2.612,6.884,2.081,7.827,2.21l1.562,0.205l1.328-0.979c0.755-0.58,1.81-0.581,2.565,0l1.25,0.959l1.64-0.188
		c0.945-0.119,1.86,0.404,2.223,1.286l0.601,1.451l1.511,0.66c0.881,0.365,1.409,1.279,1.284,2.223l-0.206,1.562l0.979,1.328
		c0.581,0.753,0.581,1.809,0,2.565l-0.922,1.203c-0.041,0.053-0.058,0.117-0.05,0.182l0.198,1.504
		c0.125,0.945-0.403,1.859-1.284,2.224l-1.452,0.601l-0.66,1.512c-0.362,0.879-1.269,1.411-2.222,1.283l-1.562-0.206l-1.327,0.979
		C12.905,22.854,12.452,22.999,12,22.999z M9.359,19.591c0.493,0,0.981,0.163,1.373,0.465l1.201,0.921
		c0.041,0.031,0.092,0.029,0.129,0.002l1.25-0.96c0.447-0.342,0.999-0.494,1.558-0.417l1.563,0.206c0.051,0,0.093-0.021,0.111-0.065
		l0.603-1.454c0.215-0.521,0.62-0.926,1.143-1.142l1.451-0.601c0.046-0.019,0.072-0.065,0.066-0.113l-0.198-1.505
		c-0.077-0.589,0.086-1.193,0.446-1.662l0.921-1.201c0.03-0.039,0.03-0.091,0.002-0.129l-0.96-1.25c-0.343-0.447-0.49-1-0.417-1.558
		l0.206-1.563c0.006-0.048-0.021-0.095-0.066-0.113l-1.452-0.601c-0.521-0.214-0.927-0.621-1.143-1.143l-0.601-1.452
		c-0.019-0.045-0.062-0.067-0.112-0.065l-1.562,0.206c-0.547,0.075-1.113-0.075-1.556-0.414l-1.25-0.96
		c-0.039-0.03-0.092-0.029-0.129,0l-1.249,0.959c-0.45,0.343-1,0.491-1.558,0.417L7.566,4.193C7.512,4.181,7.471,4.214,7.452,4.259
		L6.853,5.711C6.635,6.232,6.231,6.636,5.715,6.852L4.257,7.453C4.214,7.471,4.186,7.518,4.192,7.566l0.206,1.562
		c0.072,0.55-0.08,1.117-0.416,1.557l-0.96,1.25c-0.029,0.038-0.029,0.091,0,0.129l0.959,1.249c0.339,0.443,0.491,1.012,0.417,1.562
		l-0.206,1.56c-0.006,0.048,0.021,0.095,0.067,0.113l1.452,0.602c0.521,0.215,0.927,0.621,1.142,1.143l0.601,1.452
		c0.019,0.044,0.07,0.068,0.113,0.065l1.503-0.199c0,0,0.001,0,0.001,0C9.167,19.597,9.264,19.591,9.359,19.591z M11,15
		c-0.256,0-0.512-0.098-0.707-0.293l-2-2c-0.391-0.391-0.391-1.023,0-1.414s1.023-0.391,1.414,0L11,12.586l3.793-3.793
		c0.391-0.391,1.023-0.391,1.414,0s0.391,1.023,0,1.414l-4.5,4.5C11.512,14.902,11.256,15,11,15z"/>
</g>
</svg>
