<?xml version="1.0" encoding="iso-8859-1"?>
<!-- Generator: Adobe Illustrator 27.4.0, SVG Export Plug-In . SVG Version: 6.00 Build 0)  -->
<svg version="1.1" id="Layer_1" xmlns="http://www.w3.org/2000/svg" xmlns:xlink="http://www.w3.org/1999/xlink" x="0px" y="0px"
	 viewBox="0 0 24 24" style="enable-background:new 0 0 24 24;" xml:space="preserve">
<g>
	<path d="M12.8,23H5.2c-1.238,0-1.92,0-2.562-0.326c-0.57-0.292-1.022-0.744-1.312-1.311C1,20.721,1,20.038,1,18.8v-7.6
		c0-1.238,0-1.92,0.327-2.562C1.617,8.07,2.07,7.617,2.637,7.327C3.28,7,3.962,7,5.2,7H7V5.2c0-1.238,0-1.92,0.327-2.562
		C7.617,2.07,8.07,1.617,8.637,1.327C9.28,1,9.962,1,11.2,1h7.6c1.238,0,1.921,0,2.562,0.327c0.567,0.29,1.02,0.742,1.311,1.31
		C23,3.28,23,3.962,23,5.2v7.6c0,1.238,0,1.921-0.326,2.562c-0.291,0.567-0.744,1.021-1.311,1.311C20.721,17,20.038,17,18.8,17H17
		v1.8c0,1.238,0,1.921-0.326,2.562c-0.291,0.567-0.744,1.021-1.311,1.311C14.721,23,14.038,23,12.8,23z M5.2,9
		C4.333,9,3.76,9,3.545,9.109c-0.186,0.095-0.341,0.25-0.437,0.438C3,9.76,3,10.333,3,11.2v7.6c0,0.867,0,1.44,0.109,1.654
		c0.096,0.188,0.248,0.341,0.438,0.438C3.76,21,4.333,21,5.2,21h7.6c0.867,0,1.44,0,1.654-0.109
		c0.188-0.096,0.341-0.248,0.438-0.438C15,20.24,15,19.667,15,18.8v-7.6c0-0.868,0-1.44-0.109-1.655
		c-0.096-0.188-0.248-0.34-0.438-0.437C14.24,9,13.667,9,12.8,9H5.2z M17,15h1.8c0.867,0,1.44,0,1.654-0.109
		c0.188-0.096,0.341-0.248,0.438-0.438C21,14.24,21,13.667,21,12.8V5.2c0-0.868,0-1.44-0.109-1.655
		c-0.096-0.188-0.248-0.34-0.438-0.437C20.24,3,19.667,3,18.8,3h-7.6c-0.868,0-1.44,0-1.655,0.109
		c-0.186,0.095-0.341,0.25-0.437,0.438C9,3.76,9,4.333,9,5.2V7h3.8c1.238,0,1.921,0,2.562,0.327c0.567,0.29,1.02,0.742,1.311,1.31
		C17,9.28,17,9.962,17,11.2V15z M8,18c-0.256,0-0.512-0.098-0.707-0.293l-2-2c-0.391-0.391-0.391-1.023,0-1.414s1.023-0.391,1.414,0
		L8,15.586l3.793-3.793c0.391-0.391,1.023-0.391,1.414,0s0.391,1.023,0,1.414l-4.5,4.5C8.512,17.902,8.256,18,8,18z"/>
</g>
</svg>
