<?xml version="1.0" encoding="iso-8859-1"?>
<!-- Generator: Adobe Illustrator 27.4.0, SVG Export Plug-In . SVG Version: 6.00 Build 0)  -->
<svg version="1.1" id="Layer_1" xmlns="http://www.w3.org/2000/svg" xmlns:xlink="http://www.w3.org/1999/xlink" x="0px" y="0px"
	 viewBox="0 0 24 24" style="enable-background:new 0 0 24 24;" xml:space="preserve">
<g>
	<path d="M12,23.006c-1.113,0-2.226-0.386-3.134-1.159c-0.457-0.391-1.014-0.621-1.611-0.668c-2.38-0.191-4.244-2.056-4.434-4.434
		c-0.048-0.597-0.279-1.154-0.667-1.611c-1.548-1.815-1.548-4.452,0-6.268c0.389-0.456,0.62-1.013,0.668-1.612
		c0.189-2.378,2.053-4.242,4.432-4.432C7.853,2.774,8.41,2.543,8.866,2.154c1.815-1.549,4.453-1.548,6.268,0
		c0.457,0.388,1.015,0.619,1.612,0.667c2.377,0.189,4.241,2.053,4.433,4.432c0.047,0.598,0.277,1.155,0.667,1.612
		c1.547,1.817,1.547,4.453,0,6.268c-0.39,0.457-0.62,1.015-0.667,1.611c-0.19,2.379-2.055,4.243-4.433,4.434
		c-0.598,0.047-1.155,0.277-1.612,0.667C14.227,22.619,13.113,23.006,12,23.006z M12,2.996c-0.652,0-1.305,0.227-1.836,0.681
		C9.385,4.34,8.434,4.734,7.414,4.815c0,0,0,0,0,0C6.019,4.927,4.927,6.019,4.816,7.414c-0.082,1.021-0.476,1.971-1.139,2.75
		c-0.907,1.064-0.908,2.609,0,3.674c0.664,0.779,1.058,1.729,1.139,2.749c0.111,1.395,1.204,2.487,2.599,2.599
		c1.019,0.081,1.97,0.475,2.75,1.14c1.063,0.906,2.609,0.906,3.673,0c0.78-0.665,1.731-1.059,2.75-1.14
		c1.394-0.111,2.486-1.204,2.598-2.599c0.081-1.018,0.475-1.969,1.14-2.749c0.906-1.064,0.906-2.609-0.001-3.674
		c-0.664-0.779-1.058-1.73-1.139-2.75c-0.111-1.393-1.204-2.486-2.598-2.597c-1.021-0.082-1.971-0.476-2.75-1.139
		C13.305,3.223,12.652,2.996,12,2.996z M7.334,3.819h0.01H7.334z M11,15c-0.256,0-0.512-0.098-0.707-0.293l-2-2
		c-0.391-0.391-0.391-1.023,0-1.414s1.023-0.391,1.414,0L11,12.586l3.793-3.793c0.391-0.391,1.023-0.391,1.414,0
		s0.391,1.023,0,1.414l-4.5,4.5C11.512,14.902,11.256,15,11,15z"/>
</g>
</svg>
