<?xml version="1.0" encoding="iso-8859-1"?>
<!-- Generator: Adobe Illustrator 27.4.0, SVG Export Plug-In . SVG Version: 6.00 Build 0)  -->
<svg version="1.1" id="Layer_1" xmlns="http://www.w3.org/2000/svg" xmlns:xlink="http://www.w3.org/1999/xlink" x="0px" y="0px"
	 viewBox="0 0 24 24" style="enable-background:new 0 0 24 24;" xml:space="preserve">
<g>
	<path d="M12.005,22.996c-1.298,0-2.597-0.227-3.817-0.679c-2.21-0.815-4.134-2.354-5.416-4.331
		c-1.282-1.976-1.903-4.359-1.749-6.71c0.155-2.352,1.084-4.633,2.615-6.423c1.531-1.791,3.64-3.063,5.938-3.583
		c2.296-0.519,4.748-0.277,6.901,0.682c0.504,0.225,0.731,0.816,0.506,1.32c-0.224,0.505-0.812,0.731-1.32,0.507
		c-1.76-0.785-3.767-0.982-5.646-0.558C8.136,3.646,6.411,4.687,5.159,6.153C3.906,7.618,3.146,9.484,3.02,11.408
		c-0.127,1.923,0.381,3.874,1.43,5.491c1.049,1.617,2.623,2.876,4.431,3.543c1.809,0.669,3.822,0.734,5.671,0.189
		c1.848-0.546,3.502-1.698,4.657-3.242c1.154-1.544,1.79-3.455,1.791-5.383v-0.919c0-0.552,0.447-1,1-1s1,0.448,1,1v0.92
		c-0.001,2.356-0.778,4.693-2.189,6.58c-1.412,1.888-3.434,3.295-5.692,3.963C14.107,22.848,13.057,22.996,12.005,22.996z M12,15.01
		c-0.265,0-0.52-0.105-0.707-0.293l-3-3c-0.391-0.391-0.391-1.023,0-1.414s1.023-0.391,1.414,0L12,12.595l9.293-9.302
		c0.391-0.392,1.023-0.391,1.414-0.001c0.391,0.391,0.391,1.023,0,1.414l-10,10.01C12.52,14.904,12.266,15.01,12,15.01z"/>
</g>
</svg>
