<?xml version="1.0" encoding="iso-8859-1"?>
<!-- Generator: Adobe Illustrator 27.4.0, SVG Export Plug-In . SVG Version: 6.00 Build 0)  -->
<svg version="1.1" id="Layer_1" xmlns="http://www.w3.org/2000/svg" xmlns:xlink="http://www.w3.org/1999/xlink" x="0px" y="0px"
	 viewBox="0 0 24 24" style="enable-background:new 0 0 24 24;" xml:space="preserve">
<g>
	<path d="M17.2,22H14c-0.553,0-1-0.447-1-1s0.447-1,1-1h3.2c1.47,0,2.279,0,2.708-0.219c0.379-0.192,0.681-0.494,0.873-0.872
		C21,18.479,21,17.67,21,16.2V7.8c0-1.47,0-2.28-0.218-2.708c-0.193-0.379-0.495-0.681-0.874-0.874C19.479,4,18.67,4,17.2,4H6.8
		C5.33,4,4.52,4,4.092,4.218C3.713,4.411,3.411,4.713,3.218,5.092C3,5.52,3,6.33,3,7.8V8c0,0.552-0.448,1-1,1S1,8.552,1,8V7.8
		c0-1.838,0-2.76,0.436-3.616c0.386-0.757,0.991-1.362,1.748-1.748C4.04,2,4.962,2,6.8,2h10.4c1.837,0,2.76,0,3.616,0.436
		c0.758,0.386,1.362,0.991,1.748,1.749C23,5.04,23,5.962,23,7.8v8.4c0,1.837,0,2.76-0.436,3.616
		c-0.386,0.758-0.99,1.362-1.749,1.748C19.96,22,19.037,22,17.2,22z M5.899,21c-0.465,0-0.882-0.326-0.979-0.801
		c-0.157-0.771-0.534-1.472-1.09-2.028c-0.557-0.557-1.259-0.935-2.03-1.092c-0.541-0.11-0.89-0.639-0.78-1.18
		c0.111-0.541,0.64-0.892,1.18-0.779c1.156,0.235,2.208,0.802,3.043,1.637c0.835,0.835,1.4,1.887,1.636,3.044
		c0.11,0.541-0.239,1.068-0.78,1.179C6.032,20.993,5.965,21,5.899,21z M9.949,21c-0.502,0-0.936-0.378-0.992-0.89
		c-0.2-1.798-1.015-3.492-2.294-4.772c-1.279-1.279-2.974-2.094-4.773-2.294c-0.549-0.062-0.944-0.556-0.883-1.105
		c0.061-0.549,0.558-0.947,1.104-0.883c2.249,0.25,4.367,1.269,5.965,2.868c1.599,1.6,2.618,3.719,2.868,5.966
		c0.062,0.549-0.334,1.043-0.883,1.104C10.023,20.998,9.986,21,9.949,21z M2.01,21c-0.552,0-1.005-0.447-1.005-1S1.448,19,2,19h0.01
		c0.552,0,1,0.447,1,1S2.562,21,2.01,21z"/>
</g>
</svg>
