<?xml version="1.0" encoding="iso-8859-1"?>
<!-- Generator: Adobe Illustrator 27.4.0, SVG Export Plug-In . SVG Version: 6.00 Build 0)  -->
<svg version="1.1" id="Layer_1" xmlns="http://www.w3.org/2000/svg" xmlns:xlink="http://www.w3.org/1999/xlink" x="0px" y="0px"
	 viewBox="0 0 24 24" style="enable-background:new 0 0 24 24;" xml:space="preserve">
<g>
	<path d="M12,23c-1.969,0-3.819-0.521-5.419-1.43c-0.057-0.026-0.11-0.058-0.162-0.094C3.178,19.561,1,16.03,1,12
		s2.178-7.561,5.419-9.477C6.47,2.487,6.524,2.456,6.58,2.43C8.181,1.52,10.031,1,12,1c6.065,0,11,4.935,11,11S18.065,23,12,23z
		 M8.999,20.485C9.938,20.818,10.948,21,12,21c4.963,0,9-4.037,9-9c0-4.962-4.037-9-9-9c-1.052,0-2.062,0.181-3.001,0.515
		C11.502,5.586,13,8.699,13,12S11.502,18.413,8.999,20.485z M7.003,4.518C4.591,6.134,3,8.885,3,12s1.591,5.866,4.003,7.482
		C9.482,17.818,11,15.004,11,12C11,8.996,9.482,6.181,7.003,4.518z"/>
</g>
</svg>
