<?xml version="1.0" encoding="iso-8859-1"?>
<!-- Generator: Adobe Illustrator 27.4.0, SVG Export Plug-In . SVG Version: 6.00 Build 0)  -->
<svg version="1.1" id="Layer_1" xmlns="http://www.w3.org/2000/svg" xmlns:xlink="http://www.w3.org/1999/xlink" x="0px" y="0px"
	 viewBox="0 0 24 24" style="enable-background:new 0 0 24 24;" xml:space="preserve">
<g>
	<path d="M17.2,22H6.8c-1.838,0-2.76,0-3.616-0.437c-0.757-0.385-1.362-0.989-1.748-1.747C1,18.96,1,18.037,1,16.2V7.8
		c0-1.838,0-2.76,0.436-3.616c0.386-0.757,0.991-1.362,1.748-1.748C4.04,2,4.962,2,6.8,2h2.18c0.012,0,0.025,0,0.039,0h6.961
		c0.014,0,0.025,0,0.039,0H17.2c1.837,0,2.76,0,3.616,0.436c0.758,0.386,1.362,0.991,1.748,1.749C23,5.04,23,5.962,23,7.8v8.4
		c0,1.837,0,2.76-0.436,3.616c-0.386,0.758-0.99,1.362-1.749,1.748C19.96,22,19.037,22,17.2,22z M3,9v7.2
		c0,1.47,0,2.279,0.218,2.708c0.193,0.379,0.495,0.681,0.873,0.873C4.52,20,5.33,20,6.8,20h10.4c1.47,0,2.279,0,2.708-0.219
		c0.379-0.192,0.681-0.494,0.873-0.872C21,18.479,21,17.67,21,16.2V9h-5.979c-0.014,0-0.025,0-0.039,0H8.021
		C8.008,9,7.994,9,7.981,9H3z M16.22,7h4.778c-0.007-0.977-0.041-1.565-0.216-1.908c-0.193-0.379-0.495-0.681-0.874-0.874
		C19.479,4,18.67,4,17.2,4h-0.381L16.22,7z M9.22,7h4.961l0.6-3H9.82L9.22,7z M3.001,7H7.18l0.6-3H6.8C5.33,4,4.52,4,4.092,4.218
		C3.713,4.411,3.411,4.713,3.218,5.092C3.043,5.435,3.009,6.023,3.001,7z"/>
</g>
</svg>
