<?xml version="1.0" encoding="iso-8859-1"?>
<!-- Generator: Adobe Illustrator 27.4.0, SVG Export Plug-In . SVG Version: 6.00 Build 0)  -->
<svg version="1.1" id="Layer_1" xmlns="http://www.w3.org/2000/svg" xmlns:xlink="http://www.w3.org/1999/xlink" x="0px" y="0px"
	 viewBox="0 0 24 24" style="enable-background:new 0 0 24 24;" xml:space="preserve">
<g>
	<path d="M15.2,23H8.8c-1.838,0-2.76,0-3.616-0.437c-0.757-0.385-1.362-0.989-1.748-1.747C3,19.96,3,19.037,3,17.2V8
		c0-1.017,0-1.526,0.136-2.035c0.369-1.376,1.453-2.46,2.829-2.829c0.31-0.083,0.619-0.115,1.043-0.128
		C7.025,2.66,7.074,2.375,7.218,2.092C7.412,1.713,7.713,1.412,8.09,1.219C8.52,1,8.95,1,9.6,1h4.8c0.65,0,1.08,0,1.508,0.218
		c0.379,0.193,0.681,0.496,0.874,0.875c0.145,0.283,0.193,0.567,0.209,0.916c0.424,0.013,0.734,0.045,1.043,0.127
		c1.377,0.369,2.461,1.453,2.829,2.829C21,6.473,21,6.983,21,8v9.2c0,1.837,0,2.76-0.436,3.616c-0.386,0.758-0.99,1.362-1.749,1.748
		C17.96,23,17.037,23,15.2,23z M7.009,5.009C6.775,5.018,6.605,5.035,6.482,5.068C5.794,5.252,5.252,5.794,5.068,6.482
		C5,6.736,5,7.185,5,8v9.2c0,1.47,0,2.279,0.218,2.708c0.193,0.379,0.495,0.681,0.873,0.873C6.52,21,7.33,21,8.8,21h6.4
		c1.47,0,2.279,0,2.708-0.219c0.379-0.192,0.681-0.494,0.873-0.872C19,19.479,19,18.67,19,17.2V8c0-0.814,0-1.263-0.068-1.517
		c-0.185-0.689-0.727-1.231-1.414-1.416c-0.123-0.033-0.292-0.05-0.526-0.059c-0.018,0.341-0.067,0.621-0.21,0.9
		c-0.192,0.377-0.494,0.679-0.873,0.872C15.48,7,15.051,7,14.4,7H9.6C8.95,7,8.52,7,8.092,6.782C7.713,6.588,7.412,6.287,7.219,5.91
		C7.076,5.63,7.026,5.35,7.009,5.009z M9,4v0.4c0,0.279,0,0.567,0.02,0.649C9.033,5,9.321,5,9.6,5h4.8c0.278,0,0.566,0,0.648-0.02
		C15,4.966,15,4.678,15,4.4V3.6c0-0.278,0-0.566-0.02-0.648C14.967,3,14.679,3,14.4,3H9.6C9.321,3,9.033,3,8.951,3.02
		C9,3.033,9,3.321,9,3.6V4z M11,18c-0.256,0-0.512-0.098-0.707-0.293l-2-2c-0.391-0.391-0.391-1.023,0-1.414s1.023-0.391,1.414,0
		L11,15.586l3.793-3.793c0.391-0.391,1.023-0.391,1.414,0s0.391,1.023,0,1.414l-4.5,4.5C11.512,17.902,11.256,18,11,18z"/>
</g>
</svg>
