<?xml version="1.0" encoding="iso-8859-1"?>
<!-- Generator: Adobe Illustrator 27.4.0, SVG Export Plug-In . SVG Version: 6.00 Build 0)  -->
<svg version="1.1" id="Layer_1" xmlns="http://www.w3.org/2000/svg" xmlns:xlink="http://www.w3.org/1999/xlink" x="0px" y="0px"
	 viewBox="0 0 24 24" style="enable-background:new 0 0 24 24;" xml:space="preserve">
<g>
	<path d="M12.016,21.498c-2.839,0-5.612-1.271-7.448-3.579l-0.109,0.405c-0.143,0.534-0.692,0.852-1.225,0.707
		c-0.534-0.143-0.85-0.691-0.707-1.225l0.732-2.731c0.143-0.534,0.688-0.853,1.225-0.707L7.216,15.1
		c0.533,0.143,0.85,0.691,0.707,1.225c-0.143,0.532-0.688,0.852-1.225,0.707l-0.343-0.092c2.308,2.641,6.244,3.373,9.395,1.556
		c2.069-1.195,3.456-3.329,3.709-5.708c0.059-0.55,0.544-0.945,1.1-0.889c0.55,0.059,0.947,0.551,0.889,1.1
		c-0.319,3.013-2.076,5.715-4.697,7.229C15.258,21.089,13.626,21.498,12.016,21.498z M14.499,14.5c-0.175,0-0.353-0.046-0.514-0.143
		l-2.5-1.5C11.184,12.677,11,12.351,11,12V7.5c0-0.552,0.448-1,1-1s1,0.448,1,1v3.934l2.015,1.209
		c0.474,0.284,0.627,0.898,0.343,1.372C15.17,14.327,14.839,14.5,14.499,14.5z M3.548,12.107c-0.036,0-0.071-0.002-0.107-0.005
		c-0.549-0.059-0.947-0.551-0.889-1.1c0.32-3.013,2.077-5.715,4.698-7.229c4.121-2.376,9.303-1.31,12.182,2.308l0.108-0.405
		c0.143-0.534,0.691-0.851,1.225-0.707c0.533,0.143,0.85,0.691,0.707,1.225L20.74,8.925c-0.068,0.256-0.236,0.475-0.466,0.607
		c-0.23,0.133-0.505,0.169-0.759,0.1L16.783,8.9c-0.533-0.143-0.85-0.691-0.707-1.225s0.691-0.849,1.225-0.707l0.344,0.092
		c-2.311-2.641-6.246-3.375-9.395-1.555C6.18,6.699,4.793,8.833,4.541,11.212C4.486,11.726,4.052,12.107,3.548,12.107z"/>
</g>
</svg>
