<?xml version="1.0" encoding="iso-8859-1"?>
<!-- Generator: Adobe Illustrator 27.4.0, SVG Export Plug-In . SVG Version: 6.00 Build 0)  -->
<svg version="1.1" id="Layer_1" xmlns="http://www.w3.org/2000/svg" xmlns:xlink="http://www.w3.org/1999/xlink" x="0px" y="0px"
	 viewBox="0 0 24 24" style="enable-background:new 0 0 24 24;" xml:space="preserve">
<g>
	<path d="M12,22C6.486,22,2,17.514,2,12C2,6.486,6.486,2,12,2c5.126,0,9.363,3.876,9.935,8.852l0.059-0.059
		c0.391-0.391,1.023-0.391,1.414,0s0.391,1.023,0,1.414l-2,2c-0.391,0.391-1.023,0.391-1.414,0l-2-2
		c-0.391-0.391-0.391-1.023,0-1.414s1.023-0.391,1.414,0l0.567,0.567C19.647,7.247,16.196,4,12,4c-4.411,0-8,3.589-8,8s3.589,8,8,8
		c2.426,0,4.694-1.083,6.223-2.972c0.347-0.429,0.978-0.495,1.406-0.148c0.43,0.348,0.496,0.978,0.148,1.406
		C17.867,20.646,15.032,22,12,22z M14.999,15c-0.19,0-0.383-0.055-0.554-0.168l-3-2C11.167,12.646,11,12.334,11,12V7
		c0-0.552,0.448-1,1-1s1,0.448,1,1v4.465l2.555,1.703c0.46,0.307,0.584,0.927,0.277,1.387C15.64,14.844,15.322,15,14.999,15z"/>
</g>
</svg>
