<?xml version="1.0" encoding="iso-8859-1"?>
<!-- Generator: Adobe Illustrator 27.4.0, SVG Export Plug-In . SVG Version: 6.00 Build 0)  -->
<svg version="1.1" id="Layer_1" xmlns="http://www.w3.org/2000/svg" xmlns:xlink="http://www.w3.org/1999/xlink" x="0px" y="0px"
	 viewBox="0 0 24 24" style="enable-background:new 0 0 24 24;" xml:space="preserve">
<g>
	<path d="M11.739,22.997c-0.009,0-0.018,0-0.026,0C5.706,22.843,1,18.012,1,12C1,5.935,5.935,1,12,1s11,4.935,11,11
		c0,0.203-0.005,0.403-0.016,0.604c-0.03,0.552-0.505,0.97-1.053,0.945c-0.552-0.03-0.975-0.501-0.945-1.053
		C20.995,12.332,21,12.167,21,12c0-4.962-4.037-9-9-9c-4.962,0-9,4.038-9,9c0,4.919,3.85,8.871,8.764,8.997
		c0.552,0.015,0.988,0.474,0.974,1.025C12.724,22.566,12.279,22.997,11.739,22.997z M16.5,22c-0.256,0-0.512-0.098-0.707-0.293l-2-2
		c-0.391-0.391-0.391-1.023,0-1.414s1.023-0.391,1.414,0l1.293,1.293l3.793-3.793c0.391-0.391,1.023-0.391,1.414,0
		s0.391,1.023,0,1.414l-4.5,4.5C17.012,21.902,16.756,22,16.5,22z M15.737,14.869c-0.15,0-0.303-0.034-0.446-0.105l-3.738-1.869
		C11.214,12.725,11,12.379,11,12V6c0-0.552,0.448-1,1-1s1,0.448,1,1v5.382l3.186,1.593c0.494,0.247,0.694,0.848,0.447,1.342
		C16.457,14.667,16.104,14.869,15.737,14.869z"/>
</g>
</svg>
