<?xml version="1.0" encoding="iso-8859-1"?>
<!-- Generator: Adobe Illustrator 27.4.0, SVG Export Plug-In . SVG Version: 6.00 Build 0)  -->
<svg version="1.1" id="Layer_1" xmlns="http://www.w3.org/2000/svg" xmlns:xlink="http://www.w3.org/1999/xlink" x="0px" y="0px"
	 viewBox="0 0 24 24" style="enable-background:new 0 0 24 24;" xml:space="preserve">
<g>
	<path d="M21.5,23h-5c-0.404,0-0.77-0.243-0.924-0.617c-0.155-0.374-0.069-0.804,0.217-1.09L19.086,18H16.5c-0.553,0-1-0.447-1-1
		s0.447-1,1-1h5c0.404,0,0.77,0.243,0.924,0.617c0.155,0.374,0.069,0.804-0.217,1.09L18.914,21H21.5c0.553,0,1,0.447,1,1
		S22.053,23,21.5,23z M12,23C5.935,23,1,18.065,1,12S5.935,1,12,1s11,4.935,11,11c0,0.371-0.019,0.738-0.055,1.101
		c-0.055,0.55-0.539,0.943-1.096,0.895c-0.549-0.056-0.95-0.546-0.895-1.096C20.985,12.604,21,12.304,21,12c0-4.962-4.037-9-9-9
		c-4.962,0-9,4.038-9,9c0,4.963,4.038,9,9,9c0.15,0,0.299-0.004,0.447-0.012c0.157-0.007,0.306-0.019,0.454-0.033
		c0.548-0.044,1.04,0.347,1.095,0.896c0.055,0.55-0.346,1.039-0.896,1.095c-0.183,0.019-0.367,0.032-0.553,0.041
		C12.37,22.996,12.185,23,12,23z M15.737,14.869c-0.15,0-0.303-0.034-0.446-0.105l-3.738-1.869C11.214,12.725,11,12.379,11,12V6
		c0-0.552,0.448-1,1-1s1,0.448,1,1v5.382l3.186,1.593c0.494,0.247,0.694,0.848,0.447,1.342
		C16.457,14.667,16.104,14.869,15.737,14.869z"/>
</g>
</svg>
