<?xml version="1.0" encoding="iso-8859-1"?>
<!-- Generator: Adobe Illustrator 27.4.0, SVG Export Plug-In . SVG Version: 6.00 Build 0)  -->
<svg version="1.1" id="Layer_1" xmlns="http://www.w3.org/2000/svg" xmlns:xlink="http://www.w3.org/1999/xlink" x="0px" y="0px"
	 viewBox="0 0 24 24" style="enable-background:new 0 0 24 24;" xml:space="preserve">
<g>
	<path d="M12,23c-5.238,0-9.5-4.262-9.5-9.5c0-4.901,3.73-8.947,8.5-9.448V3h-1C9.448,3,9,2.552,9,2s0.448-1,1-1h4
		c0.553,0,1,0.448,1,1s-0.447,1-1,1h-1v1.052c4.771,0.501,8.5,4.547,8.5,9.448C21.5,18.738,17.238,23,12,23z M12,6
		c-4.136,0-7.5,3.364-7.5,7.5S7.864,21,12,21s7.5-3.364,7.5-7.5S16.136,6,12,6z M14.499,16c-0.175,0-0.353-0.046-0.514-0.143
		l-2.5-1.5C11.184,14.177,11,13.852,11,13.5v-4c0-0.552,0.448-1,1-1s1,0.448,1,1v3.434l2.015,1.209
		c0.474,0.284,0.627,0.898,0.343,1.372C15.17,15.827,14.839,16,14.499,16z M20.329,6.592c-0.256,0-0.512-0.098-0.707-0.293l-1.5-1.5
		c-0.195-0.195-0.293-0.451-0.293-0.707s0.098-0.512,0.293-0.707c0.391-0.391,1.023-0.391,1.414,0l1.5,1.5
		c0.391,0.391,0.391,1.023,0,1.414C20.841,6.494,20.585,6.592,20.329,6.592z M3.671,6.592c-0.256,0-0.512-0.098-0.707-0.293
		c-0.391-0.391-0.391-1.023,0-1.414l1.5-1.5c0.391-0.391,1.023-0.391,1.414,0C6.073,3.58,6.171,3.836,6.171,4.092
		S6.073,4.604,5.878,4.799l-1.5,1.5C4.183,6.494,3.927,6.592,3.671,6.592z"/>
</g>
</svg>
