<?xml version="1.0" encoding="iso-8859-1"?>
<!-- Generator: Adobe Illustrator 27.4.0, SVG Export Plug-In . SVG Version: 6.00 Build 0)  -->
<svg version="1.1" id="Layer_1" xmlns="http://www.w3.org/2000/svg" xmlns:xlink="http://www.w3.org/1999/xlink" x="0px" y="0px"
	 viewBox="0 0 24 24" style="enable-background:new 0 0 24 24;" xml:space="preserve">
<g>
	<path d="M19,23c-0.553,0-1-0.447-1-1v-2h-2c-0.553,0-1-0.447-1-1s0.447-1,1-1h2v-2c0-0.553,0.447-1,1-1s1,0.447,1,1v2h2
		c0.553,0,1,0.447,1,1s-0.447,1-1,1h-2v2C20,22.553,19.553,23,19,23z M12,23C5.935,23,1,18.065,1,12S5.935,1,12,1s11,4.935,11,11
		c0,0.46-0.029,0.928-0.087,1.389c-0.069,0.548-0.567,0.931-1.116,0.868c-0.548-0.068-0.937-0.568-0.868-1.116
		C20.976,12.762,21,12.378,21,12c0-4.962-4.037-9-9-9c-4.962,0-9,4.038-9,9c0,4.963,4.038,9,9,9c0.391,0,0.78-0.024,1.156-0.073
		c0.551-0.078,1.049,0.314,1.12,0.862s-0.314,1.05-0.862,1.12C12.953,22.97,12.477,23,12,23z M15.737,14.869
		c-0.15,0-0.303-0.034-0.446-0.105l-3.738-1.869C11.214,12.725,11,12.379,11,12V6c0-0.552,0.448-1,1-1s1,0.448,1,1v5.382
		l3.186,1.593c0.494,0.247,0.694,0.848,0.447,1.342C16.457,14.667,16.104,14.869,15.737,14.869z"/>
</g>
</svg>
