<?xml version="1.0" encoding="iso-8859-1"?>
<!-- Generator: Adobe Illustrator 27.4.0, SVG Export Plug-In . SVG Version: 6.00 Build 0)  -->
<svg version="1.1" id="Layer_1" xmlns="http://www.w3.org/2000/svg" xmlns:xlink="http://www.w3.org/1999/xlink" x="0px" y="0px"
	 viewBox="0 0 24 24" style="enable-background:new 0 0 24 24;" xml:space="preserve">
<g>
	<path d="M12,22C6.486,22,2,17.514,2,12C2,6.486,6.486,2,12,2c3.521,0,6.822,1.885,8.616,4.92c0.28,0.476,0.123,1.089-0.353,1.37
		c-0.477,0.281-1.087,0.125-1.37-0.352C17.459,5.509,14.817,4,12,4c-4.411,0-8,3.589-8,8s3.589,8,8,8
		c3.784,0,6.963-2.641,7.79-6.176l-0.383,0.383c-0.391,0.391-1.023,0.391-1.414,0s-0.391-1.023,0-1.414l2-2
		c0.391-0.391,1.023-0.391,1.414,0l2,2c0.391,0.391,0.391,1.023,0,1.414s-1.023,0.391-1.414,0l-0.196-0.196
		C20.863,18.564,16.825,22,12,22z M14.999,15c-0.19,0-0.383-0.055-0.554-0.168l-3-2C11.167,12.646,11,12.334,11,12V7
		c0-0.552,0.448-1,1-1s1,0.448,1,1v4.465l2.555,1.703c0.46,0.307,0.584,0.927,0.277,1.387C15.64,14.844,15.322,15,14.999,15z"/>
</g>
</svg>
