<?xml version="1.0" encoding="iso-8859-1"?>
<!-- Generator: Adobe Illustrator 27.4.0, SVG Export Plug-In . SVG Version: 6.00 Build 0)  -->
<svg version="1.1" id="Layer_1" xmlns="http://www.w3.org/2000/svg" xmlns:xlink="http://www.w3.org/1999/xlink" x="0px" y="0px"
	 viewBox="0 0 24 24" style="enable-background:new 0 0 24 24;" xml:space="preserve">
<g>
	<path d="M17.5,20h-11C3.467,20,1,17.532,1,14.5c0-2.605,1.781-4.792,4.249-5.358C6.07,6.123,8.803,4,12,4s5.93,2.123,6.751,5.142
		C21.219,9.708,23,11.895,23,14.5C23,17.532,20.532,20,17.5,20z M12,6c-2.46,0-4.535,1.759-4.934,4.182
		c-0.074,0.449-0.441,0.792-0.895,0.833C4.364,11.183,3,12.681,3,14.5C3,16.43,4.57,18,6.5,18h11c1.93,0,3.5-1.57,3.5-3.5
		c0-1.819-1.364-3.317-3.172-3.485c-0.453-0.042-0.821-0.384-0.895-0.833C16.535,7.759,14.46,6,12,6z"/>
</g>
</svg>
