<?xml version="1.0" encoding="iso-8859-1"?>
<!-- Generator: Adobe Illustrator 27.4.0, SVG Export Plug-In . SVG Version: 6.00 Build 0)  -->
<svg version="1.1" id="Layer_1" xmlns="http://www.w3.org/2000/svg" xmlns:xlink="http://www.w3.org/1999/xlink" x="0px" y="0px"
	 viewBox="0 0 24 24" style="enable-background:new 0 0 24 24;" xml:space="preserve">
<g>
	<path d="M17.5,22H7c-3.309,0-6-2.691-6-6c0-3.143,2.429-5.729,5.508-5.98c1.022-1.616,2.685-2.688,4.564-2.955
		C11.523,4.199,14.01,2,17,2c3.309,0,6,2.691,6,6c0,1.675-0.695,3.244-1.88,4.363C22.271,13.372,23,14.853,23,16.5
		C23,19.532,20.532,22,17.5,22z M7.083,12.001C4.793,12.001,3,13.795,3,16c0,2.206,1.794,4,4,4h10.5c1.93,0,3.5-1.57,3.5-3.5
		S19.43,13,17.5,13l-0.163,0.004c-0.49-0.001-0.88-0.283-1.006-0.728C15.788,10.347,14.007,9,12,9c-1.7,0-3.236,0.941-4.01,2.456
		c-0.174,0.339-0.513,0.542-0.906,0.545C7.084,12.001,7.083,12.001,7.083,12.001z M18.011,11.023
		c0.438,0.041,0.859,0.132,1.262,0.27C20.348,10.55,21,9.325,21,8c0-2.206-1.794-4-4-4c-1.895,0-3.485,1.324-3.896,3.095
		C15.289,7.475,17.159,8.961,18.011,11.023z"/>
</g>
</svg>
