<?xml version="1.0" encoding="iso-8859-1"?>
<!-- Generator: Adobe Illustrator 27.4.0, SVG Export Plug-In . SVG Version: 6.00 Build 0)  -->
<svg version="1.1" id="Layer_1" xmlns="http://www.w3.org/2000/svg" xmlns:xlink="http://www.w3.org/1999/xlink" x="0px" y="0px"
	 viewBox="0 0 24 24" style="enable-background:new 0 0 24 24;" xml:space="preserve">
<g>
	<path d="M17.5,20H6c-2.757,0-5-2.243-5-5c0-2.022,1.21-3.816,3.022-4.594C4.327,6.271,7.789,3,12,3
		c3.892,0,7.172,2.769,7.865,6.533C21.764,10.437,23,12.361,23,14.5C23,17.532,20.532,20,17.5,20z M12,5c-3.309,0-6,2.691-6,6
		l0.001,0.114c0.005,0.46-0.305,0.865-0.751,0.98C3.925,12.435,3,13.63,3,15c0,1.654,1.346,3,3,3h11.5c1.93,0,3.5-1.57,3.5-3.5
		c0-1.496-0.95-2.828-2.365-3.312c-0.367-0.125-0.629-0.453-0.67-0.839C17.637,7.299,15.072,5,12,5z"/>
</g>
</svg>
