<?xml version="1.0" encoding="iso-8859-1"?>
<!-- Generator: Adobe Illustrator 27.4.0, SVG Export Plug-In . SVG Version: 6.00 Build 0)  -->
<svg version="1.1" id="Layer_1" xmlns="http://www.w3.org/2000/svg" xmlns:xlink="http://www.w3.org/1999/xlink" x="0px" y="0px"
	 viewBox="0 0 24 24" style="enable-background:new 0 0 24 24;" xml:space="preserve">
<g>
	<path d="M10.999,23c-0.19,0-0.383-0.055-0.554-0.168c-0.459-0.307-0.583-0.927-0.277-1.387L13.132,17H9
		c-0.369,0-0.708-0.203-0.882-0.528c-0.174-0.325-0.155-0.72,0.05-1.026l4-6c0.306-0.46,0.925-0.584,1.387-0.277
		c0.46,0.306,0.584,0.927,0.277,1.387L10.869,15H15c0.369,0,0.708,0.203,0.882,0.528s0.154,0.72-0.05,1.026l-4,6
		C11.639,22.844,11.322,23,10.999,23z M19,16.744c-0.412,0-0.798-0.256-0.942-0.667c-0.185-0.521,0.088-1.092,0.609-1.275
		C20.062,14.308,21,12.981,21,11.5c0-1.819-1.364-3.317-3.172-3.485c-0.453-0.042-0.821-0.384-0.895-0.833
		C16.535,4.759,14.46,3,12,3C9.54,3,7.465,4.759,7.066,7.182C6.993,7.631,6.625,7.973,6.172,8.015C4.364,8.183,3,9.681,3,11.5
		c0,1.481,0.938,2.808,2.333,3.302c0.521,0.184,0.793,0.755,0.609,1.275c-0.185,0.521-0.756,0.795-1.276,0.609
		C2.474,15.911,1,13.827,1,11.5c0-2.605,1.781-4.792,4.249-5.358C6.07,3.123,8.803,1,12,1s5.93,2.123,6.751,5.142
		C21.219,6.708,23,8.895,23,11.5c0,2.327-1.474,4.411-3.667,5.187C19.224,16.726,19.11,16.744,19,16.744z"/>
</g>
</svg>
