<?xml version="1.0" encoding="iso-8859-1"?>
<!-- Generator: Adobe Illustrator 27.4.0, SVG Export Plug-In . SVG Version: 6.00 Build 0)  -->
<svg version="1.1" id="Layer_1" xmlns="http://www.w3.org/2000/svg" xmlns:xlink="http://www.w3.org/1999/xlink" x="0px" y="0px"
	 viewBox="0 0 24 24" style="enable-background:new 0 0 24 24;" xml:space="preserve">
<g>
	<path d="M18,23H6c-2.757,0-5-2.243-5-5s2.243-5,5-5c0.259,0,0.517,0.02,0.77,0.059C7.821,11.199,9.825,10,12,10
		c2.174,0,4.178,1.199,5.229,3.059C17.483,13.02,17.74,13,18,13c2.757,0,5,2.243,5,5S20.757,23,18,23z M6,15c-1.654,0-3,1.346-3,3
		s1.346,3,3,3h12c1.654,0,3-1.346,3-3s-1.346-3-3-3c-0.342,0-0.676,0.057-0.993,0.168c-0.509,0.183-1.073-0.081-1.266-0.588
		C15.154,13.037,13.65,12,12,12c-1.651,0-3.155,1.037-3.741,2.58c-0.192,0.507-0.754,0.771-1.266,0.588C6.675,15.057,6.341,15,6,15z
		 M19,11h-1.6c-0.553,0-1-0.448-1-1s0.447-1,1-1H19c0.553,0,1,0.448,1,1S19.553,11,19,11z M6.5,11c-0.552,0-1-0.448-1-1
		c0-2.757,2.243-5,5-5c1.816,0,3.492,0.987,4.374,2.577c0.269,0.483,0.094,1.092-0.389,1.36c-0.481,0.267-1.092,0.094-1.359-0.389
		C12.596,7.593,11.59,7,10.5,7c-1.654,0-3,1.346-3,3C7.5,10.552,7.052,11,6.5,11z M3.6,11H2c-0.552,0-1-0.448-1-1s0.448-1,1-1h1.6
		c0.552,0,1,0.448,1,1S4.152,11,3.6,11z M15.55,5.951c-0.256,0-0.512-0.098-0.707-0.293c-0.391-0.391-0.391-1.024,0-1.414
		l1.132-1.131c0.391-0.391,1.023-0.391,1.414,0s0.391,1.024,0,1.414l-1.132,1.131C16.062,5.854,15.806,5.951,15.55,5.951z
		 M5.451,5.951c-0.256,0-0.512-0.098-0.707-0.293L3.613,4.527c-0.391-0.391-0.391-1.023,0-1.414s1.023-0.391,1.414,0l1.131,1.131
		c0.391,0.391,0.391,1.023,0,1.414C5.963,5.854,5.707,5.951,5.451,5.951z M10.5,4.1c-0.552,0-1-0.448-1-1V1.5c0-0.552,0.448-1,1-1
		s1,0.448,1,1v1.6C11.5,3.652,11.052,4.1,10.5,4.1z"/>
</g>
</svg>
