<?xml version="1.0" encoding="iso-8859-1"?>
<!-- Generator: Adobe Illustrator 27.4.0, SVG Export Plug-In . SVG Version: 6.00 Build 0)  -->
<svg version="1.1" id="Layer_1" xmlns="http://www.w3.org/2000/svg" xmlns:xlink="http://www.w3.org/1999/xlink" x="0px" y="0px"
	 viewBox="0 0 24 24" style="enable-background:new 0 0 24 24;" xml:space="preserve">
<g>
	<path d="M17.5,23H6c-2.757,0-5-2.243-5-5c0-2.646,2.065-4.818,4.668-4.989C6.814,10.585,9.274,9,12,9
		c2.296,0,4.448,1.138,5.749,3.005C20.667,12.136,23,14.551,23,17.5C23,20.532,20.532,23,17.5,23z M6,15c-1.654,0-3,1.346-3,3
		s1.346,3,3,3h11.5c1.93,0,3.5-1.57,3.5-3.5S19.43,14,17.5,14c-0.076,0-0.152,0.002-0.227,0.007
		c-0.381,0.036-0.746-0.166-0.937-0.498C15.445,11.961,13.783,11,12,11c-2.122,0-4.018,1.344-4.72,3.345
		c-0.15,0.429-0.567,0.693-1.023,0.666C6.172,15.004,6.087,15,6,15z M3.149,12c-0.466,0-0.883-0.327-0.979-0.802
		C2.057,10.642,2,10.07,2,9.5C2,4.813,5.813,1,10.5,1c4.244,0,7.866,3.167,8.425,7.368c0.073,0.547-0.312,1.05-0.859,1.123
		c-0.552,0.071-1.051-0.312-1.123-0.859C16.515,5.421,13.745,3,10.5,3C6.916,3,4,5.916,4,9.5c0,0.438,0.044,0.875,0.13,1.302
		c0.11,0.541-0.24,1.069-0.782,1.178C3.281,11.994,3.215,12,3.149,12z"/>
</g>
</svg>
