<?xml version="1.0" encoding="iso-8859-1"?>
<!-- Generator: Adobe Illustrator 27.4.0, SVG Export Plug-In . SVG Version: 6.00 Build 0)  -->
<svg version="1.1" id="Layer_1" xmlns="http://www.w3.org/2000/svg" xmlns:xlink="http://www.w3.org/1999/xlink" x="0px" y="0px"
	 viewBox="0 0 24 24" style="enable-background:new 0 0 24 24;" xml:space="preserve">
<g>
	<path d="M12,23c-0.552,0-1-0.447-1-1v-2c0-0.553,0.448-1,1-1s1,0.447,1,1v2C13,22.553,12.552,23,12,23z M16,21
		c-0.553,0-1-0.447-1-1v-2c0-0.553,0.447-1,1-1s1,0.447,1,1v2C17,20.553,16.553,21,16,21z M8,21c-0.552,0-1-0.447-1-1v-2
		c0-0.553,0.448-1,1-1s1,0.447,1,1v2C9,20.553,8.552,21,8,21z M12,17c-0.552,0-1-0.447-1-1v-2c0-0.553,0.448-1,1-1s1,0.447,1,1v2
		C13,16.553,12.552,17,12,17z M20.001,16.242c-0.322,0-0.639-0.155-0.832-0.443c-0.308-0.459-0.185-1.08,0.274-1.388
		C20.418,13.759,21,12.67,21,11.5c0-1.819-1.364-3.317-3.172-3.485c-0.453-0.042-0.821-0.384-0.895-0.833C16.535,4.759,14.46,3,12,3
		C9.54,3,7.465,4.759,7.066,7.182C6.993,7.631,6.625,7.973,6.172,8.015C4.364,8.183,3,9.681,3,11.5c0,1.17,0.582,2.259,1.557,2.911
		c0.458,0.308,0.582,0.929,0.274,1.388c-0.308,0.459-0.929,0.581-1.388,0.274C1.914,15.049,1,13.339,1,11.5
		c0-2.605,1.781-4.792,4.249-5.358C6.07,3.123,8.803,1,12,1s5.93,2.123,6.751,5.142C21.219,6.708,23,8.895,23,11.5
		c0,1.839-0.913,3.549-2.443,4.573C20.386,16.188,20.192,16.242,20.001,16.242z M16,15c-0.553,0-1-0.447-1-1v-2c0-0.552,0.447-1,1-1
		s1,0.448,1,1v2C17,14.553,16.553,15,16,15z M8,15c-0.552,0-1-0.447-1-1v-2c0-0.552,0.448-1,1-1s1,0.448,1,1v2
		C9,14.553,8.552,15,8,15z"/>
</g>
</svg>
