<?xml version="1.0" encoding="iso-8859-1"?>
<!-- Generator: Adobe Illustrator 27.4.0, SVG Export Plug-In . SVG Version: 6.00 Build 0)  -->
<svg version="1.1" id="Layer_1" xmlns="http://www.w3.org/2000/svg" xmlns:xlink="http://www.w3.org/1999/xlink" x="0px" y="0px"
	 viewBox="0 0 24 24" style="enable-background:new 0 0 24 24;" xml:space="preserve">
<g>
	<path d="M17.5,23H6c-2.757,0-5-2.243-5-5c0-2.246,1.475-4.178,3.581-4.796c0.996-2.288,3.138-3.87,5.606-4.157
		C10.063,8.542,10,8.022,10,7.5c0-2.99,2.023-5.583,4.921-6.307c0.339-0.084,0.7,0.015,0.949,0.263
		c0.248,0.248,0.348,0.608,0.264,0.949C16.045,2.761,16,3.129,16,3.5C16,5.981,18.019,8,20.5,8c0.371,0,0.739-0.045,1.095-0.134
		c0.339-0.083,0.701,0.015,0.949,0.263c0.248,0.248,0.349,0.609,0.263,0.949c-0.383,1.533-1.288,2.821-2.499,3.694
		C21.919,13.732,23,15.492,23,17.5C23,20.532,20.532,23,17.5,23z M11,11c-2.139,0-4.041,1.359-4.732,3.381
		c-0.119,0.347-0.417,0.601-0.778,0.662C4.047,15.29,3,16.533,3,18c0,1.654,1.346,3,3,3h11.5c1.93,0,3.5-1.57,3.5-3.5
		S19.43,14,17.5,14c-0.319,0-0.637,0.043-0.942,0.128c-0.457,0.127-0.929-0.078-1.149-0.49C14.534,12.011,12.845,11,11,11z
		 M12.3,9.121c1.793,0.337,3.39,1.365,4.441,2.873c1.446-0.077,2.735-0.836,3.508-1.999c-3.385-0.129-6.115-2.859-6.244-6.244
		C12.778,4.566,12,5.957,12,7.5C12,8.064,12.101,8.607,12.3,9.121z M5,8C4.448,8,4,7.552,4,7V6H3C2.448,6,2,5.552,2,5s0.448-1,1-1h1
		V3c0-0.552,0.448-1,1-1s1,0.448,1,1v1h1c0.552,0,1,0.448,1,1S7.552,6,7,6H6v1C6,7.552,5.552,8,5,8z"/>
</g>
</svg>
