<?xml version="1.0" encoding="iso-8859-1"?>
<!-- Generator: Adobe Illustrator 27.4.0, SVG Export Plug-In . SVG Version: 6.00 Build 0)  -->
<svg version="1.1" id="Layer_1" xmlns="http://www.w3.org/2000/svg" xmlns:xlink="http://www.w3.org/1999/xlink" x="0px" y="0px"
	 viewBox="0 0 24 24" style="enable-background:new 0 0 24 24;" xml:space="preserve">
<g>
	<path d="M21,22c-0.256,0-0.512-0.098-0.707-0.293l-1.797-1.797C18.169,19.97,17.836,20,17.5,20h-11C3.467,20,1,17.532,1,14.5
		c0-2.605,1.781-4.792,4.25-5.358c0.167-0.608,0.418-1.193,0.742-1.735L2.293,3.707c-0.391-0.391-0.391-1.023,0-1.414
		s1.023-0.391,1.414,0l4.249,4.249c0.027,0.024,0.053,0.05,0.077,0.077L19.45,18.036c0.048,0.04,0.092,0.084,0.132,0.132
		l2.125,2.125c0.391,0.391,0.391,1.023,0,1.414C21.512,21.902,21.256,22,21,22z M7.469,8.883C7.276,9.295,7.14,9.732,7.066,10.182
		s-0.441,0.792-0.895,0.833C4.364,11.183,3,12.681,3,14.5C3,16.43,4.57,18,6.5,18h10.086L7.469,8.883z M21.7,17.118
		c-0.12,0-0.241-0.021-0.359-0.066c-0.516-0.199-0.772-0.777-0.574-1.293C20.922,15.357,21,14.934,21,14.5
		c0-1.819-1.364-3.317-3.172-3.485c-0.453-0.042-0.821-0.384-0.895-0.833C16.535,7.759,14.46,6,12,6
		c-0.366,0-0.731,0.04-1.085,0.118c-0.539,0.118-1.073-0.222-1.192-0.761s0.222-1.073,0.761-1.192C10.979,4.055,11.489,4,12,4
		c3.197,0,5.93,2.123,6.751,5.142C21.219,9.708,23,11.895,23,14.5c0,0.681-0.123,1.346-0.366,1.978
		C22.48,16.875,22.102,17.118,21.7,17.118z"/>
</g>
</svg>
