<?xml version="1.0" encoding="iso-8859-1"?>
<!-- Generator: Adobe Illustrator 27.4.0, SVG Export Plug-In . SVG Version: 6.00 Build 0)  -->
<svg version="1.1" id="Layer_1" xmlns="http://www.w3.org/2000/svg" xmlns:xlink="http://www.w3.org/1999/xlink" x="0px" y="0px"
	 viewBox="0 0 24 24" style="enable-background:new 0 0 24 24;" xml:space="preserve">
<g>
	<path d="M12.01,22.5c-0.552,0-1.005-0.447-1.005-1s0.443-1,0.995-1h0.01c0.552,0,1,0.447,1,1S12.562,22.5,12.01,22.5z M16.01,22
		c-0.553,0-1.005-0.447-1.005-1s0.442-1,0.995-1h0.01c0.553,0,1,0.447,1,1S16.562,22,16.01,22z M8.01,22
		c-0.552,0-1.005-0.447-1.005-1S7.448,20,8,20h0.01c0.552,0,1,0.447,1,1S8.562,22,8.01,22z M12.01,19.5
		c-0.552,0-1.005-0.447-1.005-1s0.443-1,0.995-1h0.01c0.552,0,1,0.447,1,1S12.562,19.5,12.01,19.5z M16.01,19
		c-0.553,0-1.005-0.447-1.005-1s0.442-1,0.995-1h0.01c0.553,0,1,0.447,1,1S16.562,19,16.01,19z M8.01,19
		c-0.552,0-1.005-0.447-1.005-1S7.448,17,8,17h0.01c0.552,0,1,0.447,1,1S8.562,19,8.01,19z M17.5,16H7c-3.309,0-6-2.691-6-6
		c0-3.143,2.429-5.729,5.508-5.98C7.695,2.143,9.749,1,12,1c2.646,0,5.02,1.622,6.011,4.023C20.805,5.282,23,7.64,23,10.5
		C23,13.532,20.532,16,17.5,16z M7.083,6.001C4.793,6.001,3,7.795,3,10c0,2.206,1.794,4,4,4h10.5c1.93,0,3.5-1.57,3.5-3.5
		S19.43,7,17.5,7l-0.163,0.003c-0.49,0.02-0.88-0.282-1.006-0.728C15.788,4.347,14.007,3,12,3c-1.7,0-3.236,0.941-4.01,2.456
		C7.816,5.795,7.477,5.995,7.084,6.001C7.084,6.001,7.083,6.001,7.083,6.001z"/>
</g>
</svg>
