<?xml version="1.0" encoding="iso-8859-1"?>
<!-- Generator: Adobe Illustrator 27.4.0, SVG Export Plug-In . SVG Version: 6.00 Build 0)  -->
<svg version="1.1" id="Layer_1" xmlns="http://www.w3.org/2000/svg" xmlns:xlink="http://www.w3.org/1999/xlink" x="0px" y="0px"
	 viewBox="0 0 24 24" style="enable-background:new 0 0 24 24;" xml:space="preserve">
<g>
	<path d="M12,23c-0.552,0-1-0.447-1-1v-2.5c0-0.553,0.448-1,1-1s1,0.447,1,1V22C13,22.553,12.552,23,12,23z M16,22
		c-0.553,0-1-0.447-1-1v-2.5c0-0.553,0.447-1,1-1s1,0.447,1,1V21C17,21.553,16.553,22,16,22z M8,22c-0.552,0-1-0.447-1-1v-2.5
		c0-0.553,0.448-1,1-1s1,0.447,1,1V21C9,21.553,8.552,22,8,22z M17.5,16H7c-3.309,0-6-2.691-6-6c0-3.143,2.429-5.729,5.508-5.98
		C7.695,2.143,9.749,1,12,1c2.646,0,5.02,1.622,6.011,4.023C20.805,5.282,23,7.64,23,10.5C23,13.532,20.532,16,17.5,16z
		 M7.083,6.001C4.793,6.001,3,7.795,3,10c0,2.206,1.794,4,4,4h10.5c1.93,0,3.5-1.57,3.5-3.5S19.43,7,17.5,7l-0.163,0.003
		c-0.49,0.02-0.88-0.282-1.006-0.728C15.788,4.347,14.007,3,12,3c-1.7,0-3.236,0.941-4.01,2.456
		C7.816,5.795,7.477,5.995,7.084,6.001C7.084,6.001,7.083,6.001,7.083,6.001z"/>
</g>
</svg>
