<?xml version="1.0" encoding="iso-8859-1"?>
<!-- Generator: Adobe Illustrator 27.4.0, SVG Export Plug-In . SVG Version: 6.00 Build 0)  -->
<svg version="1.1" id="Layer_1" xmlns="http://www.w3.org/2000/svg" xmlns:xlink="http://www.w3.org/1999/xlink" x="0px" y="0px"
	 viewBox="0 0 24 24" style="enable-background:new 0 0 24 24;" xml:space="preserve">
<g>
	<path d="M16.5,20h-7C4.813,20,1,16.187,1,11.5C1,6.813,4.813,3,9.5,3c2.957,0,5.667,1.519,7.215,4.003C20.2,7.117,23,9.988,23,13.5
		C23,17.084,20.084,20,16.5,20z M9.5,5C5.916,5,3,7.916,3,11.5S5.916,18,9.5,18h7c2.481,0,4.5-2.019,4.5-4.5S18.981,9,16.5,9
		c-0.099,0-0.196,0.003-0.294,0.01c-0.391,0.032-0.767-0.183-0.95-0.532C14.127,6.333,11.922,5,9.5,5z"/>
</g>
</svg>
