<?xml version="1.0" encoding="iso-8859-1"?>
<!-- Generator: Adobe Illustrator 27.4.0, SVG Export Plug-In . SVG Version: 6.00 Build 0)  -->
<svg version="1.1" id="Layer_1" xmlns="http://www.w3.org/2000/svg" xmlns:xlink="http://www.w3.org/1999/xlink" x="0px" y="0px"
	 viewBox="0 0 24 24" style="enable-background:new 0 0 24 24;" xml:space="preserve">
<g>
	<path d="M15,22c-0.124,0-0.25-0.022-0.371-0.071c-0.513-0.205-0.763-0.787-0.558-1.3l1-2.5c0.205-0.515,0.791-0.763,1.3-0.558
		c0.513,0.205,0.763,0.787,0.558,1.3l-1,2.5C15.772,21.763,15.396,22,15,22z M11,22c-0.124,0-0.249-0.022-0.371-0.071
		c-0.513-0.205-0.762-0.787-0.557-1.3l1-2.5c0.205-0.514,0.786-0.765,1.3-0.558c0.513,0.205,0.762,0.787,0.557,1.3l-1,2.5
		C11.772,21.763,11.396,22,11,22z M7,22c-0.124,0-0.249-0.022-0.371-0.071c-0.513-0.205-0.762-0.787-0.557-1.3l1-2.5
		c0.205-0.514,0.784-0.765,1.3-0.558c0.513,0.205,0.762,0.787,0.557,1.3l-1,2.5C7.772,21.763,7.396,22,7,22z M17.5,16H7
		c-3.309,0-6-2.691-6-6c0-3.143,2.429-5.729,5.508-5.98C7.695,2.143,9.749,1,12,1c2.646,0,5.02,1.622,6.011,4.023
		C20.805,5.282,23,7.64,23,10.5C23,13.532,20.532,16,17.5,16z M7.083,6.001C4.793,6.001,3,7.795,3,10c0,2.206,1.794,4,4,4h10.5
		c1.93,0,3.5-1.57,3.5-3.5S19.43,7,17.5,7l-0.163,0.003c-0.49,0.02-0.88-0.282-1.006-0.728C15.788,4.347,14.007,3,12,3
		c-1.7,0-3.236,0.941-4.01,2.456C7.816,5.795,7.477,5.995,7.084,6.001C7.084,6.001,7.083,6.001,7.083,6.001z"/>
</g>
</svg>
