<?xml version="1.0" encoding="iso-8859-1"?>
<!-- Generator: Adobe Illustrator 27.4.0, SVG Export Plug-In . SVG Version: 6.00 Build 0)  -->
<svg version="1.1" id="Layer_1" xmlns="http://www.w3.org/2000/svg" xmlns:xlink="http://www.w3.org/1999/xlink" x="0px" y="0px"
	 viewBox="0 0 24 24" style="enable-background:new 0 0 24 24;" xml:space="preserve">
<g>
	<path d="M12,23C5.935,23,1,18.065,1,12S5.935,1,12,1s11,4.935,11,11S18.065,23,12,23z M12,3c-4.962,0-9,4.038-9,9
		c0,4.963,4.038,9,9,9c4.963,0,9-4.037,9-9C21,7.038,16.963,3,12,3z M11.001,18c-0.065,0-0.131-0.006-0.197-0.02
		c-0.542-0.108-0.893-0.635-0.784-1.177l2-10c0.108-0.542,0.634-0.891,1.177-0.784c0.541,0.108,0.893,0.635,0.784,1.177l-2,10
		C11.886,17.672,11.468,18,11.001,18z M15.5,16c-0.256,0-0.512-0.098-0.707-0.293c-0.391-0.391-0.391-1.023,0-1.414L17.086,12
		l-2.293-2.293c-0.391-0.391-0.391-1.023,0-1.414s1.023-0.391,1.414,0l3,3c0.391,0.391,0.391,1.023,0,1.414l-3,3
		C16.012,15.902,15.756,16,15.5,16z M8.5,16c-0.256,0-0.512-0.098-0.707-0.293l-3-3c-0.391-0.391-0.391-1.023,0-1.414l3-3
		c0.391-0.391,1.023-0.391,1.414,0s0.391,1.023,0,1.414L6.914,12l2.293,2.293c0.391,0.391,0.391,1.023,0,1.414
		C9.012,15.902,8.756,16,8.5,16z"/>
</g>
</svg>
