<?xml version="1.0" encoding="iso-8859-1"?>
<!-- Generator: Adobe Illustrator 27.4.0, SVG Export Plug-In . SVG Version: 6.00 Build 0)  -->
<svg version="1.1" id="Layer_1" xmlns="http://www.w3.org/2000/svg" xmlns:xlink="http://www.w3.org/1999/xlink" x="0px" y="0px"
	 viewBox="0 0 24 24" style="enable-background:new 0 0 24 24;" xml:space="preserve">
<g>
	<path d="M10.001,22c-0.072,0-0.145-0.008-0.218-0.023c-0.539-0.12-0.879-0.654-0.759-1.193l4-18c0.12-0.54,0.659-0.874,1.193-0.759
		c0.539,0.12,0.879,0.654,0.76,1.193l-4,18C10.873,21.683,10.459,22,10.001,22z M17,18c-0.256,0-0.512-0.098-0.707-0.293
		c-0.391-0.391-0.391-1.023,0-1.414L20.586,12l-4.293-4.293c-0.391-0.391-0.391-1.023,0-1.414s1.023-0.391,1.414,0l5,5
		c0.391,0.391,0.391,1.023,0,1.414l-5,5C17.512,17.902,17.256,18,17,18z M7,18c-0.256,0-0.512-0.098-0.707-0.293l-5-5
		c-0.391-0.391-0.391-1.023,0-1.414l5-5c0.391-0.391,1.023-0.391,1.414,0s0.391,1.023,0,1.414L3.414,12l4.293,4.293
		c0.391,0.391,0.391,1.023,0,1.414C7.512,17.902,7.256,18,7,18z"/>
</g>
</svg>
