<?xml version="1.0" encoding="iso-8859-1"?>
<!-- Generator: Adobe Illustrator 27.4.0, SVG Export Plug-In . SVG Version: 6.00 Build 0)  -->
<svg version="1.1" id="Layer_1" xmlns="http://www.w3.org/2000/svg" xmlns:xlink="http://www.w3.org/1999/xlink" x="0px" y="0px"
	 viewBox="0 0 24 24" style="enable-background:new 0 0 24 24;" xml:space="preserve">
<g>
	<path d="M12,22.808c-0.153,0-0.307-0.018-0.456-0.053c-0.342-0.08-0.588-0.24-0.961-0.482l-8.4-5.46
		c-0.303-0.197-0.523-0.34-0.717-0.571c-0.172-0.205-0.298-0.438-0.378-0.695C1,15.257,1,15.009,1,14.632V9.369
		c0-0.377,0-0.625,0.088-0.912c0.08-0.258,0.206-0.49,0.376-0.694c0.195-0.233,0.403-0.369,0.719-0.574l8.4-5.46
		c0.373-0.242,0.619-0.402,0.959-0.482c0.301-0.069,0.616-0.07,0.914,0c0.342,0.081,0.588,0.241,0.961,0.483l8.4,5.46
		c0.316,0.206,0.524,0.341,0.718,0.572c0.173,0.208,0.299,0.441,0.377,0.695C23,8.743,23,8.992,23,9.369v5.263
		c0,0.377,0,0.625-0.088,0.912c-0.078,0.256-0.205,0.49-0.378,0.696c-0.194,0.231-0.413,0.374-0.716,0.571
		c-0.001,0-0.001,0-0.001,0.001l-8.4,5.46c-0.373,0.242-0.619,0.402-0.959,0.482C12.308,22.79,12.153,22.808,12,22.808z M13,15.543
		v4.615l7.165-4.657c0-0.001,0-0.001,0-0.002c-0.044-0.027-0.414-0.269-0.773-0.501l-2.776-1.805L13,15.543z M3.854,15.514
		L11,20.158v-4.615l-3.615-2.35l-2.776,1.805C4.305,15.194,3.993,15.396,3.854,15.514z M9.22,12L12,13.808L14.78,12L12,10.193
		L9.22,12z M3,10.337v3.326c0.156-0.106,0.329-0.219,0.52-0.343L5.55,12l-2.031-1.32C3.329,10.556,3.156,10.444,3,10.337z M18.45,12
		l2.031,1.32c0.19,0.124,0.363,0.236,0.519,0.343v-3.326c-0.155,0.106-0.328,0.219-0.519,0.343L18.45,12z M13,8.458l3.615,2.35
		l2.776-1.804c0.303-0.197,0.615-0.4,0.754-0.517L13,3.843V8.458z M3.835,8.5L3.835,8.5C3.878,8.528,4.25,8.77,4.609,9.003
		l2.776,1.804L11,8.458V3.843L3.835,8.5z"/>
</g>
</svg>
