<?xml version="1.0" encoding="iso-8859-1"?>
<!-- Generator: Adobe Illustrator 27.4.0, SVG Export Plug-In . SVG Version: 6.00 Build 0)  -->
<svg version="1.1" id="Layer_1" xmlns="http://www.w3.org/2000/svg" xmlns:xlink="http://www.w3.org/1999/xlink" x="0px" y="0px"
	 viewBox="0 0 24 24" style="enable-background:new 0 0 24 24;" xml:space="preserve">
<g>
	<path d="M4.4,23H3.6c-0.651,0-1.081,0-1.51-0.219c-0.377-0.192-0.679-0.494-0.872-0.873C1,21.48,1,21.051,1,20.4V14.6
		c0-0.65,0-1.08,0.218-1.508c0.193-0.379,0.496-0.681,0.875-0.874C2.519,12,2.949,12,3.6,12h0.8c0.651,0,1.081,0,1.51,0.219
		c0.377,0.192,0.679,0.494,0.872,0.873c0.076,0.148,0.125,0.298,0.158,0.456l1.607-0.672C8.841,12.741,10.518,12,11.643,12
		c0.477,0,0.955,0.057,1.42,0.169l2.387,0.581c1.111,0.269,1.9,1.219,1.955,2.334l1.483-1.081c1.029-0.753,2.438-0.653,3.347,0.233
		c0.493,0.48,0.766,1.12,0.765,1.803c0,0.682-0.271,1.321-0.765,1.8l-2.158,2.099c-0.722,0.702-1.632,1.177-2.633,1.372l-3.05,0.594
		c-0.741,0.145-1.521,0.125-2.254-0.053l-2.758-0.67c-0.254-0.062-0.513-0.094-0.772-0.094H6.986
		c-0.021,0.306-0.073,0.563-0.204,0.821c-0.193,0.379-0.496,0.681-0.875,0.874C5.481,23,5.051,23,4.4,23z M3.6,14
		c-0.278,0-0.566,0-0.648,0.02C3,14.033,3,14.321,3,14.6V20.4c0,0.278,0,0.566,0.02,0.648C3.034,21,3.322,21,3.6,21h0.8
		c0.278,0,0.566,0,0.648-0.02C5,20.967,5,20.679,5,20.4v-5.353c0-0.016,0-0.03,0-0.046V14.6c0-0.278,0-0.566-0.02-0.648
		C4.966,14,4.678,14,4.4,14H3.6z M7,19.087h1.61c0.42,0,0.84,0.051,1.247,0.151l2.755,0.669c0.456,0.111,0.941,0.122,1.4,0.033
		l3.049-0.594c0.618-0.121,1.179-0.412,1.621-0.843l2.158-2.099c0.103-0.1,0.159-0.23,0.159-0.367c0-0.138-0.057-0.269-0.159-0.368
		c-0.207-0.201-0.54-0.223-0.773-0.052l-2.516,1.834c-0.525,0.385-1.179,0.598-1.838,0.598h-2.429c-0.552,0-1-0.447-1-1s0.448-1,1-1
		h1.546c0.318,0,0.577-0.239,0.577-0.534v-0.307c0-0.242-0.177-0.454-0.43-0.516l-2.386-0.58C12.282,14.038,11.962,14,11.643,14
		c-0.512,0-1.651,0.414-2.295,0.708L7,15.69V19.087z M16.5,11c-1.263,0-2.406-0.523-3.224-1.364C12.719,9.876,12.118,10,11.5,10
		C9.019,10,7,7.981,7,5.5S9.019,1,11.5,1c1.238,0,2.392,0.497,3.229,1.363C15.272,2.129,15.872,2,16.5,2C18.981,2,21,4.019,21,6.5
		S18.981,11,16.5,11z M16.5,4C15.121,4,14,5.122,14,6.5S15.121,9,16.5,9S19,7.878,19,6.5S17.879,4,16.5,4z M11.5,3
		C10.122,3,9,4.122,9,5.5S10.122,8,11.5,8c0.247,0,0.49-0.036,0.721-0.105C12.078,7.456,12,6.987,12,6.5
		c0-1.119,0.411-2.144,1.089-2.932C12.648,3.205,12.092,3,11.5,3z"/>
</g>
</svg>
