<?xml version="1.0" encoding="iso-8859-1"?>
<!-- Generator: Adobe Illustrator 27.4.0, SVG Export Plug-In . SVG Version: 6.00 Build 0)  -->
<svg version="1.1" id="Layer_1" xmlns="http://www.w3.org/2000/svg" xmlns:xlink="http://www.w3.org/1999/xlink" x="0px" y="0px"
	 viewBox="0 0 24 24" style="enable-background:new 0 0 24 24;" xml:space="preserve">
<g>
	<path d="M16.5,22c-3.131,0-6.5-0.938-6.5-3v-7.5c0,0,0-0.001,0-0.001C10.001,9.438,13.37,8.5,16.5,8.5s6.498,0.938,6.5,2.999
		c0,0,0,0.001,0,0.001V19C23,21.062,19.631,22,16.5,22z M12,17.492V19c0.155,0.232,1.698,1,4.5,1s4.346-0.768,4.517-1.088
		l-0.003-1.426C18.531,18.521,14.489,18.522,12,17.492z M12,15.25c0.155,0.232,1.698,1,4.5,1c2.761,0,4.3-0.745,4.509-1.073
		l-0.004-1.437c-2.483,1.029-6.519,1.031-9.005,0.002V15.25z M12.025,11.53c0.253,0.262,1.784,0.97,4.475,0.97
		c2.571,0,4.082-0.646,4.446-1c-0.364-0.354-1.875-1-4.446-1C13.854,10.5,12.332,11.184,12.025,11.53z M7.5,20
		C4.37,20,1,19.062,1,17V5c0,0,0-0.001,0-0.001C1.001,2.938,4.37,2,7.5,2s6.498,0.938,6.5,2.999C14,4.999,14,5,14,5v1.5
		c0,0.552-0.447,1-1,1c-0.309,0-0.584-0.14-0.768-0.359C9.782,8.27,5.563,8.301,3,7.242V9c0.158,0.238,1.567,0.912,4.033,0.992
		C7.187,9.997,7.343,10,7.5,10c0.552,0,1,0.448,1,1s-0.448,1-1,1c-0.18,0-0.357-0.003-0.533-0.009
		C5.61,11.947,4.141,11.721,3,11.256V13c0.155,0.232,1.698,1,4.5,1c0.552,0,1,0.447,1,1s-0.448,1-1,1
		c-1.598,0-3.257-0.244-4.5-0.758V17c0.155,0.232,1.698,1,4.5,1c0.552,0,1,0.447,1,1S8.052,20,7.5,20z M3.025,5.03
		C3.278,5.292,4.809,6,7.5,6c2.571,0,4.082-0.646,4.446-1C11.582,4.646,10.071,4,7.5,4C4.855,4,3.332,4.684,3.025,5.03z"/>
</g>
</svg>
