<?xml version="1.0" encoding="iso-8859-1"?>
<!-- Generator: Adobe Illustrator 27.4.0, SVG Export Plug-In . SVG Version: 6.00 Build 0)  -->
<svg version="1.1" id="Layer_1" xmlns="http://www.w3.org/2000/svg" xmlns:xlink="http://www.w3.org/1999/xlink" x="0px" y="0px"
	 viewBox="0 0 24 24" style="enable-background:new 0 0 24 24;" xml:space="preserve">
<g>
	<path d="M12,23c-4.473,0-9-1.374-9-4V5c0,0,0-0.001,0-0.001C3.001,2.373,7.528,1,12,1s8.998,1.373,9,3.999C21,4.999,21,5,21,5v14
		C21,21.626,16.473,23,12,23z M5,16.938V19c0,0.58,2.453,2,7,2s7-1.42,7-2v-2.062C15.527,18.777,8.473,18.777,5,16.938z M5,14.33
		c0,0.58,2.453,2,7,2s7-1.42,7-2v-2.056c-3.473,1.841-10.527,1.841-14,0V14.33z M5,9.667c0,0.581,2.453,2,7,2s7-1.419,7-2V7.607
		c-3.473,1.841-10.527,1.841-14,0V9.667z M5,5c0,0.581,2.453,2,7,2s7-1.419,7-2s-2.453-2-7-2S5,4.419,5,5z"/>
</g>
</svg>
