<?xml version="1.0" encoding="iso-8859-1"?>
<!-- Generator: Adobe Illustrator 27.4.0, SVG Export Plug-In . SVG Version: 6.00 Build 0)  -->
<svg version="1.1" id="Layer_1" xmlns="http://www.w3.org/2000/svg" xmlns:xlink="http://www.w3.org/1999/xlink" x="0px" y="0px"
	 viewBox="0 0 24 24" style="enable-background:new 0 0 24 24;" xml:space="preserve">
<g>
	<path d="M18,23c-0.256,0-0.512-0.098-0.707-0.293l-2-2c-0.097-0.097-0.169-0.207-0.218-0.326C15.027,20.265,15,20.137,15,20.003
		l0,0c0-0.002,0-0.004,0-0.006l0,0c0-0.134,0.027-0.262,0.075-0.378c0.049-0.119,0.121-0.229,0.218-0.326l2-2
		c0.391-0.391,1.023-0.391,1.414,0s0.391,1.023,0,1.414l-0.26,0.26C19.891,18.75,21,17.502,21,16c0-0.553,0.447-1,1-1s1,0.447,1,1
		c0,2.623-2.03,4.78-4.602,4.984l0.309,0.309c0.391,0.391,0.391,1.023,0,1.414C18.512,22.902,18.256,23,18,23z M8,23
		c-3.86,0-7-3.141-7-7c0-3.86,3.14-7,7-7s7,3.14,7,7C15,19.859,11.86,23,8,23z M8,11c-2.757,0-5,2.243-5,5s2.243,5,5,5s5-2.243,5-5
		S10.757,11,8,11z M17.499,14.811c-0.445,0-0.852-0.3-0.968-0.751c-0.138-0.534,0.185-1.08,0.72-1.217C19.458,12.274,21,10.283,21,8
		c0-2.757-2.243-5-5-5c-2.283,0-4.274,1.542-4.843,3.749C11.02,7.284,10.473,7.604,9.94,7.468C9.405,7.331,9.083,6.786,9.221,6.251
		C10.016,3.159,12.804,1,16,1c3.859,0,7,3.14,7,7c0,3.196-2.159,5.983-5.251,6.779C17.666,14.801,17.582,14.811,17.499,14.811z M2,9
		C1.448,9,1,8.552,1,8c0-2.623,2.03-4.781,4.602-4.984L5.293,2.707c-0.391-0.391-0.391-1.023,0-1.414s1.023-0.391,1.414,0l2,2
		C8.803,3.389,8.876,3.5,8.925,3.619C8.973,3.735,9,3.863,9,3.997l0,0c0,0.002,0,0.004,0,0.006l0,0c0,0.134-0.027,0.262-0.075,0.378
		C8.876,4.5,8.803,4.611,8.707,4.707l-2,2c-0.391,0.391-1.023,0.391-1.414,0s-0.391-1.023,0-1.414l0.259-0.26C4.11,5.25,3,6.498,3,8
		C3,8.552,2.552,9,2,9z"/>
</g>
</svg>
