<?xml version="1.0" encoding="iso-8859-1"?>
<!-- Generator: Adobe Illustrator 27.4.0, SVG Export Plug-In . SVG Version: 6.00 Build 0)  -->
<svg version="1.1" id="Layer_1" xmlns="http://www.w3.org/2000/svg" xmlns:xlink="http://www.w3.org/1999/xlink" x="0px" y="0px"
	 viewBox="0 0 24 24" style="enable-background:new 0 0 24 24;" xml:space="preserve">
<g>
	<path d="M17,23c-1.938,0-3.666-0.925-4.764-2.356C11.061,21.184,9.359,21.5,7.5,21.5c-3.13,0-6.5-0.938-6.5-3V5
		c0,0,0-0.001,0-0.001C1.001,2.938,4.37,2,7.5,2s6.498,0.938,6.5,2.999C14,4.999,14,5,14,5v6.805C14.883,11.293,15.908,11,17,11
		c3.309,0,6,2.691,6,6S20.309,23,17,23z M13,17.01c0.006,2.201,1.798,3.99,4,3.99c2.206,0,4-1.794,4-4s-1.794-4-4-4
		c-2.201,0-3.992,1.787-4,3.986c0,0.002,0,0.002,0,0.004s0,0.005,0,0.005c0,0.002,0,0.003,0,0.005c0,0.001,0,0.002,0,0.004v0.001
		C13,17.007,13,17.009,13,17.01C13,17.01,13,17.01,13,17.01z M3,16.242V18.5c0.155,0.232,1.698,1,4.5,1
		c1.678,0,3.007-0.284,3.8-0.624c-0.194-0.587-0.299-1.214-0.3-1.864v-0.001c0-0.002,0-0.004,0-0.006c0-0.001,0-0.003,0-0.005
		s0-0.005,0-0.007c0,0,0-0.001,0-0.002c0-0.002,0-0.004,0-0.006s0-0.004,0-0.006c0-0.134,0.005-0.267,0.014-0.399
		C10.004,16.852,8.797,17,7.5,17C5.902,17,4.243,16.756,3,16.242z M3,13.939C3.239,14.273,4.774,15,7.5,15
		c2.003,0,3.51-0.402,4.208-0.831c0.089-0.166,0.187-0.329,0.292-0.487v-1.939c-2.485,1.026-6.515,1.026-9,0V13.939z M3,9.5
		c0.155,0.232,1.698,1,4.5,1c2.726,0,4.261-0.727,4.5-1.061V7.242c-2.485,1.026-6.515,1.026-9,0V9.5z M3.025,5.03
		C3.278,5.292,4.809,6,7.5,6c2.571,0,4.082-0.646,4.446-1C11.582,4.646,10.071,4,7.5,4C4.855,4,3.332,4.684,3.025,5.03z"/>
</g>
</svg>
