<?xml version="1.0" encoding="iso-8859-1"?>
<!-- Generator: Adobe Illustrator 27.4.0, SVG Export Plug-In . SVG Version: 6.00 Build 0)  -->
<svg version="1.1" id="Layer_1" xmlns="http://www.w3.org/2000/svg" xmlns:xlink="http://www.w3.org/1999/xlink" x="0px" y="0px"
	 viewBox="0 0 24 24" style="enable-background:new 0 0 24 24;" xml:space="preserve">
<g>
	<path d="M16.5,22c-2.712,0-5.603-0.704-6.328-2.232C9.348,19.921,8.442,20,7.5,20C4.37,20,1,19.062,1,17V5c0,0,0-0.001,0-0.001
		C1.001,2.938,4.37,2,7.5,2s6.498,0.938,6.5,2.999C14,4.999,14,5,14,5v3.206C14.804,8.067,15.66,8,16.5,8
		c3.13,0,6.498,0.938,6.5,2.999c0,0,0,0.001,0,0.001v8C23,21.062,19.631,22,16.5,22z M12,18.543V19c0.155,0.232,1.698,1,4.5,1
		s4.346-0.768,4.517-1.088l-0.003-1.676c-2.482,1.033-6.524,1.035-9.014,0.006V18.543z M3,15.242V17c0.155,0.232,1.698,1,4.5,1
		c0.885,0,1.748-0.083,2.5-0.237v-1.965C7.806,16.176,4.925,16.038,3,15.242z M12,15c0.155,0.232,1.698,1,4.5,1
		c2.761,0,4.3-0.745,4.509-1.073l-0.004-1.687c-2.483,1.028-6.519,1.03-9.005,0.002v1.278c0,0.016,0,0.03,0,0.046V15z M3,12.939
		C3.239,13.273,4.774,14,7.5,14c0.885,0,1.748-0.083,2.5-0.237v-1.964c-2.192,0.375-5.074,0.239-7-0.556V12.939z M12.027,11.032
		C12.287,11.296,13.816,12,16.5,12c2.571,0,4.082-0.646,4.446-1c-0.364-0.354-1.875-1-4.446-1c-1.359,0-2.422,0.181-3.177,0.403
		c-0.012,0.004-0.023,0.008-0.035,0.011C12.512,10.648,12.149,10.905,12.027,11.032z M3,8.939C3.239,9.273,4.774,10,7.5,10
		c1.144,0,2.249-0.138,3.126-0.39c0.001-0.001,0.002-0.002,0.004-0.003c0.3-0.299,0.738-0.596,1.37-0.857V7.242
		c-2.485,1.026-6.515,1.026-9,0V8.939z M3.025,5.03C3.278,5.292,4.809,6,7.5,6c2.571,0,4.082-0.646,4.446-1
		C11.582,4.646,10.071,4,7.5,4C4.855,4,3.332,4.684,3.025,5.03z"/>
</g>
</svg>
