<svg width="21" height="21" viewBox="0 0 21 21" fill="none" xmlns="http://www.w3.org/2000/svg">
<path fill-rule="evenodd" clip-rule="evenodd" d="M10.4725 0.000118939C16.2844 0.000118939 20.9723 4.68806 20.9723 10.5274C20.9723 16.2845 16.2296 21.0273 10.3902 20.9999C4.74277 20.9451 0 16.2845 0 10.5C0 4.68806 4.66052 -0.0272959 10.4725 0.000118939ZM2.49475 15.983C2.49475 16.0926 2.54958 16.1475 2.60441 16.2297C3.01563 16.8054 3.48168 17.3537 4.02998 17.8198C4.27671 18.0391 4.52345 18.2584 4.7976 18.4503C5.56521 18.9438 6.36024 19.4098 7.23752 19.7114C7.9503 19.9581 8.6905 20.15 9.4307 20.2323C10.0064 20.2871 10.6095 20.3145 11.1853 20.2323C11.5142 20.1774 11.8706 20.1774 12.1996 20.0404C12.2544 20.0678 12.2818 20.013 12.3093 20.013C12.9946 19.9033 13.6526 19.684 14.3105 19.4098C16.4489 18.4777 18.0664 16.9699 19.1081 14.8864C20.0402 13.0496 20.3418 11.1031 20.0402 9.07443C19.7661 7.12798 18.9437 5.42826 17.6277 4.00268C15.8732 2.0014 13.6252 0.959639 10.9659 0.79515C9.7871 0.712905 8.60826 0.877393 7.48425 1.2612C5.64746 1.86433 4.13964 2.90609 2.90597 4.41391C1.50782 6.14104 0.822445 8.11491 0.7402 10.3081C0.712785 10.8564 0.767615 11.3773 0.84986 11.9256C1.01435 13.1592 1.42557 14.3381 2.05611 15.4073C2.2206 15.5717 2.33026 15.7911 2.49475 15.983Z" fill="#AAADC0"/>
<path fill-rule="evenodd" clip-rule="evenodd" d="M12.1996 20.0129C11.8707 20.1774 11.5143 20.1774 11.1853 20.2048C10.6096 20.2871 10.0064 20.2597 9.43073 20.2048C8.69053 20.1226 7.95033 19.9307 7.23755 19.6839C6.36027 19.3824 5.56524 18.9163 4.79763 18.4229C4.52348 18.231 4.27675 18.0116 4.03001 17.7923C3.48172 17.3263 3.01566 16.778 2.60444 16.2023C2.54961 16.12 2.49478 16.0378 2.49478 15.9555C3.15274 14.4751 3.39947 12.9125 3.53655 11.3224C3.59137 10.5822 3.61879 9.84201 3.75586 9.10181C3.89294 8.25195 4.22192 7.48434 4.82504 6.82638C5.37334 6.25067 6.05871 5.86686 6.79891 5.59271C7.40204 5.34598 8.03258 5.12666 8.71795 5.09925C9.34849 5.07183 9.95162 5.15408 10.5547 5.29115C11.4594 5.51047 12.3641 5.78462 13.214 6.19584C13.8994 6.46999 14.6121 6.74414 15.3249 6.96346C16.0651 7.18278 16.8053 7.42951 17.4359 7.89556C18.2309 8.49869 18.4502 9.2663 18.0938 10.1984C17.8745 10.7741 17.4633 11.2128 17.0521 11.6514C16.3119 12.419 15.5168 13.1318 14.804 13.9268C13.9816 14.8863 13.2414 15.8733 12.7205 17.0247C12.2819 17.9842 12.0351 18.9712 12.1996 20.0129ZM17.4907 10.9934C17.4633 10.9934 17.4359 10.9934 17.4085 11.0209C17.381 11.0209 17.3536 11.0483 17.3536 11.0757C17.3536 11.0757 17.3536 11.0757 17.3536 11.1031C17.381 11.1031 17.4085 11.0757 17.4085 11.0483L17.4907 10.9934C17.5455 10.9934 17.5181 10.9934 17.4907 10.9934ZM9.10176 6.22326C8.05999 6.22326 7.21013 7.07312 7.21013 8.08746C7.21013 9.12923 8.05999 9.95167 9.07434 9.97909C10.1161 9.97909 10.9385 9.12923 10.966 8.08746C10.966 7.0457 10.1435 6.22326 9.10176 6.22326ZM10.637 11.9804C10.8015 12.2271 11.103 12.4464 11.4594 12.5561C12.1722 12.8028 12.885 12.8028 13.5978 12.6657C14.8589 12.419 16.0377 11.9804 17.1069 11.2676C17.1617 11.2128 17.2714 11.2128 17.2988 11.1031C17.244 11.0757 17.2165 11.1031 17.1891 11.1305C16.8327 11.3498 16.4489 11.5143 16.0651 11.6788C15.0782 12.09 14.0364 12.3642 12.9398 12.419C12.1448 12.4738 11.3498 12.419 10.637 11.9804ZM15.8184 10.3629C16.0377 10.3629 16.2296 10.171 16.2296 9.92426C16.2296 9.70494 16.0377 9.51304 15.791 9.54045C15.5717 9.54045 15.4072 9.73236 15.4072 9.95167C15.4072 10.1984 15.5717 10.3629 15.8184 10.3629Z" fill="#A9ACBF"/>
<path fill-rule="evenodd" clip-rule="evenodd" d="M10.5271 5.29167C9.92401 5.18201 9.32088 5.07235 8.69034 5.09976C8.00497 5.12718 7.40185 5.34649 6.77131 5.59323C6.0311 5.86738 5.34573 6.25118 4.79744 6.8269C4.19431 7.45744 3.86533 8.22505 3.72826 9.10233C3.6186 9.84253 3.59118 10.5827 3.50894 11.3229C3.37187 12.913 3.12513 14.503 2.46718 15.956C2.27527 15.7915 2.16561 15.5448 2.05595 15.3529C1.42541 14.2837 1.01419 13.1049 0.849701 11.8712C0.767457 11.3229 0.712627 10.802 0.740042 10.2537C0.822286 8.06056 1.50766 6.0867 2.90581 4.35956C4.11207 2.85174 5.6473 1.80998 7.48409 1.20685C8.6081 0.850462 9.78694 0.685974 10.9658 0.740804C13.5976 0.905293 15.8456 1.97447 17.6276 3.92092C18.9435 5.37391 19.7385 7.07363 20.0401 8.99267C20.3416 11.0214 20.0401 12.9678 19.108 14.8046C18.0662 16.8881 16.4487 18.396 14.3104 19.3281C13.6798 19.6022 13.0219 19.8215 12.3091 19.9312C12.2543 19.9312 12.2269 20.0134 12.1994 19.9586C12.035 18.9168 12.2817 17.9299 12.6929 16.9704C13.2138 15.819 13.954 14.832 14.7764 13.8725C15.4618 13.0775 16.2568 12.3373 17.0245 11.5971C17.4631 11.1584 17.8469 10.7198 18.0662 10.1441C18.45 9.21199 18.2307 8.44437 17.4083 7.84124C16.7777 7.37519 16.0375 7.12846 15.2973 6.90914C14.5845 6.68982 13.8717 6.41567 13.1864 6.14152C13.0493 5.67547 12.7203 5.37391 12.2817 5.20942C11.706 5.07235 11.1303 5.12718 10.5271 5.29167ZM19.4918 11.131H19.5466C19.6563 10.7472 19.6563 10.336 19.6563 9.92477C19.6563 9.45872 19.6014 8.99267 19.5192 8.52661C19.2176 7.0188 18.5323 5.70289 17.4631 4.57888C16.8051 3.89351 16.0649 3.3178 15.3247 2.71467C14.6668 2.16637 13.954 1.75515 13.1315 1.53583C12.3365 1.34393 11.5689 1.23427 10.7465 1.37134C10.6916 1.37134 10.6368 1.37134 10.6368 1.42617C10.6368 1.481 10.6916 1.481 10.7465 1.481C11.9527 1.70032 13.1041 2.08413 14.2281 2.52277C15.3247 2.96141 16.2568 3.59195 16.9422 4.57888C17.4083 5.26425 17.8469 5.97704 18.2033 6.74465C18.6693 7.78641 19.0257 8.85559 19.2451 9.95219C19.3547 10.3908 19.437 10.7472 19.4918 11.131Z" fill="#DADEEF"/>
<path fill-rule="evenodd" clip-rule="evenodd" d="M9.10159 6.22363C10.1433 6.22363 10.9658 7.07349 10.9658 8.08784C10.9658 9.1296 10.1159 9.95205 9.07417 9.97946C8.0324 9.97946 7.20996 9.1296 7.20996 8.08784C7.20996 7.04608 8.05982 6.22363 9.10159 6.22363ZM10.4175 8.11525C10.4175 7.37505 9.84179 6.79934 9.10159 6.79934C8.36138 6.79934 7.78567 7.37505 7.78567 8.11525C7.78567 8.82804 8.36138 9.43117 9.07417 9.43117H9.10159C9.81437 9.43117 10.3901 8.85546 10.4175 8.11525Z" fill="#FCFDFB"/>
<path fill-rule="evenodd" clip-rule="evenodd" d="M10.6369 11.9803C11.3497 12.4189 12.1447 12.4738 12.9398 12.4464C14.0364 12.3915 15.0781 12.1448 16.0651 11.7062C16.4489 11.5417 16.8327 11.3772 17.1891 11.1579C17.2165 11.1304 17.2439 11.103 17.2987 11.1304C17.2713 11.2127 17.1891 11.2401 17.1068 11.2949C16.0376 12.0077 14.8588 12.4464 13.5977 12.6931C12.8849 12.8302 12.1447 12.8302 11.4594 12.5834C11.103 12.4464 10.774 12.227 10.6369 11.9803ZM10.5273 5.29108C11.103 5.12659 11.7061 5.07176 12.2818 5.29108C12.7205 5.45557 13.0494 5.75713 13.1865 6.22318C12.3641 5.78455 11.4594 5.5104 10.5273 5.29108Z" fill="#7E8295"/>
<path fill-rule="evenodd" clip-rule="evenodd" d="M15.8184 10.3635C15.5991 10.3635 15.4072 10.1716 15.4072 9.95224C15.4072 9.73292 15.5717 9.54102 15.791 9.54102C16.0104 9.54102 16.2023 9.70551 16.2297 9.92482C16.2023 10.1716 16.0378 10.3635 15.8184 10.3635Z" fill="#FCFDFB"/>
<path fill-rule="evenodd" clip-rule="evenodd" d="M19.4921 11.1303C19.4099 10.7465 19.3276 10.3901 19.2728 10.0063C19.0535 8.88225 18.6697 7.81307 18.231 6.79872C17.9021 6.0311 17.4634 5.31832 16.97 4.63295C16.2846 3.64601 15.3799 3.01547 14.2559 2.57683C13.1045 2.1382 11.9805 1.72697 10.7742 1.53507C10.7194 1.53507 10.6646 1.53507 10.6646 1.48024C10.6646 1.42541 10.7194 1.42541 10.7742 1.42541C11.5692 1.28834 12.3643 1.37058 13.1593 1.5899C13.9817 1.80922 14.6945 2.24786 15.3525 2.76874C16.0927 3.37186 16.8329 3.94758 17.4908 4.63295C18.56 5.75696 19.2454 7.07287 19.547 8.58068C19.6292 9.04674 19.684 9.51279 19.684 9.97884C19.684 10.3626 19.684 10.7739 19.5744 11.1851L19.4921 11.1303Z" fill="#FFFEFC"/>
<path fill-rule="evenodd" clip-rule="evenodd" d="M10.4176 8.11487C10.4176 8.82766 9.84189 9.43078 9.12911 9.43078H9.10169C8.38891 9.43078 7.78578 8.85507 7.78578 8.11487V8.08746C7.78578 7.34726 8.38891 6.77155 9.10169 6.77155C9.81448 6.77155 10.4176 7.37467 10.4176 8.11487Z" fill="#7E8295"/>
</svg>
