<?xml version="1.0" encoding="iso-8859-1"?>
<!-- Generator: Adobe Illustrator 27.4.0, SVG Export Plug-In . SVG Version: 6.00 Build 0)  -->
<svg version="1.1" id="Layer_1" xmlns="http://www.w3.org/2000/svg" xmlns:xlink="http://www.w3.org/1999/xlink" x="0px" y="0px"
	 viewBox="0 0 24 24" style="enable-background:new 0 0 24 24;" xml:space="preserve">
<g>
	<path d="M9,23c-4.411,0-8-3.589-8-8s3.589-8,8-8s8,3.589,8,8S13.411,23,9,23z M9,9c-3.309,0-6,2.691-6,6s2.691,6,6,6s6-2.691,6-6
		S12.309,9,9,9z M10.5,18.5h-3c-0.552,0-1-0.447-1-1s0.448-1,1-1H8v-2.634c-0.454,0.262-1.038,0.129-1.332-0.312
		c-0.306-0.46-0.182-1.081,0.277-1.387l1.5-1c0.307-0.204,0.702-0.224,1.026-0.05C9.797,11.292,10,11.631,10,12v4.5h0.5
		c0.552,0,1,0.447,1,1S11.052,18.5,10.5,18.5z M20,14.899c-0.253,0-0.505-0.095-0.7-0.286c-0.395-0.386-0.4-1.02-0.014-1.414
		C20.392,12.071,21,10.58,21,9c0-3.309-2.691-6-6-6c-1.58,0-3.071,0.609-4.199,1.714C10.406,5.1,9.772,5.094,9.387,4.7
		C9,4.306,9.007,3.672,9.401,3.286C10.905,1.812,12.894,1,15,1c4.411,0,8,3.589,8,8c0,2.106-0.812,4.095-2.286,5.6
		C20.519,14.799,20.259,14.899,20,14.899z"/>
</g>
</svg>
