<svg width="20" height="21" viewBox="0 0 20 21" fill="none" xmlns="http://www.w3.org/2000/svg">
<path d="M17.3957 12.5552C17.0415 12.7791 16.6282 12.8198 16.3134 12.6366C15.9198 12.3924 15.6837 11.843 15.6837 11.0901V8.7907C15.6837 7.69186 15.2704 6.89825 14.562 6.69477C13.3616 6.32849 12.4564 7.85465 12.1219 8.42442L9.99661 11.9448V7.61046C9.97693 6.61337 9.66208 6.02326 9.07173 5.84012C8.67816 5.71803 8.08781 5.77907 7.51714 6.67442L2.77465 14.5291C2.14494 13.2878 1.81041 11.9041 1.81041 10.5C1.81041 5.75872 5.49026 1.91279 9.99661 1.91279C14.503 1.91279 18.1828 5.75872 18.1828 10.5V10.5204V10.5407C18.2222 11.4564 17.9467 12.189 17.3957 12.5552ZM19.9932 10.5V10.4797V10.4593C19.9735 4.70058 15.4869 0 9.99661 0C4.48667 0 0 4.70058 0 10.5C0 16.2791 4.48667 21 9.99661 21C12.5351 21 14.9359 20.0029 16.7856 18.1919C17.1595 17.8256 17.1792 17.2355 16.825 16.8488C16.4905 16.4622 15.9198 16.4419 15.5459 16.7878C15.5459 16.7878 15.5459 16.7878 15.5262 16.8081C14.0307 18.2733 12.0235 19.1076 9.95725 19.1076C7.53682 19.1076 5.37219 18.0087 3.87664 16.2587L8.14684 9.17733V12.4535C8.14684 14.0203 8.7372 14.5291 9.22915 14.6715C9.72111 14.814 10.4689 14.7122 11.2757 13.3895L13.6174 9.46221C13.6961 9.34012 13.7552 9.21802 13.8339 9.13663V11.1308C13.8339 12.5959 14.4046 13.7762 15.3885 14.3459C16.274 14.875 17.3957 14.814 18.3206 14.2238C19.4619 13.4506 20.0719 12.1076 19.9932 10.5Z" fill="white"/>
</svg>
