<?xml version="1.0" encoding="iso-8859-1"?>
<!-- Generator: Adobe Illustrator 27.4.0, SVG Export Plug-In . SVG Version: 6.00 Build 0)  -->
<svg version="1.1" id="Layer_1" xmlns="http://www.w3.org/2000/svg" xmlns:xlink="http://www.w3.org/1999/xlink" x="0px" y="0px"
	 viewBox="0 0 24 24" style="enable-background:new 0 0 24 24;" xml:space="preserve">
<g>
	<path d="M9,23c-4.411,0-8-3.589-8-8s3.589-8,8-8s8,3.589,8,8S13.411,23,9,23z M9,9c-3.309,0-6,2.691-6,6s2.691,6,6,6s6-2.691,6-6
		S12.309,9,9,9z M20,14.899c-0.253,0-0.505-0.095-0.7-0.286c-0.395-0.386-0.4-1.02-0.014-1.414C20.392,12.071,21,10.58,21,9
		c0-3.309-2.691-6-6-6c-1.58,0-3.071,0.609-4.199,1.714C10.406,5.1,9.772,5.094,9.387,4.7C9,4.306,9.007,3.672,9.401,3.286
		C10.905,1.812,12.894,1,15,1c4.411,0,8,3.589,8,8c0,2.106-0.812,4.095-2.286,5.6C20.519,14.799,20.259,14.899,20,14.899z"/>
</g>
</svg>
