<?xml version="1.0" encoding="iso-8859-1"?>
<!-- Generator: Adobe Illustrator 27.4.0, SVG Export Plug-In . SVG Version: 6.00 Build 0)  -->
<svg version="1.1" id="Layer_1" xmlns="http://www.w3.org/2000/svg" xmlns:xlink="http://www.w3.org/1999/xlink" x="0px" y="0px"
	 viewBox="0 0 24 24" style="enable-background:new 0 0 24 24;" xml:space="preserve">
<g>
	<path d="M9,23c-4.411,0-8-3.589-8-8c0-3.793,2.654-6.979,6.203-7.796C8.027,3.62,11.257,1,15,1c4.411,0,8,3.589,8,8
		c0,3.743-2.619,6.974-6.203,7.797C15.979,20.346,12.793,23,9,23z M8.181,9.056C5.258,9.457,3,11.969,3,15c0,3.309,2.691,6,6,6
		c3.03,0,5.543-2.259,5.944-5.181c0.001-0.011,0.003-0.021,0.004-0.031C14.982,15.53,15,15.267,15,15c0-3.309-2.691-6-6-6
		C8.733,9,8.47,9.018,8.212,9.051C8.202,9.053,8.191,9.055,8.181,9.056z M9.339,7.007c4.142,0.173,7.48,3.511,7.654,7.654
		C19.344,13.831,21,11.578,21,9c0-3.309-2.691-6-6-6C12.422,3,10.168,4.656,9.339,7.007z M10.5,18.5h-3c-0.552,0-1-0.447-1-1
		s0.448-1,1-1H8v-2.634c-0.454,0.262-1.038,0.129-1.332-0.312c-0.306-0.46-0.182-1.081,0.277-1.387l1.5-1
		c0.307-0.204,0.702-0.224,1.026-0.05C9.797,11.292,10,11.631,10,12v4.5h0.5c0.552,0,1,0.447,1,1S11.052,18.5,10.5,18.5z"/>
</g>
</svg>
