<?xml version="1.0" encoding="iso-8859-1"?>
<!-- Generator: Adobe Illustrator 27.4.0, SVG Export Plug-In . SVG Version: 6.00 Build 0)  -->
<svg version="1.1" id="Layer_1" xmlns="http://www.w3.org/2000/svg" xmlns:xlink="http://www.w3.org/1999/xlink" x="0px" y="0px"
	 viewBox="0 0 24 24" style="enable-background:new 0 0 24 24;" xml:space="preserve">
<g>
	<path d="M16,23c-1.44,0-2.834-0.441-4.002-1.257C10.863,22.535,9.485,23,8,23c-3.86,0-7-3.141-7-7c0-2.801,1.676-5.307,4.182-6.41
		C5.063,9.079,5,8.547,5,8c0-3.86,3.14-7,7-7c3.859,0,7,3.14,7,7c0,0.547-0.063,1.079-0.183,1.59C21.323,10.693,23,13.199,23,16
		C23,19.859,19.859,23,16,23z M13.497,20.329C14.253,20.766,15.114,21,16,21c2.757,0,5-2.243,5-5c0-1.974-1.164-3.742-2.913-4.546
		c-0.742,1.302-1.889,2.344-3.269,2.953C14.939,14.927,15,15.459,15,16C15,17.633,14.438,19.137,13.497,20.329z M5.913,11.455
		C4.165,12.258,3,14.027,3,16c0,2.757,2.243,5,5,5s5-2.243,5-5c0-0.358-0.037-0.711-0.111-1.056C12.598,14.98,12.301,15,12,15
		C9.396,15,7.119,13.57,5.913,11.455z M12,3C9.243,3,7,5.243,7,8s2.243,5,5,5s5-2.243,5-5S14.757,3,12,3z"/>
</g>
</svg>
