<?xml version="1.0" encoding="iso-8859-1"?>
<!-- Generator: Adobe Illustrator 27.4.0, SVG Export Plug-In . SVG Version: 6.00 Build 0)  -->
<svg version="1.1" id="Layer_1" xmlns="http://www.w3.org/2000/svg" xmlns:xlink="http://www.w3.org/1999/xlink" x="0px" y="0px"
	 viewBox="0 0 24 24" style="enable-background:new 0 0 24 24;" xml:space="preserve">
<g>
	<path d="M2.999,23c-0.17,0-0.343-0.043-0.501-0.135c-0.478-0.277-0.64-0.89-0.363-1.367l2.286-3.937
		C3.632,16.996,2.903,16.34,2.25,15.6c-0.366-0.414-0.326-1.047,0.088-1.412c0.414-0.366,1.046-0.325,1.411,0.088
		c0.51,0.578,1.074,1.095,1.681,1.547l4.021-6.925C8.862,8.27,8.5,7.427,8.5,6.5c0-1.583,1.056-2.923,2.5-3.354V2
		c0-0.552,0.448-1,1-1s1,0.448,1,1v1.146c1.444,0.431,2.5,1.772,2.5,3.354c0,0.927-0.362,1.771-0.952,2.397l4.021,6.925
		c0.607-0.452,1.172-0.97,1.681-1.547c0.367-0.414,0.999-0.452,1.412-0.088c0.414,0.366,0.453,0.998,0.088,1.412
		c-0.653,0.739-1.383,1.396-2.171,1.962l2.286,3.937c0.277,0.478,0.114,1.09-0.363,1.367c-0.479,0.276-1.089,0.113-1.367-0.363
		l-2.267-3.903c-3.601,1.822-8.137,1.822-11.737,0l-2.267,3.903C3.679,22.821,3.344,23,2.999,23z M7.137,16.866
		c2.994,1.475,6.73,1.475,9.725,0l-4.043-6.963c-0.525,0.126-1.113,0.126-1.639,0L7.137,16.866z M12,5c-0.827,0-1.5,0.673-1.5,1.5
		S11.173,8,12,8c0.268,0,0.52-0.071,0.738-0.194c0.005-0.003,0.01-0.006,0.015-0.009c0.004-0.002,0.009-0.005,0.013-0.008
		C13.205,7.527,13.5,7.047,13.5,6.5C13.5,5.673,12.827,5,12,5z"/>
</g>
</svg>
