<?xml version="1.0" encoding="iso-8859-1"?>
<!-- Generator: Adobe Illustrator 27.4.0, SVG Export Plug-In . SVG Version: 6.00 Build 0)  -->
<svg version="1.1" id="Layer_1" xmlns="http://www.w3.org/2000/svg" xmlns:xlink="http://www.w3.org/1999/xlink" x="0px" y="0px"
	 viewBox="0 0 24 24" style="enable-background:new 0 0 24 24;" xml:space="preserve">
<g>
	<path d="M12,23c-2.993,0-5.711-1.202-7.696-3.147c-0.028-0.023-0.056-0.048-0.082-0.074s-0.051-0.054-0.074-0.082
		C2.202,17.711,1,14.993,1,12s1.202-5.711,3.148-7.696C4.17,4.275,4.195,4.248,4.222,4.222S4.275,4.17,4.304,4.148
		C6.289,2.202,9.007,1,12,1s5.711,1.202,7.696,3.148c0.028,0.022,0.056,0.047,0.082,0.074s0.051,0.054,0.074,0.082
		C21.798,6.289,23,9.007,23,12s-1.202,5.711-3.147,7.696c-0.023,0.028-0.048,0.056-0.074,0.082s-0.054,0.051-0.082,0.074
		C17.711,21.798,14.993,23,12,23z M12,19c0.552,0,1,0.447,1,1v0.944c1.733-0.192,3.32-0.879,4.615-1.915l-0.665-0.665
		c-0.391-0.391-0.391-1.023,0-1.414s1.023-0.391,1.414,0l0.665,0.665c1.036-1.295,1.723-2.882,1.915-4.615H20c-0.553,0-1-0.448-1-1
		s0.447-1,1-1h0.944c-0.192-1.733-0.879-3.32-1.915-4.615L18.364,7.05c-0.391,0.391-1.023,0.391-1.414,0
		c-0.391-0.39-0.391-1.023,0-1.414l0.665-0.665C16.32,3.935,14.733,3.248,13,3.055V4c0,0.552-0.448,1-1,1s-1-0.448-1-1V3.055
		C9.267,3.248,7.68,3.935,6.385,4.971L7.05,5.636c0.391,0.391,0.391,1.023,0,1.414s-1.023,0.391-1.414,0L4.971,6.385
		C3.935,7.68,3.248,9.267,3.055,11H4c0.552,0,1,0.448,1,1s-0.448,1-1,1H3.055c0.192,1.733,0.879,3.32,1.916,4.615l0.665-0.665
		c0.391-0.391,1.023-0.391,1.414,0s0.391,1.023,0,1.414l-0.665,0.665C7.68,20.065,9.267,20.752,11,20.944V20
		C11,19.447,11.448,19,12,19z M12,17c-0.256,0-0.512-0.098-0.707-0.293l-4-4c-0.391-0.391-0.391-1.023,0-1.414l4-4
		c0.391-0.391,1.023-0.391,1.414,0l4,4c0.391,0.391,0.391,1.023,0,1.414l-4,4C12.512,16.902,12.256,17,12,17z M9.414,12L12,14.586
		L14.586,12L12,9.414L9.414,12z"/>
</g>
</svg>
