<?xml version="1.0" encoding="iso-8859-1"?>
<!-- Generator: Adobe Illustrator 27.4.0, SVG Export Plug-In . SVG Version: 6.00 Build 0)  -->
<svg version="1.1" id="Layer_1" xmlns="http://www.w3.org/2000/svg" xmlns:xlink="http://www.w3.org/1999/xlink" x="0px" y="0px"
	 viewBox="0 0 24 24" style="enable-background:new 0 0 24 24;" xml:space="preserve">
<g>
	<path d="M12,23C5.935,23,1,18.065,1,12S5.935,1,12,1s11,4.935,11,11S18.065,23,12,23z M12,3c-4.962,0-9,4.038-9,9
		c0,4.963,4.038,9,9,9c4.963,0,9-4.037,9-9C21,7.038,16.963,3,12,3z"/>
</g>
<g>
	<path d="M8.496,16.94c-0.151,0-0.298-0.024-0.453-0.08c-0.42-0.147-0.753-0.48-0.906-0.908c-0.174-0.485-0.033-0.906,0.18-1.545
		l1.488-4.464c0.059-0.175,0.114-0.341,0.234-0.516c0.103-0.152,0.237-0.286,0.395-0.393c0.169-0.116,0.334-0.171,0.51-0.229
		l4.462-1.487l0.316,0.949l-0.316-0.949l0.316,0.949l-0.314-0.949c0.639-0.213,1.058-0.354,1.548-0.179
		c0.425,0.151,0.758,0.484,0.908,0.913c0.173,0.479,0.034,0.898-0.177,1.532l-1.492,4.474c-0.056,0.171-0.11,0.336-0.229,0.512
		c-0.107,0.157-0.24,0.29-0.397,0.396c-0.176,0.119-0.341,0.174-0.516,0.231l-4.458,1.486C9.154,16.829,8.819,16.94,8.496,16.94z
		 M9.058,15.546L9.058,15.546L9.058,15.546z M8.455,14.941L8.455,14.941L8.455,14.941z M10.67,10.67l-1.33,3.989l3.988-1.33
		l1.33-3.988L10.67,10.67z M15.546,9.058L15.546,9.058L15.546,9.058z M14.941,8.455L14.941,8.455L14.941,8.455z"/>
</g>
</svg>
