<svg width="96" height="82" viewBox="0 0 96 82" fill="none" xmlns="http://www.w3.org/2000/svg">
<path d="M6.58398 21.3838C6.58398 16.9655 10.1216 12.8235 14.4855 12.1323L82.7614 1.31847C87.1253 0.627295 90.663 3.64871 90.663 8.06699V28.4427L6.58398 41.7595V21.3838Z" fill="#98A2B3"/>
<rect x="6.58398" y="19.0596" width="85.127" height="58.1701" rx="8" fill="#EAECF0"/>
<rect x="74.6855" y="41.7598" width="21.2818" height="12.7691" rx="4" fill="#6D88FF"/>
<circle cx="19.5322" cy="62.4326" r="19.5" fill="#6D88FF"/>
<g clip-path="url(#clip0_6470_52086)">
<path d="M19.801 70.682H19.8116M31.2999 59.1907C28.2706 56.4147 24.2336 54.7207 19.8009 54.7207C15.3681 54.7207 11.3311 56.4147 8.30176 59.1907M12.0671 62.9599C14.1294 61.1432 16.8365 60.0411 19.8009 60.0411C22.7654 60.0411 25.4725 61.1432 27.5348 62.9599M23.7363 66.7184C22.6519 65.8684 21.2856 65.3616 19.8009 65.3616C18.2937 65.3616 16.9085 65.8838 15.8164 66.7572" stroke="white" stroke-width="2" stroke-linecap="round" stroke-linejoin="round"/>
</g>
<defs>
<clipPath id="clip0_6470_52086">
<rect width="25.5381" height="25.5381" fill="white" transform="translate(7.03223 49.9326)"/>
</clipPath>
</defs>
</svg>
