<?xml version="1.0" encoding="iso-8859-1"?>
<!-- Generator: Adobe Illustrator 27.4.0, SVG Export Plug-In . SVG Version: 6.00 Build 0)  -->
<svg version="1.1" id="Layer_1" xmlns="http://www.w3.org/2000/svg" xmlns:xlink="http://www.w3.org/1999/xlink" x="0px" y="0px"
	 viewBox="0 0 24 24" style="enable-background:new 0 0 24 24;" xml:space="preserve">
<g>
	<path d="M12,23C5.935,23,1,18.065,1,12S5.935,1,12,1c0.64,0,1.282,0.056,1.907,0.165c0.544,0.095,0.907,0.613,0.812,1.157
		c-0.095,0.543-0.608,0.909-1.158,0.812C13.376,3.103,13.188,3.076,13,3.055v17.891c0.188-0.021,0.375-0.048,0.562-0.08
		c0.544-0.092,1.062,0.271,1.156,0.814s-0.271,1.062-0.814,1.156C13.276,22.944,12.636,23,12,23z M11,3.055
		C6.506,3.554,3,7.375,3,12c0,4.625,3.506,8.445,8,8.944V3.055z M17.738,21.191c-0.315,0-0.625-0.148-0.819-0.426
		c-0.317-0.452-0.208-1.075,0.244-1.393c0.861-0.604,1.604-1.347,2.208-2.207c0.317-0.452,0.939-0.562,1.393-0.244
		c0.452,0.317,0.562,0.94,0.244,1.393c-0.737,1.051-1.645,1.958-2.696,2.695C18.137,21.133,17.937,21.191,17.738,21.191z
		 M21.852,14.734c-0.057,0-0.114-0.005-0.172-0.015c-0.544-0.095-0.909-0.612-0.814-1.156C20.955,13.048,21,12.521,21,12
		s-0.045-1.048-0.135-1.563c-0.095-0.544,0.271-1.062,0.814-1.156c0.544-0.093,1.062,0.271,1.156,0.814
		C22.944,10.723,23,11.364,23,12s-0.056,1.276-0.164,1.905C22.752,14.392,22.329,14.734,21.852,14.734z M20.194,7.266
		c-0.315,0-0.625-0.148-0.82-0.426c-0.604-0.862-1.348-1.606-2.21-2.212c-0.452-0.317-0.562-0.94-0.244-1.393
		c0.315-0.452,0.939-0.562,1.393-0.244c1.053,0.739,1.962,1.647,2.7,2.701c0.316,0.452,0.207,1.076-0.245,1.393
		C20.593,7.207,20.393,7.266,20.194,7.266z"/>
</g>
</svg>
