<?xml version="1.0" encoding="iso-8859-1"?>
<!-- Generator: Adobe Illustrator 27.4.0, SVG Export Plug-In . SVG Version: 6.00 Build 0)  -->
<svg version="1.1" id="Layer_1" xmlns="http://www.w3.org/2000/svg" xmlns:xlink="http://www.w3.org/1999/xlink" x="0px" y="0px"
	 viewBox="0 0 24 24" style="enable-background:new 0 0 24 24;" xml:space="preserve">
<g>
	<path d="M12,23C5.935,23,1,18.065,1,12S5.935,1,12,1s11,4.935,11,11S18.065,23,12,23z M12,3c-4.962,0-9,4.038-9,9
		c0,4.963,4.038,9,9,9c4.963,0,9-4.037,9-9C21,7.038,16.963,3,12,3z"/>
</g>
<g>
	<path d="M12,19.5c-2.41,0-4.689-1.17-6.096-3.131c-0.244-0.34-0.25-0.796-0.016-1.143c0.234-0.346,0.659-0.507,1.066-0.412
		C7.457,14.938,7.978,15,8.5,15c3.584,0,6.5-2.916,6.5-6.5c0-0.522-0.062-1.043-0.186-1.546c-0.099-0.407,0.065-0.832,0.412-1.066
		c0.346-0.234,0.803-0.228,1.143,0.016C18.33,7.311,19.5,9.59,19.5,12C19.5,16.136,16.136,19.5,12,19.5z M9.572,16.933
		C10.318,17.301,11.148,17.5,12,17.5c3.032,0,5.5-2.468,5.5-5.5c0-0.852-0.199-1.682-0.567-2.428
		C16.448,13.403,13.403,16.448,9.572,16.933z"/>
</g>
</svg>
