<?xml version="1.0" encoding="iso-8859-1"?>
<!-- Generator: Adobe Illustrator 27.4.0, SVG Export Plug-In . SVG Version: 6.00 Build 0)  -->
<svg version="1.1" id="Layer_1" xmlns="http://www.w3.org/2000/svg" xmlns:xlink="http://www.w3.org/1999/xlink" x="0px" y="0px"
	 viewBox="0 0 24 24" style="enable-background:new 0 0 24 24;" xml:space="preserve">
<g>
	<path d="M11.999,22.856c-0.134,0-0.269-0.014-0.402-0.041c-0.299-0.062-0.518-0.184-0.849-0.367l-7.412-4.117
		c-0.357-0.198-0.592-0.328-0.811-0.567c-0.189-0.205-0.334-0.449-0.425-0.722C2,16.732,2,16.464,2,16.059V7.941
		c0-0.406,0-0.674,0.101-0.979c0.091-0.274,0.235-0.519,0.429-0.729c0.217-0.236,0.45-0.365,0.801-0.561l7.407-4.115
		c0.343-0.19,0.562-0.312,0.861-0.373c0.267-0.055,0.538-0.054,0.804,0c0.298,0.061,0.517,0.183,0.849,0.366l7.41,4.118
		c0.354,0.197,0.589,0.327,0.807,0.562c0.198,0.215,0.343,0.461,0.432,0.734C22,7.266,22,7.535,22,7.941v8.117
		c0,0.406,0,0.675-0.102,0.981c-0.087,0.266-0.235,0.519-0.429,0.728c-0.218,0.237-0.453,0.367-0.809,0.564l-7.398,4.11
		c-0.342,0.189-0.561,0.311-0.857,0.372C12.27,22.843,12.134,22.856,11.999,22.856z M4,8.7v7.359c0,0.18-0.006,0.293,0.008,0.384
		c0.042,0.005,0.144,0.054,0.298,0.139L11,20.301v-7.712L4,8.7z M13,12.588v7.712l6.691-3.718c0.156-0.087,0.258-0.136,0.33-0.192
		C20.007,16.351,20,16.237,20,16.059V8.7L13,12.588z M5.059,7L12,10.856L18.94,7l-6.649-3.694c-0.152-0.084-0.24-0.14-0.32-0.169
		c-0.022,0.03-0.111,0.085-0.253,0.165L5.059,7z"/>
</g>
</svg>
