<?xml version="1.0" encoding="iso-8859-1"?>
<!-- Generator: Adobe Illustrator 27.4.0, SVG Export Plug-In . SVG Version: 6.00 Build 0)  -->
<svg version="1.1" id="Layer_1" xmlns="http://www.w3.org/2000/svg" xmlns:xlink="http://www.w3.org/1999/xlink" x="0px" y="0px"
	 viewBox="0 0 24 24" style="enable-background:new 0 0 24 24;" xml:space="preserve">
<g>
	<path d="M12.8,23H5.2c-1.238,0-1.92,0-2.562-0.326c-0.57-0.292-1.022-0.744-1.312-1.311C1,20.721,1,20.038,1,18.8v-7.6
		c0-1.238,0-1.92,0.327-2.562C1.617,8.07,2.07,7.617,2.637,7.327C3.28,7,3.962,7,5.2,7h7.6c1.238,0,1.921,0,2.562,0.327
		c0.567,0.29,1.02,0.742,1.311,1.31C17,9.28,17,9.962,17,11.2v7.6c0,1.238,0,1.921-0.326,2.562
		c-0.291,0.567-0.744,1.021-1.311,1.311C14.721,23,14.038,23,12.8,23z M5.2,9C4.333,9,3.76,9,3.545,9.109
		c-0.186,0.095-0.341,0.25-0.437,0.438C3,9.76,3,10.333,3,11.2v7.6c0,0.867,0,1.44,0.109,1.654c0.096,0.188,0.248,0.341,0.438,0.438
		C3.76,21,4.333,21,5.2,21h7.6c0.867,0,1.44,0,1.654-0.109c0.188-0.096,0.341-0.248,0.438-0.438C15,20.24,15,19.667,15,18.8v-7.6
		c0-0.868,0-1.44-0.109-1.655c-0.096-0.188-0.248-0.34-0.438-0.437C14.24,9,13.667,9,12.8,9H5.2z M19.5,16.997
		c-0.547,0-0.993-0.439-1-0.987c-0.007-0.552,0.435-1.006,0.987-1.013c0.404-0.005,0.802-0.021,0.968-0.106
		c0.188-0.096,0.34-0.248,0.437-0.438c0.084-0.164,0.101-0.562,0.105-0.966c0.007-0.553,0.44-1,1.013-0.987
		c0.553,0.007,0.994,0.461,0.987,1.013c-0.011,0.808-0.065,1.342-0.323,1.849c-0.291,0.568-0.744,1.021-1.311,1.312
		c-0.509,0.259-1.043,0.313-1.851,0.324C19.509,16.997,19.504,16.997,19.5,16.997z M22,11c-0.553,0-1-0.448-1-1V8
		c0-0.552,0.447-1,1-1s1,0.448,1,1v2C23,10.552,22.553,11,22,11z M21.997,5.5c-0.547,0-0.993-0.439-1-0.987
		c-0.005-0.405-0.021-0.802-0.106-0.968c-0.096-0.188-0.248-0.34-0.438-0.437c-0.165-0.083-0.562-0.1-0.966-0.105
		C18.935,2.996,18.493,2.542,18.5,1.99s0.459-1,1.013-0.987c0.807,0.011,1.34,0.065,1.848,0.323c0.569,0.29,1.021,0.743,1.312,1.31
		c0.259,0.51,0.313,1.043,0.324,1.851c0.007,0.552-0.435,1.006-0.987,1.013C22.006,5.5,22.001,5.5,21.997,5.5z M8.003,5.5
		c-0.005,0-0.009,0-0.014,0C7.438,5.493,6.996,5.039,7.003,4.487c0.011-0.806,0.065-1.339,0.323-1.848
		C7.617,2.07,8.07,1.617,8.637,1.327c0.51-0.259,1.043-0.313,1.85-0.324c0.004,0,0.009,0,0.014,0c0.546,0,0.992,0.439,1,0.987
		c0.007,0.552-0.435,1.006-0.987,1.013c-0.404,0.005-0.802,0.022-0.969,0.106c-0.185,0.095-0.34,0.25-0.436,0.437
		c-0.083,0.165-0.1,0.562-0.105,0.967C8.996,5.061,8.549,5.5,8.003,5.5z M16,3h-2c-0.553,0-1-0.448-1-1s0.447-1,1-1h2
		c0.553,0,1,0.448,1,1S16.553,3,16,3z"/>
</g>
</svg>
