<?xml version="1.0" encoding="iso-8859-1"?>
<!-- Generator: Adobe Illustrator 27.4.0, SVG Export Plug-In . SVG Version: 6.00 Build 0)  -->
<svg version="1.1" id="Layer_1" xmlns="http://www.w3.org/2000/svg" xmlns:xlink="http://www.w3.org/1999/xlink" x="0px" y="0px"
	 viewBox="0 0 24 24" style="enable-background:new 0 0 24 24;" xml:space="preserve">
<g>
	<path d="M18.8,23h-6.6c-1.238,0-1.92,0-2.562-0.326c-0.57-0.292-1.022-0.744-1.312-1.311C8,20.721,8,20.038,8,18.8v-6.6
		c0-1.238,0-1.92,0.327-2.562C8.617,9.07,9.07,8.617,9.637,8.327C10.28,8,10.962,8,12.2,8h6.6c1.238,0,1.921,0,2.562,0.327
		c0.567,0.29,1.02,0.742,1.311,1.31C23,10.28,23,10.962,23,12.2v6.6c0,1.238,0,1.921-0.326,2.562
		c-0.291,0.567-0.744,1.021-1.311,1.311C20.721,23,20.038,23,18.8,23z M12.2,10c-0.868,0-1.44,0-1.655,0.109
		c-0.186,0.095-0.341,0.25-0.437,0.438C10,10.76,10,11.333,10,12.2v6.6c0,0.867,0,1.44,0.109,1.654
		c0.096,0.188,0.248,0.341,0.438,0.438C10.76,21,11.333,21,12.2,21h6.6c0.867,0,1.44,0,1.654-0.109
		c0.188-0.096,0.341-0.248,0.438-0.438C21,20.24,21,19.667,21,18.8v-6.6c0-0.868,0-1.44-0.109-1.655
		c-0.096-0.188-0.248-0.34-0.438-0.437C20.24,10,19.667,10,18.8,10H12.2z M5,16c-1.03,0-1.597,0-2.148-0.229
		c-0.74-0.307-1.316-0.883-1.623-1.623C1,13.596,1,13.029,1,12V5.2c0-1.238,0-1.92,0.327-2.562C1.617,2.07,2.07,1.617,2.637,1.327
		C3.28,1,3.962,1,5.2,1H12c1.029,0,1.596,0,2.148,0.229c0.74,0.307,1.316,0.883,1.623,1.624C16,3.403,16,3.97,16,5
		c0,0.552-0.447,1-1,1s-1-0.448-1-1c0-0.722,0-1.199-0.076-1.382c-0.103-0.248-0.295-0.44-0.541-0.542C13.199,3,12.722,3,12,3H5.2
		C4.333,3,3.76,3,3.545,3.109c-0.186,0.095-0.341,0.25-0.437,0.438C3,3.76,3,4.333,3,5.2V12c0,0.722,0,1.199,0.076,1.383
		c0.102,0.246,0.294,0.438,0.542,0.541C3.801,14,4.278,14,5,14c0.552,0,1,0.447,1,1S5.552,16,5,16z"/>
</g>
</svg>
