<?xml version="1.0" encoding="iso-8859-1"?>
<!-- Generator: Adobe Illustrator 27.4.0, SVG Export Plug-In . SVG Version: 6.00 Build 0)  -->
<svg version="1.1" id="Layer_1" xmlns="http://www.w3.org/2000/svg" xmlns:xlink="http://www.w3.org/1999/xlink" x="0px" y="0px"
	 viewBox="0 0 24 24" style="enable-background:new 0 0 24 24;" xml:space="preserve">
<g>
	<path d="M14.3,22H6.2c-1.238,0-1.92,0-2.562-0.326c-0.57-0.292-1.022-0.744-1.312-1.311C2,19.721,2,19.038,2,17.8V9.7
		c0-1.238,0-1.92,0.327-2.562C2.617,6.57,3.07,6.117,3.637,5.827C4.28,5.5,4.962,5.5,6.2,5.5h8.1c1.238,0,1.921,0,2.562,0.327
		c0.567,0.29,1.02,0.742,1.311,1.31C18.5,7.78,18.5,8.462,18.5,9.7v8.1c0,1.238,0,1.921-0.326,2.562
		c-0.291,0.567-0.744,1.021-1.311,1.311C16.221,22,15.538,22,14.3,22z M6.2,7.5c-0.868,0-1.44,0-1.655,0.109
		c-0.186,0.095-0.341,0.25-0.437,0.438C4,8.26,4,8.833,4,9.7v8.1c0,0.867,0,1.44,0.109,1.654c0.096,0.188,0.248,0.341,0.438,0.438
		C4.76,20,5.333,20,6.2,20h8.1c0.867,0,1.44,0,1.654-0.109c0.188-0.096,0.341-0.248,0.438-0.438C16.5,19.24,16.5,18.667,16.5,17.8
		V9.7c0-0.868,0-1.44-0.109-1.655c-0.096-0.188-0.248-0.34-0.438-0.437C15.74,7.5,15.167,7.5,14.3,7.5H6.2z M21,17.5
		c-0.553,0-1-0.447-1-1V9.4c0-2.078,0-3.121-0.327-3.762c-0.289-0.568-0.742-1.021-1.311-1.311C17.72,4,16.677,4,14.6,4H7.5
		c-0.552,0-1-0.448-1-1s0.448-1,1-1h7.1c2.397,0,3.601,0,4.671,0.545c0.947,0.483,1.702,1.238,2.185,2.185C22,5.8,22,7.003,22,9.4
		v7.1C22,17.053,21.553,17.5,21,17.5z"/>
</g>
</svg>
