<?xml version="1.0" encoding="iso-8859-1"?>
<!-- Generator: Adobe Illustrator 27.4.0, SVG Export Plug-In . SVG Version: 6.00 Build 0)  -->
<svg version="1.1" id="Layer_1" xmlns="http://www.w3.org/2000/svg" xmlns:xlink="http://www.w3.org/1999/xlink" x="0px" y="0px"
	 viewBox="0 0 24 24" style="enable-background:new 0 0 24 24;" xml:space="preserve">
<g>
	<path d="M18.8,23h-7.6c-1.238,0-1.92,0-2.562-0.326c-0.57-0.292-1.022-0.744-1.312-1.311C7,20.721,7,20.038,7,18.8V17H5.2
		c-1.238,0-1.92,0-2.562-0.326c-0.57-0.292-1.022-0.744-1.312-1.311C1,14.721,1,14.038,1,12.8V5.2c0-1.238,0-1.92,0.327-2.562
		C1.617,2.07,2.07,1.617,2.637,1.327C3.28,1,3.962,1,5.2,1h7.6c1.238,0,1.921,0,2.562,0.327c0.567,0.29,1.02,0.742,1.311,1.31
		C17,3.28,17,3.962,17,5.2V7h1.8c1.238,0,1.921,0,2.562,0.327c0.567,0.29,1.02,0.742,1.311,1.31C23,9.28,23,9.962,23,11.2v7.6
		c0,1.238,0,1.921-0.326,2.562c-0.291,0.567-0.744,1.021-1.311,1.311C20.721,23,20.038,23,18.8,23z M9,17v1.8
		c0,0.867,0,1.44,0.109,1.654c0.096,0.188,0.248,0.341,0.438,0.438C9.76,21,10.333,21,11.2,21h7.6c0.867,0,1.44,0,1.654-0.109
		c0.188-0.096,0.341-0.248,0.438-0.438C21,20.24,21,19.667,21,18.8v-7.6c0-0.868,0-1.44-0.109-1.655
		c-0.096-0.188-0.248-0.34-0.438-0.437C20.24,9,19.667,9,18.8,9H17v3.8c0,1.238,0,1.921-0.326,2.562
		c-0.291,0.567-0.744,1.021-1.311,1.311C14.721,17,14.038,17,12.8,17H9z M5.2,3C4.333,3,3.76,3,3.545,3.109
		c-0.186,0.095-0.341,0.25-0.437,0.438C3,3.76,3,4.333,3,5.2v7.6c0,0.867,0,1.44,0.109,1.654c0.096,0.188,0.248,0.341,0.438,0.438
		C3.76,15,4.333,15,5.2,15h7.6c0.867,0,1.44,0,1.654-0.109c0.188-0.096,0.341-0.248,0.438-0.438C15,14.24,15,13.667,15,12.8V5.2
		c0-0.868,0-1.44-0.109-1.655c-0.096-0.188-0.248-0.34-0.438-0.437C14.24,3,13.667,3,12.8,3H5.2z"/>
</g>
</svg>
