<?xml version="1.0" encoding="iso-8859-1"?>
<!-- Generator: Adobe Illustrator 27.4.0, SVG Export Plug-In . SVG Version: 6.00 Build 0)  -->
<svg version="1.1" id="Layer_1" xmlns="http://www.w3.org/2000/svg" xmlns:xlink="http://www.w3.org/1999/xlink" x="0px" y="0px"
	 viewBox="0 0 24 24" style="enable-background:new 0 0 24 24;" xml:space="preserve">
<g>
	<path d="M9,21c-0.256,0-0.512-0.098-0.707-0.293l-5-5C3.197,15.61,3.124,15.5,3.075,15.381C3.027,15.265,3,15.137,3,15.003l0,0
		c0-0.002,0-0.004,0-0.006l0,0c0-0.134,0.027-0.262,0.075-0.378c0.049-0.119,0.122-0.229,0.218-0.326l5-5
		c0.391-0.391,1.023-0.391,1.414,0s0.391,1.023,0,1.414L6.414,14H10.4c3.196,0,4.8,0,5.87-0.545
		c0.947-0.483,1.703-1.238,2.186-2.185C19,10.2,19,8.596,19,5.4V4c0-0.552,0.447-1,1-1s1,0.448,1,1v1.4c0,3.516,0,5.281-0.764,6.778
		c-0.675,1.326-1.732,2.383-3.059,3.058C15.681,16,13.916,16,10.4,16H6.414l3.293,3.293c0.391,0.391,0.391,1.023,0,1.414
		C9.512,20.902,9.256,21,9,21z"/>
</g>
</svg>
