<?xml version="1.0" encoding="iso-8859-1"?>
<!-- Generator: Adobe Illustrator 27.4.0, SVG Export Plug-In . SVG Version: 6.00 Build 0)  -->
<svg version="1.1" id="Layer_1" xmlns="http://www.w3.org/2000/svg" xmlns:xlink="http://www.w3.org/1999/xlink" x="0px" y="0px"
	 viewBox="0 0 24 24" style="enable-background:new 0 0 24 24;" xml:space="preserve">
<g>
	<path d="M4,21c-0.552,0-1-0.447-1-1v-1.4c0-3.516,0-5.28,0.763-6.777c0.676-1.326,1.733-2.384,3.059-3.06C8.319,8,10.084,8,13.6,8
		h3.986l-3.293-3.293c-0.391-0.391-0.391-1.023,0-1.414s1.023-0.391,1.414,0l5,5c0.097,0.096,0.169,0.208,0.218,0.326
		C20.973,8.735,21,8.863,21,8.997l0,0c0,0.002,0,0.004,0,0.006l0,0c0,0.134-0.027,0.262-0.075,0.378
		c-0.049,0.119-0.121,0.23-0.218,0.326l-5,5c-0.391,0.391-1.023,0.391-1.414,0s-0.391-1.023,0-1.414L17.586,10H13.6
		c-3.196,0-4.8,0-5.87,0.545c-0.947,0.482-1.702,1.238-2.185,2.185C5,13.8,5,15.403,5,18.6V20C5,20.553,4.552,21,4,21z"/>
</g>
</svg>
