<?xml version="1.0" encoding="iso-8859-1"?>
<!-- Generator: Adobe Illustrator 27.4.0, SVG Export Plug-In . SVG Version: 6.00 Build 0)  -->
<svg version="1.1" id="Layer_1" xmlns="http://www.w3.org/2000/svg" xmlns:xlink="http://www.w3.org/1999/xlink" x="0px" y="0px"
	 viewBox="0 0 24 24" style="enable-background:new 0 0 24 24;" xml:space="preserve">
<g>
	<path d="M8,21c-0.001,0-0.002,0-0.003,0l0,0c-0.134,0-0.262-0.027-0.378-0.075c-0.119-0.049-0.23-0.121-0.326-0.218l-5-5
		c-0.391-0.391-0.391-1.023,0-1.414s1.023-0.391,1.414,0L7,17.586V13.6c0-3.516,0-5.28,0.763-6.777
		c0.676-1.326,1.733-2.384,3.059-3.06C12.319,3,14.084,3,17.6,3H21c0.553,0,1,0.448,1,1s-0.447,1-1,1h-3.4
		c-3.196,0-4.8,0-5.87,0.545c-0.947,0.482-1.702,1.238-2.185,2.185C9,8.799,9,10.404,9,13.6v3.986l3.293-3.293
		c0.391-0.391,1.023-0.391,1.414,0s0.391,1.023,0,1.414l-5,5c-0.096,0.097-0.208,0.169-0.326,0.218C8.265,20.973,8.137,21,8.003,21
		l0,0C8.002,21,8.001,21,8,21z"/>
</g>
</svg>
