<?xml version="1.0" encoding="iso-8859-1"?>
<!-- Generator: Adobe Illustrator 27.4.0, SVG Export Plug-In . SVG Version: 6.00 Build 0)  -->
<svg version="1.1" id="Layer_1" xmlns="http://www.w3.org/2000/svg" xmlns:xlink="http://www.w3.org/1999/xlink" x="0px" y="0px"
	 viewBox="0 0 24 24" style="enable-background:new 0 0 24 24;" xml:space="preserve">
<g>
	<path d="M21,21h-3.4c-3.516,0-5.28,0-6.778-0.764c-1.326-0.675-2.383-1.733-3.059-3.059C7,15.681,7,13.916,7,10.4V6.414
		L3.707,9.707c-0.391,0.391-1.023,0.391-1.414,0s-0.391-1.023,0-1.414l5-5C7.389,3.197,7.5,3.124,7.619,3.075
		C7.735,3.027,7.863,3,7.997,3l0,0c0.002,0,0.004,0,0.006,0l0,0c0.134,0,0.262,0.027,0.378,0.075C8.5,3.124,8.611,3.197,8.707,3.293
		l5,5c0.391,0.391,0.391,1.023,0,1.414s-1.023,0.391-1.414,0L9,6.414V10.4c0,3.196,0,4.8,0.545,5.87
		c0.482,0.947,1.238,1.703,2.185,2.186C12.8,19,14.404,19,17.6,19H21c0.553,0,1,0.447,1,1S21.553,21,21,21z"/>
</g>
</svg>
