<?xml version="1.0" encoding="iso-8859-1"?>
<!-- Generator: Adobe Illustrator 27.4.0, SVG Export Plug-In . SVG Version: 6.00 Build 0)  -->
<svg version="1.1" id="Layer_1" xmlns="http://www.w3.org/2000/svg" xmlns:xlink="http://www.w3.org/1999/xlink" x="0px" y="0px"
	 viewBox="0 0 24 24" style="enable-background:new 0 0 24 24;" xml:space="preserve">
<g>
	<path d="M15,21c-0.256,0-0.512-0.098-0.707-0.293c-0.391-0.391-0.391-1.023,0-1.414L17.586,16H13.6c-3.516,0-5.28,0-6.778-0.764
		c-1.326-0.675-2.384-1.732-3.059-3.058C3,10.681,3,8.916,3,5.4V4c0-0.552,0.448-1,1-1s1,0.448,1,1v1.4c0,3.196,0,4.801,0.545,5.871
		c0.482,0.946,1.238,1.702,2.185,2.185C8.8,14,10.404,14,13.6,14h3.986l-3.293-3.293c-0.391-0.391-0.391-1.023,0-1.414
		s1.023-0.391,1.414,0l5,5c0.097,0.097,0.169,0.207,0.218,0.326C20.973,14.735,21,14.863,21,14.997l0,0c0,0.002,0,0.004,0,0.006l0,0
		c0,0.134-0.027,0.262-0.075,0.378c-0.049,0.119-0.121,0.229-0.218,0.326l-5,5C15.512,20.902,15.256,21,15,21z"/>
</g>
</svg>
