<?xml version="1.0" encoding="iso-8859-1"?>
<!-- Generator: Adobe Illustrator 27.4.0, SVG Export Plug-In . SVG Version: 6.00 Build 0)  -->
<svg version="1.1" id="Layer_1" xmlns="http://www.w3.org/2000/svg" xmlns:xlink="http://www.w3.org/1999/xlink" x="0px" y="0px"
	 viewBox="0 0 24 24" style="enable-background:new 0 0 24 24;" xml:space="preserve">
<g>
	<path d="M20,21c-0.553,0-1-0.447-1-1v-1.4c0-3.195,0-4.8-0.545-5.87c-0.482-0.947-1.238-1.703-2.186-2.185
		C15.2,10,13.596,10,10.4,10H6.414l3.293,3.293c0.391,0.391,0.391,1.023,0,1.414s-1.023,0.391-1.414,0l-5-5
		C3.197,9.611,3.124,9.5,3.075,9.381C3.027,9.265,3,9.137,3,9.003l0,0c0-0.002,0-0.004,0-0.006l0,0c0-0.134,0.027-0.262,0.075-0.378
		C3.124,8.5,3.197,8.389,3.293,8.293l5-5c0.391-0.391,1.023-0.391,1.414,0s0.391,1.023,0,1.414L6.414,8H10.4
		c3.516,0,5.281,0,6.778,0.763c1.325,0.676,2.384,1.733,3.059,3.059C21,13.319,21,15.084,21,18.6V20C21,20.553,20.553,21,20,21z"/>
</g>
</svg>
