<?xml version="1.0" encoding="iso-8859-1"?>
<!-- Generator: Adobe Illustrator 27.4.0, SVG Export Plug-In . SVG Version: 6.00 Build 0)  -->
<svg version="1.1" id="Layer_1" xmlns="http://www.w3.org/2000/svg" xmlns:xlink="http://www.w3.org/1999/xlink" x="0px" y="0px"
	 viewBox="0 0 24 24" style="enable-background:new 0 0 24 24;" xml:space="preserve">
<g>
	<path d="M16,21c-0.001,0-0.002,0-0.003,0l0,0c-0.134,0-0.262-0.027-0.378-0.075c-0.119-0.049-0.229-0.121-0.326-0.218l-5-5
		c-0.391-0.391-0.391-1.023,0-1.414s1.023-0.391,1.414,0L15,17.586V13.6c0-3.196,0-4.8-0.545-5.87
		c-0.482-0.947-1.238-1.703-2.185-2.185C11.201,5,9.596,5,6.4,5H3C2.448,5,2,4.552,2,4s0.448-1,1-1h3.4c3.516,0,5.281,0,6.778,0.763
		c1.326,0.676,2.384,1.733,3.059,3.059C17,8.319,17,10.084,17,13.6v3.986l3.293-3.293c0.391-0.391,1.023-0.391,1.414,0
		s0.391,1.023,0,1.414l-5,5c-0.097,0.097-0.207,0.169-0.326,0.218C16.265,20.973,16.137,21,16.003,21l0,0C16.002,21,16.001,21,16,21
		z"/>
</g>
</svg>
