<?xml version="1.0" encoding="iso-8859-1"?>
<!-- Generator: Adobe Illustrator 27.4.0, SVG Export Plug-In . SVG Version: 6.00 Build 0)  -->
<svg version="1.1" id="Layer_1" xmlns="http://www.w3.org/2000/svg" xmlns:xlink="http://www.w3.org/1999/xlink" x="0px" y="0px"
	 viewBox="0 0 24 24" style="enable-background:new 0 0 24 24;" xml:space="preserve">
<g>
	<path d="M6.4,21H3c-0.552,0-1-0.447-1-1s0.448-1,1-1h3.4c3.196,0,4.8,0,5.87-0.545c0.947-0.483,1.703-1.238,2.185-2.186
		C15,15.2,15,13.596,15,10.4V6.414l-3.293,3.293c-0.391,0.391-1.023,0.391-1.414,0s-0.391-1.023,0-1.414l5-5
		c0.097-0.096,0.207-0.169,0.326-0.218C15.735,3.027,15.863,3,15.997,3l0,0c0.002,0,0.004,0,0.006,0l0,0
		c0.134,0,0.262,0.027,0.378,0.075c0.119,0.049,0.229,0.122,0.326,0.218l5,5c0.391,0.391,0.391,1.023,0,1.414s-1.023,0.391-1.414,0
		L17,6.414V10.4c0,3.516,0,5.281-0.764,6.778c-0.675,1.325-1.732,2.383-3.058,3.059C11.681,21,9.916,21,6.4,21z"/>
</g>
</svg>
