<?xml version="1.0" encoding="iso-8859-1"?>
<!-- Generator: Adobe Illustrator 27.4.0, SVG Export Plug-In . SVG Version: 6.00 Build 0)  -->
<svg version="1.1" id="Layer_1" xmlns="http://www.w3.org/2000/svg" xmlns:xlink="http://www.w3.org/1999/xlink" x="0px" y="0px"
	 viewBox="0 0 24 24" style="enable-background:new 0 0 24 24;" xml:space="preserve">
<g>
	<path d="M15,23c-0.553,0-1-0.447-1-1v-1h-4v1c0,0.553-0.448,1-1,1s-1-0.447-1-1v-1.002c-1.326-0.009-2.095-0.066-2.816-0.435
		c-0.757-0.385-1.362-0.989-1.748-1.747C3,17.96,3,17.037,3,15.2V15H2c-0.552,0-1-0.447-1-1s0.448-1,1-1h1v-3H2
		c-0.552,0-1-0.448-1-1s0.448-1,1-1h1.001c0.009-1.326,0.067-2.095,0.435-2.816c0.386-0.757,0.991-1.362,1.748-1.748
		C5.906,3.068,6.674,3.011,8,3.001V2c0-0.552,0.448-1,1-1s1,0.448,1,1v1h4V2c0-0.552,0.447-1,1-1s1,0.448,1,1v1.001
		c1.325,0.009,2.094,0.067,2.816,0.435c0.758,0.386,1.362,0.991,1.748,1.749c0.367,0.721,0.425,1.49,0.434,2.815H22
		c0.553,0,1,0.448,1,1s-0.447,1-1,1h-1v3h1c0.553,0,1,0.447,1,1s-0.447,1-1,1h-1v0.2c0,1.837,0,2.76-0.436,3.616
		c-0.386,0.758-0.99,1.362-1.749,1.748c-0.722,0.367-1.49,0.425-2.815,0.434V22C16,22.553,15.553,23,15,23z M5,14v1.2
		c0,1.47,0,2.279,0.218,2.708c0.193,0.379,0.495,0.681,0.873,0.873C6.52,19,7.33,19,8.8,19h6.4c1.47,0,2.279,0,2.708-0.219
		c0.379-0.192,0.681-0.494,0.873-0.872C19,17.479,19,16.67,19,15.2V8.8c0-1.47,0-2.28-0.218-2.708
		c-0.193-0.379-0.495-0.681-0.874-0.874C17.479,5,16.67,5,15.2,5H8.8C7.33,5,6.52,5,6.092,5.218
		C5.713,5.411,5.411,5.713,5.218,6.092C5,6.52,5,7.33,5,8.8V14z M13.4,16h-2.8c-0.651,0-1.081,0-1.51-0.219
		c-0.377-0.192-0.679-0.494-0.872-0.873C8,14.48,8,14.051,8,13.4v-2.8c0-0.65,0-1.08,0.218-1.508
		C8.412,8.713,8.713,8.412,9.09,8.219C9.52,8,9.95,8,10.6,8h2.8c0.65,0,1.08,0,1.508,0.218c0.379,0.193,0.681,0.496,0.874,0.875
		C16,9.519,16,9.949,16,10.6v2.8c0,0.65,0,1.081-0.219,1.509c-0.191,0.378-0.494,0.681-0.874,0.873C14.481,16,14.051,16,13.4,16z
		 M10.6,10c-0.279,0-0.567,0-0.649,0.02C10,10.033,10,10.321,10,10.6v2.8c0,0.278,0,0.566,0.02,0.648C10.034,14,10.322,14,10.6,14
		h2.8c0.278,0,0.565,0,0.647-0.02C14,13.966,14,13.679,14,13.4v-2.8c0-0.278,0-0.566-0.02-0.648C13.967,10,13.679,10,13.4,10H10.6z"
		/>
</g>
</svg>
