<?xml version="1.0" encoding="iso-8859-1"?>
<!-- Generator: Adobe Illustrator 27.4.0, SVG Export Plug-In . SVG Version: 6.00 Build 0)  -->
<svg version="1.1" id="Layer_1" xmlns="http://www.w3.org/2000/svg" xmlns:xlink="http://www.w3.org/1999/xlink" x="0px" y="0px"
	 viewBox="0 0 24 24" style="enable-background:new 0 0 24 24;" xml:space="preserve">
<g>
	<path d="M15,23c-0.553,0-1-0.447-1-1v-2h-4v2c0,0.553-0.448,1-1,1s-1-0.447-1-1v-2.026c-0.755-0.042-1.298-0.146-1.816-0.41
		c-0.757-0.385-1.362-0.989-1.748-1.747C4.068,17.094,4.011,16.325,4.001,15H2c-0.552,0-1-0.447-1-1s0.448-1,1-1h2v-3H2
		c-0.552,0-1-0.448-1-1s0.448-1,1-1h2.027c0.041-0.755,0.146-1.298,0.409-1.816c0.386-0.757,0.991-1.362,1.748-1.748
		C6.702,4.172,7.245,4.068,8,4.027V2c0-0.552,0.448-1,1-1s1,0.448,1,1v2h4V2c0-0.552,0.447-1,1-1s1,0.448,1,1v2.027
		c0.755,0.041,1.298,0.145,1.816,0.409c0.758,0.386,1.362,0.991,1.748,1.749c0.264,0.518,0.368,1.06,0.409,1.815H22
		c0.553,0,1,0.448,1,1s-0.447,1-1,1h-2v3h2c0.553,0,1,0.447,1,1s-0.447,1-1,1h-2.002c-0.009,1.325-0.066,2.094-0.434,2.816
		c-0.386,0.758-0.99,1.362-1.749,1.748c-0.518,0.264-1.061,0.367-1.815,0.409V22C16,22.553,15.553,23,15,23z M6,14v0.2
		c0,1.47,0,2.279,0.218,2.708c0.193,0.379,0.495,0.681,0.873,0.873C7.52,18,8.33,18,9.8,18h4.4c1.47,0,2.279,0,2.708-0.219
		c0.379-0.192,0.681-0.494,0.873-0.872C18,16.479,18,15.67,18,14.2V9.8c0-1.47,0-2.28-0.218-2.708
		c-0.193-0.379-0.495-0.681-0.874-0.874C16.479,6,15.67,6,14.2,6H9.8C8.33,6,7.52,6,7.092,6.218
		C6.713,6.411,6.411,6.713,6.218,7.092C6,7.52,6,8.33,6,9.8V14z"/>
</g>
</svg>
