<?xml version="1.0" encoding="iso-8859-1"?>
<!-- Generator: Adobe Illustrator 27.4.0, SVG Export Plug-In . SVG Version: 6.00 Build 0)  -->
<svg version="1.1" id="Layer_1" xmlns="http://www.w3.org/2000/svg" xmlns:xlink="http://www.w3.org/1999/xlink" x="0px" y="0px"
	 viewBox="0 0 24 24" style="enable-background:new 0 0 24 24;" xml:space="preserve">
<g>
	<path d="M14.5,22c-0.263,0-0.518-0.104-0.707-0.293c-0.236-0.236-0.339-0.575-0.273-0.903l0.405-2.025
		c0.053-0.265,0.087-0.395,0.135-0.516c0.055-0.143,0.13-0.283,0.221-0.414c0.077-0.109,0.166-0.209,0.355-0.398l4.157-4.157
		c0.941-0.941,2.473-0.941,3.414,0s0.941,2.473,0,3.414l-4.157,4.157c-0.189,0.189-0.289,0.278-0.396,0.354
		c-0.134,0.093-0.274,0.168-0.422,0.225c-0.116,0.046-0.246,0.08-0.505,0.132l-2.031,0.406C14.631,21.993,14.565,22,14.5,22z
		 M20.5,14.586c-0.106,0-0.212,0.04-0.293,0.121l-4.157,4.157c-0.065,0.065-0.108,0.105-0.14,0.144
		c0.004,0.015-0.006,0.07-0.023,0.156l-0.111,0.561l0.554-0.11c0.093-0.019,0.148-0.028,0.193-0.041
		c0.008-0.015,0.048-0.058,0.113-0.123l4.157-4.157c0.161-0.161,0.161-0.425,0-0.586C20.712,14.626,20.606,14.586,20.5,14.586z
		 M11,20H5.2c-1.238,0-1.92,0-2.562-0.326c-0.57-0.292-1.022-0.744-1.312-1.311C1,17.721,1,17.038,1,15.8V8.2
		c0-1.238,0-1.92,0.327-2.562C1.617,5.07,2.07,4.617,2.637,4.327C3.28,4,3.962,4,5.2,4h13.6c1.238,0,1.921,0,2.562,0.327
		c0.567,0.29,1.02,0.742,1.311,1.31C23,6.28,23,6.962,23,8.2V10c0,0.552-0.447,1-1,1H3v4.8c0,0.867,0,1.44,0.109,1.654
		c0.096,0.188,0.248,0.341,0.438,0.438C3.76,18,4.333,18,5.2,18H11c0.552,0,1,0.447,1,1S11.552,20,11,20z M3,9h18V8.2
		c0-0.868,0-1.44-0.109-1.655c-0.096-0.188-0.248-0.34-0.438-0.437C20.24,6,19.667,6,18.8,6H5.2C4.333,6,3.76,6,3.545,6.109
		c-0.186,0.095-0.341,0.25-0.437,0.438C3,6.76,3,7.333,3,8.2V9z"/>
</g>
</svg>
