<?xml version="1.0" encoding="iso-8859-1"?>
<!-- Generator: Adobe Illustrator 27.4.0, SVG Export Plug-In . SVG Version: 6.00 Build 0)  -->
<svg version="1.1" id="Layer_1" xmlns="http://www.w3.org/2000/svg" xmlns:xlink="http://www.w3.org/1999/xlink" x="0px" y="0px"
	 viewBox="0 0 24 24" style="enable-background:new 0 0 24 24;" xml:space="preserve">
<g>
	<path d="M13,22c-0.256,0-0.512-0.098-0.707-0.293l-2-2c-0.096-0.097-0.169-0.207-0.218-0.326C10.027,19.265,10,19.137,10,19.003
		l0,0c0-0.002,0-0.004,0-0.006l0,0c0-0.134,0.027-0.262,0.075-0.378c0.049-0.119,0.122-0.229,0.218-0.326l2-2
		c0.391-0.391,1.023-0.391,1.414,0s0.391,1.023,0,1.414L13.414,18H18.8c0.867,0,1.44,0,1.654-0.109
		c0.188-0.096,0.341-0.248,0.438-0.438C21,17.24,21,16.667,21,15.8V11H3v4.8c0,0.867,0,1.44,0.109,1.654
		c0.096,0.188,0.248,0.341,0.438,0.438C3.76,18,4.333,18,5.2,18H7c0.552,0,1,0.447,1,1s-0.448,1-1,1H5.2
		c-1.238,0-1.92,0-2.562-0.326c-0.57-0.292-1.022-0.744-1.312-1.311C1,17.721,1,17.038,1,15.8V8.2c0-1.238,0-1.92,0.327-2.562
		C1.617,5.07,2.07,4.617,2.637,4.327C3.28,4,3.962,4,5.2,4h5.386l-0.293-0.293c-0.391-0.391-0.391-1.023,0-1.414
		s1.023-0.391,1.414,0l2,2c0.097,0.096,0.169,0.208,0.218,0.326C13.973,4.735,14,4.863,14,4.997l0,0c0,0.002,0,0.004,0,0.006l0,0
		c0,0.134-0.027,0.262-0.075,0.378c-0.049,0.119-0.121,0.23-0.218,0.326l-2,2c-0.391,0.391-1.023,0.391-1.414,0
		s-0.391-1.023,0-1.414L10.586,6H5.2C4.333,6,3.76,6,3.545,6.109c-0.186,0.095-0.341,0.25-0.437,0.438C3,6.76,3,7.333,3,8.2V9h18
		V8.2c0-0.868,0-1.44-0.109-1.655c-0.096-0.188-0.248-0.34-0.438-0.437C20.24,6,19.667,6,18.8,6H17c-0.553,0-1-0.448-1-1
		s0.447-1,1-1h1.8c1.238,0,1.921,0,2.562,0.327c0.567,0.29,1.02,0.742,1.311,1.31C23,6.28,23,6.962,23,8.2v7.6
		c0,1.238,0,1.921-0.326,2.562c-0.291,0.567-0.744,1.021-1.311,1.311C20.721,20,20.038,20,18.8,20h-5.386l0.293,0.293
		c0.391,0.391,0.391,1.023,0,1.414C13.512,21.902,13.256,22,13,22z"/>
</g>
</svg>
