<?xml version="1.0" encoding="iso-8859-1"?>
<!-- Generator: Adobe Illustrator 27.4.0, SVG Export Plug-In . SVG Version: 6.00 Build 0)  -->
<svg version="1.1" id="Layer_1" xmlns="http://www.w3.org/2000/svg" xmlns:xlink="http://www.w3.org/1999/xlink" x="0px" y="0px"
	 viewBox="0 0 24 24" style="enable-background:new 0 0 24 24;" xml:space="preserve">
<g>
	<path d="M20.4,22.5H16.6c-0.65,0-1.081,0-1.509-0.219c-0.378-0.191-0.681-0.494-0.873-0.874C14,20.981,14,20.551,14,19.9V19.1
		c0-0.65,0-1.081,0.219-1.509c0.191-0.378,0.494-0.681,0.874-0.873c0.21-0.107,0.42-0.161,0.657-0.189V15.75
		c0-1.517,1.233-2.75,2.75-2.75s2.75,1.233,2.75,2.75v0.778c0.237,0.028,0.448,0.083,0.659,0.19
		c0.378,0.191,0.681,0.494,0.873,0.874C23,18.019,23,18.449,23,19.1V19.9c0,0.65,0,1.081-0.219,1.509
		c-0.191,0.378-0.494,0.681-0.874,0.873C21.481,22.5,21.051,22.5,20.4,22.5z M16.6,18.5c-0.278,0-0.565,0-0.647,0.02
		C16,18.534,16,18.821,16,19.1V19.9c0,0.278,0,0.565,0.02,0.647C16.034,20.5,16.321,20.5,16.6,20.5H20.4c0.278,0,0.565,0,0.647-0.02
		C21,20.466,21,20.179,21,19.9V19.1c0-0.278,0-0.565-0.02-0.647C20.966,18.5,20.679,18.5,20.4,18.5H16.6z M17.75,16.5h1.5v-0.75
		c0-0.413-0.337-0.75-0.75-0.75s-0.75,0.337-0.75,0.75V16.5z M11,20H5.2c-1.238,0-1.92,0-2.562-0.326
		c-0.57-0.292-1.022-0.744-1.312-1.311C1,17.721,1,17.038,1,15.8V8.2c0-1.238,0-1.92,0.327-2.562C1.617,5.07,2.07,4.617,2.637,4.327
		C3.28,4,3.962,4,5.2,4h13.6c1.238,0,1.921,0,2.562,0.327c0.567,0.29,1.02,0.742,1.311,1.31C23,6.28,23,6.962,23,8.2V11
		c0,0.552-0.447,1-1,1s-1-0.448-1-1H3v4.8c0,0.867,0,1.44,0.109,1.654c0.096,0.188,0.248,0.341,0.438,0.438C3.76,18,4.333,18,5.2,18
		H11c0.552,0,1,0.447,1,1S11.552,20,11,20z M3,9h18V8.2c0-0.868,0-1.44-0.109-1.655c-0.096-0.188-0.248-0.34-0.438-0.437
		C20.24,6,19.667,6,18.8,6H5.2C4.333,6,3.76,6,3.545,6.109c-0.186,0.095-0.341,0.25-0.437,0.438C3,6.76,3,7.333,3,8.2V9z"/>
</g>
</svg>
