<?xml version="1.0" encoding="iso-8859-1"?>
<!-- Generator: Adobe Illustrator 27.4.0, SVG Export Plug-In . SVG Version: 6.00 Build 0)  -->
<svg version="1.1" id="Layer_1" xmlns="http://www.w3.org/2000/svg" xmlns:xlink="http://www.w3.org/1999/xlink" x="0px" y="0px"
	 viewBox="0 0 24 24" style="enable-background:new 0 0 24 24;" xml:space="preserve">
<g>
	<path d="M18,22c-0.147,0-0.294-0.032-0.431-0.098C17.204,21.729,14,20.124,14,17.425v-2.502c0-0.423,0.266-0.8,0.663-0.941
		L16.85,13.2c0.742-0.266,1.559-0.266,2.301,0l2.186,0.781C21.734,14.123,22,14.5,22,14.923v2.502c0,2.699-3.204,4.304-3.569,4.478
		C18.294,21.968,18.147,22,18,22z M16,15.628v1.797c0,1.007,1.216,1.959,2,2.435c0.784-0.476,2-1.428,2-2.435v-1.797l-1.523-0.545
		c-0.309-0.109-0.646-0.109-0.952,0L16,15.628z M11.5,20H5.2c-1.238,0-1.92,0-2.562-0.326c-0.57-0.292-1.022-0.744-1.312-1.311
		C1,17.721,1,17.038,1,15.8V8.2c0-1.238,0-1.92,0.327-2.562C1.617,5.07,2.07,4.617,2.637,4.327C3.28,4,3.962,4,5.2,4h13.6
		c1.238,0,1.921,0,2.562,0.327c0.567,0.29,1.02,0.742,1.311,1.31C23,6.28,23,6.962,23,8.2V11c0,0.552-0.447,1-1,1s-1-0.448-1-1H3
		v4.8c0,0.867,0,1.44,0.109,1.654c0.096,0.188,0.248,0.341,0.438,0.438C3.76,18,4.333,18,5.2,18h6.3c0.552,0,1,0.447,1,1
		S12.052,20,11.5,20z M3,9h18V8.2c0-0.868,0-1.44-0.109-1.655c-0.096-0.188-0.248-0.34-0.438-0.437C20.24,6,19.667,6,18.8,6H5.2
		C4.333,6,3.76,6,3.545,6.109c-0.186,0.095-0.341,0.25-0.437,0.438C3,6.76,3,7.333,3,8.2V9z"/>
</g>
</svg>
