<?xml version="1.0" encoding="iso-8859-1"?>
<!-- Generator: Adobe Illustrator 27.4.0, SVG Export Plug-In . SVG Version: 6.00 Build 0)  -->
<svg version="1.1" id="Layer_1" xmlns="http://www.w3.org/2000/svg" xmlns:xlink="http://www.w3.org/1999/xlink" x="0px" y="0px"
	 viewBox="0 0 24 24" style="enable-background:new 0 0 24 24;" xml:space="preserve">
<g>
	<path d="M18,23c-0.553,0-1-0.447-1-1v-3H9.2c-1.238,0-1.92,0-2.562-0.326c-0.57-0.292-1.022-0.744-1.312-1.311
		C5,16.721,5,16.038,5,14.8V7H2C1.448,7,1,6.552,1,6s0.448-1,1-1h3V2c0-0.552,0.448-1,1-1s1,0.448,1,1v3h7.8
		c1.238,0,1.921,0,2.562,0.327c0.567,0.29,1.02,0.742,1.311,1.31C19,7.28,19,7.962,19,9.2V17h3c0.553,0,1,0.447,1,1s-0.447,1-1,1h-3
		v3C19,22.553,18.553,23,18,23z M7,7v7.8c0,0.867,0,1.44,0.109,1.654c0.096,0.188,0.248,0.341,0.438,0.438C7.76,17,8.333,17,9.2,17
		H17V9.2c0-0.868,0-1.44-0.109-1.655c-0.096-0.188-0.248-0.34-0.438-0.437C16.24,7,15.667,7,14.8,7H7z"/>
</g>
</svg>
