<?xml version="1.0" encoding="iso-8859-1"?>
<!-- Generator: Adobe Illustrator 27.4.0, SVG Export Plug-In . SVG Version: 6.00 Build 0)  -->
<svg version="1.1" id="Layer_1" xmlns="http://www.w3.org/2000/svg" xmlns:xlink="http://www.w3.org/1999/xlink" x="0px" y="0px"
	 viewBox="0 0 24 24" style="enable-background:new 0 0 24 24;" xml:space="preserve">
<g>
	<path d="M22,23c-0.256,0-0.512-0.098-0.707-0.293l-2-2c-0.391-0.391-0.391-1.023,0-1.414s1.023-0.391,1.414,0l2,2
		c0.391,0.391,0.391,1.023,0,1.414C22.512,22.902,22.256,23,22,23z M16,23c-0.553,0-1-0.447-1-1v-1.5c0-0.553,0.447-1,1-1
		s1,0.447,1,1V22C17,22.553,16.553,23,16,23z M8,23c-0.552,0-1-0.447-1-1v-4c0-0.553,0.448-1,1-1s1,0.447,1,1v4
		C9,22.553,8.552,23,8,23z M2,23c-0.256,0-0.512-0.098-0.707-0.293c-0.391-0.391-0.391-1.023,0-1.414l2-2
		c0.391-0.391,1.023-0.391,1.414,0s0.391,1.023,0,1.414l-2,2C2.512,22.902,2.256,23,2,23z M21.5,17H18c-0.553,0-1-0.447-1-1
		s0.447-1,1-1h3.5c0.553,0,1,0.447,1,1S22.053,17,21.5,17z M12,17c-2.757,0-5-2.243-5-5s2.243-5,5-5s5,2.243,5,5S14.757,17,12,17z
		 M12,9c-1.654,0-3,1.346-3,3s1.346,3,3,3s3-1.346,3-3S13.654,9,12,9z M3.5,17H2c-0.552,0-1-0.447-1-1s0.448-1,1-1h1.5
		c0.552,0,1,0.447,1,1S4.052,17,3.5,17z M22,9h-1.5c-0.553,0-1-0.448-1-1s0.447-1,1-1H22c0.553,0,1,0.448,1,1S22.553,9,22,9z M6,9H2
		C1.448,9,1,8.552,1,8s0.448-1,1-1h4c0.552,0,1,0.448,1,1S6.552,9,6,9z M16,7c-0.553,0-1-0.448-1-1V2c0-0.552,0.447-1,1-1
		s1,0.448,1,1v4C17,6.552,16.553,7,16,7z M20,5c-0.256,0-0.512-0.098-0.707-0.293c-0.391-0.391-0.391-1.023,0-1.414l2-2
		c0.391-0.391,1.023-0.391,1.414,0s0.391,1.023,0,1.414l-2,2C20.512,4.902,20.256,5,20,5z M4,5C3.744,5,3.488,4.902,3.293,4.707
		l-2-2c-0.391-0.391-0.391-1.023,0-1.414s1.023-0.391,1.414,0l2,2c0.391,0.391,0.391,1.023,0,1.414C4.512,4.902,4.256,5,4,5z M8,4.5
		c-0.552,0-1-0.448-1-1V2c0-0.552,0.448-1,1-1s1,0.448,1,1v1.5C9,4.052,8.552,4.5,8,4.5z"/>
</g>
</svg>
