<?xml version="1.0" encoding="iso-8859-1"?>
<!-- Generator: Adobe Illustrator 27.4.0, SVG Export Plug-In . SVG Version: 6.00 Build 0)  -->
<svg version="1.1" id="Layer_1" xmlns="http://www.w3.org/2000/svg" xmlns:xlink="http://www.w3.org/1999/xlink" x="0px" y="0px"
	 viewBox="0 0 24 24" style="enable-background:new 0 0 24 24;" xml:space="preserve">
<g>
	<path d="M12,23c-2.338,0-4.574-0.727-6.466-2.102c-0.447-0.324-0.546-0.949-0.221-1.396c0.325-0.446,0.95-0.548,1.397-0.221
		C8.258,20.405,10.087,21,12,21c1.912,0,3.741-0.595,5.29-1.72c0.448-0.325,1.072-0.225,1.397,0.222
		c0.324,0.447,0.225,1.072-0.222,1.397C16.573,22.273,14.337,23,12,23z M12,18.5c-3.584,0-6.5-2.916-6.5-6.5S8.416,5.5,12,5.5
		s6.5,2.916,6.5,6.5S15.584,18.5,12,18.5z M12,7.5c-2.481,0-4.5,2.019-4.5,4.5s2.019,4.5,4.5,4.5s4.5-2.019,4.5-4.5
		S14.481,7.5,12,7.5z M21.903,14.392c-0.046,0-0.093-0.003-0.141-0.01c-0.547-0.077-0.928-0.582-0.851-1.13
		c0.267-1.895-0.067-3.789-0.966-5.477c-0.898-1.689-2.281-3.025-4.001-3.864c-0.496-0.242-0.702-0.841-0.46-1.337
		c0.241-0.495,0.839-0.702,1.337-0.46c2.102,1.025,3.792,2.658,4.89,4.723c1.098,2.063,1.506,4.378,1.181,6.695
		C22.822,14.03,22.395,14.392,21.903,14.392z M2.096,14.392c-0.49,0-0.918-0.361-0.989-0.86C0.782,11.215,1.19,8.9,2.288,6.835
		c1.097-2.064,2.788-3.697,4.89-4.723c0.497-0.243,1.095-0.036,1.337,0.46c0.242,0.497,0.036,1.095-0.46,1.337
		C6.335,4.749,4.952,6.085,4.054,7.774c-0.898,1.689-1.232,3.583-0.966,5.478c0.077,0.548-0.304,1.053-0.851,1.13
		C2.189,14.389,2.143,14.392,2.096,14.392z"/>
</g>
</svg>
