<?xml version="1.0" encoding="iso-8859-1"?>
<!-- Generator: Adobe Illustrator 27.4.0, SVG Export Plug-In . SVG Version: 6.00 Build 0)  -->
<svg version="1.1" id="Layer_1" xmlns="http://www.w3.org/2000/svg" xmlns:xlink="http://www.w3.org/1999/xlink" x="0px" y="0px"
	 viewBox="0 0 24 24" style="enable-background:new 0 0 24 24;" xml:space="preserve">
<g>
	<path d="M12,23c-2.338,0-4.574-0.727-6.466-2.102c-0.447-0.324-0.546-0.949-0.221-1.396c0.325-0.446,0.95-0.548,1.397-0.221
		C8.258,20.405,10.087,21,12,21c1.912,0,3.741-0.595,5.29-1.72c0.448-0.325,1.072-0.225,1.397,0.222
		c0.324,0.447,0.225,1.072-0.222,1.397C16.573,22.273,14.337,23,12,23z M12,18.793c-0.155,0-0.31-0.024-0.46-0.072
		c-0.343-0.111-0.557-0.325-0.805-0.572l-4.875-4.875c-0.261-0.262-0.467-0.468-0.579-0.81c-0.098-0.304-0.098-0.623,0-0.924
		c0.112-0.345,0.318-0.551,0.579-0.812l4.868-4.867c0.25-0.251,0.467-0.468,0.81-0.58c0.298-0.098,0.629-0.098,0.928,0
		c0.341,0.111,0.547,0.317,0.809,0.578l4.868,4.868c0.25,0.25,0.467,0.466,0.578,0.81c0.098,0.304,0.098,0.623,0.001,0.924
		c-0.112,0.346-0.329,0.562-0.579,0.812l-4.868,4.868c-0.257,0.255-0.47,0.468-0.81,0.578C12.311,18.769,12.155,18.793,12,18.793z
		 M7.414,12L12,16.586L16.586,12L12,7.415L7.414,12z M11.435,6.566h0.01H11.435z M21.903,14.392c-0.046,0-0.093-0.003-0.141-0.01
		c-0.547-0.077-0.928-0.582-0.851-1.13c0.267-1.895-0.067-3.789-0.966-5.477c-0.898-1.689-2.281-3.025-4.001-3.864
		c-0.496-0.242-0.702-0.841-0.46-1.337c0.241-0.495,0.839-0.702,1.337-0.46c2.102,1.025,3.792,2.658,4.89,4.723
		c1.098,2.063,1.506,4.378,1.181,6.695C22.822,14.03,22.395,14.392,21.903,14.392z M2.096,14.392c-0.49,0-0.918-0.361-0.989-0.86
		C0.782,11.215,1.19,8.9,2.288,6.835c1.097-2.064,2.788-3.697,4.89-4.723c0.497-0.243,1.095-0.036,1.337,0.46
		c0.242,0.497,0.036,1.095-0.46,1.337C6.335,4.749,4.952,6.085,4.054,7.774c-0.898,1.689-1.232,3.583-0.966,5.478
		c0.077,0.548-0.304,1.053-0.851,1.13C2.189,14.389,2.143,14.392,2.096,14.392z"/>
</g>
</svg>
