<?xml version="1.0" encoding="iso-8859-1"?>
<!-- Generator: Adobe Illustrator 27.4.0, SVG Export Plug-In . SVG Version: 6.00 Build 0)  -->
<svg version="1.1" id="Layer_1" xmlns="http://www.w3.org/2000/svg" xmlns:xlink="http://www.w3.org/1999/xlink" x="0px" y="0px"
	 viewBox="0 0 24 24" style="enable-background:new 0 0 24 24;" xml:space="preserve">
<g>
	<path d="M15.337,22H3.8c-0.354,0-0.661,0-0.982-0.164c-0.283-0.145-0.511-0.372-0.655-0.658C2,20.862,2,20.556,2,20.2V8.663
		C2,8.37,2,8.177,2.056,7.946C2.104,7.744,2.185,7.549,2.294,7.37c0.124-0.202,0.26-0.338,0.467-0.545l4.062-4.062
		C7.031,2.555,7.168,2.418,7.37,2.294c0.18-0.11,0.374-0.19,0.579-0.239C8.177,2,8.37,2,8.663,2H20.2c0.355,0,0.662,0,0.983,0.165
		c0.28,0.142,0.508,0.369,0.653,0.655C22,3.139,22,3.445,22,3.8v11.537c0,0.292,0,0.484-0.055,0.713
		c-0.049,0.205-0.129,0.398-0.238,0.578c-0.125,0.204-0.262,0.341-0.469,0.548l-4.062,4.062c-0.207,0.207-0.344,0.344-0.546,0.468
		c-0.182,0.11-0.375,0.19-0.577,0.239C15.821,22,15.629,22,15.337,22z M4,20h11V9H4V20z M17,8.414v10.172l2.824-2.824
		c0.089-0.089,0.147-0.143,0.188-0.194C20.004,15.543,20,15.464,20,15.337V5.414L17,8.414z M5.414,7h10.172l3-3H8.663
		C8.537,4,8.458,3.997,8.394,4.004C8.381,4.028,8.327,4.087,8.238,4.176L5.414,7z"/>
</g>
</svg>
