<?xml version="1.0" encoding="iso-8859-1"?>
<!-- Generator: Adobe Illustrator 27.4.0, SVG Export Plug-In . SVG Version: 6.00 Build 0)  -->
<svg version="1.1" id="Layer_1" xmlns="http://www.w3.org/2000/svg" xmlns:xlink="http://www.w3.org/1999/xlink" x="0px" y="0px"
	 viewBox="0 0 24 24" style="enable-background:new 0 0 24 24;" xml:space="preserve">
<g>
	<path d="M12,23c-0.262,0-0.5-0.101-0.678-0.265c-0.179-0.068-0.351-0.163-0.573-0.287l-1.484-0.824
		c-0.482-0.268-0.657-0.877-0.388-1.359c0.268-0.482,0.877-0.658,1.36-0.389L11,20.301V19.5c0-0.553,0.448-1,1-1s1,0.447,1,1v0.801
		l0.765-0.425c0.481-0.27,1.092-0.094,1.359,0.389c0.269,0.482,0.095,1.092-0.389,1.359l-1.473,0.818
		c-0.23,0.128-0.405,0.225-0.585,0.293C12.5,22.899,12.262,23,12,23z M18.751,19.25c-0.352,0-0.692-0.186-0.875-0.515
		c-0.269-0.482-0.095-1.091,0.389-1.359l1.427-0.793c0.156-0.087,0.258-0.136,0.33-0.192C20.007,16.351,20,16.237,20,16.059V14.5
		c0-0.553,0.447-1,1-1s1,0.447,1,1v1.559c0,0.406,0,0.675-0.102,0.981c-0.087,0.266-0.235,0.519-0.429,0.728
		c-0.218,0.237-0.453,0.367-0.809,0.564l-1.426,0.792C19.082,19.21,18.915,19.25,18.751,19.25z M5.249,19.25
		c-0.164,0-0.331-0.04-0.485-0.126l-1.427-0.793c-0.357-0.198-0.592-0.328-0.811-0.567c-0.189-0.205-0.334-0.449-0.425-0.722
		C2,16.732,2,16.464,2,16.059V14.5c0-0.553,0.448-1,1-1s1,0.447,1,1v1.559c0,0.18-0.006,0.293,0.008,0.384
		c0.042,0.005,0.144,0.054,0.298,0.139l1.43,0.795c0.482,0.269,0.657,0.877,0.388,1.359C5.941,19.064,5.601,19.25,5.249,19.25z
		 M12,15.5c-0.552,0-1-0.447-1-1v-1.912l-1.736-0.964c-0.482-0.268-0.657-0.877-0.388-1.36c0.268-0.482,0.877-0.657,1.36-0.388
		L12,10.856l1.765-0.98c0.481-0.269,1.092-0.094,1.359,0.388c0.269,0.483,0.095,1.092-0.389,1.36L13,12.588V14.5
		C13,15.053,12.552,15.5,12,15.5z M21,10.5c-0.553,0-1-0.448-1-1V8.7l-0.765,0.424c-0.482,0.268-1.091,0.094-1.359-0.388
		c-0.269-0.483-0.095-1.092,0.389-1.36L18.94,7l-0.676-0.376c-0.483-0.268-0.657-0.877-0.389-1.36
		c0.269-0.482,0.877-0.657,1.359-0.388l1.427,0.793c0.241,0.134,0.427,0.237,0.59,0.363c0.255,0.066,0.484,0.233,0.622,0.482
		c0.13,0.233,0.156,0.496,0.095,0.735C22,7.452,22,7.665,22,7.941V9.5C22,10.052,21.553,10.5,21,10.5z M3,10.5c-0.552,0-1-0.448-1-1
		V7.941C2,7.666,2,7.453,2.032,7.25C1.97,7.01,1.996,6.748,2.126,6.514c0.138-0.249,0.367-0.415,0.622-0.482
		c0.161-0.125,0.345-0.228,0.583-0.36l1.434-0.796c0.483-0.269,1.092-0.094,1.36,0.388c0.269,0.483,0.094,1.092-0.388,1.36L5.059,7
		l0.677,0.376c0.482,0.268,0.657,0.877,0.388,1.36c-0.268,0.482-0.877,0.656-1.36,0.388L4,8.7v0.8C4,10.052,3.552,10.5,3,10.5z
		 M14.249,4.25c-0.164,0-0.331-0.041-0.484-0.126l-1.474-0.818c-0.152-0.084-0.24-0.14-0.32-0.169
		c-0.022,0.03-0.111,0.085-0.253,0.165l-1.482,0.823c-0.483,0.269-1.092,0.094-1.36-0.388c-0.269-0.483-0.094-1.092,0.388-1.36
		l1.473-0.818c0.343-0.19,0.562-0.312,0.861-0.373c0.267-0.055,0.538-0.054,0.804,0c0.298,0.061,0.517,0.183,0.849,0.366
		l1.483,0.825c0.483,0.268,0.657,0.877,0.389,1.36C14.941,4.064,14.601,4.25,14.249,4.25z"/>
</g>
</svg>
