<?xml version="1.0" encoding="iso-8859-1"?>
<!-- Generator: Adobe Illustrator 27.4.0, SVG Export Plug-In . SVG Version: 6.00 Build 0)  -->
<svg version="1.1" id="Layer_1" xmlns="http://www.w3.org/2000/svg" xmlns:xlink="http://www.w3.org/1999/xlink" x="0px" y="0px"
	 viewBox="0 0 24 24" style="enable-background:new 0 0 24 24;" xml:space="preserve">
<g>
	<path d="M12,23C5.935,23,1,18.065,1,12S5.935,1,12,1s11,4.935,11,11S18.065,23,12,23z M12,3c-4.962,0-9,4.038-9,9
		c0,4.963,4.038,9,9,9c4.963,0,9-4.037,9-9C21,7.038,16.963,3,12,3z M12,19c-0.141,0-0.282-0.03-0.414-0.09l-5.5-2.5
		c-0.503-0.229-0.725-0.821-0.497-1.324s0.824-0.726,1.324-0.496L12,16.901l5.086-2.312c0.508-0.23,1.097-0.006,1.324,0.496
		c0.229,0.503,0.007,1.096-0.496,1.324l-5.5,2.5C12.282,18.97,12.141,19,12,19z M12,15c-0.141,0-0.282-0.03-0.414-0.09l-5.5-2.5
		c-0.286-0.129-0.494-0.385-0.562-0.691c-0.069-0.306,0.01-0.626,0.212-0.865l5.5-6.5c0.38-0.449,1.146-0.449,1.526,0l5.5,6.5
		c0.202,0.239,0.28,0.56,0.212,0.865s-0.276,0.562-0.562,0.691l-5.5,2.5C12.282,14.97,12.141,15,12,15z M8.117,11.137L12,12.901
		l3.883-1.765L12,6.548L8.117,11.137z"/>
</g>
</svg>
