<?xml version="1.0" encoding="iso-8859-1"?>
<!-- Generator: Adobe Illustrator 27.4.0, SVG Export Plug-In . SVG Version: 6.00 Build 0)  -->
<svg version="1.1" id="Layer_1" xmlns="http://www.w3.org/2000/svg" xmlns:xlink="http://www.w3.org/1999/xlink" x="0px" y="0px"
	 viewBox="0 0 24 24" style="enable-background:new 0 0 24 24;" xml:space="preserve">
<g>
	<path d="M12,23C5.935,23,1,18.065,1,12S5.935,1,12,1s11,4.935,11,11S18.065,23,12,23z M12,3c-4.962,0-9,4.038-9,9
		c0,4.963,4.038,9,9,9c4.963,0,9-4.037,9-9C21,7.038,16.963,3,12,3z M13.999,19c-0.223,0-0.446-0.074-0.632-0.226l-5.5-4.5
		c-0.327-0.269-0.451-0.713-0.309-1.11C7.7,12.766,8.077,12.5,8.5,12.5H10c0.737,0,1.321-0.249,1.737-0.74
		c0.182-0.215,0.327-0.475,0.428-0.76H8.5c-0.552,0-1-0.448-1-1s0.448-1,1-1h3.66C11.89,8.237,11.261,7.5,10,7.5H8.5
		c-0.552,0-1-0.448-1-1s0.448-1,1-1h7c0.553,0,1,0.448,1,1s-0.447,1-1,1h-1.842c0.275,0.46,0.468,0.971,0.575,1.5H15.5
		c0.553,0,1,0.448,1,1s-0.447,1-1,1h-1.265c-0.154,0.771-0.486,1.479-0.973,2.053c-0.561,0.663-1.283,1.107-2.124,1.314l3.494,2.858
		c0.428,0.351,0.491,0.98,0.142,1.407C14.576,18.875,14.289,19,13.999,19z"/>
</g>
</svg>
