<?xml version="1.0" encoding="iso-8859-1"?>
<!-- Generator: Adobe Illustrator 27.4.0, SVG Export Plug-In . SVG Version: 6.00 Build 0)  -->
<svg version="1.1" id="Layer_1" xmlns="http://www.w3.org/2000/svg" xmlns:xlink="http://www.w3.org/1999/xlink" x="0px" y="0px"
	 viewBox="0 0 24 24" style="enable-background:new 0 0 24 24;" xml:space="preserve">
<g>
	<path d="M8.5,21.5c-0.552,0-1-0.447-1-1v-4h-1c-0.552,0-1-0.447-1-1s0.448-1,1-1h1v-2h-1c-0.552,0-1-0.448-1-1s0.448-1,1-1h1v-7
		c0-0.552,0.448-1,1-1h6c2.757,0,5,2.243,5,5s-2.243,5-5,5h-5v2h4c0.553,0,1,0.447,1,1s-0.447,1-1,1h-4v4
		C9.5,21.053,9.052,21.5,8.5,21.5z M9.5,10.5h5c1.654,0,3-1.346,3-3s-1.346-3-3-3h-5V10.5z"/>
</g>
</svg>
