<?xml version="1.0" encoding="iso-8859-1"?>
<!-- Generator: Adobe Illustrator 27.4.0, SVG Export Plug-In . SVG Version: 6.00 Build 0)  -->
<svg version="1.1" id="Layer_1" xmlns="http://www.w3.org/2000/svg" xmlns:xlink="http://www.w3.org/1999/xlink" x="0px" y="0px"
	 viewBox="0 0 24 24" style="enable-background:new 0 0 24 24;" xml:space="preserve">
<g>
	<path d="M12,23c-0.552,0-1-0.447-1-1v-1h-1c-2.757,0-5-2.243-5-5c0-0.553,0.448-1,1-1s1,0.447,1,1c0,1.654,1.346,3,3,3h1v-6h-1
		c-2.757,0-5-2.243-5-5s2.243-5,5-5h1V2c0-0.552,0.448-1,1-1s1,0.448,1,1v1h1c2.757,0,5,2.243,5,5c0,0.552-0.447,1-1,1s-1-0.448-1-1
		c0-1.654-1.346-3-3-3h-1v6h1c2.757,0,5,2.243,5,5s-2.243,5-5,5h-1v1C13,22.553,12.552,23,12,23z M13,19h1c1.654,0,3-1.346,3-3
		s-1.346-3-3-3h-1V19z M10,5C8.346,5,7,6.346,7,8s1.346,3,3,3h1V5H10z"/>
</g>
</svg>
