<?xml version="1.0" encoding="iso-8859-1"?>
<!-- Generator: Adobe Illustrator 27.4.0, SVG Export Plug-In . SVG Version: 6.00 Build 0)  -->
<svg version="1.1" id="Layer_1" xmlns="http://www.w3.org/2000/svg" xmlns:xlink="http://www.w3.org/1999/xlink" x="0px" y="0px"
	 viewBox="0 0 24 24" style="enable-background:new 0 0 24 24;" xml:space="preserve">
<g>
	<path d="M12,21.5c-0.552,0-1-0.447-1-1v-4H7c-0.552,0-1-0.447-1-1s0.448-1,1-1h4v-2H6c-0.552,0-1-0.448-1-1s0.448-1,1-1h3.899
		L4.724,4.13C4.375,3.702,4.441,3.072,4.87,2.724C5.298,2.375,5.928,2.44,6.276,2.87L12,9.914l5.724-7.044
		c0.35-0.429,0.979-0.493,1.407-0.146c0.429,0.348,0.493,0.978,0.146,1.406l-5.176,6.37H18c0.553,0,1,0.448,1,1s-0.447,1-1,1h-5v2h4
		c0.553,0,1,0.447,1,1s-0.447,1-1,1h-4v4C13,21.053,12.552,21.5,12,21.5z"/>
</g>
</svg>
