<?xml version="1.0" encoding="iso-8859-1"?>
<!-- Generator: Adobe Illustrator 27.4.0, SVG Export Plug-In . SVG Version: 6.00 Build 0)  -->
<svg version="1.1" id="Layer_1" xmlns="http://www.w3.org/2000/svg" xmlns:xlink="http://www.w3.org/1999/xlink" x="0px" y="0px"
	 viewBox="0 0 24 24" style="enable-background:new 0 0 24 24;" xml:space="preserve">
<g>
	<path d="M13.5,23c-0.552,0-1-0.447-1-1v-1h-2v1c0,0.553-0.448,1-1,1s-1-0.447-1-1v-1h-3c-0.552,0-1-0.447-1-1s0.448-1,1-1h1V5h-1
		c-0.552,0-1-0.448-1-1s0.448-1,1-1h3V2c0-0.552,0.448-1,1-1s1,0.448,1,1v1h2V2c0-0.552,0.448-1,1-1c0.553,0,1,0.448,1,1v1.025
		C17.023,3.276,19,5.412,19,8c0,1.429-0.603,2.72-1.567,3.632C18.963,12.488,20,14.125,20,16c0,2.757-2.243,5-5,5h-0.5v1
		C14.5,22.553,14.053,23,13.5,23z M8.5,19H15c1.654,0,3-1.346,3-3s-1.346-3-3-3H8.5V19z M8.5,11H14c1.654,0,3-1.346,3-3
		s-1.346-3-3-3H8.5V11z"/>
</g>
</svg>
