<?xml version="1.0" encoding="iso-8859-1"?>
<!-- Generator: Adobe Illustrator 27.4.0, SVG Export Plug-In . SVG Version: 6.00 Build 0)  -->
<svg version="1.1" id="Layer_1" xmlns="http://www.w3.org/2000/svg" xmlns:xlink="http://www.w3.org/1999/xlink" x="0px" y="0px"
	 viewBox="0 0 24 24" style="enable-background:new 0 0 24 24;" xml:space="preserve">
<g>
	<path d="M17.5,21.5h-11c-0.426,0-0.805-0.27-0.945-0.673c-0.14-0.402-0.009-0.849,0.326-1.112c0.026-0.021,2.569-2.083,3.043-5.215
		H6.5c-0.552,0-1-0.447-1-1c0-0.552,0.448-1,1-1h2.385c-0.169-0.701-0.504-1.273-0.875-1.907C7.49,9.706,6.901,8.7,6.884,7.318
		c0.001-2.082,0.953-3.63,2.681-4.371c2.071-0.887,5.02-0.408,6.576,1.071c0.4,0.38,0.417,1.014,0.036,1.414
		c-0.38,0.399-1.013,0.417-1.413,0.036c-0.882-0.838-2.954-1.307-4.41-0.683c-0.975,0.418-1.469,1.267-1.47,2.521
		c0.011,0.84,0.382,1.475,0.852,2.277c0.472,0.807,0.994,1.699,1.187,2.917H15c0.553,0,1,0.448,1,1c0,0.553-0.447,1-1,1h-4.057
		c-0.243,2.116-1.216,3.825-2.121,5H17.5c0.553,0,1,0.447,1,1S18.053,21.5,17.5,21.5z"/>
</g>
</svg>
