<?xml version="1.0" encoding="iso-8859-1"?>
<!-- Generator: Adobe Illustrator 27.4.0, SVG Export Plug-In . SVG Version: 6.00 Build 0)  -->
<svg version="1.1" id="Layer_1" xmlns="http://www.w3.org/2000/svg" xmlns:xlink="http://www.w3.org/1999/xlink" x="0px" y="0px"
	 viewBox="0 0 24 24" style="enable-background:new 0 0 24 24;" xml:space="preserve">
<g>
	<path d="M14.5,22c-0.246,0-0.492-0.09-0.686-0.271l-8.5-8c-0.298-0.281-0.395-0.716-0.244-1.097C5.222,12.25,5.59,12,6,12h3
		c2.297,0,3.539-1.388,3.893-3H6C5.448,9,5,8.552,5,8s0.448-1,1-1h6.893C12.539,5.388,11.297,4,9,4H6C5.448,4,5,3.552,5,3
		s0.448-1,1-1h12c0.553,0,1,0.448,1,1s-0.447,1-1,1h-4.42c0.722,0.854,1.172,1.906,1.343,3H18c0.553,0,1,0.448,1,1s-0.447,1-1,1
		h-3.075c-0.178,1.173-0.669,2.25-1.427,3.102C12.394,13.344,10.838,14,9,14H8.521l6.664,6.271c0.402,0.379,0.421,1.012,0.043,1.414
		C15.031,21.895,14.766,22,14.5,22z"/>
</g>
</svg>
