<?xml version="1.0" encoding="iso-8859-1"?>
<!-- Generator: Adobe Illustrator 27.4.0, SVG Export Plug-In . SVG Version: 6.00 Build 0)  -->
<svg version="1.1" id="Layer_1" xmlns="http://www.w3.org/2000/svg" xmlns:xlink="http://www.w3.org/1999/xlink" x="0px" y="0px"
	 viewBox="0 0 24 24" style="enable-background:new 0 0 24 24;" xml:space="preserve">
<g>
	<path d="M12,23C5.935,23,1,18.065,1,12S5.935,1,12,1s11,4.935,11,11S18.065,23,12,23z M12,3c-4.962,0-9,4.038-9,9
		c0,4.963,4.038,9,9,9c4.963,0,9-4.037,9-9C21,7.038,16.963,3,12,3z M13,19c-0.552,0-1-0.447-1-1v-0.5h-1V18c0,0.553-0.448,1-1,1
		s-1-0.447-1-1v-0.5H8c-0.552,0-1-0.447-1-1s0.448-1,1-1h0.5v-7H8c-0.552,0-1-0.448-1-1s0.448-1,1-1h1V6c0-0.552,0.448-1,1-1
		s1,0.448,1,1v0.5h1V6c0-0.552,0.448-1,1-1c0.553,0,1,0.448,1,1v0.509c1.676,0.128,3,1.533,3,3.241c0,0.75-0.256,1.442-0.685,1.993
		c0.724,0.597,1.185,1.5,1.185,2.507c0,1.792-1.458,3.25-3.25,3.25H14V18C14,18.553,13.553,19,13,19z M13,15.5h1.25
		c0.689,0,1.25-0.561,1.25-1.25S14.939,13,14.25,13H10.5v2.5H13z M10.5,11h3.25C14.439,11,15,10.439,15,9.75S14.439,8.5,13.75,8.5
		H10.5V11z"/>
</g>
</svg>
