<?xml version="1.0" encoding="iso-8859-1"?>
<!-- Generator: Adobe Illustrator 27.4.0, SVG Export Plug-In . SVG Version: 6.00 Build 0)  -->
<svg version="1.1" id="Layer_1" xmlns="http://www.w3.org/2000/svg" xmlns:xlink="http://www.w3.org/1999/xlink" x="0px" y="0px"
	 viewBox="0 0 24 24" style="enable-background:new 0 0 24 24;" xml:space="preserve">
<g>
	<path d="M12,23C5.935,23,1,18.065,1,12S5.935,1,12,1s11,4.935,11,11S18.065,23,12,23z M12,3c-4.962,0-9,4.038-9,9
		c0,4.963,4.038,9,9,9c4.963,0,9-4.037,9-9C21,7.038,16.963,3,12,3z M12,18c-2.417,0-4.504-1.437-5.454-3.5H6c-0.552,0-1-0.447-1-1
		c0-0.552,0.448-1,1-1h0.021C6.007,12.335,6,12.168,6,12s0.007-0.335,0.021-0.5H6c-0.552,0-1-0.448-1-1s0.448-1,1-1h0.546
		C7.496,7.437,9.583,6,12,6c1.479,0,2.898,0.542,4,1.528c0.411,0.368,0.446,1,0.078,1.412c-0.368,0.413-1,0.447-1.412,0.079
		C13.933,8.362,12.985,8,12,8c-1.26,0-2.387,0.586-3.121,1.5H11c0.552,0,1,0.448,1,1s-0.448,1-1,1H8.031C8.011,11.664,8,11.831,8,12
		s0.011,0.336,0.031,0.5H11c0.552,0,1,0.448,1,1c0,0.553-0.448,1-1,1H8.879C9.613,15.414,10.74,16,12,16
		c0.985,0,1.933-0.361,2.666-1.019c0.41-0.368,1.044-0.333,1.412,0.078s0.333,1.044-0.078,1.412C14.899,17.457,13.479,18,12,18z"/>
</g>
</svg>
