<?xml version="1.0" encoding="iso-8859-1"?>
<!-- Generator: Adobe Illustrator 27.4.0, SVG Export Plug-In . SVG Version: 6.00 Build 0)  -->
<svg version="1.1" id="Layer_1" xmlns="http://www.w3.org/2000/svg" xmlns:xlink="http://www.w3.org/1999/xlink" x="0px" y="0px"
	 viewBox="0 0 24 24" style="enable-background:new 0 0 24 24;" xml:space="preserve">
<g>
	<path d="M13.5,21.5c-4.19,0-7.756-2.728-9.015-6.5H3c-0.552,0-1-0.447-1-1s0.448-1,1-1h1.052C4.018,12.671,4,12.337,4,12
		s0.018-0.671,0.052-1H3c-0.552,0-1-0.448-1-1s0.448-1,1-1h1.485C5.744,5.227,9.31,2.5,13.5,2.5c2.251,0,4.435,0.802,6.147,2.257
		c0.421,0.357,0.473,0.989,0.114,1.41c-0.357,0.422-0.988,0.472-1.409,0.115C17,5.133,15.277,4.5,13.5,4.5
		c-3.069,0-5.714,1.854-6.874,4.5H13c0.553,0,1,0.448,1,1s-0.447,1-1,1H6.066C6.022,11.327,6,11.661,6,12s0.022,0.673,0.066,1H13
		c0.553,0,1,0.447,1,1s-0.447,1-1,1H6.626c1.159,2.646,3.804,4.5,6.874,4.5c1.777,0,3.5-0.633,4.853-1.781
		c0.423-0.357,1.053-0.305,1.41,0.115c0.357,0.421,0.306,1.052-0.115,1.41C17.934,20.698,15.751,21.5,13.5,21.5z"/>
</g>
</svg>
