<?xml version="1.0" encoding="iso-8859-1"?>
<!-- Generator: Adobe Illustrator 27.4.0, SVG Export Plug-In . SVG Version: 6.00 Build 0)  -->
<svg version="1.1" id="Layer_1" xmlns="http://www.w3.org/2000/svg" xmlns:xlink="http://www.w3.org/1999/xlink" x="0px" y="0px"
	 viewBox="0 0 24 24" style="enable-background:new 0 0 24 24;" xml:space="preserve">
<g>
	<path d="M12,23C5.935,23,1,18.065,1,12S5.935,1,12,1s11,4.935,11,11S18.065,23,12,23z M12,3c-4.962,0-9,4.038-9,9
		c0,4.963,4.038,9,9,9c4.963,0,9-4.037,9-9C21,7.038,16.963,3,12,3z M15,18.5H9c-0.394,0-0.75-0.23-0.912-0.59
		c-0.161-0.358-0.097-0.779,0.164-1.073c0.013-0.016,1.274-1.473,1.646-3.337H9c-0.552,0-1-0.447-1-1c0-0.552,0.448-1,1-1h0.726
		c-0.047-0.091-0.098-0.186-0.152-0.287c-0.296-0.549-0.666-1.231-0.678-2.239c0-1.479,0.71-2.625,1.947-3.157
		c1.457-0.624,3.538-0.284,4.639,0.761c0.4,0.38,0.417,1.013,0.037,1.414c-0.381,0.4-1.014,0.417-1.414,0.037
		c-0.473-0.447-1.681-0.714-2.473-0.374c-0.316,0.136-0.736,0.419-0.736,1.307c0.006,0.502,0.188,0.836,0.438,1.3
		c0.187,0.344,0.401,0.742,0.536,1.238H14c0.553,0,1,0.448,1,1c0,0.553-0.447,1-1,1h-2.074c-0.169,1.165-0.606,2.201-1.044,3H15
		c0.553,0,1,0.447,1,1S15.553,18.5,15,18.5z"/>
</g>
</svg>
