<?xml version="1.0" encoding="iso-8859-1"?>
<!-- Generator: Adobe Illustrator 27.4.0, SVG Export Plug-In . SVG Version: 6.00 Build 0)  -->
<svg version="1.1" id="Layer_1" xmlns="http://www.w3.org/2000/svg" xmlns:xlink="http://www.w3.org/1999/xlink" x="0px" y="0px"
	 viewBox="0 0 24 24" style="enable-background:new 0 0 24 24;" xml:space="preserve">
<g>
	<path d="M12,23c-0.278,0-0.543-0.116-0.733-0.319l-6.5-7c-0.299-0.322-0.353-0.802-0.133-1.182s0.66-0.569,1.091-0.474L12,15.474
		l6.275-1.448c0.431-0.096,0.87,0.094,1.09,0.474c0.221,0.38,0.166,0.859-0.133,1.182l-6.5,7C12.543,22.884,12.278,23,12,23z
		 M8.45,16.707L12,20.53l3.551-3.823l-3.326,0.768c-0.148,0.033-0.302,0.033-0.45,0L8.45,16.707z M12,14
		c-0.082,0-0.163-0.01-0.243-0.03l-7.979-1.995c-0.005-0.001-0.009-0.002-0.014-0.003c-0.081-0.019-0.159-0.049-0.234-0.089
		c-0.086-0.046-0.165-0.104-0.233-0.171c-0.06-0.059-0.112-0.126-0.156-0.2C3.1,11.443,3.067,11.37,3.044,11.294
		C3.015,11.2,3,11.101,3,11c0-0.081,0.009-0.16,0.028-0.237c0.019-0.08,0.048-0.158,0.088-0.232c0.041-0.077,0.091-0.147,0.149-0.21
		l7.978-8.974c0.016-0.019,0.033-0.037,0.05-0.054c0.082-0.081,0.173-0.146,0.272-0.193c0.025-0.012,0.051-0.023,0.077-0.034h0
		c0,0,0,0,0.001,0c0.082-0.031,0.169-0.052,0.26-0.061l0,0c0,0,0.001,0,0.001,0C11.937,1.001,11.992,1.003,12,1
		c-0.013,0.004,0.067,0.001,0.101,0.005c0,0,0.001,0,0.002,0c0,0,0,0,0,0c0.081,0.008,0.159,0.026,0.233,0.052
		c0.033,0.012,0.065,0.025,0.097,0.041c0.1,0.047,0.193,0.113,0.274,0.195c0.018,0.017,0.034,0.035,0.05,0.054l7.977,8.974
		c0.059,0.063,0.109,0.135,0.151,0.214c0.038,0.073,0.067,0.15,0.086,0.229C20.99,10.84,21,10.919,21,11
		c0,0.101-0.015,0.2-0.044,0.294c-0.024,0.079-0.059,0.156-0.103,0.228c-0.041,0.067-0.09,0.129-0.145,0.184
		c-0.07,0.071-0.152,0.131-0.242,0.179c-0.074,0.039-0.151,0.068-0.229,0.087c-0.005,0.001-0.01,0.002-0.015,0.003l-7.98,1.995
		C12.163,13.99,12.082,14,12,14z M8.123,11L12,11.969L15.877,11L12,10.031L8.123,11z M13,8.219l4.102,1.025L13,4.63V8.219z M11,4.63
		L6.898,9.245L11,8.219V4.63z"/>
</g>
</svg>
