<?xml version="1.0" encoding="iso-8859-1"?>
<!-- Generator: Adobe Illustrator 27.4.0, SVG Export Plug-In . SVG Version: 6.00 Build 0)  -->
<svg version="1.1" id="Layer_1" xmlns="http://www.w3.org/2000/svg" xmlns:xlink="http://www.w3.org/1999/xlink" x="0px" y="0px"
	 viewBox="0 0 24 24" style="enable-background:new 0 0 24 24;" xml:space="preserve">
<g>
	<path d="M21.2,23h-3.4c-0.355,0-0.662,0-0.983-0.165c-0.281-0.142-0.51-0.37-0.654-0.657C16,21.862,16,21.556,16,21.2v-3.4
		c0-0.355,0-0.662,0.165-0.983c0.142-0.281,0.37-0.51,0.657-0.654C17.138,16,17.444,16,17.8,16h3.4c0.355,0,0.662,0,0.983,0.165
		c0.281,0.142,0.51,0.37,0.654,0.657C23,17.138,23,17.444,23,17.8v3.4c0,0.355,0,0.662-0.165,0.983
		c-0.142,0.281-0.37,0.51-0.657,0.654C21.862,23,21.556,23,21.2,23z M18,21h3v-3h-3V21z M13,20.5H5.7c-1.238,0-1.92,0-2.562-0.326
		c-0.57-0.292-1.022-0.744-1.312-1.311C1.5,18.221,1.5,17.538,1.5,16.3V15c0-1.029,0-1.596,0.229-2.148
		c0.307-0.742,0.884-1.318,1.625-1.624C3.903,11,4.47,11,5.5,11c0.552,0,1,0.448,1,1s-0.448,1-1,1c-0.722,0-1.199,0-1.382,0.076
		c-0.244,0.101-0.441,0.298-0.542,0.541C3.5,13.801,3.5,14.278,3.5,15v1.3c0,0.867,0,1.44,0.109,1.654
		c0.096,0.188,0.248,0.341,0.438,0.438C4.26,18.5,4.833,18.5,5.7,18.5H13c0.553,0,1,0.447,1,1S13.553,20.5,13,20.5z M13.7,15.5h-3.4
		c-0.354,0-0.661,0-0.982-0.164c-0.283-0.145-0.511-0.372-0.655-0.658C8.5,14.362,8.5,14.056,8.5,13.7v-3.4
		c0-0.354,0-0.661,0.165-0.982c0.143-0.282,0.371-0.51,0.656-0.654C9.639,8.5,9.945,8.5,10.3,8.5h3.4c0.355,0,0.662,0,0.983,0.165
		c0.28,0.142,0.508,0.369,0.653,0.655C15.5,9.639,15.5,9.945,15.5,10.3v3.4c0,0.355,0,0.662-0.165,0.983
		c-0.142,0.281-0.37,0.51-0.657,0.654C14.362,15.5,14.056,15.5,13.7,15.5z M10.5,13.5h3v-3h-3V13.5z M18.5,13c-0.553,0-1-0.448-1-1
		s0.447-1,1-1c0.722,0,1.199,0,1.383-0.076c0.247-0.102,0.438-0.294,0.541-0.542C20.5,10.199,20.5,9.722,20.5,9V7.7
		c0-0.868,0-1.44-0.109-1.655c-0.096-0.188-0.248-0.34-0.438-0.437C19.74,5.5,19.167,5.5,18.3,5.5H11c-0.552,0-1-0.448-1-1
		s0.448-1,1-1h7.3c1.238,0,1.921,0,2.562,0.327c0.567,0.29,1.02,0.742,1.311,1.31C22.5,5.78,22.5,6.462,22.5,7.7V9
		c0,1.03,0,1.597-0.229,2.148c-0.308,0.741-0.884,1.317-1.624,1.624C20.096,13,19.529,13,18.5,13z M6.2,8H2.8
		C2.445,8,2.139,8,1.817,7.835C1.535,7.692,1.308,7.465,1.163,7.18C1,6.861,1,6.555,1,6.2V2.8c0-0.354,0-0.661,0.165-0.982
		c0.143-0.282,0.371-0.51,0.656-0.654C2.139,1,2.445,1,2.8,1h3.4c0.354,0,0.661,0,0.982,0.165c0.282,0.143,0.51,0.371,0.654,0.656
		C8,2.139,8,2.445,8,2.8v3.4c0,0.354,0,0.661-0.165,0.982C7.692,7.465,7.465,7.692,7.18,7.837C6.861,8,6.555,8,6.2,8z M3,6h3V3H3V6z
		"/>
</g>
</svg>
