<?xml version="1.0" encoding="iso-8859-1"?>
<!-- Generator: Adobe Illustrator 27.4.0, SVG Export Plug-In . SVG Version: 6.00 Build 0)  -->
<svg version="1.1" id="Layer_1" xmlns="http://www.w3.org/2000/svg" xmlns:xlink="http://www.w3.org/1999/xlink" x="0px" y="0px"
	 viewBox="0 0 24 24" style="enable-background:new 0 0 24 24;" xml:space="preserve">
<g>
	<path d="M19,23c-1.304,0-2.416-0.836-2.829-2.001c-1.431-0.006-2.234-0.052-2.987-0.435c-0.757-0.386-1.361-0.99-1.748-1.748
		C11,17.96,11,17.037,11,15.2V13H7.829C7.416,14.164,6.304,15,5,15c-1.654,0-3-1.346-3-3s1.346-3,3-3c1.304,0,2.416,0.836,2.829,2
		H11V8.8c0-1.838,0-2.76,0.436-3.616c0.386-0.758,0.991-1.362,1.748-1.748c0.753-0.383,1.557-0.43,2.987-0.435
		C16.584,1.836,17.696,1,19,1c1.654,0,3,1.346,3,3s-1.346,3-3,3c-1.304,0-2.415-0.835-2.828-1.999
		c-1.08,0.004-1.717,0.032-2.08,0.217c-0.379,0.193-0.681,0.495-0.874,0.874C13,6.52,13,7.33,13,8.8V11h3.171
		C16.584,9.836,17.696,9,19,9c1.654,0,3,1.346,3,3s-1.346,3-3,3c-1.304,0-2.416-0.836-2.829-2H13v2.2c0,1.47,0,2.279,0.219,2.708
		c0.192,0.379,0.494,0.681,0.872,0.873c0.364,0.186,1.001,0.214,2.081,0.218C16.585,17.836,17.696,17,19,17c1.654,0,3,1.346,3,3
		S20.654,23,19,23z M19,19c-0.552,0-1,0.448-1,1s0.448,1,1,1s1-0.448,1-1S19.552,19,19,19z M19,11c-0.552,0-1,0.449-1,1s0.448,1,1,1
		s1-0.449,1-1S19.552,11,19,11z M5,11c-0.551,0-1,0.449-1,1s0.449,1,1,1s1-0.449,1-1S5.551,11,5,11z M19,3c-0.552,0-1,0.449-1,1
		s0.448,1,1,1s1-0.449,1-1S19.552,3,19,3z"/>
</g>
</svg>
