<?xml version="1.0" encoding="iso-8859-1"?>
<!-- Generator: Adobe Illustrator 27.4.0, SVG Export Plug-In . SVG Version: 6.00 Build 0)  -->
<svg version="1.1" id="Layer_1" xmlns="http://www.w3.org/2000/svg" xmlns:xlink="http://www.w3.org/1999/xlink" x="0px" y="0px"
	 viewBox="0 0 24 24" style="enable-background:new 0 0 24 24;" xml:space="preserve">
<g>
	<path d="M12,23c-4.816,0-10-1.252-10-4V5c0,0,0-0.001,0-0.002C2.002,2.251,7.185,1,12,1c4.815,0,9.997,1.251,10,3.998
		C22,4.999,22,5,22,5v14C22,21.748,16.816,23,12,23z M4,16.969V19c0,0.466,2.494,2,8,2c5.506,0,8-1.534,8-2v-2.031
		c-1.949,1-5.044,1.472-8,1.472S5.949,17.969,4,16.969z M4,14.44c0,0.466,2.494,2,8,2c5.506,0,8-1.534,8-2v-2.191
		c-1.949,1-5.044,1.471-8,1.471s-6.051-0.471-8-1.471V14.44z M4,9.72c0,0.466,2.494,2,8,2c5.506,0,8-1.534,8-2V7.529
		C18.051,8.528,14.956,9,12,9S5.949,8.528,4,7.529V9.72z M4,5c0,0.514,2.75,2,8,2c5.249,0,8-1.486,8-2s-2.751-2-8-2
		C6.75,3,4,4.486,4,5z"/>
</g>
</svg>
