<?xml version="1.0" encoding="iso-8859-1"?>
<!-- Generator: Adobe Illustrator 27.4.0, SVG Export Plug-In . SVG Version: 6.00 Build 0)  -->
<svg version="1.1" id="Layer_1" xmlns="http://www.w3.org/2000/svg" xmlns:xlink="http://www.w3.org/1999/xlink" x="0px" y="0px"
	 viewBox="0 0 24 24" style="enable-background:new 0 0 24 24;" xml:space="preserve">
<g>
	<path d="M20,23c-1.654,0-3-1.346-3-3c0-1.304,0.836-2.415,1.999-2.828c-0.004-1.08-0.032-1.717-0.218-2.08
		c-0.192-0.379-0.494-0.681-0.872-0.873C17.479,14,16.67,14,15.2,14H13v3.171c1.164,0.413,2,1.525,2,2.829c0,1.654-1.346,3-3,3
		s-3-1.346-3-3c0-1.304,0.836-2.416,2-2.829V14H8.8c-1.47,0-2.28,0-2.708,0.218c-0.379,0.193-0.681,0.495-0.874,0.874
		c-0.185,0.363-0.213,1-0.217,2.08C6.165,17.585,7,18.696,7,20c0,1.654-1.346,3-3,3s-3-1.346-3-3c0-1.304,0.836-2.416,2.001-2.829
		c0.005-1.431,0.052-2.234,0.435-2.987c0.386-0.758,0.991-1.362,1.749-1.748C6.04,12,6.962,12,8.8,12H11V9H6
		C4.97,9,4.403,9,3.852,8.771c-0.74-0.307-1.316-0.883-1.623-1.624C2,6.597,2,6.03,2,5s0-1.597,0.229-2.148
		c0.307-0.74,0.883-1.316,1.624-1.623C4.403,1,4.97,1,6,1h12c1.029,0,1.596,0,2.148,0.229c0.74,0.307,1.316,0.883,1.623,1.624
		C22,3.403,22,3.97,22,5s0,1.597-0.229,2.148c-0.307,0.74-0.883,1.316-1.623,1.623C19.596,9,19.029,9,18,9h-5v3h2.2
		c1.837,0,2.76,0,3.616,0.436c0.758,0.385,1.362,0.99,1.748,1.749c0.383,0.752,0.429,1.556,0.435,2.986
		C22.164,17.584,23,18.696,23,20C23,21.654,21.654,23,20,23z M20,19c-0.552,0-1,0.448-1,1s0.448,1,1,1s1-0.448,1-1S20.552,19,20,19z
		 M12,19c-0.551,0-1,0.448-1,1s0.449,1,1,1s1-0.448,1-1S12.551,19,12,19z M4,19c-0.551,0-1,0.448-1,1s0.449,1,1,1s1-0.448,1-1
		S4.551,19,4,19z M6,3C5.278,3,4.801,3,4.618,3.076C4.371,3.179,4.179,3.371,4.076,3.618C4,3.801,4,4.278,4,5s0,1.199,0.076,1.382
		c0.103,0.248,0.294,0.439,0.542,0.542C4.801,7,5.278,7,6,7h12c0.722,0,1.199,0,1.383-0.076c0.246-0.102,0.438-0.294,0.541-0.542
		C20,6.199,20,5.722,20,5s0-1.199-0.076-1.382c-0.103-0.248-0.295-0.44-0.541-0.542C19.199,3,18.722,3,18,3H6z"/>
</g>
</svg>
