<?xml version="1.0" encoding="iso-8859-1"?>
<!-- Generator: Adobe Illustrator 27.4.0, SVG Export Plug-In . SVG Version: 6.00 Build 0)  -->
<svg version="1.1" id="Layer_1" xmlns="http://www.w3.org/2000/svg" xmlns:xlink="http://www.w3.org/1999/xlink" x="0px" y="0px"
	 viewBox="0 0 24 24" style="enable-background:new 0 0 24 24;" xml:space="preserve">
<g>
	<path d="M12,23c-1.304,0-2.416-0.836-2.829-2H3c-0.552,0-1-0.447-1-1s0.448-1,1-1h6.171c0.302-0.852,0.978-1.527,1.829-1.829
		v-2.188C6.493,14.82,2,13.559,2,11V5c0,0,0-0.001,0-0.002C2.002,2.251,7.185,1,12,1c4.815,0,9.997,1.251,10,3.998
		C22,4.999,22,5,22,5v6c0,2.559-4.493,3.82-9,3.982v2.188c0.852,0.302,1.527,0.978,1.829,1.829H21c0.553,0,1,0.447,1,1s-0.447,1-1,1
		h-6.171C14.416,22.164,13.304,23,12,23z M11,20c0,0.552,0.449,1,1,1s1-0.448,1-1s-0.449-1-1-1S11,19.448,11,20z M4,7.529V11
		c0,0.466,2.494,2,8,2c5.506,0,8-1.534,8-2V7.529C18.051,8.528,14.956,9,12,9S5.949,8.528,4,7.529z M4,5c0,0.514,2.75,2,8,2
		c5.249,0,8-1.486,8-2s-2.751-2-8-2C6.75,3,4,4.486,4,5z"/>
</g>
</svg>
