<?xml version="1.0" encoding="iso-8859-1"?>
<!-- Generator: Adobe Illustrator 27.4.0, SVG Export Plug-In . SVG Version: 6.00 Build 0)  -->
<svg version="1.1" id="Layer_1" xmlns="http://www.w3.org/2000/svg" xmlns:xlink="http://www.w3.org/1999/xlink" x="0px" y="0px"
	 viewBox="0 0 24 24" style="enable-background:new 0 0 24 24;" xml:space="preserve">
<g>
	<path d="M21.2,23H10.8c-0.354,0-0.661,0-0.982-0.164c-0.283-0.145-0.511-0.372-0.655-0.658C9,21.862,9,21.556,9,21.2v-2.4
		c0-0.355,0-0.662,0.165-0.983c0.142-0.28,0.369-0.508,0.655-0.653C10.139,17,10.445,17,10.8,17H13v-2.2
		c0-0.355,0-0.662,0.165-0.983c0.142-0.281,0.37-0.51,0.657-0.654C14.138,13,14.444,13,14.8,13H17v-2.2c0-0.354,0-0.661,0.164-0.982
		c0.145-0.283,0.372-0.511,0.658-0.655C18.138,9,18.444,9,18.8,9h2.4c0.355,0,0.662,0,0.983,0.165
		c0.28,0.142,0.508,0.369,0.653,0.655C23,10.139,23,10.445,23,10.8v10.4c0,0.355,0,0.662-0.165,0.983
		c-0.142,0.281-0.37,0.51-0.657,0.654C21.862,23,21.556,23,21.2,23z M11,21h10V11h-2v2.2c0,0.355,0,0.662-0.165,0.983
		c-0.142,0.281-0.37,0.51-0.657,0.654C17.862,15,17.556,15,17.2,15H15v2.2c0,0.355,0,0.662-0.165,0.983
		c-0.142,0.281-0.37,0.51-0.657,0.654C13.862,19,13.556,19,13.2,19H11V21z"/>
</g>
<g>
	<path d="M13.2,11h-2.4c-0.354,0-0.661,0-0.982-0.165c-0.282-0.143-0.51-0.371-0.654-0.656C9,9.861,9,9.555,9,9.2V6.8
		c0-0.354,0-0.661,0.165-0.982c0.143-0.282,0.371-0.51,0.656-0.654C10.139,5,10.445,5,10.8,5h2.4c0.355,0,0.662,0,0.983,0.165
		c0.28,0.142,0.508,0.369,0.653,0.655C15,6.139,15,6.445,15,6.8v2.4c0,0.354,0,0.661-0.164,0.982
		c-0.145,0.283-0.372,0.511-0.658,0.655C13.862,11,13.556,11,13.2,11z M11.004,9.449h0.01H11.004z M11,9h2V7h-2V9z"/>
</g>
<g>
	<path d="M6.2,17H3.8c-0.354,0-0.661,0-0.982-0.164c-0.283-0.145-0.511-0.372-0.655-0.658C2,15.862,2,15.556,2,15.2v-2.4
		c0-0.354,0-0.661,0.165-0.982c0.143-0.282,0.371-0.51,0.656-0.654C3.139,11,3.445,11,3.8,11h2.4c0.354,0,0.661,0,0.982,0.165
		c0.282,0.143,0.51,0.371,0.654,0.656C8,12.139,8,12.445,8,12.8v2.4c0,0.355,0,0.662-0.165,0.983
		c-0.142,0.28-0.369,0.508-0.655,0.653C6.861,17,6.555,17,6.2,17z M4.004,15.449h0.01H4.004z M4,15h2v-2H4V15z"/>
</g>
<g>
	<path d="M5.2,7H2.8C2.445,7,2.139,7,1.817,6.835C1.535,6.692,1.308,6.465,1.163,6.18C1,5.861,1,5.555,1,5.2V2.8
		c0-0.354,0-0.661,0.165-0.982c0.143-0.282,0.371-0.51,0.656-0.654C2.139,1,2.445,1,2.8,1h2.4c0.354,0,0.661,0,0.982,0.165
		c0.282,0.143,0.51,0.371,0.654,0.656C7,2.139,7,2.445,7,2.8v2.4c0,0.354,0,0.661-0.165,0.982C6.692,6.465,6.465,6.692,6.18,6.837
		C5.861,7,5.555,7,5.2,7z M3.004,5.449h0.01H3.004z M3,5h2V3H3V5z"/>
</g>
</svg>
