<?xml version="1.0" encoding="iso-8859-1"?>
<!-- Generator: Adobe Illustrator 27.4.0, SVG Export Plug-In . SVG Version: 6.00 Build 0)  -->
<svg version="1.1" id="Layer_1" xmlns="http://www.w3.org/2000/svg" xmlns:xlink="http://www.w3.org/1999/xlink" x="0px" y="0px"
	 viewBox="0 0 24 24" style="enable-background:new 0 0 24 24;" xml:space="preserve">
<g>
	<path d="M17.2,21H9.6c-0.658,0-1.02,0-1.425-0.116c-0.356-0.101-0.69-0.268-0.99-0.495c-0.334-0.253-0.564-0.56-0.946-1.069
		L1.92,13.56l0.8-0.6l-0.8,0.6c-0.304-0.405-0.504-0.672-0.604-1.05c-0.087-0.334-0.087-0.685-0.001-1.016
		c0.101-0.38,0.301-0.648,0.605-1.053L6.24,4.68C6.635,4.153,6.852,3.864,7.187,3.61c0.297-0.226,0.63-0.392,0.988-0.495
		C8.581,3,8.943,3,9.6,3h7.6c1.837,0,2.76,0,3.616,0.436c0.758,0.386,1.362,0.991,1.748,1.749C23,6.04,23,6.962,23,8.8v6.4
		c0,1.837,0,2.76-0.436,3.616c-0.386,0.758-0.99,1.362-1.749,1.748C19.96,21,19.037,21,17.2,21z M9.6,5C9.138,5,8.86,5,8.724,5.039
		C8.606,5.072,8.495,5.128,8.395,5.204C8.284,5.288,8.117,5.51,7.841,5.879L3.52,11.64c-0.138,0.185-0.233,0.295-0.283,0.398
		c0.05,0.027,0.145,0.137,0.283,0.321c0,0,0,0.001,0,0.001l4.32,5.76c0.277,0.368,0.443,0.591,0.555,0.676
		c0.101,0.076,0.211,0.132,0.328,0.165C8.86,19,9.139,19,9.6,19h7.6c1.47,0,2.279,0,2.708-0.219
		c0.379-0.192,0.681-0.494,0.873-0.872C21,17.479,21,16.67,21,15.2V8.8c0-1.47,0-2.28-0.218-2.708
		c-0.193-0.379-0.495-0.681-0.874-0.874C19.479,5,18.67,5,17.2,5H9.6z M17,16c-0.256,0-0.512-0.098-0.707-0.293L14,13.414
		l-2.293,2.293c-0.391,0.391-1.023,0.391-1.414,0s-0.391-1.023,0-1.414L12.586,12l-2.293-2.293c-0.391-0.391-0.391-1.023,0-1.414
		s1.023-0.391,1.414,0L14,10.586l2.293-2.293c0.391-0.391,1.023-0.391,1.414,0s0.391,1.023,0,1.414L15.414,12l2.293,2.293
		c0.391,0.391,0.391,1.023,0,1.414C17.512,15.902,17.256,16,17,16z"/>
</g>
</svg>
