<svg width="17" height="18" viewBox="0 0 17 18" fill="none" xmlns="http://www.w3.org/2000/svg">
<path fill-rule="evenodd" clip-rule="evenodd" d="M6.6309 1.02725C5.53603 1.58521 4.64028 2.05736 4.64047 2.07656C4.64095 2.12613 7.26818 3.42779 7.36143 3.42461C7.40385 3.42322 7.71156 3.28465 8.0452 3.11671L8.65192 2.81142L9.31453 3.14462L9.97711 3.47789L11.0622 3.00089C12.6972 2.28212 12.867 2.20336 12.8404 2.17689C12.8051 2.14178 12.2187 1.83357 10.6276 1.0141C9.85863 0.618042 9.1123 0.229718 8.96902 0.15114C8.82577 0.0725632 8.68899 0.00935299 8.6651 0.0105766C8.64121 0.0118001 7.72579 0.469307 6.6309 1.02725ZM1.82881 3.45997L0.689068 4.03591V6.56362C0.689068 7.95387 0.704034 9.0913 0.722392 9.0913C0.740686 9.0913 1.30144 8.85349 1.96849 8.56285L3.1813 8.0344V5.37003L3.77397 5.68591C4.23066 5.92911 4.68763 6.17181 5.14488 6.41401L5.92311 6.82623L6.2694 6.67303C6.48659 6.5768 6.70333 6.47964 6.91964 6.38154C7.08679 6.30538 7.4971 6.12459 7.83142 5.97969C8.16574 5.83473 8.47521 5.68896 8.51909 5.65574C8.57739 5.61161 7.86657 5.22733 5.88998 4.23434C4.40006 3.48583 3.13323 2.87579 3.0748 2.87872C3.01638 2.88164 2.45569 3.14317 1.82881 3.45997ZM13.0458 3.62171C12.2696 3.96453 11.6339 4.25873 11.6332 4.2755C11.6325 4.29226 12.0556 4.53836 12.5734 4.82231C13.0912 5.10632 13.5149 5.35387 13.5149 5.37251C13.5149 5.39112 13.0567 5.60831 12.4968 5.85526C11.9367 6.10215 10.5212 6.72753 9.35108 7.24501L5.43038 8.97877C4.44413 9.41494 3.55514 9.80808 3.45485 9.85252C1.44038 10.7447 0.886678 10.9922 0.81064 11.0347C0.734178 11.0775 0.716859 11.326 0.70325 12.5735L0.687012 14.0613L1.70622 14.5694L2.72541 15.0774L4.13868 14.4534C4.916 14.1103 5.55195 13.8115 5.55195 13.7895C5.55195 13.7676 5.40831 13.676 5.23283 13.586C5.05727 13.4959 4.69486 13.2966 4.4274 13.1429C4.15997 12.9892 3.89329 12.8482 3.83474 12.8295C3.77621 12.8109 3.72917 12.7783 3.73013 12.757C3.7311 12.7358 4.35344 12.4466 5.11302 12.1143C6.58835 11.469 7.71739 10.9716 10.1413 9.89926C11.2252 9.41985 12.3092 8.94072 13.3933 8.46189C14.3462 8.04116 15.454 7.54976 15.8552 7.36992L16.5846 7.04294L16.6008 5.53815L16.6171 4.03343L15.5834 3.51435C15.0148 3.22888 14.5288 2.99601 14.5033 2.99687C14.4779 2.99765 13.822 3.2788 13.0458 3.62171ZM16.3076 9.0504C16.1553 9.12319 15.8544 9.25949 15.639 9.35324C15.4236 9.447 15.0148 9.62745 14.7306 9.7543L14.2139 9.98485L14.2022 11.3059C14.1956 12.0325 14.1683 12.6237 14.1414 12.6199C14.0802 12.611 13.1118 12.1251 12.1384 11.6149C11.4358 11.2466 11.3917 11.232 11.2266 11.312C11.1312 11.3582 10.5607 11.6085 9.95894 11.8683C9.35714 12.128 8.84516 12.3574 8.82108 12.3782C8.79706 12.3989 10.0082 13.0411 11.5126 13.8054L14.2478 15.1949L15.4162 14.6036C16.0588 14.2784 16.6052 13.9818 16.6304 13.9445C16.687 13.8606 16.6822 8.90654 16.6255 8.91324C16.603 8.91587 16.46 8.97761 16.3076 9.0504ZM9.83737 14.8652C9.63469 14.9505 9.43207 15.0358 9.22951 15.1213C8.61781 15.3802 8.73769 15.3888 8.00995 15.0344C7.52525 14.7983 7.31632 14.7255 7.22564 14.7609C7.15761 14.7874 6.57218 15.045 5.92457 15.3335C5.27701 15.6219 4.72471 15.8578 4.69724 15.8578C4.42554 15.8578 4.87723 16.1218 6.62021 16.982L8.66432 17.9906L9.52437 17.5752C9.99741 17.3468 10.9515 16.8893 11.6446 16.5586C12.3377 16.2278 12.8962 15.9486 12.8858 15.9381C12.8752 15.9276 12.2945 15.6358 11.5952 15.2897L10.3237 14.6606L9.83737 14.8652Z" fill="#181818"/>
</svg>
