<?xml version="1.0" encoding="iso-8859-1"?>
<!-- Generator: Adobe Illustrator 27.4.0, SVG Export Plug-In . SVG Version: 6.00 Build 0)  -->
<svg version="1.1" id="Layer_1" xmlns="http://www.w3.org/2000/svg" xmlns:xlink="http://www.w3.org/1999/xlink" x="0px" y="0px"
	 viewBox="0 0 24 24" style="enable-background:new 0 0 24 24;" xml:space="preserve">
<g>
	<path d="M12,21.72c-0.176,0-0.353-0.031-0.521-0.094c-0.372-0.135-0.586-0.392-0.857-0.717L1.658,10.152
		C1.464,9.92,1.296,9.719,1.208,9.415C1.131,9.142,1.131,8.858,1.207,8.591c0.089-0.31,0.257-0.511,0.451-0.744l4.333-5.199
		c0.11-0.133,0.216-0.261,0.381-0.376c0.143-0.101,0.303-0.175,0.473-0.221C7.035,2,7.192,2,7.374,2h2.602c0.016,0,0.03,0,0.046,0
		h3.954c0.014,0,0.03,0,0.046,0h2.603c0.181,0,0.336,0,0.526,0.05c0.172,0.046,0.332,0.121,0.478,0.223
		c0.159,0.11,0.266,0.238,0.378,0.374l4.334,5.201c0.195,0.234,0.365,0.437,0.451,0.747c0.077,0.261,0.077,0.551-0.003,0.825
		c-0.083,0.296-0.253,0.5-0.45,0.735l-8.956,10.75c0,0,0,0-0.001,0c-0.273,0.328-0.489,0.587-0.868,0.725
		C12.349,21.688,12.175,21.72,12,21.72z M9.406,10L12,17.456L14.593,10H9.406z M16.71,10l-2.26,6.497L19.864,10H16.71z M4.134,10
		l5.414,6.497L7.289,10H4.134z M16.72,8h3.145l-3.333-4h-1.145L16.72,8z M9.387,8h5.225l-1.333-4H10.72L9.387,8z M4.135,8h3.144
		l1.333-4H7.468L4.135,8z"/>
</g>
</svg>
