<?xml version="1.0" encoding="iso-8859-1"?>
<!-- Generator: Adobe Illustrator 27.4.0, SVG Export Plug-In . SVG Version: 6.00 Build 0)  -->
<svg version="1.1" id="Layer_1" xmlns="http://www.w3.org/2000/svg" xmlns:xlink="http://www.w3.org/1999/xlink" x="0px" y="0px"
	 viewBox="0 0 24 24" style="enable-background:new 0 0 24 24;" xml:space="preserve">
<g>
	<path d="M19,23H5c-0.552,0-1-0.447-1-1s0.448-1,1-1h14c0.553,0,1,0.447,1,1S19.553,23,19,23z M11.999,19.756
		c-0.165,0-0.329-0.026-0.485-0.08c-0.365-0.127-0.575-0.356-0.84-0.648L1.729,9.188C1.517,8.955,1.333,8.753,1.234,8.441
		c-0.088-0.275-0.095-0.57-0.018-0.851C1.3,7.278,1.475,7.069,1.676,6.827l4.316-5.179c0.116-0.139,0.22-0.264,0.385-0.378
		c0.14-0.098,0.299-0.173,0.469-0.219C7.037,1,7.194,1,7.375,1h2.602c0.016,0,0.03,0,0.046,0h3.954c0.014,0,0.03,0,0.046,0h2.603
		c0.181,0,0.336,0,0.526,0.05c0.175,0.048,0.333,0.122,0.478,0.223c0.159,0.11,0.266,0.238,0.378,0.374l4.315,5.178
		c0.203,0.245,0.378,0.454,0.463,0.771c0.074,0.271,0.069,0.562-0.017,0.838c-0.102,0.319-0.285,0.521-0.497,0.754l-8.94,9.833
		l-0.342-0.311l0.342,0.311l-0.342-0.311l-0.001,0.002l0.34,0.312c-0.266,0.292-0.476,0.523-0.836,0.648
		C12.333,19.729,12.165,19.756,11.999,19.756z M12.592,18.349h0.01H12.592z M9.452,9L12,15.69L14.549,9H9.452z M4.261,9l5.25,5.775
		L7.312,9H4.261z M16.689,9l-2.2,5.775L19.74,9H16.689z M16.721,7h3.145l-3.333-4h-1.145L16.721,7z M9.388,7h5.225l-1.333-4h-2.558
		L9.388,7z M4.135,7H7.28l1.333-4H7.469L4.135,7z"/>
</g>
</svg>
