<?xml version="1.0" encoding="iso-8859-1"?>
<!-- Generator: Adobe Illustrator 27.4.0, SVG Export Plug-In . SVG Version: 6.00 Build 0)  -->
<svg version="1.1" id="Layer_1" xmlns="http://www.w3.org/2000/svg" xmlns:xlink="http://www.w3.org/1999/xlink" x="0px" y="0px"
	 viewBox="0 0 24 24" style="enable-background:new 0 0 24 24;" xml:space="preserve">
<g>
	<path d="M12,23C5.935,23,1,18.065,1,12S5.935,1,12,1s11,4.935,11,11S18.065,23,12,23z M12,3c-4.962,0-9,4.038-9,9
		c0,4.963,4.038,9,9,9c4.963,0,9-4.037,9-9C21,7.038,16.963,3,12,3z M8.392,19c-0.176,0-0.354-0.046-0.515-0.144
		C5.485,17.416,4,14.789,4,12c0-0.552,0.448-1,1-1s1,0.448,1,1c0,2.124,1.087,4.047,2.909,5.144c0.473,0.285,0.625,0.899,0.34,1.372
		C9.062,18.827,8.731,19,8.392,19z M12,16c-2.206,0-4-1.794-4-4c0-2.206,1.794-4,4-4c2.206,0,4,1.794,4,4C16,14.206,14.206,16,12,16
		z M12,10c-1.103,0-2,0.897-2,2c0,1.103,0.897,2,2,2c1.103,0,2-0.897,2-2C14,10.897,13.103,10,12,10z M19,13c-0.553,0-1-0.448-1-1
		c0-2.305-1.346-4.434-3.429-5.423c-0.499-0.237-0.712-0.833-0.475-1.332c0.236-0.5,0.833-0.713,1.332-0.475
		C18.206,6.089,20,8.927,20,12C20,12.552,19.553,13,19,13z"/>
</g>
</svg>
