<?xml version="1.0" encoding="iso-8859-1"?>
<!-- Generator: Adobe Illustrator 27.4.0, SVG Export Plug-In . SVG Version: 6.00 Build 0)  -->
<svg version="1.1" id="Layer_1" xmlns="http://www.w3.org/2000/svg" xmlns:xlink="http://www.w3.org/1999/xlink" x="0px" y="0px"
	 viewBox="0 0 24 24" style="enable-background:new 0 0 24 24;" xml:space="preserve">
<g>
	<path d="M21,22H3c-0.552,0-1-0.447-1-1s0.448-1,1-1h18c0.553,0,1,0.447,1,1S21.553,22,21,22z M16,16H8c-1.03,0-1.597,0-2.148-0.229
		c-0.74-0.307-1.316-0.883-1.623-1.623C4,13.596,4,13.029,4,12c0-1.03,0-1.597,0.229-2.148c0.307-0.74,0.883-1.316,1.624-1.623
		C6.403,8,6.97,8,8,8h8c1.029,0,1.596,0,2.148,0.229c0.739,0.307,1.316,0.883,1.623,1.623C20,10.403,20,10.97,20,12
		c0,1.029,0,1.596-0.229,2.148c-0.307,0.74-0.883,1.316-1.623,1.623C17.596,16,17.029,16,16,16z M8,10c-0.722,0-1.199,0-1.382,0.076
		c-0.248,0.103-0.44,0.294-0.542,0.542C6,10.801,6,11.278,6,12c0,0.722,0,1.199,0.076,1.383c0.102,0.246,0.294,0.438,0.542,0.541
		C6.801,14,7.278,14,8,14h8c0.722,0,1.199,0,1.383-0.076c0.247-0.103,0.438-0.294,0.541-0.541C18,13.199,18,12.722,18,12
		c0-0.722,0-1.199-0.076-1.383c-0.103-0.247-0.295-0.439-0.541-0.541C17.199,10,16.722,10,16,10H8z M21,4H3C2.448,4,2,3.552,2,3
		s0.448-1,1-1h18c0.553,0,1,0.448,1,1S21.553,4,21,4z"/>
</g>
</svg>
