<?xml version="1.0" encoding="iso-8859-1"?>
<!-- Generator: Adobe Illustrator 27.4.0, SVG Export Plug-In . SVG Version: 6.00 Build 0)  -->
<svg version="1.1" id="Layer_1" xmlns="http://www.w3.org/2000/svg" xmlns:xlink="http://www.w3.org/1999/xlink" x="0px" y="0px"
	 viewBox="0 0 24 24" style="enable-background:new 0 0 24 24;" xml:space="preserve">
<g>
	<path d="M21,22c-0.553,0-1-0.447-1-1V3c0-0.552,0.447-1,1-1s1,0.448,1,1v18C22,21.553,21.553,22,21,22z M3,22c-0.552,0-1-0.447-1-1
		V3c0-0.552,0.448-1,1-1s1,0.448,1,1v18C4,21.553,3.552,22,3,22z M12,20c-1.03,0-1.597,0-2.148-0.229
		c-0.74-0.307-1.316-0.884-1.623-1.623C8,17.596,8,17.029,8,16V8c0-1.03,0-1.597,0.229-2.148c0.307-0.74,0.883-1.316,1.623-1.623
		C10.403,4,10.97,4,12,4c1.029,0,1.596,0,2.148,0.229c0.74,0.307,1.316,0.883,1.623,1.624C16,6.403,16,6.97,16,8v8
		c0,1.029,0,1.596-0.229,2.148c-0.307,0.74-0.883,1.316-1.623,1.623C13.596,20,13.029,20,12,20z M12,6c-0.722,0-1.199,0-1.383,0.076
		c-0.247,0.102-0.438,0.294-0.541,0.542C10,6.801,10,7.278,10,8v8c0,0.722,0,1.199,0.076,1.383c0.102,0.246,0.294,0.438,0.542,0.541
		C10.801,18,11.278,18,12,18c0.722,0,1.199,0,1.383-0.076c0.247-0.103,0.438-0.294,0.541-0.541C14,17.199,14,16.722,14,16V8
		c0-0.722,0-1.199-0.076-1.382c-0.103-0.248-0.295-0.44-0.541-0.542C13.199,6,12.722,6,12,6z"/>
</g>
</svg>
