<?xml version="1.0" encoding="iso-8859-1"?>
<!-- Generator: Adobe Illustrator 27.4.0, SVG Export Plug-In . SVG Version: 6.00 Build 0)  -->
<svg version="1.1" id="Layer_1" xmlns="http://www.w3.org/2000/svg" xmlns:xlink="http://www.w3.org/1999/xlink" x="0px" y="0px"
	 viewBox="0 0 24 24" style="enable-background:new 0 0 24 24;" xml:space="preserve">
<g>
	<path d="M21,22c-0.553,0-1-0.447-1-1v-0.8c0-0.867,0-1.44-0.109-1.654c-0.096-0.188-0.248-0.341-0.438-0.438
		C19.24,18,18.667,18,17.8,18H6.2c-0.868,0-1.44,0-1.655,0.109c-0.188,0.096-0.34,0.248-0.437,0.438C4,18.76,4,19.333,4,20.2V21
		c0,0.553-0.448,1-1,1s-1-0.447-1-1v-0.8c0-1.238,0-1.921,0.327-2.562c0.29-0.567,0.742-1.02,1.31-1.311C4.28,16,4.962,16,6.2,16
		h11.6c1.238,0,1.921,0,2.562,0.326c0.567,0.291,1.021,0.744,1.311,1.311C22,18.279,22,18.962,22,20.2V21C22,21.553,21.553,22,21,22
		z M21.01,13c-0.553,0-1.005-0.448-1.005-1s0.442-1,0.995-1h0.01c0.553,0,1,0.448,1,1S21.562,13,21.01,13z M16.51,13
		c-0.553,0-1.005-0.448-1.005-1s0.442-1,0.995-1h0.01c0.553,0,1,0.448,1,1S17.062,13,16.51,13z M12.01,13
		c-0.552,0-1.005-0.448-1.005-1s0.443-1,0.995-1h0.01c0.552,0,1,0.448,1,1S12.562,13,12.01,13z M7.51,13
		c-0.552,0-1.005-0.448-1.005-1s0.443-1,0.995-1h0.01c0.552,0,1,0.448,1,1S8.062,13,7.51,13z M3.01,13c-0.552,0-1.005-0.448-1.005-1
		S2.448,11,3,11h0.01c0.552,0,1,0.448,1,1S3.562,13,3.01,13z M17.8,8H6.2C4.962,8,4.28,8,3.639,7.673
		C3.07,7.383,2.617,6.93,2.327,6.363C2,5.72,2,5.038,2,3.8V3c0-0.552,0.448-1,1-1s1,0.448,1,1v0.8c0,0.868,0,1.44,0.109,1.655
		c0.095,0.186,0.25,0.341,0.437,0.437C4.76,6,5.333,6,6.2,6h11.6c0.867,0,1.44,0,1.654-0.109c0.188-0.096,0.341-0.248,0.438-0.438
		C20,5.24,20,4.667,20,3.8V3c0-0.552,0.447-1,1-1s1,0.448,1,1v0.8c0,1.238,0,1.92-0.326,2.562c-0.292,0.57-0.744,1.022-1.311,1.312
		C19.721,8,19.038,8,17.8,8z"/>
</g>
</svg>
