<?xml version="1.0" encoding="iso-8859-1"?>
<!-- Generator: Adobe Illustrator 27.4.0, SVG Export Plug-In . SVG Version: 6.00 Build 0)  -->
<svg version="1.1" id="Layer_1" xmlns="http://www.w3.org/2000/svg" xmlns:xlink="http://www.w3.org/1999/xlink" x="0px" y="0px"
	 viewBox="0 0 24 24" style="enable-background:new 0 0 24 24;" xml:space="preserve">
<g>
	<path d="M12,21c-1.654,0-3-1.346-3-3s1.346-3,3-3s3,1.346,3,3S13.654,21,12,21z M12,17c-0.551,0-1,0.448-1,1s0.449,1,1,1
		s1-0.448,1-1S12.551,17,12,17z M20,13H4c-0.552,0-1-0.448-1-1s0.448-1,1-1h16c0.553,0,1,0.448,1,1S20.553,13,20,13z M12,9
		c-1.654,0-3-1.346-3-3s1.346-3,3-3s3,1.346,3,3S13.654,9,12,9z M12,5c-0.551,0-1,0.449-1,1s0.449,1,1,1s1-0.449,1-1S12.551,5,12,5z
		"/>
</g>
</svg>
