<?xml version="1.0" encoding="iso-8859-1"?>
<!-- Generator: Adobe Illustrator 27.4.0, SVG Export Plug-In . SVG Version: 6.00 Build 0)  -->
<svg version="1.1" id="Layer_1" xmlns="http://www.w3.org/2000/svg" xmlns:xlink="http://www.w3.org/1999/xlink" x="0px" y="0px"
	 viewBox="0 0 24 24" style="enable-background:new 0 0 24 24;" xml:space="preserve">
<g>
	<path d="M4.5,21.5C3.122,21.5,2,20.379,2,19s1.122-2.5,2.5-2.5S7,17.621,7,19S5.878,21.5,4.5,21.5z M4.5,18.5
		C4.224,18.5,4,18.725,4,19s0.224,0.5,0.5,0.5S5,19.275,5,19S4.776,18.5,4.5,18.5z M21,20H10c-0.552,0-1-0.447-1-1s0.448-1,1-1h11
		c0.553,0,1,0.447,1,1S21.553,20,21,20z M4.5,14.5C3.122,14.5,2,13.379,2,12c0-1.378,1.122-2.5,2.5-2.5S7,10.622,7,12
		C7,13.379,5.878,14.5,4.5,14.5z M4.5,11.5C4.224,11.5,4,11.724,4,12s0.224,0.5,0.5,0.5S5,12.276,5,12S4.776,11.5,4.5,11.5z M21,13
		H10c-0.552,0-1-0.448-1-1s0.448-1,1-1h11c0.553,0,1,0.448,1,1S21.553,13,21,13z M4.5,7.5C3.122,7.5,2,6.378,2,5s1.122-2.5,2.5-2.5
		S7,3.622,7,5S5.878,7.5,4.5,7.5z M4.5,4.5C4.224,4.5,4,4.724,4,5s0.224,0.5,0.5,0.5S5,5.276,5,5S4.776,4.5,4.5,4.5z M21,6H10
		C9.448,6,9,5.552,9,5s0.448-1,1-1h11c0.553,0,1,0.448,1,1S21.553,6,21,6z"/>
</g>
</svg>
