<?xml version="1.0" encoding="iso-8859-1"?>
<!-- Generator: Adobe Illustrator 27.4.0, SVG Export Plug-In . SVG Version: 6.00 Build 0)  -->
<svg version="1.1" id="Layer_1" xmlns="http://www.w3.org/2000/svg" xmlns:xlink="http://www.w3.org/1999/xlink" x="0px" y="0px"
	 viewBox="0 0 24 24" style="enable-background:new 0 0 24 24;" xml:space="preserve">
<g>
	<path d="M4,20c-1.103,0-2-0.897-2-2s0.897-2,2-2s2,0.897,2,2S5.103,20,4,20z M4,17.999L4,17.999L4,17.999z M21,19H9
		c-0.552,0-1-0.447-1-1s0.448-1,1-1h12c0.553,0,1,0.447,1,1S21.553,19,21,19z M4,14c-1.103,0-2-0.897-2-2c0-1.103,0.897-2,2-2
		s2,0.897,2,2C6,13.103,5.103,14,4,14z M4,11.999V12V11.999z M21,13H9c-0.552,0-1-0.448-1-1s0.448-1,1-1h12c0.553,0,1,0.448,1,1
		S21.553,13,21,13z M4,8C2.897,8,2,7.103,2,6s0.897-2,2-2s2,0.897,2,2S5.103,8,4,8z M4,5.999V6V5.999z M21,7H9C8.448,7,8,6.552,8,6
		s0.448-1,1-1h12c0.553,0,1,0.448,1,1S21.553,7,21,7z"/>
</g>
</svg>
