<?xml version="1.0" encoding="iso-8859-1"?>
<!-- Generator: Adobe Illustrator 27.4.0, SVG Export Plug-In . SVG Version: 6.00 Build 0)  -->
<svg version="1.1" id="Layer_1" xmlns="http://www.w3.org/2000/svg" xmlns:xlink="http://www.w3.org/1999/xlink" x="0px" y="0px"
	 viewBox="0 0 24 24" style="enable-background:new 0 0 24 24;" xml:space="preserve">
<g>
	<path d="M12,22c-0.001,0-0.002,0-0.003,0l0,0c-0.134,0-0.262-0.027-0.378-0.075c-0.119-0.049-0.23-0.121-0.326-0.218l-4-4
		c-0.391-0.391-0.391-1.023,0-1.414s1.023-0.391,1.414,0L11,18.586V12c0-0.552,0.448-1,1-1s1,0.448,1,1v6.586l2.293-2.293
		c0.391-0.391,1.023-0.391,1.414,0s0.391,1.023,0,1.414l-4,4c-0.096,0.097-0.208,0.169-0.326,0.218
		C12.265,21.973,12.137,22,12.003,22l0,0C12.002,22,12.001,22,12,22z M20.001,17.743c-0.288,0-0.574-0.124-0.772-0.363
		c-0.352-0.426-0.291-1.057,0.135-1.408C20.403,15.113,21,13.848,21,12.5c0-2.481-2.019-4.5-4.5-4.5
		c-0.571,0-1.106-0.304-1.396-0.793C13.939,5.228,11.792,4,9.5,4C5.916,4,3,6.916,3,10.5c0,1.732,0.673,3.361,1.896,4.588
		c0.39,0.392,0.389,1.024-0.002,1.414c-0.392,0.39-1.025,0.39-1.415-0.002C1.88,14.896,1,12.765,1,10.5C1,5.813,4.813,2,9.5,2
		c2.924,0,5.668,1.528,7.214,4.003C20.199,6.117,23,8.988,23,12.5c0,1.946-0.861,3.774-2.363,5.015
		C20.45,17.668,20.225,17.743,20.001,17.743z"/>
</g>
</svg>
