<?xml version="1.0" encoding="iso-8859-1"?>
<!-- Generator: Adobe Illustrator 27.4.0, SVG Export Plug-In . SVG Version: 6.00 Build 0)  -->
<svg version="1.1" id="Layer_1" xmlns="http://www.w3.org/2000/svg" xmlns:xlink="http://www.w3.org/1999/xlink" x="0px" y="0px"
	 viewBox="0 0 24 24" style="enable-background:new 0 0 24 24;" xml:space="preserve">
<g>
	<path d="M12,23C5.935,23,1,18.065,1,12c0-4.115,2.268-7.854,5.919-9.759c0.759-0.396,1.357-0.708,2.618-0.538
		c0.901,0.122,2.202,0.91,2.729,1.653C13,4.396,13,5.353,13,6.8v6.786l2.293-2.293c0.391-0.391,1.023-0.391,1.414,0
		s0.391,1.023,0,1.414l-4,4c-0.001,0.002-0.002,0.003-0.002,0.003c0,0-0.001,0.001-0.002,0.002h0
		c-0.001,0.001-0.001,0.002-0.002,0.002c0,0.001-0.001,0.001-0.001,0.002c-0.093,0.091-0.2,0.16-0.313,0.207c0,0,0,0-0.001,0l0,0
		c-0.237,0.1-0.532,0.1-0.77,0l0,0c0,0,0,0-0.001,0c-0.113-0.047-0.22-0.116-0.313-0.207c0-0.001,0.001-0.002-0.002-0.002
		c0-0.001-0.001-0.001-0.001-0.002h0c0-0.001-0.001-0.002-0.002-0.002c0,0-0.001-0.001-0.002-0.003l0,0l-4-4
		c-0.391-0.391-0.391-1.023,0-1.414s1.023-0.391,1.414,0L11,13.586V6.8c0-1.373-0.016-1.791-0.367-2.288
		c-0.206-0.292-1.01-0.779-1.364-0.827C8.637,3.599,8.5,3.671,7.844,4.015C4.856,5.573,3,8.633,3,12c0,4.963,4.038,9,9,9
		c4.963,0,9-4.037,9-9c0-3.203-1.725-6.191-4.501-7.797c-0.478-0.277-0.642-0.889-0.364-1.367c0.275-0.478,0.886-0.643,1.366-0.365
		C20.893,4.435,23,8.085,23,12C23,18.065,18.065,23,12,23z"/>
</g>
</svg>
