<?xml version="1.0" encoding="iso-8859-1"?>
<!-- Generator: Adobe Illustrator 27.4.0, SVG Export Plug-In . SVG Version: 6.00 Build 0)  -->
<svg version="1.1" id="Layer_1" xmlns="http://www.w3.org/2000/svg" xmlns:xlink="http://www.w3.org/1999/xlink" x="0px" y="0px"
	 viewBox="0 0 24 24" style="enable-background:new 0 0 24 24;" xml:space="preserve">
<g>
	<path d="M12,22c-0.001,0-0.002,0-0.003,0l0,0c-0.134,0-0.262-0.027-0.378-0.075c-0.119-0.049-0.23-0.121-0.326-0.218l-4-4
		c-0.391-0.391-0.391-1.023,0-1.414s1.023-0.391,1.414,0L11,18.586V12c0-0.552,0.448-1,1-1s1,0.448,1,1v6.586l2.293-2.293
		c0.391-0.391,1.023-0.391,1.414,0s0.391,1.023,0,1.414l-4,4c-0.096,0.097-0.208,0.169-0.326,0.218
		C12.265,21.973,12.137,22,12.003,22l0,0C12.002,22,12.001,22,12,22z M20.001,17.242c-0.322,0-0.639-0.155-0.832-0.443
		c-0.308-0.459-0.185-1.08,0.274-1.388C20.418,14.759,21,13.67,21,12.5c0-1.819-1.364-3.317-3.172-3.485
		c-0.453-0.042-0.821-0.384-0.895-0.833C16.535,5.759,14.46,4,12,4C9.54,4,7.465,5.759,7.066,8.182
		C6.993,8.631,6.625,8.973,6.172,9.015C4.364,9.183,3,10.681,3,12.5c0,1.17,0.582,2.259,1.557,2.911
		c0.458,0.308,0.582,0.929,0.274,1.388c-0.308,0.459-0.929,0.58-1.388,0.274C1.914,16.049,1,14.339,1,12.5
		c0-2.605,1.781-4.792,4.249-5.358C6.07,4.123,8.803,2,12,2s5.93,2.123,6.751,5.142C21.219,7.708,23,9.895,23,12.5
		c0,1.839-0.913,3.549-2.443,4.573C20.386,17.188,20.192,17.242,20.001,17.242z"/>
</g>
</svg>
