<?xml version="1.0" encoding="iso-8859-1"?>
<!-- Generator: Adobe Illustrator 27.4.0, SVG Export Plug-In . SVG Version: 6.00 Build 0)  -->
<svg version="1.1" id="Layer_1" xmlns="http://www.w3.org/2000/svg" xmlns:xlink="http://www.w3.org/1999/xlink" x="0px" y="0px"
	 viewBox="0 0 24 24" style="enable-background:new 0 0 24 24;" xml:space="preserve">
<g>
	<path d="M2,23c-0.264,0-0.519-0.104-0.707-0.293c-0.215-0.215-0.32-0.516-0.287-0.817c0.022-0.198,0.57-4.88,3.287-7.597L10.586,8
		L9.793,7.207c-0.391-0.391-0.391-1.023,0-1.414s1.023-0.391,1.414,0L12,6.586l4.293-4.293c1.445-1.446,3.969-1.446,5.414,0
		c1.492,1.492,1.492,3.921,0,5.414L17.414,12l0.793,0.793c0.391,0.391,0.391,1.023,0,1.414s-1.023,0.391-1.414,0L16,13.414
		l-6.293,6.293c-2.717,2.717-7.398,3.265-7.597,3.287C2.074,22.998,2.037,23,2,23z M12,9.414l-6.293,6.293
		c-1.425,1.425-2.136,3.633-2.463,5.048c1.417-0.33,3.63-1.042,5.049-2.462L14.586,12L12,9.414z M13.414,8L16,10.586l4.293-4.293
		c0.713-0.713,0.713-1.873,0-2.586c-0.691-0.691-1.895-0.691-2.586,0L13.414,8z"/>
</g>
</svg>
