<?xml version="1.0" encoding="iso-8859-1"?>
<!-- Generator: Adobe Illustrator 27.4.0, SVG Export Plug-In . SVG Version: 6.00 Build 0)  -->
<svg version="1.1" id="Layer_1" xmlns="http://www.w3.org/2000/svg" xmlns:xlink="http://www.w3.org/1999/xlink" x="0px" y="0px"
	 viewBox="0 0 24 24" style="enable-background:new 0 0 24 24;" xml:space="preserve">
<g>
	<path d="M12,23c-4.962,0-9-4.037-9-9c0-1.167,0.22-2.302,0.655-3.375c1.251-3.09,7.387-9.087,7.647-9.341
		c0.389-0.378,1.007-0.378,1.396,0c0.26,0.253,6.396,6.25,7.648,9.341C20.78,11.697,21,12.833,21,14C21,18.963,16.963,23,12,23z
		 M12,3.409c-2.012,2.03-5.689,5.983-6.492,7.966C5.171,12.208,5,13.092,5,14c0,3.859,3.14,7,7,7c3.859,0,7-3.141,7-7
		c0-0.909-0.171-1.792-0.508-2.625C17.688,9.391,14.012,5.438,12,3.409z"/>
</g>
</svg>
