<?xml version="1.0" encoding="iso-8859-1"?>
<!-- Generator: Adobe Illustrator 27.4.0, SVG Export Plug-In . SVG Version: 6.00 Build 0)  -->
<svg version="1.1" id="Layer_1" xmlns="http://www.w3.org/2000/svg" xmlns:xlink="http://www.w3.org/1999/xlink" x="0px" y="0px"
	 viewBox="0 0 24 24" style="enable-background:new 0 0 24 24;" xml:space="preserve">
<g>
	<path d="M14.026,22.51c-0.517,0-1.035-0.051-1.548-0.151c-1.556-0.306-2.972-1.061-4.095-2.181
		c-0.391-0.391-0.392-1.023-0.001-1.414c0.39-0.393,1.023-0.392,1.415-0.002c0.841,0.84,1.902,1.405,3.068,1.634
		c1.162,0.229,2.361,0.11,3.459-0.348c1.096-0.457,2.022-1.223,2.681-2.214c0.656-0.99,1.001-2.142,0.996-3.33
		c0-1.717-0.907-3.349-2.625-4.723c-1.4-1.121-2.571-2.607-3.374-4.235c-0.179,0.363-0.377,0.719-0.594,1.065
		c-0.293,0.468-0.909,0.609-1.378,0.317c-0.468-0.293-0.61-0.91-0.317-1.378c0.627-1.001,1.067-2.096,1.309-3.253
		C13.118,1.832,13.526,1.5,14,1.5c0.001,0,0.003,0,0.004,0c0.476,0.002,0.884,0.338,0.977,0.804c0.447,2.236,1.81,4.448,3.645,5.916
		C20.833,9.986,22,12.158,22,14.5c0.007,1.581-0.453,3.118-1.33,4.439c-0.877,1.322-2.114,2.344-3.577,2.954
		C16.113,22.303,15.073,22.51,14.026,22.51z M7,16.78c-2.757,0-5-2.266-5-5.05c0-1.485,0.741-2.895,2.085-3.971
		C5.054,6.984,5.777,5.797,6.02,4.583C6.113,4.116,6.523,3.78,7,3.78s0.887,0.336,0.98,0.804C8.22,5.779,8.945,6.968,9.922,7.765
		C11.282,8.874,12,10.245,12,11.73C12,14.515,9.757,16.78,7,16.78z M7.003,7.429c-0.446,0.72-1.012,1.367-1.669,1.892
		C4.461,10.02,4,10.853,4,11.73c0,1.682,1.346,3.05,3,3.05s3-1.368,3-3.05c0-0.876-0.452-1.688-1.342-2.415
		C8.007,8.784,7.447,8.141,7.003,7.429z"/>
</g>
</svg>
