<?xml version="1.0" encoding="iso-8859-1"?>
<!-- Generator: Adobe Illustrator 27.4.0, SVG Export Plug-In . SVG Version: 6.00 Build 0)  -->
<svg version="1.1" id="Layer_1" xmlns="http://www.w3.org/2000/svg" xmlns:xlink="http://www.w3.org/1999/xlink" x="0px" y="0px"
	 viewBox="0 0 24 24" style="enable-background:new 0 0 24 24;" xml:space="preserve">
<g>
	<path d="M12,22.5c-2.138,0-4.146-0.832-5.657-2.344C4.832,18.646,4,16.637,4,14.5c0-2.342,1.167-4.514,3.375-6.281
		C9.21,6.751,10.572,4.54,11.02,2.304C11.113,1.836,11.523,1.5,12,1.5s0.887,0.336,0.98,0.804c0.447,2.236,1.81,4.448,3.645,5.916
		C18.833,9.986,20,12.158,20,14.5c0,2.138-0.832,4.146-2.344,5.656C16.146,21.668,14.138,22.5,12,22.5z M12,5.543
		c-0.803,1.629-1.974,3.117-3.375,4.238C6.908,11.155,6,12.787,6,14.5c0,1.603,0.624,3.109,1.757,4.242
		C8.89,19.876,10.397,20.5,12,20.5c1.603,0,3.109-0.624,4.242-1.758C17.376,17.609,18,16.103,18,14.5
		c0-1.713-0.907-3.345-2.625-4.719C13.974,8.66,12.803,7.172,12,5.543z"/>
</g>
</svg>
