<?xml version="1.0" encoding="iso-8859-1"?>
<!-- Generator: Adobe Illustrator 27.4.0, SVG Export Plug-In . SVG Version: 6.00 Build 0)  -->
<svg version="1.1" id="Layer_1" xmlns="http://www.w3.org/2000/svg" xmlns:xlink="http://www.w3.org/1999/xlink" x="0px" y="0px"
	 viewBox="0 0 24 24" style="enable-background:new 0 0 24 24;" xml:space="preserve">
<g>
	<path d="M16,23c-3.86,0-7-3.141-7-7c0-4.546,5.898-14.121,6.149-14.526c0.365-0.589,1.336-0.589,1.701,0
		C17.102,1.879,23,11.454,23,16C23,19.859,19.859,23,16,23z M16,3.951C14.088,7.251,11,13.176,11,16c0,2.757,2.243,5,5,5
		s5-2.243,5-5C21,13.176,17.912,7.251,16,3.951z"/>
</g>
<g>
	<path d="M5,13c-2.206,0-4-1.794-4-4c0-2.373,2.828-7.006,3.15-7.526c0.364-0.589,1.336-0.589,1.7,0C6.172,1.994,9,6.627,9,9
		C9,11.206,7.206,13,5,13z M5,3.988C4.025,5.76,3,7.958,3,9c0,1.103,0.897,2,2,2s2-0.897,2-2C7,7.958,5.975,5.76,5,3.988z"/>
</g>
</svg>
