<?xml version="1.0" encoding="iso-8859-1"?>
<!-- Generator: Adobe Illustrator 27.4.0, SVG Export Plug-In . SVG Version: 6.00 Build 0)  -->
<svg version="1.1" id="Layer_1" xmlns="http://www.w3.org/2000/svg" xmlns:xlink="http://www.w3.org/1999/xlink" x="0px" y="0px"
	 viewBox="0 0 24 24" style="enable-background:new 0 0 24 24;" xml:space="preserve">
<g>
	<path d="M2.5,22.5c-0.264,0-0.519-0.104-0.707-0.293c-0.215-0.215-0.32-0.516-0.287-0.817l0.376-3.385
		c0.05-0.45,0.08-0.721,0.173-1.011c0.084-0.258,0.202-0.502,0.35-0.728c0.169-0.257,0.362-0.449,0.682-0.769L16.293,2.293
		c1.445-1.446,3.969-1.446,5.414,0c1.492,1.492,1.492,3.921,0,5.414L8.501,20.913c-0.326,0.326-0.516,0.516-0.769,0.682
		c-0.223,0.147-0.468,0.265-0.726,0.349c-0.294,0.095-0.564,0.125-1.012,0.175L2.61,22.494C2.574,22.498,2.537,22.5,2.5,22.5z
		 M14,7.414l-9.499,9.499c-0.249,0.248-0.371,0.371-0.425,0.454c-0.05,0.076-0.09,0.158-0.118,0.244
		c-0.03,0.095-0.052,0.29-0.088,0.612l-0.238,2.145l2.142-0.238c0.349-0.038,0.521-0.059,0.616-0.089
		c0.085-0.028,0.167-0.067,0.242-0.117c0.084-0.055,0.219-0.19,0.444-0.415L16.586,10L14,7.414z M15.414,6L18,8.586l2.293-2.293
		c0.713-0.713,0.713-1.873,0-2.586c-0.691-0.691-1.895-0.691-2.586,0L15.414,6z"/>
</g>
</svg>
