<?xml version="1.0" encoding="iso-8859-1"?>
<!-- Generator: Adobe Illustrator 27.4.0, SVG Export Plug-In . SVG Version: 6.00 Build 0)  -->
<svg version="1.1" id="Layer_1" xmlns="http://www.w3.org/2000/svg" xmlns:xlink="http://www.w3.org/1999/xlink" x="0px" y="0px"
	 viewBox="0 0 24 24" style="enable-background:new 0 0 24 24;" xml:space="preserve">
<g>
	<path d="M18,21c-1.023,0-2.021-0.448-2.737-1.229c-0.686-0.748-1.839-0.748-2.526,0c-0.373,0.406-1.006,0.434-1.413,0.062
		c-0.407-0.374-0.435-1.006-0.061-1.413c0.716-0.781,1.713-1.229,2.737-1.229s2.021,0.447,2.737,1.229
		c0.686,0.75,1.841,0.749,2.524,0.001l1-1.095c0.373-0.409,1.005-0.435,1.413-0.063c0.407,0.372,0.436,1.005,0.063,1.413l-1,1.095
		C20.023,20.552,19.025,21,18,21z M4.674,21H3c-0.552,0-1-0.447-1-1v-1.674c0-0.531,0-0.853,0.083-1.197
		c0.075-0.31,0.196-0.601,0.36-0.868c0.185-0.303,0.412-0.529,0.788-0.905L15.793,2.793c1.217-1.217,3.197-1.217,4.414,0
		c1.217,1.217,1.217,3.197,0,4.414L7.645,19.771c-0.378,0.378-0.604,0.604-0.907,0.788c-0.267,0.164-0.559,0.286-0.866,0.359
		C5.525,21,5.205,21,4.674,21z M4,19h0.674c0.385,0,0.617,0,0.733-0.027c0.099-0.024,0.195-0.064,0.285-0.119
		c0.103-0.062,0.266-0.226,0.535-0.494L18.793,5.793c0.437-0.437,0.437-1.148,0-1.586c-0.424-0.423-1.162-0.423-1.586,0
		L4.645,16.771c-0.271,0.271-0.435,0.435-0.496,0.535c-0.056,0.091-0.097,0.188-0.121,0.291C4,17.71,4,17.941,4,18.326V19z"/>
</g>
</svg>
