<?xml version="1.0" encoding="iso-8859-1"?>
<!-- Generator: Adobe Illustrator 27.4.0, SVG Export Plug-In . SVG Version: 6.00 Build 0)  -->
<svg version="1.1" id="Layer_1" xmlns="http://www.w3.org/2000/svg" xmlns:xlink="http://www.w3.org/1999/xlink" x="0px" y="0px"
	 viewBox="0 0 24 24" style="enable-background:new 0 0 24 24;" xml:space="preserve">
<g>
	<path d="M15.2,23H6.8c-1.838,0-2.76,0-3.616-0.437c-0.757-0.385-1.362-0.989-1.748-1.747C1,19.961,1,19.038,1,17.2V8.8
		C1,6.962,1,6.04,1.436,5.184c0.386-0.757,0.991-1.362,1.748-1.748C4.04,3,4.962,3,6.8,3H11c0.552,0,1,0.448,1,1s-0.448,1-1,1H6.8
		C5.33,5,4.52,5,4.092,5.218C3.713,5.411,3.411,5.713,3.218,6.092C3,6.52,3,7.33,3,8.8v8.4c0,1.471,0,2.28,0.218,2.708
		c0.193,0.379,0.495,0.681,0.873,0.873C4.52,21,5.33,21,6.8,21h8.4c1.47,0,2.279,0,2.708-0.219c0.379-0.192,0.681-0.494,0.873-0.872
		C19,19.48,19,18.671,19,17.2V13c0-0.552,0.447-1,1-1s1,0.448,1,1v4.2c0,1.838,0,2.761-0.437,3.616
		c-0.385,0.758-0.989,1.362-1.748,1.748C17.96,23,17.037,23,15.2,23z M9.674,17H8c-0.552,0-1-0.447-1-1v-1.674
		c0-0.531,0-0.853,0.083-1.197c0.074-0.307,0.195-0.599,0.36-0.869c0.186-0.302,0.412-0.529,0.787-0.904l9.563-9.563
		c1.178-1.179,3.236-1.179,4.414,0c1.217,1.217,1.217,3.197,0,4.414l-9.562,9.563c-0.378,0.378-0.604,0.604-0.907,0.788
		c-0.266,0.164-0.559,0.285-0.866,0.359C10.525,17,10.205,17,9.674,17z M9,15h0.674c0.385,0,0.617,0,0.733-0.027
		c0.099-0.024,0.196-0.064,0.285-0.119c0.103-0.062,0.266-0.226,0.535-0.494l9.565-9.566c0.437-0.437,0.437-1.148,0-1.586
		c-0.424-0.423-1.162-0.423-1.586,0L9.644,12.77c-0.271,0.271-0.434,0.434-0.497,0.536c-0.056,0.091-0.096,0.188-0.12,0.288
		C9,13.71,9,13.941,9,14.326V15z"/>
</g>
</svg>
