<?xml version="1.0" encoding="iso-8859-1"?>
<!-- Generator: Adobe Illustrator 27.4.0, SVG Export Plug-In . SVG Version: 6.00 Build 0)  -->
<svg version="1.1" id="Layer_1" xmlns="http://www.w3.org/2000/svg" xmlns:xlink="http://www.w3.org/1999/xlink" x="0px" y="0px"
	 viewBox="0 0 24 24" style="enable-background:new 0 0 24 24;" xml:space="preserve">
<g>
	<path d="M21,21h-9c-0.552,0-1-0.447-1-1s0.448-1,1-1h9c0.553,0,1,0.447,1,1S21.553,21,21,21z M4.674,21H3c-0.552,0-1-0.447-1-1
		v-1.674c0-0.531,0-0.853,0.083-1.197c0.075-0.31,0.196-0.601,0.36-0.868c0.185-0.303,0.412-0.529,0.788-0.905L15.793,2.793
		c1.217-1.217,3.197-1.217,4.414,0c1.217,1.217,1.217,3.197,0,4.414L7.645,19.771c-0.378,0.378-0.604,0.604-0.907,0.788
		c-0.267,0.164-0.559,0.286-0.866,0.359C5.525,21,5.205,21,4.674,21z M4,19h0.674c0.385,0,0.617,0,0.733-0.027
		c0.099-0.024,0.195-0.064,0.285-0.119c0.103-0.062,0.266-0.226,0.535-0.494L18.793,5.793c0.437-0.437,0.437-1.148,0-1.586
		c-0.424-0.423-1.162-0.423-1.586,0L4.645,16.771c-0.271,0.271-0.435,0.435-0.496,0.535c-0.056,0.091-0.097,0.188-0.121,0.291
		C4,17.71,4,17.941,4,18.326V19z"/>
</g>
</svg>
