<svg width="98" height="97" viewBox="0 0 98 97" fill="none" xmlns="http://www.w3.org/2000/svg">
<g id="empty-box 1">
<g id="Exp-2.-F">
<path id="Vector" fill-rule="evenodd" clip-rule="evenodd" d="M79.3125 53.9814H18.6875V82.0387C18.6875 83.377 19.565 84.5577 20.8473 84.9426C26.9386 86.769 44.0682 91.9084 48.1285 93.127C48.6969 93.2968 49.3031 93.2968 49.8715 93.127C53.9318 91.9084 71.0614 86.769 77.1527 84.9426C78.435 84.5577 79.3125 83.377 79.3125 82.0387C79.3125 75.0123 79.3125 53.9814 79.3125 53.9814Z" fill="#667085"/>
<path id="Vector_2" fill-rule="evenodd" clip-rule="evenodd" d="M79.3104 53.9814H48.9979C48.9979 53.9814 48.7038 93.2543 48.9979 93.2543C49.2919 93.2543 49.5844 93.2119 49.8694 93.127C53.9297 91.9084 71.0593 86.769 77.1506 84.9426C78.4328 84.5577 79.3104 83.377 79.3104 82.0387C79.3104 75.0123 79.3104 53.9814 79.3104 53.9814Z" fill="#475467"/>
<path id="Vector_3" fill-rule="evenodd" clip-rule="evenodd" d="M48.9984 63.8163L18.6859 53.9814C18.6859 53.9814 13.3706 61.8627 10.9941 65.385C10.7273 65.7806 10.6622 66.2762 10.8167 66.7263C10.9729 67.1765 11.329 67.5266 11.7822 67.6751C17.5401 69.5454 34.5848 75.0835 39.0559 76.5355C39.697 76.7446 40.4002 76.5036 40.7791 75.9444C42.8116 72.9449 48.9984 63.8163 48.9984 63.8163Z" fill="#98A2B3"/>
<path id="Vector_4" fill-rule="evenodd" clip-rule="evenodd" d="M79.3125 53.9814L49 63.8163C49 63.8163 55.1868 72.9449 57.2192 75.9444C57.5981 76.5036 58.3014 76.7446 58.9425 76.5355C63.4136 75.0835 80.4583 69.5454 86.2162 67.6751C86.6693 67.5266 87.0255 67.1765 87.1816 66.7263C87.3362 66.2762 87.271 65.7806 87.0043 65.385C84.6278 61.8627 79.3125 53.9814 79.3125 53.9814Z" fill="#98A2B3"/>
<path id="Vector_5" fill-rule="evenodd" clip-rule="evenodd" d="M41.662 33.3219C41.283 32.7657 40.5813 32.5247 39.9402 32.7339C35.4721 34.1843 18.4229 39.7239 12.665 41.5957C12.2118 41.7427 11.8542 42.0928 11.6996 42.543C11.545 42.9931 11.6101 43.4902 11.8769 43.8843C14.0654 47.1308 18.6866 53.9814 18.6866 53.9814L48.9991 44.1132C48.9991 44.1132 43.555 36.1061 41.662 33.3219Z" fill="#98A2B3"/>
<path id="Vector_6" fill-rule="evenodd" clip-rule="evenodd" d="M86.1222 43.8843C86.389 43.4902 86.4541 42.9931 86.2995 42.543C86.1449 42.0928 85.7873 41.7427 85.3341 41.5957C79.5762 39.7239 62.527 34.1843 58.0589 32.7339C57.4178 32.5247 56.716 32.7657 56.3371 33.3219C54.4441 36.1061 49 44.1132 49 44.1132L79.3125 53.9814C79.3125 53.9814 83.9336 47.1308 86.1222 43.8843Z" fill="#98A2B3"/>
<path id="Vector_7" fill-rule="evenodd" clip-rule="evenodd" d="M79.3125 53.9815L49 44.1133L18.6875 53.9815L49 63.8164L79.3125 53.9815Z" fill="#EAECF0"/>
<path id="Vector_8" fill-rule="evenodd" clip-rule="evenodd" d="M49 63.8164V44.1133L18.6875 53.9815L49 63.8164Z" fill="#D0D5DD"/>
<g id="Group">
<path id="Vector_9" fill-rule="evenodd" clip-rule="evenodd" d="M42.9077 48.467C42.2772 48.0547 41.7088 47.6137 41.2041 47.1514C40.5888 46.5861 39.6294 46.627 39.0626 47.2439C38.4972 47.8592 38.5382 48.8186 39.155 49.3839C39.7749 49.9538 40.4736 50.4964 41.2496 51.0042C41.9498 51.4619 42.8895 51.2648 43.3472 50.5646C43.805 49.8644 43.6079 48.9247 42.9077 48.467Z" fill="#6D88FF"/>
<path id="Vector_10" fill-rule="evenodd" clip-rule="evenodd" d="M38.1856 43.8105C37.7355 43.1997 37.355 42.5859 37.0428 41.9721C36.6639 41.2264 35.75 40.9293 35.0043 41.3082C34.2586 41.6872 33.9616 42.6011 34.3405 43.3468C34.7254 44.1015 35.1923 44.8578 35.7455 45.6081C36.2411 46.281 37.1898 46.425 37.8643 45.9294C38.5372 45.4323 38.6812 44.4835 38.1856 43.8105Z" fill="#6D88FF"/>
<path id="Vector_11" fill-rule="evenodd" clip-rule="evenodd" d="M35.9692 37.6255C35.9843 37.0147 36.0738 36.4221 36.2374 35.8537C36.4678 35.0504 36.0025 34.2092 35.1977 33.9789C34.3944 33.7485 33.5533 34.2138 33.3229 35.0186C33.091 35.831 32.9607 36.6782 32.9379 37.5497C32.9182 38.3863 33.579 39.082 34.4157 39.1017C35.2523 39.1229 35.948 38.4621 35.9692 37.6255Z" fill="#6D88FF"/>
<path id="Vector_12" fill-rule="evenodd" clip-rule="evenodd" d="M38.299 32.5629C38.6885 32.2021 39.125 31.8687 39.6024 31.5671C40.3102 31.12 40.5224 30.1833 40.0768 29.477C39.6297 28.7692 38.6931 28.5571 37.9853 29.0027C37.3441 29.4073 36.7621 29.8544 36.2393 30.3394C35.6254 30.9078 35.5891 31.8672 36.1574 32.481C36.7258 33.0948 37.6852 33.1312 38.299 32.5629Z" fill="#6D88FF"/>
<path id="Vector_13" fill-rule="evenodd" clip-rule="evenodd" d="M43.936 29.9482C44.6983 29.8073 45.5062 29.7163 46.3579 29.6815C47.1946 29.6451 47.8433 28.9373 47.8084 28.1022C47.7735 27.2671 47.0657 26.6169 46.2291 26.6517C45.2288 26.6942 44.28 26.8018 43.3843 26.967C42.5628 27.1201 42.0172 27.9112 42.1703 28.7327C42.3218 29.5557 43.113 30.0998 43.936 29.9482Z" fill="#6D88FF"/>
<path id="Vector_14" fill-rule="evenodd" clip-rule="evenodd" d="M51.8374 29.8591C53.1302 29.8742 54.3336 29.8288 55.4507 29.7303C56.2843 29.656 56.9011 28.9194 56.8268 28.0858C56.7526 27.2537 56.016 26.6369 55.1824 26.7111C54.1593 26.8006 53.0575 26.843 51.8723 26.8278C51.0356 26.8187 50.3491 27.4902 50.34 28.3253C50.3294 29.1619 51.0008 29.85 51.8374 29.8591Z" fill="#6D88FF"/>
<path id="Vector_15" fill-rule="evenodd" clip-rule="evenodd" d="M60.4311 28.8012C61.9315 28.342 63.1986 27.7539 64.2595 27.0795C64.9643 26.6293 65.1734 25.6927 64.7233 24.9864C64.2747 24.2816 63.3365 24.0725 62.6302 24.5226C61.7769 25.0652 60.7539 25.532 59.5444 25.9018C58.7457 26.1474 58.294 26.9946 58.5396 27.7949C58.7836 28.5951 59.6323 29.0452 60.4311 28.8012Z" fill="#6D88FF"/>
<path id="Vector_16" fill-rule="evenodd" clip-rule="evenodd" d="M68.1464 22.8378C68.8618 21.3586 69.1361 19.7944 69.0664 18.2864C69.027 17.4498 68.3162 16.8041 67.4811 16.8435C66.6459 16.8829 65.9988 17.5922 66.0382 18.4273C66.0867 19.4519 65.9018 20.5144 65.4168 21.5192C65.053 22.2725 65.3683 23.1803 66.1215 23.5441C66.8748 23.9078 67.7827 23.5911 68.1464 22.8378Z" fill="#6D88FF"/>
<path id="Vector_17" fill-rule="evenodd" clip-rule="evenodd" d="M67.1794 12.9266C66.0746 11.4338 64.5756 10.394 62.9418 10.0591C62.1218 9.89237 61.32 10.4198 61.1518 11.2398C60.9851 12.0597 61.514 12.8615 62.3325 13.0297C63.2752 13.2222 64.1057 13.8694 64.7438 14.7318C65.2425 15.4032 66.1928 15.5441 66.8642 15.047C67.5371 14.5484 67.6781 13.5981 67.1794 12.9266Z" fill="#6D88FF"/>
</g>
<path id="Vector_18" fill-rule="evenodd" clip-rule="evenodd" d="M46.3828 10.3528C48.0227 1.06658 62.2347 1.66676 53.9609 10.3528H46.3828Z" fill="#6D88FF"/>
<path id="Vector_19" fill-rule="evenodd" clip-rule="evenodd" d="M46.3828 12.7051C48.0227 21.9898 62.2347 21.3911 53.9609 12.7051H46.3828Z" fill="#6D88FF"/>
<path id="Vector_20" fill-rule="evenodd" clip-rule="evenodd" d="M47.2461 13.0596H57.3947C58.2313 13.0596 58.9103 12.3806 58.9103 11.5439C58.9103 10.7073 58.2313 10.0283 57.3947 10.0283H47.2461C46.411 10.0283 45.7305 10.7073 45.7305 11.5439C45.7305 12.3806 46.411 13.0596 47.2461 13.0596Z" fill="#6D88FF"/>
</g>
</g>
</svg>
