<?xml version="1.0" encoding="iso-8859-1"?>
<!-- Generator: Adobe Illustrator 27.4.0, SVG Export Plug-In . SVG Version: 6.00 Build 0)  -->
<svg version="1.1" id="Layer_1" xmlns="http://www.w3.org/2000/svg" xmlns:xlink="http://www.w3.org/1999/xlink" x="0px" y="0px"
	 viewBox="0 0 24 24" style="enable-background:new 0 0 24 24;" xml:space="preserve">
<g>
	<path d="M5,20c-0.256,0-0.512-0.098-0.707-0.293c-0.391-0.391-0.391-1.023,0-1.414L6.586,16H5c-0.552,0-1-0.447-1-1s0.448-1,1-1
		h3.586l4-4H5c-0.552,0-1-0.448-1-1s0.448-1,1-1h9.586l3.707-3.707c0.391-0.391,1.023-0.391,1.414,0s0.391,1.023,0,1.414L17.414,8
		H19c0.553,0,1,0.448,1,1s-0.447,1-1,1h-3.586l-4,4H19c0.553,0,1,0.447,1,1s-0.447,1-1,1H9.414l-3.707,3.707
		C5.512,19.902,5.256,20,5,20z"/>
</g>
</svg>
