<?xml version="1.0" encoding="iso-8859-1"?>
<!-- Generator: Adobe Illustrator 27.4.0, SVG Export Plug-In . SVG Version: 6.00 Build 0)  -->
<svg version="1.1" id="Layer_1" xmlns="http://www.w3.org/2000/svg" xmlns:xlink="http://www.w3.org/1999/xlink" x="0px" y="0px"
	 viewBox="0 0 24 24" style="enable-background:new 0 0 24 24;" xml:space="preserve">
<g>
	<path d="M20.999,22H7.325c-0.532,0-0.853,0-1.199-0.084c-0.308-0.073-0.601-0.195-0.868-0.36c-0.301-0.183-0.528-0.41-0.903-0.787
		l-0.667-0.666c-1.301-1.302-1.952-1.953-2.249-2.867c-0.263-0.808-0.263-1.663,0-2.471c0.297-0.914,0.949-1.566,2.249-2.866
		l8.212-8.212c1.301-1.3,1.952-1.952,2.864-2.249c0.811-0.263,1.664-0.263,2.473,0c0.915,0.298,1.608,0.991,2.865,2.249l0.212,0.212
		c1.259,1.258,1.951,1.951,2.249,2.865c0.262,0.809,0.262,1.664,0,2.472c-0.297,0.915-0.99,1.607-2.249,2.865L12.414,20h8.585
		c0.553,0,1,0.447,1,1S21.552,22,20.999,22z M11,7.414l-5.899,5.899c-1.04,1.039-1.612,1.611-1.76,2.068
		c-0.131,0.404-0.131,0.832,0,1.236c0.148,0.457,0.72,1.028,1.759,2.067l0.67,0.669c0.271,0.272,0.434,0.436,0.534,0.496
		c0.092,0.057,0.188,0.097,0.291,0.121C6.71,20,6.942,20,7.325,20h1.349c0.383,0,0.615,0,0.729-0.027
		c0.104-0.025,0.201-0.065,0.289-0.119c0.104-0.063,0.267-0.227,0.538-0.498h0L16.585,13L11,7.414z M12.414,6l5.585,5.586
		l0.899-0.899c1.04-1.04,1.612-1.612,1.761-2.069c0.131-0.404,0.131-0.832,0-1.237c-0.148-0.457-0.721-1.029-1.761-2.068
		l-0.212-0.212c-1.039-1.039-1.611-1.611-2.069-1.76c-0.405-0.132-0.831-0.132-1.236,0c-0.455,0.148-1.027,0.72-2.066,1.759
		L12.414,6z"/>
</g>
</svg>
