<?xml version="1.0" encoding="iso-8859-1"?>
<!-- Generator: Adobe Illustrator 27.4.0, SVG Export Plug-In . SVG Version: 6.00 Build 0)  -->
<svg version="1.1" id="Layer_1" xmlns="http://www.w3.org/2000/svg" xmlns:xlink="http://www.w3.org/1999/xlink" x="0px" y="0px"
	 viewBox="0 0 24 24" style="enable-background:new 0 0 24 24;" xml:space="preserve">
<g>
	<path d="M9,22H3c-0.001,0-0.002,0-0.003,0l0,0c-0.134,0-0.262-0.027-0.378-0.075c-0.119-0.049-0.23-0.121-0.326-0.218
		S2.124,21.5,2.075,21.381C2.027,21.265,2,21.137,2,21.003l0,0C2,21.002,2,21.001,2,21v-6c0-0.553,0.448-1,1-1s1,0.447,1,1v3.586
		L18.586,4H15c-0.553,0-1-0.448-1-1s0.447-1,1-1h6c0.001,0,0.002,0,0.003,0l0,0c0.134,0,0.262,0.027,0.378,0.075
		c0.119,0.049,0.229,0.122,0.326,0.218s0.169,0.208,0.218,0.326C21.973,2.735,22,2.863,22,2.997l0,0C22,2.998,22,2.999,22,3v6
		c0,0.552-0.447,1-1,1s-1-0.448-1-1V5.414L5.414,20H9c0.552,0,1,0.447,1,1S9.552,22,9,22z"/>
</g>
</svg>
