<?xml version="1.0" encoding="iso-8859-1"?>
<!-- Generator: Adobe Illustrator 27.4.0, SVG Export Plug-In . SVG Version: 6.00 Build 0)  -->
<svg version="1.1" id="Layer_1" xmlns="http://www.w3.org/2000/svg" xmlns:xlink="http://www.w3.org/1999/xlink" x="0px" y="0px"
	 viewBox="0 0 24 24" style="enable-background:new 0 0 24 24;" xml:space="preserve">
<g>
	<path d="M9,22H3c-0.001,0-0.002,0-0.003,0l0,0c-0.134,0-0.262-0.027-0.378-0.075c-0.119-0.049-0.23-0.121-0.326-0.218
		S2.124,21.5,2.075,21.381C2.027,21.265,2,21.137,2,21.003l0,0C2,21.002,2,21.001,2,21v-6c0-0.553,0.448-1,1-1s1,0.447,1,1v3.586
		l4.293-4.293c0.391-0.391,1.023-0.391,1.414,0s0.391,1.023,0,1.414L5.414,20H9c0.552,0,1,0.447,1,1S9.552,22,9,22z M16.8,21H14
		c-0.553,0-1-0.447-1-1s0.447-1,1-1h2.8c0.867,0,1.44,0,1.654-0.109c0.188-0.096,0.341-0.248,0.438-0.438
		C19,18.24,19,17.667,19,16.8V14c0-0.553,0.447-1,1-1s1,0.447,1,1v2.8c0,1.238,0,1.921-0.326,2.562
		c-0.291,0.567-0.744,1.021-1.311,1.311C18.721,21,18.038,21,16.8,21z M4,11c-0.552,0-1-0.448-1-1V7.2c0-1.238,0-1.92,0.327-2.562
		C3.617,4.07,4.07,3.617,4.637,3.327C5.28,3,5.962,3,7.2,3H10c0.552,0,1,0.448,1,1s-0.448,1-1,1H7.2C6.333,5,5.76,5,5.545,5.109
		c-0.186,0.095-0.341,0.25-0.437,0.438C5,5.76,5,6.333,5,7.2V10C5,10.552,4.552,11,4,11z M21,10c-0.553,0-1-0.448-1-1V5.414
		l-4.293,4.293c-0.391,0.391-1.023,0.391-1.414,0s-0.391-1.023,0-1.414L18.586,4H15c-0.553,0-1-0.448-1-1s0.447-1,1-1h6
		c0.001,0,0.002,0,0.003,0l0,0c0.134,0,0.262,0.027,0.378,0.075c0.119,0.049,0.229,0.122,0.326,0.218s0.169,0.208,0.218,0.326
		C21.973,2.735,22,2.863,22,2.997l0,0C22,2.998,22,2.999,22,3v6C22,9.552,21.553,10,21,10z"/>
</g>
</svg>
