<?xml version="1.0" encoding="iso-8859-1"?>
<!-- Generator: Adobe Illustrator 27.4.0, SVG Export Plug-In . SVG Version: 6.00 Build 0)  -->
<svg version="1.1" id="Layer_1" xmlns="http://www.w3.org/2000/svg" xmlns:xlink="http://www.w3.org/1999/xlink" x="0px" y="0px"
	 viewBox="0 0 24 24" style="enable-background:new 0 0 24 24;" xml:space="preserve">
<g>
	<path d="M21,22h-5c-0.553,0-1-0.447-1-1s0.447-1,1-1h2.586l-3.293-3.293c-0.391-0.391-0.391-1.023,0-1.414s1.023-0.391,1.414,0
		L20,18.586V16c0-0.553,0.447-1,1-1s1,0.447,1,1v5c0,0.001,0,0.002,0,0.003l0,0c0,0.134-0.027,0.262-0.075,0.378
		c-0.049,0.119-0.121,0.229-0.218,0.326s-0.207,0.169-0.326,0.218C21.265,21.973,21.137,22,21.003,22l0,0C21.002,22,21.001,22,21,22
		z M8,22H3c-0.001,0-0.002,0-0.003,0l0,0c-0.134,0-0.262-0.027-0.378-0.075c-0.119-0.049-0.23-0.121-0.326-0.218
		S2.124,21.5,2.075,21.381C2.027,21.265,2,21.137,2,21.003l0,0C2,21.002,2,21.001,2,21v-5c0-0.553,0.448-1,1-1s1,0.447,1,1v2.586
		l3.293-3.293c0.391-0.391,1.023-0.391,1.414,0s0.391,1.023,0,1.414L5.414,20H8c0.552,0,1,0.447,1,1S8.552,22,8,22z M21,9
		c-0.553,0-1-0.448-1-1V5.414l-3.293,3.293c-0.391,0.391-1.023,0.391-1.414,0s-0.391-1.023,0-1.414L18.586,4H16
		c-0.553,0-1-0.448-1-1s0.447-1,1-1h5c0.001,0,0.002,0,0.003,0l0,0c0.134,0,0.262,0.027,0.378,0.075
		c0.119,0.049,0.229,0.122,0.326,0.218s0.169,0.208,0.218,0.326C21.973,2.735,22,2.863,22,2.997l0,0C22,2.998,22,2.999,22,3v5
		C22,8.552,21.553,9,21,9z M8,9C7.744,9,7.488,8.902,7.293,8.707L4,5.414V8c0,0.552-0.448,1-1,1S2,8.552,2,8V3
		c0-0.001,0-0.002,0-0.003l0,0c0-0.134,0.027-0.262,0.075-0.378C2.124,2.5,2.197,2.389,2.293,2.293S2.5,2.124,2.619,2.075
		C2.735,2.027,2.863,2,2.997,2l0,0C2.998,2,2.999,2,3,2h5c0.552,0,1,0.448,1,1S8.552,4,8,4H5.414l3.293,3.293
		c0.391,0.391,0.391,1.023,0,1.414C8.512,8.902,8.256,9,8,9z"/>
</g>
</svg>
