<?xml version="1.0" encoding="iso-8859-1"?>
<!-- Generator: Adobe Illustrator 27.4.0, SVG Export Plug-In . SVG Version: 6.00 Build 0)  -->
<svg version="1.1" id="Layer_1" xmlns="http://www.w3.org/2000/svg" xmlns:xlink="http://www.w3.org/1999/xlink" x="0px" y="0px"
	 viewBox="0 0 24 24" style="enable-background:new 0 0 24 24;" xml:space="preserve">
<g>
	<path d="M16.2,22H14c-0.553,0-1-0.447-1-1s0.447-1,1-1h2.2c1.47,0,2.279,0,2.708-0.219c0.379-0.192,0.681-0.494,0.873-0.872
		C20,18.479,20,17.67,20,16.2V14c0-0.553,0.447-1,1-1s1,0.447,1,1v2.2c0,1.837,0,2.76-0.436,3.616
		c-0.386,0.758-0.99,1.362-1.749,1.748C18.96,22,18.037,22,16.2,22z M9,22H3c-0.001,0-0.002,0-0.003,0l0,0
		c-0.134,0-0.262-0.027-0.378-0.075c-0.119-0.049-0.23-0.121-0.326-0.218S2.124,21.5,2.075,21.381C2.027,21.265,2,21.137,2,21.003
		l0,0C2,21.002,2,21.001,2,21v-6c0-0.553,0.448-1,1-1s1,0.447,1,1v3.586l4.293-4.293c0.391-0.391,1.023-0.391,1.414,0
		s0.391,1.023,0,1.414L5.414,20H9c0.552,0,1,0.447,1,1S9.552,22,9,22z M3,11c-0.552,0-1-0.448-1-1V7.8c0-1.838,0-2.76,0.436-3.616
		c0.386-0.757,0.991-1.362,1.748-1.748C5.04,2,5.962,2,7.8,2H10c0.552,0,1,0.448,1,1s-0.448,1-1,1H7.8C6.33,4,5.52,4,5.092,4.218
		C4.713,4.411,4.411,4.713,4.218,5.092C4,5.52,4,6.33,4,7.8V10C4,10.552,3.552,11,3,11z M21,10c-0.553,0-1-0.448-1-1V5.414
		l-4.293,4.293c-0.391,0.391-1.023,0.391-1.414,0s-0.391-1.023,0-1.414L18.586,4H15c-0.553,0-1-0.448-1-1s0.447-1,1-1h6
		c0.001,0,0.002,0,0.003,0l0,0c0.134,0,0.262,0.027,0.378,0.075c0.119,0.049,0.229,0.122,0.326,0.218s0.169,0.208,0.218,0.326
		C21.973,2.735,22,2.863,22,2.997l0,0C22,2.998,22,2.999,22,3v6C22,9.552,21.553,10,21,10z"/>
</g>
</svg>
