<?xml version="1.0" encoding="iso-8859-1"?>
<!-- Generator: Adobe Illustrator 27.4.0, SVG Export Plug-In . SVG Version: 6.00 Build 0)  -->
<svg version="1.1" id="Layer_1" xmlns="http://www.w3.org/2000/svg" xmlns:xlink="http://www.w3.org/1999/xlink" x="0px" y="0px"
	 viewBox="0 0 24 24" style="enable-background:new 0 0 24 24;" xml:space="preserve">
<g>
	<path d="M21,22c-0.256,0-0.512-0.098-0.707-0.293l-3.153-3.153C15.499,19.514,13.774,20,12,20c-5.56,0-9.144-4.723-10.426-6.753
		c-0.159-0.25-0.295-0.467-0.372-0.8c-0.062-0.271-0.062-0.623,0-0.896c0.076-0.331,0.213-0.548,0.372-0.8
		c0.617-0.978,1.842-2.689,3.621-4.143L2.293,3.707c-0.391-0.391-0.391-1.023,0-1.414s1.023-0.391,1.414,0l3.638,3.638
		c0.059,0.046,0.112,0.1,0.161,0.161l7.298,7.299c0.009,0.008,0.017,0.016,0.024,0.023s0.016,0.016,0.023,0.024l3.042,3.041
		c0.07,0.054,0.134,0.117,0.189,0.19l3.623,3.623c0.391,0.391,0.391,1.023,0,1.414C21.512,21.902,21.256,22,21,22z M6.618,8.032
		c-1.645,1.298-2.786,2.891-3.352,3.788c-0.053,0.084-0.094,0.141-0.12,0.198c0.026,0.022,0.066,0.078,0.119,0.162
		C4.371,13.93,7.435,18,12,18c1.249,0,2.478-0.309,3.667-0.919l-1.634-1.634C13.424,15.808,12.727,16,12,16c-2.206,0-4-1.794-4-4
		c0-0.727,0.192-1.423,0.553-2.033L6.618,8.032z M10.068,11.482C10.023,11.649,10,11.823,10,12c0,1.103,0.897,2,2,2
		c0.177,0,0.351-0.022,0.518-0.067L10.068,11.482z M20.216,15.58c-0.227,0-0.454-0.076-0.642-0.233
		c-0.423-0.354-0.479-0.985-0.124-1.409c0.585-0.697,1.021-1.34,1.283-1.756c0.055-0.086,0.095-0.142,0.121-0.199
		c-0.025-0.021-0.065-0.077-0.117-0.159C19.63,10.071,16.564,6,12,6c-0.371,0-0.745,0.027-1.112,0.082
		c-0.541,0.085-1.054-0.296-1.135-0.843c-0.081-0.546,0.297-1.055,0.843-1.135C11.06,4.035,11.532,4,12,4
		c5.558,0,9.143,4.722,10.426,6.752c0.16,0.255,0.296,0.471,0.371,0.801c0.062,0.271,0.062,0.621,0.001,0.891
		c-0.077,0.336-0.215,0.554-0.375,0.806c-0.295,0.467-0.784,1.188-1.44,1.972C20.785,15.458,20.502,15.58,20.216,15.58z"/>
</g>
</svg>
