<?xml version="1.0" encoding="iso-8859-1"?>
<!-- Generator: Adobe Illustrator 27.4.0, SVG Export Plug-In . SVG Version: 6.00 Build 0)  -->
<svg version="1.1" id="Layer_1" xmlns="http://www.w3.org/2000/svg" xmlns:xlink="http://www.w3.org/1999/xlink" x="0px" y="0px"
	 viewBox="0 0 24 24" style="enable-background:new 0 0 24 24;" xml:space="preserve">
<g>
	<path d="M12,20c-5.56,0-9.144-4.723-10.426-6.753c0,0-0.001-0.001-0.001-0.001l0.847-0.533l-0.85,0.528
		c-0.156-0.249-0.292-0.464-0.367-0.794c-0.062-0.271-0.062-0.623,0-0.896c0.076-0.329,0.211-0.544,0.367-0.793
		C2.857,8.722,6.44,4,12,4c5.558,0,9.143,4.722,10.426,6.752c0.16,0.255,0.296,0.47,0.371,0.8c0.062,0.273,0.062,0.622,0.001,0.892
		c-0.076,0.333-0.212,0.547-0.368,0.796C21.144,15.278,17.559,20,12,20z M3.265,12.179C4.371,13.93,7.435,18,12,18
		c4.564,0,7.629-4.07,8.735-5.821c0.054-0.085,0.094-0.141,0.119-0.197c-0.025-0.021-0.065-0.076-0.117-0.158
		C19.63,10.071,16.564,6,12,6c-4.565,0-7.629,4.071-8.735,5.821c-0.054,0.085-0.093,0.141-0.119,0.197
		c0.025,0.021,0.065,0.076,0.117,0.158L2.42,12.713L3.265,12.179z"/>
</g>
<g>
	<path d="M12,16c-2.206,0-4-1.794-4-4c0-2.206,1.794-4,4-4s4,1.794,4,4C16,14.206,14.206,16,12,16z M12,10c-1.103,0-2,0.897-2,2
		c0,1.103,0.897,2,2,2c1.102,0,2-0.897,2-2C14,10.897,13.103,10,12,10z"/>
</g>
</svg>
