<?xml version="1.0" encoding="iso-8859-1"?>
<!-- Generator: Adobe Illustrator 27.4.0, SVG Export Plug-In . SVG Version: 6.00 Build 0)  -->
<svg version="1.1" id="Layer_1" xmlns="http://www.w3.org/2000/svg" xmlns:xlink="http://www.w3.org/1999/xlink" x="0px" y="0px"
	 viewBox="0 0 24 24" style="enable-background:new 0 0 24 24;" xml:space="preserve">
<g>
	<path d="M12,23C5.935,23,1,18.065,1,12S5.935,1,12,1s11,4.935,11,11S18.065,23,12,23z M12,3c-4.962,0-9,4.038-9,9
		c0,4.963,4.038,9,9,9c4.963,0,9-4.037,9-9C21,7.038,16.963,3,12,3z M16.001,17c-0.303,0-0.602-0.137-0.798-0.396
		C15.173,16.565,13.935,15,12,15c-1.948,0-3.191,1.589-3.204,1.604c-0.335,0.437-0.961,0.521-1.399,0.189
		C6.959,16.462,6.87,15.84,7.2,15.4C7.273,15.302,9.034,13,12,13s4.727,2.302,4.8,2.4c0.332,0.441,0.242,1.068-0.2,1.399
		C16.42,16.935,16.21,17,16.001,17z M15.5,11c-0.852,0-1.656-0.396-2.264-1.114c-0.356-0.422-0.304-1.053,0.118-1.41
		c0.422-0.356,1.053-0.304,1.409,0.118C14.92,8.779,15.175,9,15.5,9c0.262,0,0.52-0.139,0.725-0.391
		c0.348-0.427,0.978-0.493,1.406-0.145c0.429,0.349,0.493,0.979,0.145,1.407C17.192,10.589,16.362,11,15.5,11z M8.5,11
		c-0.852,0-1.656-0.396-2.264-1.114C5.88,9.464,5.933,8.833,6.354,8.477c0.423-0.356,1.052-0.304,1.41,0.118
		C7.92,8.779,8.175,9,8.5,9c0.262,0,0.519-0.139,0.725-0.392c0.35-0.427,0.979-0.491,1.407-0.144
		c0.428,0.349,0.492,0.979,0.144,1.407C10.191,10.589,9.362,11,8.5,11z"/>
</g>
</svg>
