<?xml version="1.0" encoding="iso-8859-1"?>
<!-- Generator: Adobe Illustrator 27.4.0, SVG Export Plug-In . SVG Version: 6.00 Build 0)  -->
<svg version="1.1" id="Layer_1" xmlns="http://www.w3.org/2000/svg" xmlns:xlink="http://www.w3.org/1999/xlink" x="0px" y="0px"
	 viewBox="0 0 24 24" style="enable-background:new 0 0 24 24;" xml:space="preserve">
<g>
	<path d="M12,23C5.935,23,1,18.065,1,12S5.935,1,12,1s11,4.935,11,11S18.065,23,12,23z M12,3c-4.962,0-9,4.038-9,9
		c0,4.963,4.038,9,9,9c4.963,0,9-4.037,9-9C21,7.038,16.963,3,12,3z M12,17c-2.966,0-4.727-2.302-4.8-2.4
		c-0.332-0.441-0.242-1.068,0.2-1.399c0.442-0.331,1.065-0.242,1.397,0.196C8.827,13.435,10.065,15,12,15
		c1.948,0,3.191-1.589,3.203-1.604c0.334-0.436,0.961-0.523,1.399-0.189c0.438,0.332,0.527,0.954,0.197,1.394
		C16.727,14.698,14.966,17,12,17z M15,10.5c-0.827,0-1.5-0.673-1.5-1.5s0.673-1.5,1.5-1.5s1.5,0.673,1.5,1.5S15.827,10.5,15,10.5z
		 M10,10H8c-0.552,0-1-0.448-1-1s0.448-1,1-1h2c0.552,0,1,0.448,1,1S10.552,10,10,10z"/>
</g>
</svg>
