<?xml version="1.0" encoding="iso-8859-1"?>
<!-- Generator: Adobe Illustrator 27.4.0, SVG Export Plug-In . SVG Version: 6.00 Build 0)  -->
<svg version="1.1" id="Layer_1" xmlns="http://www.w3.org/2000/svg" xmlns:xlink="http://www.w3.org/1999/xlink" x="0px" y="0px"
	 viewBox="0 0 24 24" style="enable-background:new 0 0 24 24;" xml:space="preserve">
<g>
	<path d="M12,23C5.935,23,1,18.065,1,12S5.935,1,12,1s11,4.935,11,11S18.065,23,12,23z M12,3c-4.962,0-9,4.038-9,9
		c0,4.963,4.038,9,9,9c4.963,0,9-4.037,9-9C21,7.038,16.963,3,12,3z M12,18.5c-2.878,0-5.5-2.145-5.5-4.5c0-0.553,0.448-1,1-1h9
		c0.553,0,1,0.447,1,1C17.5,16.355,14.879,18.5,12,18.5z M8.884,15c0.564,0.778,1.705,1.5,3.116,1.5c1.411,0,2.552-0.722,3.116-1.5
		H8.884z M15,10.5c-0.827,0-1.5-0.673-1.5-1.5s0.673-1.5,1.5-1.5s1.5,0.673,1.5,1.5S15.827,10.5,15,10.5z M9,10.5
		c-0.827,0-1.5-0.673-1.5-1.5S8.173,7.5,9,7.5s1.5,0.673,1.5,1.5S9.827,10.5,9,10.5z"/>
</g>
</svg>
