<?xml version="1.0" encoding="iso-8859-1"?>
<!-- Generator: Adobe Illustrator 27.4.0, SVG Export Plug-In . SVG Version: 6.00 Build 0)  -->
<svg version="1.1" id="Layer_1" xmlns="http://www.w3.org/2000/svg" xmlns:xlink="http://www.w3.org/1999/xlink" x="0px" y="0px"
	 viewBox="0 0 24 24" style="enable-background:new 0 0 24 24;" xml:space="preserve">
<g>
	<path d="M20.998,19.773c-0.024,0-0.049-0.001-0.073-0.002c-0.718-0.027-1.23-0.483-2.252-1.392l-4.992-4.438
		c-0.556-0.493-0.891-0.791-1.062-1.279c-0.15-0.428-0.15-0.898,0-1.325c0.172-0.489,0.506-0.786,1.06-1.279l4.995-4.439
		c1.023-0.91,1.535-1.365,2.252-1.392c0.646-0.025,1.225,0.249,1.618,0.727C23,5.508,23,6.195,23,7.563v8.874
		c0,1.368,0,2.055-0.457,2.608C22.164,19.505,21.591,19.773,20.998,19.773z M20.942,17.865L20.942,17.865L20.942,17.865z M14.524,12
		c0.096,0.102,0.3,0.284,0.484,0.448l4.992,4.438c0.37,0.328,0.749,0.665,0.97,0.823C21,17.439,21,16.931,21,16.437V7.563
		c0-0.495,0-1.002-0.029-1.272c-0.22,0.158-0.598,0.494-0.966,0.821l-4.996,4.44C14.815,11.724,14.618,11.899,14.524,12z
		 M21.106,6.208L21.106,6.208z"/>
</g>
<g>
	<path d="M9.999,19.773c-0.024,0-0.049-0.001-0.074-0.002c-0.719-0.027-1.231-0.483-2.252-1.392l-4.992-4.438
		c-0.556-0.493-0.892-0.791-1.063-1.281c-0.15-0.425-0.15-0.897,0-1.325c0.17-0.487,0.505-0.784,1.059-1.276l4.995-4.44
		c1.022-0.909,1.535-1.365,2.253-1.392c0.622-0.025,1.224,0.249,1.618,0.727C12,5.509,12,6.195,12,7.563v8.874
		c0,1.367,0,2.054-0.456,2.607C11.164,19.505,10.591,19.773,9.999,19.773z M9.942,17.866L9.942,17.866L9.942,17.866z M3.524,12
		c0.093,0.1,0.292,0.276,0.485,0.447l4.992,4.438c0.369,0.328,0.748,0.665,0.969,0.823C10,17.438,10,16.931,10,16.437V7.563
		c0-0.494,0-1.002-0.029-1.272c-0.221,0.158-0.6,0.495-0.969,0.823L4.01,11.552C3.815,11.725,3.618,11.9,3.524,12z M10.106,6.208
		L10.106,6.208L10.106,6.208z"/>
</g>
</svg>
