<?xml version="1.0" encoding="iso-8859-1"?>
<!-- Generator: Adobe Illustrator 27.4.0, SVG Export Plug-In . SVG Version: 6.00 Build 0)  -->
<svg version="1.1" id="Layer_1" xmlns="http://www.w3.org/2000/svg" xmlns:xlink="http://www.w3.org/1999/xlink" x="0px" y="0px"
	 viewBox="0 0 24 24" style="enable-background:new 0 0 24 24;" xml:space="preserve">
<g>
	<path d="M14.001,19.773c-0.593,0-1.165-0.269-1.544-0.728C12,18.491,12,17.805,12,16.437V7.563c0-1.368,0-2.055,0.458-2.609
		c0.393-0.477,1.003-0.738,1.617-0.726c0.718,0.026,1.229,0.482,2.25,1.389l4.994,4.44c0.556,0.493,0.892,0.792,1.063,1.28
		c0.15,0.429,0.15,0.899,0,1.326c-0.173,0.491-0.527,0.806-1.064,1.281l-4.99,4.437c-1.021,0.908-1.534,1.364-2.252,1.392
		C14.051,19.772,14.026,19.773,14.001,19.773z M14.058,17.865L14.058,17.865L14.058,17.865z M13.893,17.792L13.893,17.792
		L13.893,17.792z M14.029,6.291C14,6.561,14,7.069,14,7.563v8.874c0,0.494,0,1.003,0.029,1.272c0.221-0.158,0.6-0.495,0.97-0.823
		l4.991-4.438c0.185-0.164,0.39-0.346,0.485-0.448c-0.094-0.101-0.292-0.277-0.485-0.448l-4.991-4.437
		C14.628,6.785,14.249,6.448,14.029,6.291z"/>
</g>
<g>
	<path d="M3.002,19.773c-0.593,0-1.165-0.269-1.544-0.727C1,18.49,1,17.804,1,16.437V7.563c0-1.368,0-2.054,0.456-2.608
		c0.396-0.478,0.995-0.739,1.619-0.727c0.717,0.026,1.23,0.483,2.252,1.392l4.992,4.437c0.556,0.494,0.891,0.792,1.062,1.28
		c0.15,0.429,0.15,0.899,0,1.326c-0.173,0.49-0.508,0.788-1.063,1.281L5.328,18.38c-1.022,0.908-1.535,1.364-2.252,1.392
		C3.051,19.772,3.026,19.773,3.002,19.773z M3.057,17.866L3.057,17.866L3.057,17.866z M2.893,17.792L2.893,17.792L2.893,17.792z
		 M3.029,6.291C3,6.561,3,7.069,3,7.563v8.874c0,0.494,0,1.002,0.029,1.272c0.221-0.158,0.601-0.495,0.97-0.823l4.992-4.438
		C9.175,12.284,9.38,12.102,9.475,12c-0.093-0.101-0.292-0.277-0.484-0.448L3.999,7.115C3.629,6.786,3.25,6.449,3.029,6.291z"/>
</g>
</svg>
