<?xml version="1.0" encoding="iso-8859-1"?>
<!-- Generator: Adobe Illustrator 27.4.0, SVG Export Plug-In . SVG Version: 6.00 Build 0)  -->
<svg version="1.1" id="Layer_1" xmlns="http://www.w3.org/2000/svg" xmlns:xlink="http://www.w3.org/1999/xlink" x="0px" y="0px"
	 viewBox="0 0 24 24" style="enable-background:new 0 0 24 24;" xml:space="preserve">
<g>
	<path d="M2,23c-0.256,0-0.512-0.098-0.707-0.293c-0.391-0.391-0.391-1.023,0-1.414l2.781-2.781C4,18.199,4,17.854,4,17.4v-6.738
		c0-0.292,0-0.486,0.056-0.717c0.048-0.201,0.128-0.395,0.238-0.574C4.417,9.17,4.557,9.029,4.751,8.834l5.042-5.042
		c0.256-0.256,0.385-0.385,0.499-0.488c2.684-2.44,6.731-2.439,9.417,0c0.106,0.098,0.225,0.215,0.447,0.438
		c0.307,0.306,0.434,0.434,0.537,0.548c2.441,2.686,2.441,6.734,0.002,9.418c-0.106,0.115-0.233,0.243-0.488,0.498l-1.498,1.499
		c-0.001,0.001-0.002,0.002-0.003,0.003l-3.53,3.529c-0.207,0.207-0.344,0.344-0.546,0.468c-0.182,0.11-0.375,0.19-0.577,0.239
		C13.821,20,13.629,20,13.337,20H6.6c-0.453,0-0.799,0-1.112-0.074l-2.781,2.781C2.512,22.902,2.256,23,2,23z M7.414,18h5.923
		c0.126,0,0.206,0.004,0.271-0.004c0.011-0.024,0.064-0.083,0.153-0.172L15.586,16H9.414L7.414,18z M15.001,3.479
		c-1.203,0-2.405,0.436-3.364,1.307c-0.098,0.089-0.208,0.2-0.43,0.421l-5.031,5.031c-0.093,0.093-0.149,0.145-0.188,0.195
		C5.997,10.458,6,10.538,6,10.663v5.923l2.292-2.291c0.001-0.002,0.002-0.003,0.003-0.004l6.999-6.998
		c0.391-0.391,1.023-0.391,1.414,0s0.391,1.023,0,1.414L11.414,14h6.172l1.207-1.207c0.224-0.223,0.335-0.334,0.425-0.433
		c1.74-1.914,1.74-4.806-0.003-6.724c-0.088-0.097-0.199-0.207-0.422-0.43c-0.239-0.239-0.341-0.34-0.431-0.423
		C17.404,3.914,16.202,3.479,15.001,3.479z"/>
</g>
</svg>
