<?xml version="1.0" encoding="iso-8859-1"?>
<!-- Generator: Adobe Illustrator 27.4.0, SVG Export Plug-In . SVG Version: 6.00 Build 0)  -->
<svg version="1.1" id="Layer_1" xmlns="http://www.w3.org/2000/svg" xmlns:xlink="http://www.w3.org/1999/xlink" x="0px" y="0px"
	 viewBox="0 0 24 24" style="enable-background:new 0 0 24 24;" xml:space="preserve">
<g>
	<path d="M8.5,23.5C6.019,23.5,4,21.481,4,19c0-1.412,0.654-2.675,1.674-3.5C4.654,14.675,4,13.412,4,12s0.654-2.674,1.674-3.5
		C4.654,7.674,4,6.412,4,5c0-2.481,2.019-4.5,4.5-4.5h7C17.981,0.5,20,2.519,20,5c0,1.412-0.653,2.674-1.675,3.5
		C19.347,9.326,20,10.588,20,12c0,2.481-2.019,4.5-4.5,4.5c-0.924,0-1.784-0.28-2.5-0.76V19C13,21.481,10.981,23.5,8.5,23.5z
		 M8.5,16.5C7.122,16.5,6,17.621,6,19s1.122,2.5,2.5,2.5S11,20.379,11,19v-2.5H8.5z M13,12c0,1.379,1.121,2.5,2.5,2.5
		S18,13.379,18,12c0-1.378-1.121-2.5-2.5-2.5S13,10.622,13,12z M8.5,14.5H11v-5H8.5C7.122,9.5,6,10.622,6,12
		C6,13.379,7.122,14.5,8.5,14.5z M15.5,7.5C16.879,7.5,18,6.378,18,5s-1.121-2.5-2.5-2.5H13v5H15.5z M8.5,7.5H11v-5H8.5
		C7.122,2.5,6,3.622,6,5S7.122,7.5,8.5,7.5z"/>
</g>
</svg>
