<svg width="56" height="61" viewBox="0 0 56 61" fill="none" xmlns="http://www.w3.org/2000/svg">
<path fill-rule="evenodd" clip-rule="evenodd" d="M44.9961 0.5C46.4687 0.5 47.6627 1.69392 47.6627 3.16688V57.8696C47.6627 59.3224 46.4851 60.5 45.0323 60.5C36.8527 60.5 11.9215 60.5 3.67545 60.5C2.96473 60.5 2.28345 60.2178 1.78073 59.7154C1.27833 59.2126 0.996094 58.5314 0.996094 57.8206C0.996094 47.9934 0.996094 14.5 0.996094 14.5C5.03385 17.4162 8.77593 17.5192 12.3292 15.8334C10.2556 10.6213 10.4697 5.98096 13.5676 2.0616C14.3263 1.09712 15.4857 0.53392 16.7126 0.53392C22.071 0.5 38.5139 0.5 44.9961 0.5Z" fill="#667085"/>
<path fill-rule="evenodd" clip-rule="evenodd" d="M43.3561 0.50032L44.9961 0.5C46.4687 0.5 47.6627 1.69392 47.6627 3.16688V57.8696C47.6627 59.3224 46.4851 60.5 45.0323 60.5C36.8527 60.5 11.9215 60.5 3.67545 60.5C2.96473 60.5 2.28345 60.2178 1.78073 59.7154C1.27833 59.2126 0.996094 58.5314 0.996094 57.8206V54.6478C1.34553 55.7272 2.35865 56.5 3.54521 56.5H42.3654C43.8182 56.5 44.9961 55.3224 44.9961 53.8696C44.9961 44.4037 44.9961 12.1509 44.9961 2.96176C44.9961 1.85968 44.3247 0.90416 43.3561 0.50032Z" fill="#475467"/>
<path fill-rule="evenodd" clip-rule="evenodd" d="M12.3292 15.8334C11.1062 18.0418 5.12825 20.4859 0.996094 18.1989V14.5C0.996094 14.5 7.79001 15.8398 12.3292 15.8334Z" fill="#475467"/>
<path fill-rule="evenodd" clip-rule="evenodd" d="M15.8812 0.625C10.0614 1.9274 2.71353 8.9802 0.996094 14.5012C5.03385 17.4173 8.77593 17.5204 12.3292 15.8346C10.2556 10.6224 10.4697 5.98212 13.5676 2.06276C14.3263 1.09828 15.062 0.84452 15.8812 0.625Z" fill="#D0D5DD"/>
<path fill-rule="evenodd" clip-rule="evenodd" d="M27.6627 10.4038H39.6678C40.5878 10.4038 41.3343 9.65687 41.3343 8.73687C41.3343 7.81719 40.5878 7.07031 39.6678 7.07031H27.6627C26.7427 7.07031 25.9961 7.81719 25.9961 8.73687C25.9961 9.65687 26.7427 10.4038 27.6627 10.4038Z" fill="#D0D5DD"/>
<path fill-rule="evenodd" clip-rule="evenodd" d="M8.9911 37.3627H39.6679C40.5879 37.3627 41.3345 36.6159 41.3345 35.6959C41.3345 34.7762 40.5879 34.0293 39.6679 34.0293H8.9911C8.0711 34.0293 7.32422 34.7762 7.32422 35.6959C7.32422 36.6159 8.0711 37.3627 8.9911 37.3627Z" fill="#D0D5DD"/>
<path fill-rule="evenodd" clip-rule="evenodd" d="M8.9911 28.9594H39.6679C40.5879 28.9594 41.3345 28.2125 41.3345 27.2925C41.3345 26.3729 40.5879 25.626 39.6679 25.626H8.9911C8.0711 25.626 7.32422 26.3729 7.32422 27.2925C7.32422 28.2125 8.0711 28.9594 8.9911 28.9594Z" fill="#D0D5DD"/>
<path fill-rule="evenodd" clip-rule="evenodd" d="M39.6679 42.4326H8.9911C8.0711 42.4326 7.32422 43.1795 7.32422 44.0992C7.32422 45.0192 8.0711 45.7661 8.9911 45.7661H39.6679C40.5879 45.7661 41.3345 45.0192 41.3345 44.0992C41.3345 43.1795 40.5879 42.4326 39.6679 42.4326Z" fill="#D0D5DD"/>
<path fill-rule="evenodd" clip-rule="evenodd" d="M8.9911 54.1674H26.0337C26.9537 54.1674 27.7005 53.4205 27.7005 52.5005C27.7005 51.5809 26.9537 50.834 26.0337 50.834H8.9911C8.0711 50.834 7.32422 51.5809 7.32422 52.5005C7.32422 53.4205 8.0711 54.1674 8.9911 54.1674Z" fill="#D0D5DD"/>
<path d="M38.4968 53.1529C47.6143 53.1529 55.0054 45.7617 55.0054 36.6443C55.0054 27.5269 47.6143 20.1357 38.4968 20.1357C29.3794 20.1357 21.9883 27.5269 21.9883 36.6443C21.9883 45.7617 29.3794 53.1529 38.4968 53.1529Z" fill="#6D88FF"/>
<path d="M38.5005 35.7763C40.8997 35.7763 42.8447 33.8314 42.8447 31.4321C42.8447 29.0329 40.8997 27.0879 38.5005 27.0879C36.1012 27.0879 34.1562 29.0329 34.1562 31.4321C34.1562 33.8314 36.1012 35.7763 38.5005 35.7763Z" fill="#D0D5DD"/>
<path fill-rule="evenodd" clip-rule="evenodd" d="M25.8555 47.2551L25.8568 47.2541C28.4462 42.9798 33.1416 40.1211 38.4993 40.1211C43.8574 40.1211 48.5531 42.9805 51.1429 47.2557C48.1142 50.8607 43.5723 53.1541 38.4993 53.1541C33.4261 53.1541 28.8845 50.8607 25.8555 47.2551Z" fill="#D0D5DD"/>
</svg>
