<?xml version="1.0" encoding="iso-8859-1"?>
<!-- Generator: Adobe Illustrator 27.4.0, SVG Export Plug-In . SVG Version: 6.00 Build 0)  -->
<svg version="1.1" id="Layer_1" xmlns="http://www.w3.org/2000/svg" xmlns:xlink="http://www.w3.org/1999/xlink" x="0px" y="0px"
	 viewBox="0 0 24 24" style="enable-background:new 0 0 24 24;" xml:space="preserve">
<g>
	<path d="M15.2,23H8.8c-1.838,0-2.76,0-3.616-0.437c-0.757-0.385-1.362-0.989-1.748-1.747C3,19.96,3,19.037,3,17.2V6.8
		c0-1.838,0-2.76,0.436-3.616c0.386-0.757,0.991-1.362,1.748-1.748C6.04,1,6.962,1,8.8,1H14c0.266,0,0.52,0.105,0.707,0.293l6,6
		C20.895,7.48,21,7.735,21,8v9.2c0,1.837,0,2.76-0.436,3.616c-0.386,0.758-0.99,1.362-1.749,1.748C17.96,23,17.037,23,15.2,23z
		 M8.8,3C7.33,3,6.52,3,6.092,3.218C5.713,3.411,5.411,3.713,5.218,4.092C5,4.52,5,5.33,5,6.8v10.4c0,1.47,0,2.279,0.218,2.708
		c0.193,0.379,0.495,0.681,0.873,0.873C6.52,21,7.33,21,8.8,21h6.4c1.47,0,2.279,0,2.708-0.219c0.379-0.192,0.681-0.494,0.873-0.872
		C19,19.479,19,18.67,19,17.2V9h-3.4c-0.65,0-1.08,0-1.508-0.218c-0.378-0.192-0.68-0.495-0.874-0.875C13,7.481,13,7.051,13,6.4V3
		H8.8z M15,4.414V6.4c0,0.278,0,0.566,0.02,0.648C15.033,7,15.321,7,15.6,7h1.986L15,4.414z M12.01,19c-0.552,0-1.005-0.447-1.005-1
		s0.443-1,0.995-1h0.01c0.552,0,1,0.447,1,1S12.562,19,12.01,19z M11.971,16c-0.419,0-0.809-0.265-0.949-0.684
		c-0.175-0.524,0.109-1.091,0.633-1.265c0.543-0.186,1.564-0.759,1.564-1.3c0.001-0.296-0.104-0.582-0.292-0.806
		c-0.19-0.227-0.455-0.378-0.744-0.428c-0.289-0.047-0.589,0.005-0.844,0.155c-0.253,0.149-0.447,0.384-0.544,0.662
		c-0.184,0.521-0.755,0.795-1.275,0.611c-0.521-0.184-0.794-0.754-0.611-1.275c0.254-0.723,0.758-1.334,1.418-1.722
		c0.662-0.388,1.441-0.53,2.195-0.401c0.755,0.129,1.443,0.523,1.936,1.11c0.493,0.584,0.764,1.329,0.763,2.097
		c0,2.156-2.632,3.095-2.932,3.195C12.182,15.983,12.075,16,11.971,16z"/>
</g>
</svg>
