<?xml version="1.0" encoding="iso-8859-1"?>
<!-- Generator: Adobe Illustrator 27.4.0, SVG Export Plug-In . SVG Version: 6.00 Build 0)  -->
<svg version="1.1" id="Layer_1" xmlns="http://www.w3.org/2000/svg" xmlns:xlink="http://www.w3.org/1999/xlink" x="0px" y="0px"
	 viewBox="0 0 24 24" style="enable-background:new 0 0 24 24;" xml:space="preserve">
<g>
	<path d="M12,23H8.8c-1.838,0-2.76,0-3.616-0.437c-0.757-0.385-1.362-0.989-1.748-1.747C3,19.96,3,19.037,3,17.2V6.8
		c0-1.838,0-2.76,0.436-3.616c0.386-0.757,0.991-1.362,1.748-1.748C6.04,1,6.962,1,8.8,1h6.4c1.837,0,2.76,0,3.616,0.436
		c0.758,0.386,1.362,0.991,1.748,1.749C21,4.04,21,4.962,21,6.8V12c0,0.552-0.447,1-1,1s-1-0.448-1-1V6.8c0-1.47,0-2.28-0.218-2.708
		c-0.193-0.379-0.495-0.681-0.874-0.874C17.479,3,16.67,3,15.2,3H8.8C7.33,3,6.52,3,6.092,3.218
		C5.713,3.411,5.411,3.713,5.218,4.092C5,4.52,5,5.33,5,6.8v10.4c0,1.47,0,2.279,0.218,2.708c0.193,0.379,0.495,0.681,0.873,0.873
		C6.52,21,7.33,21,8.8,21H12c0.552,0,1,0.447,1,1S12.552,23,12,23z M21,22c-0.256,0-0.512-0.098-0.707-0.293L18.5,19.914
		l-1.793,1.793c-0.391,0.391-1.023,0.391-1.414,0s-0.391-1.023,0-1.414l1.793-1.793l-1.793-1.793c-0.391-0.391-0.391-1.023,0-1.414
		s1.023-0.391,1.414,0l1.793,1.793l1.793-1.793c0.391-0.391,1.023-0.391,1.414,0s0.391,1.023,0,1.414L19.914,18.5l1.793,1.793
		c0.391,0.391,0.391,1.023,0,1.414C21.512,21.902,21.256,22,21,22z"/>
</g>
</svg>
