<?xml version="1.0" encoding="iso-8859-1"?>
<!-- Generator: Adobe Illustrator 27.4.0, SVG Export Plug-In . SVG Version: 6.00 Build 0)  -->
<svg version="1.1" id="Layer_1" xmlns="http://www.w3.org/2000/svg" xmlns:xlink="http://www.w3.org/1999/xlink" x="0px" y="0px"
	 viewBox="0 0 24 24" style="enable-background:new 0 0 24 24;" xml:space="preserve">
<g>
	<path d="M16.2,23H8.5c-0.532,0-0.798-0.005-1.021-0.034c-1.793-0.236-3.209-1.652-3.444-3.443C4,19.263,4,19.008,4,18.5
		c0-0.553,0.448-1,1-1s1,0.447,1,1c0,0.396-0.005,0.594,0.017,0.76c0.118,0.897,0.826,1.605,1.722,1.724
		C7.905,21.005,8.104,21,8.5,21h7.7c1.47,0,2.279,0,2.708-0.219c0.379-0.192,0.681-0.494,0.873-0.872C20,19.479,20,18.67,20,17.2
		V9.988c0-0.654,0-0.982-0.056-1.212c-0.049-0.206-0.129-0.399-0.238-0.577c-0.122-0.199-0.339-0.419-0.818-0.897l-3.188-3.189
		c-0.471-0.47-0.698-0.697-0.896-0.818c-0.18-0.109-0.374-0.19-0.578-0.239C13.994,3,13.666,3,13.012,3H8.5
		C8.103,3,7.906,2.995,7.74,3.017C6.843,3.135,6.135,3.843,6.017,4.739C5.995,4.906,6,5.104,6,5.5c0,0.552-0.448,1-1,1s-1-0.448-1-1
		c0-0.508,0-0.763,0.035-1.023c0.236-1.79,1.652-3.206,3.443-3.442C7.737,1,7.992,1,8.5,1h4.512c0.786,0,1.219,0,1.68,0.111
		c0.407,0.097,0.796,0.258,1.155,0.478c0.4,0.246,0.701,0.546,1.247,1.091l3.207,3.208c0.554,0.553,0.859,0.858,1.109,1.266
		c0.22,0.356,0.381,0.746,0.479,1.157C22,8.769,22,9.202,22,9.988V17.2c0,1.837,0,2.76-0.436,3.616
		c-0.386,0.758-0.99,1.362-1.749,1.748C18.96,23,18.037,23,16.2,23z M9,15.5c-0.256,0-0.512-0.098-0.707-0.293
		c-0.391-0.391-0.391-1.023,0-1.414L10.086,12l-1.793-1.793c-0.391-0.391-0.391-1.023,0-1.414s1.023-0.391,1.414,0l2.5,2.5
		c0.391,0.391,0.391,1.023,0,1.414l-2.5,2.5C9.512,15.402,9.256,15.5,9,15.5z M5,15.5c-0.256,0-0.512-0.098-0.707-0.293l-2.5-2.5
		c-0.391-0.391-0.391-1.023,0-1.414l2.5-2.5c0.391-0.391,1.023-0.391,1.414,0s0.391,1.023,0,1.414L3.914,12l1.793,1.793
		c0.391,0.391,0.391,1.023,0,1.414C5.512,15.402,5.256,15.5,5,15.5z"/>
</g>
</svg>
