<?xml version="1.0" encoding="iso-8859-1"?>
<!-- Generator: Adobe Illustrator 27.4.0, SVG Export Plug-In . SVG Version: 6.00 Build 0)  -->
<svg version="1.1" id="Layer_1" xmlns="http://www.w3.org/2000/svg" xmlns:xlink="http://www.w3.org/1999/xlink" x="0px" y="0px"
	 viewBox="0 0 24 24" style="enable-background:new 0 0 24 24;" xml:space="preserve">
<g>
	<path d="M12.5,23H8.8c-1.838,0-2.76,0-3.616-0.437c-0.757-0.385-1.362-0.989-1.748-1.747C3,19.96,3,19.037,3,17.2V6.8
		c0-1.838,0-2.76,0.436-3.616c0.386-0.757,0.991-1.362,1.748-1.748C6.04,1,6.962,1,8.8,1h6.4c1.837,0,2.76,0,3.616,0.436
		c0.758,0.386,1.362,0.991,1.748,1.749C21,4.04,21,4.962,21,6.8V7c0,0.552-0.447,1-1,1s-1-0.448-1-1V6.8c0-1.47,0-2.28-0.218-2.708
		c-0.193-0.379-0.495-0.681-0.874-0.874C17.479,3,16.67,3,15.2,3H8.8C7.33,3,6.52,3,6.092,3.218
		C5.713,3.411,5.411,3.713,5.218,4.092C5,4.52,5,5.33,5,6.8v10.4c0,1.47,0,2.279,0.218,2.708c0.193,0.379,0.495,0.681,0.873,0.873
		C6.52,21,7.33,21,8.8,21h3.7c0.553,0,1,0.447,1,1S13.053,23,12.5,23z M18,22c-2.206,0-4-1.794-4-4v-4c0-0.553,0.447-1,1-1
		s1,0.447,1,1v4c0,1.103,0.897,2,2,2s2-0.897,2-2v-5.5c0-0.276-0.225-0.5-0.5-0.5S19,12.224,19,12.5V18c0,0.553-0.447,1-1,1
		s-1-0.447-1-1v-5.5c0-1.378,1.121-2.5,2.5-2.5s2.5,1.122,2.5,2.5V18C22,20.206,20.206,22,18,22z M11.5,16H8c-0.552,0-1-0.447-1-1
		s0.448-1,1-1h3.5c0.552,0,1,0.447,1,1S12.052,16,11.5,16z M12.5,12H8c-0.552,0-1-0.448-1-1s0.448-1,1-1h4.5c0.553,0,1,0.448,1,1
		S13.053,12,12.5,12z M16,8H8C7.448,8,7,7.552,7,7s0.448-1,1-1h8c0.553,0,1,0.448,1,1S16.553,8,16,8z"/>
</g>
</svg>
