<?xml version="1.0" encoding="iso-8859-1"?>
<!-- Generator: Adobe Illustrator 27.4.0, SVG Export Plug-In . SVG Version: 6.00 Build 0)  -->
<svg version="1.1" id="Layer_1" xmlns="http://www.w3.org/2000/svg" xmlns:xlink="http://www.w3.org/1999/xlink" x="0px" y="0px"
	 viewBox="0 0 24 24" style="enable-background:new 0 0 24 24;" xml:space="preserve">
<g>
	<path d="M15.2,23H8.8c-1.838,0-2.76,0-3.616-0.437c-0.757-0.385-1.362-0.989-1.748-1.747C3,19.96,3,19.037,3,17.2v-0.7
		c0-0.553,0.448-1,1-1s1,0.447,1,1v0.7c0,1.47,0,2.279,0.218,2.708c0.193,0.379,0.495,0.681,0.873,0.873C6.52,21,7.33,21,8.8,21h6.4
		c1.47,0,2.279,0,2.708-0.219c0.379-0.192,0.681-0.494,0.873-0.872C19,19.479,19,18.67,19,17.2V6.8c0-1.47,0-2.28-0.218-2.708
		c-0.193-0.379-0.495-0.681-0.874-0.874C17.479,3,16.67,3,15.2,3h-2.7c-0.552,0-1-0.448-1-1s0.448-1,1-1h2.7
		c1.837,0,2.76,0,3.616,0.436c0.758,0.386,1.362,0.991,1.748,1.749C21,4.04,21,4.962,21,6.8v10.4c0,1.837,0,2.76-0.436,3.616
		c-0.386,0.758-0.99,1.362-1.749,1.748C17.96,23,17.037,23,15.2,23z M16,18H8c-0.552,0-1-0.447-1-1s0.448-1,1-1h8
		c0.553,0,1,0.447,1,1S16.553,18,16,18z M16,14h-4.5c-0.552,0-1-0.447-1-1c0-0.552,0.448-1,1-1H16c0.553,0,1,0.448,1,1
		C17,13.553,16.553,14,16,14z M6,14c-2.206,0-4-1.794-4-4V6c0-0.552,0.448-1,1-1s1,0.448,1,1v4c0,1.103,0.897,2,2,2s2-0.897,2-2V4.5
		C8,4.224,7.776,4,7.5,4S7,4.224,7,4.5V10c0,0.552-0.448,1-1,1s-1-0.448-1-1V4.5C5,3.122,6.122,2,7.5,2S10,3.122,10,4.5V10
		C10,12.206,8.206,14,6,14z M16,10h-3.5c-0.552,0-1-0.448-1-1s0.448-1,1-1H16c0.553,0,1,0.448,1,1S16.553,10,16,10z"/>
</g>
</svg>
