<?xml version="1.0" encoding="iso-8859-1"?>
<!-- Generator: Adobe Illustrator 27.4.0, SVG Export Plug-In . SVG Version: 6.00 Build 0)  -->
<svg version="1.1" id="Layer_1" xmlns="http://www.w3.org/2000/svg" xmlns:xlink="http://www.w3.org/1999/xlink" x="0px" y="0px"
	 viewBox="0 0 24 24" style="enable-background:new 0 0 24 24;" xml:space="preserve">
<g>
	<path d="M15.2,23H8.8c-1.838,0-2.76,0-3.616-0.437c-0.757-0.385-1.362-0.989-1.748-1.747C3,19.96,3,19.037,3,17.2V6.8
		c0-1.838,0-2.76,0.436-3.616c0.386-0.757,0.991-1.362,1.748-1.748C6.04,1,6.962,1,8.8,1H14c0.266,0,0.52,0.105,0.707,0.293l6,6
		C20.895,7.48,21,7.735,21,8v9.2c0,1.837,0,2.76-0.436,3.616c-0.386,0.758-0.99,1.362-1.749,1.748C17.96,23,17.037,23,15.2,23z
		 M8.8,3C7.33,3,6.52,3,6.092,3.218C5.713,3.411,5.411,3.713,5.218,4.092C5,4.52,5,5.33,5,6.8v10.4c0,1.47,0,2.279,0.218,2.708
		c0.193,0.379,0.495,0.681,0.873,0.873C6.52,21,7.33,21,8.8,21h6.4c1.47,0,2.279,0,2.708-0.219c0.379-0.192,0.681-0.494,0.873-0.872
		C19,19.479,19,18.67,19,17.2V9h-3.4c-0.65,0-1.08,0-1.508-0.218c-0.378-0.192-0.68-0.495-0.874-0.875C13,7.481,13,7.051,13,6.4V3
		H8.8z M15,4.414V6.4c0,0.278,0,0.566,0.02,0.648C15.033,7,15.321,7,15.6,7h1.986L15,4.414z M11.997,19
		c-0.23,0-0.461-0.079-0.647-0.238c-0.284-0.241-2.802-2.39-3.625-3.42c-1.128-1.411-0.909-3.432,0.498-4.602
		C9.334,9.817,10.828,9.768,12,10.522c1.163-0.738,2.649-0.689,3.761,0.209c1.429,1.154,1.652,3.18,0.51,4.61
		c-0.824,1.03-3.342,3.179-3.626,3.42C12.458,18.921,12.228,19,11.997,19z M10.238,11.998c-0.245,0-0.499,0.083-0.738,0.281
		c-0.579,0.481-0.669,1.245-0.213,1.815c0.463,0.58,1.797,1.786,2.71,2.585c0.914-0.799,2.247-2.005,2.711-2.585
		c0.454-0.569,0.367-1.346-0.204-1.807c-0.631-0.511-1.354-0.253-1.756,0.204c-0.38,0.432-1.122,0.432-1.502,0
		C10.996,12.207,10.628,11.998,10.238,11.998z"/>
</g>
</svg>
