<?xml version="1.0" encoding="iso-8859-1"?>
<!-- Generator: Adobe Illustrator 27.4.0, SVG Export Plug-In . SVG Version: 6.00 Build 0)  -->
<svg version="1.1" id="Layer_1" xmlns="http://www.w3.org/2000/svg" xmlns:xlink="http://www.w3.org/1999/xlink" x="0px" y="0px"
	 viewBox="0 0 24 24" style="enable-background:new 0 0 24 24;" xml:space="preserve">
<g>
	<path d="M15.2,23H8.8c-1.838,0-2.76,0-3.616-0.437c-0.757-0.385-1.362-0.989-1.748-1.747C3,19.96,3,19.037,3,17.2V6.8
		c0-1.838,0-2.76,0.436-3.616c0.386-0.757,0.991-1.362,1.748-1.748C6.04,1,6.962,1,8.8,1H14c0.001,0,0.002,0,0.003,0l0,0
		c0.134,0,0.262,0.027,0.378,0.075c0.119,0.049,0.229,0.122,0.326,0.218l6,6c0.097,0.096,0.169,0.208,0.218,0.326
		C20.973,7.735,21,7.863,21,7.997l0,0C21,7.998,21,7.999,21,8v9.2c0,1.837,0,2.76-0.436,3.616c-0.386,0.758-0.99,1.362-1.749,1.748
		C17.96,23,17.037,23,15.2,23z M8.8,3C7.33,3,6.52,3,6.092,3.218C5.713,3.411,5.411,3.713,5.218,4.092C5,4.52,5,5.33,5,6.8v10.4
		c0,1.47,0,2.279,0.218,2.708c0.193,0.379,0.495,0.681,0.873,0.873C6.52,21,7.33,21,8.8,21h6.4c1.47,0,2.279,0,2.708-0.219
		c0.379-0.192,0.681-0.494,0.873-0.872C19,19.479,19,18.67,19,17.2V9h-5c-0.553,0-1-0.448-1-1V3H8.8z M15,7h2.586L15,4.414V7z
		 M13.9,19h-3.8c-0.651,0-1.081,0-1.51-0.219c-0.377-0.192-0.679-0.494-0.872-0.873C7.5,17.48,7.5,17.051,7.5,16.4V15.6
		c0-0.65,0-1.08,0.218-1.508c0.193-0.379,0.496-0.681,0.875-0.874c0.21-0.106,0.42-0.161,0.658-0.189V12.25
		c0-1.517,1.233-2.75,2.75-2.75s2.75,1.233,2.75,2.75v0.778c0.237,0.028,0.448,0.083,0.659,0.19
		c0.378,0.191,0.681,0.494,0.873,0.874C16.5,14.519,16.5,14.949,16.5,15.6V16.4c0,0.65,0,1.081-0.219,1.509
		c-0.191,0.378-0.494,0.681-0.874,0.873C14.981,19,14.551,19,13.9,19z M10.1,15c-0.278,0-0.566,0-0.648,0.02
		C9.5,15.033,9.5,15.321,9.5,15.6V16.4c0,0.278,0,0.566,0.02,0.648C9.534,17,9.822,17,10.1,17h3.8c0.278,0,0.565,0,0.647-0.02
		C14.5,16.966,14.5,16.679,14.5,16.4V15.6c0-0.278,0-0.565-0.02-0.647C14.466,15,14.179,15,13.9,15H10.1z M11.25,13h1.5v-0.75
		c0-0.414-0.336-0.75-0.75-0.75s-0.75,0.336-0.75,0.75V13z"/>
</g>
</svg>
