<?xml version="1.0" encoding="iso-8859-1"?>
<!-- Generator: Adobe Illustrator 27.4.0, SVG Export Plug-In . SVG Version: 6.00 Build 0)  -->
<svg version="1.1" id="Layer_1" xmlns="http://www.w3.org/2000/svg" xmlns:xlink="http://www.w3.org/1999/xlink" x="0px" y="0px"
	 viewBox="0 0 24 24" style="enable-background:new 0 0 24 24;" xml:space="preserve">
<g>
	<path d="M14,23H8.8c-1.838,0-2.76,0-3.616-0.437c-0.757-0.385-1.362-0.989-1.748-1.747C3,19.96,3,19.037,3,17.2V6.8
		c0-1.838,0-2.76,0.436-3.616c0.386-0.757,0.991-1.362,1.748-1.748C6.04,1,6.962,1,8.8,1h6.4c1.837,0,2.76,0,3.616,0.436
		c0.758,0.386,1.362,0.991,1.748,1.749C21,4.04,21,4.962,21,6.8v2.7c0,0.552-0.447,1-1,1s-1-0.448-1-1V6.8
		c0-1.47,0-2.28-0.218-2.708c-0.193-0.379-0.495-0.681-0.874-0.874C17.479,3,16.67,3,15.2,3H8.8C7.33,3,6.52,3,6.092,3.218
		C5.713,3.411,5.411,3.713,5.218,4.092C5,4.52,5,5.33,5,6.8v10.4c0,1.47,0,2.279,0.218,2.708c0.193,0.379,0.495,0.681,0.874,0.873
		C6.52,21,7.33,21,8.8,21H14c0.553,0,1,0.447,1,1S14.553,23,14,23z M18.66,22c-0.553,0-1.005-0.447-1.005-1s0.442-1,0.995-1h0.01
		c0.553,0,1,0.447,1,1S19.213,22,18.66,22z M18.621,19c-0.419,0-0.81-0.265-0.948-0.684c-0.175-0.524,0.108-1.091,0.632-1.265
		c0.544-0.186,1.564-0.759,1.564-1.3c0.001-0.296-0.104-0.582-0.294-0.808c-0.189-0.226-0.453-0.377-0.743-0.427
		c-0.29-0.047-0.589,0.005-0.845,0.154c-0.253,0.149-0.446,0.385-0.544,0.661c-0.183,0.521-0.751,0.8-1.274,0.612
		c-0.521-0.183-0.795-0.753-0.612-1.274c0.253-0.722,0.756-1.333,1.417-1.723c0.663-0.39,1.444-0.532,2.196-0.401
		c0.755,0.129,1.442,0.523,1.937,1.11c0.493,0.586,0.764,1.331,0.763,2.097c0,2.155-2.632,3.095-2.932,3.194
		C18.832,18.983,18.726,19,18.621,19z"/>
</g>
</svg>
