<?xml version="1.0" encoding="iso-8859-1"?>
<!-- Generator: Adobe Illustrator 27.4.0, SVG Export Plug-In . SVG Version: 6.00 Build 0)  -->
<svg version="1.1" id="Layer_1" xmlns="http://www.w3.org/2000/svg" xmlns:xlink="http://www.w3.org/1999/xlink" x="0px" y="0px"
	 viewBox="0 0 24 24" style="enable-background:new 0 0 24 24;" xml:space="preserve">
<g>
	<path d="M15.2,23H8.8c-1.838,0-2.76,0-3.616-0.437c-0.757-0.385-1.362-0.989-1.748-1.747C3,19.96,3,19.037,3,17.2V6.8
		c0-1.838,0-2.76,0.436-3.616c0.386-0.757,0.991-1.362,1.748-1.748C6.04,1,6.962,1,8.8,1H14c0.001,0,0.002,0,0.003,0l0,0
		c0.134,0,0.262,0.027,0.378,0.075c0.119,0.049,0.229,0.122,0.326,0.218l6,6c0.097,0.096,0.169,0.208,0.218,0.326
		C20.973,7.735,21,7.863,21,7.997l0,0C21,7.998,21,7.999,21,8v9.2c0,1.837,0,2.76-0.436,3.616c-0.386,0.758-0.99,1.362-1.749,1.748
		C17.96,23,17.037,23,15.2,23z M8.8,3C7.33,3,6.52,3,6.092,3.218C5.713,3.411,5.411,3.713,5.218,4.092C5,4.52,5,5.33,5,6.8v10.4
		c0,1.47,0,2.279,0.218,2.708c0.193,0.379,0.495,0.681,0.873,0.873C6.52,21,7.33,21,8.8,21h6.4c1.47,0,2.279,0,2.708-0.219
		c0.379-0.192,0.681-0.494,0.873-0.872C19,19.479,19,18.67,19,17.2V9h-5c-0.553,0-1-0.448-1-1V3H8.8z M15,7h2.586L15,4.414V7z
		 M12,19c-0.147,0-0.294-0.032-0.43-0.098C11.205,18.729,8,17.124,8,14.425v-2.502c0-0.422,0.266-0.799,0.664-0.941L10.85,10.2
		c0.74-0.265,1.557-0.266,2.299,0l2.188,0.781C15.734,11.124,16,11.5,16,11.923v2.502c0,2.699-3.205,4.304-3.57,4.478
		C12.294,18.968,12.147,19,12,19z M10,12.627v1.797c0,1.007,1.216,1.959,2,2.435c0.784-0.476,2-1.428,2-2.435v-1.797l-1.524-0.544
		c-0.309-0.111-0.647-0.11-0.953,0L10,12.627z"/>
</g>
</svg>
