<?xml version="1.0" encoding="iso-8859-1"?>
<!-- Generator: Adobe Illustrator 27.4.0, SVG Export Plug-In . SVG Version: 6.00 Build 0)  -->
<svg version="1.1" id="Layer_1" xmlns="http://www.w3.org/2000/svg" xmlns:xlink="http://www.w3.org/1999/xlink" x="0px" y="0px"
	 viewBox="0 0 24 24" style="enable-background:new 0 0 24 24;" xml:space="preserve">
<g>
	<path d="M10.5,23H8.8c-1.838,0-2.76,0-3.616-0.437c-0.757-0.385-1.362-0.989-1.748-1.747C3,19.96,3,19.037,3,17.2V6.8
		c0-1.838,0-2.76,0.436-3.616c0.386-0.757,0.991-1.362,1.748-1.748C6.04,1,6.962,1,8.8,1h6.4c1.837,0,2.76,0,3.616,0.436
		c0.758,0.386,1.362,0.991,1.748,1.749C21,4.04,21,4.962,21,6.8V10c0,0.552-0.447,1-1,1s-1-0.448-1-1V6.8c0-1.47,0-2.28-0.218-2.708
		c-0.193-0.379-0.495-0.681-0.874-0.874C17.479,3,16.67,3,15.2,3H8.8C7.33,3,6.52,3,6.092,3.218
		C5.713,3.411,5.411,3.713,5.218,4.092C5,4.52,5,5.33,5,6.8v10.4c0,1.47,0,2.279,0.218,2.708c0.193,0.379,0.495,0.681,0.873,0.873
		C6.52,21,7.33,21,8.8,21h1.7c0.552,0,1,0.447,1,1S11.052,23,10.5,23z M19.4,22H15.6c-0.65,0-1.081,0-1.509-0.219
		c-0.378-0.191-0.681-0.494-0.873-0.874C13,20.481,13,20.051,13,19.4V18.6c0-0.65,0-1.081,0.219-1.509
		c0.191-0.378,0.494-0.681,0.874-0.873c0.21-0.107,0.42-0.161,0.657-0.189V15.25c0-1.517,1.233-2.75,2.75-2.75s2.75,1.233,2.75,2.75
		v0.778c0.237,0.028,0.448,0.083,0.659,0.19c0.378,0.191,0.681,0.494,0.873,0.874C22,17.519,22,17.949,22,18.6V19.4
		c0,0.65,0,1.081-0.219,1.509c-0.191,0.378-0.494,0.681-0.874,0.873C20.481,22,20.051,22,19.4,22z M15.6,18
		c-0.278,0-0.565,0-0.647,0.02C15,18.034,15,18.321,15,18.6V19.4c0,0.278,0,0.565,0.02,0.647C15.034,20,15.321,20,15.6,20H19.4
		c0.278,0,0.565,0,0.647-0.02C20,19.966,20,19.679,20,19.4V18.6c0-0.278,0-0.565-0.02-0.647C19.966,18,19.679,18,19.4,18H15.6z
		 M16.75,16h1.5v-0.75c0-0.413-0.337-0.75-0.75-0.75s-0.75,0.337-0.75,0.75V16z M11,16H8c-0.552,0-1-0.447-1-1s0.448-1,1-1h3
		c0.552,0,1,0.447,1,1S11.552,16,11,16z M13,12H8c-0.552,0-1-0.448-1-1s0.448-1,1-1h5c0.553,0,1,0.448,1,1S13.553,12,13,12z M16,8H8
		C7.448,8,7,7.552,7,7s0.448-1,1-1h8c0.553,0,1,0.448,1,1S16.553,8,16,8z"/>
</g>
</svg>
