<?xml version="1.0" encoding="iso-8859-1"?>
<!-- Generator: Adobe Illustrator 27.4.0, SVG Export Plug-In . SVG Version: 6.00 Build 0)  -->
<svg version="1.1" id="Layer_1" xmlns="http://www.w3.org/2000/svg" xmlns:xlink="http://www.w3.org/1999/xlink" x="0px" y="0px"
	 viewBox="0 0 24 24" style="enable-background:new 0 0 24 24;" xml:space="preserve">
<g>
	<path d="M17.2,23H6.8c-1.838,0-2.76,0-3.616-0.437c-0.757-0.385-1.362-0.989-1.748-1.747C1,19.96,1,19.037,1,17.2V6.8
		c0-1.838,0-2.76,0.436-3.616c0.386-0.757,0.991-1.362,1.748-1.748C4.04,1,4.962,1,6.8,1h10.4c1.837,0,2.76,0,3.616,0.436
		c0.758,0.386,1.362,0.991,1.748,1.749C23,4.04,23,4.962,23,6.8v10.4c0,1.837,0,2.76-0.436,3.616
		c-0.386,0.758-0.99,1.362-1.749,1.748C19.96,23,19.037,23,17.2,23z M13,21h3v-3h-3V21z M8,21h3v-3H8V21z M18,18v2.998
		c0.977-0.007,1.565-0.041,1.908-0.217c0.379-0.192,0.681-0.494,0.873-0.872c0.176-0.344,0.21-0.933,0.217-1.909H18z M3.002,18
		c0.007,0.977,0.042,1.565,0.216,1.908c0.193,0.379,0.495,0.681,0.873,0.873c0.344,0.176,0.932,0.21,1.909,0.217V18H3.002z M13,16h8
		V8h-8V16z M3,16h8V8H3V16z M18,6h2.998c-0.007-0.977-0.041-1.565-0.216-1.908c-0.193-0.379-0.495-0.681-0.874-0.874
		C19.564,3.043,18.977,3.009,18,3.001V6z M13,6h3V3h-3V6z M8,6h3V3H8V6z M3.001,6H6V3.001C5.023,3.009,4.435,3.043,4.092,3.218
		C3.713,3.411,3.411,3.713,3.218,4.092C3.043,4.435,3.009,5.023,3.001,6z"/>
</g>
</svg>
