<?xml version="1.0" encoding="iso-8859-1"?>
<!-- Generator: Adobe Illustrator 27.4.0, SVG Export Plug-In . SVG Version: 6.00 Build 0)  -->
<svg version="1.1" id="Layer_1" xmlns="http://www.w3.org/2000/svg" xmlns:xlink="http://www.w3.org/1999/xlink" x="0px" y="0px"
	 viewBox="0 0 24 24" style="enable-background:new 0 0 24 24;" xml:space="preserve">
<g>
	<path d="M17.2,23H13.6c-0.651,0-1.081,0-1.509-0.219c-0.377-0.192-0.679-0.494-0.872-0.873c-0.144-0.281-0.193-0.563-0.209-0.908
		H6.8c-1.838,0-2.76,0-3.616-0.437c-0.757-0.385-1.362-0.989-1.748-1.747c-0.361-0.71-0.423-1.466-0.434-2.75
		C1.001,16.045,1,16.022,1,16c0-0.018,0-0.035,0.001-0.053C1,15.716,1,15.468,1,15.2V6.8c0-0.268,0-0.516,0.001-0.748
		C1,6.035,1,6.018,1,6c0-0.022,0.001-0.044,0.002-0.066c0.011-1.285,0.073-2.04,0.434-2.75c0.386-0.757,0.991-1.362,1.748-1.748
		C4.04,1,4.962,1,6.8,1h3.6c0.65,0,1.08,0,1.508,0.218c0.379,0.194,0.681,0.495,0.874,0.873c0.144,0.282,0.193,0.564,0.21,0.91H17.2
		c1.837,0,2.76,0,3.616,0.436c0.758,0.386,1.362,0.991,1.748,1.749c0.361,0.709,0.423,1.464,0.434,2.749C22.999,7.956,23,7.978,23,8
		c0,0.018,0,0.035-0.001,0.052C23,8.284,23,8.532,23,8.8v8.4c0,0.268,0,0.516-0.001,0.747C23,17.965,23,17.982,23,18
		c0,0.022-0.001,0.045-0.002,0.066c-0.011,1.284-0.072,2.04-0.434,2.75c-0.386,0.758-0.99,1.362-1.749,1.748
		C19.96,23,19.037,23,17.2,23z M13,20v0.4c0,0.278,0,0.566,0.02,0.648C13.034,21,13.321,21,13.6,21H16v-2h-3V20z M18,19v1.998
		c0.977-0.007,1.565-0.041,1.908-0.217c0.379-0.192,0.681-0.494,0.873-0.872c0.104-0.206,0.159-0.498,0.188-0.909H18z M8,19h3v-2H8
		V19z M3.031,17c0.028,0.41,0.083,0.703,0.188,0.908c0.193,0.379,0.495,0.681,0.873,0.873c0.344,0.176,0.932,0.21,1.909,0.217V17
		H3.031z M13,17h8V9h-8V17z M3,15h8V7H3V15z M18,7h2.969c-0.028-0.411-0.082-0.703-0.187-0.908
		c-0.193-0.379-0.495-0.681-0.874-0.874C19.564,5.043,18.977,5.009,18,5.001V7z M13,7h3V5h-3V7z M8,5h3V3.6
		c0-0.279,0-0.567-0.02-0.649C10.967,3,10.679,3,10.4,3H8V5z M3.031,5H6V3.001C5.023,3.009,4.435,3.043,4.092,3.218
		C3.713,3.411,3.411,3.713,3.218,4.092C3.114,4.297,3.059,4.589,3.031,5z"/>
</g>
</svg>
