<?xml version="1.0" encoding="iso-8859-1"?>
<!-- Generator: Adobe Illustrator 27.4.0, SVG Export Plug-In . SVG Version: 6.00 Build 0)  -->
<svg version="1.1" id="Layer_1" xmlns="http://www.w3.org/2000/svg" xmlns:xlink="http://www.w3.org/1999/xlink" x="0px" y="0px"
	 viewBox="0 0 24 24" style="enable-background:new 0 0 24 24;" xml:space="preserve">
<g>
	<path d="M9.971,21.759c-0.089,0-0.179-0.009-0.274-0.028c-0.383-0.078-0.729-0.312-0.946-0.639C8.5,20.714,8.5,20.338,8.5,19.818
		v-6.707c0-0.117,0.003-0.19-0.003-0.251c-0.02-0.009-0.071-0.061-0.146-0.146L2.641,6.334C1.726,5.312,1.267,4.798,1.238,4.079
		C1.213,3.46,1.484,2.854,1.963,2.458C2.515,2.002,3.2,2,4.559,2c0.006,0,0.013,0,0.019,0h14.843c1.384-0.043,2.062,0,2.616,0.459
		c0.477,0.392,0.748,0.998,0.725,1.618c-0.029,0.722-0.488,1.235-1.403,2.257l-5.706,6.377c-0.076,0.085-0.127,0.138-0.162,0.188
		c0.007,0.022,0.01,0.096,0.01,0.212v5.347c0,0.257,0,0.479-0.099,0.736c-0.075,0.207-0.212,0.411-0.39,0.574
		c-0.205,0.187-0.419,0.271-0.645,0.361l-3.399,1.36C10.59,21.641,10.294,21.759,9.971,21.759z M10.507,20.198h0.01H10.507z
		 M3.301,4.029C3.46,4.25,3.8,4.63,4.131,5l0,0l5.707,6.377c0.176,0.197,0.3,0.336,0.407,0.526c0.094,0.167,0.164,0.35,0.208,0.541
		c0.048,0.219,0.048,0.397,0.048,0.667v6.412l3-1.2v-5.212c0-0.27,0-0.448,0.047-0.66c0.044-0.197,0.114-0.379,0.21-0.549
		c0.106-0.19,0.231-0.33,0.404-0.524L19.868,5c0.331-0.37,0.671-0.75,0.83-0.971C20.428,4,19.918,4,19.421,4H4.578
		C4.082,4,3.572,4,3.301,4.029z M3.144,4.058L3.144,4.058L3.144,4.058z M20.855,4.057L20.855,4.057
		C20.855,4.057,20.855,4.057,20.855,4.057z M3.217,3.893L3.217,3.893L3.217,3.893z M20.782,3.892L20.782,3.892L20.782,3.892z"/>
</g>
</svg>
