<?xml version="1.0" encoding="iso-8859-1"?>
<!-- Generator: Adobe Illustrator 27.4.0, SVG Export Plug-In . SVG Version: 6.00 Build 0)  -->
<svg version="1.1" id="Layer_1" xmlns="http://www.w3.org/2000/svg" xmlns:xlink="http://www.w3.org/1999/xlink" x="0px" y="0px"
	 viewBox="0 0 24 24" style="enable-background:new 0 0 24 24;" xml:space="preserve">
<g>
	<path d="M9.971,21.759c-0.088,0-0.179-0.009-0.274-0.028c-0.387-0.079-0.724-0.305-0.945-0.636C8.5,20.712,8.5,20.337,8.5,19.818
		V13.23c0-0.139,0.004-0.227-0.005-0.298c-0.028-0.01-0.097-0.064-0.202-0.155L1.897,7.234c-0.244-0.211-0.402-0.349-0.547-0.56
		C1.219,6.481,1.125,6.274,1.066,6.053C1,5.801,1,5.59,1,5.27V4.6c0-0.65,0-1.08,0.218-1.508C1.412,2.713,1.713,2.412,2.09,2.219
		C2.52,2,2.95,2,3.6,2h16.8c0.65,0,1.08,0,1.508,0.218c0.379,0.193,0.681,0.496,0.874,0.875C23,3.519,23,3.949,23,4.6V5.27
		c0,0.321,0,0.533-0.066,0.785c-0.055,0.212-0.15,0.423-0.281,0.616c-0.145,0.213-0.305,0.351-0.545,0.561l-6.4,5.546
		c-0.104,0.09-0.173,0.144-0.221,0.197c0.01,0.031,0.014,0.118,0.014,0.256v5.228c0,0.254,0,0.474-0.094,0.727
		c-0.086,0.228-0.224,0.43-0.4,0.59c-0.199,0.181-0.413,0.266-0.639,0.355l-3.398,1.36C10.589,21.641,10.293,21.759,9.971,21.759z
		 M10.507,20.199h0.01H10.507z M9.87,19.767L9.87,19.767L9.87,19.767z M3.6,4C3.321,4,3.033,4,2.951,4.02C3,4.033,3,4.321,3,4.6
		V5.27c0,0.139-0.004,0.226,0.005,0.298C3.032,5.576,3.101,5.63,3.204,5.72l6.398,5.545c0.232,0.201,0.4,0.347,0.547,0.56
		c0.131,0.193,0.226,0.401,0.285,0.622C10.5,12.699,10.5,12.91,10.5,13.23v6.293l3-1.2V13.23c0-0.321,0-0.533,0.066-0.785
		c0.055-0.212,0.15-0.423,0.281-0.616c0.146-0.215,0.315-0.362,0.55-0.564l6.396-5.542c0.105-0.091,0.174-0.145,0.221-0.198
		C21.004,5.494,21,5.407,21,5.27V4.6c0-0.278,0-0.566-0.02-0.648C20.967,4,20.679,4,20.4,4H3.6z"/>
</g>
</svg>
