<?xml version="1.0" encoding="iso-8859-1"?>
<!-- Generator: Adobe Illustrator 27.4.0, SVG Export Plug-In . SVG Version: 6.00 Build 0)  -->
<svg version="1.1" id="Layer_1" xmlns="http://www.w3.org/2000/svg" xmlns:xlink="http://www.w3.org/1999/xlink" x="0px" y="0px"
	 viewBox="0 0 24 24" style="enable-background:new 0 0 24 24;" xml:space="preserve">
<g>
	<path d="M9.745,22.678c-0.093,0-0.188-0.013-0.282-0.04C5.657,21.521,3,17.969,3,14v-4c0-0.982,0.158-1.949,0.469-2.873
		C3.645,6.604,4.21,6.321,4.736,6.499c0.523,0.176,0.805,0.744,0.628,1.267C5.123,8.483,5,9.235,5,10v4
		c0,3.087,2.067,5.85,5.026,6.718c0.53,0.156,0.833,0.712,0.678,1.241C10.576,22.396,10.177,22.678,9.745,22.678z M14.736,22.52
		c-0.408,0-0.792-0.252-0.939-0.658c-0.189-0.519,0.078-1.093,0.598-1.281c2.062-0.751,3.673-2.452,4.308-4.551
		c0.16-0.529,0.721-0.828,1.246-0.668c0.529,0.159,0.828,0.718,0.668,1.246c-0.815,2.7-2.887,4.888-5.538,5.852
		C14.965,22.5,14.85,22.52,14.736,22.52z M12,19.5c-1.001,0-1.982-0.272-2.836-0.787c-0.473-0.285-0.625-0.899-0.34-1.373
		c0.285-0.474,0.899-0.627,1.373-0.34c0.543,0.327,1.167,0.5,1.804,0.5c1.93,0,3.5-1.57,3.5-3.5v-2.96c0-0.552,0.447-1,1-1
		s1,0.448,1,1V14C17.5,17.032,15.032,19.5,12,19.5z M12,15c-0.552,0-1-0.447-1-1v-4c0-0.552,0.448-1,1-1s1,0.448,1,1v4
		C13,14.553,12.552,15,12,15z M7.5,13.95c-0.552,0-1-0.447-1-1V10c0-3.033,2.467-5.5,5.5-5.5c1.004,0,1.986,0.273,2.843,0.791
		c0.473,0.286,0.624,0.9,0.338,1.373c-0.285,0.472-0.899,0.625-1.373,0.339C13.265,6.674,12.639,6.5,12,6.5
		c-1.93,0-3.5,1.57-3.5,3.5v2.95C8.5,13.503,8.052,13.95,7.5,13.95z M20,12.237c-0.553,0-1-0.448-1-1V10c0-3.86-3.141-7-7-7
		c-1.434,0-2.811,0.43-3.983,1.243C7.562,4.557,6.94,4.444,6.625,3.991S6.423,2.914,6.877,2.599C8.386,1.553,10.157,1,12,1
		c4.963,0,9,4.038,9,9v1.237C21,11.789,20.553,12.237,20,12.237z"/>
</g>
</svg>
