<?xml version="1.0" encoding="iso-8859-1"?>
<!-- Generator: Adobe Illustrator 27.4.0, SVG Export Plug-In . SVG Version: 6.00 Build 0)  -->
<svg version="1.1" id="Layer_1" xmlns="http://www.w3.org/2000/svg" xmlns:xlink="http://www.w3.org/1999/xlink" x="0px" y="0px"
	 viewBox="0 0 24 24" style="enable-background:new 0 0 24 24;" xml:space="preserve">
<g>
	<path d="M13.679,21.844c-0.15,0-0.303-0.034-0.447-0.105c-0.493-0.248-0.693-0.849-0.446-1.343c0.586-1.17,1.065-2.404,1.423-3.668
		c0.15-0.533,0.705-0.843,1.234-0.689c0.531,0.15,0.84,0.703,0.689,1.234c-0.393,1.385-0.917,2.736-1.559,4.02
		C14.398,21.642,14.046,21.844,13.679,21.844z M9.246,21.571c-0.182,0-0.366-0.05-0.532-0.153c-0.467-0.294-0.608-0.912-0.314-1.379
		C10.101,17.336,11,14.21,11,11c0-0.552,0.448-1,1-1s1,0.448,1,1c0,3.588-1.005,7.081-2.906,10.104
		C9.903,21.406,9.579,21.571,9.246,21.571z M5.802,19.474c-0.172,0-0.344-0.044-0.497-0.139c-0.467-0.291-0.639-0.861-0.35-1.329
		l0.851,0.524l-0.834-0.552C6.313,15.845,7,13.455,7,11c0-2.757,2.243-5,5-5s5,2.243,5,5c0,1.047-0.071,2.102-0.212,3.135
		c-0.074,0.548-0.578,0.926-1.126,0.856c-0.548-0.075-0.931-0.579-0.856-1.126C14.935,12.921,15,11.957,15,11c0-1.654-1.346-3-3-3
		s-3,1.346-3,3c0,2.833-0.792,5.59-2.292,7.974C6.511,19.287,6.155,19.474,5.802,19.474z M19.011,19.132
		c-0.091,0-0.183-0.012-0.274-0.038c-0.531-0.151-0.84-0.704-0.688-1.235C18.68,15.637,19,13.329,19,11c0-3.86-3.141-7-7-7
		c-1.23,0-2.441,0.324-3.5,0.936C8.023,5.212,7.412,5.049,7.134,4.571C6.858,4.093,7.021,3.481,7.5,3.205C8.862,2.417,10.418,2,12,2
		c4.963,0,9,4.038,9,9c0,2.514-0.346,5.006-1.028,7.405C19.847,18.845,19.446,19.132,19.011,19.132z M3,16.364
		c-0.147,0-0.295-0.032-0.437-0.101c-0.497-0.241-0.704-0.84-0.462-1.336C2.697,13.698,3,12.377,3,11c0-1.582,0.417-3.138,1.205-4.5
		c0.276-0.478,0.888-0.642,1.366-0.365S6.212,7.022,5.936,7.5C5.324,8.559,5,9.77,5,11c0,1.682-0.37,3.297-1.101,4.801
		C3.727,16.157,3.37,16.364,3,16.364z"/>
</g>
</svg>
