<?xml version="1.0" encoding="iso-8859-1"?>
<!-- Generator: Adobe Illustrator 27.4.0, SVG Export Plug-In . SVG Version: 6.00 Build 0)  -->
<svg version="1.1" id="Layer_1" xmlns="http://www.w3.org/2000/svg" xmlns:xlink="http://www.w3.org/1999/xlink" x="0px" y="0px"
	 viewBox="0 0 24 24" style="enable-background:new 0 0 24 24;" xml:space="preserve">
<g>
	<path d="M9.5,22.685c-0.082,0-0.166-0.01-0.25-0.031C4.393,21.403,1,17.022,1,12c0-1.967,0.526-3.897,1.52-5.583
		c0.281-0.476,0.893-0.634,1.37-0.353c0.476,0.281,0.634,0.894,0.353,1.37C3.43,8.812,3,10.391,3,12
		c0,4.109,2.775,7.694,6.749,8.716c0.535,0.138,0.857,0.683,0.719,1.218C10.353,22.385,9.946,22.685,9.5,22.685z M14.499,22.685
		c-0.445,0-0.852-0.3-0.968-0.751c-0.138-0.535,0.185-1.08,0.72-1.218c2.349-0.604,4.385-2.167,5.587-4.288
		c0.272-0.479,0.882-0.649,1.363-0.377c0.48,0.272,0.649,0.883,0.377,1.363c-1.469,2.591-3.958,4.5-6.829,5.239
		C14.666,22.675,14.582,22.685,14.499,22.685z M12,19c-0.834,0-1.649-0.146-2.423-0.432c-0.518-0.191-0.783-0.767-0.591-1.284
		c0.192-0.518,0.769-0.786,1.285-0.591C10.822,16.896,11.403,17,12,17c2.757,0,5-2.243,5-5c0-0.6-0.105-1.187-0.312-1.744
		c-0.192-0.518,0.071-1.093,0.589-1.286c0.52-0.19,1.094,0.071,1.286,0.589C18.853,10.34,19,11.162,19,12C19,15.859,15.859,19,12,19
		z M6.378,15.1c-0.405,0-0.786-0.248-0.937-0.649C5.148,13.668,5,12.844,5,12c0-3.86,3.14-7,7-7c0.839,0,1.659,0.147,2.438,0.437
		c0.518,0.192,0.781,0.769,0.589,1.286c-0.193,0.518-0.772,0.782-1.286,0.588C13.186,7.104,12.6,7,12,7c-2.757,0-5,2.243-5,5
		c0,0.604,0.106,1.191,0.314,1.749c0.194,0.518-0.069,1.094-0.586,1.287C6.613,15.079,6.495,15.1,6.378,15.1z M12,15
		c-0.552,0-1-0.447-1-1v-4c0-0.552,0.448-1,1-1s1,0.448,1,1v4C13,14.553,12.552,15,12,15z M22,13.1
		c-0.011,0-0.021-0.001-0.031-0.001c-0.552-0.017-0.985-0.478-0.97-1.029C21,7.038,16.963,3,12,3c-1.612,0-3.193,0.431-4.573,1.247
		c-0.474,0.281-1.088,0.124-1.37-0.352C5.776,3.419,5.934,2.806,6.41,2.525C8.097,1.527,10.03,1,12,1c6.065,0,11,4.935,11,11
		c0,0.01-0.001,0.119-0.001,0.129C22.982,12.671,22.538,13.099,22,13.1z"/>
</g>
</svg>
