<?xml version="1.0" encoding="iso-8859-1"?>
<!-- Generator: Adobe Illustrator 27.4.0, SVG Export Plug-In . SVG Version: 6.00 Build 0)  -->
<svg version="1.1" id="Layer_1" xmlns="http://www.w3.org/2000/svg" xmlns:xlink="http://www.w3.org/1999/xlink" x="0px" y="0px"
	 viewBox="0 0 24 24" style="enable-background:new 0 0 24 24;" xml:space="preserve">
<g>
	<path d="M8.101,22.221c-0.315,0-0.625-0.148-0.82-0.426c-1.562-2.229-2.389-4.85-2.389-7.576c0-3.92,3.188-7.109,7.106-7.109
		s7.107,3.189,7.107,7.109c0,0.553-0.447,1-1,1s-1-0.447-1-1c0-2.817-2.291-5.109-5.107-5.109c-2.815,0-5.106,2.292-5.106,5.109
		c0,2.313,0.701,4.536,2.026,6.428c0.317,0.452,0.208,1.076-0.245,1.394C8.5,22.162,8.299,22.221,8.101,22.221z"/>
</g>
<g>
	<path d="M8.101,22.221c-0.315,0-0.625-0.148-0.82-0.426c-1.562-2.23-2.389-4.851-2.389-7.576c0-3.92,3.188-7.109,7.106-7.109
		c3.919,0,7.106,3.189,7.106,7.109c0,0.553-0.447,1-1,1s-1-0.447-1-1c0-2.817-2.291-5.109-5.106-5.109
		c-2.816,0-5.106,2.292-5.106,5.109c0,2.313,0.701,4.536,2.026,6.428c0.317,0.453,0.208,1.076-0.245,1.394
		C8.5,22.162,8.299,22.221,8.101,22.221z"/>
</g>
<g>
	<path d="M18.107,21.328c-3.919,0-7.106-3.189-7.106-7.109c0-0.553,0.448-1,1-1s1,0.447,1,1c0,2.817,2.291,5.109,5.106,5.109
		c0.062,0,0.122-0.005,0.184-0.009l0.145,0.992l-0.008,1.003C18.321,21.321,18.215,21.328,18.107,21.328z"/>
</g>
<g>
	<path d="M18.107,21.328c-3.919,0-7.106-3.189-7.106-7.109c0-0.553,0.448-1,1-1s1,0.447,1,1c0,2.817,2.291,5.109,5.106,5.109
		c0.062,0,0.122-0.005,0.183-0.009l0.146,0.992l-0.01,1.003C18.32,21.321,18.215,21.328,18.107,21.328z"/>
</g>
<g>
	<path d="M13.269,23c-0.181,0-0.364-0.049-0.528-0.151c-3.001-1.872-4.793-5.098-4.793-8.63c0-2.236,1.818-4.055,4.053-4.055
		c2.236,0,4.054,1.819,4.054,4.055c0,1.133,0.921,2.055,2.054,2.055c1.132,0,2.053-0.922,2.053-2.055c0-4.501-3.66-8.164-8.16-8.164
		c-4.499,0-8.16,3.663-8.16,8.164c0,1.022,0.113,2.056,0.335,3.072c0.118,0.539-0.224,1.072-0.763,1.19
		c-0.541,0.117-1.072-0.223-1.191-0.763c-0.253-1.156-0.381-2.334-0.381-3.5c0-5.604,4.558-10.164,10.16-10.164
		s10.16,4.56,10.16,10.164c0,2.235-1.818,4.055-4.053,4.055c-2.235,0-4.054-1.819-4.054-4.055c0-1.133-0.922-2.055-2.054-2.055
		s-2.053,0.922-2.053,2.055c0,2.837,1.44,5.429,3.852,6.933c0.469,0.292,0.611,0.909,0.319,1.378C13.929,22.833,13.603,23,13.269,23
		z"/>
</g>
<g>
	<path d="M13.269,23c-0.181,0-0.364-0.049-0.528-0.151c-3.001-1.872-4.793-5.098-4.793-8.63c0-2.236,1.818-4.055,4.053-4.055
		c2.236,0,4.054,1.819,4.054,4.055c0,1.133,0.921,2.055,2.054,2.055c1.132,0,2.053-0.922,2.053-2.055c0-4.501-3.66-8.164-8.16-8.164
		c-4.499,0-8.16,3.663-8.16,8.164c0,1.022,0.113,2.056,0.335,3.072c0.118,0.539-0.224,1.072-0.763,1.19
		c-0.541,0.117-1.072-0.223-1.191-0.763c-0.253-1.156-0.381-2.334-0.381-3.5c0-5.604,4.558-10.164,10.16-10.164
		s10.16,4.56,10.16,10.164c0,2.235-1.818,4.055-4.053,4.055c-2.235,0-4.054-1.819-4.054-4.055c0-1.133-0.922-2.055-2.054-2.055
		s-2.053,0.922-2.053,2.055c0,2.837,1.44,5.429,3.852,6.933c0.469,0.292,0.611,0.909,0.319,1.378C13.929,22.833,13.603,23,13.269,23
		z"/>
</g>
<g>
	<path d="M20.525,6.863c-0.277,0-0.553-0.115-0.751-0.339C17.804,4.285,14.97,3,12,3C9.03,3,6.196,4.285,4.225,6.524
		C3.861,6.938,3.229,6.98,2.814,6.614c-0.415-0.365-0.455-0.997-0.09-1.411C5.075,2.532,8.456,1,12,1
		c3.545,0,6.926,1.532,9.276,4.203c0.364,0.415,0.324,1.046-0.09,1.411C20.996,6.781,20.761,6.863,20.525,6.863z"/>
</g>
<g>
	<path d="M20.525,6.863c-0.277,0-0.553-0.115-0.751-0.339C17.804,4.285,14.97,3,12,3C9.03,3,6.196,4.285,4.225,6.524
		C3.861,6.938,3.229,6.98,2.814,6.614c-0.415-0.365-0.455-0.997-0.09-1.411C5.075,2.532,8.456,1,12,1
		c3.545,0,6.926,1.532,9.276,4.203c0.364,0.415,0.324,1.046-0.09,1.411C20.996,6.781,20.761,6.863,20.525,6.863z"/>
</g>
</svg>
