<?xml version="1.0" encoding="iso-8859-1"?>
<!-- Generator: Adobe Illustrator 27.4.0, SVG Export Plug-In . SVG Version: 6.00 Build 0)  -->
<svg version="1.1" id="Layer_1" xmlns="http://www.w3.org/2000/svg" xmlns:xlink="http://www.w3.org/1999/xlink" x="0px" y="0px"
	 viewBox="0 0 24 24" style="enable-background:new 0 0 24 24;" xml:space="preserve">
<g>
	<path d="M3,22c-0.552,0-1-0.447-1-1V3.5c0-0.079,0.009-0.155,0.026-0.229c0.027-0.246,0.081-0.463,0.191-0.679
		C2.412,2.213,2.713,1.912,3.09,1.719C3.52,1.5,3.95,1.5,4.6,1.5h7.3c0.65,0,1.08,0,1.508,0.218
		c0.379,0.193,0.681,0.496,0.874,0.875C14.5,3.019,14.5,3.449,14.5,4.1v1.4h5.206c0.557,0,0.958,0,1.346,0.271
		c0.334,0.234,0.562,0.601,0.623,1.006c0.07,0.471-0.11,0.831-0.36,1.329l-1.209,2.419l1.309,2.943
		c0.218,0.489,0.375,0.843,0.293,1.298c-0.069,0.391-0.3,0.746-0.631,0.973C20.691,16,20.305,16,19.769,16H12.1
		c-0.651,0-1.081,0-1.51-0.219c-0.377-0.192-0.679-0.494-0.872-0.873C9.5,14.48,9.5,14.051,9.5,13.4V12H4v9C4,21.553,3.552,22,3,22z
		 M11.5,12v1.4c0,0.278,0,0.566,0.02,0.648C11.534,14,11.822,14,12.1,14h7.361l-1.222-2.749c-0.075-0.168-0.14-0.314-0.17-0.516
		c-0.026-0.172-0.021-0.349,0.014-0.521c0.042-0.202,0.115-0.347,0.192-0.501L19.382,7.5H14.5v1.9c0,0.651,0,1.081-0.219,1.51
		c-0.192,0.377-0.494,0.679-0.873,0.872C12.98,12,12.55,12,11.9,12H11.5z M4,10h7.9c0.279,0,0.567,0,0.649-0.02
		C12.5,9.966,12.5,9.678,12.5,9.4V4.1c0-0.278,0-0.566-0.02-0.648C12.467,3.5,12.179,3.5,11.9,3.5H4.6c-0.238,0-0.482,0-0.6,0.012
		V10z"/>
</g>
</svg>
