<?xml version="1.0" encoding="iso-8859-1"?>
<!-- Generator: Adobe Illustrator 27.4.0, SVG Export Plug-In . SVG Version: 6.00 Build 0)  -->
<svg version="1.1" id="Layer_1" xmlns="http://www.w3.org/2000/svg" xmlns:xlink="http://www.w3.org/1999/xlink" x="0px" y="0px"
	 viewBox="0 0 24 24" style="enable-background:new 0 0 24 24;" xml:space="preserve">
<g>
	<path d="M4,22c-0.552,0-1-0.447-1-1V4c0-0.079,0.009-0.155,0.026-0.229c0.027-0.246,0.081-0.463,0.191-0.679
		C3.412,2.713,3.713,2.412,4.09,2.219C4.52,2,4.95,2,5.6,2h5.8c0.65,0,1.08,0,1.508,0.218c0.379,0.194,0.68,0.495,0.874,0.873
		c0.144,0.282,0.193,0.564,0.21,0.91H19.4c0.65,0,1.08,0,1.508,0.218c0.379,0.193,0.681,0.496,0.874,0.875C22,5.519,22,5.949,22,6.6
		v6.8c0,0.65,0,1.081-0.219,1.509c-0.191,0.378-0.494,0.681-0.874,0.873C20.481,16,20.051,16,19.4,16H14.6
		c-0.65,0-1.081,0-1.509-0.219c-0.377-0.191-0.68-0.494-0.873-0.874c-0.145-0.283-0.193-0.567-0.209-0.916
		C11.826,14,11.626,14,11.4,14H5v7C5,21.553,4.552,22,4,22z M14,11.4v2c0,0.278,0,0.565,0.02,0.647C14.034,14,14.321,14,14.6,14
		H19.4c0.278,0,0.565,0,0.647-0.02C20,13.966,20,13.679,20,13.4V6.6c0-0.278,0-0.566-0.02-0.648C19.967,6,19.679,6,19.4,6H14V11.4z
		 M5,12h6.4c0.238,0,0.482,0,0.6-0.012V4.6c0-0.279,0-0.567-0.02-0.649C11.967,4,11.679,4,11.4,4H5.6C5.362,4,5.118,4,5,4.012V12z"
		/>
</g>
</svg>
