<?xml version="1.0" encoding="iso-8859-1"?>
<!-- Generator: Adobe Illustrator 27.4.0, SVG Export Plug-In . SVG Version: 6.00 Build 0)  -->
<svg version="1.1" id="Layer_1" xmlns="http://www.w3.org/2000/svg" xmlns:xlink="http://www.w3.org/1999/xlink" x="0px" y="0px"
	 viewBox="0 0 24 24" style="enable-background:new 0 0 24 24;" xml:space="preserve">
<g>
	<path d="M4,22c-0.552,0-1-0.447-1-1V3c0-0.552,0.448-1,1-1h15.587c0.594,0,1.023,0,1.42,0.292c0.345,0.253,0.565,0.645,0.604,1.073
		c0.046,0.483-0.173,0.849-0.476,1.355L19.166,8l1.965,3.274c0.307,0.513,0.525,0.878,0.479,1.368
		c-0.037,0.422-0.258,0.813-0.605,1.067C20.61,14,20.181,14,19.587,14H5v7C5,21.553,4.552,22,4,22z M5,12h14.234L17.39,8.926
		c-0.118-0.197-0.219-0.365-0.271-0.603c-0.047-0.211-0.047-0.435,0-0.646c0.053-0.238,0.153-0.406,0.27-0.601L19.234,4H5V12z
		 M20.05,4.01L20.05,4.01L20.05,4.01z"/>
</g>
</svg>
