<?xml version="1.0" encoding="iso-8859-1"?>
<!-- Generator: Adobe Illustrator 27.4.0, SVG Export Plug-In . SVG Version: 6.00 Build 0)  -->
<svg version="1.1" id="Layer_1" xmlns="http://www.w3.org/2000/svg" xmlns:xlink="http://www.w3.org/1999/xlink" x="0px" y="0px"
	 viewBox="0 0 24 24" style="enable-background:new 0 0 24 24;" xml:space="preserve">
<g>
	<path d="M4,23c-0.552,0-1-0.447-1-1V2c0-0.552,0.448-1,1-1s1,0.448,1,1v0.394C5.72,2.172,6.699,2,8,2
		c1.692,0,3.054,0.545,4.372,1.071C13.565,3.549,14.692,4,16,4c2.444,0,3.31-0.724,3.318-0.731c0.296-0.255,0.726-0.329,1.084-0.166
		C20.758,3.266,21,3.609,21,4v11c0,0.266-0.105,0.52-0.293,0.707C20.491,15.923,19.25,17,16,17c-1.692,0-3.054-0.545-4.372-1.071
		C10.435,15.451,9.308,15,8,15c-1.633,0-2.561,0.323-3,0.54V22C5,22.553,4.552,23,4,23z M8,13c1.692,0,3.054,0.545,4.372,1.071
		C13.565,14.549,14.692,15,16,15c1.633,0,2.562-0.323,3-0.54V5.606C18.279,5.828,17.301,6,16,6c-1.692,0-3.054-0.545-4.372-1.071
		C10.435,4.451,9.308,4,8,4C6.367,4,5.439,4.323,5,4.54v8.854C5.72,13.173,6.699,13,8,13z"/>
</g>
</svg>
