<?xml version="1.0" encoding="iso-8859-1"?>
<!-- Generator: Adobe Illustrator 27.4.0, SVG Export Plug-In . SVG Version: 6.00 Build 0)  -->
<svg version="1.1" id="Layer_1" xmlns="http://www.w3.org/2000/svg" xmlns:xlink="http://www.w3.org/1999/xlink" x="0px" y="0px"
	 viewBox="0 0 24 24" style="enable-background:new 0 0 24 24;" xml:space="preserve">
<g>
	<path d="M4,23c-0.552,0-1-0.447-1-1V3c0-0.265,0.105-0.52,0.293-0.707C3.509,2.077,4.75,1,8,1c1.692,0,3.054,0.545,4.372,1.071
		C13.565,2.549,14.692,3,16,3c2.444,0,3.31-0.724,3.318-0.731c0.296-0.256,0.726-0.328,1.084-0.166C20.758,2.266,21,2.609,21,3v12
		c0,0.266-0.105,0.52-0.293,0.707C20.491,15.923,19.25,17,16,17c-1.692,0-3.054-0.545-4.372-1.071C10.435,15.451,9.308,15,8,15
		c-1.633,0-2.561,0.323-3,0.54V22C5,22.553,4.552,23,4,23z M8,13c1.692,0,3.054,0.545,4.372,1.071C13.565,14.549,14.692,15,16,15
		c1.633,0,2.562-0.323,3-0.54V4.606C18.279,4.828,17.301,5,16,5c-1.692,0-3.054-0.545-4.372-1.071C10.435,3.451,9.308,3,8,3
		C6.367,3,5.439,3.323,5,3.54v9.854C5.72,13.173,6.699,13,8,13z"/>
</g>
</svg>
