<?xml version="1.0" encoding="iso-8859-1"?>
<!-- Generator: Adobe Illustrator 27.4.0, SVG Export Plug-In . SVG Version: 6.00 Build 0)  -->
<svg version="1.1" id="Layer_1" xmlns="http://www.w3.org/2000/svg" xmlns:xlink="http://www.w3.org/1999/xlink" x="0px" y="0px"
	 viewBox="0 0 24 24" style="enable-background:new 0 0 24 24;" xml:space="preserve">
<g>
	<path d="M7.249,22.5c-0.448,0-0.855-0.303-0.969-0.758L2.058,4.854c0-0.001,0-0.002-0.001-0.003l-0.03-0.12
		c-0.201-0.802-0.321-1.286-0.158-1.82c0.145-0.47,0.456-0.868,0.875-1.122C3.222,1.5,3.722,1.5,4.549,1.5h7.962
		c0.651,0,1.081,0,1.508,0.218c0.38,0.195,0.682,0.497,0.874,0.875c0.218,0.427,0.218,0.857,0.218,1.508v1.622h5.029
		c0.577,0,0.993,0,1.386,0.283c0.343,0.246,0.567,0.628,0.614,1.048c0.057,0.471-0.143,0.832-0.42,1.331l-1.423,2.561l1.416,2.549
		c0.283,0.511,0.484,0.871,0.425,1.353c-0.045,0.41-0.27,0.792-0.613,1.039c-0.39,0.282-0.808,0.282-1.385,0.282h-7.596
		c-0.651,0-1.081,0-1.509-0.219c-0.377-0.191-0.68-0.495-0.873-0.875c-0.218-0.426-0.218-0.856-0.218-1.507v-1.622H5.892
		l2.328,9.313c0.134,0.535-0.192,1.078-0.728,1.212C7.411,22.49,7.33,22.5,7.249,22.5z M11.944,11.944v1.622
		c0,0.278,0,0.565,0.019,0.647c0.015-0.047,0.303-0.047,0.581-0.047h7.256l-1.305-2.348c-0.103-0.185-0.192-0.345-0.239-0.57
		c-0.041-0.203-0.041-0.406,0-0.606c0.047-0.228,0.137-0.388,0.239-0.573l1.305-2.347h-4.689v1.622c0,0.651,0,1.081-0.219,1.51
		c-0.189,0.372-0.5,0.682-0.872,0.872c-0.429,0.218-0.858,0.218-1.509,0.218H11.944z M5.392,9.944h7.119c0.279,0,0.567,0,0.649-0.02
		c-0.049-0.014-0.049-0.302-0.049-0.581V4.1c0-0.278,0-0.566-0.02-0.648C13.078,3.5,12.79,3.5,12.511,3.5H4.549
		c-0.292,0-0.593,0-0.749,0.016c0.022,0.155,0.096,0.446,0.167,0.73L5.392,9.944z"/>
</g>
</svg>
