<?xml version="1.0" encoding="iso-8859-1"?>
<!-- Generator: Adobe Illustrator 27.4.0, SVG Export Plug-In . SVG Version: 6.00 Build 0)  -->
<svg version="1.1" id="Layer_1" xmlns="http://www.w3.org/2000/svg" xmlns:xlink="http://www.w3.org/1999/xlink" x="0px" y="0px"
	 viewBox="0 0 24 24" style="enable-background:new 0 0 24 24;" xml:space="preserve">
<g>
	<path d="M11,23c-0.134,0-0.269-0.027-0.397-0.083c-0.407-0.177-0.649-0.601-0.594-1.041L10.867,15H4.708
		c-0.706,0-1.172,0-1.584-0.335c-0.359-0.29-0.562-0.723-0.556-1.186c0.009-0.533,0.306-0.89,0.756-1.43l3.323-3.988L2.293,3.707
		c-0.391-0.391-0.391-1.023,0-1.414s1.023-0.391,1.414,0l4.994,4.993c0.005,0.005,0.01,0.01,0.015,0.015l7.985,7.985
		c0.005,0.005,0.011,0.01,0.016,0.015l4.991,4.992c0.391,0.391,0.391,1.023,0,1.414s-1.023,0.391-1.414,0l-4.226-4.226l-4.299,5.159
		C11.574,22.873,11.29,23,11,23z M12.961,14.375l-0.545,4.364l2.232-2.678L12.961,14.375z M5.135,13h6.451L8.067,9.481L5.135,13z
		 M18.549,13.94c-0.226,0-0.452-0.076-0.639-0.232c-0.425-0.354-0.482-0.984-0.129-1.408l1.083-1.3H15.65c-0.553,0-1-0.448-1-1
		s0.447-1,1-1h3.642c0.705,0,1.171,0,1.584,0.333c0.359,0.291,0.562,0.723,0.557,1.187c-0.009,0.536-0.308,0.893-0.759,1.433
		l-1.355,1.627C19.12,13.817,18.836,13.94,18.549,13.94z M12.402,7.798c-0.042,0-0.083-0.002-0.125-0.008
		c-0.548-0.068-0.937-0.568-0.868-1.116l0.177-1.414l-0.244,0.292c-0.353,0.425-0.984,0.481-1.408,0.128S9.451,4.697,9.805,4.272
		l2.427-2.913c0.285-0.342,0.76-0.453,1.167-0.277c0.407,0.177,0.648,0.601,0.594,1.042l-0.6,4.798
		C13.329,7.428,12.898,7.798,12.402,7.798z"/>
</g>
</svg>
