<?xml version="1.0" encoding="iso-8859-1"?>
<!-- Generator: Adobe Illustrator 27.4.0, SVG Export Plug-In . SVG Version: 6.00 Build 0)  -->
<svg version="1.1" id="Layer_1" xmlns="http://www.w3.org/2000/svg" xmlns:xlink="http://www.w3.org/1999/xlink" x="0px" y="0px"
	 viewBox="0 0 24 24" style="enable-background:new 0 0 24 24;" xml:space="preserve">
<g>
	<path d="M16.5,19H12c-0.552,0-1-0.447-1-1s0.448-1,1-1h4.5c1.93,0,3.5-1.57,3.5-3.5S18.43,10,16.5,10H5.414l2.293,2.293
		c0.391,0.391,0.391,1.023,0,1.414s-1.023,0.391-1.414,0l-4-4C2.197,9.611,2.124,9.5,2.075,9.381C2.027,9.265,2,9.137,2,9.003l0,0
		c0-0.002,0-0.004,0-0.006l0,0c0-0.134,0.027-0.262,0.075-0.378C2.124,8.5,2.197,8.389,2.293,8.293l4-4
		c0.391-0.391,1.023-0.391,1.414,0s0.391,1.023,0,1.414L5.414,8H16.5c3.032,0,5.5,2.467,5.5,5.5C22,16.532,19.532,19,16.5,19z"/>
</g>
</svg>
