<?xml version="1.0" encoding="iso-8859-1"?>
<!-- Generator: Adobe Illustrator 27.4.0, SVG Export Plug-In . SVG Version: 6.00 Build 0)  -->
<svg version="1.1" id="Layer_1" xmlns="http://www.w3.org/2000/svg" xmlns:xlink="http://www.w3.org/1999/xlink" x="0px" y="0px"
	 viewBox="0 0 24 24" style="enable-background:new 0 0 24 24;" xml:space="preserve">
<g>
	<path d="M17.2,22H6.8c-1.838,0-2.76,0-3.616-0.437c-0.757-0.385-1.362-0.989-1.748-1.747C1,18.96,1,18.037,1,16.2v-10
		c0-1.238,0-1.92,0.327-2.562C1.617,3.07,2.07,2.617,2.637,2.327C3.28,2,3.962,2,5.2,2h3.822c0.802,0,1.244,0,1.72,0.164
		c0.417,0.144,0.805,0.384,1.121,0.693c0.359,0.352,0.557,0.748,0.916,1.465L13.618,6H17.2c1.837,0,2.76,0,3.616,0.436
		c0.758,0.386,1.362,0.991,1.748,1.749C23,9.04,23,9.962,23,11.8v4.4c0,1.837,0,2.76-0.436,3.616
		c-0.386,0.758-0.99,1.362-1.749,1.748C19.96,22,19.037,22,17.2,22z M3,8v8.2c0,1.47,0,2.279,0.218,2.708
		c0.193,0.379,0.495,0.681,0.873,0.873C4.52,20,5.33,20,6.8,20h10.4c1.47,0,2.279,0,2.708-0.219
		c0.379-0.192,0.681-0.494,0.873-0.872C21,18.479,21,17.67,21,16.2v-4.4c0-1.47,0-2.28-0.218-2.708
		c-0.193-0.379-0.495-0.681-0.874-0.874C19.479,8,18.67,8,17.2,8h-4.179c-0.014,0.001-0.027,0-0.042,0H3z M3,6h8.382L10.99,5.216
		c-0.253-0.507-0.406-0.813-0.526-0.931c-0.105-0.103-0.234-0.183-0.374-0.231C9.932,4,9.589,4,9.022,4H5.2
		C4.333,4,3.76,4,3.545,4.109c-0.186,0.095-0.341,0.25-0.437,0.438C3.009,4.743,3,5.244,3,6z M12,18.5
		c-0.147,0-0.294-0.032-0.43-0.098C11.205,18.229,8,16.624,8,13.925v-2.502C8,11,8.266,10.624,8.664,10.481L10.85,9.7
		c0.74-0.265,1.557-0.265,2.299,0l2.188,0.781C15.734,10.624,16,11,16,11.423v2.502c0,2.699-3.205,4.304-3.57,4.478
		C12.294,18.468,12.147,18.5,12,18.5z M10,12.127v1.797c0,1.007,1.216,1.959,2,2.435c0.784-0.476,2-1.428,2-2.435v-1.797
		l-1.524-0.544c-0.309-0.111-0.647-0.109-0.953,0L10,12.127z"/>
</g>
</svg>
