<?xml version="1.0" encoding="iso-8859-1"?>
<!-- Generator: Adobe Illustrator 27.4.0, SVG Export Plug-In . SVG Version: 6.00 Build 0)  -->
<svg version="1.1" id="Layer_1" xmlns="http://www.w3.org/2000/svg" xmlns:xlink="http://www.w3.org/1999/xlink" x="0px" y="0px"
	 viewBox="0 0 24 24" style="enable-background:new 0 0 24 24;" xml:space="preserve">
<g>
	<path d="M17.2,22H6.8c-1.838,0-2.76,0-3.616-0.437c-0.757-0.385-1.362-0.989-1.748-1.747C1,18.96,1,18.037,1,16.2v-10
		c0-1.238,0-1.92,0.327-2.562C1.617,3.07,2.07,2.617,2.637,2.327C3.28,2,3.962,2,5.2,2h3.822c0.802,0,1.244,0,1.72,0.164
		c0.417,0.144,0.805,0.384,1.121,0.693c0.359,0.352,0.557,0.748,0.916,1.465L13.618,6H17.2c1.837,0,2.76,0,3.616,0.436
		c0.758,0.386,1.362,0.991,1.748,1.749C23,9.04,23,9.962,23,11.8v4.4c0,1.837,0,2.76-0.436,3.616
		c-0.386,0.758-0.99,1.362-1.749,1.748C19.96,22,19.037,22,17.2,22z M3,8v8.2c0,1.47,0,2.279,0.218,2.708
		c0.193,0.379,0.495,0.681,0.873,0.873C4.52,20,5.33,20,6.8,20h10.4c1.47,0,2.279,0,2.708-0.219
		c0.379-0.192,0.681-0.494,0.873-0.872C21,18.479,21,17.67,21,16.2v-4.4c0-1.47,0-2.28-0.218-2.708
		c-0.193-0.379-0.495-0.681-0.874-0.874C19.479,8,18.67,8,17.2,8h-4.179c-0.014,0.001-0.027,0-0.042,0H3z M3,6h8.382L10.99,5.216
		c-0.253-0.507-0.406-0.813-0.526-0.931c-0.105-0.103-0.234-0.183-0.374-0.231C9.932,4,9.589,4,9.022,4H5.2
		C4.333,4,3.76,4,3.545,4.109c-0.186,0.095-0.341,0.25-0.437,0.438C3.009,4.743,3,5.244,3,6z M13.9,18.5h-3.8
		c-0.651,0-1.081,0-1.51-0.219c-0.377-0.192-0.679-0.494-0.872-0.873C7.5,16.98,7.5,16.551,7.5,15.9V15.1c0-0.65,0-1.08,0.218-1.508
		c0.193-0.379,0.496-0.681,0.875-0.874c0.21-0.107,0.42-0.162,0.658-0.189V11.75C9.25,10.233,10.483,9,12,9s2.75,1.233,2.75,2.75
		v0.779c0.237,0.028,0.448,0.083,0.659,0.19c0.378,0.191,0.681,0.494,0.873,0.874C16.5,14.019,16.5,14.449,16.5,15.1V15.9
		c0,0.65,0,1.081-0.219,1.509c-0.191,0.378-0.494,0.681-0.874,0.873C14.981,18.5,14.551,18.5,13.9,18.5z M10.1,14.5
		c-0.278,0-0.566,0-0.648,0.02C9.5,14.533,9.5,14.821,9.5,15.1V15.9c0,0.278,0,0.566,0.02,0.648C9.534,16.5,9.822,16.5,10.1,16.5
		h3.8c0.278,0,0.565,0,0.647-0.02C14.5,16.466,14.5,16.179,14.5,15.9V15.1c0-0.278,0-0.565-0.02-0.647
		C14.466,14.5,14.179,14.5,13.9,14.5H10.1z M11.25,12.5h1.5v-0.75c0-0.414-0.336-0.75-0.75-0.75s-0.75,0.336-0.75,0.75V12.5z"/>
</g>
</svg>
