<?xml version="1.0" encoding="iso-8859-1"?>
<!-- Generator: Adobe Illustrator 27.4.0, SVG Export Plug-In . SVG Version: 6.00 Build 0)  -->
<svg version="1.1" id="Layer_1" xmlns="http://www.w3.org/2000/svg" xmlns:xlink="http://www.w3.org/1999/xlink" x="0px" y="0px"
	 viewBox="0 0 24 24" style="enable-background:new 0 0 24 24;" xml:space="preserve">
<g>
	<path d="M12,23.5c-0.26,0-0.516-0.102-0.707-0.293l-7-7C4.197,16.11,4.124,16,4.075,15.881C4.027,15.765,4,15.637,4,15.503l0,0
		c0-0.001,0-0.002,0-0.003v-7c0-0.552,0.448-1,1-1h4.586L4.293,2.207c-0.286-0.286-0.372-0.716-0.217-1.09
		C4.231,0.744,4.596,0.5,5,0.5h14c0.553,0,1,0.448,1,1v7c0,0.552-0.447,1-1,1h-4.586l5.293,5.293
		c0.286,0.286,0.372,0.716,0.217,1.09C19.77,16.257,19.404,16.5,19,16.5h-6v6c0,0.404-0.244,0.77-0.617,0.924
		C12.259,23.476,12.129,23.5,12,23.5z M7.414,16.5L11,20.086V16.5H7.414z M6,14.5h10.586l-5-5H6V14.5z M12.414,7.5H18v-5H7.414
		L12.414,7.5z"/>
</g>
</svg>
