<?xml version="1.0" encoding="iso-8859-1"?>
<!-- Generator: Adobe Illustrator 27.4.0, SVG Export Plug-In . SVG Version: 6.00 Build 0)  -->
<svg version="1.1" id="Layer_1" xmlns="http://www.w3.org/2000/svg" xmlns:xlink="http://www.w3.org/1999/xlink" x="0px" y="0px"
	 viewBox="0 0 24 24" style="enable-background:new 0 0 24 24;" xml:space="preserve">
<g>
	<path d="M18.866,20c-1.165,0-2.262-0.514-3.009-1.409l-0.376-0.451c-0.317-0.382-0.463-0.555-0.589-0.662
		c-0.274-0.232-0.605-0.388-0.957-0.448C13.766,17,13.525,17,13.048,17h-2.095c-0.478,0-0.718,0-0.886,0.029
		c-0.355,0.061-0.686,0.216-0.959,0.448c-0.129,0.109-0.282,0.293-0.585,0.657L8.144,18.59C7.396,19.486,6.299,20,5.133,20
		c-1.083,0-2.128-0.455-2.867-1.248c-0.739-0.793-1.118-1.868-1.041-2.949l0.246-3.444c0.198-2.766,0.297-4.155,0.98-5.346
		C3.057,5.96,3.954,5.125,5.047,4.597C6.283,4,7.675,4,10.449,4h3.102c2.774,0,4.166,0,5.402,0.597
		c1.094,0.528,1.991,1.363,2.595,2.416c0.684,1.191,0.783,2.58,0.979,5.346l0.246,3.444c0.078,1.081-0.301,2.155-1.04,2.949
		C20.995,19.545,19.95,20,18.866,20z M10.953,15h2.095c0.574,0,0.89,0,1.228,0.059c0.703,0.12,1.365,0.431,1.912,0.896
		c0.263,0.224,0.465,0.466,0.831,0.906l0.375,0.45c0.71,0.85,2.122,0.891,2.876,0.078c0.367-0.394,0.548-0.906,0.51-1.443
		l-0.246-3.444c-0.176-2.462-0.264-3.698-0.72-4.493c-0.402-0.701-1.001-1.258-1.729-1.61C17.26,6,16.021,6,13.551,6h-3.102
		C7.98,6,6.741,6,5.917,6.398C5.188,6.75,4.589,7.307,4.187,8.009c-0.456,0.794-0.544,2.03-0.72,4.493l-0.246,3.444
		c-0.039,0.537,0.143,1.05,0.509,1.444c0.756,0.811,2.167,0.771,2.877-0.08l0.375-0.449c0.37-0.444,0.571-0.686,0.831-0.906
		c0.546-0.465,1.208-0.774,1.914-0.896C10.062,15,10.378,15,10.953,15z M8,14c-0.552,0-1-0.447-1-1v-1H6c-0.552,0-1-0.448-1-1
		s0.448-1,1-1h1V9c0-0.552,0.448-1,1-1s1,0.448,1,1v1h1c0.552,0,1,0.448,1,1s-0.448,1-1,1H9v1C9,13.553,8.552,14,8,14z M15.01,13
		c-0.553,0-1.005-0.448-1.005-1s0.442-1,0.995-1h0.01c0.553,0,1,0.448,1,1S15.562,13,15.01,13z M18.01,11
		c-0.553,0-1.005-0.448-1.005-1S17.447,9,18,9h0.01c0.553,0,1,0.448,1,1S18.562,11,18.01,11z"/>
</g>
</svg>
