<svg width="43" height="14" viewBox="0 0 43 14" fill="none" xmlns="http://www.w3.org/2000/svg">
<g clip-path="url(#clip0_10408_141158)">
<path d="M4.1625 5.74609V13.9695C4.09028 13.9084 4.00642 13.8534 3.96371 13.776C2.66767 11.4359 1.37707 9.09355 0.0856899 6.75041C-0.107667 6.39963 0.0359916 6.10151 0.418047 6.10693C0.627712 6.14255 0.859119 6.18514 1.09208 6.22076C2.16525 6.38182 3.17552 6.12784 4.16172 5.74609H4.1625Z" fill="url(#paint0_linear_10408_141158)"/>
<path d="M8.68971 5.93536C7.93492 7.32917 7.17236 8.71833 6.41058 10.1075C5.74121 11.3302 5.0695 12.5513 4.39469 13.7701C4.34655 13.8568 4.26424 13.9242 4.19745 14.0008C4.18658 13.9908 4.17571 13.9807 4.16406 13.9706V5.7472C4.17959 5.741 4.1959 5.73481 4.21143 5.72861C5.16502 5.35616 6.12714 5.017 7.16848 5.03171C7.55053 5.03713 7.93492 5.08592 8.31231 5.14786C8.75805 5.22142 8.90714 5.5358 8.69049 5.93459L8.68971 5.93536Z" fill="url(#paint1_linear_10408_141158)"/>
<path d="M7.22723 4.40237C6.1362 4.34739 5.12826 4.68191 4.1273 5.05823C3.34067 5.35403 2.54628 5.62273 1.68898 5.59485C1.46223 5.58788 1.23471 5.56852 1.01107 5.53368C0.426335 5.44308 0.194927 5.18755 0.124263 4.57892C-0.130441 2.38368 1.3442 0.419186 3.52083 0.0544733C5.91566 -0.345859 8.16995 1.51177 8.23052 3.93777C8.23983 4.31874 8.13966 4.41476 7.75139 4.40315C7.57667 4.3985 7.40195 4.40237 7.22723 4.40237Z" fill="url(#paint2_linear_10408_141158)"/>
<path d="M17.5849 7.2733C17.178 7.2733 16.8029 7.26556 16.4279 7.2764C16.2182 7.2826 16.118 7.21523 16.1289 6.99377C16.1398 6.75915 16.1359 6.52297 16.1297 6.28757C16.125 6.12574 16.1833 6.0483 16.3564 6.04985C17.2137 6.0545 18.0702 6.04753 18.9275 6.05915C18.9967 6.05992 19.1201 6.16445 19.124 6.2264C19.183 7.20826 19.0456 8.13901 18.3638 8.91645C17.8947 9.45151 17.2976 9.76047 16.6041 9.86423C15.3205 10.0555 14.2093 9.70859 13.3536 8.71125C12.8178 8.08636 12.5848 7.33061 12.5747 6.51523C12.5592 5.33746 12.9156 4.31534 13.9103 3.59908C15.3003 2.59786 17.4933 2.82707 18.5501 4.07065C18.735 4.28798 18.7117 4.47666 18.4803 4.63669C18.2714 4.77994 18.0547 4.91235 17.8544 5.06645C17.689 5.19344 17.5802 5.19034 17.449 5.01302C16.9039 4.27817 15.7453 4.14653 15.0169 4.63746C14.5696 4.93868 14.3219 5.36921 14.2303 5.88492C14.099 6.62054 14.1581 7.32518 14.6512 7.94001C15.2048 8.62994 16.358 8.77861 17.0685 8.25207C17.3869 8.01667 17.5119 7.68603 17.5857 7.27408L17.5849 7.2733Z" fill="#818182"/>
<path d="M31.4314 5.36835C31.4521 5.02867 31.638 4.85883 31.989 4.85883C32.1815 4.85883 32.3749 4.87277 32.5652 4.85496C32.8028 4.83328 32.8828 4.91149 32.8804 5.1585C32.8688 6.50042 32.875 7.84235 32.875 9.18427C32.875 9.32366 32.8696 9.46304 32.875 9.60242C32.8812 9.74954 32.8129 9.80452 32.6708 9.80297C32.3299 9.79987 31.989 9.79987 31.6481 9.80297C31.5067 9.80452 31.4345 9.74722 31.44 9.60242C31.4431 9.52653 31.44 9.44987 31.44 9.32056C31.061 9.71934 30.6238 9.89976 30.1369 9.93848C29.3829 9.99888 28.7656 9.7147 28.3136 9.11458C27.5371 8.08394 27.5922 6.40131 28.42 5.41403C28.9403 4.79379 29.9156 4.52742 30.6572 4.84644C30.9344 4.96569 31.1682 5.18793 31.4291 5.36835H31.4314ZM31.5067 7.36613C31.4834 7.35839 31.4609 7.35065 31.4376 7.34213C31.4376 7.26392 31.4431 7.18494 31.4368 7.10751C31.3926 6.54534 31.0556 6.13262 30.5648 6.03582C30.0826 5.94058 29.5879 6.15043 29.3837 6.60728C29.1399 7.15319 29.1569 7.72001 29.5033 8.22255C29.9047 8.8064 30.8125 8.79633 31.1946 8.20009C31.3514 7.9554 31.4058 7.64567 31.5075 7.36613H31.5067Z" fill="#818182"/>
<path d="M40.1662 9.90271C38.593 9.92671 37.5648 8.83954 37.5338 7.30403C37.5043 5.84286 38.6108 4.73091 40.0249 4.6891C41.7232 4.63877 42.7505 5.78169 42.7769 7.30636C42.8033 8.81399 41.696 9.89341 40.1655 9.90271H40.1662ZM40.2548 5.96598C39.6793 5.96211 39.3136 6.20525 39.1389 6.65901C38.9867 7.05392 38.9774 7.45503 39.1117 7.85768C39.2841 8.37262 39.656 8.66532 40.1414 8.67151C40.6461 8.67771 41.0228 8.39585 41.1959 7.8631C41.3318 7.44496 41.3202 7.02527 41.1493 6.61642C40.9684 6.18434 40.6236 5.99076 40.2555 5.96598H40.2548Z" fill="#818182"/>
<path d="M21.2978 7.65169C21.2737 8.29981 21.8787 8.76519 22.5643 8.66065C22.8719 8.61419 23.1623 8.52437 23.3665 8.26806C23.4752 8.13178 23.5746 8.15191 23.6942 8.25567C23.8922 8.4268 24.0926 8.59561 24.3046 8.7497C24.477 8.87514 24.4746 8.97581 24.3294 9.12448C23.7354 9.73156 22.9907 9.92437 22.1769 9.87868C21.0299 9.81441 20.2293 9.1841 19.9117 8.13952C19.5762 7.03842 19.914 5.81961 20.7333 5.16994C22.0907 4.09439 24.1104 4.79129 24.5119 6.48399C24.5818 6.77747 24.5771 7.08797 24.6066 7.38997C24.6276 7.59826 24.5243 7.65634 24.3271 7.65479C23.4092 7.64782 22.4914 7.65169 21.5735 7.65169C21.4803 7.65169 21.3871 7.65169 21.297 7.65169H21.2978ZM23.1467 6.68067C23.1242 6.13709 22.7546 5.79793 22.2203 5.80567C21.7008 5.81342 21.3429 6.15877 21.332 6.68067H23.146H23.1467Z" fill="#818182"/>
<path d="M34.4969 5.96372C34.2414 5.96372 34.0248 5.96604 33.8074 5.96372C33.5317 5.95985 33.5037 5.91958 33.5907 5.65011C33.6466 5.47666 33.7235 5.30786 33.7623 5.13053C33.8144 4.89591 33.9471 4.81925 34.1739 4.85177C34.2663 4.86493 34.3626 4.85409 34.4962 4.85409C34.4962 4.47854 34.5132 4.12389 34.4907 3.77157C34.4729 3.49823 34.5505 3.35343 34.8386 3.30774C35.1119 3.26361 35.3806 3.17766 35.647 3.09712C35.8597 3.03208 35.9545 3.07777 35.9475 3.31859C35.9358 3.72821 35.9436 4.13783 35.9459 4.54746C35.9459 4.64038 35.956 4.73407 35.963 4.85487C36.2705 4.85487 36.5563 4.85874 36.8421 4.85332C37.0393 4.84945 37.0999 4.92766 37.0199 5.10962C37.0168 5.11737 37.0168 5.12666 37.0137 5.13518C36.9228 5.38839 36.898 5.71593 36.7209 5.87312C36.5625 6.01405 36.2371 5.96681 35.9669 6.00553C35.9615 6.03341 35.9467 6.07367 35.9467 6.11471C35.9459 6.73341 35.9351 7.35288 35.9514 7.9708C35.963 8.40365 36.1463 8.56084 36.5757 8.56549C37.0657 8.57091 37.0183 8.50509 37.0214 9.01692C37.0222 9.19115 37.0129 9.36615 37.0238 9.5396C37.0354 9.72389 36.9803 9.81759 36.7761 9.80133C36.4375 9.775 36.0896 9.80365 35.7604 9.73706C35.0661 9.5969 34.5917 9.05796 34.5404 8.35409C34.4977 7.76482 34.507 7.17091 34.4962 6.57932C34.4923 6.38883 34.4962 6.19757 34.4962 5.96527L34.4969 5.96372Z" fill="#818182"/>
<path d="M26.8991 6.40391C26.8991 7.44152 26.8944 8.47913 26.903 9.51674C26.9045 9.72891 26.8463 9.81408 26.6234 9.80169C26.3268 9.78543 26.0286 9.79085 25.732 9.80014C25.5487 9.80556 25.4602 9.74981 25.4609 9.54926C25.4656 7.56154 25.4648 5.57382 25.4617 3.58532C25.4617 3.42891 25.5215 3.34528 25.6745 3.30811C25.9882 3.23222 26.3027 3.16021 26.6094 3.06265C26.8463 2.98676 26.9022 3.06961 26.9014 3.29107C26.896 4.32868 26.8991 5.3663 26.8991 6.40391Z" fill="#818182"/>
</g>
<defs>
<linearGradient id="paint0_linear_10408_141158" x1="2.10623" y1="6.23005" x2="4.03646" y2="14.0131" gradientUnits="userSpaceOnUse">
<stop stop-color="#818181"/>
<stop offset="1" stop-color="#9A9C9E"/>
</linearGradient>
<linearGradient id="paint1_linear_10408_141158" x1="6.56899" y1="5.36545" x2="4.25012" y2="13.9345" gradientUnits="userSpaceOnUse">
<stop offset="0.06" stop-color="#818181"/>
<stop offset="1" stop-color="#B6B6B6"/>
</linearGradient>
<linearGradient id="paint2_linear_10408_141158" x1="0.258603" y1="4.9173" x2="7.52543" y2="1.19929" gradientUnits="userSpaceOnUse">
<stop stop-color="#B6B6B6"/>
<stop offset="0.86" stop-color="#818181"/>
</linearGradient>
<clipPath id="clip0_10408_141158">
<rect width="42.7778" height="14" fill="white"/>
</clipPath>
</defs>
</svg>
