<?xml version="1.0" encoding="iso-8859-1"?>
<!-- Generator: Adobe Illustrator 27.4.0, SVG Export Plug-In . SVG Version: 6.00 Build 0)  -->
<svg version="1.1" id="Layer_1" xmlns="http://www.w3.org/2000/svg" xmlns:xlink="http://www.w3.org/1999/xlink" x="0px" y="0px"
	 viewBox="0 0 24 24" style="enable-background:new 0 0 24 24;" xml:space="preserve">
<g>
	<path d="M18.8,23H5.2c-1.238,0-1.92,0-2.562-0.326c-0.57-0.292-1.022-0.744-1.312-1.311C1,20.721,1,20.038,1,18.8v-8.6
		c0-1.238,0-1.92,0.327-2.562C1.617,7.07,2.07,6.617,2.637,6.327C3.113,6.085,3.61,6.022,4.338,6.006C4.117,5.542,4,5.03,4,4.5
		c0-0.936,0.364-1.814,1.026-2.475C5.686,1.364,6.564,1,7.5,1c2.293,0,3.69,1.605,4.5,3.129C12.81,2.605,14.206,1,16.5,1
		c0.936,0,1.814,0.364,2.475,1.026C19.636,2.687,20,3.565,20,4.5c0,0.53-0.117,1.042-0.339,1.506
		c0.729,0.016,1.226,0.079,1.701,0.321c0.567,0.29,1.02,0.742,1.311,1.31C23,8.28,23,8.962,23,10.2v8.6c0,1.238,0,1.921-0.326,2.562
		c-0.291,0.567-0.744,1.021-1.311,1.311C20.721,23,20.038,23,18.8,23z M13,21h5.8c0.867,0,1.44,0,1.654-0.109
		c0.188-0.096,0.341-0.248,0.438-0.438C21,20.24,21,19.667,21,18.8V15h-8V21z M3,15v3.8c0,0.867,0,1.44,0.109,1.654
		c0.096,0.188,0.248,0.341,0.438,0.438C3.76,21,4.333,21,5.2,21H11v-6H3z M13,13h8v-2.8c0-0.868,0-1.44-0.109-1.655
		c-0.096-0.188-0.248-0.34-0.438-0.437C20.24,8,19.667,8,18.8,8H13V13z M3,13h8V8H5.2C4.333,8,3.76,8,3.545,8.109
		c-0.186,0.095-0.341,0.25-0.437,0.438C3,8.76,3,9.333,3,10.2V13z M13.346,6H16.5c0.4,0,0.777-0.156,1.061-0.439
		C17.844,5.277,18,4.9,18,4.5s-0.156-0.777-0.439-1.061S16.9,3,16.5,3C14.787,3,13.816,4.759,13.346,6z M7.5,6h3.154
		C10.183,4.759,9.213,3,7.5,3C7.099,3,6.723,3.156,6.44,3.439C6.156,3.723,6,4.099,6,4.5s0.156,0.777,0.439,1.06
		C6.723,5.844,7.099,6,7.5,6z"/>
</g>
</svg>
