<?xml version="1.0" encoding="iso-8859-1"?>
<!-- Generator: Adobe Illustrator 27.4.0, SVG Export Plug-In . SVG Version: 6.00 Build 0)  -->
<svg version="1.1" id="Layer_1" xmlns="http://www.w3.org/2000/svg" xmlns:xlink="http://www.w3.org/1999/xlink" x="0px" y="0px"
	 viewBox="0 0 24 24" style="enable-background:new 0 0 24 24;" xml:space="preserve">
<g>
	<path d="M16.8,23H7.2c-1.238,0-1.92,0-2.562-0.326c-0.57-0.292-1.022-0.744-1.312-1.311C3,20.721,3,20.038,3,18.8v-6.809
		c-0.345-0.017-0.627-0.066-0.908-0.209c-0.379-0.194-0.681-0.495-0.874-0.873C1,10.48,1,10.05,1,9.4V7.6c0-0.65,0-1.08,0.218-1.508
		C1.412,5.713,1.713,5.412,2.09,5.219C2.52,5,2.95,5,3.6,5h2.068C5.558,4.683,5.5,4.346,5.5,4c0-0.798,0.306-1.549,0.862-2.115
		C6.915,1.323,7.681,1,8.464,1c1.738,0,2.85,1.116,3.536,2.274C12.686,2.116,13.798,1,15.536,1c0.783,0,1.55,0.323,2.103,0.885
		C18.194,2.451,18.5,3.202,18.5,4c0,0.346-0.058,0.683-0.168,1H20.4c0.65,0,1.08,0,1.508,0.218c0.379,0.193,0.681,0.496,0.874,0.875
		C23,6.519,23,6.949,23,7.6v1.8c0,0.651,0,1.081-0.219,1.51c-0.192,0.377-0.494,0.679-0.873,0.872
		c-0.281,0.144-0.563,0.193-0.908,0.209V18.8c0,1.238,0,1.921-0.326,2.562c-0.291,0.567-0.744,1.021-1.311,1.311
		C18.721,23,18.038,23,16.8,23z M13,21h3.8c0.867,0,1.44,0,1.654-0.109c0.188-0.096,0.341-0.248,0.438-0.438
		C19,20.24,19,19.667,19,18.8V12h-6V21z M5,12v6.8c0,0.867,0,1.44,0.109,1.654c0.096,0.188,0.248,0.341,0.438,0.438
		C5.76,21,6.333,21,7.2,21H11v-9H5z M3.6,7C3.321,7,3.033,7,2.951,7.02C3,7.033,3,7.321,3,7.6v1.8c0,0.279,0,0.567,0.02,0.649
		C3.033,10,3.321,10,3.6,10H11V7H3.6z M13,10h7.4c0.278,0,0.566,0,0.648-0.02C21,9.966,21,9.678,21,9.4V7.6
		c0-0.278,0-0.566-0.02-0.648C20.967,7,20.679,7,20.4,7H13V10z M13.366,5h2.17c0.254,0,0.494-0.102,0.675-0.287
		C16.395,4.526,16.5,4.267,16.5,4s-0.105-0.526-0.289-0.713C16.03,3.102,15.79,3,15.536,3C14.434,3,13.746,4.093,13.366,5z M8.464,5
		h2.165c-0.383-0.907-1.072-2-2.165-2C8.21,3,7.97,3.102,7.788,3.287C7.605,3.474,7.5,3.733,7.5,4s0.105,0.526,0.289,0.713
		C7.97,4.898,8.21,5,8.464,5z"/>
</g>
</svg>
