<?xml version="1.0" encoding="iso-8859-1"?>
<!-- Generator: Adobe Illustrator 27.4.0, SVG Export Plug-In . SVG Version: 6.00 Build 0)  -->
<svg version="1.1" id="Layer_1" xmlns="http://www.w3.org/2000/svg" xmlns:xlink="http://www.w3.org/1999/xlink" x="0px" y="0px"
	 viewBox="0 0 24 24" style="enable-background:new 0 0 24 24;" xml:space="preserve">
<g>
	<path d="M18,22c-1.874,0-3.451-1.296-3.883-3.038c-2.338-0.203-4.509-1.212-6.188-2.891C7.592,15.734,7.282,15.377,7,15.003V21
		c0,0.553-0.448,1-1,1s-1-0.447-1-1V9.874C3.277,9.428,2,7.86,2,6c0-2.206,1.794-4,4-4s4,1.794,4,4c0,1.844-1.254,3.4-2.955,3.861
		c0.193,1.811,0.992,3.489,2.298,4.796c1.306,1.306,2.984,2.104,4.795,2.297C14.6,15.254,16.156,14,18,14c2.206,0,4,1.794,4,4
		S20.206,22,18,22z M18,16c-1.103,0-2,0.897-2,2s0.897,2,2,2s2-0.897,2-2S19.103,16,18,16z M6,4C4.897,4,4,4.897,4,6s0.897,2,2,2
		s2-0.897,2-2S7.103,4,6,4z"/>
</g>
</svg>
