<?xml version="1.0" encoding="iso-8859-1"?>
<!-- Generator: Adobe Illustrator 27.4.0, SVG Export Plug-In . SVG Version: 6.00 Build 0)  -->
<svg version="1.1" id="Layer_1" xmlns="http://www.w3.org/2000/svg" xmlns:xlink="http://www.w3.org/1999/xlink" x="0px" y="0px"
	 viewBox="0 0 24 24" style="enable-background:new 0 0 24 24;" xml:space="preserve">
<g>
	<path d="M6,22c-2.206,0-4-1.794-4-4c0-1.86,1.277-3.429,3-3.873V3c0-0.552,0.448-1,1-1s1,0.448,1,1v11.127
		c1.388,0.358,2.487,1.445,2.861,2.827c1.811-0.192,3.489-0.991,4.796-2.297c1.306-1.307,2.104-2.985,2.297-4.796
		C15.254,9.4,14,7.844,14,6c0-2.206,1.794-4,4-4s4,1.794,4,4c0,1.874-1.296,3.452-3.038,3.883c-0.203,2.337-1.212,4.508-2.891,6.188
		c-1.68,1.679-3.851,2.688-6.188,2.891C9.452,20.704,7.874,22,6,22z M6,16c-1.103,0-2,0.897-2,2s0.897,2,2,2s2-0.897,2-2
		S7.103,16,6,16z M18,4c-1.103,0-2,0.897-2,2s0.897,2,2,2s2-0.897,2-2S19.103,4,18,4z"/>
</g>
</svg>
