<?xml version="1.0" encoding="iso-8859-1"?>
<!-- Generator: Adobe Illustrator 27.4.0, SVG Export Plug-In . SVG Version: 6.00 Build 0)  -->
<svg version="1.1" id="Layer_1" xmlns="http://www.w3.org/2000/svg" xmlns:xlink="http://www.w3.org/1999/xlink" x="0px" y="0px"
	 viewBox="0 0 24 24" style="enable-background:new 0 0 24 24;" xml:space="preserve">
<g>
	<path d="M18,22c-1.86,0-3.429-1.276-3.873-3H7.8c-1.838,0-2.76,0-3.616-0.437c-0.757-0.385-1.362-0.989-1.748-1.747
		C2,15.96,2,15.037,2,13.2V3c0-0.552,0.448-1,1-1s1,0.448,1,1v4h10.127C14.571,5.277,16.14,4,18,4c2.206,0,4,1.794,4,4s-1.794,4-4,4
		c-1.86,0-3.429-1.277-3.873-3H4v4.2c0,1.47,0,2.279,0.218,2.708c0.193,0.379,0.495,0.681,0.873,0.873C5.52,17,6.33,17,7.8,17h6.327
		c0.444-1.724,2.013-3,3.873-3c2.206,0,4,1.794,4,4S20.206,22,18,22z M18,16c-1.103,0-2,0.897-2,2s0.897,2,2,2s2-0.897,2-2
		S19.103,16,18,16z M18,6c-1.103,0-2,0.897-2,2s0.897,2,2,2s2-0.897,2-2S19.103,6,18,6z"/>
</g>
</svg>
