<?xml version="1.0" encoding="iso-8859-1"?>
<!-- Generator: Adobe Illustrator 27.4.0, SVG Export Plug-In . SVG Version: 6.00 Build 0)  -->
<svg version="1.1" id="Layer_1" xmlns="http://www.w3.org/2000/svg" xmlns:xlink="http://www.w3.org/1999/xlink" x="0px" y="0px"
	 viewBox="0 0 24 24" style="enable-background:new 0 0 24 24;" xml:space="preserve">
<g>
	<path d="M18,22c-2.206,0-4-1.794-4-4c0-1.86,1.276-3.429,3-3.873V8c0-0.263-0.106-0.521-0.293-0.707C16.521,7.107,16.263,7,16,7h-3
		c-0.552,0-1-0.448-1-1s0.448-1,1-1h3c0.801,0,1.555,0.312,2.121,0.879C18.688,6.445,19,7.199,19,8v6.127
		c1.724,0.444,3,2.013,3,3.873C22,20.206,20.206,22,18,22z M18,16c-1.103,0-2,0.897-2,2s0.897,2,2,2s2-0.897,2-2S19.103,16,18,16z
		 M6,22c-0.552,0-1-0.447-1-1V9.874C3.277,9.428,2,7.86,2,6c0-2.206,1.794-4,4-4s4,1.794,4,4c0,1.86-1.277,3.428-3,3.874V21
		C7,21.553,6.552,22,6,22z M6,4C4.897,4,4,4.897,4,6s0.897,2,2,2s2-0.897,2-2S7.103,4,6,4z"/>
</g>
</svg>
