<?xml version="1.0" encoding="iso-8859-1"?>
<!-- Generator: Adobe Illustrator 27.4.0, SVG Export Plug-In . SVG Version: 6.00 Build 0)  -->
<svg version="1.1" id="Layer_1" xmlns="http://www.w3.org/2000/svg" xmlns:xlink="http://www.w3.org/1999/xlink" x="0px" y="0px"
	 viewBox="0 0 24 24" style="enable-background:new 0 0 24 24;" xml:space="preserve">
<g>
	<path d="M12,17c-2.415,0-4.435-1.721-4.899-4H2c-0.552,0-1-0.448-1-1s0.448-1,1-1h5.101C7.565,8.721,9.585,7,12,7
		c2.415,0,4.435,1.721,4.899,4H22c0.553,0,1,0.448,1,1s-0.447,1-1,1h-5.101C16.435,15.279,14.415,17,12,17z M9,12
		c0,1.654,1.346,3,3,3s3-1.346,3-3s-1.346-3-3-3S9,10.346,9,12z"/>
</g>
</svg>
