<?xml version="1.0" encoding="iso-8859-1"?>
<!-- Generator: Adobe Illustrator 27.4.0, SVG Export Plug-In . SVG Version: 6.00 Build 0)  -->
<svg version="1.1" id="Layer_1" xmlns="http://www.w3.org/2000/svg" xmlns:xlink="http://www.w3.org/1999/xlink" x="0px" y="0px"
	 viewBox="0 0 24 24" style="enable-background:new 0 0 24 24;" xml:space="preserve">
<g>
	<path d="M18,20c-1.336,0-2.592-0.521-3.535-1.465c-0.904-0.903-1.419-2.092-1.462-3.363c-0.648-0.229-1.359-0.229-2.006,0
		c-0.042,1.271-0.558,2.46-1.461,3.363c-1.95,1.949-5.123,1.949-7.071,0C1.52,17.591,1,16.336,1,15c0-0.325,0.031-0.645,0.091-0.957
		l0.616-6.157c0.03-0.307,0.047-0.46,0.071-0.591C2.098,5.503,3.59,4.152,5.406,4.012C5.541,4.001,5.694,4,6,4c0.552,0,1,0.448,1,1
		S6.552,6,6,6C5.772,6,5.658,5.999,5.559,6.006c-0.906,0.07-1.652,0.746-1.813,1.643C3.729,7.746,3.719,7.858,3.697,8.082
		l-0.262,2.625c1.919-1.146,4.45-0.895,6.101,0.757l0,0c0.498,0.498,0.877,1.082,1.125,1.718c0.875-0.242,1.803-0.242,2.678,0
		c0.248-0.637,0.628-1.221,1.126-1.718C15.409,10.52,16.664,10,18,10c0.918,0,1.799,0.246,2.565,0.706l-0.262-2.621
		c-0.025-0.252-0.034-0.351-0.05-0.436c-0.16-0.898-0.906-1.573-1.814-1.644C18.344,5.999,18.231,6.001,18,6c-0.553,0-1-0.448-1-1
		s0.447-1,1-1c0.307,0,0.461,0.001,0.593,0.012c1.817,0.141,3.31,1.491,3.63,3.285c0.021,0.119,0.037,0.258,0.063,0.513l0.623,6.235
		c0.06,0.308,0.09,0.623,0.091,0.943c0,0.009,0,0.018,0,0.026c-0.004,1.33-0.523,2.58-1.465,3.521C20.592,19.479,19.336,20,18,20z
		 M18,12c-0.802,0-1.555,0.312-2.121,0.878C15.312,13.445,15,14.198,15,15s0.312,1.555,0.879,2.121c1.133,1.133,3.109,1.133,4.242,0
		c0.556-0.556,0.867-1.291,0.879-2.075l-0.069-0.694c-0.122-0.554-0.398-1.062-0.81-1.473l0,0C19.555,12.312,18.802,12,18,12z
		 M3,15.048c0.012,0.783,0.323,1.518,0.878,2.073c1.17,1.17,3.073,1.169,4.243,0C8.688,16.555,9,15.802,9,15
		s-0.312-1.555-0.878-2.122c-1.17-1.169-3.073-1.169-4.243,0c-0.41,0.411-0.687,0.918-0.809,1.472L3,15.048z"/>
</g>
</svg>
