<?xml version="1.0" encoding="iso-8859-1"?>
<!-- Generator: Adobe Illustrator 27.4.0, SVG Export Plug-In . SVG Version: 6.00 Build 0)  -->
<svg version="1.1" id="Layer_1" xmlns="http://www.w3.org/2000/svg" xmlns:xlink="http://www.w3.org/1999/xlink" x="0px" y="0px"
	 viewBox="0 0 24 24" style="enable-background:new 0 0 24 24;" xml:space="preserve">
<g>
	<path d="M18,17c-1.336,0-2.592-0.521-3.535-1.465c-0.904-0.903-1.419-2.093-1.462-3.364c-0.648-0.229-1.359-0.23-2.006,0
		c-0.042,1.271-0.558,2.46-1.461,3.364c-1.95,1.95-5.123,1.948-7.071,0C1.52,14.591,1,13.336,1,12c0-1.335,0.52-2.591,1.464-3.536
		c1.95-1.95,5.123-1.949,7.071,0l0,0c0.498,0.498,0.877,1.082,1.125,1.718c0.875-0.242,1.804-0.242,2.678,0
		c0.248-0.636,0.628-1.22,1.126-1.718C15.409,7.52,16.664,7,18,7s2.591,0.52,3.535,1.464l0,0l0,0C22.479,9.409,23,10.665,23,12
		c0,1.336-0.521,2.592-1.465,3.535C20.592,16.479,19.336,17,18,17z M18,9c-0.802,0-1.555,0.312-2.121,0.878
		C15.312,10.445,15,11.199,15,12s0.312,1.555,0.879,2.121c1.133,1.133,3.109,1.133,4.242,0C20.688,13.555,21,12.801,21,12
		s-0.312-1.555-0.879-2.122l0,0C19.555,9.312,18.802,9,18,9z M6,9.001c-0.769,0-1.537,0.292-2.122,0.877C3.312,10.445,3,11.199,3,12
		s0.312,1.555,0.878,2.121c1.17,1.17,3.073,1.169,4.243,0C8.688,13.555,9,12.801,9,12s-0.312-1.555-0.878-2.122
		C7.537,9.294,6.768,9.001,6,9.001z"/>
</g>
</svg>
