<?xml version="1.0" encoding="iso-8859-1"?>
<!-- Generator: Adobe Illustrator 27.4.0, SVG Export Plug-In . SVG Version: 6.00 Build 0)  -->
<svg version="1.1" id="Layer_1" xmlns="http://www.w3.org/2000/svg" xmlns:xlink="http://www.w3.org/1999/xlink" x="0px" y="0px"
	 viewBox="0 0 24 24" style="enable-background:new 0 0 24 24;" xml:space="preserve">
<g>
	<path d="M10.491,22.989c-2.921,0-5.848-1.013-8.194-3.058c-0.249-0.215-0.485-0.421-0.62-0.777
		c-0.114-0.304-0.125-0.655-0.031-0.965c0.107-0.356,0.325-0.575,0.578-0.828l1.602-1.603C2.683,14.312,2,12.484,2,10.5
		C2,5.813,5.813,2,10.5,2c4.687,0,8.5,3.813,8.5,8.5c0,4.687-3.813,8.5-8.5,8.5c-1.984,0-3.812-0.684-5.259-1.827l-1.425,1.425
		c4.142,3.427,10.289,3.149,14.109-0.673c4.094-4.094,4.094-10.755,0-14.85c-0.391-0.391-0.391-1.023,0-1.414s1.023-0.391,1.414,0
		c4.874,4.874,4.874,12.804,0,17.678C16.915,21.763,13.706,22.988,10.491,22.989z M10.5,4C6.916,4,4,6.916,4,10.5S6.916,17,10.5,17
		s6.5-2.916,6.5-6.5S14.084,4,10.5,4z"/>
</g>
</svg>
