<?xml version="1.0" encoding="iso-8859-1"?>
<!-- Generator: Adobe Illustrator 27.4.0, SVG Export Plug-In . SVG Version: 6.00 Build 0)  -->
<svg version="1.1" id="Layer_1" xmlns="http://www.w3.org/2000/svg" xmlns:xlink="http://www.w3.org/1999/xlink" x="0px" y="0px"
	 viewBox="0 0 24 24" style="enable-background:new 0 0 24 24;" xml:space="preserve">
<g>
	<path d="M12,23c-0.002,0-0.003,0-0.005,0C5.933,22.998,1,18.063,1,12C1,5.936,5.933,1.002,11.996,1c0.003,0,0.007,0,0.009,0
		C18.068,1.002,23,5.936,23,12c0,6.063-4.932,10.998-10.995,11C12.003,23,12.002,23,12,23z M16.418,16
		c-0.459,1.674-1.182,3.264-2.143,4.709c2.536-0.663,4.64-2.408,5.786-4.709H16.418z M3.938,16c1.146,2.301,3.25,4.046,5.786,4.709
		C8.761,19.261,8.038,17.671,7.579,16H3.938z M9.661,16c0.507,1.598,1.297,3.107,2.339,4.449c1.04-1.34,1.828-2.848,2.336-4.449
		H9.661z M16.834,14h3.942C20.923,13.356,21,12.688,21,12s-0.077-1.356-0.224-2h-3.938c0.094,0.653,0.148,1.313,0.162,1.979
		C16.985,12.66,16.93,13.335,16.834,14z M9.182,14h5.632c0.109-0.665,0.172-1.34,0.186-2.021c-0.014-0.665-0.075-1.326-0.183-1.979
		H9.186C9.077,10.665,9.014,11.34,9,12.021C9.014,12.686,9.075,13.348,9.182,14z M3.224,14h3.938
		C7.068,13.347,7.014,12.687,7,12.021C7.014,11.34,7.07,10.666,7.166,10H3.224C3.077,10.644,3,11.312,3,12S3.077,13.356,3.224,14z
		 M16.421,8h3.641c-1.146-2.301-3.25-4.046-5.786-4.708C15.239,4.739,15.962,6.33,16.421,8z M9.664,8h4.675
		C13.831,6.402,13.042,4.893,12,3.551C10.96,4.89,10.171,6.398,9.664,8z M3.938,8h3.644c0.459-1.675,1.181-3.263,2.143-4.708
		C7.188,3.954,5.085,5.699,3.938,8z"/>
</g>
</svg>
