<?xml version="1.0" encoding="iso-8859-1"?>
<!-- Generator: Adobe Illustrator 27.4.0, SVG Export Plug-In . SVG Version: 6.00 Build 0)  -->
<svg version="1.1" id="Layer_1" xmlns="http://www.w3.org/2000/svg" xmlns:xlink="http://www.w3.org/1999/xlink" x="0px" y="0px"
	 viewBox="0 0 24 24" style="enable-background:new 0 0 24 24;" xml:space="preserve">
<g>
	<path d="M17,23H7c-0.552,0-1-0.447-1-1s0.448-1,1-1h4v-1.017c-2.207-0.104-4.387-0.899-6.184-2.385l-1.448,1.447
		c-0.391,0.391-1.023,0.391-1.414,0s-0.391-1.023,0-1.414l3.942-3.941C5.02,12.521,4.5,11.07,4.5,9.5c0-3.86,3.14-7,7-7
		c3.859,0,7,3.14,7,7c0,3.859-3.141,7-7,7c-1.57,0-3.021-0.52-4.19-1.396l-1.072,1.071c3.335,2.634,8.199,2.411,11.273-0.665
		c3.314-3.314,3.314-8.707,0-12.021c-0.391-0.391-0.391-1.023,0-1.414s1.023-0.391,1.414,0c4.094,4.094,4.094,10.755,0,14.849
		C17.26,18.59,15.17,19.578,13,19.889V21h4c0.553,0,1,0.447,1,1S17.553,23,17,23z M11.5,4.5c-2.757,0-5,2.243-5,5s2.243,5,5,5
		s5-2.243,5-5S14.257,4.5,11.5,4.5z"/>
</g>
</svg>
