<?xml version="1.0" encoding="iso-8859-1"?>
<!-- Generator: Adobe Illustrator 27.4.0, SVG Export Plug-In . SVG Version: 6.00 Build 0)  -->
<svg version="1.1" id="Layer_1" xmlns="http://www.w3.org/2000/svg" xmlns:xlink="http://www.w3.org/1999/xlink" x="0px" y="0px"
	 viewBox="0 0 24 24" style="enable-background:new 0 0 24 24;" xml:space="preserve">
<g>
	<path d="M12,23c-0.002,0-0.003,0-0.005,0C5.933,22.998,1,18.063,1,12C1,5.936,5.933,1.002,11.996,1c0.003,0,0.007,0,0.009,0
		C18.068,1.002,23,5.936,23,12c0,6.063-4.932,10.998-10.995,11C12.003,23,12.002,23,12,23z M16.947,13
		c-0.229,2.776-1.151,5.422-2.672,7.709C17.827,19.78,20.53,16.73,20.944,13H16.947z M3.055,13c0.414,3.729,3.118,6.779,6.669,7.709
		C8.198,18.414,7.274,15.764,7.05,13H3.055z M9.055,13c0.246,2.698,1.269,5.29,2.945,7.449c1.67-2.151,2.691-4.735,2.942-7.449
		H9.055z M16.95,11h3.994c-0.414-3.73-3.117-6.78-6.669-7.708C15.802,5.586,16.726,8.237,16.95,11z M9.058,11h5.888
		C14.699,8.302,13.677,5.71,12,3.551C10.33,5.702,9.309,8.286,9.058,11z M3.055,11h3.998c0.229-2.777,1.151-5.422,2.672-7.708
		C6.173,4.22,3.47,7.27,3.055,11z"/>
</g>
</svg>
