<?xml version="1.0" encoding="iso-8859-1"?>
<!-- Generator: Adobe Illustrator 27.4.0, SVG Export Plug-In . SVG Version: 6.00 Build 0)  -->
<svg version="1.1" id="Layer_1" xmlns="http://www.w3.org/2000/svg" xmlns:xlink="http://www.w3.org/1999/xlink" x="0px" y="0px"
	 viewBox="0 0 24 24" style="enable-background:new 0 0 24 24;" xml:space="preserve">
<g>
	<path d="M12,23C5.935,23,1,18.065,1,12c0-1.757,0.414-3.418,1.149-4.893c0.021-0.051,0.046-0.102,0.077-0.15
		C4.057,3.422,7.751,1,12,1c0.86,0,1.697,0.099,2.502,0.287c0.031,0.006,0.062,0.013,0.093,0.022C19.412,2.478,23,6.828,23,12
		C23,18.065,18.065,23,12,23z M3.507,9.02C3.179,9.953,3,10.956,3,12c0,4.963,4.038,9,9,9c4.963,0,9-4.037,9-9
		c0-3.825-2.398-7.101-5.771-8.401L15.03,6.584c-0.016,0.229-0.028,0.425-0.122,0.652c-0.089,0.211-0.213,0.388-0.372,0.534
		c-0.181,0.166-0.361,0.246-0.571,0.339l-3.831,1.703L9.27,10.975c-0.208,0.277-0.388,0.517-0.706,0.676
		c-0.283,0.14-0.594,0.188-0.904,0.14c-0.352-0.056-0.595-0.23-0.877-0.432L3.507,9.02z M4.393,7.195l3.393,2.424l0.789-1.052
		c0.099-0.13,0.149-0.187,0.203-0.239C8.845,8.262,8.925,8.198,9.01,8.143C9.079,8.099,9.147,8.062,9.289,8l3.753-1.668l0.217-3.244
		C12.847,3.03,12.427,3,12,3C8.803,3,5.99,4.675,4.393,7.195z M14.572,19h-1.996c-0.27,0-0.502,0-0.769-0.106
		c-0.229-0.089-0.438-0.239-0.599-0.433c-0.181-0.216-0.254-0.436-0.338-0.689l-0.714-2.141c-0.048-0.144-0.095-0.282-0.111-0.46
		c-0.014-0.161-0.002-0.317,0.033-0.47c0.042-0.179,0.107-0.308,0.176-0.445l0.542-1.083c0.144-0.287,0.265-0.529,0.522-0.734
		c0.215-0.174,0.483-0.286,0.77-0.318c0.332-0.037,0.589,0.05,0.888,0.151l0.84,0.28c0.027,0.009,0.053,0.019,0.078,0.03
		l2.616,1.121c0.392,0.167,0.701,0.3,0.943,0.624c0.211,0.283,0.315,0.633,0.295,0.985c-0.026,0.408-0.212,0.688-0.447,1.041
		l-1.231,1.846c-0.112,0.169-0.21,0.315-0.381,0.458c-0.16,0.129-0.328,0.22-0.513,0.276C14.954,19,14.777,19,14.572,19z M12.72,17
		h1.745l1.036-1.555l-2.356-1.01l-0.638-0.212l-0.435,0.87L12.72,17z M12.401,16.998C12.402,16.998,12.402,16.998,12.401,16.998
		C12.402,16.998,12.402,16.998,12.401,16.998z"/>
</g>
</svg>
