<?xml version="1.0" encoding="iso-8859-1"?>
<!-- Generator: Adobe Illustrator 27.4.0, SVG Export Plug-In . SVG Version: 6.00 Build 0)  -->
<svg version="1.1" id="Layer_1" xmlns="http://www.w3.org/2000/svg" xmlns:xlink="http://www.w3.org/1999/xlink" x="0px" y="0px"
	 viewBox="0 0 24 24" style="enable-background:new 0 0 24 24;" xml:space="preserve">
<g>
	<path d="M12,23c-0.545,0-1.081-0.04-1.605-0.117c-0.031-0.003-0.061-0.008-0.091-0.014C5.041,22.052,1,17.488,1,12
		c0-0.411,0.022-0.816,0.067-1.216c0.002-0.025,0.004-0.05,0.008-0.075C1.716,5.25,6.371,1,12,1c1.022,0,2.031,0.14,3.004,0.416
		C15.616,1.148,16.291,1,17,1c2.757,0,5,2.243,5,5c0,0.391-0.047,0.767-0.135,1.13C22.608,8.635,23,10.31,23,12
		C23,18.065,18.065,23,12,23z M11.5,20.986C11.666,20.995,11.832,21,12,21c4.963,0,9-4.037,9-9c0-0.834-0.116-1.664-0.342-2.46
		c-0.688,0.922-1.569,1.796-2.475,2.694l-0.477,0.474c-0.391,0.391-1.023,0.391-1.414,0l-0.477-0.474C13.854,10.287,12,8.449,12,6
		c0-1.102,0.358-2.122,0.964-2.949C12.646,3.017,12.324,3,12,3C7.814,3,4.288,5.872,3.285,9.748l4.218-0.376
		c0.577-0.049,1.146,0.244,1.437,0.752l1.793,3.143l2.738,1.565c0.389,0.222,0.657,0.603,0.733,1.045
		c0.077,0.442-0.046,0.892-0.338,1.232L11.5,19.87V20.986z M3.002,11.781C3.001,11.854,3,11.927,3,12c0,4.096,2.75,7.561,6.5,8.646
		v-0.962c0-0.356,0.128-0.703,0.36-0.975l2.093-2.442l-2.331-1.332c-0.229-0.13-0.423-0.322-0.557-0.555l-1.705-2.988L3.002,11.781z
		 M10.611,13.197l0.004,0.002C10.614,13.198,10.612,13.198,10.611,13.197z M17,3c-1.654,0-3,1.346-3,3c0,1.545,1.367,2.968,3,4.59
		c1.633-1.623,3-3.045,3-4.59C20,4.346,18.654,3,17,3z M17,7c-0.689,0-1.25-0.561-1.25-1.25S16.311,4.5,17,4.5s1.25,0.561,1.25,1.25
		S17.689,7,17,7z"/>
</g>
</svg>
