<?xml version="1.0" encoding="iso-8859-1"?>
<!-- Generator: Adobe Illustrator 27.4.0, SVG Export Plug-In . SVG Version: 6.00 Build 0)  -->
<svg version="1.1" id="Layer_1" xmlns="http://www.w3.org/2000/svg" xmlns:xlink="http://www.w3.org/1999/xlink" x="0px" y="0px"
	 viewBox="0 0 24 24" style="enable-background:new 0 0 24 24;" xml:space="preserve">
<g>
	<path d="M12,23c-4.632,0-8.605-2.879-10.224-6.94c-0.015-0.033-0.028-0.066-0.039-0.1C1.261,14.73,1,13.396,1,12
		C1,7.508,3.707,3.636,7.575,1.93c0.03-0.015,0.061-0.028,0.092-0.041C8.998,1.317,10.462,1,12,1c2.955,0,5.642,1.171,7.62,3.074
		c0.056,0.043,0.106,0.093,0.152,0.149C21.766,6.215,23,8.966,23,12c0,0.185-0.004,0.37-0.014,0.553
		c-0.028,0.54-0.48,0.94-1.022,0.947c-0.116-0.003-2.857-0.079-4.911-1.105c-0.925-0.462-2.285-2.007-2.271-3.854
		c0.008-1.063,0.479-2.52,2.472-3.843C15.774,3.629,13.959,3,12,3c-0.833,0-1.641,0.114-2.407,0.327l2.434,3.465
		c0.335,0.477,0.363,1.111,0.069,1.617l-1.828,3.128l0.014,3.153c0.002,0.448-0.194,0.871-0.539,1.158
		c-0.345,0.287-0.798,0.402-1.237,0.323l-3.573-0.669L3.969,16.06C5.455,18.988,8.497,21,12,21c0.15,0,0.299-0.004,0.447-0.012
		c0.559-0.023,1.023,0.394,1.052,0.946c0.029,0.551-0.395,1.022-0.946,1.052C12.37,22.996,12.185,23,12,23z M4.753,15.469
		c0.001,0,0.002,0,0.004,0H4.753z M7.692,4.1C4.898,5.629,3,8.597,3,12c0,0.744,0.091,1.467,0.262,2.159l0.833-0.481
		c0.314-0.18,0.681-0.241,1.031-0.175l3.155,0.591l-0.012-2.685c0-0.271,0.071-0.533,0.204-0.762l1.734-2.967L7.692,4.1z
		 M18.789,6.098c-1.019,0.584-1.999,1.416-2.007,2.458c-0.009,1.022,0.881,1.908,1.165,2.05c0.964,0.482,2.184,0.707,3.034,0.809
		C20.851,9.388,20.046,7.541,18.789,6.098z M16.758,22.939c-0.003,0-0.006,0-0.009,0c-0.412-0.004-0.78-0.26-0.926-0.646
		l-3.167-8.349c-0.14-0.368-0.05-0.783,0.228-1.062c0.279-0.279,0.693-0.366,1.062-0.228l8.349,3.167
		c0.386,0.146,0.642,0.514,0.646,0.926s-0.246,0.784-0.629,0.938l-3.304,1.32l-1.32,3.304C17.534,22.69,17.167,22.939,16.758,22.939
		z M15.314,15.314l1.468,3.869l0.526-1.317c0.102-0.254,0.304-0.456,0.558-0.558l1.317-0.526L15.314,15.314z"/>
</g>
</svg>
