<?xml version="1.0" encoding="iso-8859-1"?>
<!-- Generator: Adobe Illustrator 27.4.0, SVG Export Plug-In . SVG Version: 6.00 Build 0)  -->
<svg version="1.1" id="Layer_1" xmlns="http://www.w3.org/2000/svg" xmlns:xlink="http://www.w3.org/1999/xlink" x="0px" y="0px"
	 viewBox="0 0 24 24" style="enable-background:new 0 0 24 24;" xml:space="preserve">
<g>
	<path d="M12.001,23C12,23,12,23,11.999,23c-0.005,0-0.01,0-0.015,0C5.932,22.991,1.009,18.068,1,12.016C1,12.011,1,12.005,1,12
		s0-0.011,0-0.016C1.009,5.932,5.932,1.009,11.984,1c0.005,0,0.01-0.001,0.016,0c0.004-0.001,0.011,0,0.016,0
		C18.068,1.009,22.991,5.932,23,11.984c0,0.005,0,0.011,0,0.016s0,0.011,0,0.016C22.991,18.068,18.068,22.991,12.016,23
		C12.011,23,12.006,23,12.001,23z M9.695,16.84c0.444,1.482,1.161,2.911,2.305,3.904c1.143-0.992,1.858-2.417,2.303-3.901
		c-0.84,0.1-1.62,0.144-2.282,0.157C11.344,16.986,10.549,16.941,9.695,16.84z M16.463,16.465c-0.333,1.412-0.859,2.851-1.683,4.096
		c2.729-0.889,4.892-3.05,5.78-5.78C19.312,15.606,17.872,16.133,16.463,16.465z M3.439,14.78c0.889,2.729,3.05,4.892,5.78,5.78
		c-0.826-1.248-1.353-2.688-1.685-4.098C6.124,16.13,4.685,15.604,3.439,14.78z M9.233,14.764c1.03,0.16,2.003,0.221,2.788,0.236
		c0.767-0.016,1.725-0.076,2.743-0.233c0.16-1.03,0.221-2.003,0.236-2.788c-0.016-0.767-0.076-1.725-0.233-2.743
		c-1.03-0.16-2.003-0.22-2.788-0.236c-0.767,0.016-1.725,0.076-2.743,0.233c-0.16,1.03-0.22,2.003-0.236,2.788
		C9.016,12.788,9.076,13.746,9.233,14.764z M16.843,9.697c0.1,0.84,0.144,1.621,0.157,2.282c-0.014,0.677-0.059,1.472-0.16,2.327
		c1.482-0.445,2.911-1.161,3.904-2.306C19.752,10.857,18.327,10.142,16.843,9.697z M3.255,12c0.993,1.143,2.418,1.858,3.902,2.303
		c-0.1-0.84-0.144-1.62-0.158-2.282c0.014-0.677,0.058-1.472,0.16-2.326C5.677,10.139,4.25,10.855,3.255,12z M16.465,7.538
		c1.412,0.333,2.851,0.858,4.096,1.683c-0.889-2.73-3.05-4.892-5.78-5.781C15.606,4.688,16.133,6.127,16.465,7.538z M9.22,3.439
		c-2.73,0.889-4.892,3.05-5.781,5.78c1.248-0.826,2.688-1.353,4.098-1.685C7.87,6.124,8.396,4.685,9.22,3.439z M11.979,7
		c0.677,0.014,1.472,0.058,2.327,0.16C13.86,5.677,13.145,4.25,12,3.255c-1.143,0.993-1.858,2.418-2.303,3.902
		C10.537,7.058,11.317,7.014,11.979,7z"/>
</g>
</svg>
