<?xml version="1.0" encoding="iso-8859-1"?>
<!-- Generator: Adobe Illustrator 27.4.0, SVG Export Plug-In . SVG Version: 6.00 Build 0)  -->
<svg version="1.1" id="Layer_1" xmlns="http://www.w3.org/2000/svg" xmlns:xlink="http://www.w3.org/1999/xlink" x="0px" y="0px"
	 viewBox="0 0 24 24" style="enable-background:new 0 0 24 24;" xml:space="preserve">
<g>
	<path d="M12,23c-0.389,0-0.773-0.021-1.152-0.06c-0.053-0.002-0.106-0.008-0.159-0.019C5.239,22.272,1,17.622,1,12
		c0-2.395,0.77-4.613,2.073-6.421C3.116,5.5,3.17,5.427,3.234,5.361C5.245,2.713,8.426,1,12,1c4.466,0,8.319,2.675,10.04,6.507
		c0.034,0.059,0.062,0.122,0.083,0.188C22.688,9.018,23,10.473,23,12C23,18.065,18.065,23,12,23z M16.252,14.629l-3.664,6.353
		C17.277,20.677,21,16.765,21,12c0-1.051-0.182-2.062-0.514-3h-4.488C16.627,9.836,17,10.875,17,12
		C17,12.964,16.726,13.865,16.252,14.629z M3.928,8.021C3.334,9.221,3,10.572,3,12c0,4.4,3.175,8.074,7.355,8.85l2.24-3.885
		C12.4,16.988,12.202,17,12,17c-1.907,0-3.567-1.072-4.411-2.646L3.928,8.021z M9.437,13.558C9.964,14.422,10.916,15,12,15
		c1.062,0,1.998-0.556,2.531-1.391l0.062-0.109c0.012-0.02,0.024-0.04,0.037-0.059C14.866,13.014,15,12.522,15,12
		c0-1.654-1.346-3-3-3s-3,1.346-3,3c0,0.497,0.122,0.966,0.336,1.379L9.406,13.5C9.417,13.519,9.427,13.538,9.437,13.558z
		 M5.161,6.156l2.242,3.878C8.168,8.252,9.94,7,12,7h7.48C17.863,4.589,15.114,3,12,3C9.266,3,6.812,4.225,5.161,6.156z"/>
</g>
</svg>
