<?xml version="1.0" encoding="iso-8859-1"?>
<!-- Generator: Adobe Illustrator 27.4.0, SVG Export Plug-In . SVG Version: 6.00 Build 0)  -->
<svg version="1.1" id="Layer_1" xmlns="http://www.w3.org/2000/svg" xmlns:xlink="http://www.w3.org/1999/xlink" x="0px" y="0px"
	 viewBox="0 0 24 24" style="enable-background:new 0 0 24 24;" xml:space="preserve">
<g>
	<path d="M12,21.9c-0.114,0-0.228-0.01-0.341-0.029c-0.255-0.045-0.456-0.137-0.732-0.264l-6.41-2.938
		c-0.383-0.175-0.661-0.301-0.911-0.543c-0.219-0.214-0.388-0.477-0.49-0.764C3,17.037,3,16.746,3,16.307v-6.188L1.553,9.395
		C1.214,9.225,1,8.879,1,8.5s0.214-0.725,0.553-0.895l9.642-4.821c0.176-0.087,0.325-0.162,0.532-0.2
		c0.179-0.034,0.368-0.034,0.554,0.001c0.2,0.037,0.349,0.111,0.521,0.197l9.646,4.823C22.786,7.775,23,8.121,23,8.5
		s-0.214,0.725-0.553,0.895L21,10.118v6.188c0,0.439,0,0.729-0.114,1.054c-0.105,0.291-0.274,0.554-0.491,0.765
		c-0.247,0.241-0.512,0.362-0.913,0.545l-6.398,2.934c-0.286,0.131-0.486,0.223-0.739,0.268C12.229,21.891,12.114,21.9,12,21.9z
		 M5,11.118v5.188c0,0.196-0.007,0.319,0.009,0.417c0.046,0.002,0.161,0.046,0.339,0.127l6.401,2.935
		c0.132,0.061,0.208,0.1,0.276,0.121c0.016-0.021,0.092-0.061,0.214-0.116l6.409-2.938c0.179-0.081,0.295-0.126,0.376-0.182
		C19.008,16.627,19,16.504,19,16.307v-5.188l-1,0.5V14.5c0,0.553-0.447,1-1,1s-1-0.447-1-1v-1.882l-3.195,1.598
		c-0.173,0.086-0.326,0.162-0.532,0.2c-0.179,0.034-0.368,0.034-0.554-0.001c-0.198-0.037-0.351-0.113-0.513-0.193L5,11.118z
		 M4.467,8.616L12,12.382L14.764,11l-3.211-1.605c-0.494-0.247-0.694-0.848-0.447-1.342c0.247-0.494,0.847-0.695,1.342-0.447
		L17,9.882l2.533-1.267c0.014-0.007,0.027-0.014,0.041-0.02L19.764,8.5L12,4.618L4.236,8.5l0.19,0.095
		C4.44,8.602,4.454,8.608,4.467,8.616z"/>
</g>
</svg>
