<?xml version="1.0" encoding="iso-8859-1"?>
<!-- Generator: Adobe Illustrator 27.4.0, SVG Export Plug-In . SVG Version: 6.00 Build 0)  -->
<svg version="1.1" id="Layer_1" xmlns="http://www.w3.org/2000/svg" xmlns:xlink="http://www.w3.org/1999/xlink" x="0px" y="0px"
	 viewBox="0 0 24 24" style="enable-background:new 0 0 24 24;" xml:space="preserve">
<g>
	<path d="M11.998,21.382c-0.122,0-0.243-0.011-0.364-0.033c-0.28-0.054-0.485-0.156-0.796-0.312l-5.401-2.7
		c-0.365-0.183-0.628-0.313-0.864-0.554c-0.211-0.217-0.367-0.468-0.464-0.75C4,16.718,4,16.437,4,16.011v-5.393L1.553,9.395
		C1.214,9.225,1,8.879,1,8.5s0.214-0.725,0.553-0.895l9.642-4.821c0.176-0.087,0.325-0.162,0.532-0.2
		c0.179-0.034,0.368-0.034,0.554,0.001c0.2,0.037,0.349,0.111,0.521,0.197l9.646,4.823C22.786,7.775,23,8.121,23,8.5
		s-0.214,0.725-0.553,0.895L20,10.618v5.393c0,0.426,0,0.707-0.109,1.024c-0.095,0.276-0.249,0.528-0.459,0.744
		c-0.243,0.246-0.507,0.377-0.87,0.558l-5.399,2.7c-0.311,0.155-0.516,0.258-0.789,0.311C12.247,21.37,12.122,21.382,11.998,21.382z
		 M6,11.618v4.393c0,0.188-0.007,0.308,0.009,0.402c0.044,0.004,0.153,0.051,0.322,0.135l5.401,2.7
		c0.137,0.068,0.221,0.116,0.295,0.141c0.02-0.024,0.104-0.072,0.241-0.141l5.399-2.7c0.171-0.085,0.28-0.132,0.357-0.188
		C18.007,16.318,18,16.199,18,16.011v-4.393l-5.195,2.598c-0.173,0.086-0.326,0.162-0.532,0.2c-0.179,0.034-0.368,0.034-0.554-0.001
		c-0.198-0.037-0.351-0.113-0.513-0.193L6,11.618z M5.468,9.116L12,12.382l6.532-3.267c0.014-0.007,0.028-0.014,0.042-0.021
		L19.764,8.5L12,4.618L4.236,8.5l1.189,0.595C5.439,9.102,5.454,9.108,5.468,9.116z"/>
</g>
</svg>
