<?xml version="1.0" encoding="iso-8859-1"?>
<!-- Generator: Adobe Illustrator 27.4.0, SVG Export Plug-In . SVG Version: 6.00 Build 0)  -->
<svg version="1.1" id="Layer_1" xmlns="http://www.w3.org/2000/svg" xmlns:xlink="http://www.w3.org/1999/xlink" x="0px" y="0px"
	 viewBox="0 0 24 24" style="enable-background:new 0 0 24 24;" xml:space="preserve">
<g>
	<path d="M6.8,22H6.2c-1.238,0-1.92,0-2.562-0.326c-0.57-0.292-1.022-0.744-1.312-1.311C2,19.721,2,19.038,2,17.8V6.2
		c0-1.238,0-1.92,0.327-2.562C2.617,3.07,3.07,2.617,3.637,2.327C4.28,2,4.962,2,6.2,2h0.6c1.238,0,1.92,0,2.562,0.327
		c0.569,0.29,1.022,0.743,1.312,1.311C11,4.28,11,4.962,11,6.2v11.6c0,1.238,0,1.921-0.327,2.562c-0.29,0.567-0.742,1.02-1.31,1.311
		C8.72,22,8.038,22,6.8,22z M6.2,4C5.333,4,4.76,4,4.545,4.109c-0.186,0.095-0.341,0.25-0.437,0.438C4,4.76,4,5.333,4,6.2v11.6
		c0,0.867,0,1.44,0.109,1.654c0.096,0.188,0.248,0.341,0.438,0.438C4.76,20,5.333,20,6.2,20h0.6c0.868,0,1.44,0,1.655-0.109
		c0.188-0.096,0.34-0.248,0.437-0.438C9,19.24,9,18.667,9,17.8V6.2c0-0.868,0-1.44-0.109-1.655c-0.095-0.186-0.25-0.341-0.438-0.437
		C8.24,4,7.667,4,6.8,4H6.2z"/>
</g>
<g>
	<path d="M17.8,22h-0.6c-1.238,0-1.921,0-2.562-0.326c-0.567-0.291-1.021-0.744-1.311-1.311C13,19.721,13,19.038,13,17.8V6.2
		c0-1.238,0-1.92,0.326-2.562c0.292-0.57,0.744-1.022,1.311-1.312C15.279,2,15.962,2,17.2,2h0.6c1.238,0,1.921,0,2.562,0.327
		c0.567,0.29,1.02,0.742,1.311,1.31C22,4.28,22,4.962,22,6.2v11.6c0,1.238,0,1.921-0.326,2.562
		c-0.291,0.567-0.744,1.021-1.311,1.311C19.721,22,19.038,22,17.8,22z M17.2,4c-0.867,0-1.44,0-1.654,0.109
		c-0.188,0.096-0.341,0.248-0.438,0.438C15,4.76,15,5.333,15,6.2v11.6c0,0.867,0,1.44,0.109,1.654
		c0.096,0.188,0.248,0.341,0.438,0.438C15.76,20,16.333,20,17.2,20h0.6c0.867,0,1.44,0,1.654-0.109
		c0.188-0.096,0.341-0.248,0.438-0.438C20,19.24,20,18.667,20,17.8V6.2c0-0.868,0-1.44-0.109-1.655
		c-0.096-0.188-0.248-0.34-0.438-0.437C19.24,4,18.667,4,17.8,4H17.2z"/>
</g>
</svg>
