<?xml version="1.0" encoding="iso-8859-1"?>
<!-- Generator: Adobe Illustrator 27.4.0, SVG Export Plug-In . SVG Version: 6.00 Build 0)  -->
<svg version="1.1" id="Layer_1" xmlns="http://www.w3.org/2000/svg" xmlns:xlink="http://www.w3.org/1999/xlink" x="0px" y="0px"
	 viewBox="0 0 24 24" style="enable-background:new 0 0 24 24;" xml:space="preserve">
<g>
	<path d="M8.4,11H4.6c-0.65,0-1.08,0-1.508-0.218c-0.379-0.194-0.681-0.495-0.874-0.873C2,9.48,2,9.05,2,8.4V4.6
		c0-0.65,0-1.08,0.218-1.508C2.412,2.713,2.713,2.412,3.09,2.219C3.52,2,3.95,2,4.6,2h3.8c0.65,0,1.08,0,1.508,0.218
		c0.379,0.194,0.681,0.495,0.874,0.873C11,3.52,11,3.95,11,4.6v3.8c0,0.65,0,1.08-0.218,1.508c-0.194,0.379-0.495,0.681-0.873,0.874
		C9.48,11,9.05,11,8.4,11z M4.6,4C4.321,4,4.033,4,3.951,4.02C4,4.033,4,4.321,4,4.6v3.8c0,0.279,0,0.567,0.02,0.649
		C4.033,9,4.321,9,4.6,9h3.8c0.279,0,0.567,0,0.649-0.02C9,8.967,9,8.679,9,8.4V4.6c0-0.279,0-0.567-0.02-0.649
		C8.967,4,8.679,4,8.4,4H4.6z"/>
</g>
<g>
	<path d="M19.4,11H15.6c-0.65,0-1.08,0-1.508-0.218c-0.379-0.193-0.681-0.496-0.874-0.875C13,9.481,13,9.051,13,8.4V4.6
		c0-0.651,0-1.081,0.219-1.51c0.192-0.377,0.494-0.679,0.873-0.872C14.52,2,14.949,2,15.6,2H19.4c0.65,0,1.08,0,1.508,0.218
		c0.379,0.193,0.681,0.496,0.874,0.875C22,3.519,22,3.949,22,4.6v3.8c0,0.651,0,1.081-0.219,1.51
		c-0.192,0.377-0.494,0.679-0.873,0.872C20.48,11,20.051,11,19.4,11z M15.6,4c-0.278,0-0.566,0-0.648,0.02C15,4.034,15,4.322,15,4.6
		v3.8c0,0.278,0,0.566,0.02,0.648C15.033,9,15.321,9,15.6,9H19.4c0.278,0,0.566,0,0.648-0.02C20,8.966,20,8.678,20,8.4V4.6
		c0-0.278,0-0.566-0.02-0.648C19.967,4,19.679,4,19.4,4H15.6z"/>
</g>
<g>
	<path d="M19.4,22H15.6c-0.65,0-1.081,0-1.509-0.219c-0.378-0.191-0.681-0.494-0.873-0.874C13,20.481,13,20.051,13,19.4V15.6
		c0-0.65,0-1.081,0.219-1.509c0.191-0.378,0.494-0.681,0.874-0.873C14.519,13,14.949,13,15.6,13H19.4c0.65,0,1.081,0,1.509,0.219
		c0.378,0.191,0.681,0.494,0.873,0.874C22,14.519,22,14.949,22,15.6V19.4c0,0.65,0,1.081-0.219,1.509
		c-0.191,0.378-0.494,0.681-0.874,0.873C20.481,22,20.051,22,19.4,22z M15.6,15c-0.278,0-0.565,0-0.647,0.02
		C15,15.034,15,15.321,15,15.6V19.4c0,0.278,0,0.565,0.02,0.647C15.034,20,15.321,20,15.6,20H19.4c0.278,0,0.565,0,0.647-0.02
		C20,19.966,20,19.679,20,19.4V15.6c0-0.278,0-0.565-0.02-0.647C19.966,15,19.679,15,19.4,15H15.6z"/>
</g>
<g>
	<path d="M8.4,22H4.6c-0.651,0-1.081,0-1.51-0.219c-0.377-0.192-0.679-0.494-0.872-0.873C2,20.48,2,20.051,2,19.4V15.6
		c0-0.65,0-1.08,0.218-1.508c0.193-0.379,0.496-0.681,0.875-0.874C3.519,13,3.949,13,4.6,13h3.8c0.651,0,1.081,0,1.51,0.219
		c0.377,0.192,0.679,0.494,0.872,0.873C11,14.52,11,14.949,11,15.6V19.4c0,0.65,0,1.08-0.218,1.508
		c-0.193,0.379-0.496,0.681-0.875,0.874C9.481,22,9.051,22,8.4,22z M4.6,15c-0.278,0-0.566,0-0.648,0.02C4,15.033,4,15.321,4,15.6
		V19.4c0,0.278,0,0.566,0.02,0.648C4.034,20,4.322,20,4.6,20h3.8c0.278,0,0.566,0,0.648-0.02C9,19.967,9,19.679,9,19.4V15.6
		c0-0.278,0-0.566-0.02-0.648C8.966,15,8.678,15,8.4,15H4.6z"/>
</g>
</svg>
