<?xml version="1.0" encoding="iso-8859-1"?>
<!-- Generator: Adobe Illustrator 27.4.0, SVG Export Plug-In . SVG Version: 6.00 Build 0)  -->
<svg version="1.1" id="Layer_1" xmlns="http://www.w3.org/2000/svg" xmlns:xlink="http://www.w3.org/1999/xlink" x="0px" y="0px"
	 viewBox="0 0 24 24" style="enable-background:new 0 0 24 24;" xml:space="preserve">
<g>
	<path d="M21,22c-0.553,0-1-0.447-1-1V3c0-0.552,0.447-1,1-1s1,0.448,1,1v18C22,21.553,21.553,22,21,22z M16.51,22
		c-0.553,0-1.005-0.447-1.005-1s0.442-1,0.995-1h0.01c0.553,0,1,0.447,1,1S17.062,22,16.51,22z M12.01,22
		c-0.552,0-1.005-0.447-1.005-1s0.443-1,0.995-1h0.01c0.552,0,1,0.447,1,1S12.562,22,12.01,22z M7.51,22
		c-0.552,0-1.005-0.447-1.005-1s0.443-1,0.995-1h0.01c0.552,0,1,0.447,1,1S8.062,22,7.51,22z M3.01,22c-0.552,0-1.005-0.447-1.005-1
		S2.448,20,3,20h0.01c0.552,0,1,0.447,1,1S3.562,22,3.01,22z M12.01,17.5c-0.552,0-1.005-0.447-1.005-1s0.443-1,0.995-1h0.01
		c0.552,0,1,0.447,1,1S12.562,17.5,12.01,17.5z M3.01,17.5c-0.552,0-1.005-0.447-1.005-1s0.443-1,0.995-1h0.01c0.552,0,1,0.447,1,1
		S3.562,17.5,3.01,17.5z M16.51,13c-0.553,0-1.005-0.448-1.005-1s0.442-1,0.995-1h0.01c0.553,0,1,0.448,1,1S17.062,13,16.51,13z
		 M12.01,13c-0.552,0-1.005-0.448-1.005-1s0.443-1,0.995-1h0.01c0.552,0,1,0.448,1,1S12.562,13,12.01,13z M7.51,13
		c-0.552,0-1.005-0.448-1.005-1s0.443-1,0.995-1h0.01c0.552,0,1,0.448,1,1S8.062,13,7.51,13z M3.01,13c-0.552,0-1.005-0.448-1.005-1
		S2.448,11,3,11h0.01c0.552,0,1,0.448,1,1S3.562,13,3.01,13z M12.01,8.5c-0.552,0-1.005-0.448-1.005-1s0.443-1,0.995-1h0.01
		c0.552,0,1,0.448,1,1S12.562,8.5,12.01,8.5z M3.01,8.5c-0.552,0-1.005-0.448-1.005-1s0.443-1,0.995-1h0.01c0.552,0,1,0.448,1,1
		S3.562,8.5,3.01,8.5z M16.51,4c-0.553,0-1.005-0.448-1.005-1s0.442-1,0.995-1h0.01c0.553,0,1,0.448,1,1S17.062,4,16.51,4z M12.01,4
		c-0.552,0-1.005-0.448-1.005-1S11.448,2,12,2h0.01c0.552,0,1,0.448,1,1S12.562,4,12.01,4z M7.51,4C6.958,4,6.505,3.552,6.505,3
		S6.948,2,7.5,2h0.01c0.552,0,1,0.448,1,1S8.062,4,7.51,4z M3.01,4C2.458,4,2.005,3.552,2.005,3S2.448,2,3,2h0.01
		c0.552,0,1,0.448,1,1S3.562,4,3.01,4z"/>
</g>
</svg>
