<?xml version="1.0" encoding="iso-8859-1"?>
<!-- Generator: Adobe Illustrator 27.4.0, SVG Export Plug-In . SVG Version: 6.00 Build 0)  -->
<svg version="1.1" id="Layer_1" xmlns="http://www.w3.org/2000/svg" xmlns:xlink="http://www.w3.org/1999/xlink" x="0px" y="0px"
	 viewBox="0 0 24 24" style="enable-background:new 0 0 24 24;" xml:space="preserve">
<g>
	<path d="M17.8,22H16c-0.553,0-1-0.447-1-1s0.447-1,1-1h1.8c0.867,0,1.44,0,1.654-0.109c0.188-0.096,0.341-0.248,0.438-0.438
		C20,19.24,20,18.667,20,17.8V16c0-0.553,0.447-1,1-1s1,0.447,1,1v1.8c0,1.238,0,1.921-0.326,2.562
		c-0.291,0.567-0.744,1.021-1.311,1.311C19.721,22,19.038,22,17.8,22z M8,22H6.2c-1.238,0-1.92,0-2.562-0.326
		c-0.57-0.292-1.022-0.744-1.312-1.311C2,19.721,2,19.038,2,17.8V16c0-0.553,0.448-1,1-1s1,0.447,1,1v1.8
		c0,0.867,0,1.44,0.109,1.654c0.096,0.188,0.248,0.341,0.438,0.438C4.76,20,5.333,20,6.2,20H8c0.552,0,1,0.447,1,1S8.552,22,8,22z
		 M12,17c-2.757,0-5-2.243-5-5s2.243-5,5-5s5,2.243,5,5S14.757,17,12,17z M12,9c-1.654,0-3,1.346-3,3s1.346,3,3,3s3-1.346,3-3
		S13.654,9,12,9z M21,9c-0.553,0-1-0.448-1-1V6.2c0-0.868,0-1.44-0.109-1.655c-0.096-0.188-0.248-0.34-0.438-0.437
		C19.24,4,18.667,4,17.8,4H16c-0.553,0-1-0.448-1-1s0.447-1,1-1h1.8c1.238,0,1.921,0,2.562,0.327c0.567,0.29,1.02,0.742,1.311,1.31
		C22,4.28,22,4.962,22,6.2V8C22,8.552,21.553,9,21,9z M3,9C2.448,9,2,8.552,2,8V6.2c0-1.238,0-1.92,0.327-2.562
		C2.617,3.07,3.07,2.617,3.637,2.327C4.28,2,4.962,2,6.2,2H8c0.552,0,1,0.448,1,1S8.552,4,8,4H6.2C5.333,4,4.76,4,4.545,4.109
		c-0.186,0.095-0.341,0.25-0.437,0.438C4,4.76,4,5.333,4,6.2V8C4,8.552,3.552,9,3,9z"/>
</g>
</svg>
