<?xml version="1.0" encoding="iso-8859-1"?>
<!-- Generator: Adobe Illustrator 27.4.0, SVG Export Plug-In . SVG Version: 6.00 Build 0)  -->
<svg version="1.1" id="Layer_1" xmlns="http://www.w3.org/2000/svg" xmlns:xlink="http://www.w3.org/1999/xlink" x="0px" y="0px"
	 viewBox="0 0 24 24" style="enable-background:new 0 0 24 24;" xml:space="preserve">
<g>
	<path d="M12,23c-5.238,0-9.5-4.187-9.5-9.333v-2.223c0-1.47,1.211-2.667,2.7-2.667c0.242,0,0.477,0.032,0.7,0.091V4.778
		c0-1.47,1.211-2.667,2.7-2.667c0.378,0,0.738,0.077,1.065,0.216C10.134,1.534,11.005,1,12,1s1.866,0.534,2.335,1.328
		c0.327-0.139,0.688-0.216,1.065-0.216c1.488,0,2.699,1.196,2.699,2.667v0.757c0.224-0.059,0.458-0.091,0.7-0.091
		c1.489,0,2.7,1.196,2.7,2.667v5.556C21.5,18.813,17.238,23,12,23z M5.2,10.778c-0.386,0-0.7,0.299-0.7,0.667v2.223
		C4.5,17.71,7.864,21,12,21s7.5-3.29,7.5-7.333V8.111c0-0.368-0.314-0.667-0.7-0.667s-0.7,0.299-0.7,0.667v2.777
		c0,0.552-0.447,1-1,1s-1-0.448-1-1V4.778c0-0.368-0.313-0.667-0.699-0.667s-0.7,0.299-0.7,0.667v6.111c0,0.552-0.447,1-1,1
		s-1-0.448-1-1V3.667C12.7,3.299,12.386,3,12,3s-0.7,0.299-0.7,0.667v7.222c0,0.552-0.448,1-1,1s-1-0.448-1-1V4.778
		c0-0.368-0.314-0.667-0.7-0.667c-0.386,0-0.7,0.299-0.7,0.667v9.445c0,0.553-0.448,1-1,1s-1-0.447-1-1v-2.778
		C5.9,11.077,5.586,10.778,5.2,10.778z"/>
</g>
</svg>
