<?xml version="1.0" encoding="iso-8859-1"?>
<!-- Generator: Adobe Illustrator 27.4.0, SVG Export Plug-In . SVG Version: 6.00 Build 0)  -->
<svg version="1.1" id="Layer_1" xmlns="http://www.w3.org/2000/svg" xmlns:xlink="http://www.w3.org/1999/xlink" x="0px" y="0px"
	 viewBox="0 0 24 24" style="enable-background:new 0 0 24 24;" xml:space="preserve">
<g>
	<path d="M14.501,22c-0.055,0-0.109-0.004-0.165-0.014c-0.545-0.091-0.913-0.606-0.822-1.15L14.153,17H8.181l-0.694,4.164
		c-0.091,0.545-0.602,0.918-1.151,0.822c-0.544-0.091-0.913-0.606-0.822-1.15L6.153,17H2.5c-0.552,0-1-0.447-1-1s0.448-1,1-1h3.986
		l1-6H3.5c-0.552,0-1-0.448-1-1s0.448-1,1-1h4.319l0.694-4.165c0.091-0.544,0.604-0.913,1.151-0.822
		c0.544,0.091,0.913,0.606,0.822,1.151L9.847,7h5.972l0.694-4.165c0.09-0.544,0.604-0.912,1.15-0.822
		c0.545,0.091,0.913,0.606,0.822,1.151L17.847,7H20.5c0.553,0,1,0.448,1,1s-0.447,1-1,1h-2.986l-1,6H19.5c0.553,0,1,0.447,1,1
		s-0.447,1-1,1h-3.319l-0.694,4.164C15.405,21.653,14.981,22,14.501,22z M8.514,15h5.973l1-6H9.514L8.514,15z"/>
</g>
</svg>
