<?xml version="1.0" encoding="iso-8859-1"?>
<!-- Generator: Adobe Illustrator 27.4.0, SVG Export Plug-In . SVG Version: 6.00 Build 0)  -->
<svg version="1.1" id="Layer_1" xmlns="http://www.w3.org/2000/svg" xmlns:xlink="http://www.w3.org/1999/xlink" x="0px" y="0px"
	 viewBox="0 0 24 24" style="enable-background:new 0 0 24 24;" xml:space="preserve">
<g>
	<path d="M16,22c-0.553,0-1-0.447-1-1v-4H9v4c0,0.553-0.448,1-1,1s-1-0.447-1-1v-4H4c-0.552,0-1-0.447-1-1s0.448-1,1-1h3V9H4
		C3.448,9,3,8.552,3,8s0.448-1,1-1h3V3c0-0.552,0.448-1,1-1s1,0.448,1,1v4h6V3c0-0.552,0.447-1,1-1s1,0.448,1,1v4h3
		c0.553,0,1,0.448,1,1s-0.447,1-1,1h-3v6h3c0.553,0,1,0.447,1,1s-0.447,1-1,1h-3v4C17,21.553,16.553,22,16,22z M9,15h6V9H9V15z"/>
</g>
</svg>
