<?xml version="1.0" encoding="iso-8859-1"?>
<!-- Generator: Adobe Illustrator 27.4.0, SVG Export Plug-In . SVG Version: 6.00 Build 0)  -->
<svg version="1.1" id="Layer_1" xmlns="http://www.w3.org/2000/svg" xmlns:xlink="http://www.w3.org/1999/xlink" x="0px" y="0px"
	 viewBox="0 0 24 24" style="enable-background:new 0 0 24 24;" xml:space="preserve">
<g>
	<path d="M18.5,22c-1.93,0-3.5-1.57-3.5-3.5v-2c0-1.93,1.57-3.5,3.5-3.5c0.536,0,1.045,0.121,1.5,0.338V12c0-4.411-3.589-8-8-8
		s-8,3.589-8,8v1.338C4.455,13.121,4.963,13,5.5,13C7.43,13,9,14.57,9,16.5v2C9,20.43,7.43,22,5.5,22S2,20.43,2,18.5V12
		C2,6.486,6.486,2,12,2c5.514,0,10,4.486,10,10v6.5C22,20.43,20.43,22,18.5,22z M18.5,15c-0.827,0-1.5,0.673-1.5,1.5v2
		c0,0.827,0.673,1.5,1.5,1.5s1.5-0.673,1.5-1.5v-2C20,15.673,19.327,15,18.5,15z M4,18v0.5C4,19.327,4.673,20,5.5,20
		S7,19.327,7,18.5v-2C7,15.673,6.327,15,5.5,15S4,15.673,4,16.5V18z"/>
</g>
</svg>
