<?xml version="1.0" encoding="iso-8859-1"?>
<!-- Generator: Adobe Illustrator 27.4.0, SVG Export Plug-In . SVG Version: 6.00 Build 0)  -->
<svg version="1.1" id="Layer_1" xmlns="http://www.w3.org/2000/svg" xmlns:xlink="http://www.w3.org/1999/xlink" x="0px" y="0px"
	 viewBox="0 0 24 24" style="enable-background:new 0 0 24 24;" xml:space="preserve">
<g>
	<path d="M20,21h-4c-0.553,0-1-0.447-1-1s0.447-1,1-1h1v-6h-6.5v6h1c0.552,0,1,0.447,1,1s-0.448,1-1,1H4c-0.552,0-1-0.447-1-1
		s0.448-1,1-1h1V5H4C3.448,5,3,4.552,3,4s0.448-1,1-1h7.5c0.552,0,1,0.448,1,1s-0.448,1-1,1h-1v6H17V5h-1c-0.553,0-1-0.448-1-1
		s0.447-1,1-1h4c0.553,0,1,0.448,1,1s-0.447,1-1,1h-1v14h1c0.553,0,1,0.447,1,1S20.553,21,20,21z M7,19h1.5V5H7V19z"/>
</g>
</svg>
