<?xml version="1.0" encoding="iso-8859-1"?>
<!-- Generator: Adobe Illustrator 27.4.0, SVG Export Plug-In . SVG Version: 6.00 Build 0)  -->
<svg version="1.1" id="Layer_1" xmlns="http://www.w3.org/2000/svg" xmlns:xlink="http://www.w3.org/1999/xlink" x="0px" y="0px"
	 viewBox="0 0 24 24" style="enable-background:new 0 0 24 24;" xml:space="preserve">
<g>
	<path d="M16.5,22c-1.93,0-3.5-1.57-3.5-3.5v-3c0-1.93,1.57-3.5,3.5-3.5s3.5,1.57,3.5,3.5v3C20,20.43,18.43,22,16.5,22z M16.5,14
		c-0.827,0-1.5,0.673-1.5,1.5v3c0,0.827,0.673,1.5,1.5,1.5s1.5-0.673,1.5-1.5v-3C18,14.673,17.327,14,16.5,14z M7.5,22
		C5.57,22,4,20.43,4,18.5v-3C4,13.57,5.57,12,7.5,12s3.5,1.57,3.5,3.5v3C11,20.43,9.43,22,7.5,22z M7.5,14C6.673,14,6,14.673,6,15.5
		v3C6,19.327,6.673,20,7.5,20S9,19.327,9,18.5v-3C9,14.673,8.327,14,7.5,14z M22,18c-0.553,0-1-0.447-1-1v-4c0-4.962-4.037-9-9-9
		c-4.962,0-9,4.038-9,9v4c0,0.553-0.448,1-1,1s-1-0.447-1-1v-4C1,6.935,5.935,2,12,2s11,4.935,11,11v4C23,17.553,22.553,18,22,18z"
		/>
</g>
</svg>
