<?xml version="1.0" encoding="iso-8859-1"?>
<!-- Generator: Adobe Illustrator 27.4.0, SVG Export Plug-In . SVG Version: 6.00 Build 0)  -->
<svg version="1.1" id="Layer_1" xmlns="http://www.w3.org/2000/svg" xmlns:xlink="http://www.w3.org/1999/xlink" x="0px" y="0px"
	 viewBox="0 0 24 24" style="enable-background:new 0 0 24 24;" xml:space="preserve">
<g>
	<path d="M12,22C11.184,22,1,16.298,1,9.48C1,5.868,3.768,2,7.889,2C9.729,2,11.072,2.712,12,3.509C12.928,2.712,14.271,2,16.111,2
		C20.232,2,23,5.868,23,9.48C23,16.298,12.816,22,12,22z M7.889,4C4.964,4,3,6.833,3,9.48c0,4.918,7.071,9.411,9,10.417
		c1.929-1.006,9-5.498,9-10.417C21,6.833,19.035,4,16.111,4c-1.662,0-2.739,0.855-3.35,1.572c-0.38,0.446-1.143,0.446-1.522,0
		C10.628,4.855,9.55,4,7.889,4z"/>
</g>
</svg>
