<?xml version="1.0" encoding="iso-8859-1"?>
<!-- Generator: Adobe Illustrator 27.4.0, SVG Export Plug-In . SVG Version: 6.00 Build 0)  -->
<svg version="1.1" id="Layer_1" xmlns="http://www.w3.org/2000/svg" xmlns:xlink="http://www.w3.org/1999/xlink" x="0px" y="0px"
	 viewBox="0 0 24 24" style="enable-background:new 0 0 24 24;" xml:space="preserve">
<g>
	<path d="M4.4,23H3.6c-0.651,0-1.081,0-1.51-0.219c-0.375-0.191-0.677-0.493-0.871-0.871C1,21.48,1,21.05,1,20.399v-5.8
		c0-0.65,0-1.08,0.218-1.508c0.193-0.379,0.496-0.681,0.875-0.874C2.519,12,2.949,12,3.6,12h0.8c0.651,0,1.081,0,1.51,0.219
		c0.377,0.192,0.679,0.494,0.872,0.873c0.076,0.148,0.125,0.298,0.158,0.456l1.607-0.672C8.841,12.741,10.518,12,11.643,12
		c0.477,0,0.955,0.057,1.42,0.169l2.387,0.581c1.111,0.269,1.9,1.219,1.955,2.334l1.483-1.081c1.029-0.753,2.438-0.653,3.347,0.233
		c0.493,0.48,0.766,1.12,0.765,1.803c0,0.682-0.271,1.321-0.765,1.8l-2.158,2.099c-0.722,0.702-1.632,1.177-2.633,1.372
		l-3.051,0.593c-0.737,0.144-1.517,0.127-2.253-0.052l-2.758-0.67c-0.254-0.062-0.513-0.094-0.772-0.094H6.986
		c-0.021,0.306-0.073,0.563-0.204,0.821c-0.195,0.38-0.497,0.682-0.875,0.874C5.481,23,5.051,23,4.4,23z M3.6,14
		c-0.278,0-0.566,0-0.648,0.02C3,14.033,3,14.321,3,14.6v5.8c0,0.279,0,0.567,0.02,0.649C3.034,21,3.322,21,3.6,21h0.8
		c0.278,0,0.566,0,0.648-0.02C5,20.967,5,20.679,5,20.399v-5.352c0-0.016,0-0.03,0-0.046V14.6c0-0.278,0-0.566-0.02-0.648
		C4.966,14,4.678,14,4.4,14H3.6z M7,19.087h1.61c0.42,0,0.84,0.051,1.247,0.151l2.755,0.669c0.455,0.11,0.938,0.122,1.399,0.032
		l3.051-0.593c0.617-0.121,1.178-0.412,1.62-0.843l2.158-2.099c0.103-0.1,0.159-0.23,0.159-0.367c0-0.138-0.057-0.269-0.159-0.368
		c-0.207-0.201-0.54-0.223-0.773-0.052l-2.516,1.834c-0.525,0.385-1.179,0.598-1.838,0.598h-2.429c-0.552,0-1-0.447-1-1s0.448-1,1-1
		h1.546c0.318,0,0.577-0.239,0.577-0.534v-0.307c0-0.242-0.177-0.454-0.43-0.516l-2.386-0.58C12.282,14.038,11.962,14,11.643,14
		c-0.512,0-1.651,0.414-2.295,0.708L7,15.69V19.087z M15.691,11.198c-0.372,0-0.747-0.106-1.061-0.303
		c-0.378-0.234-0.58-0.548-0.887-1.024c-1.123-1.746-1.838-2.98-2.133-3.68c-0.767-1.818,0.041-3.915,1.839-4.773
		c1.46-0.698,3.075-0.309,4.09,0.884c1.459-0.509,3.044-0.044,3.971,1.267c1.154,1.631,0.81,3.855-0.785,5.064
		c-0.607,0.46-1.845,1.171-3.677,2.115c-0.51,0.262-0.845,0.435-1.294,0.449C15.734,11.197,15.713,11.198,15.691,11.198z
		 M14.94,3.072c-0.198,0-0.409,0.046-0.629,0.151c-0.846,0.404-1.214,1.346-0.857,2.191c0.243,0.578,0.941,1.772,1.965,3.364
		c0.123,0.191,0.256,0.397,0.306,0.446c-0.011-0.039,0.201-0.148,0.405-0.253c1.685-0.867,2.887-1.552,3.388-1.932
		c0.741-0.562,0.896-1.558,0.36-2.315c-0.579-0.821-1.484-0.746-2.121-0.307c-0.241,0.165-0.544,0.216-0.824,0.141
		c-0.282-0.076-0.518-0.271-0.644-0.535C16.043,3.507,15.551,3.072,14.94,3.072z"/>
</g>
</svg>
