<?xml version="1.0" encoding="iso-8859-1"?>
<!-- Generator: Adobe Illustrator 27.4.0, SVG Export Plug-In . SVG Version: 6.00 Build 0)  -->
<svg version="1.1" id="Layer_1" xmlns="http://www.w3.org/2000/svg" xmlns:xlink="http://www.w3.org/1999/xlink" x="0px" y="0px"
	 viewBox="0 0 24 24" style="enable-background:new 0 0 24 24;" xml:space="preserve">
<g>
	<path d="M16.2,22H7.8c-1.838,0-2.76,0-3.616-0.437c-0.757-0.385-1.362-0.989-1.748-1.747C2,18.96,2,18.037,2,16.2V7.8
		c0-1.838,0-2.76,0.436-3.616c0.386-0.757,0.991-1.362,1.748-1.748C5.04,2,5.962,2,7.8,2h8.4c1.837,0,2.76,0,3.616,0.436
		c0.758,0.386,1.362,0.991,1.748,1.749C22,5.04,22,5.962,22,7.8v8.4c0,1.837,0,2.76-0.436,3.616
		c-0.386,0.758-0.99,1.362-1.749,1.748C18.96,22,18.037,22,16.2,22z M7.8,4C6.33,4,5.52,4,5.092,4.218
		C4.713,4.411,4.411,4.713,4.218,5.092C4,5.52,4,6.33,4,7.8v8.4c0,1.47,0,2.279,0.218,2.708c0.193,0.379,0.495,0.681,0.873,0.873
		C5.52,20,6.33,20,7.8,20h8.4c1.47,0,2.279,0,2.708-0.219c0.379-0.192,0.681-0.494,0.873-0.872C20,18.479,20,17.67,20,16.2V7.8
		c0-1.47,0-2.28-0.218-2.708c-0.193-0.379-0.495-0.681-0.874-0.874C18.479,4,17.67,4,16.2,4H7.8z"/>
</g>
<g>
	<path d="M11.996,17.664c-0.196,0-0.392-0.028-0.578-0.085c-0.432-0.131-0.711-0.384-1.135-0.768
		c-1.756-1.59-2.914-2.739-3.44-3.418c-1.31-1.684-1.053-4.1,0.584-5.499c1.349-1.151,3.174-1.179,4.571-0.176
		c1.385-0.984,3.206-0.957,4.556,0.167c1.661,1.381,1.923,3.801,0.597,5.508c-0.524,0.675-1.683,1.825-3.441,3.418
		c-0.423,0.383-0.703,0.636-1.131,0.767C12.39,17.636,12.192,17.664,11.996,17.664z M9.796,8.996c-0.354,0-0.723,0.123-1.07,0.419
		c-0.837,0.715-0.968,1.898-0.305,2.751c0.443,0.57,1.581,1.694,3.204,3.163c0.172,0.155,0.351,0.317,0.412,0.353
		c-0.02-0.035,0.166-0.204,0.331-0.353c1.625-1.473,2.763-2.596,3.203-3.163c0.673-0.865,0.546-2.044-0.295-2.743
		c-0.911-0.758-1.945-0.378-2.52,0.294c-0.38,0.444-1.14,0.444-1.52,0C10.88,9.301,10.355,8.996,9.796,8.996z"/>
</g>
</svg>
