<?xml version="1.0" encoding="iso-8859-1"?>
<!-- Generator: Adobe Illustrator 27.4.0, SVG Export Plug-In . SVG Version: 6.00 Build 0)  -->
<svg version="1.1" id="Layer_1" xmlns="http://www.w3.org/2000/svg" xmlns:xlink="http://www.w3.org/1999/xlink" x="0px" y="0px"
	 viewBox="0 0 24 24" style="enable-background:new 0 0 24 24;" xml:space="preserve">
<g>
	<path d="M10.656,22.975c-0.103,0-0.208-0.011-0.319-0.037c-0.289-0.069-0.545-0.218-0.746-0.431
		c-0.229-0.242-0.314-0.5-0.413-0.799c-0.496-1.488-1.547-4.731-2.066-6.954c-1.887-1.018-3.211-1.812-3.938-2.362
		C0.835,10.62,0.318,7.32,1.996,4.878C3.433,2.787,6.01,2.141,8.299,3.174c1.456-2.009,4.001-2.739,6.295-1.682
		c2.696,1.243,3.904,4.361,2.751,7.101c-0.147,0.35-0.362,0.787-0.643,1.304c0.109,0.206,0.207,0.421,0.292,0.646
		c2.453-0.397,4.766,0.894,5.642,3.263c1.027,2.785-0.324,5.845-3.077,6.965c-1.851,0.754-6.44,1.736-8.328,2.124
		C11.031,22.937,10.848,22.975,10.656,22.975z M10.626,20.976L10.626,20.976L10.626,20.976z M8.97,13.908
		c0.438,2.056,1.588,5.608,2.046,6.99c1.621-0.336,6.115-1.297,7.79-1.979c1.777-0.724,2.617-2.624,1.954-4.42
		c-0.732-1.986-2.657-2.328-4.13-1.807c-0.276,0.097-0.58,0.069-0.833-0.077c-0.253-0.146-0.43-0.396-0.483-0.683
		c-0.298-1.607-1.635-3.043-3.615-2.676c-1.892,0.351-3.123,2.03-2.864,3.905c0.028,0.201,0.07,0.436,0.125,0.694
		C8.962,13.874,8.966,13.892,8.97,13.908z M6.074,4.696c-0.9,0-1.793,0.387-2.43,1.314C2.555,7.596,2.871,9.654,4.38,10.797
		c0.477,0.361,1.305,0.875,2.434,1.511c0.17-2.448,1.988-4.547,4.519-5.018c1.484-0.275,2.896,0.097,3.98,0.94
		c0.074-0.153,0.137-0.291,0.188-0.414c0.745-1.769-0.005-3.706-1.744-4.508c-1.919-0.885-3.522,0.231-4.197,1.643
		C9.435,5.216,9.2,5.411,8.917,5.487C8.636,5.562,8.334,5.511,8.093,5.346C7.498,4.938,6.784,4.696,6.074,4.696z"/>
</g>
</svg>
