<?xml version="1.0" encoding="iso-8859-1"?>
<!-- Generator: Adobe Illustrator 27.4.0, SVG Export Plug-In . SVG Version: 6.00 Build 0)  -->
<svg version="1.1" id="Layer_1" xmlns="http://www.w3.org/2000/svg" xmlns:xlink="http://www.w3.org/1999/xlink" x="0px" y="0px"
	 viewBox="0 0 24 24" style="enable-background:new 0 0 24 24;" xml:space="preserve">
<g>
	<path d="M11.993,21.834c-0.144,0-0.287-0.021-0.427-0.062c-0.315-0.094-0.515-0.27-0.747-0.474
		c-1.964-1.739-6.688-5.993-8.345-8.125C0.146,10.178,0.589,6.041,3.505,3.55c2.514-2.147,6.001-2.026,8.486,0.162
		c2.477-2.196,5.899-2.316,8.479-0.171c2.905,2.415,3.362,6.646,1.041,9.633c-1.655,2.13-6.38,6.386-8.335,8.116
		c-0.241,0.213-0.441,0.389-0.756,0.482C12.28,21.813,12.136,21.834,11.993,21.834z M7.583,3.994c-0.934,0-1.895,0.322-2.778,1.076
		c-2.088,1.784-2.411,4.74-0.751,6.876c1.55,1.994,6.296,6.261,7.939,7.72c1.655-1.47,6.393-5.729,7.938-7.72
		c1.684-2.166,1.366-5.119-0.739-6.868c-2.238-1.861-4.934-1.053-6.439,0.707c-0.379,0.445-1.139,0.444-1.52,0
		C10.319,4.717,8.982,3.994,7.583,3.994z"/>
</g>
</svg>
