<?xml version="1.0" encoding="iso-8859-1"?>
<!-- Generator: Adobe Illustrator 27.4.0, SVG Export Plug-In . SVG Version: 6.00 Build 0)  -->
<svg version="1.1" id="Layer_1" xmlns="http://www.w3.org/2000/svg" xmlns:xlink="http://www.w3.org/1999/xlink" x="0px" y="0px"
	 viewBox="0 0 24 24" style="enable-background:new 0 0 24 24;" xml:space="preserve">
<g>
	<path d="M15.478,23H8.523c-0.292,0-0.484,0-0.713-0.055c-0.206-0.049-0.399-0.13-0.58-0.24c-0.2-0.121-0.342-0.264-0.539-0.461
		l-4.929-4.929c-0.207-0.206-0.347-0.347-0.47-0.549c-0.107-0.175-0.188-0.37-0.237-0.576C1,15.963,1,15.77,1,15.478V8.523
		C1,8.23,1,8.037,1.056,7.806C1.104,7.603,1.185,7.409,1.294,7.23c0.122-0.2,0.264-0.342,0.461-0.539l4.929-4.929
		C6.888,1.559,7.03,1.417,7.232,1.293c0.177-0.108,0.371-0.189,0.575-0.238C8.037,1,8.23,1,8.523,1h6.955
		c0.292,0,0.485,0,0.716,0.056c0.203,0.048,0.398,0.129,0.579,0.24c0.196,0.119,0.337,0.259,0.531,0.454l4.935,4.935
		c0.203,0.203,0.346,0.345,0.469,0.547c0.108,0.178,0.189,0.372,0.238,0.575C23,8.039,23,8.231,23,8.523v6.955
		c0,0.291,0,0.483-0.055,0.712c-0.049,0.206-0.13,0.402-0.241,0.583c-0.119,0.196-0.26,0.337-0.454,0.531l-4.935,4.935
		c-0.206,0.206-0.347,0.347-0.549,0.47c-0.175,0.107-0.371,0.188-0.576,0.237C15.961,23,15.769,23,15.478,23z M8.371,2.999
		C8.325,2.999,8.287,3,8.253,3.004C8.242,3.028,8.19,3.084,8.105,3.169L3.176,8.099C3.084,8.19,3.028,8.242,2.988,8.292
		C2.997,8.318,3,8.398,3,8.523v6.955c0,0.125-0.003,0.204,0.004,0.269c0.023,0.011,0.078,0.062,0.16,0.144l4.935,4.935
		c0.091,0.091,0.144,0.148,0.194,0.188C8.317,21.004,8.396,21,8.523,21h6.955c0.129,0.001,0.206,0.004,0.271-0.004
		c0.009-0.023,0.06-0.078,0.142-0.16l4.935-4.935c0.094-0.094,0.148-0.145,0.188-0.193C21.004,15.683,21,15.604,21,15.478V8.523
		c0-0.126,0.004-0.206-0.004-0.272c-0.023-0.009-0.081-0.061-0.166-0.146l-4.929-4.929c-0.094-0.094-0.145-0.149-0.193-0.188
		C15.682,2.997,15.603,3,15.478,3H8.523C8.463,3,8.414,2.999,8.371,2.999z M12.01,18c-0.552,0-1.005-0.447-1.005-1s0.443-1,0.995-1
		h0.01c0.552,0,1,0.447,1,1S12.562,18,12.01,18z M11.92,14c-0.419,0-0.809-0.265-0.949-0.684c-0.175-0.524,0.108-1.09,0.632-1.265
		c0.599-0.203,2.316-1.018,2.316-2.051c0.001-0.473-0.166-0.932-0.471-1.292c-0.303-0.361-0.726-0.604-1.191-0.684
		c-0.464-0.079-0.944,0.008-1.352,0.248C10.5,8.51,10.19,8.887,10.033,9.332c-0.184,0.521-0.754,0.794-1.275,0.611
		C8.237,9.76,7.963,9.189,8.146,8.668C8.46,7.778,9.08,7.025,9.894,6.547c0.813-0.479,1.774-0.654,2.703-0.494
		c0.931,0.161,1.777,0.646,2.384,1.367c0.607,0.722,0.94,1.639,0.939,2.582c0,2.643-3.307,3.822-3.684,3.947
		C12.131,13.983,12.024,14,11.92,14z"/>
</g>
</svg>
