<?xml version="1.0" encoding="iso-8859-1"?>
<!-- Generator: Adobe Illustrator 27.4.0, SVG Export Plug-In . SVG Version: 6.00 Build 0)  -->
<svg version="1.1" id="Layer_1" xmlns="http://www.w3.org/2000/svg" xmlns:xlink="http://www.w3.org/1999/xlink" x="0px" y="0px"
	 viewBox="0 0 24 24" style="enable-background:new 0 0 24 24;" xml:space="preserve">
<g>
	<path d="M12,23C5.935,23,1,18.065,1,12S5.935,1,12,1s11,4.935,11,11S18.065,23,12,23z M12,3c-4.962,0-9,4.038-9,9
		c0,4.963,4.038,9,9,9c4.963,0,9-4.037,9-9C21,7.038,16.963,3,12,3z M12.01,18c-0.552,0-1.005-0.447-1.005-1s0.443-1,0.995-1h0.01
		c0.552,0,1,0.447,1,1S12.562,18,12.01,18z M11.92,14c-0.419,0-0.809-0.265-0.949-0.684c-0.175-0.524,0.108-1.09,0.632-1.265
		c0.599-0.203,2.316-1.018,2.316-2.051c0.001-0.473-0.166-0.932-0.471-1.292c-0.303-0.361-0.726-0.604-1.191-0.684
		c-0.464-0.079-0.944,0.008-1.352,0.248C10.5,8.51,10.19,8.887,10.033,9.332c-0.184,0.521-0.754,0.794-1.275,0.611
		C8.237,9.76,7.963,9.189,8.146,8.668C8.46,7.778,9.08,7.025,9.894,6.547c0.813-0.479,1.774-0.654,2.703-0.494
		c0.93,0.16,1.777,0.646,2.384,1.367c0.607,0.722,0.94,1.639,0.939,2.582c0,2.643-3.307,3.822-3.684,3.947
		C12.131,13.983,12.024,14,11.92,14z"/>
</g>
</svg>
