<?xml version="1.0" encoding="iso-8859-1"?>
<!-- Generator: Adobe Illustrator 27.4.0, SVG Export Plug-In . SVG Version: 6.00 Build 0)  -->
<svg version="1.1" id="Layer_1" xmlns="http://www.w3.org/2000/svg" xmlns:xlink="http://www.w3.org/1999/xlink" x="0px" y="0px"
	 viewBox="0 0 24 24" style="enable-background:new 0 0 24 24;" xml:space="preserve">
<g>
	<path d="M16.059,22H7.941c-0.407,0-0.675,0-0.982-0.102c-0.267-0.087-0.513-0.231-0.726-0.428c-0.238-0.22-0.368-0.454-0.564-0.809
		l-4.111-7.399c-0.19-0.343-0.312-0.562-0.373-0.86c-0.055-0.268-0.055-0.538,0-0.806c0.061-0.298,0.183-0.517,0.366-0.849
		l4.118-7.411c0.199-0.358,0.329-0.591,0.564-0.808c0.21-0.194,0.455-0.338,0.727-0.428C7.267,2,7.535,2,7.941,2h8.118
		c0.406,0,0.675,0,0.979,0.101c0.274,0.091,0.52,0.235,0.729,0.43c0.233,0.215,0.362,0.446,0.558,0.795l4.117,7.411
		c0,0,0,0.001,0.001,0.001l-0.875,0.485l0.88-0.475c0.185,0.333,0.307,0.553,0.367,0.853c0.054,0.264,0.054,0.535-0.001,0.802
		c-0.06,0.296-0.182,0.516-0.366,0.849l-4.117,7.41c-0.198,0.357-0.328,0.59-0.562,0.807c-0.214,0.198-0.461,0.343-0.736,0.432
		C16.734,22,16.466,22,16.059,22z M7.725,3.999c-0.066,0-0.12,0.002-0.167,0.009C7.554,4.048,7.505,4.149,7.419,4.303l-4.114,7.406
		c-0.084,0.152-0.14,0.24-0.169,0.32c0.03,0.022,0.085,0.11,0.165,0.253l4.116,7.409c0.087,0.157,0.137,0.26,0.193,0.332
		C7.649,20.007,7.762,20,7.941,20h8.118c0.178,0,0.291,0.007,0.382-0.008c0.005-0.041,0.054-0.143,0.141-0.299l4.113-7.402
		c0.084-0.151,0.139-0.239,0.169-0.319c-0.03-0.024-0.085-0.112-0.164-0.254l0.869-0.495l-0.874,0.486l-4.111-7.4
		c-0.09-0.161-0.138-0.261-0.193-0.332C16.352,3.994,16.237,4,16.059,4H7.941C7.855,4,7.785,3.999,7.725,3.999z"/>
</g>
</svg>
