<?xml version="1.0" encoding="iso-8859-1"?>
<!-- Generator: Adobe Illustrator 27.4.0, SVG Export Plug-In . SVG Version: 6.00 Build 0)  -->
<svg version="1.1" id="Layer_1" xmlns="http://www.w3.org/2000/svg" xmlns:xlink="http://www.w3.org/1999/xlink" x="0px" y="0px"
	 viewBox="0 0 24 24" style="enable-background:new 0 0 24 24;" xml:space="preserve">
<g>
	<path d="M17.8,22h-2c-0.355,0-0.662,0-0.983-0.165c-0.279-0.142-0.507-0.368-0.652-0.652C14,20.86,14,20.555,14,20.2v-6.6
		c0-0.278,0-0.566-0.02-0.648C13.966,13,13.679,13,13.4,13h-2.8c-0.278,0-0.566,0-0.648,0.02C10,13.033,10,13.321,10,13.601v6.6
		c0,0.354,0,0.66-0.164,0.981c-0.146,0.284-0.372,0.511-0.657,0.655C8.861,22,8.555,22,8.2,22h-2c-1.238,0-1.92,0-2.562-0.326
		c-0.568-0.289-1.021-0.742-1.312-1.311C2,19.721,2,19.038,2,17.8v-7.234c0-0.645,0-1,0.111-1.396
		C2.209,8.818,2.37,8.49,2.587,8.195c0.245-0.331,0.54-0.561,1.028-0.941l6.788-5.28c0.415-0.322,0.686-0.533,1.072-0.638
		c0.344-0.093,0.706-0.094,1.047,0c0.387,0.105,0.659,0.316,1.07,0.635c0.001,0,0.003,0.002,0.004,0.002l6.782,5.275
		c0.507,0.395,0.787,0.613,1.032,0.942C21.63,8.49,21.79,8.818,21.889,9.17C22,9.566,22,9.921,22,10.565V17.8
		c0,1.238,0,1.921-0.326,2.562c-0.292,0.569-0.745,1.022-1.312,1.312C19.721,22,19.038,22,17.8,22z M16,20h1.8
		c0.867,0,1.44,0,1.654-0.109c0.187-0.094,0.342-0.25,0.438-0.438C20,19.24,20,18.667,20,17.8v-7.234c0-0.452,0-0.724-0.037-0.855
		c-0.033-0.119-0.087-0.229-0.159-0.327c-0.081-0.109-0.296-0.276-0.653-0.554l-6.781-5.274c0,0-0.002-0.002-0.002-0.002
		c-0.171-0.133-0.347-0.27-0.406-0.299c0.02,0.03-0.157,0.167-0.328,0.299L4.849,8.829C4.49,9.108,4.277,9.274,4.196,9.383
		C4.124,9.482,4.07,9.591,4.038,9.708C4,9.841,4,10.114,4,10.565V17.8c0,0.867,0,1.44,0.109,1.654
		c0.095,0.187,0.25,0.342,0.437,0.437C4.76,20,5.333,20,6.2,20H8v-6.399c0-0.65,0-1.08,0.218-1.508
		c0.194-0.38,0.496-0.682,0.875-0.875C9.519,11,9.949,11,10.6,11h2.8c0.65,0,1.081,0,1.509,0.219
		c0.377,0.191,0.68,0.494,0.873,0.875C16,12.52,16,12.95,16,13.601V20z"/>
</g>
</svg>
