<?xml version="1.0" encoding="iso-8859-1"?>
<!-- Generator: Adobe Illustrator 27.4.0, SVG Export Plug-In . SVG Version: 6.00 Build 0)  -->
<svg version="1.1" id="Layer_1" xmlns="http://www.w3.org/2000/svg" xmlns:xlink="http://www.w3.org/1999/xlink" x="0px" y="0px"
	 viewBox="0 0 24 24" style="enable-background:new 0 0 24 24;" xml:space="preserve">
<g>
	<path d="M17.8,22H6.2c-1.238,0-1.92,0-2.562-0.326c-0.57-0.292-1.022-0.744-1.312-1.311C2,19.721,2,19.038,2,17.8v-7.235
		c0-0.644,0-0.999,0.111-1.396c0.098-0.352,0.259-0.68,0.477-0.975c0.243-0.33,0.539-0.56,1.027-0.94l6.788-5.279
		c0.413-0.321,0.686-0.534,1.075-0.638c0.34-0.093,0.703-0.094,1.044,0c0.387,0.104,0.66,0.316,1.074,0.638l6.782,5.275
		c0.508,0.396,0.787,0.613,1.032,0.944c0.219,0.295,0.379,0.624,0.478,0.977C22,9.566,22,9.921,22,10.565V17.8
		c0,1.238,0,1.921-0.326,2.562c-0.291,0.567-0.744,1.021-1.311,1.311C19.721,22,19.038,22,17.8,22z M11.961,3.253
		c0.018,0.03-0.159,0.167-0.33,0.3l0,0L4.849,8.829C4.491,9.107,4.277,9.273,4.197,9.382c-0.073,0.1-0.127,0.208-0.159,0.326
		C4,9.841,4,10.114,4,10.565V17.8c0,0.867,0,1.44,0.109,1.654c0.096,0.188,0.248,0.341,0.438,0.438C4.76,20,5.333,20,6.2,20h11.6
		c0.867,0,1.44,0,1.654-0.109c0.188-0.096,0.341-0.248,0.438-0.438C20,19.24,20,18.667,20,17.8v-7.235c0-0.451,0-0.724-0.037-0.856
		c-0.033-0.119-0.086-0.228-0.158-0.325c-0.082-0.11-0.298-0.278-0.654-0.556l-6.782-5.274C12.197,3.42,12.021,3.283,11.961,3.253z
		 M11.018,2.764h0.01H11.018z M12,18c-2.283,0-4.274-1.542-4.842-3.751c-0.138-0.535,0.184-1.08,0.719-1.218
		c0.536-0.138,1.08,0.186,1.217,0.72C9.435,15.075,10.63,16,12,16s2.564-0.925,2.905-2.249c0.138-0.535,0.69-0.856,1.218-0.72
		c0.535,0.138,0.857,0.684,0.72,1.218C16.273,16.458,14.282,18,12,18z"/>
</g>
</svg>
