<?xml version="1.0" encoding="iso-8859-1"?>
<!-- Generator: Adobe Illustrator 27.4.0, SVG Export Plug-In . SVG Version: 6.00 Build 0)  -->
<svg version="1.1" id="Layer_1" xmlns="http://www.w3.org/2000/svg" xmlns:xlink="http://www.w3.org/1999/xlink" x="0px" y="0px"
	 viewBox="0 0 24 24" style="enable-background:new 0 0 24 24;" xml:space="preserve">
<g>
	<path d="M16.8,22H7.2c-1.238,0-1.92,0-2.562-0.326c-0.57-0.292-1.022-0.744-1.312-1.311C3,19.721,3,19.038,3,17.8V10l-0.4,0.3
		c-0.443,0.333-1.069,0.242-1.4-0.2C0.869,9.658,0.958,9.031,1.4,8.7l1.993-1.495C3.395,7.204,3.397,7.202,3.4,7.2l6.08-4.56
		c0.064-0.048,0.126-0.095,0.186-0.139L10.44,1.92c0.405-0.304,0.673-0.505,1.051-0.604c0.335-0.088,0.685-0.087,1.016-0.001
		c0.38,0.101,0.647,0.301,1.053,0.605l0.773,0.58c0.059,0.044,0.12,0.09,0.184,0.138L20.6,7.2c0.003,0.001,0.005,0.003,0.008,0.005
		L22.6,8.7c0.442,0.331,0.532,0.958,0.2,1.4c-0.331,0.442-0.958,0.533-1.399,0.2L21,10v7.8c0,1.238,0,1.921-0.326,2.562
		c-0.291,0.567-0.744,1.021-1.311,1.311C18.721,22,18.038,22,16.8,22z M16,20h0.8c0.867,0,1.44,0,1.654-0.109
		c0.188-0.096,0.341-0.248,0.438-0.438C19,19.24,19,18.667,19,17.8V8.5l-5.869-4.402c-0.436-0.326-0.71-0.521-0.876-0.565
		c-0.165-0.043-0.341-0.043-0.509,0c-0.166,0.043-0.441,0.24-0.877,0.566L5,8.5v9.3c0,0.867,0,1.44,0.109,1.654
		c0.096,0.188,0.248,0.341,0.438,0.438C5.76,20,6.333,20,7.2,20H8v-6.4c0-0.65,0-1.08,0.218-1.507
		c0.194-0.379,0.495-0.681,0.873-0.874C9.52,11,9.95,11,10.6,11h2.8c0.65,0,1.08,0,1.508,0.218c0.379,0.193,0.681,0.496,0.874,0.875
		C16,12.519,16,12.949,16,13.6V20z M10,20h4v-6.4c0-0.278,0-0.565-0.02-0.647C13.967,13,13.679,13,13.4,13h-2.8
		c-0.279,0-0.567,0-0.649,0.02C10,13.033,10,13.321,10,13.6V20z"/>
</g>
</svg>
