<?xml version="1.0" encoding="iso-8859-1"?>
<!-- Generator: Adobe Illustrator 27.4.0, SVG Export Plug-In . SVG Version: 6.00 Build 0)  -->
<svg version="1.1" id="Layer_1" xmlns="http://www.w3.org/2000/svg" xmlns:xlink="http://www.w3.org/1999/xlink" x="0px" y="0px"
	 viewBox="0 0 24 24" style="enable-background:new 0 0 24 24;" xml:space="preserve">
<g>
	<path d="M17.8,22H6.2c-1.238,0-1.92,0-2.562-0.326c-0.568-0.289-1.021-0.742-1.312-1.311C2,19.721,2,19.038,2,17.8v-7.234
		c0-0.645,0-1,0.111-1.396C2.209,8.818,2.37,8.49,2.587,8.195c0.245-0.331,0.54-0.561,1.028-0.941l6.788-5.28c0,0,0,0,0,0
		l0.613,0.79l-0.611-0.792c0.412-0.319,0.683-0.53,1.069-0.635c0.344-0.093,0.706-0.094,1.047,0c0.387,0.105,0.659,0.316,1.07,0.635
		l6.786,5.278c0.507,0.395,0.787,0.613,1.032,0.942C21.63,8.49,21.79,8.818,21.889,9.17C22,9.566,22,9.921,22,10.565V17.8
		c0,1.238,0,1.921-0.326,2.562c-0.292,0.569-0.745,1.022-1.312,1.312C19.721,22,19.038,22,17.8,22z M11.018,2.764l0.614,0.79
		L4.849,8.829C4.49,9.108,4.277,9.274,4.196,9.383C4.124,9.482,4.07,9.591,4.038,9.708C4,9.841,4,10.114,4,10.565V17.8
		c0,0.867,0,1.44,0.109,1.654c0.095,0.187,0.25,0.342,0.437,0.437C4.76,20,5.333,20,6.2,20h11.6c0.867,0,1.44,0,1.654-0.109
		c0.187-0.094,0.342-0.25,0.438-0.438C20,19.24,20,18.667,20,17.8v-7.234c0-0.452,0-0.724-0.037-0.855
		c-0.033-0.119-0.087-0.229-0.159-0.327c-0.081-0.109-0.296-0.276-0.653-0.554l-6.782-5.275c-0.173-0.134-0.349-0.271-0.408-0.301
		c0.02,0.03-0.157,0.167-0.328,0.299L11.018,2.764z M16,18H8c-0.552,0-1-0.447-1-1s0.448-1,1-1h8c0.553,0,1,0.447,1,1
		S16.553,18,16,18z"/>
</g>
</svg>
