<?xml version="1.0" encoding="iso-8859-1"?>
<!-- Generator: Adobe Illustrator 27.4.0, SVG Export Plug-In . SVG Version: 6.00 Build 0)  -->
<svg version="1.1" id="Layer_1" xmlns="http://www.w3.org/2000/svg" xmlns:xlink="http://www.w3.org/1999/xlink" x="0px" y="0px"
	 viewBox="0 0 24 24" style="enable-background:new 0 0 24 24;" xml:space="preserve">
<g>
	<path d="M12,17c-2.206,0-4-1.794-4-4c0-2.206,1.794-4,4-4c2.206,0,4,1.794,4,4C16,15.206,14.206,17,12,17z M12,11
		c-1.103,0-2,0.897-2,2c0,1.103,0.897,2,2,2c1.103,0,2-0.897,2-2C14,11.897,13.103,11,12,11z"/>
</g>
<g>
	<path d="M17.8,22H6.2c-1.238,0-1.92,0-2.562-0.326c-0.568-0.289-1.021-0.742-1.312-1.311C2,19.721,2,19.038,2,17.8v-7.234
		c0-0.645,0-1,0.111-1.396C2.209,8.818,2.37,8.49,2.587,8.195c0.245-0.331,0.54-0.561,1.028-0.941l6.788-5.28
		c0.415-0.322,0.686-0.533,1.072-0.638c0.344-0.093,0.706-0.094,1.047,0c0.387,0.105,0.659,0.316,1.07,0.635l6.786,5.278
		c0.507,0.395,0.787,0.613,1.032,0.942C21.63,8.49,21.79,8.818,21.889,9.17C22,9.566,22,9.921,22,10.565V17.8
		c0,1.238,0,1.921-0.326,2.562c-0.292,0.569-0.745,1.022-1.312,1.312C19.721,22,19.038,22,17.8,22z M11.961,3.253
		c0.02,0.03-0.157,0.167-0.328,0.299L4.849,8.829C4.49,9.108,4.277,9.274,4.196,9.383C4.124,9.482,4.07,9.591,4.038,9.708
		C4,9.841,4,10.114,4,10.565V17.8c0,0.867,0,1.44,0.109,1.654c0.095,0.187,0.25,0.342,0.437,0.437C4.76,20,5.333,20,6.2,20h11.6
		c0.867,0,1.44,0,1.654-0.109c0.187-0.094,0.342-0.25,0.438-0.438C20,19.24,20,18.667,20,17.8v-7.234c0-0.452,0-0.724-0.037-0.855
		c-0.033-0.119-0.087-0.229-0.159-0.327c-0.081-0.109-0.296-0.276-0.653-0.554l-6.782-5.275C12.196,3.419,12.02,3.283,11.961,3.253z
		"/>
</g>
</svg>
