<?xml version="1.0" encoding="iso-8859-1"?>
<!-- Generator: Adobe Illustrator 27.4.0, SVG Export Plug-In . SVG Version: 6.00 Build 0)  -->
<svg version="1.1" id="Layer_1" xmlns="http://www.w3.org/2000/svg" xmlns:xlink="http://www.w3.org/1999/xlink" x="0px" y="0px"
	 viewBox="0 0 24 24" style="enable-background:new 0 0 24 24;" xml:space="preserve">
<g>
	<path d="M3,23c-0.552,0-1-0.447-1-1V2c0-0.552,0.448-1,1-1s1,0.448,1,1v1.5h11.4c0.65,0,1.08,0,1.508,0.218
		c0.379,0.193,0.681,0.496,0.874,0.875C18,5.019,18,5.449,18,6.1v2.4h1.4c0.65,0,1.08,0,1.508,0.218
		c0.379,0.193,0.681,0.496,0.874,0.875C22,10.019,22,10.449,22,11.1v1.8c0,0.651,0,1.082-0.219,1.509
		c-0.191,0.378-0.494,0.681-0.874,0.873C20.481,15.5,20.051,15.5,19.4,15.5H14v2.4c0,0.65,0,1.08-0.218,1.508
		c-0.193,0.379-0.496,0.681-0.875,0.874C12.481,20.5,12.051,20.5,11.4,20.5H4V22C4,22.553,3.552,23,3,23z M4,18.5h7.4
		c0.278,0,0.566,0,0.648-0.02C12,18.467,12,18.179,12,17.9v-2.4H4V18.5z M4,13.5h15.4c0.278,0,0.565,0,0.647-0.02
		C20,13.466,20,13.179,20,12.9v-1.8c0-0.278,0-0.566-0.02-0.648C19.967,10.5,19.679,10.5,19.4,10.5H4V13.5z M4,8.5h12V6.1
		c0-0.278,0-0.566-0.02-0.648C15.967,5.5,15.679,5.5,15.4,5.5H4V8.5z"/>
</g>
</svg>
