<?xml version="1.0" encoding="iso-8859-1"?>
<!-- Generator: Adobe Illustrator 27.4.0, SVG Export Plug-In . SVG Version: 6.00 Build 0)  -->
<svg version="1.1" id="Layer_1" xmlns="http://www.w3.org/2000/svg" xmlns:xlink="http://www.w3.org/1999/xlink" x="0px" y="0px"
	 viewBox="0 0 24 24" style="enable-background:new 0 0 24 24;" xml:space="preserve">
<g>
	<path d="M3,23c-0.552,0-1-0.447-1-1V2c0-0.552,0.448-1,1-1s1,0.448,1,1v1.5h7.4c0.65,0,1.08,0,1.508,0.218
		c0.379,0.194,0.68,0.495,0.874,0.873C14,5.02,14,5.45,14,6.1v2.4h1.4c0.65,0,1.08,0,1.508,0.218
		c0.379,0.193,0.681,0.496,0.874,0.875C18,10.019,18,10.449,18,11.1v2.4h1.4c0.65,0,1.081,0,1.509,0.219
		c0.378,0.191,0.681,0.494,0.873,0.874C22,15.019,22,15.449,22,16.1V17.9c0,0.65,0,1.081-0.219,1.509
		c-0.191,0.378-0.494,0.681-0.874,0.873C20.481,20.5,20.051,20.5,19.4,20.5H4V22C4,22.553,3.552,23,3,23z M4,18.5h15.4
		c0.278,0,0.565,0,0.647-0.02C20,18.466,20,18.179,20,17.9V16.1c0-0.278,0-0.565-0.02-0.647C19.966,15.5,19.679,15.5,19.4,15.5H4
		V18.5z M4,13.5h12v-2.4c0-0.278,0-0.566-0.02-0.648C15.967,10.5,15.679,10.5,15.4,10.5H4V13.5z M4,8.5h8V6.1
		c0-0.279,0-0.567-0.02-0.649C11.967,5.5,11.679,5.5,11.4,5.5H4V8.5z"/>
</g>
</svg>
