<?xml version="1.0" encoding="iso-8859-1"?>
<!-- Generator: Adobe Illustrator 27.4.0, SVG Export Plug-In . SVG Version: 6.00 Build 0)  -->
<svg version="1.1" id="Layer_1" xmlns="http://www.w3.org/2000/svg" xmlns:xlink="http://www.w3.org/1999/xlink" x="0px" y="0px"
	 viewBox="0 0 24 24" style="enable-background:new 0 0 24 24;" xml:space="preserve">
<g>
	<path d="M20,23H4c-0.552,0-1-0.447-1-1s0.448-1,1-1h1v-1.752c0-0.885,0-1.371,0.137-1.882c0.123-0.455,0.322-0.88,0.593-1.264
		c0.303-0.432,0.677-0.743,1.356-1.31L10.438,12L7.087,9.208c-0.68-0.566-1.054-0.878-1.358-1.311
		C5.459,7.515,5.26,7.09,5.138,6.635C5,6.123,5,5.636,5,4.752V3H4C3.448,3,3,2.552,3,2s0.448-1,1-1h16c0.553,0,1,0.448,1,1
		s-0.447,1-1,1h-1v1.752c0,0.884,0,1.371-0.137,1.881c-0.123,0.457-0.322,0.881-0.593,1.264c-0.301,0.43-0.673,0.739-1.347,1.301
		L13.562,12l3.352,2.792c0.685,0.572,1.057,0.882,1.358,1.312c0.27,0.383,0.469,0.808,0.592,1.261C19,17.877,19,18.364,19,19.248V21
		h1c0.553,0,1,0.447,1,1S20.553,23,20,23z M7,21h10v-1.752c0-0.737,0-1.107-0.068-1.363c-0.061-0.226-0.161-0.438-0.296-0.63
		c-0.151-0.216-0.433-0.45-0.992-0.917L12,13.302l-3.633,3.027c-0.566,0.472-0.851,0.709-1.002,0.925
		c-0.136,0.192-0.235,0.404-0.296,0.632C7,18.141,7,18.511,7,19.248V21z M7,3v1.752c0,0.737,0,1.107,0.069,1.363
		c0.061,0.227,0.16,0.439,0.295,0.63c0.153,0.217,0.438,0.455,1.004,0.927L12,10.698l3.632-3.027
		c0.571-0.477,0.853-0.711,1.003-0.924c0.136-0.194,0.235-0.406,0.298-0.634C17,5.86,17,5.49,17,4.752V3H7z"/>
</g>
</svg>
