<?xml version="1.0" encoding="iso-8859-1"?>
<!-- Generator: Adobe Illustrator 27.4.0, SVG Export Plug-In . SVG Version: 6.00 Build 0)  -->
<svg version="1.1" id="Layer_1" xmlns="http://www.w3.org/2000/svg" xmlns:xlink="http://www.w3.org/1999/xlink" x="0px" y="0px"
	 viewBox="0 0 24 24" style="enable-background:new 0 0 24 24;" xml:space="preserve">
<g>
	<path d="M17.4,23H6.6c-0.651,0-1.081,0-1.51-0.219c-0.377-0.192-0.679-0.494-0.872-0.873C4,21.48,4,21.051,4,20.4v-2.075
		c0-0.531,0-0.852,0.083-1.196c0.075-0.311,0.196-0.602,0.36-0.869c0.187-0.305,0.414-0.53,0.788-0.905l2.931-2.93
		c0.198-0.198,0.4-0.401,0.445-0.473c-0.045,0.027-0.248-0.179-0.445-0.376L5.23,8.645C4.854,8.269,4.627,8.042,4.442,7.739
		C4.278,7.472,4.157,7.18,4.083,6.874C4,6.526,4,6.206,4,5.674V3.6c0-0.65,0-1.08,0.218-1.508C4.412,1.713,4.713,1.412,5.09,1.219
		C5.52,1,5.95,1,6.6,1h10.8c0.65,0,1.08,0,1.508,0.218c0.379,0.193,0.681,0.496,0.874,0.875C20,2.519,20,2.949,20,3.6v2.074
		c0,0.532,0,0.853-0.084,1.199c-0.072,0.303-0.192,0.594-0.357,0.864c-0.183,0.3-0.405,0.522-0.772,0.891l-2.947,2.947
		c-0.197,0.197-0.401,0.401-0.446,0.473c0.045-0.025,0.247,0.178,0.446,0.376l2.931,2.931c0.376,0.376,0.604,0.604,0.789,0.906
		c0.164,0.269,0.285,0.561,0.358,0.867C20,17.473,20,17.794,20,18.325V20.4c0,0.65,0,1.081-0.219,1.509
		c-0.191,0.378-0.494,0.681-0.874,0.873C18.481,23,18.051,23,17.4,23z M6.6,3C6.321,3,6.033,3,5.951,3.02C6,3.033,6,3.321,6,3.6
		v2.074C6,6.059,6,6.29,6.028,6.406c0.024,0.101,0.065,0.199,0.12,0.289C6.209,6.795,6.373,6.959,6.645,7.23l2.931,2.931
		c0.46,0.46,0.765,0.765,0.913,1.222c0.131,0.403,0.131,0.831-0.001,1.236c-0.147,0.454-0.45,0.758-0.909,1.218L6.645,16.77
		c-0.285,0.285-0.437,0.438-0.498,0.537c-0.055,0.089-0.095,0.186-0.12,0.29C6,17.71,6,17.941,6,18.325V20.4
		c0,0.278,0,0.566,0.02,0.648C6.034,21,6.322,21,6.6,21h10.8c0.278,0,0.565,0,0.647-0.02C18,20.966,18,20.679,18,20.4v-2.075
		c0-0.383,0-0.614-0.027-0.729c-0.025-0.104-0.065-0.2-0.12-0.29c-0.062-0.101-0.226-0.265-0.497-0.536l-2.931-2.931
		c-0.46-0.46-0.765-0.765-0.913-1.22c-0.132-0.405-0.132-0.833,0-1.238c0.149-0.456,0.453-0.76,0.913-1.22l2.931-2.931
		c0.278-0.279,0.437-0.438,0.496-0.535c0.056-0.091,0.096-0.188,0.12-0.29C18,6.289,18,6.058,18,5.674V3.6
		c0-0.278,0-0.566-0.02-0.648C17.967,3,17.679,3,17.4,3H6.6z M15,19.5H9c-0.552,0-1-0.447-1-1s0.448-1,1-1h6c0.553,0,1,0.447,1,1
		S15.553,19.5,15,19.5z"/>
</g>
</svg>
