<?xml version="1.0" encoding="iso-8859-1"?>
<!-- Generator: Adobe Illustrator 27.4.0, SVG Export Plug-In . SVG Version: 6.00 Build 0)  -->
<svg version="1.1" id="Layer_1" xmlns="http://www.w3.org/2000/svg" xmlns:xlink="http://www.w3.org/1999/xlink" x="0px" y="0px"
	 viewBox="0 0 24 24" style="enable-background:new 0 0 24 24;" xml:space="preserve">
<g>
	<path d="M18.163,23H5.837C4.824,23,4,22.176,4,21.163c0-2.952,1.149-5.727,3.236-7.813l1.219-1.219
		c0.068-0.068,0.111-0.109,0.141-0.144c-0.03-0.008-0.073-0.049-0.141-0.117L7.236,10.65C5.149,8.563,4,5.789,4,2.837
		C4,1.824,4.824,1,5.837,1h12.326C19.176,1,20,1.824,20,2.837c0,2.951-1.149,5.726-3.236,7.813l-1.22,1.219
		c-0.072,0.073-0.113,0.112-0.142,0.146c0.028,0.003,0.069,0.042,0.133,0.106l1.229,1.229C18.851,15.437,20,18.211,20,21.163
		C20,22.176,19.176,23,18.163,23z M6.001,21h11.998c-0.042-2.356-0.979-4.565-2.649-6.236l-1.22-1.219
		c-0.175-0.177-0.255-0.264-0.315-0.344c-0.529-0.709-0.529-1.693-0.004-2.397c0.064-0.085,0.145-0.172,0.305-0.334l1.234-1.234
		c1.671-1.671,2.607-3.88,2.649-6.236H6.001C6.042,5.356,6.979,7.565,8.65,9.236l1.219,1.219c0.174,0.174,0.256,0.265,0.319,0.348
		c0.525,0.705,0.525,1.688,0.001,2.392c-0.063,0.085-0.146,0.176-0.32,0.35L8.65,14.764C6.98,16.435,6.043,18.644,6.001,21z
		 M18.163,3h0.01H18.163z"/>
</g>
</svg>
