<?xml version="1.0" encoding="iso-8859-1"?>
<!-- Generator: Adobe Illustrator 27.4.0, SVG Export Plug-In . SVG Version: 6.00 Build 0)  -->
<svg version="1.1" id="Layer_1" xmlns="http://www.w3.org/2000/svg" xmlns:xlink="http://www.w3.org/1999/xlink" x="0px" y="0px"
	 viewBox="0 0 24 24" style="enable-background:new 0 0 24 24;" xml:space="preserve">
<g>
	<path d="M12,22c-1.721,0-3.361-0.184-4.743-0.53c-0.536-0.134-0.861-0.678-0.727-1.213s0.68-0.861,1.213-0.727
		c2.451,0.615,6.06,0.615,8.514,0c0.534-0.133,1.079,0.19,1.213,0.727c0.135,0.535-0.19,1.079-0.727,1.213
		C15.36,21.816,13.721,22,12,22z M12,18.333c-2.446,0-4.703-0.344-6.354-0.967c-0.517-0.195-0.777-0.772-0.582-1.289
		s0.771-0.777,1.289-0.582c1.409,0.532,3.467,0.838,5.646,0.838c2.179,0,4.237-0.306,5.646-0.838
		c0.517-0.196,1.094,0.065,1.289,0.582s-0.065,1.094-0.582,1.289C16.703,17.989,14.446,18.333,12,18.333z M12,14.167
		c-3.368,0-6.37-0.617-8.029-1.65c-0.469-0.292-0.612-0.909-0.32-1.377s0.908-0.612,1.377-0.32C6.343,11.638,9.08,12.167,12,12.167
		c2.92,0,5.656-0.529,6.972-1.348c0.467-0.292,1.085-0.149,1.377,0.32s0.148,1.085-0.32,1.377C18.369,13.55,15.368,14.167,12,14.167
		z M12,10C7.184,10,2,8.748,2,6s5.184-4,10-4s10,1.252,10,4S16.816,10,12,10z M12,4C6.75,4,4,5.486,4,6s2.75,2,8,2
		c5.249,0,8-1.486,8-2S17.249,4,12,4z"/>
</g>
</svg>
