<?xml version="1.0" encoding="iso-8859-1"?>
<!-- Generator: Adobe Illustrator 27.4.0, SVG Export Plug-In . SVG Version: 6.00 Build 0)  -->
<svg version="1.1" id="Layer_1" xmlns="http://www.w3.org/2000/svg" xmlns:xlink="http://www.w3.org/1999/xlink" x="0px" y="0px"
	 viewBox="0 0 24 24" style="enable-background:new 0 0 24 24;" xml:space="preserve">
<g>
	<path d="M17,21h-5c-0.552,0-1-0.447-1-1s0.448-1,1-1h5c0.553,0,1,0.447,1,1S17.553,21,17,21z M15,17H8c-0.552,0-1-0.447-1-1
		s0.448-1,1-1h7c0.553,0,1,0.447,1,1S15.553,17,15,17z M18,13H9c-0.552,0-1-0.448-1-1s0.448-1,1-1h9c0.553,0,1,0.448,1,1
		S18.553,13,18,13z M20,9H6C5.448,9,5,8.552,5,8s0.448-1,1-1h14c0.553,0,1,0.448,1,1S20.553,9,20,9z M21,5H3C2.448,5,2,4.552,2,4
		s0.448-1,1-1h18c0.553,0,1,0.448,1,1S21.553,5,21,5z"/>
</g>
</svg>
