<?xml version="1.0" encoding="iso-8859-1"?>
<!-- Generator: Adobe Illustrator 27.4.0, SVG Export Plug-In . SVG Version: 6.00 Build 0)  -->
<svg version="1.1" id="Layer_1" xmlns="http://www.w3.org/2000/svg" xmlns:xlink="http://www.w3.org/1999/xlink" x="0px" y="0px"
	 viewBox="0 0 24 24" style="enable-background:new 0 0 24 24;" xml:space="preserve">
<g>
	<path d="M10,21c-4.962,0-9-4.037-9-9c0-0.552,0.448-1,1-1s1,0.448,1,1c0,3.859,3.14,7,7,7c0.339,0,0.673-0.024,1-0.071
		C7.612,18.442,5,15.521,5,12c0-4.962,4.038-9,9-9c4.963,0,9,4.038,9,9c0,0.552-0.447,1-1,1s-1-0.448-1-1c0-3.86-3.141-7-7-7
		c-0.34,0-0.673,0.024-1,0.071c3.388,0.487,6,3.408,6,6.929C19,16.963,14.963,21,10,21z M7,12c0,2.757,2.243,5,5,5
		c2.756,0,4.998-2.241,5-4.996c0-0.001,0-0.002,0-0.004c0-2.757-2.243-5-5-5c-2.756,0-4.998,2.241-5,4.996C7,11.998,7,11.999,7,12z
		 M12,14c-1.103,0-2-0.897-2-2c0-1.103,0.897-2,2-2c1.103,0,2,0.897,2,2C14,13.103,13.103,14,12,14z M12,11.999V12V11.999z"/>
</g>
</svg>
