<?xml version="1.0" encoding="iso-8859-1"?>
<!-- Generator: Adobe Illustrator 27.4.0, SVG Export Plug-In . SVG Version: 6.00 Build 0)  -->
<svg version="1.1" id="Layer_1" xmlns="http://www.w3.org/2000/svg" xmlns:xlink="http://www.w3.org/1999/xlink" x="0px" y="0px"
	 viewBox="0 0 24 24" style="enable-background:new 0 0 24 24;" xml:space="preserve">
<g>
	<path d="M17.2,22H6.8c-1.838,0-2.76,0-3.616-0.437c-0.757-0.385-1.362-0.989-1.748-1.747C1,18.96,1,18.037,1,16.2V7.8
		c0-1.838,0-2.76,0.436-3.616c0.386-0.757,0.991-1.362,1.748-1.748C4.04,2,4.962,2,6.8,2h10.4c1.837,0,2.76,0,3.616,0.436
		c0.758,0.386,1.362,0.991,1.748,1.749C23,5.04,23,5.962,23,7.8v8.4c0,1.837,0,2.76-0.436,3.616
		c-0.386,0.758-0.99,1.362-1.749,1.748C19.96,22,19.037,22,17.2,22z M6.414,20c0.123,0,0.252,0,0.386,0h10.4
		c0.134,0,0.263,0,0.386,0l-4.29-4.29c-0.002-0.002-0.004-0.004-0.006-0.006l-0.865-0.865c-0.198-0.197-0.402-0.401-0.473-0.446
		c0.025,0.045-0.179,0.249-0.375,0.446L6.414,20z M15.414,15l4.677,4.677c0.294-0.19,0.53-0.452,0.69-0.768
		C21,18.479,21,17.67,21,16.2v-0.786l-2.575-2.576c-0.198-0.197-0.4-0.4-0.473-0.444c0.023,0.044-0.179,0.247-0.375,0.443L15.414,15
		z M6.8,4C5.33,4,4.52,4,4.092,4.218C3.713,4.411,3.411,4.713,3.218,5.092C3,5.52,3,6.33,3,7.8v8.4c0,1.47,0,2.279,0.218,2.708
		c0.161,0.315,0.397,0.578,0.691,0.769l6.252-6.252c0.459-0.46,0.763-0.764,1.22-0.913c0.403-0.132,0.832-0.132,1.238,0
		c0.455,0.148,0.76,0.452,1.22,0.913L14,13.586l2.161-2.162c0.462-0.461,0.766-0.765,1.224-0.913
		c0.396-0.129,0.836-0.13,1.234,0.001c0.454,0.146,0.758,0.45,1.218,0.909L21,12.585V7.8c0-1.47,0-2.28-0.218-2.708
		c-0.193-0.379-0.495-0.681-0.874-0.874C19.479,4,18.67,4,17.2,4H6.8z M8,12c-1.654,0-3-1.346-3-3s1.346-3,3-3s3,1.346,3,3
		S9.654,12,8,12z M8,8C7.449,8,7,8.449,7,9s0.449,1,1,1s1-0.449,1-1S8.551,8,8,8z"/>
</g>
</svg>
