<?xml version="1.0" encoding="iso-8859-1"?>
<!-- Generator: Adobe Illustrator 27.4.0, SVG Export Plug-In . SVG Version: 6.00 Build 0)  -->
<svg version="1.1" id="Layer_1" xmlns="http://www.w3.org/2000/svg" xmlns:xlink="http://www.w3.org/1999/xlink" x="0px" y="0px"
	 viewBox="0 0 24 24" style="enable-background:new 0 0 24 24;" xml:space="preserve">
<g>
	<path d="M18,23c-0.25-0.001-0.512,0-0.8,0H6.8c-1.838,0-2.76,0-3.616-0.437c-0.757-0.385-1.362-0.989-1.748-1.747
		c-0.074-0.145-0.135-0.291-0.186-0.443c-0.058-0.117-0.094-0.245-0.103-0.378C1,19.316,1,18.48,1,17.2V6.8
		c0-1.838,0-2.76,0.436-3.616c0.386-0.757,0.991-1.362,1.748-1.748C4.04,1,4.962,1,6.8,1H12c0.552,0,1,0.448,1,1s-0.448,1-1,1H6.8
		C5.33,3,4.52,3,4.092,3.218C3.713,3.411,3.411,3.713,3.218,4.092C3,4.52,3,5.33,3,6.8v10.204C3.846,16.369,4.892,16,6,16h7
		c0.993,0,1.492,0,1.976,0.097c1.99,0.396,3.532,1.938,3.928,3.928c0.056,0.279,0.079,0.563,0.09,0.945
		c0.414-0.028,0.709-0.083,0.915-0.188c0.379-0.192,0.681-0.494,0.873-0.872C21,19.479,21,18.67,21,17.2V12c0-0.552,0.447-1,1-1
		s1,0.448,1,1v5.2c0,1.837,0,2.76-0.436,3.616c-0.386,0.758-0.99,1.362-1.749,1.748c-0.709,0.361-1.465,0.423-2.749,0.434
		C18.045,22.999,18.022,23,18,23z M3.21,19.893c0.002,0.006,0.005,0.011,0.008,0.016c0.193,0.379,0.495,0.681,0.873,0.873
		C4.52,21,5.33,21,6.8,21h10.193c-0.008-0.254-0.022-0.44-0.051-0.585c-0.237-1.194-1.163-2.12-2.357-2.357
		C14.295,18,13.835,18,13,18H6C4.764,18,3.659,18.765,3.21,19.893z M10,14.5c-2.757,0-5-2.243-5-5s2.243-5,5-5s5,2.243,5,5
		S12.757,14.5,10,14.5z M10,6.5c-1.654,0-3,1.346-3,3s1.346,3,3,3s3-1.346,3-3S11.654,6.5,10,6.5z M19,9
		c-0.256,0-0.512-0.098-0.707-0.293c-0.391-0.391-0.391-1.023,0-1.414L19.586,6H16c-0.553,0-1-0.448-1-1s0.447-1,1-1h3.586
		l-1.293-1.293c-0.391-0.391-0.391-1.023,0-1.414s1.023-0.391,1.414,0l3,3c0.097,0.096,0.169,0.208,0.218,0.326
		C22.973,4.735,23,4.863,23,4.997l0,0c0,0.002,0,0.004,0,0.006l0,0c0,0.134-0.027,0.262-0.075,0.378
		c-0.049,0.119-0.121,0.23-0.218,0.326l-3,3C19.512,8.902,19.256,9,19,9z"/>
</g>
</svg>
