<?xml version="1.0" encoding="iso-8859-1"?>
<!-- Generator: Adobe Illustrator 27.4.0, SVG Export Plug-In . SVG Version: 6.00 Build 0)  -->
<svg version="1.1" id="Layer_1" xmlns="http://www.w3.org/2000/svg" xmlns:xlink="http://www.w3.org/1999/xlink" x="0px" y="0px"
	 viewBox="0 0 24 24" style="enable-background:new 0 0 24 24;" xml:space="preserve">
<g>
	<path d="M21,21H3c-0.552,0-1-0.447-1-1s0.448-1,1-1h18c0.553,0,1,0.447,1,1S21.553,21,21,21z M9.4,17H4.6
		c-0.651,0-1.081,0-1.51-0.219c-0.377-0.192-0.679-0.494-0.872-0.873C2,15.48,2,15.051,2,14.4V9.6c0-0.65,0-1.08,0.218-1.508
		C2.412,7.713,2.713,7.412,3.09,7.219C3.52,7,3.95,7,4.6,7h4.8c0.65,0,1.08,0,1.508,0.218c0.379,0.194,0.681,0.495,0.874,0.873
		C12,8.52,12,8.95,12,9.6v4.8c0,0.65,0,1.08-0.218,1.508c-0.193,0.379-0.496,0.681-0.875,0.874C10.481,17,10.051,17,9.4,17z M4.6,9
		C4.321,9,4.033,9,3.951,9.02C4,9.033,4,9.321,4,9.6v4.8c0,0.278,0,0.566,0.02,0.648C4.034,15,4.322,15,4.6,15h4.8
		c0.278,0,0.566,0,0.648-0.02C10,14.967,10,14.679,10,14.4V9.6c0-0.279,0-0.567-0.02-0.649C9.967,9,9.679,9,9.4,9H4.6z M21,15.75h-6
		c-0.553,0-1-0.447-1-1s0.447-1,1-1h6c0.553,0,1,0.447,1,1S21.553,15.75,21,15.75z M21,10.25h-6c-0.553,0-1-0.448-1-1s0.447-1,1-1h6
		c0.553,0,1,0.448,1,1S21.553,10.25,21,10.25z M21,5H3C2.448,5,2,4.552,2,4s0.448-1,1-1h18c0.553,0,1,0.448,1,1S21.553,5,21,5z"/>
</g>
</svg>
