<?xml version="1.0" encoding="iso-8859-1"?>
<!-- Generator: Adobe Illustrator 27.4.0, SVG Export Plug-In . SVG Version: 6.00 Build 0)  -->
<svg version="1.1" id="Layer_1" xmlns="http://www.w3.org/2000/svg" xmlns:xlink="http://www.w3.org/1999/xlink" x="0px" y="0px"
	 viewBox="0 0 24 24" style="enable-background:new 0 0 24 24;" xml:space="preserve">
<g>
	<path d="M16.2,22H6.931c-0.303,0-0.56,0-0.785-0.02c-0.833-0.036-1.411-0.136-1.962-0.417c-0.757-0.385-1.362-0.989-1.748-1.747
		C2,18.96,2,18.037,2,16.2V7.8c0-1.838,0-2.76,0.436-3.616c0.386-0.757,0.991-1.362,1.748-1.748C5.04,2,5.962,2,7.8,2h8.4
		c1.837,0,2.76,0,3.616,0.436c0.758,0.386,1.362,0.991,1.748,1.749C22,5.04,22,5.962,22,7.8v8.4c0,1.837,0,2.76-0.436,3.616
		c-0.386,0.758-0.99,1.362-1.749,1.748C18.96,22,18.037,22,16.2,22z M7.415,20c0.123,0,0.251,0,0.385,0h8.4
		c1.47,0,2.279,0,2.708-0.219c0.379-0.192,0.681-0.494,0.873-0.872C20,18.479,20,17.67,20,16.2v-0.786l-3.575-3.576
		c-0.198-0.197-0.4-0.4-0.473-0.444c0.023,0.044-0.179,0.247-0.375,0.443L7.415,20z M7.8,4C6.33,4,5.52,4,5.092,4.218
		C4.713,4.411,4.411,4.713,4.218,5.092C4,5.52,4,6.33,4,7.8v8.4c0,1.47,0,2.279,0.218,2.708c0.169,0.333,0.423,0.606,0.739,0.799
		c0.163-0.241,0.4-0.479,0.702-0.779l8.502-8.503c0.462-0.461,0.766-0.765,1.224-0.913c0.396-0.129,0.834-0.13,1.234,0.001
		c0.454,0.146,0.758,0.45,1.218,0.909L20,12.585V7.8c0-1.47,0-2.28-0.218-2.708c-0.193-0.379-0.495-0.681-0.874-0.874
		C18.479,4,17.67,4,16.2,4H7.8z M8.5,11.5c-1.654,0-3-1.346-3-3s1.346-3,3-3s3,1.346,3,3S10.154,11.5,8.5,11.5z M8.5,7.5
		c-0.551,0-1,0.449-1,1s0.449,1,1,1s1-0.449,1-1S9.051,7.5,8.5,7.5z"/>
</g>
</svg>
