<?xml version="1.0" encoding="iso-8859-1"?>
<!-- Generator: Adobe Illustrator 27.4.0, SVG Export Plug-In . SVG Version: 6.00 Build 0)  -->
<svg version="1.1" id="Layer_1" xmlns="http://www.w3.org/2000/svg" xmlns:xlink="http://www.w3.org/1999/xlink" x="0px" y="0px"
	 viewBox="0 0 24 24" style="enable-background:new 0 0 24 24;" xml:space="preserve">
<g>
	<path d="M21,21H3c-0.552,0-1-0.447-1-1s0.448-1,1-1h18c0.553,0,1,0.447,1,1S21.553,21,21,21z M19.4,17H14.6
		c-0.65,0-1.081,0-1.509-0.219c-0.377-0.191-0.68-0.494-0.873-0.874C12,15.481,12,15.051,12,14.4V9.6c0-0.651,0-1.081,0.219-1.51
		c0.192-0.377,0.494-0.679,0.873-0.872C13.52,7,13.949,7,14.6,7H19.4c0.65,0,1.08,0,1.508,0.218
		c0.379,0.193,0.681,0.496,0.874,0.875C22,8.519,22,8.949,22,9.6v4.8c0,0.65,0,1.081-0.219,1.509
		c-0.191,0.378-0.494,0.681-0.874,0.873C20.481,17,20.051,17,19.4,17z M14.6,9c-0.278,0-0.566,0-0.648,0.02
		C14,9.034,14,9.322,14,9.6v4.8c0,0.278,0,0.565,0.02,0.647C14.034,15,14.321,15,14.6,15H19.4c0.278,0,0.565,0,0.647-0.02
		C20,14.966,20,14.679,20,14.4V9.6c0-0.278,0-0.566-0.02-0.648C19.967,9,19.679,9,19.4,9H14.6z M9,15.75H3c-0.552,0-1-0.447-1-1
		s0.448-1,1-1h6c0.552,0,1,0.447,1,1S9.552,15.75,9,15.75z M9,10.25H3c-0.552,0-1-0.448-1-1s0.448-1,1-1h6c0.552,0,1,0.448,1,1
		S9.552,10.25,9,10.25z M21,5H3C2.448,5,2,4.552,2,4s0.448-1,1-1h18c0.553,0,1,0.448,1,1S21.553,5,21,5z"/>
</g>
</svg>
