<?xml version="1.0" encoding="iso-8859-1"?>
<!-- Generator: Adobe Illustrator 27.4.0, SVG Export Plug-In . SVG Version: 6.00 Build 0)  -->
<svg version="1.1" id="Layer_1" xmlns="http://www.w3.org/2000/svg" xmlns:xlink="http://www.w3.org/1999/xlink" x="0px" y="0px"
	 viewBox="0 0 24 24" style="enable-background:new 0 0 24 24;" xml:space="preserve">
<g>
	<path d="M20.011,22H4.054c-1.176,0-1.823,0-2.361-0.413c-0.467-0.356-0.753-0.9-0.782-1.492c-0.032-0.676,0.335-1.206,1.001-2.169
		l5.95-8.595c0.519-0.75,0.832-1.202,1.385-1.427c0.485-0.198,1.02-0.197,1.506,0c0.552,0.225,0.865,0.677,1.384,1.427l2.771,4.002
		c0.48-0.72,0.79-1.157,1.325-1.379c0.494-0.204,1.037-0.204,1.531,0c0.562,0.233,0.874,0.703,1.394,1.48l3.015,4.522
		c0.641,0.96,0.993,1.488,0.954,2.16c-0.035,0.586-0.323,1.123-0.79,1.477C21.802,22,21.166,22,20.011,22z M19.524,20h0.486
		c0.419,0,0.85,0,1.076-0.024c-0.105-0.202-0.345-0.56-0.577-0.908l-3.011-4.516c-0.19-0.285-0.383-0.574-0.499-0.715
		c-0.116,0.14-0.308,0.428-0.495,0.708l-0.371,0.558L19.524,20z M2.956,19.976C3.187,20,3.626,20,4.054,20h13.038l-6.599-9.53
		C10.307,10.2,10.114,9.922,10,9.789C9.886,9.922,9.694,10.2,9.507,10.469l-5.946,8.589C3.316,19.412,3.067,19.771,2.956,19.976z
		 M18,10c-2.206,0-4-1.794-4-4s1.794-4,4-4s4,1.794,4,4S20.206,10,18,10z M18,4c-1.103,0-2,0.897-2,2s0.897,2,2,2s2-0.897,2-2
		S19.103,4,18,4z"/>
</g>
</svg>
