<?xml version="1.0" encoding="iso-8859-1"?>
<!-- Generator: Adobe Illustrator 27.4.0, SVG Export Plug-In . SVG Version: 6.00 Build 0)  -->
<svg version="1.1" id="Layer_1" xmlns="http://www.w3.org/2000/svg" xmlns:xlink="http://www.w3.org/1999/xlink" x="0px" y="0px"
	 viewBox="0 0 24 24" style="enable-background:new 0 0 24 24;" xml:space="preserve">
<g>
	<path d="M12,23c-2.438,0-4.692-0.797-6.518-2.144c-0.056-0.034-0.11-0.074-0.16-0.121C2.696,18.724,1,15.557,1,12
		C1,5.935,5.935,1,12,1s11,4.935,11,11c0,1.29-0.224,2.528-0.633,3.68c-0.013,0.046-0.029,0.09-0.049,0.134
		C20.765,20.005,16.726,23,12,23z M7.577,19.837C8.884,20.577,10.394,21,12,21c3.667,0,6.828-2.204,8.229-5.356l-3.805-3.805
		c-0.198-0.197-0.4-0.4-0.473-0.444c0.023,0.044-0.179,0.247-0.375,0.443L7.577,19.837z M12,3c-4.962,0-9,4.038-9,9
		c0,2.63,1.134,5,2.938,6.646l8.223-8.222c0.462-0.461,0.766-0.765,1.224-0.913c0.396-0.129,0.834-0.13,1.234,0.001
		c0.454,0.146,0.758,0.45,1.218,0.909l3.044,3.044C20.959,12.989,21,12.499,21,12C21,7.038,16.963,3,12,3z M8.5,11.5
		c-1.654,0-3-1.346-3-3s1.346-3,3-3s3,1.346,3,3S10.154,11.5,8.5,11.5z M8.5,7.5c-0.551,0-1,0.449-1,1s0.449,1,1,1s1-0.449,1-1
		S9.051,7.5,8.5,7.5z"/>
</g>
</svg>
