<?xml version="1.0" encoding="iso-8859-1"?>
<!-- Generator: Adobe Illustrator 27.4.0, SVG Export Plug-In . SVG Version: 6.00 Build 0)  -->
<svg version="1.1" id="Layer_1" xmlns="http://www.w3.org/2000/svg" xmlns:xlink="http://www.w3.org/1999/xlink" x="0px" y="0px"
	 viewBox="0 0 24 24" style="enable-background:new 0 0 24 24;" xml:space="preserve">
<g>
	<path d="M17,22H7.069c-0.266,0-0.498,0-0.705-0.012c-0.953-0.028-1.583-0.12-2.181-0.425c-0.757-0.385-1.362-0.989-1.748-1.747
		C2,18.96,2,18.037,2,16.2V7.8c0-1.838,0-2.76,0.436-3.616c0.386-0.757,0.991-1.362,1.748-1.748C5.04,2,5.962,2,7.8,2h4.7
		c0.553,0,1,0.448,1,1s-0.447,1-1,1H7.8C6.33,4,5.52,4,5.092,4.218C4.713,4.411,4.411,4.713,4.218,5.092C4,5.52,4,6.33,4,7.8v8.4
		c0,1.47,0,2.279,0.218,2.708c0.181,0.354,0.456,0.642,0.801,0.835c0.18-0.275,0.464-0.533,0.837-0.873l8.461-7.692v0
		c0.42-0.381,0.697-0.633,1.105-0.766c0.363-0.117,0.747-0.13,1.117-0.035c0.416,0.106,0.708,0.34,1.15,0.695l2.798,2.237
		c0.41,0.328,0.658,0.526,0.873,0.802c0.267,0.338,0.461,0.742,0.56,1.164C22,15.614,22,15.913,22,16.456
		c0,0.181,0,0.352-0.001,0.513C22,16.979,22,16.989,22,17c0,1.017,0,1.526-0.137,2.036c-0.045,0.169-0.102,0.333-0.168,0.493
		c-0.006,0.015-0.012,0.029-0.019,0.044c-0.405,0.95-1.153,1.698-2.104,2.104c-0.021,0.009-0.042,0.018-0.062,0.025
		c-0.153,0.063-0.312,0.117-0.475,0.16C18.526,22,18.017,22,17,22z M7.8,20h8.656c1.245,0,1.938,0,2.317-0.156
		c0.478-0.201,0.861-0.582,1.065-1.058C20,18.407,20,17.714,20,16.456c0-0.381,0-0.611-0.026-0.725
		c-0.033-0.14-0.098-0.273-0.187-0.387c-0.072-0.093-0.251-0.235-0.548-0.473l-2.799-2.239c-0.177-0.142-0.376-0.301-0.441-0.334
		c0.021,0.034-0.169,0.207-0.336,0.359L7.587,20C7.656,20,7.728,20,7.8,20z M6.365,19.982L6.365,19.982L6.365,19.982z M8.5,11.5
		c-1.654,0-3-1.346-3-3s1.346-3,3-3s3,1.346,3,3S10.154,11.5,8.5,11.5z M8.5,7.5c-0.551,0-1,0.449-1,1s0.449,1,1,1s1-0.449,1-1
		S9.051,7.5,8.5,7.5z M19,9c-0.256,0-0.512-0.098-0.707-0.293l-3-3c-0.097-0.096-0.169-0.208-0.218-0.326
		C15.027,5.265,15,5.137,15,5.003l0,0c0-0.002,0-0.004,0-0.006l0,0c0-0.134,0.027-0.262,0.075-0.378
		c0.049-0.119,0.121-0.23,0.218-0.326l3-3c0.391-0.391,1.023-0.391,1.414,0s0.391,1.023,0,1.414L18.414,4H22c0.553,0,1,0.448,1,1
		s-0.447,1-1,1h-3.586l1.293,1.293c0.391,0.391,0.391,1.023,0,1.414C19.512,8.902,19.256,9,19,9z"/>
</g>
</svg>
