<?xml version="1.0" encoding="iso-8859-1"?>
<!-- Generator: Adobe Illustrator 27.4.0, SVG Export Plug-In . SVG Version: 6.00 Build 0)  -->
<svg version="1.1" id="Layer_1" xmlns="http://www.w3.org/2000/svg" xmlns:xlink="http://www.w3.org/1999/xlink" x="0px" y="0px"
	 viewBox="0 0 24 24" style="enable-background:new 0 0 24 24;" xml:space="preserve">
<g>
	<path d="M17.2,21H6.8c-1.838,0-2.76,0-3.616-0.437c-0.757-0.385-1.362-0.989-1.748-1.747C1,17.96,1,17.037,1,15.2V8.8
		c0-1.838,0-2.76,0.436-3.616c0.386-0.757,0.991-1.362,1.748-1.748C4.04,3,4.962,3,6.8,3h10.4c1.837,0,2.76,0,3.616,0.436
		c0.758,0.386,1.362,0.991,1.748,1.749C23,6.04,23,6.962,23,8.8v6.4c0,1.837,0,2.76-0.436,3.616
		c-0.386,0.758-0.99,1.362-1.749,1.748C19.96,21,19.037,21,17.2,21z M3,13v2.2c0,1.47,0,2.279,0.218,2.708
		c0.193,0.379,0.495,0.681,0.873,0.873C4.52,19,5.33,19,6.8,19h10.4c1.47,0,2.279,0,2.708-0.219
		c0.379-0.192,0.681-0.494,0.873-0.872C21,17.479,21,16.67,21,15.2V13h-2.882c-0.309,0-0.586,0.172-0.724,0.447
		C16.916,14.405,15.953,15,14.882,15H9.118c-1.071,0-2.034-0.595-2.513-1.553C6.468,13.172,6.19,13,5.882,13H3z M3,11h2.882
		c1.07,0,2.033,0.595,2.512,1.553C8.532,12.829,8.81,13,9.118,13h5.764c0.309,0,0.586-0.171,0.724-0.447
		C16.085,11.595,17.048,11,18.118,11H21V8.8c0-1.47,0-2.28-0.218-2.708c-0.193-0.379-0.495-0.681-0.874-0.874
		C19.479,5,18.67,5,17.2,5H6.8C5.33,5,4.52,5,4.092,5.218C3.713,5.411,3.411,5.713,3.218,6.092C3,6.52,3,7.33,3,8.8V11z"/>
</g>
</svg>
