<?xml version="1.0" encoding="iso-8859-1"?>
<!-- Generator: Adobe Illustrator 27.4.0, SVG Export Plug-In . SVG Version: 6.00 Build 0)  -->
<svg version="1.1" id="Layer_1" xmlns="http://www.w3.org/2000/svg" xmlns:xlink="http://www.w3.org/1999/xlink" x="0px" y="0px"
	 viewBox="0 0 24 24" style="enable-background:new 0 0 24 24;" xml:space="preserve">
<g>
	<path d="M17.2,21H6.8c-1.838,0-2.76,0-3.616-0.437c-0.757-0.385-1.362-0.989-1.748-1.747C1,17.96,1,17.037,1,15.2v-2.067
		c0-0.454,0-0.703,0.039-0.979c0.034-0.244,0.091-0.486,0.17-0.721c0.089-0.265,0.201-0.488,0.404-0.895l2.167-4.333
		c0.515-1.03,0.798-1.595,1.277-2.064C5.476,3.73,5.993,3.411,6.55,3.219C7.183,3,7.817,3,8.967,3h6.066
		c1.149,0,1.783,0,2.417,0.219c0.558,0.192,1.075,0.512,1.495,0.924c0.476,0.465,0.757,1.026,1.267,2.043l2.176,4.353
		c0.22,0.438,0.324,0.66,0.402,0.89c0.081,0.244,0.138,0.486,0.171,0.727C23,12.428,23,12.679,23,13.133V15.2
		c0,1.837,0,2.76-0.436,3.616c-0.386,0.758-0.99,1.362-1.749,1.748C19.96,21,19.037,21,17.2,21z M3,13c0,0.041,0,0.086,0,0.133V15.2
		c0,1.47,0,2.279,0.218,2.708c0.193,0.379,0.495,0.681,0.873,0.873C4.52,19,5.33,19,6.8,19h10.4c1.47,0,2.279,0,2.708-0.219
		c0.379-0.192,0.681-0.494,0.873-0.872C21,17.479,21,16.67,21,15.2v-2.067c0-0.047,0-0.092,0-0.133h-2.882
		c-0.309,0-0.586,0.172-0.724,0.447C16.916,14.405,15.953,15,14.882,15H9.118c-1.071,0-2.034-0.595-2.513-1.553
		C6.468,13.172,6.19,13,5.882,13H3z M3.618,11h2.264c1.07,0,2.033,0.595,2.512,1.553C8.532,12.829,8.81,13,9.118,13h5.764
		c0.309,0,0.586-0.171,0.724-0.447C16.085,11.595,17.048,11,18.118,11h2.264l-1.949-3.899c-0.436-0.87-0.649-1.297-0.887-1.529
		c-0.211-0.207-0.469-0.366-0.748-0.462C16.48,5,15.997,5,15.033,5H8.967C8.003,5,7.519,5,7.202,5.109
		C6.923,5.206,6.665,5.365,6.455,5.571C6.215,5.806,6,6.237,5.57,7.097L3.618,11z"/>
</g>
</svg>
