<?xml version="1.0" encoding="iso-8859-1"?>
<!-- Generator: Adobe Illustrator 27.4.0, SVG Export Plug-In . SVG Version: 6.00 Build 0)  -->
<svg version="1.1" id="Layer_1" xmlns="http://www.w3.org/2000/svg" xmlns:xlink="http://www.w3.org/1999/xlink" x="0px" y="0px"
	 viewBox="0 0 24 24" style="enable-background:new 0 0 24 24;" xml:space="preserve">
<g>
	<path d="M18.178,17c-2.618,0-4.463-1.702-6.181-3.533C10.269,15.273,8.261,17,5.439,17C2.525,17,1,14.484,1,12
		c0-2.485,1.525-5,4.439-5c2.822,0,4.83,1.727,6.558,3.533C13.715,8.703,15.56,7,18.178,7C21.344,7,23,9.516,23,12
		S21.344,17,18.178,17z M13.363,12c1.499,1.605,2.969,3,4.814,3C20.127,15,21,13.493,21,12s-0.873-3-2.822-3
		C16.332,9,14.862,10.394,13.363,12z M5.439,9C3.514,9,3,10.886,3,12s0.514,3,2.439,3c2.088,0,3.646-1.369,5.193-3
		C9.085,10.369,7.527,9,5.439,9z"/>
</g>
</svg>
