<?xml version="1.0" encoding="iso-8859-1"?>
<!-- Generator: Adobe Illustrator 27.4.0, SVG Export Plug-In . SVG Version: 6.00 Build 0)  -->
<svg version="1.1" id="Layer_1" xmlns="http://www.w3.org/2000/svg" xmlns:xlink="http://www.w3.org/1999/xlink" x="0px" y="0px"
	 viewBox="0 0 24 24" style="enable-background:new 0 0 24 24;" xml:space="preserve">
<g>
	<path d="M15.478,23H8.523c-0.292,0-0.484,0-0.713-0.055c-0.206-0.049-0.399-0.13-0.58-0.24c-0.2-0.121-0.342-0.264-0.539-0.461
		l-4.929-4.929c-0.207-0.206-0.347-0.347-0.47-0.549c-0.107-0.175-0.188-0.37-0.237-0.576C1,15.963,1,15.77,1,15.478V8.523
		C1,8.23,1,8.037,1.056,7.806C1.104,7.603,1.185,7.409,1.294,7.23c0.122-0.2,0.264-0.342,0.461-0.539l4.929-4.929
		C6.888,1.559,7.03,1.417,7.232,1.293c0.177-0.108,0.371-0.189,0.575-0.238C8.037,1,8.23,1,8.523,1h6.955
		c0.292,0,0.485,0,0.716,0.056c0.203,0.048,0.398,0.129,0.579,0.24c0.196,0.119,0.337,0.259,0.531,0.454l4.935,4.935
		c0.203,0.203,0.346,0.345,0.469,0.547c0.108,0.178,0.189,0.372,0.238,0.575C23,8.039,23,8.231,23,8.523v6.955
		c0,0.291,0,0.483-0.055,0.712c-0.049,0.206-0.13,0.402-0.241,0.583c-0.119,0.196-0.26,0.337-0.454,0.531l-4.935,4.935
		c-0.206,0.206-0.347,0.347-0.549,0.47c-0.175,0.107-0.371,0.188-0.576,0.237C15.961,23,15.769,23,15.478,23z M8.371,2.999
		C8.325,2.999,8.287,3,8.253,3.004C8.242,3.028,8.19,3.084,8.105,3.169L3.176,8.099C3.084,8.19,3.028,8.242,2.988,8.292
		C2.997,8.318,3,8.398,3,8.523v6.955c0,0.125-0.003,0.204,0.004,0.269c0.023,0.011,0.078,0.062,0.16,0.144l4.935,4.935
		c0.091,0.091,0.144,0.148,0.194,0.188C8.317,21.004,8.396,21,8.523,21h6.955c0.129,0.001,0.206,0.004,0.271-0.004
		c0.009-0.023,0.06-0.078,0.142-0.16l4.935-4.935c0.094-0.094,0.148-0.145,0.188-0.193C21.004,15.683,21,15.604,21,15.478V8.523
		c0-0.126,0.004-0.206-0.004-0.272c-0.023-0.009-0.081-0.061-0.166-0.146l-4.929-4.929c-0.094-0.094-0.145-0.149-0.193-0.188
		C15.682,2.997,15.603,3,15.478,3H8.523C8.463,3,8.414,2.999,8.371,2.999z M12,17c-0.552,0-1-0.447-1-1v-4c0-0.552,0.448-1,1-1
		s1,0.448,1,1v4C13,16.553,12.552,17,12,17z M12.01,9c-0.552,0-1.005-0.448-1.005-1S11.448,7,12,7h0.01c0.552,0,1,0.448,1,1
		S12.562,9,12.01,9z"/>
</g>
</svg>
