<?xml version="1.0" encoding="iso-8859-1"?>
<!-- Generator: Adobe Illustrator 27.4.0, SVG Export Plug-In . SVG Version: 6.00 Build 0)  -->
<svg version="1.1" id="Layer_1" xmlns="http://www.w3.org/2000/svg" xmlns:xlink="http://www.w3.org/1999/xlink" x="0px" y="0px"
	 viewBox="0 0 24 24" style="enable-background:new 0 0 24 24;" xml:space="preserve">
<g>
	<path d="M9,17c-4.411,0-8-3.589-8-8s3.589-8,8-8s8,3.589,8,8S13.411,17,9,17z M9,3C5.691,3,3,5.691,3,9s2.691,6,6,6s6-2.691,6-6
		S12.309,3,9,3z"/>
</g>
<g>
	<path d="M15,23c-4.411,0-8-3.589-8-8s3.589-8,8-8s8,3.589,8,8S19.411,23,15,23z M15,9c-3.309,0-6,2.691-6,6s2.691,6,6,6
		s6-2.691,6-6S18.309,9,15,9z"/>
</g>
</svg>
