<?xml version="1.0" encoding="iso-8859-1"?>
<!-- Generator: Adobe Illustrator 27.4.0, SVG Export Plug-In . SVG Version: 6.00 Build 0)  -->
<svg version="1.1" id="Layer_1" xmlns="http://www.w3.org/2000/svg" xmlns:xlink="http://www.w3.org/1999/xlink" x="0px" y="0px"
	 viewBox="0 0 24 24" style="enable-background:new 0 0 24 24;" xml:space="preserve">
<g>
	<path d="M9,21c-0.008,0-0.016,0-0.023,0H5c-0.552,0-1-0.447-1-1s0.448-1,1-1h3.307l5.25-14H10C9.448,5,9,4.552,9,4s0.448-1,1-1
		h4.977c0.016,0,0.031,0,0.047,0H19c0.553,0,1,0.448,1,1s-0.447,1-1,1h-3.307l-5.25,14H14c0.553,0,1,0.447,1,1s-0.447,1-1,1H9.023
		C9.015,21,9.008,21,9,21z"/>
</g>
</svg>
