<?xml version="1.0" encoding="iso-8859-1"?>
<!-- Generator: Adobe Illustrator 27.4.0, SVG Export Plug-In . SVG Version: 6.00 Build 0)  -->
<svg version="1.1" id="Layer_1" xmlns="http://www.w3.org/2000/svg" xmlns:xlink="http://www.w3.org/1999/xlink" x="0px" y="0px"
	 viewBox="0 0 24 24" style="enable-background:new 0 0 24 24;" xml:space="preserve">
<g>
	<path d="M10.75,21c-0.008,0-0.016,0-0.023,0H7.273c-0.016,0-0.031,0-0.046,0H4.5c-0.552,0-1-0.447-1-1s0.448-1,1-1h2.057l5.25-14
		H9.5c-0.552,0-1-0.448-1-1s0.448-1,1-1h3.727c0.016,0,0.031,0,0.047,0h3.453c0.016,0,0.031,0,0.047,0H19.5c0.553,0,1,0.448,1,1
		s-0.447,1-1,1h-2.057l-5.25,14H14.5c0.553,0,1,0.447,1,1s-0.447,1-1,1h-3.727C10.765,21,10.758,21,10.75,21z M8.693,19h1.364
		l5.25-14h-1.363L8.693,19z"/>
</g>
</svg>
