<?xml version="1.0" encoding="iso-8859-1"?>
<!-- Generator: Adobe Illustrator 27.4.0, SVG Export Plug-In . SVG Version: 6.00 Build 0)  -->
<svg version="1.1" id="Layer_1" xmlns="http://www.w3.org/2000/svg" xmlns:xlink="http://www.w3.org/1999/xlink" x="0px" y="0px"
	 viewBox="0 0 24 24" style="enable-background:new 0 0 24 24;" xml:space="preserve">
<g>
	<path d="M7,22H4.6c-0.651,0-1.081,0-1.51-0.219c-0.377-0.192-0.679-0.494-0.872-0.873C2,20.48,2,20.051,2,19.4v-1.737
		c0-0.293,0-0.486,0.056-0.717c0.048-0.202,0.128-0.396,0.238-0.574c0.125-0.204,0.261-0.341,0.468-0.548l5.11-5.11
		c0.136-0.136,0.223-0.216,0.277-0.288C8.128,10.385,8.1,10.218,8.062,9.941C8.021,9.632,8,9.318,8,9c0-3.86,3.14-7,7-7
		c3.859,0,7,3.14,7,7s-3.141,7-7,7c-0.318,0-0.632-0.021-0.938-0.062c-0.282-0.037-0.433-0.062-0.56-0.065
		c0.002,0.031-0.078,0.118-0.213,0.253l-1.582,1.582C11.52,17.895,11.265,18,11,18h-1v1c0,0.553-0.448,1-1,1H8v1
		C8,21.553,7.552,22,7,22z M15,4c-2.757,0-5,2.243-5,5c0,0.229,0.016,0.454,0.045,0.675c0.071,0.524,0.106,0.789,0.066,1.065
		c-0.038,0.262-0.103,0.456-0.233,0.689c-0.136,0.243-0.308,0.415-0.592,0.699l-5.11,5.11c-0.088,0.089-0.147,0.143-0.188,0.194
		C3.997,17.458,4,17.538,4,17.663V19.4c0,0.278,0,0.566,0.02,0.648C4.034,20,4.322,20,4.6,20H6v-1c0-0.553,0.448-1,1-1h1v-1
		c0-0.553,0.448-1,1-1h1.586l1.286-1.286c0.285-0.285,0.455-0.454,0.692-0.589c0.242-0.134,0.436-0.199,0.697-0.237
		c0.28-0.039,0.541-0.004,1.063,0.067C14.546,13.984,14.771,14,15,14c2.757,0,5-2.243,5-5S17.757,4,15,4z M17,10
		c-0.553,0-1-0.448-1-1c0-0.267-0.104-0.518-0.293-0.707C15.518,8.104,15.267,8,15,8c-0.553,0-1-0.448-1-1s0.447-1,1-1
		c0.801,0,1.555,0.312,2.121,0.879C17.688,7.445,18,8.198,18,9C18,9.552,17.553,10,17,10z"/>
</g>
</svg>
