<?xml version="1.0" encoding="iso-8859-1"?>
<!-- Generator: Adobe Illustrator 27.4.0, SVG Export Plug-In . SVG Version: 6.00 Build 0)  -->
<svg version="1.1" id="Layer_1" xmlns="http://www.w3.org/2000/svg" xmlns:xlink="http://www.w3.org/1999/xlink" x="0px" y="0px"
	 viewBox="0 0 24 24" style="enable-background:new 0 0 24 24;" xml:space="preserve">
<g>
	<path d="M18.8,19H5.2c-1.238,0-1.92,0-2.562-0.326c-0.57-0.292-1.022-0.744-1.312-1.311C1,16.721,1,16.038,1,14.8V9.2
		c0-1.238,0-1.92,0.327-2.562C1.617,6.07,2.07,5.617,2.637,5.327C3.28,5,3.962,5,5.2,5h13.6c1.238,0,1.921,0,2.562,0.327
		c0.567,0.29,1.02,0.742,1.311,1.31C23,7.28,23,7.962,23,9.2v5.6c0,1.238,0,1.921-0.326,2.562c-0.291,0.567-0.744,1.021-1.311,1.311
		C20.721,19,20.038,19,18.8,19z M5.2,7C4.333,7,3.76,7,3.545,7.109c-0.186,0.095-0.341,0.25-0.437,0.438C3,7.76,3,8.333,3,9.2v5.6
		c0,0.867,0,1.44,0.109,1.654c0.096,0.188,0.248,0.341,0.438,0.438C3.76,17,4.333,17,5.2,17h13.6c0.867,0,1.44,0,1.654-0.109
		c0.188-0.096,0.341-0.248,0.438-0.438C21,16.24,21,15.667,21,14.8V9.2c0-0.868,0-1.44-0.109-1.655
		c-0.096-0.188-0.248-0.34-0.438-0.437C20.24,7,19.667,7,18.8,7H5.2z M17,15.5H7c-0.552,0-1-0.447-1-1s0.448-1,1-1h10
		c0.553,0,1,0.447,1,1S17.553,15.5,17,15.5z M18.01,11c-0.553,0-1.005-0.448-1.005-1S17.447,9,18,9h0.01c0.553,0,1,0.448,1,1
		S18.562,11,18.01,11z M14.01,11c-0.553,0-1.005-0.448-1.005-1S13.447,9,14,9h0.01c0.553,0,1,0.448,1,1S14.562,11,14.01,11z
		 M10.01,11c-0.552,0-1.005-0.448-1.005-1S9.448,9,10,9h0.01c0.552,0,1,0.448,1,1S10.562,11,10.01,11z M6.01,11
		c-0.552,0-1.005-0.448-1.005-1S5.448,9,6,9h0.01c0.552,0,1,0.448,1,1S6.562,11,6.01,11z"/>
</g>
</svg>
