<?xml version="1.0" encoding="iso-8859-1"?>
<!-- Generator: Adobe Illustrator 27.4.0, SVG Export Plug-In . SVG Version: 6.00 Build 0)  -->
<svg version="1.1" id="Layer_1" xmlns="http://www.w3.org/2000/svg" xmlns:xlink="http://www.w3.org/1999/xlink" x="0px" y="0px"
	 viewBox="0 0 24 24" style="enable-background:new 0 0 24 24;" xml:space="preserve">
<g>
	<path d="M19.333,21H4.667c-0.685,0-1.062,0-1.443-0.103c-1.032-0.275-1.845-1.089-2.121-2.122C1,18.396,1,18.019,1,17.333
		c0-0.372,0-0.597,0.068-0.852c0.138-0.516,0.479-0.95,0.932-1.213V7.2c0-1.238,0-1.92,0.327-2.562
		C2.617,4.07,3.07,3.617,3.637,3.327C4.28,3,4.962,3,6.2,3h11.6c1.238,0,1.921,0,2.562,0.327c0.567,0.29,1.02,0.742,1.311,1.31
		C22,5.28,22,5.962,22,7.2v8.068c0.452,0.263,0.793,0.696,0.932,1.213C23,16.736,23,16.961,23,17.333c0,0.686,0,1.062-0.103,1.444
		c-0.275,1.031-1.089,1.845-2.122,2.12C20.396,21,20.019,21,19.333,21z M3.132,16.999c-0.065,0-0.116,0.001-0.16,0.007
		C2.995,17.054,3,17.161,3,17.333c0,0.48,0,0.799,0.034,0.925c0.092,0.346,0.363,0.616,0.707,0.708C3.869,19,4.186,19,4.667,19
		h14.667c0.48,0,0.799,0,0.925-0.034c0.346-0.092,0.616-0.362,0.708-0.706C21,18.132,21,17.813,21,17.333
		c0-0.153,0.004-0.255-0.003-0.333c-0.037,0-0.073-0.002-0.109-0.006C20.832,16.999,20.759,17,20.667,17H3.333
		C3.253,17,3.188,16.999,3.132,16.999z M4,15h16V7.2c0-0.868,0-1.44-0.109-1.655c-0.096-0.188-0.248-0.34-0.438-0.437
		C19.24,5,18.667,5,17.8,5H6.2C5.333,5,4.76,5,4.545,5.109c-0.186,0.095-0.341,0.25-0.437,0.438C4,5.76,4,6.333,4,7.2V15z"/>
</g>
</svg>
