<?xml version="1.0" encoding="iso-8859-1"?>
<!-- Generator: Adobe Illustrator 27.4.0, SVG Export Plug-In . SVG Version: 6.00 Build 0)  -->
<svg version="1.1" id="Layer_1" xmlns="http://www.w3.org/2000/svg" xmlns:xlink="http://www.w3.org/1999/xlink" x="0px" y="0px"
	 viewBox="0 0 24 24" style="enable-background:new 0 0 24 24;" xml:space="preserve">
<g>
	<path d="M19.333,21H4.667c-0.685,0-1.062,0-1.443-0.103c-1.032-0.275-1.845-1.089-2.121-2.122C1,18.396,1,18.019,1,17.333V17
		c0-0.739,0.403-1.386,1-1.731V7.2c0-1.238,0-1.92,0.327-2.562C2.617,4.07,3.07,3.617,3.637,3.327C4.28,3,4.962,3,6.2,3h11.6
		c1.238,0,1.921,0,2.562,0.327c0.567,0.29,1.02,0.742,1.311,1.31C22,5.28,22,5.962,22,7.2v8.068
		c0.452,0.263,0.793,0.696,0.932,1.213C23,16.736,23,16.961,23,17.333c0,0.686,0,1.062-0.103,1.444
		c-0.275,1.031-1.089,1.845-2.122,2.12C20.396,21,20.019,21,19.333,21z M3,17H2.999L3,17.333c0,0.48,0,0.799,0.034,0.925
		c0.092,0.346,0.363,0.616,0.707,0.708C3.869,19,4.186,19,4.667,19h14.667c0.48,0,0.799,0,0.925-0.034
		c0.346-0.092,0.616-0.362,0.708-0.706C21,18.132,21,17.813,21,17.333c0-0.153,0.004-0.255-0.003-0.333h-5.334
		c-0.127,0-0.205-0.004-0.271,0.004c-0.011,0.024-0.064,0.083-0.153,0.172c-0.27,0.27-0.406,0.406-0.608,0.53
		c-0.182,0.11-0.375,0.19-0.577,0.239C13.821,18,13.629,18,13.337,18h-2.674c-0.292,0-0.484,0-0.713-0.055
		c-0.205-0.049-0.4-0.13-0.58-0.24c-0.202-0.123-0.338-0.26-0.545-0.467c-0.151-0.151-0.205-0.21-0.257-0.251
		C8.543,16.996,8.464,17,8.337,17H3z M4,15h4.337c0.292,0,0.484,0,0.713,0.055c0.205,0.049,0.4,0.13,0.58,0.24
		c0.202,0.123,0.338,0.26,0.545,0.467c0.151,0.151,0.205,0.21,0.257,0.251C10.457,16.004,10.536,16,10.663,16h2.674
		c0.127,0,0.206,0.004,0.271-0.004c0.011-0.024,0.064-0.083,0.153-0.172c0.27-0.27,0.406-0.406,0.608-0.53
		c0.182-0.11,0.375-0.19,0.577-0.239C15.179,15,15.371,15,15.663,15H20V7.2c0-0.868,0-1.44-0.109-1.655
		c-0.096-0.188-0.248-0.34-0.438-0.437C19.24,5,18.667,5,17.8,5H6.2C5.333,5,4.76,5,4.545,5.109
		c-0.186,0.095-0.341,0.25-0.437,0.438C4,5.76,4,6.333,4,7.2V15z"/>
</g>
</svg>
