<?xml version="1.0" encoding="iso-8859-1"?>
<!-- Generator: Adobe Illustrator 27.4.0, SVG Export Plug-In . SVG Version: 6.00 Build 0)  -->
<svg version="1.1" id="Layer_1" xmlns="http://www.w3.org/2000/svg" xmlns:xlink="http://www.w3.org/1999/xlink" x="0px" y="0px"
	 viewBox="0 0 24 24" style="enable-background:new 0 0 24 24;" xml:space="preserve">
<g>
	<path d="M12.002,20.441c-0.094,0-0.188-0.009-0.283-0.026c-0.198-0.037-0.351-0.113-0.513-0.193l-9.654-4.827
		C1.214,15.225,1,14.879,1,14.5s0.214-0.725,0.553-0.895L4.764,12l-3.211-1.605C1.214,10.225,1,9.879,1,9.5s0.214-0.725,0.553-0.895
		l9.642-4.821c0.176-0.087,0.325-0.162,0.532-0.2c0.179-0.035,0.368-0.035,0.554,0.001c0.2,0.037,0.349,0.111,0.521,0.197
		l9.646,4.823C22.786,8.775,23,9.121,23,9.5s-0.214,0.725-0.553,0.895L19.236,12l3.211,1.605C22.786,13.775,23,14.121,23,14.5
		s-0.214,0.725-0.553,0.895l-9.642,4.821c-0.173,0.086-0.326,0.162-0.532,0.2C12.185,20.433,12.094,20.441,12.002,20.441z
		 M4.236,14.5L12,18.382l7.764-3.882L17,13.118l-4.195,2.098c-0.173,0.086-0.326,0.162-0.532,0.2
		c-0.179,0.033-0.368,0.034-0.554-0.001c-0.198-0.037-0.351-0.113-0.513-0.193L7,13.118L4.236,14.5z M7.465,11.115L12,13.382
		l4.536-2.268c0.011-0.006,0.021-0.011,0.032-0.016L19.764,9.5L12,5.618L4.236,9.5l3.195,1.598
		C7.442,11.103,7.454,11.109,7.465,11.115z"/>
</g>
</svg>
