<?xml version="1.0" encoding="iso-8859-1"?>
<!-- Generator: Adobe Illustrator 27.4.0, SVG Export Plug-In . SVG Version: 6.00 Build 0)  -->
<svg version="1.1" id="Layer_1" xmlns="http://www.w3.org/2000/svg" xmlns:xlink="http://www.w3.org/1999/xlink" x="0px" y="0px"
	 viewBox="0 0 24 24" style="enable-background:new 0 0 24 24;" xml:space="preserve">
<g>
	<path d="M12.002,17.941c-0.094,0-0.188-0.009-0.283-0.026c-0.198-0.037-0.351-0.113-0.513-0.193l-9.654-4.827
		C1.214,12.725,1,12.379,1,12s0.214-0.725,0.553-0.895l9.642-4.821c0.176-0.087,0.325-0.162,0.532-0.2
		c0.179-0.035,0.368-0.034,0.554,0.001c0.2,0.037,0.349,0.111,0.521,0.197c0,0,0.003,0.001,0.003,0.001l9.642,4.821
		C22.786,11.275,23,11.621,23,12s-0.214,0.725-0.553,0.895l-9.642,4.821c-0.173,0.086-0.326,0.162-0.532,0.2
		C12.185,17.933,12.094,17.941,12.002,17.941z M4.236,12L12,15.882L19.764,12L12,8.118L4.236,12z"/>
</g>
</svg>
