<?xml version="1.0" encoding="iso-8859-1"?>
<!-- Generator: Adobe Illustrator 27.4.0, SVG Export Plug-In . SVG Version: 6.00 Build 0)  -->
<svg version="1.1" id="Layer_1" xmlns="http://www.w3.org/2000/svg" xmlns:xlink="http://www.w3.org/1999/xlink" x="0px" y="0px"
	 viewBox="0 0 24 24" style="enable-background:new 0 0 24 24;" xml:space="preserve">
<g>
	<path d="M12.002,22.941c-0.094,0-0.188-0.009-0.283-0.026c-0.198-0.037-0.351-0.113-0.513-0.193l-9.654-4.827
		C1.214,17.725,1,17.379,1,17s0.214-0.725,0.553-0.895L4.764,14.5l-3.211-1.605C1.214,12.725,1,12.379,1,12s0.214-0.725,0.553-0.895
		L4.764,9.5L1.553,7.895C1.214,7.725,1,7.379,1,7s0.214-0.725,0.553-0.895l9.642-4.821c0.176-0.087,0.325-0.162,0.532-0.2
		c0.179-0.035,0.368-0.034,0.554,0.001c0.2,0.037,0.349,0.111,0.521,0.197l9.646,4.823C22.786,6.275,23,6.621,23,7
		s-0.214,0.725-0.553,0.895L19.236,9.5l3.211,1.605C22.786,11.275,23,11.621,23,12s-0.214,0.725-0.553,0.895L19.236,14.5
		l3.211,1.605C22.786,16.275,23,16.621,23,17s-0.214,0.725-0.553,0.895l-9.642,4.821c-0.173,0.086-0.326,0.162-0.532,0.2
		C12.185,22.933,12.094,22.941,12.002,22.941z M4.236,17L12,20.882L19.764,17L17,15.618l-4.195,2.098
		c-0.173,0.086-0.326,0.162-0.532,0.2c-0.179,0.033-0.368,0.034-0.554-0.001c-0.198-0.037-0.351-0.113-0.513-0.193L7,15.618
		L4.236,17z M7.465,13.614L12,15.882l4.536-2.268c0.011-0.006,0.021-0.011,0.032-0.017L19.764,12L17,10.618l-4.195,2.098
		c-0.174,0.086-0.321,0.16-0.525,0.199c-0.188,0.035-0.372,0.036-0.554,0.001c-0.21-0.04-0.357-0.114-0.528-0.199L7,10.618L4.236,12
		l3.195,1.598C7.442,13.603,7.454,13.608,7.465,13.614z M7.465,8.615L12,10.882l4.536-2.268c0.011-0.006,0.021-0.011,0.032-0.017
		L19.764,7L12,3.118L4.236,7l3.195,1.598C7.442,8.603,7.454,8.609,7.465,8.615z"/>
</g>
</svg>
