<?xml version="1.0" encoding="iso-8859-1"?>
<!-- Generator: Adobe Illustrator 27.4.0, SVG Export Plug-In . SVG Version: 6.00 Build 0)  -->
<svg version="1.1" id="Layer_1" xmlns="http://www.w3.org/2000/svg" xmlns:xlink="http://www.w3.org/1999/xlink" x="0px" y="0px"
	 viewBox="0 0 24 24" style="enable-background:new 0 0 24 24;" xml:space="preserve">
<g>
	<path d="M12.002,22.941c-0.094,0-0.188-0.009-0.283-0.026c-0.198-0.037-0.351-0.113-0.513-0.193l-9.654-4.827
		c-0.494-0.247-0.694-0.848-0.447-1.342s0.847-0.692,1.342-0.447L12,20.882l9.553-4.776c0.495-0.245,1.094-0.047,1.342,0.447
		c0.247,0.494,0.047,1.095-0.447,1.342l-9.642,4.821c-0.173,0.086-0.326,0.162-0.532,0.2C12.185,22.933,12.094,22.941,12.002,22.941
		z M12.002,17.941c-0.094,0-0.188-0.009-0.283-0.026c-0.198-0.037-0.351-0.113-0.513-0.193l-9.654-4.827
		c-0.494-0.247-0.694-0.848-0.447-1.342c0.247-0.493,0.847-0.695,1.342-0.447L12,15.882l9.553-4.776
		c0.495-0.247,1.094-0.047,1.342,0.447c0.247,0.494,0.047,1.095-0.447,1.342l-9.642,4.821c-0.173,0.086-0.326,0.162-0.532,0.2
		C12.185,17.933,12.094,17.941,12.002,17.941z M11.998,12.941c-0.091,0-0.182-0.008-0.271-0.025c-0.21-0.04-0.357-0.114-0.528-0.199
		L1.553,7.895C1.214,7.725,1,7.379,1,7s0.214-0.725,0.553-0.895l9.642-4.821c0.176-0.087,0.325-0.162,0.532-0.2
		c0.179-0.035,0.368-0.034,0.554,0.001c0.2,0.037,0.349,0.111,0.521,0.197l9.646,4.823C22.786,6.275,23,6.621,23,7
		s-0.214,0.725-0.553,0.895l-9.642,4.821c-0.174,0.086-0.321,0.16-0.525,0.199C12.185,12.932,12.091,12.941,11.998,12.941z M4.236,7
		L12,10.882L19.764,7L12,3.118L4.236,7z"/>
</g>
</svg>
