<?xml version="1.0" encoding="iso-8859-1"?>
<!-- Generator: Adobe Illustrator 27.4.0, SVG Export Plug-In . SVG Version: 6.00 Build 0)  -->
<svg version="1.1" id="Layer_1" xmlns="http://www.w3.org/2000/svg" xmlns:xlink="http://www.w3.org/1999/xlink" x="0px" y="0px"
	 viewBox="0 0 24 24" style="enable-background:new 0 0 24 24;" xml:space="preserve">
<g>
	<path d="M12.002,20.441c-0.094,0-0.188-0.009-0.283-0.026c-0.198-0.037-0.351-0.113-0.513-0.193l-9.654-4.827
		c-0.494-0.247-0.694-0.848-0.447-1.342s0.847-0.694,1.342-0.447L12,18.382l9.553-4.776c0.495-0.246,1.094-0.047,1.342,0.447
		c0.247,0.494,0.047,1.095-0.447,1.342l-9.642,4.821c-0.173,0.086-0.326,0.162-0.532,0.2C12.185,20.433,12.094,20.441,12.002,20.441
		z M12.002,15.441c-0.094,0-0.188-0.009-0.283-0.026c-0.198-0.037-0.351-0.113-0.513-0.193l-9.654-4.827C1.214,10.225,1,9.879,1,9.5
		s0.214-0.725,0.553-0.895l9.642-4.821c0.176-0.087,0.325-0.162,0.532-0.2c0.179-0.035,0.368-0.035,0.554,0.001
		c0.2,0.037,0.349,0.111,0.521,0.197l9.646,4.823C22.786,8.775,23,9.121,23,9.5s-0.214,0.725-0.553,0.895l-9.642,4.821
		c-0.173,0.086-0.326,0.162-0.532,0.2C12.185,15.433,12.094,15.441,12.002,15.441z M4.236,9.5L12,13.382L19.764,9.5L12,5.618
		L4.236,9.5z"/>
</g>
</svg>
