<?xml version="1.0" encoding="iso-8859-1"?>
<!-- Generator: Adobe Illustrator 27.4.0, SVG Export Plug-In . SVG Version: 6.00 Build 0)  -->
<svg version="1.1" id="Layer_1" xmlns="http://www.w3.org/2000/svg" xmlns:xlink="http://www.w3.org/1999/xlink" x="0px" y="0px"
	 viewBox="0 0 24 24" style="enable-background:new 0 0 24 24;" xml:space="preserve">
<g>
	<path d="M21,21H3c-0.552,0-1-0.447-1-1s0.448-1,1-1h18c0.553,0,1,0.447,1,1S21.553,21,21,21z M3.5,17.1c-0.011,0-0.022,0-0.033,0
		c-0.45-0.009-0.87-0.219-1.149-0.576C2,16.118,2,15.673,2,15V9.2c0-0.673,0-1.118,0.319-1.525C2.596,7.32,3.016,7.109,3.47,7.1
		c0.527-0.007,0.872,0.256,1.41,0.66l3.866,2.9c0.373,0.279,0.664,0.498,0.818,0.897c0.136,0.349,0.137,0.735,0,1.087
		c-0.156,0.399-0.448,0.619-0.818,0.896L4.88,16.439C4.354,16.835,4.002,17.1,3.5,17.1z M4.012,15.53L4.012,15.53L4.012,15.53z
		 M3.249,15.148L3.249,15.148L3.249,15.148z M4,9.6v5l3.333-2.5L4,9.6z M7.815,12.469h0.01H7.815z M4.012,8.67L4.012,8.67
		L4.012,8.67z M21,15.75h-9c-0.552,0-1-0.447-1-1s0.448-1,1-1h9c0.553,0,1,0.447,1,1S21.553,15.75,21,15.75z M21,10.25h-9
		c-0.552,0-1-0.448-1-1s0.448-1,1-1h9c0.553,0,1,0.448,1,1S21.553,10.25,21,10.25z M21,5H3C2.448,5,2,4.552,2,4s0.448-1,1-1h18
		c0.553,0,1,0.448,1,1S21.553,5,21,5z"/>
</g>
</svg>
