<?xml version="1.0" encoding="iso-8859-1"?>
<!-- Generator: Adobe Illustrator 27.4.0, SVG Export Plug-In . SVG Version: 6.00 Build 0)  -->
<svg version="1.1" id="Layer_1" xmlns="http://www.w3.org/2000/svg" xmlns:xlink="http://www.w3.org/1999/xlink" x="0px" y="0px"
	 viewBox="0 0 24 24" style="enable-background:new 0 0 24 24;" xml:space="preserve">
<g>
	<path d="M21,21H3c-0.552,0-1-0.447-1-1s0.448-1,1-1h18c0.553,0,1,0.447,1,1S21.553,21,21,21z M21,15.75H3c-0.552,0-1-0.447-1-1
		s0.448-1,1-1h18c0.553,0,1,0.447,1,1S21.553,15.75,21,15.75z M3.499,11.5c-0.009,0-0.019,0-0.029,0
		c-0.455-0.011-0.874-0.221-1.151-0.576C2,10.518,2,10.073,2,9.4V3.6c0-0.673,0-1.118,0.319-1.525
		C2.596,1.721,3.015,1.511,3.467,1.5C3.988,1.494,4.342,1.757,4.88,2.16l3.867,2.9C9.119,5.339,9.41,5.558,9.565,5.957
		c0.136,0.349,0.137,0.735,0,1.087C9.41,7.442,9.119,7.661,8.75,7.937L4.88,10.84C4.353,11.236,4.001,11.5,3.499,11.5z M4.012,9.93
		L4.012,9.93L4.012,9.93z M4,4v5l3.333-2.5L4,4z M7.815,6.869h0.01H7.815z M4.012,3.07L4.012,3.07L4.012,3.07z M21,10.25h-9
		c-0.552,0-1-0.448-1-1s0.448-1,1-1h9c0.553,0,1,0.448,1,1S21.553,10.25,21,10.25z M21,5h-9c-0.552,0-1-0.448-1-1s0.448-1,1-1h9
		c0.553,0,1,0.448,1,1S21.553,5,21,5z"/>
</g>
</svg>
