<?xml version="1.0" encoding="iso-8859-1"?>
<!-- Generator: Adobe Illustrator 27.4.0, SVG Export Plug-In . SVG Version: 6.00 Build 0)  -->
<svg version="1.1" id="Layer_1" xmlns="http://www.w3.org/2000/svg" xmlns:xlink="http://www.w3.org/1999/xlink" x="0px" y="0px"
	 viewBox="0 0 24 24" style="enable-background:new 0 0 24 24;" xml:space="preserve">
<g>
	<path d="M19,22c-0.256,0-0.512-0.098-0.707-0.293c-0.391-0.391-0.391-1.023,0-1.414L19.586,19H4.414l1.293,1.293
		c0.391,0.391,0.391,1.023,0,1.414s-1.023,0.391-1.414,0l-3-3C1.197,18.61,1.124,18.5,1.075,18.381C1.027,18.265,1,18.137,1,18.003
		l0,0c0-0.002,0-0.004,0-0.006l0,0c0-0.134,0.027-0.262,0.075-0.378c0.049-0.119,0.122-0.229,0.218-0.326l3-3
		c0.391-0.391,1.023-0.391,1.414,0s0.391,1.023,0,1.414L4.414,17h15.172l-1.293-1.293c-0.391-0.391-0.391-1.023,0-1.414
		s1.023-0.391,1.414,0l3,3c0.097,0.097,0.169,0.207,0.218,0.326C22.973,17.735,23,17.863,23,17.997l0,0c0,0.002,0,0.004,0,0.006l0,0
		c0,0.134-0.027,0.262-0.075,0.378c-0.049,0.119-0.121,0.229-0.218,0.326l-3,3C19.512,21.902,19.256,22,19,22z M12,15
		c-0.552,0-1-0.447-1-1V4H7C6.448,4,6,3.552,6,3s0.448-1,1-1h10c0.553,0,1,0.448,1,1s-0.447,1-1,1h-4v10C13,14.553,12.552,15,12,15z
		"/>
</g>
</svg>
