<?xml version="1.0" encoding="iso-8859-1"?>
<!-- Generator: Adobe Illustrator 27.4.0, SVG Export Plug-In . SVG Version: 6.00 Build 0)  -->
<svg version="1.1" id="Layer_1" xmlns="http://www.w3.org/2000/svg" xmlns:xlink="http://www.w3.org/1999/xlink" x="0px" y="0px"
	 viewBox="0 0 24 24" style="enable-background:new 0 0 24 24;" xml:space="preserve">
<g>
	<path d="M21,22c-0.553,0-1-0.447-1-1V3c0-0.552,0.447-1,1-1s1,0.448,1,1v18C22,21.553,21.553,22,21,22z M3,22c-0.552,0-1-0.447-1-1
		V3c0-0.552,0.448-1,1-1s1,0.448,1,1v18C4,21.553,3.552,22,3,22z M17.001,18c-0.381,0-0.744-0.218-0.911-0.586L14.538,14H9.462
		L7.91,17.414c-0.229,0.503-0.824,0.726-1.324,0.496c-0.503-0.229-0.725-0.821-0.497-1.324l4.271-9.397
		c0.298-0.656,0.495-1.089,0.976-1.326c0.414-0.206,0.911-0.206,1.327,0c0.479,0.236,0.677,0.669,0.975,1.325l4.271,9.398
		c0.229,0.503,0.007,1.096-0.496,1.324C17.279,17.972,17.139,18,17.001,18z M10.371,12h3.258L12,8.416L10.371,12z"/>
</g>
</svg>
