<?xml version="1.0" encoding="iso-8859-1"?>
<!-- Generator: Adobe Illustrator 27.4.0, SVG Export Plug-In . SVG Version: 6.00 Build 0)  -->
<svg version="1.1" id="Layer_1" xmlns="http://www.w3.org/2000/svg" xmlns:xlink="http://www.w3.org/1999/xlink" x="0px" y="0px"
	 viewBox="0 0 24 24" style="enable-background:new 0 0 24 24;" xml:space="preserve">
<g>
	<path d="M12,23c-2.993,0-5.711-1.202-7.696-3.147c-0.028-0.023-0.056-0.048-0.082-0.074s-0.051-0.054-0.074-0.082
		C2.202,17.711,1,14.993,1,12c0-2.994,1.203-5.713,3.15-7.698c0.022-0.028,0.046-0.054,0.072-0.08S4.273,4.173,4.301,4.15
		C6.287,2.203,9.005,1,12,1c2.993,0,5.711,1.202,7.696,3.148c0.028,0.023,0.056,0.047,0.082,0.074s0.051,0.054,0.074,0.082
		C21.798,6.289,23,9.007,23,12s-1.202,5.711-3.147,7.696c-0.023,0.028-0.048,0.056-0.074,0.082s-0.054,0.051-0.082,0.074
		C17.711,21.798,14.993,23,12,23z M6.385,19.029C7.925,20.262,9.878,21,12,21c2.122,0,4.074-0.738,5.615-1.971l-2.141-2.141
		C14.493,17.588,13.294,18,12,18s-2.494-0.412-3.475-1.111L6.385,19.029z M16.889,15.475l2.141,2.141C20.262,16.074,21,14.122,21,12
		c0-2.122-0.738-4.075-1.971-5.615l-2.141,2.14C17.588,9.506,18,10.706,18,12S17.588,14.493,16.889,15.475z M4.971,6.385
		C3.738,7.926,3,9.878,3,12c0,2.122,0.738,4.074,1.971,5.615l2.14-2.141C6.412,14.493,6,13.294,6,12s0.412-2.494,1.111-3.475
		L4.971,6.385z M12,8c-2.206,0-4,1.794-4,4c0,2.206,1.794,4,4,4c2.206,0,4-1.794,4-4C16,9.794,14.206,8,12,8z M6.385,4.971
		l2.141,2.14C9.506,6.412,10.706,6,12,6s2.493,0.412,3.475,1.111l2.141-2.14C16.074,3.738,14.122,3,12,3S7.925,3.738,6.385,4.971z"
		/>
</g>
</svg>
