<?xml version="1.0" encoding="iso-8859-1"?>
<!-- Generator: Adobe Illustrator 27.4.0, SVG Export Plug-In . SVG Version: 6.00 Build 0)  -->
<svg version="1.1" id="Layer_1" xmlns="http://www.w3.org/2000/svg" xmlns:xlink="http://www.w3.org/1999/xlink" x="0px" y="0px"
	 viewBox="0 0 24 24" style="enable-background:new 0 0 24 24;" xml:space="preserve">
<g>
	<path d="M12,23c-2.993,0-5.711-1.202-7.696-3.147c-0.028-0.023-0.056-0.048-0.082-0.074s-0.051-0.054-0.074-0.082
		C2.202,17.711,1,14.993,1,12c0-2.994,1.203-5.713,3.15-7.698c0.022-0.027,0.046-0.054,0.072-0.08s0.052-0.049,0.08-0.072
		C6.287,2.203,9.005,1,12,1c3.002,0,5.728,1.209,7.715,3.166c0.021,0.018,0.041,0.037,0.061,0.056s0.038,0.04,0.056,0.061
		C21.79,6.27,23,8.996,23,12c0,3.002-1.209,5.728-3.166,7.714c-0.019,0.022-0.038,0.044-0.059,0.064s-0.042,0.041-0.064,0.06
		C17.725,21.792,15.001,23,12,23z M6.385,19.029C7.925,20.262,9.878,21,12,21c2.121,0,4.073-0.737,5.613-1.97l-2.859-2.859
		C13.964,16.695,13.017,17,12,17c-1.018,0-1.965-0.306-2.756-0.83L6.385,19.029z M16.169,14.758l2.858,2.858
		C20.262,16.076,21,14.123,21,12c0-2.123-0.738-4.076-1.972-5.616l-2.859,2.859C16.694,10.034,17,10.982,17,12
		C17,13.019,16.694,13.967,16.169,14.758z M4.971,6.385C3.738,7.926,3,9.878,3,12c0,2.122,0.738,4.074,1.971,5.615l2.859-2.859
		C7.306,13.965,7,13.018,7,12s0.306-1.965,0.83-2.756L4.971,6.385z M12,9c-1.654,0-3,1.346-3,3s1.346,3,3,3s3-1.346,3-3
		S13.654,9,12,9z M6.385,4.971L9.244,7.83C10.035,7.306,10.982,7,12,7c1.017,0,1.964,0.305,2.755,0.829l2.858-2.859
		C16.073,3.738,14.121,3,12,3C9.878,3,7.925,3.738,6.385,4.971z"/>
</g>
</svg>
