<?xml version="1.0" encoding="iso-8859-1"?>
<!-- Generator: Adobe Illustrator 27.4.0, SVG Export Plug-In . SVG Version: 6.00 Build 0)  -->
<svg version="1.1" id="Layer_1" xmlns="http://www.w3.org/2000/svg" xmlns:xlink="http://www.w3.org/1999/xlink" x="0px" y="0px"
	 viewBox="0 0 24 24" style="enable-background:new 0 0 24 24;" xml:space="preserve">
<g>
	<path d="M12,23c-1.03,0-1.597,0-2.148-0.229c-0.74-0.307-1.316-0.884-1.623-1.623C8,20.596,8,20.029,8,19v-1.876
		c-2.716-1.468-4.5-4.45-4.5-7.624C3.5,4.813,7.313,1,12,1c4.687,0,8.5,3.813,8.5,8.5c0,3.174-1.784,6.156-4.5,7.624V19
		c0,1.029,0,1.596-0.229,2.148c-0.307,0.74-0.883,1.316-1.623,1.623C13.596,23,13.029,23,12,23z M10,17.5V19
		c0,0.722,0,1.199,0.076,1.383c0.102,0.246,0.294,0.438,0.542,0.541C10.801,21,11.278,21,12,21c0.722,0,1.199,0,1.383-0.076
		c0.247-0.103,0.438-0.294,0.541-0.541C14,20.199,14,19.722,14,19v-1.5H10z M9.217,15.5h5.565c2.232-1.064,3.718-3.45,3.718-6
		C18.5,5.916,15.584,3,12,3S5.5,5.916,5.5,9.5C5.5,12.051,6.986,14.436,9.217,15.5z"/>
</g>
</svg>
