<?xml version="1.0" encoding="iso-8859-1"?>
<!-- Generator: Adobe Illustrator 27.4.0, SVG Export Plug-In . SVG Version: 6.00 Build 0)  -->
<svg version="1.1" id="Layer_1" xmlns="http://www.w3.org/2000/svg" xmlns:xlink="http://www.w3.org/1999/xlink" x="0px" y="0px"
	 viewBox="0 0 24 24" style="enable-background:new 0 0 24 24;" xml:space="preserve">
<g>
	<path d="M7.499,23c-0.173,0-0.347-0.045-0.504-0.137c-0.398-0.233-0.585-0.709-0.453-1.15L9.155,13H4.294
		c-0.557,0-0.958,0-1.346-0.271c-0.335-0.234-0.563-0.602-0.624-1.009c-0.069-0.468,0.111-0.828,0.36-1.325l4.199-8.399
		c0.105-0.21,0.195-0.388,0.371-0.562c0.165-0.161,0.359-0.28,0.567-0.351C8.057,1,8.259,1,8.494,1h5.755
		c0.328,0,0.635,0.161,0.822,0.43c0.187,0.27,0.229,0.614,0.114,0.921L13.442,7h5.675c0.782,0,1.255,0,1.674,0.355
		c0.363,0.307,0.561,0.772,0.528,1.246c-0.035,0.544-0.362,0.883-0.903,1.445L8.219,22.694C8.025,22.896,7.764,23,7.499,23z
		 M4.618,11H10.5c0.316,0,0.614,0.149,0.802,0.403c0.189,0.254,0.247,0.582,0.156,0.884l-1.815,6.05L18.646,9H12
		c-0.328,0-0.635-0.161-0.822-0.43c-0.187-0.27-0.229-0.614-0.115-0.921L12.806,3H8.618L4.618,11z M4.292,11.669L4.292,11.669
		L4.292,11.669z M19.751,9.015L19.751,9.015L19.751,9.015z M8.344,3.001L8.344,3.001L8.344,3.001z"/>
</g>
</svg>
