<?xml version="1.0" encoding="iso-8859-1"?>
<!-- Generator: Adobe Illustrator 27.4.0, SVG Export Plug-In . SVG Version: 6.00 Build 0)  -->
<svg version="1.1" id="Layer_1" xmlns="http://www.w3.org/2000/svg" xmlns:xlink="http://www.w3.org/1999/xlink" x="0px" y="0px"
	 viewBox="0 0 24 24" style="enable-background:new 0 0 24 24;" xml:space="preserve">
<g>
	<path d="M14.5,23h-5c-0.552,0-1-0.447-1-1s0.448-1,1-1h5c0.553,0,1,0.447,1,1S15.053,23,14.5,23z M12,20
		c-1.03,0-1.597,0-2.148-0.229c-0.74-0.307-1.316-0.884-1.623-1.623C8,17.596,8,17.029,8,16v-0.071C5.551,14.511,4,11.857,4,9
		c0-4.411,3.589-8,8-8s8,3.589,8,8c0,2.857-1.551,5.511-4,6.929V16c0,1.029,0,1.596-0.229,2.148
		c-0.307,0.74-0.883,1.316-1.623,1.623C13.596,20,13.029,20,12,20z M12,3C8.691,3,6,5.691,6,9c0,2.305,1.346,4.434,3.429,5.423
		C9.778,14.589,10,14.94,10,15.326V16c0,0.722,0,1.199,0.076,1.383c0.102,0.246,0.294,0.438,0.542,0.541C10.801,18,11.278,18,12,18
		c0.722,0,1.199,0,1.383-0.076c0.247-0.103,0.438-0.294,0.541-0.541C14,17.199,14,16.722,14,16v-0.674
		c0-0.386,0.223-0.737,0.571-0.903C16.654,13.434,18,11.305,18,9C18,5.691,15.309,3,12,3z"/>
</g>
</svg>
