<?xml version="1.0" encoding="iso-8859-1"?>
<!-- Generator: Adobe Illustrator 27.4.0, SVG Export Plug-In . SVG Version: 6.00 Build 0)  -->
<svg version="1.1" id="Layer_1" xmlns="http://www.w3.org/2000/svg" xmlns:xlink="http://www.w3.org/1999/xlink" x="0px" y="0px"
	 viewBox="0 0 24 24" style="enable-background:new 0 0 24 24;" xml:space="preserve">
<g>
	<path d="M12,23c-1.654,0-3-1.346-3-3v-1.676C6.637,17.198,5,14.787,5,12c0-3.86,3.14-7,7-7c3.859,0,7,3.14,7,7
		c0,2.787-1.637,5.198-4,6.324V20C15,21.654,13.654,23,12,23z M11,18.929V20c0,0.552,0.449,1,1,1s1-0.448,1-1v-1.071
		C12.347,19.022,11.653,19.022,11,18.929z M12,7c-2.757,0-5,2.243-5,5s2.243,5,5,5s5-2.243,5-5S14.757,7,12,7z M22,13h-1
		c-0.553,0-1-0.448-1-1s0.447-1,1-1h1c0.553,0,1,0.448,1,1S22.553,13,22,13z M3,13H2c-0.552,0-1-0.448-1-1s0.448-1,1-1h1
		c0.552,0,1,0.448,1,1S3.552,13,3,13z M5.5,6.5c-0.256,0-0.512-0.098-0.707-0.293l-0.6-0.6c-0.391-0.391-0.391-1.023,0-1.414
		s1.023-0.391,1.414,0l0.6,0.6c0.391,0.391,0.391,1.023,0,1.414C6.012,6.402,5.756,6.5,5.5,6.5z M18.5,6.5
		c-0.256,0-0.512-0.098-0.707-0.293c-0.391-0.391-0.391-1.024,0-1.415l0.601-0.6c0.391-0.39,1.023-0.39,1.414,0
		c0.391,0.391,0.391,1.024,0,1.415l-0.601,0.6C19.012,6.402,18.756,6.5,18.5,6.5z M12,4c-0.552,0-1-0.448-1-1V2c0-0.552,0.448-1,1-1
		s1,0.448,1,1v1C13,3.552,12.552,4,12,4z"/>
</g>
</svg>
