<?xml version="1.0" encoding="iso-8859-1"?>
<!-- Generator: Adobe Illustrator 27.4.0, SVG Export Plug-In . SVG Version: 6.00 Build 0)  -->
<svg version="1.1" id="Layer_1" xmlns="http://www.w3.org/2000/svg" xmlns:xlink="http://www.w3.org/1999/xlink" x="0px" y="0px"
	 viewBox="0 0 24 24" style="enable-background:new 0 0 24 24;" xml:space="preserve">
<g>
	<path d="M12.3,23h-0.6c-1.238,0-1.92,0-2.562-0.326c-0.57-0.292-1.022-0.744-1.312-1.311C7.5,20.721,7.5,20.038,7.5,18.8v-1.438
		C5.926,16.038,5,14.071,5,12c0-3.86,3.14-7,7-7c3.859,0,7,3.14,7,7c0,2.07-0.926,4.038-2.5,5.362V18.8c0,1.238,0,1.921-0.326,2.562
		c-0.291,0.567-0.744,1.021-1.311,1.311C14.221,23,13.538,23,12.3,23z M12,7c-2.757,0-5,2.243-5,5c0,1.605,0.779,3.124,2.084,4.062
		C9.345,16.25,9.5,16.552,9.5,16.874V18.8c0,0.867,0,1.44,0.109,1.654c0.096,0.188,0.248,0.341,0.438,0.438
		C10.26,21,10.833,21,11.7,21h0.6c0.867,0,1.44,0,1.654-0.109c0.188-0.096,0.341-0.248,0.438-0.438
		C14.5,20.24,14.5,19.667,14.5,18.8v-1.926c0-0.321,0.155-0.624,0.416-0.812C16.221,15.124,17,13.604,17,12C17,9.243,14.757,7,12,7z
		 M12,19.5c-0.552,0-1-0.447-1-1v-4h-1c-0.552,0-1-0.447-1-1c0-0.552,0.448-1,1-1h4c0.553,0,1,0.448,1,1c0,0.553-0.447,1-1,1h-1v4
		C13,19.053,12.552,19.5,12,19.5z M22,13h-1c-0.553,0-1-0.448-1-1s0.447-1,1-1h1c0.553,0,1,0.448,1,1S22.553,13,22,13z M3,13H2
		c-0.552,0-1-0.448-1-1s0.448-1,1-1h1c0.552,0,1,0.448,1,1S3.552,13,3,13z M5.5,6.5c-0.256,0-0.512-0.098-0.707-0.293l-0.6-0.6
		c-0.391-0.391-0.391-1.023,0-1.414s1.023-0.391,1.414,0l0.6,0.6c0.391,0.391,0.391,1.023,0,1.414C6.012,6.402,5.756,6.5,5.5,6.5z
		 M18.5,6.5c-0.256,0-0.512-0.098-0.707-0.293c-0.391-0.391-0.391-1.024,0-1.415l0.601-0.6c0.391-0.39,1.023-0.39,1.414,0
		c0.391,0.391,0.391,1.024,0,1.415l-0.601,0.6C19.012,6.402,18.756,6.5,18.5,6.5z M12,4c-0.552,0-1-0.448-1-1V2c0-0.552,0.448-1,1-1
		s1,0.448,1,1v1C13,3.552,12.552,4,12,4z"/>
</g>
</svg>
