<?xml version="1.0" encoding="iso-8859-1"?>
<!-- Generator: Adobe Illustrator 27.4.0, SVG Export Plug-In . SVG Version: 6.00 Build 0)  -->
<svg version="1.1" id="Layer_1" xmlns="http://www.w3.org/2000/svg" xmlns:xlink="http://www.w3.org/1999/xlink" x="0px" y="0px"
	 viewBox="0 0 24 24" style="enable-background:new 0 0 24 24;" xml:space="preserve">
<g>
	<path d="M16.2,22H7.8c-1.838,0-2.76,0-3.616-0.437c-0.757-0.385-1.362-0.989-1.748-1.747C2,18.96,2,18.037,2,16.2v-1.187
		c0-0.009,0-0.017,0-0.025V7.8c0-1.838,0-2.76,0.436-3.616c0.386-0.757,0.991-1.362,1.748-1.748C5.04,2,5.962,2,7.8,2h8.4
		c1.837,0,2.76,0,3.616,0.436c0.758,0.386,1.362,0.991,1.748,1.749C22,5.04,22,5.962,22,7.8v1.187c0,0.008,0,0.017,0,0.024V16.2
		c0,1.837,0,2.76-0.436,3.616c-0.386,0.758-0.99,1.362-1.749,1.748C18.96,22,18.037,22,16.2,22z M4,15.515V16.2
		c0,1.47,0,2.279,0.218,2.708c0.193,0.379,0.495,0.681,0.873,0.873C5.52,20,6.33,20,7.8,20h8.4c1.47,0,2.279,0,2.708-0.219
		c0.379-0.192,0.681-0.494,0.873-0.872C20,18.479,20,17.67,20,16.2v-5.257l-4.867,3.477c-0.259,0.185-0.474,0.337-0.79,0.398
		c-0.268,0.056-0.555,0.031-0.82-0.068c-0.303-0.116-0.491-0.304-0.709-0.522l-2.921-2.921L4,15.515z M7.8,4
		C6.33,4,5.52,4,5.092,4.218C4.713,4.411,4.411,4.713,4.218,5.092C4,5.52,4,6.33,4,7.8v5.257L8.868,9.58
		c0.25-0.179,0.467-0.334,0.783-0.397c0.279-0.055,0.564-0.032,0.83,0.069c0.298,0.113,0.487,0.302,0.706,0.521l2.922,2.922
		L20,8.485V7.8c0-1.47,0-2.28-0.218-2.708c-0.193-0.379-0.495-0.681-0.874-0.874C18.479,4,17.67,4,16.2,4H7.8z M14.378,12.96
		L14.378,12.96L14.378,12.96z M13.8,12.911L13.8,12.911L13.8,12.911z M9.623,11.041C9.623,11.041,9.623,11.041,9.623,11.041
		S9.623,11.041,9.623,11.041z"/>
</g>
</svg>
