<?xml version="1.0" encoding="iso-8859-1"?>
<!-- Generator: Adobe Illustrator 27.4.0, SVG Export Plug-In . SVG Version: 6.00 Build 0)  -->
<svg version="1.1" id="Layer_1" xmlns="http://www.w3.org/2000/svg" xmlns:xlink="http://www.w3.org/1999/xlink" x="0px" y="0px"
	 viewBox="0 0 24 24" style="enable-background:new 0 0 24 24;" xml:space="preserve">
<g>
	<path d="M12,23C5.935,23,1,18.065,1,12S5.935,1,12,1s11,4.935,11,11S18.065,23,12,23z M12,3c-4.962,0-9,4.038-9,9
		c0,4.963,4.038,9,9,9c4.963,0,9-4.037,9-9C21,7.038,16.963,3,12,3z M18,15c-0.256,0-0.512-0.098-0.707-0.293L14,11.415
		l-2.727,2.727c-0.256,0.255-0.47,0.468-0.81,0.578c-0.305,0.098-0.624,0.097-0.924,0.001c-0.342-0.111-0.556-0.324-0.803-0.57
		l-3.443-3.443c-0.391-0.391-0.391-1.024,0-1.414c0.391-0.391,1.023-0.391,1.414,0L10,12.586l2.728-2.728
		c0.248-0.25,0.464-0.466,0.81-0.579c0.303-0.099,0.622-0.099,0.927,0c0.345,0.112,0.561,0.329,0.811,0.58l3.433,3.433
		c0.391,0.391,0.391,1.023,0,1.414C18.512,14.902,18.256,15,18,15z"/>
</g>
</svg>
