<?xml version="1.0" encoding="iso-8859-1"?>
<!-- Generator: Adobe Illustrator 27.4.0, SVG Export Plug-In . SVG Version: 6.00 Build 0)  -->
<svg version="1.1" id="Layer_1" xmlns="http://www.w3.org/2000/svg" xmlns:xlink="http://www.w3.org/1999/xlink" x="0px" y="0px"
	 viewBox="0 0 24 24" style="enable-background:new 0 0 24 24;" xml:space="preserve">
<g>
	<path d="M16.2,22H7.8c-1.838,0-2.76,0-3.616-0.437c-0.757-0.385-1.362-0.989-1.748-1.747c-0.361-0.71-0.423-1.466-0.434-2.75
		C2,17.026,2,16.987,2.001,16.948C2,16.717,2,16.468,2,16.2V7.8c0-1.838,0-2.76,0.436-3.616c0.386-0.757,0.991-1.362,1.748-1.748
		C5.04,2,5.962,2,7.8,2h8.4c1.837,0,2.76,0,3.616,0.436c0.758,0.386,1.362,0.991,1.748,1.749C22,5.04,22,5.962,22,7.8v8.4
		c0,1.837,0,2.76-0.436,3.616c-0.386,0.758-0.99,1.362-1.749,1.748C18.96,22,18.037,22,16.2,22z M4.007,17.407
		c0.015,0.737,0.062,1.208,0.211,1.501c0.193,0.379,0.495,0.681,0.873,0.873C5.52,20,6.33,20,7.8,20h8.4c1.47,0,2.279,0,2.708-0.219
		c0.379-0.192,0.681-0.494,0.873-0.872C20,18.479,20,17.67,20,16.2V7.8c0-1.47,0-2.28-0.218-2.708
		c-0.193-0.379-0.495-0.681-0.874-0.874C18.479,4,17.67,4,16.2,4H7.8C6.33,4,5.52,4,5.092,4.218
		C4.713,4.411,4.411,4.713,4.218,5.092C4,5.52,4,6.33,4,7.8v6.786l2.727-2.727c0.261-0.261,0.467-0.467,0.81-0.579
		c0.298-0.097,0.629-0.098,0.928,0c0.341,0.111,0.547,0.317,0.808,0.578L11,13.586L14.586,10H13c-0.552,0-1-0.448-1-1s0.448-1,1-1
		h3.997c0.007,0,0.017,0,0.024,0c0.001,0,0.002,0,0.002,0h0.001c0.123,0.003,0.24,0.028,0.349,0.071
		c0.121,0.049,0.235,0.123,0.334,0.221c0.098,0.097,0.17,0.209,0.219,0.329C17.971,8.731,17.997,8.851,18,8.976l0,0
		c0,0,0,0.001,0,0.002c0,0.008,0,0.017,0,0.024V13c0,0.553-0.447,1-1,1s-1-0.447-1-1v-1.585l-3.727,3.727
		c-0.256,0.255-0.47,0.468-0.81,0.578c-0.305,0.098-0.624,0.097-0.924,0.001c-0.342-0.111-0.556-0.324-0.803-0.57L8,13.414
		L4.007,17.407z"/>
</g>
</svg>
