<?xml version="1.0" encoding="iso-8859-1"?>
<!-- Generator: Adobe Illustrator 27.4.0, SVG Export Plug-In . SVG Version: 6.00 Build 0)  -->
<svg version="1.1" id="Layer_1" xmlns="http://www.w3.org/2000/svg" xmlns:xlink="http://www.w3.org/1999/xlink" x="0px" y="0px"
	 viewBox="0 0 24 24" style="enable-background:new 0 0 24 24;" xml:space="preserve">
<g>
	<path d="M21,22H4.6c-0.651,0-1.081,0-1.51-0.219c-0.377-0.192-0.679-0.494-0.872-0.873C2,20.48,2,20.051,2,19.4V3
		c0-0.552,0.448-1,1-1s1,0.448,1,1v16.4c0,0.278,0,0.566,0.02,0.648C4.034,20,4.322,20,4.6,20H21c0.553,0,1,0.447,1,1
		S21.553,22,21,22z M7,16c-0.256,0-0.512-0.098-0.707-0.293c-0.391-0.391-0.391-1.023,0-1.414l4.434-4.434
		c0.261-0.261,0.467-0.467,0.81-0.579c0.298-0.097,0.629-0.098,0.928,0c0.341,0.111,0.547,0.317,0.809,0.578L15,11.585L18.586,8H17
		c-0.553,0-1-0.448-1-1s0.447-1,1-1h3.997c0.007,0,0.017,0,0.024,0c0.001,0,0.002,0,0.002,0h0.001
		c0.122,0.003,0.24,0.028,0.348,0.071c0.122,0.049,0.236,0.123,0.335,0.221c0.098,0.097,0.17,0.209,0.219,0.329
		c0.045,0.11,0.071,0.229,0.074,0.354l0,0c0,0.001,0,0.001,0,0.002c0,0.008,0,0.016,0,0.024V11c0,0.552-0.447,1-1,1s-1-0.448-1-1
		V9.414l-3.728,3.728c-0.248,0.249-0.464,0.466-0.81,0.578c-0.303,0.098-0.622,0.098-0.927,0c-0.345-0.112-0.561-0.329-0.811-0.58
		L12,11.414l-4.293,4.293C7.512,15.902,7.256,16,7,16z"/>
</g>
</svg>
