<?xml version="1.0" encoding="iso-8859-1"?>
<!-- Generator: Adobe Illustrator 27.4.0, SVG Export Plug-In . SVG Version: 6.00 Build 0)  -->
<svg version="1.1" id="Layer_1" xmlns="http://www.w3.org/2000/svg" xmlns:xlink="http://www.w3.org/1999/xlink" x="0px" y="0px"
	 viewBox="0 0 24 24" style="enable-background:new 0 0 24 24;" xml:space="preserve">
<g>
	<path d="M21,22H4.6c-0.651,0-1.081,0-1.51-0.219c-0.377-0.192-0.679-0.494-0.872-0.873C2,20.48,2,20.051,2,19.4V3
		c0-0.552,0.448-1,1-1s1,0.448,1,1v16.4c0,0.278,0,0.566,0.02,0.648C4.034,20,4.322,20,4.6,20H21c0.553,0,1,0.447,1,1
		S21.553,22,21,22z M20,16c-0.267,0-0.533-0.106-0.729-0.316l-3.815-4.072l-3.123,1.622c-0.247,0.128-0.46,0.239-0.754,0.267
		c-0.263,0.027-0.525-0.02-0.763-0.129c-0.27-0.124-0.436-0.301-0.627-0.505L6.271,8.684C5.893,8.281,5.913,7.648,6.316,7.271
		c0.403-0.378,1.036-0.358,1.413,0.046l3.815,4.072l3.123-1.622c0.247-0.128,0.46-0.239,0.753-0.267
		c0.262-0.024,0.526,0.021,0.763,0.129c0.271,0.124,0.436,0.3,0.628,0.505l3.918,4.182c0.378,0.403,0.357,1.036-0.046,1.413
		C20.491,15.91,20.245,16,20,16z M11.777,11.633C11.777,11.633,11.777,11.633,11.777,11.633
		C11.777,11.633,11.777,11.633,11.777,11.633z M15.755,11.458L15.755,11.458L15.755,11.458z M15.224,11.367L15.224,11.367
		L15.224,11.367z"/>
</g>
</svg>
