<?xml version="1.0" encoding="iso-8859-1"?>
<!-- Generator: Adobe Illustrator 27.4.0, SVG Export Plug-In . SVG Version: 6.00 Build 0)  -->
<svg version="1.1" id="Layer_1" xmlns="http://www.w3.org/2000/svg" xmlns:xlink="http://www.w3.org/1999/xlink" x="0px" y="0px"
	 viewBox="0 0 24 24" style="enable-background:new 0 0 24 24;" xml:space="preserve">
<g>
	<path d="M21,22H4.6c-0.651,0-1.081,0-1.51-0.219c-0.377-0.192-0.679-0.494-0.872-0.873C2,20.48,2,20.051,2,19.4V3
		c0-0.552,0.448-1,1-1s1,0.448,1,1v16.4c0,0.278,0,0.566,0.02,0.648C4.034,20,4.322,20,4.6,20H21c0.553,0,1,0.447,1,1
		S21.553,22,21,22z M21,16c-0.001,0-0.002,0-0.003,0H17c-0.553,0-1-0.447-1-1s0.447-1,1-1h1.586L15,10.415l-1.728,1.727
		c-0.261,0.261-0.467,0.467-0.809,0.579c-0.299,0.096-0.629,0.097-0.928,0c-0.341-0.111-0.547-0.317-0.808-0.578L6.293,7.707
		c-0.391-0.391-0.391-1.023,0-1.414s1.023-0.391,1.414,0L12,10.586l1.728-1.727c0.248-0.25,0.464-0.466,0.81-0.579
		c0.303-0.099,0.622-0.099,0.927,0c0.345,0.112,0.561,0.329,0.811,0.58L20,12.586V11c0-0.552,0.447-1,1-1s1,0.448,1,1v3.997
		c0,0.009,0,0.017,0,0.024c0,0.001,0,0.002,0,0.002v0.001c-0.003,0.125-0.029,0.244-0.074,0.354
		c-0.049,0.12-0.121,0.232-0.219,0.329c-0.096,0.096-0.207,0.169-0.325,0.218l0,0l0,0c-0.111,0.046-0.232,0.072-0.36,0.075
		C21.015,16,21.007,16,21,16z"/>
</g>
</svg>
