<?xml version="1.0" encoding="iso-8859-1"?>
<!-- Generator: Adobe Illustrator 27.4.0, SVG Export Plug-In . SVG Version: 6.00 Build 0)  -->
<svg version="1.1" id="Layer_1" xmlns="http://www.w3.org/2000/svg" xmlns:xlink="http://www.w3.org/1999/xlink" x="0px" y="0px"
	 viewBox="0 0 24 24" style="enable-background:new 0 0 24 24;" xml:space="preserve">
<g>
	<path d="M16.2,22H7.8c-1.838,0-2.76,0-3.616-0.437c-0.757-0.385-1.362-0.989-1.748-1.747C2,18.96,2,18.037,2,16.2V7.8
		c0-0.268,0-0.516,0.001-0.748C2,7.013,2,6.973,2.002,6.934c0.011-1.285,0.073-2.041,0.434-2.75
		c0.386-0.757,0.991-1.362,1.748-1.748C5.04,2,5.962,2,7.8,2h8.4c1.837,0,2.76,0,3.616,0.436c0.758,0.386,1.362,0.991,1.748,1.749
		C22,5.04,22,5.962,22,7.8v8.4c0,1.837,0,2.76-0.436,3.616c-0.386,0.758-0.99,1.362-1.749,1.748C18.96,22,18.037,22,16.2,22z
		 M4,9.414V16.2c0,1.47,0,2.279,0.218,2.708c0.193,0.379,0.495,0.681,0.873,0.873C5.52,20,6.33,20,7.8,20h8.4
		c1.47,0,2.279,0,2.708-0.219c0.379-0.192,0.681-0.494,0.873-0.872C20,18.479,20,17.67,20,16.2V7.8c0-1.47,0-2.28-0.218-2.708
		c-0.193-0.379-0.495-0.681-0.874-0.874C18.479,4,17.67,4,16.2,4H7.8C6.33,4,5.52,4,5.092,4.218
		C4.713,4.411,4.411,4.713,4.218,5.092c-0.149,0.292-0.196,0.763-0.211,1.5L8,10.586l1.727-1.727
		c0.261-0.261,0.467-0.467,0.81-0.579c0.297-0.098,0.628-0.097,0.928,0c0.341,0.111,0.547,0.317,0.808,0.578L16,12.586V11
		c0-0.552,0.447-1,1-1s1,0.448,1,1v4c0,0.001,0,0.002,0,0.003l0,0c0,0.134-0.027,0.262-0.075,0.378
		c-0.049,0.119-0.121,0.229-0.218,0.326s-0.207,0.169-0.326,0.218C17.265,15.973,17.137,16,17.003,16l0,0c-0.001,0-0.002,0-0.003,0
		h-4c-0.552,0-1-0.447-1-1s0.448-1,1-1h1.586L11,10.414l-1.727,1.727c-0.261,0.261-0.467,0.467-0.81,0.579
		c-0.298,0.096-0.629,0.097-0.928,0c-0.341-0.111-0.547-0.317-0.808-0.578L4,9.414z"/>
</g>
</svg>
