<?xml version="1.0" encoding="iso-8859-1"?>
<!-- Generator: Adobe Illustrator 27.4.0, SVG Export Plug-In . SVG Version: 6.00 Build 0)  -->
<svg version="1.1" id="Layer_1" xmlns="http://www.w3.org/2000/svg" xmlns:xlink="http://www.w3.org/1999/xlink" x="0px" y="0px"
	 viewBox="0 0 24 24" style="enable-background:new 0 0 24 24;" xml:space="preserve">
<g>
	<path d="M21,22H4.6c-0.651,0-1.081,0-1.51-0.219c-0.377-0.192-0.679-0.494-0.872-0.873C2,20.48,2,20.051,2,19.4V3
		c0-0.552,0.448-1,1-1s1,0.448,1,1v16.4c0,0.278,0,0.566,0.02,0.648C4.034,20,4.322,20,4.6,20H21c0.553,0,1,0.447,1,1
		S21.553,22,21,22z M7,16c-0.245,0-0.491-0.09-0.684-0.271c-0.403-0.377-0.424-1.01-0.046-1.413l3.919-4.183
		c0.19-0.204,0.356-0.381,0.625-0.504c0.238-0.109,0.5-0.154,0.76-0.131c0.298,0.028,0.512,0.14,0.759,0.268l3.123,1.621
		l3.815-4.072c0.376-0.405,1.012-0.425,1.413-0.046c0.403,0.377,0.424,1.01,0.046,1.413l-3.919,4.183
		c-0.191,0.204-0.356,0.382-0.627,0.505c-0.237,0.108-0.499,0.15-0.758,0.13c-0.298-0.028-0.511-0.14-0.759-0.269l-3.122-1.621
		l-3.815,4.072C7.533,15.894,7.267,16,7,16z M11.245,11.458L11.245,11.458L11.245,11.458z M11.777,11.367L11.777,11.367
		C11.777,11.367,11.777,11.367,11.777,11.367z"/>
</g>
</svg>
