<?xml version="1.0" encoding="iso-8859-1"?>
<!-- Generator: Adobe Illustrator 27.4.0, SVG Export Plug-In . SVG Version: 6.00 Build 0)  -->
<svg version="1.1" id="Layer_1" xmlns="http://www.w3.org/2000/svg" xmlns:xlink="http://www.w3.org/1999/xlink" x="0px" y="0px"
	 viewBox="0 0 24 24" style="enable-background:new 0 0 24 24;" xml:space="preserve">
<g>
	<path d="M7.055,22.934c-0.017,0-0.033,0-0.05,0c-1.584-0.015-3.073-0.639-4.191-1.758c-1.119-1.119-1.743-2.607-1.757-4.19
		c-0.014-1.582,0.584-3.081,1.684-4.22l3.012-3.013c0.613-0.613,1.335-1.078,2.146-1.38C8.71,8.07,9.559,7.947,10.425,8.01
		c0.865,0.062,1.688,0.304,2.448,0.719c0.76,0.416,1.408,0.978,1.928,1.671c0.331,0.442,0.24,1.069-0.201,1.4
		c-0.445,0.332-1.07,0.24-1.4-0.202c-0.346-0.463-0.779-0.838-1.285-1.115c-0.506-0.276-1.056-0.438-1.632-0.479
		c-0.576-0.042-1.143,0.04-1.684,0.242c-0.54,0.202-1.021,0.511-1.431,0.92l-3,3c-0.721,0.747-1.12,1.746-1.11,2.801
		c0.009,1.056,0.425,2.048,1.171,2.794c0.746,0.746,1.738,1.162,2.794,1.172c1.083-0.001,2.054-0.39,2.813-1.123l1.698-1.697
		c0.391-0.391,1.023-0.391,1.414,0s0.391,1.023,0,1.414l-1.71,1.71C10.098,22.337,8.619,22.934,7.055,22.934z M14.012,16.006
		c-0.146,0-0.291-0.006-0.438-0.017c-0.849-0.06-1.696-0.309-2.447-0.719c-0.761-0.417-1.41-0.979-1.928-1.672
		c-0.331-0.442-0.24-1.069,0.202-1.399c0.443-0.331,1.07-0.239,1.399,0.202c0.34,0.455,0.785,0.84,1.285,1.113
		c0.501,0.273,1.065,0.439,1.632,0.48c0.572,0.041,1.141-0.04,1.684-0.242c0.533-0.199,1.028-0.517,1.432-0.92l3-3
		c0.722-0.747,1.12-1.746,1.11-2.801s-0.426-2.048-1.172-2.793c-0.746-0.747-1.738-1.163-2.793-1.172
		c-1.049-0.001-2.056,0.39-2.814,1.123l-1.709,1.7c-0.392,0.388-1.025,0.388-1.414-0.004c-0.39-0.392-0.388-1.024,0.004-1.414
		l1.72-1.71c1.149-1.11,2.633-1.724,4.231-1.694c1.583,0.014,3.07,0.638,4.189,1.757c1.119,1.119,1.743,2.607,1.758,4.19
		c0.014,1.583-0.584,3.082-1.685,4.221l-3.012,3.012c-0.604,0.604-1.348,1.082-2.147,1.38
		C15.426,15.879,14.725,16.006,14.012,16.006z"/>
</g>
</svg>
