<?xml version="1.0" encoding="iso-8859-1"?>
<!-- Generator: Adobe Illustrator 27.4.0, SVG Export Plug-In . SVG Version: 6.00 Build 0)  -->
<svg version="1.1" id="Layer_1" xmlns="http://www.w3.org/2000/svg" xmlns:xlink="http://www.w3.org/1999/xlink" x="0px" y="0px"
	 viewBox="0 0 24 24" style="enable-background:new 0 0 24 24;" xml:space="preserve">
<g>
	<path d="M17,18h-1.223C14.797,18,14,17.203,14,16.223V13H8c-0.552,0-1-0.448-1-1s0.448-1,1-1h6V7.778C14,6.797,14.797,6,15.777,6
		H17c3.309,0,6,2.691,6,6S20.309,18,17,18z M16,16h1c2.206,0,4-1.794,4-4c0-2.206-1.794-4-4-4h-1v3h2c0.553,0,1,0.448,1,1
		s-0.447,1-1,1h-2V16z M9,18H7c-3.309,0-6-2.691-6-6s2.691-6,6-6h2c0.552,0,1,0.448,1,1S9.552,8,9,8H7c-2.206,0-4,1.794-4,4
		c0,2.206,1.794,4,4,4h2c0.552,0,1,0.447,1,1S9.552,18,9,18z"/>
</g>
</svg>
