<?xml version="1.0" encoding="iso-8859-1"?>
<!-- Generator: Adobe Illustrator 27.4.0, SVG Export Plug-In . SVG Version: 6.00 Build 0)  -->
<svg version="1.1" id="Layer_1" xmlns="http://www.w3.org/2000/svg" xmlns:xlink="http://www.w3.org/1999/xlink" x="0px" y="0px"
	 viewBox="0 0 24 24" style="enable-background:new 0 0 24 24;" xml:space="preserve">
<g>
	<path d="M15,23c-0.553,0-1-0.447-1-1v-2c0-0.553,0.447-1,1-1s1,0.447,1,1v2C16,22.553,15.553,23,15,23z M7.05,21.947
		c-1.28,0-2.561-0.487-3.536-1.462c-1.949-1.949-1.949-5.122,0-7.071l2.122-2.121c0.391-0.391,1.023-0.391,1.414,0
		s0.391,1.024,0,1.414l-2.122,2.121c-1.169,1.17-1.169,3.073,0,4.243c1.17,1.168,3.073,1.168,4.243,0l2.121-2.121
		c0.391-0.391,1.023-0.391,1.414,0s0.391,1.023,0,1.414l-2.121,2.121C9.611,21.46,8.331,21.947,7.05,21.947z M20.5,21.5
		c-0.256,0-0.512-0.098-0.707-0.293l-1.414-1.414c-0.391-0.391-0.391-1.023,0-1.414s1.023-0.391,1.414,0l1.414,1.414
		c0.391,0.391,0.391,1.023,0,1.414C21.012,21.402,20.756,21.5,20.5,21.5z M8.5,16.5c-0.256,0-0.512-0.098-0.707-0.293
		c-0.391-0.391-0.391-1.023,0-1.414l7-7c0.391-0.391,1.023-0.391,1.414,0s0.391,1.023,0,1.414l-7,7
		C9.012,16.402,8.756,16.5,8.5,16.5z M22,16h-2c-0.553,0-1-0.447-1-1s0.447-1,1-1h2c0.553,0,1,0.447,1,1S22.553,16,22,16z
		 M17.657,13c-0.256,0-0.512-0.098-0.707-0.293c-0.391-0.39-0.391-1.023,0-1.414l2.121-2.122c1.169-1.17,1.169-3.073,0-4.243
		c-1.171-1.169-3.074-1.168-4.243,0L12.707,7.05c-0.391,0.391-1.023,0.391-1.414,0c-0.391-0.39-0.391-1.023,0-1.414l2.121-2.122
		c1.948-1.948,5.121-1.95,7.071,0c1.949,1.949,1.949,5.122,0,7.071l-2.121,2.122C18.169,12.902,17.913,13,17.657,13z M4,10H2
		c-0.552,0-1-0.448-1-1s0.448-1,1-1h2c0.552,0,1,0.448,1,1S4.552,10,4,10z M4.914,5.914c-0.256,0-0.512-0.098-0.707-0.293
		L2.793,4.207c-0.391-0.391-0.391-1.023,0-1.414s1.023-0.391,1.414,0l1.414,1.414c0.391,0.391,0.391,1.023,0,1.414
		C5.426,5.816,5.17,5.914,4.914,5.914z M9,5C8.448,5,8,4.552,8,4V2c0-0.552,0.448-1,1-1s1,0.448,1,1v2C10,4.552,9.552,5,9,5z"/>
</g>
</svg>
