<?xml version="1.0" encoding="iso-8859-1"?>
<!-- Generator: Adobe Illustrator 27.4.0, SVG Export Plug-In . SVG Version: 6.00 Build 0)  -->
<svg version="1.1" id="Layer_1" xmlns="http://www.w3.org/2000/svg" xmlns:xlink="http://www.w3.org/1999/xlink" x="0px" y="0px"
	 viewBox="0 0 24 24" style="enable-background:new 0 0 24 24;" xml:space="preserve">
<g>
	<path d="M16.2,22H7.8c-1.838,0-2.76,0-3.616-0.437c-0.757-0.385-1.362-0.989-1.748-1.747C2,18.96,2,18.037,2,16.2V7.8
		c0-1.838,0-2.76,0.436-3.616c0.386-0.757,0.991-1.362,1.748-1.748C5.04,2,5.962,2,7.8,2H10c0.552,0,1,0.448,1,1s-0.448,1-1,1H7.8
		C6.33,4,5.52,4,5.092,4.218C4.713,4.411,4.411,4.713,4.218,5.092C4,5.52,4,6.33,4,7.8v8.4c0,1.47,0,2.279,0.218,2.708
		c0.193,0.379,0.495,0.681,0.873,0.873C5.52,20,6.33,20,7.8,20h8.4c1.47,0,2.279,0,2.708-0.219c0.379-0.192,0.681-0.494,0.873-0.872
		C20,18.479,20,17.67,20,16.2V14c0-0.553,0.447-1,1-1s1,0.447,1,1v2.2c0,1.837,0,2.76-0.436,3.616
		c-0.386,0.758-0.99,1.362-1.749,1.748C18.96,22,18.037,22,16.2,22z M12,13c-0.256,0-0.512-0.098-0.707-0.293
		c-0.391-0.391-0.391-1.023,0-1.414L18.586,4H15c-0.553,0-1-0.448-1-1s0.447-1,1-1h6c0.001,0,0.002,0,0.003,0l0,0
		c0.134,0,0.262,0.027,0.378,0.075c0.119,0.049,0.229,0.122,0.326,0.218s0.169,0.208,0.218,0.326C21.973,2.735,22,2.863,22,2.997
		l0,0C22,2.998,22,2.999,22,3v6c0,0.552-0.447,1-1,1s-1-0.448-1-1V5.414l-7.293,7.293C12.512,12.902,12.256,13,12,13z"/>
</g>
</svg>
