<?xml version="1.0" encoding="iso-8859-1"?>
<!-- Generator: Adobe Illustrator 27.4.0, SVG Export Plug-In . SVG Version: 6.00 Build 0)  -->
<svg version="1.1" id="Layer_1" xmlns="http://www.w3.org/2000/svg" xmlns:xlink="http://www.w3.org/1999/xlink" x="0px" y="0px"
	 viewBox="0 0 24 24" style="enable-background:new 0 0 24 24;" xml:space="preserve">
<g>
	<path d="M7.758,22.239c-1.537,0-3.073-0.584-4.243-1.754c-2.339-2.34-2.339-6.146,0-8.485l1.415-1.414
		c0.391-0.391,1.023-0.391,1.414,0s0.391,1.024,0,1.414l-1.415,1.414c-1.559,1.56-1.559,4.098,0,5.657
		c1.56,1.559,4.098,1.559,5.657,0L12,17.657c0.391-0.391,1.024-0.391,1.415,0c0.39,0.391,0.39,1.023,0,1.414L12,20.485
		C10.831,21.655,9.294,22.239,7.758,22.239z M8.5,16.5c-0.256,0-0.512-0.098-0.707-0.293c-0.391-0.391-0.391-1.023,0-1.414l7-7
		c0.391-0.391,1.023-0.391,1.414,0s0.391,1.023,0,1.414l-7,7C9.012,16.402,8.756,16.5,8.5,16.5z M18.364,13.707
		c-0.256,0-0.512-0.098-0.707-0.293c-0.391-0.391-0.391-1.023,0-1.414l1.414-1.414c0.756-0.756,1.172-1.76,1.172-2.829
		s-0.416-2.073-1.172-2.829c-0.756-0.755-1.76-1.171-2.828-1.171s-2.073,0.416-2.828,1.171L12,6.343
		c-0.39,0.391-1.023,0.391-1.414,0c-0.391-0.39-0.391-1.023,0-1.414L12,3.515c1.133-1.133,2.64-1.757,4.243-1.757
		s3.109,0.624,4.242,1.757c1.134,1.133,1.758,2.64,1.758,4.243S21.619,10.867,20.485,12l-1.414,1.414
		C18.876,13.609,18.62,13.707,18.364,13.707z"/>
</g>
</svg>
