<?xml version="1.0" encoding="iso-8859-1"?>
<!-- Generator: Adobe Illustrator 27.4.0, SVG Export Plug-In . SVG Version: 6.00 Build 0)  -->
<svg version="1.1" id="Layer_1" xmlns="http://www.w3.org/2000/svg" xmlns:xlink="http://www.w3.org/1999/xlink" x="0px" y="0px"
	 viewBox="0 0 24 24" style="enable-background:new 0 0 24 24;" xml:space="preserve">
<g>
	<path d="M17,18h-0.5c-0.553,0-1-0.447-1-1s0.447-1,1-1H17c2.206,0,4-1.794,4-4c0-2.206-1.794-4-4-4h-2c-2.206,0-4,1.794-4,4
		c0,0.552-0.448,1-1,1s-1-0.448-1-1c0-3.309,2.691-6,6-6h2c3.309,0,6,2.691,6,6S20.309,18,17,18z M9,18H7c-3.309,0-6-2.691-6-6
		s2.691-6,6-6h0.5c0.552,0,1,0.448,1,1s-0.448,1-1,1H7c-2.206,0-4,1.794-4,4c0,2.206,1.794,4,4,4h2c2.206,0,4-1.794,4-4
		c0-0.552,0.447-1,1-1s1,0.448,1,1C15,15.309,12.309,18,9,18z"/>
</g>
</svg>
