<?xml version="1.0" encoding="iso-8859-1"?>
<!-- Generator: Adobe Illustrator 27.4.0, SVG Export Plug-In . SVG Version: 6.00 Build 0)  -->
<svg version="1.1" id="Layer_1" xmlns="http://www.w3.org/2000/svg" xmlns:xlink="http://www.w3.org/1999/xlink" x="0px" y="0px"
	 viewBox="0 0 24 24" style="enable-background:new 0 0 24 24;" xml:space="preserve">
<g>
	<path d="M12,23c-0.552,0-1-0.447-1-1v-4c0-0.553,0.448-1,1-1s1,0.447,1,1v4C13,22.553,12.552,23,12,23z M19.078,20.078
		c-0.256,0-0.512-0.098-0.707-0.293l-2.828-2.828c-0.391-0.391-0.391-1.023,0-1.414s1.023-0.391,1.414,0l2.828,2.828
		c0.391,0.391,0.391,1.023,0,1.414C19.59,19.98,19.334,20.078,19.078,20.078z M4.921,20.078c-0.256,0-0.512-0.098-0.707-0.293
		c-0.391-0.391-0.391-1.023,0-1.414l2.829-2.828c0.391-0.391,1.023-0.391,1.414,0s0.391,1.023,0,1.414l-2.829,2.828
		C5.433,19.98,5.177,20.078,4.921,20.078z M22,13h-4c-0.553,0-1-0.448-1-1s0.447-1,1-1h4c0.553,0,1,0.448,1,1S22.553,13,22,13z
		 M6,13H2c-0.552,0-1-0.448-1-1s0.448-1,1-1h4c0.552,0,1,0.448,1,1S6.552,13,6,13z M16.25,8.829c-0.256,0-0.512-0.098-0.707-0.293
		c-0.391-0.39-0.391-1.023,0-1.414l2.828-2.829c0.391-0.391,1.023-0.391,1.414,0c0.391,0.39,0.391,1.023,0,1.414l-2.828,2.829
		C16.762,8.731,16.506,8.829,16.25,8.829z M7.75,8.829c-0.256,0-0.512-0.098-0.707-0.293L4.214,5.707
		c-0.391-0.391-0.391-1.023,0-1.414s1.023-0.391,1.414,0l2.829,2.829c0.391,0.391,0.391,1.023,0,1.414
		C8.262,8.731,8.006,8.829,7.75,8.829z M12,7c-0.552,0-1-0.448-1-1V2c0-0.552,0.448-1,1-1s1,0.448,1,1v4C13,6.552,12.552,7,12,7z"/>
</g>
</svg>
