<?xml version="1.0" encoding="iso-8859-1"?>
<!-- Generator: Adobe Illustrator 27.4.0, SVG Export Plug-In . SVG Version: 6.00 Build 0)  -->
<svg version="1.1" id="Layer_1" xmlns="http://www.w3.org/2000/svg" xmlns:xlink="http://www.w3.org/1999/xlink" x="0px" y="0px"
	 viewBox="0 0 24 24" style="enable-background:new 0 0 24 24;" xml:space="preserve">
<g>
	<path d="M12,23c-0.552,0-1-0.447-1-1v-4c0-0.553,0.448-1,1-1s1,0.447,1,1v4C13,22.553,12.552,23,12,23z M4.921,20.078
		c-0.256,0-0.512-0.098-0.707-0.293c-0.391-0.391-0.391-1.023,0-1.414l2.829-2.828c0.391-0.391,1.023-0.391,1.414,0
		s0.391,1.023,0,1.414l-2.829,2.828C5.433,19.98,5.177,20.078,4.921,20.078z M18.457,19.457c-0.256,0-0.512-0.098-0.707-0.293
		l-0.707-0.707c-0.391-0.391-0.391-1.023,0-1.414s1.023-0.391,1.414,0l0.707,0.707c0.391,0.391,0.391,1.023,0,1.414
		C18.969,19.359,18.713,19.457,18.457,19.457z M21.25,13h-1.5c-0.553,0-1-0.448-1-1s0.447-1,1-1h1.5c0.553,0,1,0.448,1,1
		S21.803,13,21.25,13z M5.75,13h-3.5c-0.552,0-1-0.448-1-1s0.448-1,1-1h3.5c0.552,0,1,0.448,1,1S6.302,13,5.75,13z M7.25,8.33
		c-0.256,0-0.512-0.098-0.707-0.293L4.422,5.916c-0.391-0.391-0.391-1.024,0-1.414c0.391-0.391,1.023-0.391,1.414,0l2.121,2.122
		c0.391,0.391,0.391,1.024,0,1.414C7.762,8.232,7.506,8.33,7.25,8.33z M17.25,7.83c-0.256,0-0.512-0.098-0.707-0.293
		c-0.391-0.391-0.391-1.023,0-1.414l1.414-1.414c0.391-0.391,1.023-0.391,1.414,0s0.391,1.023,0,1.414l-1.414,1.414
		C17.762,7.732,17.506,7.83,17.25,7.83z M12,5.75c-0.552,0-1-0.448-1-1v-2.5c0-0.552,0.448-1,1-1s1,0.448,1,1v2.5
		C13,5.302,12.552,5.75,12,5.75z"/>
</g>
</svg>
