<?xml version="1.0" encoding="iso-8859-1"?>
<!-- Generator: Adobe Illustrator 27.4.0, SVG Export Plug-In . SVG Version: 6.00 Build 0)  -->
<svg version="1.1" id="Layer_1" xmlns="http://www.w3.org/2000/svg" xmlns:xlink="http://www.w3.org/1999/xlink" x="0px" y="0px"
	 viewBox="0 0 24 24" style="enable-background:new 0 0 24 24;" xml:space="preserve">
<g>
	<path d="M12,22.994c-2.817,0-5.634-1.072-7.778-3.217C2.144,17.7,1,14.938,1,12c0-2.938,1.144-5.7,3.222-7.777
		C6.3,2.144,9.062,1,12,1c2.938,0,5.701,1.145,7.778,3.222l0,0l0,0c4.289,4.289,4.289,11.267,0,15.555
		C17.633,21.922,14.816,22.994,12,22.994z M4.245,16.574c0.382,0.645,0.847,1.245,1.391,1.789c1.47,1.47,3.325,2.324,5.244,2.562
		c-0.385-0.325-0.732-0.705-1.029-1.138c-0.007-0.01-0.014-0.02-0.02-0.029c-1.356-2.006-1.311-4.672,0.114-6.632l0.659-0.906
		l-0.908-0.66C8.422,10.635,6.693,10.6,5.384,11.47c-0.008,0.006-0.017,0.012-0.025,0.018c-1.631,1.104-2.137,3.306-1.152,5.012
		C4.22,16.524,4.233,16.549,4.245,16.574z M11.474,18.618c0.005,0.007,0.011,0.015,0.016,0.022c1.098,1.62,3.28,2.133,4.985,1.168
		c0.676-0.387,1.312-0.869,1.889-1.445c1.468-1.468,2.321-3.321,2.562-5.237c-0.331,0.391-0.719,0.743-1.161,1.042
		c-2.013,1.359-4.677,1.312-6.635-0.111l-0.907-0.659l-0.659,0.905C10.637,15.578,10.602,17.309,11.474,18.618z M13.398,11.78
		l0.906,0.66c1.282,0.931,3.023,0.962,4.336,0.074c1.635-1.107,2.141-3.308,1.154-5.012c-0.006-0.009-0.011-0.019-0.017-0.029
		c-0.382-0.656-0.854-1.274-1.415-1.836l0,0c-1.434-1.434-3.266-2.324-5.246-2.568c0.375,0.317,0.715,0.686,1.007,1.104
		c0.018,0.021,0.034,0.044,0.05,0.067c1.354,2.008,1.309,4.673-0.115,6.632L13.398,11.78z M7.422,4.247
		C6.779,4.629,6.179,5.094,5.636,5.636C4.202,7.07,3.311,8.903,3.068,10.885c0.326-0.387,0.707-0.736,1.141-1.033
		C4.219,9.844,4.23,9.836,4.24,9.829c2.008-1.356,4.672-1.31,6.632,0.114l0.908,0.661l0.661-0.909
		c0.918-1.263,0.96-2.977,0.11-4.283c-0.014-0.018-0.027-0.036-0.039-0.054c-1.106-1.632-3.307-2.14-5.011-1.152
		C7.475,4.221,7.449,4.235,7.422,4.247z"/>
</g>
</svg>
