<?xml version="1.0" encoding="iso-8859-1"?>
<!-- Generator: Adobe Illustrator 27.4.0, SVG Export Plug-In . SVG Version: 6.00 Build 0)  -->
<svg version="1.1" id="Layer_1" xmlns="http://www.w3.org/2000/svg" xmlns:xlink="http://www.w3.org/1999/xlink" x="0px" y="0px"
	 viewBox="0 0 24 24" style="enable-background:new 0 0 24 24;" xml:space="preserve">
<g>
	<path d="M12,23C5.935,23,1,18.065,1,12S5.935,1,12,1s11,4.935,11,11S18.065,23,12,23z M12,3c-4.962,0-9,4.038-9,9
		c0,4.963,4.038,9,9,9c4.963,0,9-4.037,9-9C21,7.038,16.963,3,12,3z"/>
</g>
<g>
	<path d="M13.89,18h-3.78c-0.477,0-0.853,0-1.221-0.234c-0.329-0.212-0.557-0.53-0.65-0.901c-0.106-0.424,0.013-0.781,0.164-1.233
		l0.894-2.683c-0.007-0.006-0.014-0.013-0.021-0.02C8.465,12.174,8,11.107,8,10c0-2.206,1.794-4,4-4c2.206,0,4,1.794,4,4
		c0,1.107-0.465,2.174-1.276,2.929c-0.007,0.007-0.014,0.013-0.021,0.02l0.895,2.683c0.152,0.458,0.271,0.813,0.162,1.238
		c-0.094,0.368-0.321,0.686-0.643,0.893C14.743,18,14.366,18,13.89,18z M13.807,16.603h0.01H13.807z M10.388,16h3.226l-0.831-2.489
		c0,0,0-0.002,0-0.003c-0.093-0.278-0.16-0.479-0.154-0.74c0.005-0.245,0.056-0.442,0.168-0.659
		c0.119-0.229,0.277-0.376,0.564-0.644C13.773,11.082,14,10.562,14,10c0-1.103-0.897-2-2-2c-1.103,0-2,0.897-2,2
		c0,0.562,0.227,1.082,0.638,1.465c0.288,0.268,0.446,0.415,0.566,0.646c0.112,0.216,0.163,0.413,0.168,0.658
		c0.005,0.258-0.063,0.466-0.151,0.73L10.388,16z M14.616,12.898l-0.886,0.294L14.616,12.898
		C14.616,12.899,14.616,12.899,14.616,12.898z"/>
</g>
</svg>
