<?xml version="1.0" encoding="iso-8859-1"?>
<!-- Generator: Adobe Illustrator 27.4.0, SVG Export Plug-In . SVG Version: 6.00 Build 0)  -->
<svg version="1.1" id="Layer_1" xmlns="http://www.w3.org/2000/svg" xmlns:xlink="http://www.w3.org/1999/xlink" x="0px" y="0px"
	 viewBox="0 0 24 24" style="enable-background:new 0 0 24 24;" xml:space="preserve">
<g>
	<path d="M12,23c-4.411,0-8-3.589-8-8c0-2.024,0.756-3.875,2-5.286V8c0-3.309,2.691-6,6-6s6,2.691,6,6v1.714
		c1.244,1.411,2,3.262,2,5.286C20,19.411,16.411,23,12,23z M12,9c-3.309,0-6,2.691-6,6s2.691,6,6,6s6-2.691,6-6S15.309,9,12,9z
		 M12,7c1.456,0,2.822,0.391,4,1.074V8c0-2.206-1.794-4-4-4C9.794,4,8,5.794,8,8v0.074C9.177,7.391,10.544,7,12,7z M12,17
		c-0.552,0-1-0.447-1-1v-2c0-0.553,0.448-1,1-1s1,0.447,1,1v2C13,16.553,12.552,17,12,17z"/>
</g>
</svg>
