<?xml version="1.0" encoding="iso-8859-1"?>
<!-- Generator: Adobe Illustrator 27.4.0, SVG Export Plug-In . SVG Version: 6.00 Build 0)  -->
<svg version="1.1" id="Layer_1" xmlns="http://www.w3.org/2000/svg" xmlns:xlink="http://www.w3.org/1999/xlink" x="0px" y="0px"
	 viewBox="0 0 24 24" style="enable-background:new 0 0 24 24;" xml:space="preserve">
<g>
	<path d="M16.2,22H7.8c-1.838,0-2.76,0-3.616-0.437c-0.757-0.385-1.362-0.989-1.748-1.747C2,18.96,2,18.037,2,16.2V7.8
		c0-1.838,0-2.76,0.436-3.616c0.386-0.757,0.991-1.362,1.748-1.748C5.04,2,5.962,2,7.8,2h8.4c1.837,0,2.76,0,3.616,0.436
		c0.758,0.386,1.362,0.991,1.748,1.749C22,5.04,22,5.962,22,7.8v8.4c0,1.837,0,2.76-0.436,3.616
		c-0.386,0.758-0.99,1.362-1.749,1.748C18.96,22,18.037,22,16.2,22z M7.8,4C6.33,4,5.52,4,5.092,4.218
		C4.713,4.411,4.411,4.713,4.218,5.092C4,5.52,4,6.33,4,7.8v8.4c0,1.47,0,2.279,0.218,2.708c0.193,0.379,0.495,0.681,0.873,0.873
		C5.52,20,6.33,20,7.8,20h8.4c1.47,0,2.279,0,2.708-0.219c0.379-0.192,0.681-0.494,0.873-0.872C20,18.479,20,17.67,20,16.2V7.8
		c0-1.47,0-2.28-0.218-2.708c-0.193-0.379-0.495-0.681-0.874-0.874C18.479,4,17.67,4,16.2,4H7.8z"/>
</g>
<g>
	<path d="M13.89,18h-3.78c-0.477,0-0.853,0-1.221-0.234c-0.329-0.212-0.557-0.53-0.65-0.901c-0.106-0.424,0.013-0.781,0.164-1.233
		l0.894-2.683c-0.007-0.006-0.014-0.013-0.021-0.02C8.465,12.174,8,11.107,8,10c0-2.206,1.794-4,4-4c2.206,0,4,1.794,4,4
		c0,1.107-0.465,2.174-1.276,2.929c-0.007,0.007-0.014,0.013-0.021,0.02l0.895,2.683c0.152,0.458,0.271,0.813,0.162,1.238
		c-0.094,0.368-0.321,0.686-0.643,0.893C14.743,18,14.366,18,13.89,18z M13.807,16.603h0.01H13.807z M10.388,16h3.226l-0.831-2.489
		c0,0,0-0.002,0-0.003c-0.093-0.278-0.16-0.479-0.154-0.74c0.005-0.245,0.056-0.442,0.168-0.659
		c0.119-0.229,0.277-0.376,0.564-0.644C13.773,11.082,14,10.562,14,10c0-1.103-0.897-2-2-2c-1.103,0-2,0.897-2,2
		c0,0.562,0.227,1.082,0.638,1.465c0.288,0.268,0.446,0.415,0.566,0.646c0.112,0.216,0.163,0.413,0.168,0.658
		c0.005,0.258-0.063,0.466-0.151,0.73L10.388,16z M14.616,12.898l-0.886,0.294L14.616,12.898
		C14.616,12.899,14.616,12.899,14.616,12.898z"/>
</g>
</svg>
