<?xml version="1.0" encoding="iso-8859-1"?>
<!-- Generator: Adobe Illustrator 27.4.0, SVG Export Plug-In . SVG Version: 6.00 Build 0)  -->
<svg version="1.1" id="Layer_1" xmlns="http://www.w3.org/2000/svg" xmlns:xlink="http://www.w3.org/1999/xlink" x="0px" y="0px"
	 viewBox="0 0 24 24" style="enable-background:new 0 0 24 24;" xml:space="preserve">
<g>
	<path d="M16.2,22H7.8c-1.838,0-2.76,0-3.616-0.437c-0.757-0.385-1.362-0.989-1.748-1.747C2,18.96,2,18.037,2,16.2v-0.4
		c0-1.837,0-2.76,0.436-3.616c0.386-0.757,0.991-1.362,1.748-1.748C4.702,10.172,5.245,10.068,6,10.027V8c0-3.309,2.691-6,6-6
		s6,2.691,6,6v2.027c0.755,0.041,1.298,0.145,1.816,0.409c0.758,0.386,1.362,0.991,1.748,1.749C22,13.04,22,13.963,22,15.8v0.4
		c0,1.837,0,2.76-0.436,3.616c-0.386,0.758-0.99,1.362-1.749,1.748C18.96,22,18.037,22,16.2,22z M7.8,12c-1.47,0-2.28,0-2.708,0.218
		c-0.379,0.193-0.681,0.495-0.874,0.874C4,13.521,4,14.33,4,15.8v0.4c0,1.47,0,2.279,0.218,2.708
		c0.193,0.379,0.495,0.681,0.873,0.873C5.52,20,6.33,20,7.8,20h8.4c1.47,0,2.279,0,2.708-0.219c0.379-0.192,0.681-0.494,0.873-0.872
		C20,18.479,20,17.67,20,16.2v-0.4c0-1.47,0-2.279-0.218-2.708c-0.193-0.378-0.495-0.681-0.874-0.874C18.479,12,17.67,12,16.2,12
		H7.8z M8,10h8V8c0-2.206-1.794-4-4-4C9.794,4,8,5.794,8,8V10z"/>
</g>
</svg>
