<?xml version="1.0" encoding="iso-8859-1"?>
<!-- Generator: Adobe Illustrator 27.4.0, SVG Export Plug-In . SVG Version: 6.00 Build 0)  -->
<svg version="1.1" id="Layer_1" xmlns="http://www.w3.org/2000/svg" xmlns:xlink="http://www.w3.org/1999/xlink" x="0px" y="0px"
	 viewBox="0 0 24 24" style="enable-background:new 0 0 24 24;" xml:space="preserve">
<g>
	<path d="M15.2,22H8.8c-1.838,0-2.76,0-3.616-0.437c-0.757-0.385-1.362-0.989-1.748-1.747C3,18.96,3,18.037,3,16.2v-0.4
		c0-1.837,0-2.76,0.436-3.616c0.386-0.757,0.991-1.362,1.748-1.748C5.442,10.305,5.707,10.213,6,10.148V8c0-3.309,2.691-6,6-6
		s6,2.691,6,6v2.148c0.294,0.064,0.558,0.156,0.816,0.288c0.758,0.386,1.362,0.991,1.748,1.749C21,13.04,21,13.963,21,15.8v0.4
		c0,1.837,0,2.76-0.436,3.616c-0.386,0.758-0.99,1.362-1.749,1.748C17.96,22,17.037,22,15.2,22z M8.8,12c-1.47,0-2.28,0-2.708,0.218
		c-0.379,0.193-0.681,0.495-0.874,0.874C5,13.521,5,14.33,5,15.8v0.4c0,1.47,0,2.279,0.218,2.708
		c0.193,0.379,0.495,0.681,0.873,0.873C6.52,20,7.33,20,8.8,20h6.4c1.47,0,2.279,0,2.708-0.219c0.379-0.192,0.681-0.494,0.873-0.872
		C19,18.479,19,17.67,19,16.2v-0.4c0-1.47,0-2.279-0.218-2.708c-0.193-0.378-0.495-0.681-0.874-0.874C17.479,12,16.67,12,15.2,12
		H8.8z M8.8,10h6.4c0.288,0,0.554,0,0.8,0.001V8c0-2.206-1.794-4-4-4C9.794,4,8,5.794,8,8v2.001C8.246,10,8.512,10,8.8,10z"/>
</g>
</svg>
