<?xml version="1.0" encoding="iso-8859-1"?>
<!-- Generator: Adobe Illustrator 27.4.0, SVG Export Plug-In . SVG Version: 6.00 Build 0)  -->
<svg version="1.1" id="Layer_1" xmlns="http://www.w3.org/2000/svg" xmlns:xlink="http://www.w3.org/1999/xlink" x="0px" y="0px"
	 viewBox="0 0 24 24" style="enable-background:new 0 0 24 24;" xml:space="preserve">
<g>
	<path d="M15.2,22H8.8c-1.838,0-2.76,0-3.616-0.437c-0.757-0.385-1.362-0.989-1.748-1.747C3,18.96,3,18.037,3,16.2v-1.4
		c0-1.838,0-2.76,0.436-3.616c0.386-0.757,0.991-1.362,1.748-1.748C5.442,9.305,5.707,9.213,6,9.148V8c0-3.309,2.691-6,6-6
		c2.386,0,4.545,1.413,5.5,3.6c0.222,0.506-0.01,1.096-0.516,1.317c-0.51,0.222-1.096-0.011-1.316-0.516C15.03,4.942,13.591,4,12,4
		C9.794,4,8,5.794,8,8v1.001C8.246,9,8.512,9,8.8,9h6.4c1.837,0,2.76,0,3.616,0.436c0.758,0.386,1.362,0.991,1.748,1.749
		C21,12.04,21,12.962,21,14.8v1.4c0,1.837,0,2.76-0.436,3.616c-0.386,0.758-0.99,1.362-1.749,1.748C17.96,22,17.037,22,15.2,22z
		 M8.8,11c-1.47,0-2.28,0-2.708,0.218c-0.379,0.193-0.681,0.495-0.874,0.874C5,12.52,5,13.33,5,14.8v1.4c0,1.47,0,2.279,0.218,2.708
		c0.193,0.379,0.495,0.681,0.873,0.873C6.52,20,7.33,20,8.8,20h6.4c1.47,0,2.279,0,2.708-0.219c0.379-0.192,0.681-0.494,0.873-0.872
		C19,18.479,19,17.67,19,16.2v-1.4c0-1.47,0-2.28-0.218-2.708c-0.193-0.379-0.495-0.681-0.874-0.874C17.479,11,16.67,11,15.2,11H8.8
		z M12,17.5c-0.552,0-1-0.447-1-1v-2c0-0.553,0.448-1,1-1s1,0.447,1,1v2C13,17.053,12.552,17.5,12,17.5z"/>
</g>
</svg>
