<?xml version="1.0" encoding="iso-8859-1"?>
<!-- Generator: Adobe Illustrator 27.4.0, SVG Export Plug-In . SVG Version: 6.00 Build 0)  -->
<svg version="1.1" id="Layer_1" xmlns="http://www.w3.org/2000/svg" xmlns:xlink="http://www.w3.org/1999/xlink" x="0px" y="0px"
	 viewBox="0 0 24 24" style="enable-background:new 0 0 24 24;" xml:space="preserve">
<g>
	<path d="M10.667,22C5.336,22,1,17.514,1,12C1,6.486,5.336,2,10.667,2c1.705,0,3.381,0.466,4.848,1.347
		c0.474,0.285,0.627,0.899,0.343,1.373c-0.283,0.473-0.898,0.627-1.372,0.342C13.329,4.367,12.009,4,10.667,4C6.439,4,3,7.589,3,12
		s3.439,8,7.667,8c1.342,0,2.663-0.367,3.819-1.062c0.474-0.284,1.089-0.13,1.372,0.343c0.284,0.473,0.131,1.088-0.343,1.372
		C14.048,21.534,12.372,22,10.667,22z M18,17c-0.256,0-0.512-0.098-0.707-0.293c-0.391-0.391-0.391-1.023,0-1.414L19.586,13H9
		c-0.552,0-1-0.448-1-1s0.448-1,1-1h10.586l-2.293-2.293c-0.391-0.391-0.391-1.023,0-1.414s1.023-0.391,1.414,0l4,4
		c0.097,0.096,0.169,0.208,0.218,0.326C22.973,11.735,23,11.863,23,11.997l0,0c0,0.002,0,0.004,0,0.006l0,0
		c0,0.134-0.027,0.262-0.075,0.378c-0.049,0.119-0.121,0.23-0.218,0.326l-4,4C18.512,16.902,18.256,17,18,17z"/>
</g>
</svg>
