<?xml version="1.0" encoding="iso-8859-1"?>
<!-- Generator: Adobe Illustrator 27.4.0, SVG Export Plug-In . SVG Version: 6.00 Build 0)  -->
<svg version="1.1" id="Layer_1" xmlns="http://www.w3.org/2000/svg" xmlns:xlink="http://www.w3.org/1999/xlink" x="0px" y="0px"
	 viewBox="0 0 24 24" style="enable-background:new 0 0 24 24;" xml:space="preserve">
<g>
	<path d="M9,22H7.8c-1.838,0-2.76,0-3.616-0.437c-0.757-0.385-1.362-0.989-1.748-1.747C2,18.96,2,18.037,2,16.2V7.8
		c0-1.838,0-2.76,0.436-3.616c0.386-0.757,0.991-1.362,1.748-1.748C5.04,2,5.962,2,7.8,2H9c0.552,0,1,0.448,1,1S9.552,4,9,4H7.8
		C6.33,4,5.52,4,5.092,4.218C4.713,4.411,4.411,4.713,4.218,5.092C4,5.52,4,6.33,4,7.8v8.4c0,1.47,0,2.279,0.218,2.708
		c0.193,0.379,0.495,0.681,0.873,0.873C5.52,20,6.33,20,7.8,20H9c0.552,0,1,0.447,1,1S9.552,22,9,22z M16,18
		c-0.256,0-0.512-0.098-0.707-0.293c-0.391-0.391-0.391-1.023,0-1.414L18.586,13H9c-0.552,0-1-0.448-1-1s0.448-1,1-1h9.586
		l-3.293-3.293c-0.391-0.391-0.391-1.023,0-1.414s1.023-0.391,1.414,0l5,5c0.097,0.096,0.169,0.208,0.218,0.326
		C21.973,11.735,22,11.863,22,11.997l0,0c0,0.002,0,0.004,0,0.006l0,0c0,0.134-0.027,0.262-0.075,0.378
		c-0.049,0.119-0.121,0.23-0.218,0.326l-5,5C16.512,17.902,16.256,18,16,18z"/>
</g>
</svg>
