<?xml version="1.0" encoding="iso-8859-1"?>
<!-- Generator: Adobe Illustrator 27.4.0, SVG Export Plug-In . SVG Version: 6.00 Build 0)  -->
<svg version="1.1" id="Layer_1" xmlns="http://www.w3.org/2000/svg" xmlns:xlink="http://www.w3.org/1999/xlink" x="0px" y="0px"
	 viewBox="0 0 24 24" style="enable-background:new 0 0 24 24;" xml:space="preserve">
<g>
	<path d="M5.937,21.618c-0.436,0-0.798-0.046-1.156-0.161c-1.082-0.346-1.968-1.14-2.432-2.177C2,18.502,2,17.656,2,15.972V8.027
		c0-1.684,0-2.529,0.349-3.308c0.463-1.037,1.35-1.831,2.432-2.177c0.813-0.261,1.652-0.167,3.322,0.019l1.026,0.114
		C9.474,2.713,9.64,2.733,9.783,2.762c1.733,0.345,3.052,1.817,3.203,3.581C12.998,6.489,13,6.659,13,7c0,0.552-0.448,1-1,1
		s-1-0.448-1-1c0-0.251,0.002-0.376-0.007-0.485c-0.076-0.883-0.734-1.619-1.603-1.792C9.284,4.702,9.164,4.691,8.928,4.665
		L7.887,4.549c-1.35-0.15-2.09-0.231-2.497-0.103C4.849,4.62,4.406,5.017,4.174,5.535C4,5.925,4,6.672,4,8.027v7.944
		c0,1.356,0,2.103,0.174,2.492c0.232,0.519,0.675,0.916,1.216,1.089c0.406,0.13,1.148,0.048,2.496-0.103l1.022-0.113
		c0.249-0.027,0.373-0.039,0.479-0.061c0.871-0.173,1.53-0.908,1.605-1.79C11.002,17.376,11,17.25,11,17c0-0.553,0.448-1,1-1
		s1,0.447,1,1c0,0.34-0.002,0.511-0.015,0.659c-0.15,1.762-1.469,3.234-3.206,3.578c-0.143,0.029-0.312,0.051-0.651,0.088
		l-1.021,0.113C7.169,21.543,6.493,21.618,5.937,21.618z M16,18c-0.256,0-0.512-0.098-0.707-0.293c-0.391-0.391-0.391-1.023,0-1.414
		L18.586,13H9c-0.552,0-1-0.448-1-1s0.448-1,1-1h9.586l-3.293-3.293c-0.391-0.391-0.391-1.023,0-1.414s1.023-0.391,1.414,0l5,5
		c0.097,0.096,0.169,0.208,0.218,0.326C21.973,11.735,22,11.863,22,11.997l0,0c0,0.002,0,0.004,0,0.006l0,0
		c0,0.134-0.027,0.262-0.075,0.378c-0.049,0.119-0.121,0.23-0.218,0.326l-5,5C16.512,17.902,16.256,18,16,18z"/>
</g>
</svg>
