<?xml version="1.0" encoding="iso-8859-1"?>
<!-- Generator: Adobe Illustrator 27.4.0, SVG Export Plug-In . SVG Version: 6.00 Build 0)  -->
<svg version="1.1" id="Layer_1" xmlns="http://www.w3.org/2000/svg" xmlns:xlink="http://www.w3.org/1999/xlink" x="0px" y="0px"
	 viewBox="0 0 24 24" style="enable-background:new 0 0 24 24;" xml:space="preserve">
<g>
	<path d="M16.2,22H10c-1.017,0-1.527,0-2.036-0.137c-1.375-0.368-2.459-1.452-2.828-2.828C5,18.525,5,18.016,5,17
		c0-0.553,0.448-1,1-1s1,0.447,1,1c0,0.814,0,1.264,0.068,1.519c0.184,0.687,0.726,1.229,1.414,1.413C8.737,20,9.186,20,10,20h6.2
		c1.47,0,2.279,0,2.708-0.219c0.379-0.192,0.681-0.494,0.873-0.872C20,18.479,20,17.67,20,16.2V7.8c0-1.47,0-2.28-0.218-2.708
		c-0.193-0.379-0.495-0.681-0.874-0.874C18.479,4,17.67,4,16.2,4H10C9.185,4,8.736,4,8.482,4.068
		C7.794,4.252,7.252,4.794,7.068,5.482C7,5.736,7,6.185,7,7c0,0.552-0.448,1-1,1S5,7.552,5,7c0-1.017,0-1.526,0.136-2.035
		c0.369-1.376,1.453-2.46,2.829-2.829C8.474,2,8.983,2,10,2h6.2c1.837,0,2.76,0,3.616,0.436c0.758,0.386,1.362,0.991,1.748,1.749
		C22,5.04,22,5.962,22,7.8v8.4c0,1.837,0,2.76-0.436,3.616c-0.386,0.758-0.99,1.362-1.749,1.748C18.96,22,18.037,22,16.2,22z M12,17
		c-0.256,0-0.512-0.098-0.707-0.293c-0.391-0.391-0.391-1.023,0-1.414L13.586,13H3c-0.552,0-1-0.448-1-1s0.448-1,1-1h10.586
		l-2.293-2.293c-0.391-0.391-0.391-1.023,0-1.414s1.023-0.391,1.414,0l4,4c0.097,0.096,0.169,0.208,0.218,0.326
		C16.973,11.735,17,11.863,17,11.997l0,0c0,0.002,0,0.004,0,0.006l0,0c0,0.134-0.027,0.262-0.075,0.378
		c-0.049,0.119-0.121,0.23-0.218,0.326l-4,4C12.512,16.902,12.256,17,12,17z"/>
</g>
</svg>
