<?xml version="1.0" encoding="iso-8859-1"?>
<!-- Generator: Adobe Illustrator 27.4.0, SVG Export Plug-In . SVG Version: 6.00 Build 0)  -->
<svg version="1.1" id="Layer_1" xmlns="http://www.w3.org/2000/svg" xmlns:xlink="http://www.w3.org/1999/xlink" x="0px" y="0px"
	 viewBox="0 0 24 24" style="enable-background:new 0 0 24 24;" xml:space="preserve">
<g>
	<path d="M18.078,22.529c-0.675,0-1.5-0.11-2.643-0.263l-6.594-0.879c-0.401-0.053-0.603-0.083-0.775-0.125
		c-1.647-0.393-2.873-1.792-3.045-3.481C5.003,17.606,5,17.404,5,17c0-0.553,0.448-1,1-1s1,0.447,1,1
		c0,0.299-0.003,0.448,0.01,0.578c0.086,0.844,0.699,1.543,1.524,1.74c0.129,0.031,0.277,0.048,0.57,0.087l6.593,0.879
		c1.647,0.219,2.558,0.34,3.042,0.147c0.425-0.168,0.781-0.48,1.006-0.881C20,19.097,20,18.181,20,16.518V7.482
		c0-1.663,0-2.579-0.255-3.034c-0.224-0.398-0.581-0.711-1.006-0.879c-0.484-0.192-1.391-0.072-3.04,0.147L9.106,4.595
		C8.81,4.634,8.662,4.651,8.535,4.682C7.709,4.879,7.097,5.579,7.01,6.422C6.997,6.552,7,6.702,7,7c0,0.552-0.448,1-1,1S5,7.552,5,7
		c0-0.404,0.003-0.605,0.021-0.781C5.194,4.53,6.419,3.131,8.07,2.736c0.171-0.041,0.371-0.071,0.772-0.124l6.592-0.879
		c2.047-0.272,3.074-0.41,4.044-0.023c0.85,0.337,1.563,0.962,2.012,1.76C22,4.382,22,5.418,22,7.482v9.035
		c0,2.064,0,3.101-0.511,4.012c-0.448,0.8-1.163,1.425-2.012,1.762C19.049,22.461,18.61,22.529,18.078,22.529z M12,17
		c-0.256,0-0.512-0.098-0.707-0.293c-0.391-0.391-0.391-1.023,0-1.414L13.586,13H3c-0.552,0-1-0.448-1-1s0.448-1,1-1h10.586
		l-2.293-2.293c-0.391-0.391-0.391-1.023,0-1.414s1.023-0.391,1.414,0l4,4c0.097,0.096,0.169,0.208,0.218,0.326
		C16.973,11.735,17,11.863,17,11.997l0,0c0,0.002,0,0.004,0,0.006l0,0c0,0.134-0.027,0.262-0.075,0.378
		c-0.049,0.119-0.121,0.23-0.218,0.326l-4,4C12.512,16.902,12.256,17,12,17z"/>
</g>
</svg>
