<?xml version="1.0" encoding="iso-8859-1"?>
<!-- Generator: Adobe Illustrator 27.4.0, SVG Export Plug-In . SVG Version: 6.00 Build 0)  -->
<svg version="1.1" id="Layer_1" xmlns="http://www.w3.org/2000/svg" xmlns:xlink="http://www.w3.org/1999/xlink" x="0px" y="0px"
	 viewBox="0 0 24 24" style="enable-background:new 0 0 24 24;" xml:space="preserve">
<g>
	<path d="M16.2,22H15c-0.553,0-1-0.447-1-1s0.447-1,1-1h1.2c1.47,0,2.279,0,2.708-0.219c0.379-0.192,0.681-0.494,0.873-0.872
		C20,18.479,20,17.67,20,16.2V7.8c0-1.47,0-2.28-0.218-2.708c-0.193-0.379-0.495-0.681-0.874-0.874C18.479,4,17.67,4,16.2,4H15
		c-0.553,0-1-0.448-1-1s0.447-1,1-1h1.2c1.837,0,2.76,0,3.616,0.436c0.758,0.386,1.362,0.991,1.748,1.749C22,5.04,22,5.962,22,7.8
		v8.4c0,1.837,0,2.76-0.436,3.616c-0.386,0.758-0.99,1.362-1.749,1.748C18.96,22,18.037,22,16.2,22z M10,18
		c-0.256,0-0.512-0.098-0.707-0.293c-0.391-0.391-0.391-1.023,0-1.414L12.586,13H3c-0.552,0-1-0.448-1-1s0.448-1,1-1h9.586
		L9.293,7.707c-0.391-0.391-0.391-1.023,0-1.414s1.023-0.391,1.414,0l5,5c0.097,0.096,0.169,0.208,0.218,0.326
		C15.973,11.735,16,11.863,16,11.997l0,0c0,0.002,0,0.004,0,0.006l0,0c0,0.134-0.027,0.262-0.075,0.378
		c-0.049,0.119-0.121,0.23-0.218,0.326l-5,5C10.512,17.902,10.256,18,10,18z"/>
</g>
</svg>
