<?xml version="1.0" encoding="iso-8859-1"?>
<!-- Generator: Adobe Illustrator 27.4.0, SVG Export Plug-In . SVG Version: 6.00 Build 0)  -->
<svg version="1.1" id="Layer_1" xmlns="http://www.w3.org/2000/svg" xmlns:xlink="http://www.w3.org/1999/xlink" x="0px" y="0px"
	 viewBox="0 0 24 24" style="enable-background:new 0 0 24 24;" xml:space="preserve">
<g>
	<path d="M17.2,22H6.8c-1.838,0-2.76,0-3.616-0.437c-0.757-0.385-1.362-0.989-1.748-1.747C1,18.96,1,18.037,1,16.2v-4.4
		c0-1.838,0-2.76,0.436-3.616c0.386-0.757,0.991-1.362,1.748-1.748C4.04,6,4.962,6,6.8,6h0.208c0.013-0.42,0.045-0.728,0.128-1.035
		c0.369-1.376,1.453-2.46,2.829-2.829C10.474,2,10.983,2,12,2c1.016,0,1.525,0,2.034,0.136c1.377,0.369,2.461,1.453,2.829,2.829
		C16.946,5.272,16.979,5.58,16.991,6H17.2c1.837,0,2.76,0,3.616,0.436c0.758,0.386,1.362,0.991,1.748,1.749
		C23,9.04,23,9.962,23,11.8v4.4c0,1.837,0,2.76-0.436,3.616c-0.386,0.758-0.99,1.362-1.749,1.748C19.96,22,19.037,22,17.2,22z
		 M6.8,8C5.33,8,4.52,8,4.092,8.218C3.713,8.411,3.411,8.713,3.218,9.092C3,9.52,3,10.33,3,11.8v4.4c0,1.47,0,2.279,0.218,2.708
		c0.193,0.379,0.495,0.681,0.873,0.873C4.52,20,5.33,20,6.8,20h10.4c1.47,0,2.279,0,2.708-0.219
		c0.379-0.192,0.681-0.494,0.873-0.872C21,18.479,21,17.67,21,16.2v-4.4c0-1.47,0-2.28-0.218-2.708
		c-0.193-0.379-0.495-0.681-0.874-0.874C19.479,8,18.67,8,17.2,8H6.8z M9.01,6h5.98c-0.009-0.229-0.025-0.396-0.059-0.517
		c-0.185-0.689-0.727-1.231-1.414-1.416C13.264,4,12.814,4,12,4c-0.815,0-1.264,0-1.518,0.068C9.794,4.252,9.252,4.794,9.068,5.482
		C9.036,5.604,9.019,5.771,9.01,6z M17.7,18.5h-4.9c-0.354,0-0.661,0-0.982-0.164c-0.283-0.145-0.511-0.372-0.655-0.658
		C11,17.362,11,17.056,11,16.7v-2.4c0-0.355,0-0.662,0.165-0.983c0.142-0.28,0.369-0.508,0.655-0.653
		C12.139,12.5,12.445,12.5,12.8,12.5h4.9c0.355,0,0.662,0,0.983,0.165c0.281,0.142,0.51,0.37,0.654,0.657
		C19.5,13.638,19.5,13.944,19.5,14.3v2.4c0,0.355,0,0.662-0.165,0.983c-0.142,0.281-0.37,0.51-0.657,0.654
		C18.362,18.5,18.056,18.5,17.7,18.5z M13,16.5h4.5v-2H13V16.5z"/>
</g>
</svg>
