<?xml version="1.0" encoding="iso-8859-1"?>
<!-- Generator: Adobe Illustrator 27.4.0, SVG Export Plug-In . SVG Version: 6.00 Build 0)  -->
<svg version="1.1" id="Layer_1" xmlns="http://www.w3.org/2000/svg" xmlns:xlink="http://www.w3.org/1999/xlink" x="0px" y="0px"
	 viewBox="0 0 24 24" style="enable-background:new 0 0 24 24;" xml:space="preserve">
<g>
	<path d="M16,23c-0.553,0-1-0.447-1-1v-1H9v1c0,0.553-0.448,1-1,1s-1-0.447-1-1v-1.026c-0.755-0.042-1.298-0.146-1.816-0.41
		c-0.757-0.385-1.362-0.989-1.748-1.747C3,17.96,3,17.037,3,15.2V6.8c0-1.838,0-2.76,0.436-3.616
		c0.386-0.757,0.991-1.362,1.748-1.748C6.04,1,6.962,1,8.8,1h6.4c1.837,0,2.76,0,3.616,0.436c0.758,0.386,1.362,0.991,1.748,1.749
		C21,4.04,21,4.962,21,6.8v8.4c0,1.837,0,2.76-0.436,3.616c-0.386,0.758-0.99,1.362-1.749,1.748
		c-0.518,0.264-1.061,0.367-1.815,0.409V22C17,22.553,16.553,23,16,23z M8.8,3C7.33,3,6.52,3,6.092,3.218
		C5.713,3.411,5.411,3.713,5.218,4.092C5,4.52,5,5.33,5,6.8v8.4c0,1.47,0,2.279,0.218,2.708c0.193,0.379,0.495,0.681,0.873,0.873
		C6.52,19,7.33,19,8.8,19h6.4c1.47,0,2.279,0,2.708-0.219c0.379-0.192,0.681-0.494,0.873-0.872C19,17.479,19,16.67,19,15.2V6.8
		c0-1.47,0-2.28-0.218-2.708c-0.193-0.379-0.495-0.681-0.874-0.874C17.479,3,16.67,3,15.2,3H8.8z M14.5,16c-0.553,0-1-0.447-1-1V7
		c0-0.552,0.447-1,1-1s1,0.448,1,1v8C15.5,15.553,15.053,16,14.5,16z M9.5,16c-0.552,0-1-0.447-1-1V7c0-0.552,0.448-1,1-1
		s1,0.448,1,1v8C10.5,15.553,10.052,16,9.5,16z"/>
</g>
</svg>
