<?xml version="1.0" encoding="iso-8859-1"?>
<!-- Generator: Adobe Illustrator 27.4.0, SVG Export Plug-In . SVG Version: 6.00 Build 0)  -->
<svg version="1.1" id="Layer_1" xmlns="http://www.w3.org/2000/svg" xmlns:xlink="http://www.w3.org/1999/xlink" x="0px" y="0px"
	 viewBox="0 0 24 24" style="enable-background:new 0 0 24 24;" xml:space="preserve">
<g>
	<path d="M3,22c-0.256,0-0.512-0.098-0.707-0.293c-0.391-0.391-0.391-1.023,0-1.414l9-9c0.391-0.391,1.023-0.391,1.414,0
		s0.391,1.023,0,1.414l-9,9C3.512,21.902,3.256,22,3,22z M15,17c-0.553,0-1-0.447-1-1v-2c0-0.553,0.447-1,1-1s1,0.447,1,1v2
		C16,16.553,15.553,17,15,17z M19,14c-0.256,0-0.512-0.098-0.707-0.293l-1.2-1.2c-0.391-0.391-0.391-1.023,0-1.414
		s1.023-0.391,1.414,0l1.2,1.2c0.391,0.391,0.391,1.023,0,1.414C19.512,13.902,19.256,14,19,14z M22,10h-2c-0.553,0-1-0.448-1-1
		s0.447-1,1-1h2c0.553,0,1,0.448,1,1S22.553,10,22,10z M10,10H8c-0.552,0-1-0.448-1-1s0.448-1,1-1h2c0.552,0,1,0.448,1,1
		S10.552,10,10,10z M17.8,7.2c-0.256,0-0.512-0.098-0.707-0.293c-0.391-0.391-0.391-1.023,0-1.414l1.2-1.2
		c0.391-0.391,1.023-0.391,1.414,0s0.391,1.023,0,1.414l-1.2,1.2C18.312,7.103,18.056,7.2,17.8,7.2z M12.2,7.2
		c-0.256,0-0.512-0.098-0.707-0.293l-1.2-1.2c-0.391-0.391-0.391-1.023,0-1.414s1.023-0.391,1.414,0l1.2,1.2
		c0.391,0.391,0.391,1.023,0,1.414C12.712,7.103,12.456,7.2,12.2,7.2z M15,5c-0.553,0-1-0.448-1-1V2c0-0.552,0.447-1,1-1
		s1,0.448,1,1v2C16,4.552,15.553,5,15,5z"/>
</g>
</svg>
