<?xml version="1.0" encoding="iso-8859-1"?>
<!-- Generator: Adobe Illustrator 27.4.0, SVG Export Plug-In . SVG Version: 6.00 Build 0)  -->
<svg version="1.1" id="Layer_1" xmlns="http://www.w3.org/2000/svg" xmlns:xlink="http://www.w3.org/1999/xlink" x="0px" y="0px"
	 viewBox="0 0 24 24" style="enable-background:new 0 0 24 24;" xml:space="preserve">
<g>
	<path d="M5,22.587c-0.208,0-0.417-0.033-0.619-0.099c-0.456-0.148-0.759-0.452-1.218-0.911L2.425,20.84
		c-0.462-0.463-0.765-0.766-0.913-1.223c-0.129-0.398-0.129-0.836,0-1.234c0.148-0.457,0.451-0.76,0.91-1.22l9.24-9.239
		c0.462-0.462,0.765-0.765,1.223-0.913c0.396-0.129,0.834-0.13,1.234,0.001c0.455,0.147,0.759,0.451,1.22,0.912l0.736,0.737
		c0.46,0.459,0.764,0.763,0.913,1.22c0.132,0.405,0.132,0.833,0,1.238c-0.149,0.456-0.453,0.76-0.913,1.22l-2.35,2.349
		c-0.006,0.007-0.012,0.014-0.019,0.02c-0.006,0.007-0.013,0.013-0.02,0.019l-6.849,6.85c-0.46,0.46-0.764,0.764-1.22,0.913
		C5.416,22.554,5.208,22.587,5,22.587z M3.402,19.046c0.058,0,0.25,0.191,0.435,0.377l0.738,0.737
		c0.199,0.199,0.402,0.402,0.473,0.446c-0.025-0.044,0.179-0.248,0.375-0.445h0L11.585,14L10,12.414l-6.162,6.161
		c-0.198,0.198-0.401,0.401-0.445,0.473C3.396,19.047,3.399,19.046,3.402,19.046z M11.414,11L13,12.585l1.661-1.661
		c0.197-0.197,0.401-0.401,0.446-0.473c-0.045,0.025-0.247-0.177-0.446-0.375l-0.737-0.738c-0.196-0.197-0.399-0.4-0.472-0.444
		c0.024,0.044-0.178,0.246-0.373,0.441L11.414,11z M20.011,15.061c-0.256,0-0.512-0.098-0.707-0.293l-1.062-1.061
		c-0.391-0.39-0.391-1.023,0-1.414c0.391-0.392,1.023-0.391,1.414-0.001l1.062,1.061c0.391,0.39,0.391,1.023,0,1.414
		C20.522,14.963,20.267,15.061,20.011,15.061z M22.011,10h-1.5c-0.553,0-1-0.448-1-1s0.447-1,1-1h1.5c0.553,0,1,0.448,1,1
		S22.563,10,22.011,10z M11.01,6.061c-0.256,0-0.512-0.098-0.707-0.293L9.243,4.707c-0.391-0.391-0.391-1.023,0-1.414
		s1.023-0.391,1.414,0l1.061,1.061c0.391,0.391,0.391,1.023,0,1.414C11.522,5.963,11.266,6.061,11.01,6.061z M18.949,6.061
		c-0.256,0-0.512-0.098-0.707-0.293c-0.391-0.391-0.391-1.023,0-1.414l1.062-1.061c0.391-0.39,1.023-0.391,1.414,0.001
		c0.391,0.391,0.391,1.023,0,1.414l-1.062,1.061C19.461,5.963,19.205,6.061,18.949,6.061z M15.011,4.5c-0.553,0-1-0.448-1-1V2
		c0-0.552,0.447-1,1-1s1,0.448,1,1v1.5C16.011,4.052,15.563,4.5,15.011,4.5z"/>
</g>
</svg>
