<?xml version="1.0" encoding="iso-8859-1"?>
<!-- Generator: Adobe Illustrator 27.4.0, SVG Export Plug-In . SVG Version: 6.00 Build 0)  -->
<svg version="1.1" id="Layer_1" xmlns="http://www.w3.org/2000/svg" xmlns:xlink="http://www.w3.org/1999/xlink" x="0px" y="0px"
	 viewBox="0 0 24 24" style="enable-background:new 0 0 24 24;" xml:space="preserve">
<g>
	<path d="M17.2,21H6.8c-1.838,0-2.76,0-3.616-0.437c-0.757-0.385-1.362-0.989-1.748-1.747C1,17.96,1,17.037,1,15.2V8.8
		c0-0.635,0-1.16,0.018-1.611c-0.031-0.163-0.022-0.334,0.03-0.496c0.052-0.601,0.161-1.063,0.388-1.508
		c0.386-0.757,0.991-1.362,1.748-1.748C4.04,3,4.962,3,6.8,3h10.4c1.837,0,2.76,0,3.616,0.436c0.758,0.386,1.362,0.991,1.748,1.749
		c0.227,0.445,0.335,0.908,0.388,1.508c0.052,0.162,0.062,0.333,0.03,0.496C23,7.64,23,8.165,23,8.8v6.4c0,1.837,0,2.76-0.436,3.616
		c-0.386,0.758-0.99,1.362-1.749,1.748C19.96,21,19.037,21,17.2,21z M3.561,18.39c0.152,0.158,0.331,0.29,0.531,0.392
		C4.52,19,5.33,19,6.8,19h10.4c1.47,0,2.279,0,2.708-0.219c0.2-0.102,0.379-0.233,0.531-0.392l-5.661-5.114l-0.37,0.259
		c-0.737,0.517-1.144,0.802-1.684,0.936c-0.473,0.117-0.975,0.117-1.45,0c-0.54-0.134-0.946-0.419-1.683-0.936l-0.369-0.258
		L3.561,18.39z M3,8.92v6.28c0,0.374,0,0.705,0.003,0.997l4.538-4.098L3,8.92z M16.459,12.099l4.537,4.098
		C21,15.904,21,15.574,21,15.2V8.92L16.459,12.099z M9.732,11.191l1.006,0.705c0.523,0.367,0.839,0.588,1.018,0.632
		c0.159,0.04,0.326,0.039,0.486,0c0.181-0.045,0.496-0.266,1.019-0.632l7.656-5.359c-0.031-0.181-0.075-0.328-0.135-0.445
		c-0.193-0.379-0.495-0.681-0.874-0.874C19.479,5,18.67,5,17.2,5H6.8C5.33,5,4.52,5,4.092,5.218
		C3.713,5.411,3.411,5.713,3.218,6.092C3.158,6.21,3.115,6.356,3.083,6.538L9.7,11.169C9.71,11.176,9.721,11.184,9.732,11.191z"/>
</g>
</svg>
