<?xml version="1.0" encoding="iso-8859-1"?>
<!-- Generator: Adobe Illustrator 27.4.0, SVG Export Plug-In . SVG Version: 6.00 Build 0)  -->
<svg version="1.1" id="Layer_1" xmlns="http://www.w3.org/2000/svg" xmlns:xlink="http://www.w3.org/1999/xlink" x="0px" y="0px"
	 viewBox="0 0 24 24" style="enable-background:new 0 0 24 24;" xml:space="preserve">
<g>
	<path d="M17.2,22H6.8c-1.838,0-2.76,0-3.616-0.437c-0.757-0.385-1.362-0.989-1.748-1.747C1,18.96,1,18.037,1,16.2V8.868
		c0-0.377,0-0.625,0.088-0.912c0.081-0.259,0.207-0.491,0.376-0.694c0.195-0.233,0.404-0.369,0.719-0.573l0.18-0.117
		c0.04-0.026,0.082-0.053,0.124-0.081l7.225-4.696c0,0,0.001-0.001,0.002-0.001c0.704-0.457,1.091-0.709,1.601-0.829
		c0.45-0.105,0.923-0.105,1.371,0c0.51,0.12,0.897,0.371,1.6,0.828c0.004-0.001,0.004,0.001,0.005,0.003l7.528,4.894
		c0.315,0.205,0.523,0.341,0.716,0.57c0.174,0.208,0.301,0.441,0.379,0.696C23,8.243,23,8.491,23,8.868V16.2
		c0,1.837,0,2.76-0.436,3.616c-0.386,0.758-0.99,1.362-1.749,1.748C19.96,22,19.037,22,17.2,22z M3,9.842V16.2
		c0,1.47,0,2.279,0.218,2.708c0.193,0.379,0.495,0.681,0.873,0.873C4.52,20,5.33,20,6.8,20h10.4c1.47,0,2.279,0,2.708-0.219
		c0.379-0.192,0.681-0.494,0.873-0.872C21,18.479,21,17.67,21,16.2V9.842l-6.711,4.363c-0.707,0.459-1.095,0.71-1.603,0.83
		c-0.45,0.105-0.923,0.105-1.371,0c-0.512-0.12-0.9-0.373-1.604-0.83L3,9.842z M3.835,8l6.966,4.528
		c0.5,0.324,0.801,0.52,0.972,0.56c0.147,0.035,0.307,0.035,0.457,0c0.168-0.04,0.468-0.235,0.966-0.558L20.165,8l-6.963-4.526
		c-0.001,0-0.002-0.001-0.003-0.001l-0.004-0.003c-0.498-0.323-0.798-0.518-0.968-0.558c-0.148-0.035-0.307-0.035-0.457,0
		c-0.168,0.04-0.469,0.235-0.967,0.559c-0.001,0-0.001,0.001-0.002,0.001L3.835,8z M20.754,8.392h0.01H20.754z"/>
</g>
</svg>
