<?xml version="1.0" encoding="iso-8859-1"?>
<!-- Generator: Adobe Illustrator 27.4.0, SVG Export Plug-In . SVG Version: 6.00 Build 0)  -->
<svg version="1.1" id="Layer_1" xmlns="http://www.w3.org/2000/svg" xmlns:xlink="http://www.w3.org/1999/xlink" x="0px" y="0px"
	 viewBox="0 0 24 24" style="enable-background:new 0 0 24 24;" xml:space="preserve">
<g>
	<path d="M17.2,22H6.8c-1.838,0-2.76,0-3.616-0.437c-0.757-0.385-1.362-0.989-1.748-1.747C1,18.96,1,18.037,1,16.2V8.868
		c0-0.377,0-0.625,0.088-0.912c0.081-0.259,0.207-0.491,0.376-0.694c0.195-0.233,0.404-0.369,0.719-0.573l1.152-0.749
		c0.059-0.039,0.12-0.079,0.184-0.12l6.192-4.025c0.001-0.001,0.002-0.001,0.003-0.002c0.703-0.457,1.09-0.708,1.599-0.828
		c0.45-0.105,0.923-0.105,1.371,0c0.51,0.12,0.897,0.371,1.6,0.828l0,0c0.002,0.001,0.004,0.002,0.005,0.003l6.192,4.025
		c0.061,0.039,0.119,0.077,0.176,0.114l1.16,0.754c0.315,0.205,0.523,0.341,0.716,0.57c0.174,0.208,0.301,0.441,0.379,0.696
		C23,8.243,23,8.491,23,8.868V16.2c0,1.837,0,2.76-0.436,3.616c-0.386,0.758-0.99,1.362-1.749,1.748C19.96,22,19.037,22,17.2,22z
		 M3.561,19.39c0.152,0.158,0.331,0.29,0.531,0.392C4.52,20,5.33,20,6.8,20h10.4c1.47,0,2.279,0,2.708-0.219
		c0.2-0.102,0.379-0.233,0.531-0.392l-5.912-5.34l-0.238,0.155c-0.707,0.459-1.095,0.71-1.603,0.83c-0.45,0.105-0.923,0.105-1.371,0
		c-0.512-0.12-0.9-0.373-1.604-0.83L9.472,14.05L3.561,19.39z M3,9.837V16.2c0,0.374,0,0.704,0.003,0.997l4.734-4.275L3.519,10.18
		C3.329,10.056,3.156,9.944,3,9.837z M16.263,12.922l4.733,4.275C21,16.904,21,16.574,21,16.2V9.837
		c-0.155,0.106-0.328,0.219-0.519,0.342L16.263,12.922z M3.871,8c0.146,0.118,0.446,0.313,0.738,0.502l6.192,4.025
		c0.5,0.324,0.801,0.52,0.972,0.56c0.147,0.035,0.307,0.035,0.457,0c0.168-0.04,0.468-0.235,0.966-0.558l6.196-4.027
		C19.684,8.313,19.983,8.118,20.13,8c-0.118-0.095-0.337-0.241-0.57-0.394l-6.357-4.133c-0.001,0-0.002-0.001-0.003-0.001
		l-0.004-0.003c-0.498-0.323-0.798-0.518-0.968-0.558c-0.148-0.035-0.307-0.035-0.457,0c-0.168,0.04-0.469,0.235-0.967,0.559
		c-0.001,0-0.001,0.001-0.002,0.001L4.429,7.614C4.2,7.764,3.986,7.906,3.871,8z M20.204,8.068h0.01H20.204z"/>
</g>
</svg>
