<?xml version="1.0" encoding="iso-8859-1"?>
<!-- Generator: Adobe Illustrator 27.4.0, SVG Export Plug-In . SVG Version: 6.00 Build 0)  -->
<svg version="1.1" id="Layer_1" xmlns="http://www.w3.org/2000/svg" xmlns:xlink="http://www.w3.org/1999/xlink" x="0px" y="0px"
	 viewBox="0 0 24 24" style="enable-background:new 0 0 24 24;" xml:space="preserve">
<g>
	<path d="M17.2,21H6.8c-1.838,0-2.76,0-3.616-0.437c-0.757-0.385-1.362-0.989-1.748-1.747C1,17.96,1,17.037,1,15.2V8.8
		c0-0.635,0-1.16,0.018-1.611c-0.031-0.163-0.022-0.333,0.03-0.496c0.052-0.601,0.161-1.063,0.388-1.508
		c0.386-0.757,0.991-1.362,1.748-1.748C4.04,3,4.962,3,6.8,3h10.4c1.837,0,2.76,0,3.616,0.436c0.758,0.386,1.362,0.991,1.748,1.749
		c0.227,0.445,0.335,0.908,0.388,1.508c0.052,0.163,0.062,0.333,0.03,0.496C23,7.64,23,8.165,23,8.8v6.4c0,1.837,0,2.76-0.436,3.616
		c-0.386,0.758-0.99,1.362-1.749,1.748C19.96,21,19.037,21,17.2,21z M3,8.869V15.2c0,1.47,0,2.279,0.218,2.708
		c0.193,0.379,0.495,0.681,0.873,0.873C4.52,19,5.33,19,6.8,19h10.4c1.47,0,2.279,0,2.708-0.219
		c0.379-0.192,0.681-0.494,0.873-0.872C21,17.479,21,16.67,21,15.2V8.869l-3.639,2.426c-0.326,0.218-0.523,0.349-0.767,0.455
		c-0.213,0.093-0.44,0.162-0.673,0.204C15.659,12,15.423,12,15.031,12H8.969c-0.392,0-0.627,0-0.888-0.046
		c-0.236-0.042-0.462-0.111-0.676-0.205c-0.24-0.104-0.433-0.233-0.751-0.445L3,8.869z M3.086,6.522L7.749,9.63
		c0.231,0.154,0.337,0.234,0.457,0.286c0.071,0.031,0.147,0.054,0.227,0.069C8.561,10.008,8.698,10.001,8.969,10h6.062
		c0.272,0,0.408,0.008,0.54-0.016c0.075-0.014,0.151-0.036,0.222-0.067c0.123-0.054,0.233-0.137,0.459-0.287l4.662-3.108
		c-0.031-0.174-0.074-0.315-0.132-0.43c-0.193-0.379-0.495-0.681-0.874-0.874C19.479,5,18.67,5,17.2,5H6.8
		C5.33,5,4.52,5,4.092,5.218C3.713,5.411,3.411,5.713,3.218,6.092C3.16,6.207,3.117,6.348,3.086,6.522z"/>
</g>
</svg>
