<?xml version="1.0" encoding="iso-8859-1"?>
<!-- Generator: Adobe Illustrator 27.4.0, SVG Export Plug-In . SVG Version: 6.00 Build 0)  -->
<svg version="1.1" id="Layer_1" xmlns="http://www.w3.org/2000/svg" xmlns:xlink="http://www.w3.org/1999/xlink" x="0px" y="0px"
	 viewBox="0 0 24 24" style="enable-background:new 0 0 24 24;" xml:space="preserve">
<g>
	<path d="M17.2,21H6.8c-1.838,0-2.76,0-3.616-0.437c-0.757-0.385-1.362-0.989-1.748-1.747C1,17.96,1,17.037,1,15.2V8.8
		c0-0.635,0-1.16,0.018-1.611c-0.031-0.163-0.022-0.334,0.03-0.496c0.052-0.601,0.161-1.063,0.388-1.508
		c0.386-0.757,0.991-1.362,1.748-1.748C4.04,3,4.962,3,6.8,3h10.4c1.837,0,2.76,0,3.616,0.436c0.758,0.386,1.362,0.991,1.748,1.749
		c0.227,0.445,0.335,0.908,0.388,1.508c0.052,0.162,0.062,0.333,0.03,0.496C23,7.64,23,8.165,23,8.8v6.4c0,1.837,0,2.76-0.436,3.616
		c-0.386,0.758-0.99,1.362-1.749,1.748C19.96,21,19.037,21,17.2,21z M3,8.92v6.28c0,1.47,0,2.279,0.218,2.708
		c0.193,0.379,0.495,0.681,0.873,0.873C4.52,19,5.33,19,6.8,19h10.4c1.47,0,2.279,0,2.708-0.219
		c0.379-0.192,0.681-0.494,0.873-0.872C21,17.479,21,16.67,21,15.2V8.92l-6.592,4.614c-0.737,0.517-1.144,0.802-1.684,0.936
		c-0.473,0.117-0.975,0.117-1.45,0c-0.54-0.134-0.946-0.419-1.683-0.936L3,8.92z M3.083,6.538l7.655,5.358
		c0.523,0.367,0.839,0.588,1.018,0.632c0.159,0.04,0.326,0.039,0.486,0c0.181-0.045,0.496-0.266,1.019-0.632l7.656-5.359
		c-0.031-0.181-0.075-0.328-0.135-0.445c-0.193-0.379-0.495-0.681-0.874-0.874C19.479,5,18.67,5,17.2,5H6.8
		C5.33,5,4.52,5,4.092,5.218C3.713,5.411,3.411,5.713,3.218,6.092C3.158,6.21,3.115,6.356,3.083,6.538z"/>
</g>
</svg>
