<?xml version="1.0" encoding="iso-8859-1"?>
<!-- Generator: Adobe Illustrator 27.4.0, SVG Export Plug-In . SVG Version: 6.00 Build 0)  -->
<svg version="1.1" id="Layer_1" xmlns="http://www.w3.org/2000/svg" xmlns:xlink="http://www.w3.org/1999/xlink" x="0px" y="0px"
	 viewBox="0 0 24 24" style="enable-background:new 0 0 24 24;" xml:space="preserve">
<g>
	<path d="M15.999,23c-0.086,0-0.172-0.011-0.257-0.033c-0.073-0.02-0.144-0.048-0.21-0.083c-0.016-0.008-0.032-0.018-0.048-0.026
		L9,19.151l-6.504,3.717c-0.31,0.177-0.689,0.175-0.998-0.003C1.19,22.686,1,22.356,1,22V6c0-0.359,0.192-0.69,0.504-0.868
		l6.984-3.991C8.49,1.139,8.493,1.138,8.496,1.136c0.078-0.045,0.162-0.081,0.251-0.104C8.831,1.01,8.921,0.981,9,1c0,0,0,0,0.001,0
		c0.085,0,0.172,0.011,0.256,0.034C9.343,1.056,9.423,1.09,9.498,1.133c0.005,0.003,0.01,0.005,0.015,0.008l6.447,3.684l5.485-3.657
		c0.307-0.205,0.702-0.224,1.026-0.05C22.797,1.292,23,1.631,23,2v16c0,0.334-0.167,0.646-0.445,0.832l-5.982,3.988
		c-0.022,0.016-0.045,0.03-0.068,0.043c-0.068,0.041-0.142,0.073-0.22,0.096c-0.082,0.024-0.166,0.038-0.25,0.041
		C16.022,23,16.011,23,15.999,23z M10,17.42l5,2.856V6.58l-5-2.857V17.42z M3,6.58v13.696l5-2.856V3.723L3,6.58z M17,6.535v13.597
		l4-2.667V3.869L17,6.535z"/>
</g>
</svg>
