<?xml version="1.0" encoding="iso-8859-1"?>
<!-- Generator: Adobe Illustrator 27.4.0, SVG Export Plug-In . SVG Version: 6.00 Build 0)  -->
<svg version="1.1" id="Layer_1" xmlns="http://www.w3.org/2000/svg" xmlns:xlink="http://www.w3.org/1999/xlink" x="0px" y="0px"
	 viewBox="0 0 24 24" style="enable-background:new 0 0 24 24;" xml:space="preserve">
<g>
	<path d="M16.001,22c-0.008,0-0.016,0-0.022,0H7.8c-1.838,0-2.76,0-3.616-0.437c-0.757-0.385-1.362-0.989-1.748-1.747
		c-0.361-0.71-0.423-1.464-0.434-2.746C2,17.028,1.999,16.987,2.001,16.945C2,16.715,2,16.467,2,16.2V7.8
		c0-1.838,0-2.76,0.436-3.616c0.386-0.757,0.991-1.362,1.748-1.748C5.04,2,5.962,2,7.8,2h0.177c0.015,0,0.029,0,0.045,0H16.2
		c1.837,0,2.76,0,3.616,0.436c0.758,0.386,1.362,0.991,1.748,1.749C22,5.04,22,5.962,22,7.8v8.4c0,1.837,0,2.76-0.436,3.616
		c-0.386,0.758-0.99,1.362-1.749,1.748C18.96,22,18.037,22,16.2,22h-0.178C16.016,22,16.008,22,16.001,22z M4.011,17.582
		c0.019,0.639,0.07,1.058,0.207,1.326c0.193,0.379,0.495,0.681,0.873,0.873C5.52,20,6.33,20,7.8,20h6.661l-2.931-6.595L4.011,17.582
		z M12.919,11.605L16.649,20c1.189-0.003,1.876-0.023,2.259-0.219c0.379-0.192,0.681-0.494,0.873-0.872C20,18.479,20,17.67,20,16.2
		V7.8c0-1.47,0-2.28-0.218-2.708c-0.193-0.379-0.495-0.681-0.874-0.874C18.479,4,17.67,4,16.2,4H9.539l3.371,7.584
		C12.913,11.591,12.916,11.598,12.919,11.605z M7.35,4C6.161,4.002,5.474,4.023,5.092,4.218C4.713,4.411,4.411,4.713,4.218,5.092
		C4,5.52,4,6.33,4,7.8v7.501l6.715-3.73L7.35,4z"/>
</g>
</svg>
