<?xml version="1.0" encoding="iso-8859-1"?>
<!-- Generator: Adobe Illustrator 27.4.0, SVG Export Plug-In . SVG Version: 6.00 Build 0)  -->
<svg version="1.1" id="Layer_1" xmlns="http://www.w3.org/2000/svg" xmlns:xlink="http://www.w3.org/1999/xlink" x="0px" y="0px"
	 viewBox="0 0 24 24" style="enable-background:new 0 0 24 24;" xml:space="preserve">
<g>
	<path d="M12,23c-0.477,0-0.887-0.337-0.98-0.804c-0.377-1.883-1.79-3.046-3.426-4.393C5.44,16.032,3,14.024,3,10
		c0-4.962,4.038-9,9-9c4.963,0,9,4.038,9,9c0,4.024-2.44,6.032-4.594,7.804c-1.636,1.347-3.049,2.51-3.426,4.393
		C12.887,22.663,12.477,23,12,23z M12,3c-3.86,0-7,3.14-7,7c0,3.08,1.877,4.624,3.864,6.26c1.144,0.94,2.312,1.902,3.136,3.162
		c0.823-1.26,1.992-2.222,3.136-3.162C17.123,14.624,19,13.08,19,10C19,6.14,15.859,3,12,3z"/>
</g>
<g>
	<path d="M12,14c-2.206,0-4-1.794-4-4s1.794-4,4-4c2.206,0,4,1.794,4,4S14.206,14,12,14z M12,8c-1.103,0-2,0.897-2,2s0.897,2,2,2
		c1.103,0,2-0.897,2-2S13.103,8,12,8z"/>
</g>
</svg>
