<?xml version="1.0" encoding="iso-8859-1"?>
<!-- Generator: Adobe Illustrator 27.4.0, SVG Export Plug-In . SVG Version: 6.00 Build 0)  -->
<svg version="1.1" id="Layer_1" xmlns="http://www.w3.org/2000/svg" xmlns:xlink="http://www.w3.org/1999/xlink" x="0px" y="0px"
	 viewBox="0 0 24 24" style="enable-background:new 0 0 24 24;" xml:space="preserve">
<g>
	<path d="M12,13.5c-2.206,0-4-1.794-4-4s1.794-4,4-4c2.206,0,4,1.794,4,4S14.206,13.5,12,13.5z M12,7.5c-1.103,0-2,0.897-2,2
		s0.897,2,2,2c1.103,0,2-0.897,2-2S13.103,7.5,12,7.5z"/>
</g>
<g>
	<path d="M12,23c-0.379,0-0.725-0.214-0.895-0.553c-0.685-1.37-1.94-2.605-3.27-3.912C5.569,16.306,3,13.779,3,10
		c0-4.962,4.038-9,9-9c4.963,0,9,4.038,9,9c0,3.779-2.569,6.306-4.836,8.535c-1.329,1.307-2.584,2.542-3.27,3.912
		C12.725,22.786,12.379,23,12,23z M12,3c-3.86,0-7,3.14-7,7c0,2.941,2.059,4.966,4.238,7.109c0.972,0.955,1.966,1.934,2.762,3.007
		c0.795-1.073,1.79-2.052,2.762-3.007C16.941,14.966,19,12.941,19,10C19,6.14,15.859,3,12,3z"/>
</g>
</svg>
