<?xml version="1.0" encoding="iso-8859-1"?>
<!-- Generator: Adobe Illustrator 27.4.0, SVG Export Plug-In . SVG Version: 6.00 Build 0)  -->
<svg version="1.1" id="Layer_1" xmlns="http://www.w3.org/2000/svg" xmlns:xlink="http://www.w3.org/1999/xlink" x="0px" y="0px"
	 viewBox="0 0 24 24" style="enable-background:new 0 0 24 24;" xml:space="preserve">
<g>
	<path d="M12,23c-6.271,0-11-2.364-11-5.5c0-2.325,2.608-4.281,6.807-5.107c0.54-0.109,1.068,0.246,1.174,0.788
		s-0.247,1.068-0.789,1.175C4.784,15.025,3,16.444,3,17.5c0,1.652,3.849,3.5,9,3.5c5.151,0,9-1.848,9-3.5
		c0-1.056-1.784-2.475-5.193-3.145c-0.541-0.106-0.895-0.633-0.788-1.175c0.106-0.541,0.625-0.895,1.175-0.788
		C20.392,13.218,23,15.175,23,17.5C23,20.636,18.271,23,12,23z M12,18c-0.552,0-1-0.447-1-1v-6.479c0-0.013,0-0.026,0-0.039V3
		c0-0.362,0.196-0.696,0.512-0.873c0.316-0.176,0.704-0.168,1.012,0.021l5.318,3.272c0.498,0.306,0.859,0.528,1.045,0.981
		c0.161,0.388,0.149,0.835-0.037,1.22c-0.21,0.439-0.583,0.639-1.099,0.917L13,11.097V17C13,17.553,12.552,18,12,18z M13,4.79v4.036
		l3.498-1.883L13,4.79z M17.175,7.37L17.175,7.37L17.175,7.37z"/>
</g>
</svg>
