<?xml version="1.0" encoding="iso-8859-1"?>
<!-- Generator: Adobe Illustrator 27.4.0, SVG Export Plug-In . SVG Version: 6.00 Build 0)  -->
<svg version="1.1" id="Layer_1" xmlns="http://www.w3.org/2000/svg" xmlns:xlink="http://www.w3.org/1999/xlink" x="0px" y="0px"
	 viewBox="0 0 24 24" style="enable-background:new 0 0 24 24;" xml:space="preserve">
<g>
	<path d="M12,23c-6.271,0-11-2.364-11-5.5c0-2.325,2.608-4.281,6.807-5.107c0.54-0.109,1.068,0.246,1.174,0.788
		s-0.247,1.068-0.789,1.175C4.784,15.025,3,16.444,3,17.5c0,1.652,3.849,3.5,9,3.5c5.151,0,9-1.848,9-3.5
		c0-1.056-1.784-2.475-5.193-3.145c-0.541-0.106-0.895-0.633-0.788-1.175c0.106-0.541,0.625-0.895,1.175-0.788
		C20.392,13.218,23,15.175,23,17.5C23,20.636,18.271,23,12,23z M12,18c-0.552,0-1-0.447-1-1V9.874C9.277,9.428,8,7.86,8,6
		c0-2.206,1.794-4,4-4c2.206,0,4,1.794,4,4c0,1.86-1.276,3.428-3,3.874V17C13,17.553,12.552,18,12,18z M12,4c-1.103,0-2,0.897-2,2
		s0.897,2,2,2c1.103,0,2-0.897,2-2S13.103,4,12,4z"/>
</g>
</svg>
