<?xml version="1.0" encoding="iso-8859-1"?>
<!-- Generator: Adobe Illustrator 27.4.0, SVG Export Plug-In . SVG Version: 6.00 Build 0)  -->
<svg version="1.1" id="Layer_1" xmlns="http://www.w3.org/2000/svg" xmlns:xlink="http://www.w3.org/1999/xlink" x="0px" y="0px"
	 viewBox="0 0 24 24" style="enable-background:new 0 0 24 24;" xml:space="preserve">
<g>
	<path d="M12,23c-6.271,0-11-2.364-11-5.5c0-1.639,1.277-3.104,3.596-4.129c0.504-0.222,1.095,0.006,1.319,0.511
		c0.223,0.506-0.006,1.096-0.511,1.319C3.898,15.865,3,16.725,3,17.5c0,1.652,3.849,3.5,9,3.5c5.151,0,9-1.848,9-3.5
		c0-0.775-0.898-1.635-2.404-2.299c-0.505-0.224-0.733-0.813-0.511-1.319c0.223-0.503,0.812-0.732,1.319-0.511
		C21.723,14.396,23,15.861,23,17.5C23,20.636,18.271,23,12,23z M12,18c-0.379,0-0.725-0.214-0.895-0.553
		c-0.495-0.99-1.422-1.902-2.404-2.867C6.967,12.873,5,10.939,5,8c0-3.86,3.14-7,7-7c3.859,0,7,3.14,7,7
		c0,2.939-1.967,4.873-3.702,6.58c-0.981,0.965-1.908,1.877-2.403,2.867C12.725,17.786,12.379,18,12,18z M12,3C9.243,3,7,5.243,7,8
		c0,2.101,1.508,3.583,3.104,5.153c0.657,0.646,1.328,1.306,1.896,2.022c0.568-0.717,1.239-1.376,1.896-2.022
		C15.492,11.583,17,10.101,17,8C17,5.243,14.757,3,12,3z M12,10c-1.103,0-2-0.897-2-2s0.897-2,2-2c1.103,0,2,0.897,2,2
		S13.103,10,12,10z M12,7.999V8V7.999z"/>
</g>
</svg>
