<?xml version="1.0" encoding="iso-8859-1"?>
<!-- Generator: Adobe Illustrator 27.4.0, SVG Export Plug-In . SVG Version: 6.00 Build 0)  -->
<svg version="1.1" id="Layer_1" xmlns="http://www.w3.org/2000/svg" xmlns:xlink="http://www.w3.org/1999/xlink" x="0px" y="0px"
	 viewBox="0 0 24 24" style="enable-background:new 0 0 24 24;" xml:space="preserve">
<g>
	<path d="M12,14c-2.206,0-4-1.794-4-4s1.794-4,4-4c2.206,0,4,1.794,4,4S14.206,14,12,14z M12,8c-1.103,0-2,0.897-2,2s0.897,2,2,2
		c1.103,0,2-0.897,2-2S13.103,8,12,8z"/>
</g>
<g>
	<path d="M12,23c-0.256,0-0.512-0.098-0.707-0.293l-0.956-0.95C6.564,18.015,3,14.48,3,10c0-4.962,4.038-9,9-9c4.963,0,9,4.038,9,9
		c0,4.48-3.563,8.015-7.337,11.757l-0.956,0.95C12.512,22.902,12.256,23,12,23z M12,3c-3.86,0-7,3.14-7,7
		c0,3.647,3.276,6.896,6.746,10.337L12,20.59l0.254-0.253C15.724,16.896,19,13.647,19,10C19,6.14,15.859,3,12,3z"/>
</g>
</svg>
