<?xml version="1.0" encoding="iso-8859-1"?>
<!-- Generator: Adobe Illustrator 27.4.0, SVG Export Plug-In . SVG Version: 6.00 Build 0)  -->
<svg version="1.1" id="Layer_1" xmlns="http://www.w3.org/2000/svg" xmlns:xlink="http://www.w3.org/1999/xlink" x="0px" y="0px"
	 viewBox="0 0 24 24" style="enable-background:new 0 0 24 24;" xml:space="preserve">
<g>
	<path d="M13.4,22h-2.8c-0.651,0-1.081,0-1.51-0.219c-0.377-0.192-0.679-0.494-0.872-0.873C8,20.48,8,20.051,8,19.4V16.6
		c0-0.278,0-0.566-0.02-0.648C7.966,16,7.678,16,7.4,16H4.6c-0.651,0-1.081,0-1.51-0.219c-0.377-0.192-0.679-0.494-0.872-0.873
		C2,14.48,2,14.051,2,13.4v-2.8c0-0.65,0-1.08,0.218-1.508C2.412,8.713,2.713,8.412,3.09,8.219C3.52,8,3.95,8,4.6,8h2.8
		c0.279,0,0.567,0,0.649-0.02C8,7.967,8,7.679,8,7.4V4.6c0-0.65,0-1.08,0.218-1.508C8.412,2.713,8.713,2.412,9.09,2.219
		C9.52,2,9.95,2,10.6,2h2.8c0.65,0,1.08,0,1.508,0.218c0.379,0.193,0.681,0.496,0.874,0.875C16,3.519,16,3.949,16,4.6v2.8
		c0,0.278,0,0.566,0.02,0.648C16.033,8,16.321,8,16.6,8H19.4c0.65,0,1.08,0,1.508,0.218c0.379,0.193,0.681,0.496,0.874,0.875
		C22,9.519,22,9.949,22,10.6v2.8c0,0.65,0,1.081-0.219,1.509c-0.191,0.378-0.494,0.681-0.874,0.873C20.481,16,20.051,16,19.4,16
		H16.6c-0.278,0-0.565,0-0.647,0.02C16,16.034,16,16.321,16,16.6V19.4c0,0.65,0,1.081-0.219,1.509
		c-0.191,0.378-0.494,0.681-0.874,0.873C14.481,22,14.051,22,13.4,22z M4.6,14h2.8c0.651,0,1.081,0,1.51,0.219
		c0.377,0.192,0.679,0.494,0.872,0.873C10,15.52,10,15.949,10,16.6V19.4c0,0.278,0,0.566,0.02,0.648C10.034,20,10.322,20,10.6,20
		h2.8c0.278,0,0.565,0,0.647-0.02C14,19.966,14,19.679,14,19.4V16.6c0-0.65,0-1.081,0.219-1.509
		c0.191-0.378,0.494-0.681,0.874-0.873C15.519,14,15.949,14,16.6,14H19.4c0.278,0,0.565,0,0.647-0.02C20,13.966,20,13.679,20,13.4
		v-2.8c0-0.278,0-0.566-0.02-0.648C19.967,10,19.679,10,19.4,10H16.6c-0.65,0-1.08,0-1.508-0.218
		c-0.379-0.193-0.681-0.496-0.874-0.875C14,8.481,14,8.051,14,7.4V4.6c0-0.278,0-0.566-0.02-0.648C13.967,4,13.679,4,13.4,4h-2.8
		c-0.279,0-0.567,0-0.649,0.02C10,4.033,10,4.321,10,4.6v2.8c0,0.65,0,1.08-0.218,1.508C9.588,9.287,9.287,9.588,8.91,9.781
		C8.48,10,8.05,10,7.4,10H4.6c-0.279,0-0.567,0-0.649,0.02C4,10.033,4,10.321,4,10.6v2.8c0,0.278,0,0.566,0.02,0.648
		C4.034,14,4.322,14,4.6,14z"/>
</g>
</svg>
