<?xml version="1.0" encoding="iso-8859-1"?>
<!-- Generator: Adobe Illustrator 27.4.0, SVG Export Plug-In . SVG Version: 6.00 Build 0)  -->
<svg version="1.1" id="Layer_1" xmlns="http://www.w3.org/2000/svg" xmlns:xlink="http://www.w3.org/1999/xlink" x="0px" y="0px"
	 viewBox="0 0 24 24" style="enable-background:new 0 0 24 24;" xml:space="preserve">
<g>
	<path d="M12,23C5.935,23,1,18.065,1,12S5.935,1,12,1s11,4.935,11,11S18.065,23,12,23z M12,3c-4.962,0-9,4.038-9,9
		c0,4.963,4.038,9,9,9c4.963,0,9-4.037,9-9C21,7.038,16.963,3,12,3z"/>
</g>
<g>
	<path d="M13.033,18.5h-2.066c-0.355,0-0.662,0-0.984-0.165c-0.282-0.144-0.51-0.371-0.654-0.657
		c-0.162-0.315-0.162-0.622-0.162-0.978v-1.867H7.3c-0.354,0-0.661,0-0.982-0.164c-0.282-0.144-0.508-0.37-0.653-0.653
		C5.5,13.693,5.5,13.388,5.5,13.033v-2.066c0-0.355,0-0.662,0.165-0.984C5.808,9.702,6.035,9.474,6.32,9.33
		C6.639,9.167,6.945,9.167,7.3,9.167h1.867V7.3c0-0.354,0-0.661,0.165-0.982c0.143-0.282,0.371-0.509,0.656-0.654
		C10.305,5.5,10.611,5.5,10.967,5.5h2.066c0.354,0,0.66,0,0.981,0.164c0.284,0.146,0.511,0.372,0.655,0.657
		c0.163,0.319,0.163,0.625,0.163,0.979v1.867H16.7c0.355,0,0.662,0,0.983,0.165c0.28,0.142,0.508,0.369,0.653,0.656
		c0.163,0.317,0.163,0.624,0.163,0.979v2.066c0,0.354,0,0.66-0.163,0.981c-0.146,0.285-0.374,0.512-0.659,0.656
		c-0.315,0.162-0.622,0.162-0.978,0.162h-1.867V16.7c0,0.355,0,0.662-0.165,0.983c-0.142,0.279-0.368,0.507-0.652,0.652
		C13.693,18.5,13.388,18.5,13.033,18.5z M12.83,16.949C12.829,16.949,12.829,16.949,12.83,16.949
		C12.829,16.949,12.829,16.949,12.83,16.949z M11.17,16.949C11.17,16.949,11.17,16.949,11.17,16.949
		C11.17,16.949,11.17,16.949,11.17,16.949z M11.167,16.5h1.667v-1.867c0-0.355,0-0.662,0.165-0.983
		c0.142-0.277,0.374-0.51,0.653-0.652c0.319-0.164,0.626-0.164,0.981-0.164H16.5v-1.667h-1.867c-0.354,0-0.66,0-0.98-0.163
		c-0.287-0.148-0.513-0.375-0.656-0.657c-0.163-0.319-0.163-0.625-0.163-0.979V7.5h-1.667v1.867c0,0.368,0,0.659-0.162,0.979
		c-0.147,0.286-0.373,0.512-0.654,0.656c-0.325,0.165-0.615,0.165-0.983,0.165H7.5v1.667h1.867c0.354,0,0.661,0,0.982,0.165
		c0.279,0.142,0.506,0.368,0.652,0.651c0.166,0.324,0.166,0.63,0.166,0.984V16.5z M10.718,16.496L10.718,16.496L10.718,16.496z
		 M16.949,12.829L16.949,12.829L16.949,12.829z M16.949,11.17C16.949,11.17,16.949,11.17,16.949,11.17
		C16.949,11.17,16.949,11.17,16.949,11.17z M16.496,10.718L16.496,10.718L16.496,10.718z M7.504,10.718L7.504,10.718L7.504,10.718z
		 M14.837,9.615h0.01H14.837z M10.718,7.504L10.718,7.504L10.718,7.504z"/>
</g>
</svg>
