<?xml version="1.0" encoding="iso-8859-1"?>
<!-- Generator: Adobe Illustrator 27.4.0, SVG Export Plug-In . SVG Version: 6.00 Build 0)  -->
<svg version="1.1" id="Layer_1" xmlns="http://www.w3.org/2000/svg" xmlns:xlink="http://www.w3.org/1999/xlink" x="0px" y="0px"
	 viewBox="0 0 24 24" style="enable-background:new 0 0 24 24;" xml:space="preserve">
<g>
	<path d="M12.5,21c-1.177,0-2.326-0.213-3.414-0.632c-0.118-0.046-0.171-0.067-0.213-0.08c-0.01,0.007-0.06,0.013-0.14,0.021
		l-5.124,0.53c-0.624,0.062-1.069,0.109-1.5-0.154c-0.375-0.228-0.632-0.61-0.701-1.047c-0.078-0.5,0.124-0.875,0.43-1.442
		l1.637-3.031c0.074-0.137,0.124-0.22,0.151-0.291c-0.021-0.026-0.064-0.142-0.129-0.333C3.167,13.56,3,12.539,3,11.5
		C3,6.262,7.261,2,12.5,2c5.239,0,9.5,4.262,9.5,9.5S17.738,21,12.5,21z M8.907,18.294c0.022,0,0.043,0,0.064,0.001
		c0.129,0.004,0.229,0.017,0.369,0.049c0.09,0.021,0.208,0.06,0.426,0.144C10.663,18.832,11.57,19,12.5,19
		c4.136,0,7.5-3.364,7.5-7.5S16.636,4,12.5,4C8.364,4,5,7.364,5,11.5c0,0.821,0.131,1.628,0.391,2.397
		c0.131,0.388,0.202,0.599,0.222,0.845c0.018,0.232,0.001,0.426-0.055,0.648c-0.062,0.244-0.166,0.436-0.323,0.726l-1.456,2.695
		l4.745-0.491C8.706,18.301,8.816,18.294,8.907,18.294z M11.5,14.5c-0.256,0-0.512-0.098-0.707-0.293l-2-2
		c-0.391-0.391-0.391-1.023,0-1.414s1.023-0.391,1.414,0l1.293,1.293l3.793-3.793c0.391-0.391,1.023-0.391,1.414,0
		s0.391,1.023,0,1.414l-4.5,4.5C12.011,14.402,11.755,14.5,11.5,14.5z"/>
</g>
</svg>
