<?xml version="1.0" encoding="iso-8859-1"?>
<!-- Generator: Adobe Illustrator 27.4.0, SVG Export Plug-In . SVG Version: 6.00 Build 0)  -->
<svg version="1.1" id="Layer_1" xmlns="http://www.w3.org/2000/svg" xmlns:xlink="http://www.w3.org/1999/xlink" x="0px" y="0px"
	 viewBox="0 0 24 24" style="enable-background:new 0 0 24 24;" xml:space="preserve">
<g>
	<path d="M19,23c-0.2,0-0.4-0.061-0.57-0.179l-2.177-1.513c-0.26-0.181-0.387-0.269-0.467-0.305
		c-0.075-0.034-0.152-0.059-0.23-0.073c-0.092-0.017-0.268-0.017-0.559-0.017H13.2c-1.238,0-1.92,0-2.562-0.326
		c-0.568-0.289-1.021-0.742-1.312-1.311c-0.258-0.507-0.312-1.037-0.324-1.845l-1.367,1.384c-0.567,0.573-0.906,0.917-1.46,0.961
		c-0.466,0.034-0.946-0.153-1.26-0.52c-0.36-0.422-0.36-0.905-0.36-1.706v-1.561c0.002,0.019-0.052-0.021-0.135-0.033
		c-1.736-0.254-3.125-1.644-3.378-3.379C1,12.292,1,12.009,1,11.444V6.8c0-1.838,0-2.76,0.436-3.616
		c0.386-0.757,0.991-1.362,1.748-1.748C4.04,1,4.962,1,6.8,1h7.4c1.837,0,2.76,0,3.616,0.436c0.758,0.386,1.362,0.991,1.748,1.749
		C20,4.04,20,4.962,20,6.8v3.218c0.552,0.029,0.965,0.106,1.362,0.309c0.567,0.29,1.02,0.742,1.311,1.31C23,12.28,23,12.962,23,14.2
		v2.714c0,1.03,0,1.598-0.229,2.148c-0.308,0.742-0.885,1.318-1.625,1.624c-0.341,0.141-0.688,0.194-1.146,0.215V22
		c0,0.372-0.207,0.714-0.537,0.886C19.317,22.962,19.158,23,19,23z M11,15v1.714c0,0.867,0,1.44,0.109,1.654
		c0.095,0.187,0.25,0.342,0.437,0.437c0.214,0.109,0.787,0.109,1.655,0.109h1.797c0.405,0,0.65,0,0.92,0.05
		c0.239,0.044,0.475,0.118,0.697,0.22c0.248,0.112,0.448,0.252,0.78,0.483L18,20.087v-0.173c0-0.266,0.105-0.52,0.293-0.707
		s0.441-0.293,0.707-0.293c0.722,0,1.199,0,1.383-0.076c0.247-0.102,0.438-0.294,0.541-0.541C21,18.113,21,17.636,21,16.914V14.2
		c0-0.867,0-1.44-0.109-1.655c-0.096-0.188-0.248-0.34-0.438-0.437C20.24,12,19.667,12,18.8,12h-5.6c-0.868,0-1.44,0-1.655,0.109
		c-0.186,0.095-0.341,0.25-0.437,0.438C11,12.76,11,13.333,11,14.2V15L11,15z M6.8,3C5.33,3,4.52,3,4.092,3.218
		C3.713,3.411,3.411,3.713,3.218,4.092C3,4.52,3,5.33,3,6.8v4.645c0,0.452,0,0.701,0.021,0.845c0.127,0.868,0.822,1.562,1.689,1.69
		c1.069,0.156,1.845,1.002,1.845,2.012v1.073L9,14.59V14.2c0-1.238,0-1.92,0.327-2.562c0.29-0.569,0.743-1.022,1.311-1.312
		C11.28,10,11.962,10,13.2,10H18V6.8c0-1.47,0-2.28-0.218-2.708c-0.193-0.379-0.495-0.681-0.874-0.874C16.479,3,15.67,3,14.2,3H6.8z
		"/>
</g>
</svg>
