<?xml version="1.0" encoding="iso-8859-1"?>
<!-- Generator: Adobe Illustrator 27.4.0, SVG Export Plug-In . SVG Version: 6.00 Build 0)  -->
<svg version="1.1" id="Layer_1" xmlns="http://www.w3.org/2000/svg" xmlns:xlink="http://www.w3.org/1999/xlink" x="0px" y="0px"
	 viewBox="0 0 24 24" style="enable-background:new 0 0 24 24;" xml:space="preserve">
<g>
	<path d="M2,23c-0.277,0-0.545-0.115-0.735-0.322c-0.222-0.241-0.312-0.574-0.241-0.894l0.611-2.762
		c0.022-0.101,0.038-0.163,0.045-0.212c-0.012-0.02-0.042-0.105-0.089-0.248c-0.218-0.667-0.327-1.359-0.327-2.062
		c0-2.634,1.543-4.907,3.755-5.927C5.006,10.382,5,10.191,5,10c0-4.962,4.061-9,9.053-9c4.991,0,9.053,4.038,9.053,9
		c0,1.098-0.197,2.171-0.586,3.19c-0.044,0.116-0.069,0.178-0.083,0.225c0.007,0.013,0.015,0.066,0.025,0.153l0.402,3.269
		c0.057,0.462,0.1,0.815-0.078,1.201c-0.154,0.336-0.429,0.604-0.772,0.751c-0.384,0.168-0.741,0.115-1.191,0.049l-3.19-0.468
		c-0.091-0.013-0.146-0.022-0.191-0.025c-0.017,0.011-0.084,0.037-0.195,0.079c-1.186,0.445-2.457,0.636-3.729,0.561
		C12.559,21.34,10.281,23,7.631,23c-0.712,0-1.412-0.12-2.082-0.355c-0.142-0.05-0.214-0.077-0.266-0.092
		c-0.006,0.007-0.062,0.017-0.153,0.028l-2.996,0.41C2.09,22.997,2.045,23,2,23z M5.312,20.558c0.161,0.002,0.238,0.01,0.383,0.039
		c0.09,0.017,0.229,0.059,0.495,0.152C6.67,20.919,7.146,21,7.631,21C10.04,21,12,18.981,12,16.5S10.04,12,7.631,12
		s-4.368,2.019-4.368,4.5c0,0.492,0.076,0.976,0.227,1.437c0.104,0.317,0.147,0.478,0.164,0.585c0.024,0.149,0.03,0.269,0.021,0.423
		c-0.007,0.118-0.03,0.25-0.087,0.511l-0.301,1.359L4.859,20.6C5.092,20.568,5.21,20.558,5.312,20.558z M13.981,17
		c0.873,0.004,1.746-0.143,2.56-0.448c0.265-0.1,0.4-0.143,0.504-0.164c0.249-0.054,0.324-0.077,0.877,0.004l2.926,0.429
		l-0.371-3.01c-0.029-0.237-0.038-0.356-0.035-0.464c0.002-0.124,0.016-0.242,0.047-0.383c0.021-0.095,0.062-0.222,0.154-0.466
		c0.31-0.812,0.463-1.645,0.463-2.498c0-3.86-3.164-7-7.053-7S7,6.14,7,10c0,0.011,0,0.021,0,0.032C7.208,10.011,7.418,10,7.631,10
		C11.143,10,14,12.916,14,16.5C14,16.668,13.994,16.835,13.981,17z"/>
</g>
</svg>
