<?xml version="1.0" encoding="iso-8859-1"?>
<!-- Generator: Adobe Illustrator 27.4.0, SVG Export Plug-In . SVG Version: 6.00 Build 0)  -->
<svg version="1.1" id="Layer_1" xmlns="http://www.w3.org/2000/svg" xmlns:xlink="http://www.w3.org/1999/xlink" x="0px" y="0px"
	 viewBox="0 0 24 24" style="enable-background:new 0 0 24 24;" xml:space="preserve">
<g>
	<path d="M3.5,22.46c-0.46,0-0.888-0.206-1.174-0.566C2,21.485,2,21.028,2,20.336V7.8c0-1.838,0-2.76,0.436-3.616
		c0.386-0.757,0.991-1.362,1.748-1.748C5.04,2,5.962,2,7.8,2h8.4c1.837,0,2.76,0,3.616,0.436c0.758,0.386,1.362,0.991,1.748,1.749
		C22,5.04,22,5.962,22,7.8v5.4c0,1.837,0,2.76-0.436,3.616c-0.386,0.758-0.99,1.362-1.749,1.748C18.96,19,18.037,19,16.2,19H9.684
		c-0.555,0-0.834,0-1.032,0.041c-0.178,0.036-0.349,0.096-0.509,0.178c-0.18,0.092-0.395,0.264-0.824,0.606l-2.394,1.916
		C4.382,22.175,4.026,22.46,3.5,22.46z M7.8,4C6.33,4,5.52,4,5.092,4.218C4.713,4.411,4.411,4.713,4.218,5.092C4,5.52,4,6.33,4,7.8
		v12.119l2.061-1.648c0.527-0.421,0.812-0.649,1.172-0.833c0.322-0.164,0.665-0.284,1.018-0.356C8.646,17,9.014,17,9.684,17H16.2
		c1.47,0,2.279,0,2.708-0.219c0.379-0.192,0.681-0.494,0.873-0.872C20,15.479,20,14.67,20,13.2V7.8c0-1.47,0-2.28-0.218-2.708
		c-0.193-0.379-0.495-0.681-0.874-0.874C18.479,4,17.67,4,16.2,4H7.8z M15,13H7c-0.552,0-1-0.448-1-1s0.448-1,1-1h8
		c0.553,0,1,0.448,1,1S15.553,13,15,13z M12,9.5H7c-0.552,0-1-0.448-1-1s0.448-1,1-1h5c0.552,0,1,0.448,1,1S12.552,9.5,12,9.5z"/>
</g>
</svg>
