<?xml version="1.0" encoding="iso-8859-1"?>
<!-- Generator: Adobe Illustrator 27.4.0, SVG Export Plug-In . SVG Version: 6.00 Build 0)  -->
<svg version="1.1" id="Layer_1" xmlns="http://www.w3.org/2000/svg" xmlns:xlink="http://www.w3.org/1999/xlink" x="0px" y="0px"
	 viewBox="0 0 24 24" style="enable-background:new 0 0 24 24;" xml:space="preserve">
<g>
	<path d="M12,22c-1.302,0-2.567-0.246-3.761-0.731c-0.124-0.051-0.19-0.079-0.242-0.096c-0.014,0.008-0.073,0.02-0.169,0.036
		L4.27,21.802c-0.474,0.08-0.848,0.144-1.251-0.03c-0.359-0.155-0.638-0.436-0.789-0.791c-0.173-0.4-0.11-0.774-0.032-1.247
		l0.594-3.561c0.016-0.098,0.028-0.157,0.032-0.206c-0.012-0.017-0.042-0.086-0.088-0.199C2.246,14.565,2,13.3,2,12
		C2,6.486,6.486,2,12,2c5.514,0,10,4.486,10,10C22,17.514,17.514,22,12,22z M8.016,19.178c0.153,0,0.284,0.015,0.436,0.048
		c0.109,0.024,0.25,0.072,0.521,0.182C9.946,19.804,10.958,20,12,20c4.411,0,8-3.589,8-8s-3.589-8-8-8s-8,3.589-8,8
		c0,1.041,0.197,2.053,0.585,3.009c0.115,0.284,0.164,0.426,0.189,0.539c0.034,0.147,0.048,0.279,0.048,0.437
		c0,0.119-0.015,0.253-0.058,0.513l-0.548,3.286l3.281-0.547C7.762,19.192,7.895,19.178,8.016,19.178z"/>
</g>
</svg>
