<?xml version="1.0" encoding="iso-8859-1"?>
<!-- Generator: Adobe Illustrator 27.4.0, SVG Export Plug-In . SVG Version: 6.00 Build 0)  -->
<svg version="1.1" id="Layer_1" xmlns="http://www.w3.org/2000/svg" xmlns:xlink="http://www.w3.org/1999/xlink" x="0px" y="0px"
	 viewBox="0 0 24 24" style="enable-background:new 0 0 24 24;" xml:space="preserve">
<g>
	<path d="M12.5,21c-1.177,0-2.326-0.213-3.414-0.632c-0.118-0.046-0.171-0.067-0.213-0.08c-0.01,0.007-0.06,0.013-0.14,0.021
		l-5.124,0.53c-0.624,0.062-1.069,0.109-1.5-0.154c-0.375-0.228-0.632-0.61-0.701-1.047c-0.078-0.5,0.124-0.875,0.43-1.442
		l1.637-3.031c0.074-0.137,0.124-0.22,0.151-0.291c-0.021-0.026-0.064-0.142-0.129-0.333C3.167,13.56,3,12.539,3,11.5
		C3,6.262,7.261,2,12.5,2c5.239,0,9.5,4.262,9.5,9.5S17.738,21,12.5,21z M8.907,18.294c0.022,0,0.043,0,0.064,0.001
		c0.129,0.004,0.229,0.017,0.369,0.049c0.09,0.021,0.208,0.06,0.426,0.144C10.663,18.832,11.57,19,12.5,19
		c4.136,0,7.5-3.364,7.5-7.5S16.636,4,12.5,4C8.364,4,5,7.364,5,11.5c0,0.821,0.131,1.628,0.391,2.397
		c0.131,0.388,0.202,0.599,0.222,0.845c0.018,0.232,0.001,0.426-0.055,0.648c-0.062,0.244-0.166,0.436-0.323,0.726l-1.456,2.695
		l4.745-0.491C8.706,18.301,8.816,18.294,8.907,18.294z M12.66,16c-0.552,0-1.005-0.447-1.005-1s0.443-1,0.995-1h0.01
		c0.552,0,1,0.447,1,1S13.212,16,12.66,16z M12.621,13c-0.419,0-0.809-0.265-0.949-0.684c-0.175-0.524,0.108-1.09,0.632-1.265
		c0.544-0.186,1.565-0.758,1.565-1.3c0.001-0.296-0.104-0.582-0.294-0.808c-0.188-0.225-0.453-0.376-0.743-0.426
		c-0.291-0.047-0.589,0.005-0.844,0.154c-0.254,0.149-0.448,0.385-0.545,0.663c-0.183,0.521-0.754,0.794-1.275,0.611
		C9.646,9.762,9.373,9.191,9.556,8.67c0.254-0.723,0.758-1.334,1.419-1.723c0.66-0.388,1.441-0.531,2.195-0.401
		c0.756,0.129,1.443,0.523,1.937,1.11s0.764,1.331,0.763,2.097c0,2.156-2.632,3.095-2.932,3.195C12.832,12.984,12.725,13,12.621,13z
		"/>
</g>
</svg>
