<?xml version="1.0" encoding="iso-8859-1"?>
<!-- Generator: Adobe Illustrator 27.4.0, SVG Export Plug-In . SVG Version: 6.00 Build 0)  -->
<svg version="1.1" id="Layer_1" xmlns="http://www.w3.org/2000/svg" xmlns:xlink="http://www.w3.org/1999/xlink" x="0px" y="0px"
	 viewBox="0 0 24 24" style="enable-background:new 0 0 24 24;" xml:space="preserve">
<g>
	<path d="M12.5,21c-1.177,0-2.326-0.213-3.414-0.632c-0.118-0.046-0.171-0.067-0.213-0.08c-0.01,0.007-0.06,0.013-0.14,0.021
		l-5.124,0.53c-0.624,0.062-1.069,0.109-1.5-0.154c-0.375-0.228-0.632-0.61-0.701-1.047c-0.078-0.5,0.124-0.875,0.43-1.442
		l1.637-3.031c0.074-0.137,0.124-0.22,0.151-0.291c-0.021-0.026-0.064-0.142-0.129-0.333C3.167,13.56,3,12.539,3,11.5
		C3,6.262,7.261,2,12.5,2c5.239,0,9.5,4.262,9.5,9.5S17.738,21,12.5,21z M8.907,18.294c0.022,0,0.043,0,0.064,0.001
		c0.129,0.004,0.229,0.017,0.369,0.049c0.09,0.021,0.208,0.06,0.426,0.144C10.663,18.832,11.57,19,12.5,19
		c4.136,0,7.5-3.364,7.5-7.5S16.636,4,12.5,4C8.364,4,5,7.364,5,11.5c0,0.821,0.131,1.628,0.391,2.397
		c0.131,0.388,0.202,0.599,0.222,0.845c0.018,0.232,0.001,0.426-0.055,0.648c-0.062,0.244-0.166,0.436-0.323,0.726l-1.456,2.695
		l4.745-0.491C8.706,18.301,8.816,18.294,8.907,18.294z"/>
</g>
<g>
	<path d="M12.498,16.671c-0.196,0-0.393-0.028-0.581-0.085c-0.42-0.125-0.696-0.372-1.113-0.745
		c-1.542-1.383-2.556-2.381-3.022-2.973c-1.218-1.548-0.98-3.766,0.542-5.05c1.229-1.038,2.889-1.076,4.175-0.199
		c1.271-0.86,2.923-0.824,4.159,0.19c1.544,1.267,1.787,3.489,0.553,5.058c-0.47,0.597-1.483,1.594-3.013,2.965
		c-0.426,0.381-0.702,0.628-1.129,0.755C12.887,16.643,12.693,16.671,12.498,16.671z M10.517,8.997c-0.3,0-0.61,0.103-0.903,0.35
		c-0.705,0.595-0.817,1.577-0.26,2.285c0.385,0.488,1.37,1.451,2.775,2.712c0.167,0.149,0.347,0.311,0.407,0.345
		c-0.02-0.034,0.16-0.195,0.319-0.338c1.411-1.265,2.396-2.228,2.783-2.719c0.564-0.717,0.457-1.695-0.249-2.275
		c-0.774-0.634-1.649-0.314-2.137,0.249c-0.381,0.438-1.132,0.438-1.512,0C11.438,9.254,10.991,8.997,10.517,8.997z"/>
</g>
</svg>
