<?xml version="1.0" encoding="iso-8859-1"?>
<!-- Generator: Adobe Illustrator 27.4.0, SVG Export Plug-In . SVG Version: 6.00 Build 0)  -->
<svg version="1.1" id="Layer_1" xmlns="http://www.w3.org/2000/svg" xmlns:xlink="http://www.w3.org/1999/xlink" x="0px" y="0px"
	 viewBox="0 0 24 24" style="enable-background:new 0 0 24 24;" xml:space="preserve">
<g>
	<path d="M7.5,22.46c-0.46,0-0.888-0.206-1.174-0.566C6,21.485,6,21.028,6,20.336v-1.345c-0.42-0.013-0.729-0.045-1.036-0.128
		c-1.375-0.368-2.459-1.452-2.828-2.828C2,15.525,2,15.016,2,14V7.8c0-1.838,0-2.76,0.436-3.616
		c0.386-0.757,0.991-1.362,1.748-1.748C5.04,2,5.962,2,7.8,2h8.4c1.837,0,2.76,0,3.616,0.436c0.758,0.386,1.362,0.991,1.748,1.749
		C22,5.04,22,5.962,22,7.8v5.4c0,1.837,0,2.76-0.436,3.616c-0.386,0.758-0.99,1.362-1.749,1.748C18.96,19,18.037,19,16.2,19h-2.517
		c-0.556,0-0.834,0-1.032,0.041c-0.178,0.036-0.349,0.096-0.509,0.178c-0.18,0.092-0.395,0.264-0.824,0.606l-2.394,1.916
		C8.382,22.175,8.026,22.46,7.5,22.46z M8.013,20.89h0.01H8.013z M7.8,4C6.33,4,5.52,4,5.092,4.218
		C4.713,4.411,4.411,4.713,4.218,5.092C4,5.52,4,6.33,4,7.8V14c0,0.814,0,1.264,0.068,1.519c0.184,0.687,0.726,1.229,1.414,1.413
		C5.737,17,6.186,17,7,17c0.552,0,1,0.447,1,1v1.919l2.061-1.648c0.527-0.421,0.812-0.649,1.172-0.833
		c0.322-0.164,0.665-0.284,1.018-0.356C12.646,17,13.015,17,13.684,17H16.2c1.47,0,2.279,0,2.708-0.219
		c0.379-0.192,0.681-0.494,0.873-0.872C20,15.479,20,14.67,20,13.2V7.8c0-1.47,0-2.28-0.218-2.708
		c-0.193-0.379-0.495-0.681-0.874-0.874C18.479,4,17.67,4,16.2,4H7.8z"/>
</g>
<g>
	<path d="M11.999,15.421c-0.196,0-0.394-0.028-0.581-0.085c-0.421-0.126-0.697-0.373-1.115-0.747
		c-1.537-1.378-2.551-2.375-3.02-2.972C6.065,10.07,6.303,7.852,7.825,6.568c1.229-1.036,2.889-1.078,4.174-0.199
		c1.274-0.862,2.925-0.824,4.16,0.19c1.544,1.268,1.786,3.49,0.552,5.059c-0.467,0.594-1.48,1.591-3.011,2.963
		c-0.429,0.383-0.704,0.63-1.13,0.756C12.387,15.394,12.193,15.421,11.999,15.421z M10.018,7.747c-0.3,0-0.61,0.103-0.903,0.35
		c-0.705,0.595-0.817,1.577-0.26,2.285c0.387,0.492,1.373,1.455,2.775,2.711c0.167,0.15,0.347,0.312,0.407,0.346
		c-0.02-0.034,0.16-0.195,0.319-0.337c1.413-1.267,2.398-2.23,2.783-2.719c0.565-0.718,0.458-1.696-0.249-2.276
		c-0.771-0.634-1.648-0.315-2.137,0.249c-0.378,0.439-1.131,0.44-1.512,0C10.938,8.004,10.492,7.747,10.018,7.747z"/>
</g>
</svg>
