<?xml version="1.0" encoding="iso-8859-1"?>
<!-- Generator: Adobe Illustrator 27.4.0, SVG Export Plug-In . SVG Version: 6.00 Build 0)  -->
<svg version="1.1" id="Layer_1" xmlns="http://www.w3.org/2000/svg" xmlns:xlink="http://www.w3.org/1999/xlink" x="0px" y="0px"
	 viewBox="0 0 24 24" style="enable-background:new 0 0 24 24;" xml:space="preserve">
<g>
	<path d="M12.5,21c-1.177,0-2.326-0.213-3.414-0.633c-0.118-0.045-0.171-0.066-0.213-0.079c-0.01,0.007-0.06,0.013-0.14,0.021
		l-5.124,0.53c-0.624,0.062-1.069,0.109-1.5-0.154c-0.375-0.228-0.632-0.61-0.701-1.047c-0.078-0.5,0.124-0.875,0.43-1.442
		l1.637-3.031c0.074-0.137,0.124-0.22,0.151-0.291c-0.021-0.026-0.064-0.142-0.129-0.333C3.167,13.56,3,12.539,3,11.5
		c0-4.939,3.704-9.005,8.616-9.459c0.551-0.052,1.037,0.354,1.087,0.904c0.051,0.55-0.354,1.037-0.904,1.087
		C7.923,4.391,5,7.601,5,11.5c0,0.821,0.131,1.628,0.391,2.397c0.131,0.388,0.202,0.599,0.222,0.845
		c0.018,0.232,0.001,0.426-0.055,0.648c-0.062,0.244-0.166,0.436-0.323,0.726l-1.456,2.695l4.745-0.491
		c0.229-0.024,0.345-0.03,0.448-0.025c0.129,0.004,0.229,0.017,0.369,0.049c0.09,0.021,0.208,0.06,0.426,0.144
		C10.663,18.832,11.57,19,12.5,19c3.904,0,7.115-2.928,7.468-6.809c0.051-0.549,0.524-0.947,1.087-0.905
		c0.55,0.05,0.955,0.537,0.905,1.087C21.512,17.291,17.444,21,12.5,21z M18,9.998c-1.025,0-2.049-0.39-2.829-1.17
		c-1.559-1.56-1.559-4.097,0-5.656s4.097-1.56,5.657,0C21.584,3.927,22,4.932,22,6s-0.416,2.073-1.172,2.828
		C20.049,9.608,19.023,9.998,18,9.998z M18,4c-0.535,0-1.037,0.208-1.415,0.586c-0.779,0.78-0.779,2.048,0,2.828
		c0.78,0.781,2.051,0.779,2.829,0C19.792,7.036,20,6.534,20,6s-0.208-1.036-0.586-1.414l0,0C19.036,4.208,18.534,4,18,4z"/>
</g>
</svg>
