<?xml version="1.0" encoding="iso-8859-1"?>
<!-- Generator: Adobe Illustrator 27.4.0, SVG Export Plug-In . SVG Version: 6.00 Build 0)  -->
<svg version="1.1" id="Layer_1" xmlns="http://www.w3.org/2000/svg" xmlns:xlink="http://www.w3.org/1999/xlink" x="0px" y="0px"
	 viewBox="0 0 24 24" style="enable-background:new 0 0 24 24;" xml:space="preserve">
<g>
	<path d="M7.5,22.46c-0.46,0-0.888-0.206-1.174-0.566C6,21.485,6,21.028,6,20.336v-1.345c-0.42-0.013-0.729-0.045-1.036-0.128
		c-1.375-0.368-2.459-1.452-2.828-2.828C2,15.525,2,15.016,2,14V8.8c0-1.838,0-2.76,0.436-3.616
		c0.386-0.757,0.991-1.362,1.748-1.748C5.04,3,5.962,3,7.8,3H11c0.552,0,1,0.448,1,1s-0.448,1-1,1H7.8C6.33,5,5.52,5,5.092,5.218
		C4.713,5.411,4.411,5.713,4.218,6.092C4,6.52,4,7.33,4,8.8V14c0,0.814,0,1.264,0.068,1.519c0.184,0.687,0.726,1.229,1.414,1.413
		C5.737,17,6.186,17,7,17c0.552,0,1,0.447,1,1v1.919l2.061-1.648c0.527-0.421,0.812-0.649,1.172-0.833
		c0.322-0.164,0.665-0.284,1.018-0.356C12.646,17,13.015,17,13.684,17H15.2c1.47,0,2.279,0,2.708-0.219
		c0.379-0.192,0.681-0.494,0.873-0.872C19,15.479,19,14.67,19,13.2V13c0-0.552,0.447-1,1-1s1,0.448,1,1v0.2
		c0,1.837,0,2.76-0.436,3.616c-0.386,0.758-0.99,1.362-1.749,1.748C17.96,19,17.037,19,15.2,19h-1.517c-0.556,0-0.834,0-1.032,0.041
		c-0.178,0.036-0.349,0.096-0.509,0.178c-0.18,0.092-0.395,0.264-0.824,0.606l-2.394,1.916C8.382,22.175,8.026,22.46,7.5,22.46z
		 M8.013,20.89L8.013,20.89L8.013,20.89z M18,9.998c-1.024,0-2.049-0.39-2.828-1.17C14.416,8.073,14,7.068,14,6
		s0.416-2.073,1.172-2.828c1.559-1.56,4.098-1.56,5.656,0C21.584,3.927,22,4.932,22,6s-0.416,2.073-1.172,2.828
		C20.049,9.608,19.024,9.998,18,9.998z M18,4.001c-0.512,0-1.024,0.195-1.414,0.584C16.208,4.964,16,5.466,16,6
		s0.208,1.036,0.586,1.414c0.779,0.779,2.049,0.779,2.828,0C19.792,7.036,20,6.534,20,6s-0.208-1.036-0.586-1.414l0,0
		C19.024,4.196,18.512,4.001,18,4.001z"/>
</g>
</svg>
