<?xml version="1.0" encoding="iso-8859-1"?>
<!-- Generator: Adobe Illustrator 27.4.0, SVG Export Plug-In . SVG Version: 6.00 Build 0)  -->
<svg version="1.1" id="Layer_1" xmlns="http://www.w3.org/2000/svg" xmlns:xlink="http://www.w3.org/1999/xlink" x="0px" y="0px"
	 viewBox="0 0 24 24" style="enable-background:new 0 0 24 24;" xml:space="preserve">
<g>
	<path d="M7.5,22.46c-0.46,0-0.888-0.206-1.174-0.566C6,21.485,6,21.028,6,20.336v-1.345c-0.42-0.013-0.729-0.045-1.036-0.128
		c-1.375-0.368-2.459-1.452-2.828-2.828C2,15.525,2,15.016,2,14V7.8c0-1.838,0-2.76,0.436-3.616
		c0.386-0.757,0.991-1.362,1.748-1.748C5.04,2,5.962,2,7.8,2h8.4c1.837,0,2.76,0,3.616,0.436c0.758,0.386,1.362,0.991,1.748,1.749
		C22,5.04,22,5.962,22,7.8v5.4c0,1.837,0,2.76-0.436,3.616c-0.386,0.758-0.99,1.362-1.749,1.748C18.96,19,18.037,19,16.2,19h-2.517
		c-0.556,0-0.834,0-1.032,0.041c-0.178,0.036-0.349,0.096-0.509,0.178c-0.18,0.092-0.395,0.264-0.824,0.606l-2.394,1.916
		C8.382,22.175,8.026,22.46,7.5,22.46z M8.013,20.89h0.01H8.013z M7.8,4C6.33,4,5.52,4,5.092,4.218
		C4.713,4.411,4.411,4.713,4.218,5.092C4,5.52,4,6.33,4,7.8V14c0,0.814,0,1.264,0.068,1.519c0.184,0.687,0.726,1.229,1.414,1.413
		C5.737,17,6.186,17,7,17c0.552,0,1,0.447,1,1v1.919l2.061-1.648c0.527-0.421,0.812-0.649,1.172-0.833
		c0.322-0.164,0.665-0.284,1.018-0.356C12.646,17,13.015,17,13.684,17H16.2c1.47,0,2.279,0,2.708-0.219
		c0.379-0.192,0.681-0.494,0.873-0.872C20,15.479,20,14.67,20,13.2V7.8c0-1.47,0-2.28-0.218-2.708
		c-0.193-0.379-0.495-0.681-0.874-0.874C18.479,4,17.67,4,16.2,4H7.8z M12.16,15c-0.552,0-1.005-0.447-1.005-1s0.443-1,0.995-1h0.01
		c0.552,0,1,0.447,1,1S12.712,15,12.16,15z M12.121,12c-0.419,0-0.809-0.265-0.949-0.684c-0.175-0.524,0.108-1.09,0.632-1.265
		c0.543-0.185,1.564-0.758,1.564-1.3c0.001-0.296-0.104-0.582-0.294-0.808c-0.189-0.225-0.453-0.376-0.743-0.426
		c-0.289-0.047-0.589,0.005-0.843,0.154c-0.254,0.149-0.448,0.385-0.545,0.663c-0.183,0.521-0.755,0.794-1.275,0.611
		C9.147,8.762,8.874,8.191,9.057,7.67c0.254-0.723,0.758-1.334,1.419-1.723s1.442-0.53,2.194-0.401
		c0.756,0.129,1.443,0.523,1.937,1.11s0.764,1.331,0.763,2.097c0,2.155-2.632,3.095-2.932,3.195C12.333,11.983,12.226,12,12.121,12z
		"/>
</g>
</svg>
