<?xml version="1.0" encoding="iso-8859-1"?>
<!-- Generator: Adobe Illustrator 27.4.0, SVG Export Plug-In . SVG Version: 6.00 Build 0)  -->
<svg version="1.1" id="Layer_1" xmlns="http://www.w3.org/2000/svg" xmlns:xlink="http://www.w3.org/1999/xlink" x="0px" y="0px"
	 viewBox="0 0 24 24" style="enable-background:new 0 0 24 24;" xml:space="preserve">
<g>
	<path d="M22,23c-0.256,0-0.512-0.098-0.707-0.293l-3.14-3.139C16.494,21.125,14.305,22,12,22c-4.962,0-9-4.037-9-9v-1
		c0-0.552,0.448-1,1-1s1,0.448,1,1v1c0,3.859,3.14,7,7,7c1.771,0,3.453-0.664,4.738-1.848l-1.416-1.416
		C14.416,17.541,13.236,18,12,18c-2.757,0-5-2.243-5-5V8.414L1.293,2.707c-0.391-0.391-0.391-1.023,0-1.414s1.023-0.391,1.414,0
		l16.07,16.07c0.001,0.001,0.002,0.001,0.002,0.002c0.048,0.039,0.09,0.082,0.128,0.128l3.8,3.8c0.391,0.391,0.391,1.023,0,1.414
		C22.512,22.902,22.256,23,22,23z M9,10.416V13c0,1.654,1.346,3,3,3c0.7,0,1.37-0.245,1.9-0.679L9,10.416z M16,11.4
		c-0.553,0-1-0.448-1-1V7c0-1.654-1.346-3-3-3c-0.7,0-1.355,0.233-1.897,0.675C9.675,5.024,9.046,4.961,8.696,4.533
		S8.411,3.476,8.838,3.126C9.728,2.4,10.851,2,12,2c2.757,0,5,2.243,5,5v3.4C17,10.952,16.553,11.4,16,11.4z"/>
</g>
</svg>
