<?xml version="1.0" encoding="iso-8859-1"?>
<!-- Generator: Adobe Illustrator 27.4.0, SVG Export Plug-In . SVG Version: 6.00 Build 0)  -->
<svg version="1.1" id="Layer_1" xmlns="http://www.w3.org/2000/svg" xmlns:xlink="http://www.w3.org/1999/xlink" x="0px" y="0px"
	 viewBox="0 0 24 24" style="enable-background:new 0 0 24 24;" xml:space="preserve">
<g>
	<path d="M12,22c-4.962,0-9-4.037-9-9v-1c0-0.552,0.448-1,1-1s1,0.448,1,1v1c0,3.859,3.14,7,7,7c3.859,0,7-3.141,7-7v-1
		c0-0.552,0.447-1,1-1s1,0.448,1,1v1C21,17.963,16.963,22,12,22z M12,18c-2.757,0-5-2.243-5-5V7c0-2.757,2.243-5,5-5s5,2.243,5,5v6
		C17,15.757,14.757,18,12,18z M12,4c-1.654,0-3,1.346-3,3v6c0,1.654,1.346,3,3,3s3-1.346,3-3V7C15,5.346,13.654,4,12,4z"/>
</g>
</svg>
