<?xml version="1.0" encoding="iso-8859-1"?>
<!-- Generator: Adobe Illustrator 27.4.0, SVG Export Plug-In . SVG Version: 6.00 Build 0)  -->
<svg version="1.1" id="Layer_1" xmlns="http://www.w3.org/2000/svg" xmlns:xlink="http://www.w3.org/1999/xlink" x="0px" y="0px"
	 viewBox="0 0 24 24" style="enable-background:new 0 0 24 24;" xml:space="preserve">
<g>
	<path d="M12,23H3c-0.552,0-1-0.447-1-1s0.448-1,1-1h9c0.552,0,1,0.447,1,1S12.552,23,12,23z M16,22.419
		c-0.395,0-0.77-0.235-0.927-0.625c-0.207-0.512,0.039-1.095,0.552-1.302C18.282,19.415,20,16.867,20,14c0-3.86-3.141-7-7-7
		c-0.336,0-0.67,0.024-1,0.071v5.691c0.475,0.424,0.812,0.998,0.942,1.652C13,14.704,13,14.986,13,15.5s0,0.796-0.058,1.086
		c-0.237,1.193-1.162,2.118-2.356,2.356C10.294,19,10.012,19,9.5,19h-4c-0.512,0-0.794,0-1.083-0.057
		c-1.196-0.239-2.121-1.164-2.359-2.357C2,16.296,2,16.014,2,15.5s0-0.796,0.058-1.086C2.188,13.76,2.525,13.186,3,12.762V5.5
		C3,3.019,5.019,1,7.5,1c2.332,0,4.255,1.783,4.479,4.058C12.317,5.019,12.658,5,13,5c4.963,0,9,4.038,9,9
		c0,3.686-2.208,6.962-5.625,8.346C16.253,22.396,16.125,22.419,16,22.419z M5.5,14c-0.361,0-0.599,0-0.697,0.02
		c-0.396,0.079-0.705,0.387-0.784,0.785C4,14.901,4,15.14,4,15.5s0,0.599,0.019,0.695c0.08,0.398,0.388,0.706,0.786,0.786
		C4.901,17,5.139,17,5.5,17h4c0.361,0,0.599,0,0.697-0.02c0.396-0.079,0.705-0.387,0.784-0.785C11,16.099,11,15.86,11,15.5
		s0-0.599-0.019-0.695c-0.08-0.398-0.388-0.706-0.786-0.786C10.099,14,9.861,14,9.5,14H5.5z M5,12h5V6.273c0-0.015,0-0.029,0-0.043
		V5.5C10,4.122,8.878,3,7.5,3S5,4.122,5,5.5V12z"/>
</g>
</svg>
