<?xml version="1.0" encoding="iso-8859-1"?>
<!-- Generator: Adobe Illustrator 27.4.0, SVG Export Plug-In . SVG Version: 6.00 Build 0)  -->
<svg version="1.1" id="Layer_1" xmlns="http://www.w3.org/2000/svg" xmlns:xlink="http://www.w3.org/1999/xlink" x="0px" y="0px"
	 viewBox="0 0 24 24" style="enable-background:new 0 0 24 24;" xml:space="preserve">
<g>
	<path d="M16,23H8c-0.552,0-1-0.447-1-1s0.448-1,1-1h3v-1.062C7.059,19.444,4,16.072,4,12v-2c0-0.552,0.448-1,1-1s1,0.448,1,1v2
		c0,3.309,2.691,6,6,6s6-2.691,6-6v-2c0-0.552,0.447-1,1-1s1,0.448,1,1v2c0,4.072-3.06,7.444-7,7.938V21h3c0.553,0,1,0.447,1,1
		S16.553,23,16,23z M12,16c-2.206,0-4-1.794-4-4V5c0-2.206,1.794-4,4-4c2.206,0,4,1.794,4,4v7C16,14.206,14.206,16,12,16z M12,3
		c-1.103,0-2,0.897-2,2v7c0,1.103,0.897,2,2,2c1.103,0,2-0.897,2-2V5C14,3.897,13.103,3,12,3z"/>
</g>
</svg>
