<?xml version="1.0" encoding="iso-8859-1"?>
<!-- Generator: Adobe Illustrator 27.4.0, SVG Export Plug-In . SVG Version: 6.00 Build 0)  -->
<svg version="1.1" id="Layer_1" xmlns="http://www.w3.org/2000/svg" xmlns:xlink="http://www.w3.org/1999/xlink" x="0px" y="0px"
	 viewBox="0 0 24 24" style="enable-background:new 0 0 24 24;" xml:space="preserve">
<g>
	<path d="M22,23c-0.256,0-0.512-0.098-0.707-0.293l-4.39-4.39c-1.106,0.86-2.445,1.438-3.903,1.62V21h3c0.553,0,1,0.447,1,1
		s-0.447,1-1,1H8c-0.552,0-1-0.447-1-1s0.448-1,1-1h3v-1.062C7.059,19.444,4,16.072,4,12v-2c0-0.552,0.448-1,1-1s1,0.448,1,1v2
		c0,3.309,2.691,6,6,6c1.294,0,2.493-0.412,3.475-1.111l-1.441-1.441C13.424,15.808,12.727,16,12,16c-2.206,0-4-1.794-4-4V9.414
		L1.293,2.707c-0.391-0.391-0.391-1.023,0-1.414s1.023-0.391,1.414,0l12.123,12.12c0.016,0.016,0.03,0.031,0.044,0.047l2.015,2.015
		C17.588,14.493,18,13.294,18,12v-2c0-0.552,0.447-1,1-1s1,0.448,1,1v2c0,1.846-0.629,3.548-1.683,4.903l4.39,4.39
		c0.391,0.391,0.391,1.023,0,1.414C22.512,22.902,22.256,23,22,23z M10,11.414V12c0,1.103,0.897,2,2,2
		c0.178,0,0.352-0.022,0.519-0.067L10,11.414z M15,10.4c-0.553,0-1-0.448-1-1V5c0-1.103-0.897-2-2-2
		c-0.765,0-1.452,0.426-1.792,1.111c-0.246,0.494-0.847,0.694-1.341,0.45c-0.495-0.246-0.696-0.847-0.45-1.341
		C9.098,1.851,10.471,1,12,1c2.206,0,4,1.794,4,4v4.4C16,9.952,15.553,10.4,15,10.4z"/>
</g>
</svg>
