<?xml version="1.0" encoding="iso-8859-1"?>
<!-- Generator: Adobe Illustrator 27.4.0, SVG Export Plug-In . SVG Version: 6.00 Build 0)  -->
<svg version="1.1" id="Layer_1" xmlns="http://www.w3.org/2000/svg" xmlns:xlink="http://www.w3.org/1999/xlink" x="0px" y="0px"
	 viewBox="0 0 24 24" style="enable-background:new 0 0 24 24;" xml:space="preserve">
<g>
	<path d="M3,22c-0.256,0-0.512-0.098-0.707-0.293c-0.391-0.391-0.391-1.023,0-1.414L7.586,15H4c-0.552,0-1-0.447-1-1s0.448-1,1-1h6
		c0.001,0,0.002,0,0.003,0l0,0c0.134,0,0.262,0.027,0.378,0.075c0.119,0.049,0.23,0.121,0.326,0.218s0.169,0.207,0.218,0.326
		C10.973,13.735,11,13.863,11,13.997l0,0c0,0.001,0,0.002,0,0.003v6c0,0.553-0.448,1-1,1s-1-0.447-1-1v-3.586l-5.293,5.293
		C3.512,21.902,3.256,22,3,22z M20,11h-6c-0.001,0-0.002,0-0.003,0l0,0c-0.134,0-0.262-0.027-0.378-0.075
		c-0.119-0.049-0.229-0.122-0.326-0.218s-0.169-0.208-0.218-0.326C13.027,10.265,13,10.137,13,10.003l0,0c0-0.001,0-0.002,0-0.003V4
		c0-0.552,0.447-1,1-1s1,0.448,1,1v3.586l5.293-5.293c0.391-0.391,1.023-0.391,1.414,0s0.391,1.023,0,1.414L16.414,9H20
		c0.553,0,1,0.448,1,1S20.553,11,20,11z"/>
</g>
</svg>
