<?xml version="1.0" encoding="iso-8859-1"?>
<!-- Generator: Adobe Illustrator 27.4.0, SVG Export Plug-In . SVG Version: 6.00 Build 0)  -->
<svg version="1.1" id="Layer_1" xmlns="http://www.w3.org/2000/svg" xmlns:xlink="http://www.w3.org/1999/xlink" x="0px" y="0px"
	 viewBox="0 0 24 24" style="enable-background:new 0 0 24 24;" xml:space="preserve">
<g>
	<path d="M16,22c-0.553,0-1-0.447-1-1v-0.2c0-1.837,0-2.76,0.436-3.616c0.386-0.758,0.99-1.362,1.749-1.748
		C18.039,15,19.02,15,20.8,15H21c0.553,0,1,0.447,1,1s-0.447,1-1,1h-0.2c-1.471,0-2.28,0-2.708,0.218
		c-0.379,0.193-0.681,0.495-0.873,0.873C17,18.521,17,19.33,17,20.8V21C17,21.553,16.553,22,16,22z M8,22c-0.552,0-1-0.447-1-1v-0.2
		c0-1.47,0-2.279-0.218-2.708c-0.193-0.379-0.495-0.681-0.873-0.873C5.48,17,4.67,17,3.2,17H3c-0.552,0-1-0.447-1-1s0.448-1,1-1h0.2
		c1.838,0,2.761,0,3.616,0.437c0.757,0.385,1.362,0.989,1.748,1.747C9,18.04,9,18.963,9,20.8V21C9,21.553,8.552,22,8,22z M21,9h-0.2
		c-1.78,0-2.761,0-3.616-0.436c-0.758-0.386-1.362-0.991-1.748-1.749C15,5.96,15,5.038,15,3.2V3c0-0.552,0.447-1,1-1s1,0.448,1,1
		v0.2c0,1.47,0,2.28,0.218,2.708c0.193,0.379,0.495,0.681,0.874,0.874C18.52,7,19.329,7,20.8,7H21c0.553,0,1,0.448,1,1
		S21.553,9,21,9z M3.2,9H3C2.448,9,2,8.552,2,8s0.448-1,1-1h0.2c1.47,0,2.28,0,2.708-0.218c0.379-0.193,0.681-0.495,0.874-0.874
		C7,5.48,7,4.67,7,3.2V3c0-0.552,0.448-1,1-1s1,0.448,1,1v0.2c0,1.838,0,2.76-0.436,3.616C8.178,7.573,7.573,8.178,6.816,8.564
		C5.96,9,5.038,9,3.2,9z"/>
</g>
</svg>
