<?xml version="1.0" encoding="iso-8859-1"?>
<!-- Generator: Adobe Illustrator 27.4.0, SVG Export Plug-In . SVG Version: 6.00 Build 0)  -->
<svg version="1.1" id="Layer_1" xmlns="http://www.w3.org/2000/svg" xmlns:xlink="http://www.w3.org/1999/xlink" x="0px" y="0px"
	 viewBox="0 0 24 24" style="enable-background:new 0 0 24 24;" xml:space="preserve">
<g>
	<path d="M19,23H5c-1.03,0-1.597,0-2.148-0.229c-0.741-0.308-1.317-0.884-1.624-1.624C1,20.596,1,20.029,1,19s0-1.596,0.229-2.148
		c0.306-0.739,0.882-1.315,1.623-1.623c0.021-0.009,0.043-0.018,0.064-0.025C-0.002,10.924,0.439,5.004,4.222,1.222
		c0.391-0.391,1.023-0.391,1.414,0s0.391,1.024,0,1.414C2.258,6.014,2.137,11.475,5.292,15H11V9c0-0.552,0.448-1,1-1s1,0.448,1,1v6
		h5.709c3.154-3.525,3.033-8.986-0.345-12.364c-0.391-0.39-0.391-1.023,0-1.414s1.023-0.391,1.414,0
		c3.782,3.782,4.224,9.702,1.306,13.981c0.021,0.008,0.043,0.017,0.064,0.025c0.74,0.307,1.316,0.883,1.623,1.623
		C23,17.404,23,17.971,23,19s0,1.596-0.229,2.148c-0.307,0.74-0.883,1.316-1.623,1.623C20.596,23,20.029,23,19,23z M5,17
		c-0.722,0-1.199,0-1.383,0.076c-0.247,0.103-0.439,0.294-0.541,0.54C3,17.801,3,18.278,3,19s0,1.199,0.076,1.383
		c0.102,0.247,0.294,0.438,0.542,0.541C3.801,21,4.278,21,5,21h14c0.722,0,1.199,0,1.383-0.076c0.247-0.103,0.438-0.294,0.541-0.541
		C21,20.199,21,19.722,21,19s0-1.199-0.076-1.383c-0.103-0.247-0.294-0.438-0.541-0.541C20.199,17,19.722,17,19,17H5z M7.757,14.242
		c-0.256,0-0.512-0.098-0.707-0.293C5.728,12.627,5,10.87,5,9s0.728-3.627,2.05-4.95c0.391-0.391,1.023-0.391,1.414,0
		s0.391,1.023,0,1.414C7.52,6.409,7,7.665,7,9s0.52,2.591,1.464,3.535c0.391,0.39,0.391,1.023,0,1.414
		C8.269,14.145,8.013,14.242,7.757,14.242z M16.243,14.242c-0.256,0-0.512-0.098-0.707-0.293c-0.391-0.391-0.391-1.023,0-1.414
		c1.949-1.949,1.949-5.121,0-7.071c-0.391-0.391-0.391-1.024,0-1.414c0.391-0.391,1.023-0.391,1.414,0
		c2.729,2.729,2.729,7.17,0,9.899C16.755,14.145,16.499,14.242,16.243,14.242z"/>
</g>
</svg>
