<?xml version="1.0" encoding="iso-8859-1"?>
<!-- Generator: Adobe Illustrator 27.4.0, SVG Export Plug-In . SVG Version: 6.00 Build 0)  -->
<svg version="1.1" id="Layer_1" xmlns="http://www.w3.org/2000/svg" xmlns:xlink="http://www.w3.org/1999/xlink" x="0px" y="0px"
	 viewBox="0 0 24 24" style="enable-background:new 0 0 24 24;" xml:space="preserve">
<g>
	<path d="M18.8,23H5.2c-1.238,0-1.92,0-2.562-0.326c-0.57-0.292-1.022-0.744-1.312-1.311C1,20.721,1,20.038,1,18.8v-0.6
		c0-1.238,0-1.921,0.327-2.562c0.29-0.567,0.742-1.02,1.31-1.311C3.28,14,3.962,14,5.2,14H11V9c0-0.552,0.448-1,1-1s1,0.448,1,1v5
		h5.8c1.238,0,1.921,0,2.562,0.326c0.567,0.291,1.021,0.744,1.311,1.311C23,16.279,23,16.962,23,18.2v0.6
		c0,1.238,0,1.921-0.326,2.562c-0.291,0.567-0.744,1.021-1.311,1.311C20.721,23,20.038,23,18.8,23z M5.2,16
		c-0.868,0-1.44,0-1.655,0.109c-0.188,0.096-0.34,0.248-0.437,0.438C3,16.76,3,17.333,3,18.2v0.6c0,0.867,0,1.44,0.109,1.654
		c0.096,0.188,0.248,0.341,0.438,0.438C3.76,21,4.333,21,5.2,21h13.6c0.867,0,1.44,0,1.654-0.109
		c0.188-0.096,0.341-0.248,0.438-0.438C21,20.24,21,19.667,21,18.8v-0.6c0-0.867,0-1.44-0.109-1.654
		c-0.096-0.188-0.248-0.341-0.438-0.438C20.24,16,19.667,16,18.8,16H5.2z M9.5,19.5h-4c-0.552,0-1-0.447-1-1s0.448-1,1-1h4
		c0.552,0,1,0.447,1,1S10.052,19.5,9.5,19.5z M21.655,12.6c-0.086,0-0.173-0.011-0.26-0.035c-0.533-0.143-0.851-0.691-0.707-1.225
		c0.777-2.901,0.07-5.981-1.894-8.239c-0.362-0.417-0.318-1.048,0.099-1.411c0.416-0.362,1.048-0.319,1.411,0.098
		c2.4,2.761,3.266,6.525,2.315,10.069C22.5,12.305,22.097,12.6,21.655,12.6z M2.341,12.6c-0.441,0-0.846-0.295-0.965-0.742
		C0.426,8.314,1.292,4.55,3.691,1.79c0.362-0.417,0.994-0.461,1.411-0.099c0.417,0.363,0.461,0.994,0.099,1.411
		C3.238,5.36,2.53,8.44,3.308,11.341c0.143,0.533-0.173,1.082-0.707,1.225C2.514,12.589,2.427,12.6,2.341,12.6z M17.796,11.558
		c-0.086,0-0.173-0.011-0.26-0.035c-0.533-0.143-0.851-0.691-0.707-1.225c0.408-1.522,0.07-3.165-0.902-4.395
		c-0.343-0.433-0.27-1.062,0.164-1.405c0.436-0.344,1.063-0.268,1.404,0.164c1.363,1.724,1.837,4.024,1.266,6.153
		C18.641,11.263,18.237,11.558,17.796,11.558z M6.204,11.558c-0.442,0-0.846-0.295-0.965-0.742c-0.57-2.129-0.098-4.43,1.266-6.153
		C6.847,4.229,7.476,4.157,7.909,4.5c0.434,0.342,0.507,0.971,0.164,1.404C7.1,7.134,6.763,8.777,7.17,10.299
		c0.143,0.534-0.173,1.082-0.707,1.225C6.377,11.547,6.29,11.558,6.204,11.558z"/>
</g>
</svg>
