<?xml version="1.0" encoding="iso-8859-1"?>
<!-- Generator: Adobe Illustrator 27.4.0, SVG Export Plug-In . SVG Version: 6.00 Build 0)  -->
<svg version="1.1" id="Layer_1" xmlns="http://www.w3.org/2000/svg" xmlns:xlink="http://www.w3.org/1999/xlink" x="0px" y="0px"
	 viewBox="0 0 24 24" style="enable-background:new 0 0 24 24;" xml:space="preserve">
<g>
	<path d="M16.427,22c-0.145,0-0.292-0.031-0.432-0.099c-2.491-1.194-5.497-1.196-7.991,0c-0.498,0.239-1.095,0.03-1.334-0.469
		c-0.239-0.498-0.029-1.096,0.469-1.334c3.039-1.459,6.687-1.459,9.721,0c0.498,0.239,0.708,0.836,0.469,1.334
		C17.157,21.791,16.8,22,16.427,22z M17.2,18H6.8c-1.838,0-2.76,0-3.616-0.437c-0.757-0.385-1.362-0.989-1.748-1.747
		C1,14.96,1,14.037,1,12.2V7.8c0-1.838,0-2.76,0.436-3.616c0.386-0.757,0.991-1.362,1.748-1.748C4.04,2,4.962,2,6.8,2h10.4
		c1.837,0,2.76,0,3.616,0.436c0.758,0.386,1.362,0.991,1.748,1.749C23,5.04,23,5.962,23,7.8v4.4c0,1.837,0,2.76-0.436,3.616
		c-0.386,0.758-0.99,1.362-1.749,1.748C19.96,18,19.037,18,17.2,18z M6.8,4C5.33,4,4.52,4,4.092,4.218
		C3.713,4.411,3.411,4.713,3.218,5.092C3,5.52,3,6.33,3,7.8v4.4c0,1.47,0,2.279,0.218,2.708c0.193,0.379,0.495,0.681,0.873,0.873
		C4.52,16,5.33,16,6.8,16h10.4c1.47,0,2.279,0,2.708-0.219c0.379-0.192,0.681-0.494,0.873-0.872C21,14.479,21,13.67,21,12.2V7.8
		c0-1.47,0-2.28-0.218-2.708c-0.193-0.379-0.495-0.681-0.874-0.874C19.479,4,18.67,4,17.2,4H6.8z"/>
</g>
</svg>
