<?xml version="1.0" encoding="iso-8859-1"?>
<!-- Generator: Adobe Illustrator 27.4.0, SVG Export Plug-In . SVG Version: 6.00 Build 0)  -->
<svg version="1.1" id="Layer_1" xmlns="http://www.w3.org/2000/svg" xmlns:xlink="http://www.w3.org/1999/xlink" x="0px" y="0px"
	 viewBox="0 0 24 24" style="enable-background:new 0 0 24 24;" xml:space="preserve">
<g>
	<path d="M15,22H9c-0.552,0-1-0.447-1-1v-3H5.2c-1.238,0-1.92,0-2.562-0.326c-0.57-0.292-1.022-0.744-1.312-1.311
		C1,15.721,1,15.038,1,13.8V6.2c0-1.238,0-1.92,0.327-2.562C1.617,3.07,2.07,2.617,2.637,2.327C3.28,2,3.962,2,5.2,2h13.6
		c1.238,0,1.921,0,2.562,0.327c0.567,0.29,1.02,0.742,1.311,1.31C23,4.28,23,4.962,23,6.2v7.6c0,1.238,0,1.921-0.326,2.562
		c-0.291,0.567-0.744,1.021-1.311,1.311C20.721,18,20.038,18,18.8,18H16v3C16,21.553,15.553,22,15,22z M10,20h4v-2h-4V20z M5.2,4
		C4.333,4,3.76,4,3.545,4.109c-0.186,0.095-0.341,0.25-0.437,0.438C3,4.76,3,5.333,3,6.2v7.6c0,0.867,0,1.44,0.109,1.654
		c0.096,0.188,0.248,0.341,0.438,0.438C3.76,16,4.333,16,5.2,16h13.6c0.867,0,1.44,0,1.654-0.109
		c0.188-0.096,0.341-0.248,0.438-0.438C21,15.24,21,14.667,21,13.8V6.2c0-0.868,0-1.44-0.109-1.655
		c-0.096-0.188-0.248-0.34-0.438-0.437C20.24,4,19.667,4,18.8,4H5.2z"/>
</g>
</svg>
