<?xml version="1.0" encoding="iso-8859-1"?>
<!-- Generator: Adobe Illustrator 27.4.0, SVG Export Plug-In . SVG Version: 6.00 Build 0)  -->
<svg version="1.1" id="Layer_1" xmlns="http://www.w3.org/2000/svg" xmlns:xlink="http://www.w3.org/1999/xlink" x="0px" y="0px"
	 viewBox="0 0 24 24" style="enable-background:new 0 0 24 24;" xml:space="preserve">
<g>
	<path d="M18.8,21h-3.6c-1.238,0-1.921,0-2.562-0.326c-0.569-0.292-1.022-0.744-1.311-1.311C11,18.721,11,18.038,11,16.8V7.2
		c0-1.238,0-1.92,0.327-2.562c0.29-0.569,0.743-1.022,1.311-1.312C13.279,3,13.962,3,15.2,3h3.6c1.238,0,1.921,0,2.562,0.327
		c0.567,0.29,1.02,0.742,1.311,1.31C23,5.28,23,5.962,23,7.2v9.6c0,1.238,0,1.921-0.326,2.562c-0.291,0.567-0.744,1.021-1.311,1.311
		C20.721,21,20.038,21,18.8,21z M15.2,5c-0.867,0-1.44,0-1.654,0.109c-0.187,0.095-0.342,0.25-0.438,0.438C13,5.76,13,6.333,13,7.2
		v9.6c0,0.867,0,1.44,0.109,1.654c0.096,0.188,0.247,0.341,0.438,0.438C13.76,19,14.333,19,15.2,19h3.6c0.867,0,1.44,0,1.654-0.109
		c0.188-0.096,0.341-0.248,0.438-0.438C21,18.24,21,17.667,21,16.8V7.2c0-0.868,0-1.44-0.109-1.655
		c-0.096-0.188-0.248-0.34-0.438-0.437C20.24,5,19.667,5,18.8,5H15.2z M8,21H5.5c-0.552,0-1-0.447-1-1s0.448-1,1-1H8
		c0.552,0,1,0.447,1,1S8.552,21,8,21z M17,17c-1.103,0-2-0.897-2-2s0.897-2,2-2s2,0.897,2,2S18.103,17,17,17z M17,14.998V15V14.998z
		 M8,17H5.2c-1.238,0-1.92,0-2.562-0.326c-0.57-0.292-1.022-0.744-1.312-1.311C1,14.721,1,14.038,1,12.8V9.2
		c0-1.238,0-1.92,0.327-2.562C1.617,6.07,2.07,5.617,2.637,5.327C3.28,5,3.962,5,5.2,5H8c0.552,0,1,0.448,1,1S8.552,7,8,7H5.2
		C4.333,7,3.76,7,3.545,7.109c-0.186,0.095-0.341,0.25-0.437,0.438C3,7.76,3,8.333,3,9.2v3.6c0,0.867,0,1.44,0.109,1.654
		c0.096,0.188,0.248,0.341,0.438,0.438C3.76,15,4.333,15,5.2,15H8c0.552,0,1,0.447,1,1S8.552,17,8,17z M17.01,10
		c-0.553,0-1.005-0.448-1.005-1S16.447,8,17,8h0.01c0.553,0,1,0.448,1,1S17.562,10,17.01,10z"/>
</g>
</svg>
