<?xml version="1.0" encoding="iso-8859-1"?>
<!-- Generator: Adobe Illustrator 27.4.0, SVG Export Plug-In . SVG Version: 6.00 Build 0)  -->
<svg version="1.1" id="Layer_1" xmlns="http://www.w3.org/2000/svg" xmlns:xlink="http://www.w3.org/1999/xlink" x="0px" y="0px"
	 viewBox="0 0 24 24" style="enable-background:new 0 0 24 24;" xml:space="preserve">
<g>
	<path d="M16,22H8c-0.552,0-1-0.447-1-1s0.448-1,1-1h8c0.553,0,1,0.447,1,1S16.553,22,16,22z M17.2,19H6.8
		c-1.838,0-2.76,0-3.616-0.437c-0.757-0.385-1.362-0.989-1.748-1.747c-0.361-0.71-0.423-1.466-0.434-2.75
		C1.001,14.045,1,14.022,1,14c0-0.018,0-0.035,0.001-0.053C1,13.716,1,13.468,1,13.2V7.8c0-1.838,0-2.76,0.436-3.616
		c0.386-0.757,0.991-1.362,1.748-1.748C4.04,2,4.962,2,6.8,2h10.4c1.837,0,2.76,0,3.616,0.436c0.758,0.386,1.362,0.991,1.748,1.749
		C23,5.04,23,5.962,23,7.8v5.4c0,0.268,0,0.516-0.001,0.747C23,13.965,23,13.982,23,14c0,0.022-0.001,0.045-0.002,0.066
		c-0.011,1.284-0.072,2.04-0.434,2.75c-0.386,0.758-0.99,1.362-1.749,1.748C19.96,19,19.037,19,17.2,19z M3.031,15
		c0.028,0.41,0.083,0.703,0.188,0.908c0.193,0.379,0.495,0.681,0.873,0.873C4.52,17,5.33,17,6.8,17h10.4c1.47,0,2.279,0,2.708-0.219
		c0.379-0.192,0.681-0.494,0.873-0.872c0.104-0.206,0.159-0.498,0.188-0.909H3.031z M3,13h18V7.8c0-1.47,0-2.28-0.218-2.708
		c-0.193-0.379-0.495-0.681-0.874-0.874C19.479,4,18.67,4,17.2,4H6.8C5.33,4,4.52,4,4.092,4.218
		C3.713,4.411,3.411,4.713,3.218,5.092C3,5.52,3,6.33,3,7.8V13z"/>
</g>
</svg>
