<?xml version="1.0" encoding="iso-8859-1"?>
<!-- Generator: Adobe Illustrator 27.4.0, SVG Export Plug-In . SVG Version: 6.00 Build 0)  -->
<svg version="1.1" id="Layer_1" xmlns="http://www.w3.org/2000/svg" xmlns:xlink="http://www.w3.org/1999/xlink" x="0px" y="0px"
	 viewBox="0 0 24 24" style="enable-background:new 0 0 24 24;" xml:space="preserve">
<g>
	<path d="M12,23C5.935,23,1,18.065,1,12C1,6.295,5.278,1.587,10.95,1.049c0.474-0.044,0.906,0.245,1.048,0.694
		c0.142,0.45-0.049,0.937-0.458,1.17C9.356,4.158,8,6.49,8,9c0,3.86,3.14,7,7,7c2.51,0,4.842-1.355,6.086-3.539
		c0.233-0.41,0.721-0.6,1.171-0.458c0.449,0.142,0.738,0.579,0.693,1.048C22.412,18.723,17.705,23,12,23z M7.337,4.286
		C4.715,5.863,3,8.731,3,12c0,4.963,4.038,9,9,9c3.269,0,6.137-1.716,7.714-4.337C18.317,17.522,16.69,18,15,18
		c-4.962,0-9-4.037-9-9C6,7.31,6.479,5.682,7.337,4.286z"/>
</g>
</svg>
