<?xml version="1.0" encoding="iso-8859-1"?>
<!-- Generator: Adobe Illustrator 27.4.0, SVG Export Plug-In . SVG Version: 6.00 Build 0)  -->
<svg version="1.1" id="Layer_1" xmlns="http://www.w3.org/2000/svg" xmlns:xlink="http://www.w3.org/1999/xlink" x="0px" y="0px"
	 viewBox="0 0 24 24" style="enable-background:new 0 0 24 24;" xml:space="preserve">
<g>
	<path d="M12.462,23C6.142,23,1,17.858,1,11.538C1,7.043,3.647,2.941,7.744,1.089c0.38-0.171,0.825-0.09,1.119,0.204
		c0.294,0.294,0.375,0.74,0.204,1.119C8.512,3.639,8.231,4.95,8.231,6.307c0,5.217,4.245,9.462,9.462,9.462
		c1.359,0,2.669-0.281,3.895-0.836c0.377-0.17,0.825-0.09,1.119,0.204s0.376,0.74,0.204,1.119C21.059,20.353,16.957,23,12.462,23z
		 M6.412,4.263C4.286,6.036,3,8.691,3,11.538C3,16.755,7.245,21,12.462,21c2.846,0,5.502-1.286,7.275-3.412
		c-0.669,0.12-1.352,0.181-2.044,0.181c-6.32,0-11.462-5.142-11.462-11.462C6.231,5.614,6.292,4.932,6.412,4.263z"/>
</g>
</svg>
