<?xml version="1.0" encoding="iso-8859-1"?>
<!-- Generator: Adobe Illustrator 27.4.0, SVG Export Plug-In . SVG Version: 6.00 Build 0)  -->
<svg version="1.1" id="Layer_1" xmlns="http://www.w3.org/2000/svg" xmlns:xlink="http://www.w3.org/1999/xlink" x="0px" y="0px"
	 viewBox="0 0 24 24" style="enable-background:new 0 0 24 24;" xml:space="preserve">
<g>
	<path d="M12,23C5.935,23,1,18.065,1,12S5.935,1,12,1c1.689,0,3.311,0.373,4.818,1.109c0.426,0.208,0.647,0.685,0.531,1.144
		c-0.116,0.458-0.508,0.771-1.013,0.753C16.226,4.002,16.112,4,16,4c-4.411,0-8,3.589-8,8s3.589,8,8,8
		c0.114,0,0.228-0.003,0.341-0.007c0.502-0.043,0.894,0.297,1.009,0.755c0.115,0.459-0.106,0.936-0.531,1.143
		C15.311,22.627,13.689,23,12,23z M11.627,3.008C6.837,3.204,3,7.162,3,12s3.837,8.796,8.627,8.992C8.298,19.367,6,15.947,6,12
		S8.298,4.633,11.627,3.008z M19.999,19.002c-0.209,0-0.42-0.065-0.601-0.201c-0.441-0.332-0.529-0.959-0.197-1.4
		c2.392-3.179,2.392-7.62,0.001-10.799c-0.331-0.441-0.242-1.068,0.199-1.4c0.441-0.332,1.069-0.242,1.399,0.198
		c2.923,3.888,2.922,9.318-0.002,13.205C20.603,18.864,20.303,19.002,19.999,19.002z"/>
</g>
</svg>
