<?xml version="1.0" encoding="iso-8859-1"?>
<!-- Generator: Adobe Illustrator 27.4.0, SVG Export Plug-In . SVG Version: 6.00 Build 0)  -->
<svg version="1.1" id="Layer_1" xmlns="http://www.w3.org/2000/svg" xmlns:xlink="http://www.w3.org/1999/xlink" x="0px" y="0px"
	 viewBox="0 0 24 24" style="enable-background:new 0 0 24 24;" xml:space="preserve">
<g>
	<path d="M18,11c-0.379,0-0.725-0.214-0.895-0.553l-0.618-1.235c-0.245-0.492-0.357-0.715-0.472-0.863
		c-0.105-0.136-0.228-0.258-0.364-0.364c-0.153-0.118-0.391-0.237-0.863-0.473l-1.235-0.618C13.214,6.725,13,6.379,13,6
		s0.214-0.725,0.553-0.895l1.235-0.618c0.473-0.236,0.71-0.355,0.862-0.473c0.138-0.106,0.26-0.228,0.364-0.363
		c0.115-0.149,0.228-0.372,0.472-0.862l0.619-1.237c0.34-0.678,1.449-0.678,1.789,0l0.618,1.235
		c0.245,0.492,0.357,0.715,0.472,0.863c0.105,0.136,0.228,0.258,0.364,0.364c0.153,0.118,0.391,0.237,0.863,0.473l1.235,0.618
		C22.786,5.275,23,5.621,23,6s-0.214,0.725-0.553,0.895l-1.235,0.618c-0.473,0.236-0.71,0.355-0.862,0.473
		c-0.138,0.106-0.26,0.228-0.364,0.363C19.87,8.497,19.758,8.72,19.514,9.21l-0.619,1.237C18.725,10.786,18.379,11,18,11z M16.228,6
		c0.259,0.137,0.453,0.254,0.646,0.402c0.272,0.209,0.517,0.454,0.726,0.726C17.747,7.32,17.864,7.514,18,7.772
		c0.136-0.257,0.253-0.452,0.402-0.646c0.208-0.271,0.452-0.515,0.726-0.725C19.319,6.253,19.514,6.137,19.772,6
		c-0.259-0.137-0.453-0.254-0.646-0.402c-0.272-0.209-0.517-0.454-0.726-0.726C18.253,4.68,18.136,4.486,18,4.228
		c-0.136,0.257-0.253,0.452-0.402,0.646c-0.208,0.271-0.452,0.515-0.726,0.725C16.681,5.747,16.486,5.863,16.228,6z"/>
</g>
<g>
	<path d="M11.521,23C5.72,23,1,18.28,1,12.479c0-5.457,4.091-9.96,9.517-10.474c0.473-0.043,0.906,0.245,1.048,0.694
		c0.142,0.45-0.049,0.937-0.458,1.17C9.043,5.045,7.761,7.25,7.761,9.623c0,3.649,2.968,6.617,6.617,6.617
		c2.373,0,4.577-1.281,5.753-3.345c0.233-0.411,0.722-0.6,1.171-0.458c0.449,0.142,0.738,0.579,0.693,1.048
		C21.48,18.909,16.978,23,11.521,23z M6.94,5.278C4.552,6.791,3,9.454,3,12.479C3,17.178,6.823,21,11.521,21
		c3.023,0,5.687-1.552,7.199-3.938c-1.298,0.758-2.793,1.178-4.343,1.178c-4.751,0-8.617-3.865-8.617-8.617
		C5.761,8.072,6.181,6.576,6.94,5.278z"/>
</g>
</svg>
