<?xml version="1.0" encoding="iso-8859-1"?>
<!-- Generator: Adobe Illustrator 27.4.0, SVG Export Plug-In . SVG Version: 6.00 Build 0)  -->
<svg version="1.1" id="Layer_1" xmlns="http://www.w3.org/2000/svg" xmlns:xlink="http://www.w3.org/1999/xlink" x="0px" y="0px"
	 viewBox="0 0 24 24" style="enable-background:new 0 0 24 24;" xml:space="preserve">
<g>
	<path d="M12,23c-4.411,0-8-3.589-8-8V9c0-4.411,3.589-8,8-8s8,3.589,8,8v6C20,19.411,16.411,23,12,23z M12,3C8.691,3,6,5.691,6,9v6
		c0,3.309,2.691,6,6,6s6-2.691,6-6V9C18,5.691,15.309,3,12,3z M12,10c-0.552,0-1-0.448-1-1V6c0-0.552,0.448-1,1-1s1,0.448,1,1v3
		C13,9.552,12.552,10,12,10z"/>
</g>
</svg>
