<?xml version="1.0" encoding="iso-8859-1"?>
<!-- Generator: Adobe Illustrator 27.4.0, SVG Export Plug-In . SVG Version: 6.00 Build 0)  -->
<svg version="1.1" id="Layer_1" xmlns="http://www.w3.org/2000/svg" xmlns:xlink="http://www.w3.org/1999/xlink" x="0px" y="0px"
	 viewBox="0 0 24 24" style="enable-background:new 0 0 24 24;" xml:space="preserve">
<g>
	<path d="M12,23c-0.001,0-0.002,0-0.003,0l0,0c-0.134,0-0.262-0.027-0.378-0.075c-0.119-0.049-0.23-0.121-0.326-0.218l-3-3
		c-0.391-0.391-0.391-1.023,0-1.414s1.023-0.391,1.414,0L11,19.586V13H4.414l1.293,1.293c0.391,0.391,0.391,1.023,0,1.414
		s-1.023,0.391-1.414,0l-3-3c-0.096-0.096-0.169-0.208-0.218-0.326C1.027,12.265,1,12.137,1,12.003l0,0c0-0.002,0-0.004,0-0.006l0,0
		c0-0.134,0.027-0.262,0.075-0.378c0.049-0.119,0.122-0.23,0.218-0.326l3-3c0.391-0.391,1.023-0.391,1.414,0s0.391,1.023,0,1.414
		L4.414,11H11V4.414L9.707,5.707c-0.391,0.391-1.023,0.391-1.414,0s-0.391-1.023,0-1.414l3-3c0.096-0.096,0.208-0.169,0.326-0.218
		C11.735,1.027,11.863,1,11.997,1l0,0c0.002,0,0.004,0,0.006,0l0,0c0.134,0,0.262,0.027,0.378,0.075
		c0.119,0.049,0.23,0.122,0.326,0.218l3,3c0.391,0.391,0.391,1.023,0,1.414s-1.023,0.391-1.414,0L13,4.414V11h6.586l-1.293-1.293
		c-0.391-0.391-0.391-1.023,0-1.414s1.023-0.391,1.414,0l3,3c0.097,0.096,0.169,0.208,0.218,0.326
		C22.973,11.735,23,11.863,23,11.997l0,0c0,0.002,0,0.004,0,0.006l0,0c0,0.134-0.027,0.262-0.075,0.378
		c-0.049,0.119-0.121,0.23-0.218,0.326l-3,3c-0.391,0.391-1.023,0.391-1.414,0s-0.391-1.023,0-1.414L19.586,13H13v6.586l1.293-1.293
		c0.391-0.391,1.023-0.391,1.414,0s0.391,1.023,0,1.414l-3,3c-0.096,0.097-0.208,0.169-0.326,0.218
		C12.265,22.973,12.137,23,12.003,23l0,0C12.002,23,12.001,23,12,23z"/>
</g>
</svg>
