<?xml version="1.0" encoding="iso-8859-1"?>
<!-- Generator: Adobe Illustrator 27.4.0, SVG Export Plug-In . SVG Version: 6.00 Build 0)  -->
<svg version="1.1" id="Layer_1" xmlns="http://www.w3.org/2000/svg" xmlns:xlink="http://www.w3.org/1999/xlink" x="0px" y="0px"
	 viewBox="0 0 24 24" style="enable-background:new 0 0 24 24;" xml:space="preserve">
<g>
	<path d="M9,22c-2.206,0-4-1.794-4-4s1.794-4,4-4c0.728,0,1.411,0.195,2,0.537V5.589c0-1.032,0-1.601,0.361-2.117
		c0.314-0.449,0.805-0.752,1.347-0.832c0.622-0.092,1.13,0.161,2.054,0.624l3.685,1.842c0.494,0.247,0.694,0.848,0.447,1.342
		s-0.848,0.695-1.342,0.447l-3.685-1.842c-0.327-0.164-0.663-0.332-0.848-0.401C13,4.848,13,5.223,13,5.589V18
		C13,20.206,11.206,22,9,22z M9,16c-1.103,0-2,0.897-2,2s0.897,2,2,2s2-0.897,2-2S10.103,16,9,16z"/>
</g>
</svg>
