<?xml version="1.0" encoding="iso-8859-1"?>
<!-- Generator: Adobe Illustrator 27.4.0, SVG Export Plug-In . SVG Version: 6.00 Build 0)  -->
<svg version="1.1" id="Layer_1" xmlns="http://www.w3.org/2000/svg" xmlns:xlink="http://www.w3.org/1999/xlink" x="0px" y="0px"
	 viewBox="0 0 24 24" style="enable-background:new 0 0 24 24;" xml:space="preserve">
<g>
	<path d="M6,22c-2.206,0-4-1.794-4-4s1.794-4,4-4c0.728,0,1.411,0.195,2,0.537V6.355C8,5.792,8,5.42,8.175,5.029
		c0.156-0.347,0.404-0.64,0.718-0.848c0.357-0.237,0.725-0.298,1.28-0.39l8.8-1.467c0.761-0.127,1.222-0.205,1.724-0.019
		c0.438,0.162,0.806,0.474,1.038,0.879C22,3.647,22,4.115,22,4.889V16c0,2.206-1.794,4-4,4s-4-1.794-4-4s1.794-4,4-4
		c0.728,0,1.411,0.195,2,0.537V4.889c0-0.271,0-0.549-0.014-0.692c-0.144,0.01-0.418,0.056-0.686,0.1l-8.799,1.467
		c-0.233,0.039-0.474,0.079-0.541,0.105C10,5.875,10,6.119,10,6.355V18C10,20.206,8.206,22,6,22z M6,16c-1.103,0-2,0.897-2,2
		s0.897,2,2,2s2-0.897,2-2S7.103,16,6,16z M18,14c-1.103,0-2,0.897-2,2s0.897,2,2,2s2-0.897,2-2S19.103,14,18,14z"/>
</g>
</svg>
