<?xml version="1.0" encoding="iso-8859-1"?>
<!-- Generator: Adobe Illustrator 27.4.0, SVG Export Plug-In . SVG Version: 6.00 Build 0)  -->
<svg version="1.1" id="Layer_1" xmlns="http://www.w3.org/2000/svg" xmlns:xlink="http://www.w3.org/1999/xlink" x="0px" y="0px"
	 viewBox="0 0 24 24" style="enable-background:new 0 0 24 24;" xml:space="preserve">
<g>
	<path d="M11.5,22c-2.206,0-4-1.794-4-4s1.794-4,4-4c0.728,0,1.411,0.195,2,0.537V5.589c0-1.032,0-1.601,0.361-2.117
		c0.312-0.448,0.804-0.752,1.347-0.832c0.616-0.093,1.13,0.161,2.055,0.624l3.685,1.842c0.494,0.247,0.694,0.848,0.447,1.342
		s-0.848,0.695-1.342,0.447l-3.685-1.842c-0.327-0.164-0.663-0.332-0.848-0.401C15.5,4.848,15.5,5.223,15.5,5.589V18
		C15.5,20.206,13.706,22,11.5,22z M11.5,16c-1.103,0-2,0.897-2,2s0.897,2,2,2s2-0.897,2-2S12.603,16,11.5,16z M6.5,11
		c-0.552,0-1-0.448-1-1V8h-2c-0.552,0-1-0.448-1-1s0.448-1,1-1h2V4c0-0.552,0.448-1,1-1s1,0.448,1,1v2h2c0.552,0,1,0.448,1,1
		s-0.448,1-1,1h-2v2C7.5,10.552,7.052,11,6.5,11z"/>
</g>
</svg>
