<?xml version="1.0" encoding="iso-8859-1"?>
<!-- Generator: Adobe Illustrator 27.4.0, SVG Export Plug-In . SVG Version: 6.00 Build 0)  -->
<svg version="1.1" id="Layer_1" xmlns="http://www.w3.org/2000/svg" xmlns:xlink="http://www.w3.org/1999/xlink" x="0px" y="0px"
	 viewBox="0 0 24 24" style="enable-background:new 0 0 24 24;" xml:space="preserve">
<g>
	<path d="M14,22.623c-0.237,0-0.476-0.057-0.692-0.17c-0.501-0.261-0.684-0.729-0.985-1.505l-2.596-6.675l-6.676-2.597
		c-0.775-0.301-1.243-0.483-1.504-0.983c-0.226-0.435-0.226-0.953-0.001-1.386c0.261-0.5,0.728-0.683,1.503-0.986l2.775-1.083
		L2.292,3.707c-0.391-0.391-0.391-1.023,0-1.414s1.023-0.391,1.414,0l4.552,4.552c0.046,0.039,0.089,0.081,0.128,0.128l8.676,8.677
		c0.021,0.019,0.04,0.038,0.059,0.059l4.585,4.585c0.391,0.391,0.391,1.023,0,1.414s-1.023,0.391-1.414,0l-3.531-3.531l-1.083,2.774
		c-0.303,0.775-0.484,1.242-0.985,1.503C14.476,22.566,14.237,22.623,14,22.623z M4.254,9.999l6.28,2.442
		c0.15,0.058,0.294,0.114,0.446,0.221c0.141,0.101,0.257,0.218,0.353,0.351c0.113,0.162,0.168,0.305,0.227,0.454l2.441,6.278
		l1.216-3.113L7.369,8.783L4.254,9.999z M17.827,13.691c-0.121,0-0.244-0.021-0.363-0.068c-0.515-0.201-0.77-0.781-0.568-1.295
		l3.343-8.567l-8.538,3.332c-0.518,0.198-1.095-0.054-1.295-0.568c-0.201-0.515,0.054-1.095,0.568-1.295l8.964-3.498
		c0.689-0.27,1.145-0.447,1.659-0.273c0.442,0.147,0.797,0.502,0.945,0.947c0.173,0.513-0.004,0.966-0.272,1.651l-3.511,8.998
		C18.604,13.45,18.227,13.691,17.827,13.691z"/>
</g>
</svg>
