<?xml version="1.0" encoding="iso-8859-1"?>
<!-- Generator: Adobe Illustrator 27.4.0, SVG Export Plug-In . SVG Version: 6.00 Build 0)  -->
<svg version="1.1" id="Layer_1" xmlns="http://www.w3.org/2000/svg" xmlns:xlink="http://www.w3.org/1999/xlink" x="0px" y="0px"
	 viewBox="0 0 24 24" style="enable-background:new 0 0 24 24;" xml:space="preserve">
<g>
	<path d="M14,22.623c-0.237,0-0.476-0.057-0.692-0.17c-0.501-0.261-0.684-0.729-0.985-1.505l-2.596-6.675l-6.676-2.597
		c-0.775-0.301-1.243-0.483-1.504-0.983c-0.226-0.435-0.226-0.953-0.001-1.386c0.261-0.5,0.728-0.683,1.503-0.986l16.889-6.59
		c0.689-0.27,1.145-0.447,1.659-0.273c0.442,0.147,0.797,0.502,0.945,0.947c0.173,0.513-0.004,0.966-0.272,1.651L15.678,20.95
		c-0.303,0.775-0.484,1.242-0.985,1.503C14.476,22.566,14.237,22.623,14,22.623z M14.456,20.867h0.01H14.456z M4.254,9.999
		l6.28,2.442c0.15,0.058,0.294,0.114,0.446,0.221c0.141,0.101,0.257,0.218,0.353,0.351c0.113,0.162,0.168,0.305,0.227,0.454
		l2.441,6.278l6.237-15.984L4.254,9.999z"/>
</g>
</svg>
