<?xml version="1.0" encoding="iso-8859-1"?>
<!-- Generator: Adobe Illustrator 27.4.0, SVG Export Plug-In . SVG Version: 6.00 Build 0)  -->
<svg version="1.1" id="Layer_1" xmlns="http://www.w3.org/2000/svg" xmlns:xlink="http://www.w3.org/1999/xlink" x="0px" y="0px"
	 viewBox="0 0 24 24" style="enable-background:new 0 0 24 24;" xml:space="preserve">
<g>
	<path d="M19.92,22.67c-0.394,0-0.796-0.178-1.368-0.43l-6.556-2.884L5.44,22.24c-0.762,0.335-1.221,0.54-1.761,0.367
		c-0.465-0.146-0.832-0.512-0.979-0.979c-0.17-0.536,0.032-0.996,0.366-1.759l7.281-16.602c0.298-0.678,0.494-1.124,0.979-1.366
		c0.419-0.21,0.921-0.209,1.34,0c0.485,0.241,0.681,0.689,0.978,1.366l7.281,16.601c0.334,0.762,0.536,1.222,0.365,1.76
		c-0.145,0.464-0.512,0.831-0.979,0.979C20.178,22.65,20.049,22.67,19.92,22.67z M19.358,21.319L19.358,21.319L19.358,21.319z
		 M20.003,20.675L20.003,20.675L20.003,20.675z M11.996,4.49L5.104,20.203l6.167-2.713c0.138-0.062,0.284-0.126,0.471-0.159
		c0.173-0.027,0.335-0.027,0.496-0.002c0.2,0.035,0.346,0.1,0.487,0.162l6.163,2.712L11.996,4.49z"/>
</g>
</svg>
