<?xml version="1.0" encoding="iso-8859-1"?>
<!-- Generator: Adobe Illustrator 27.4.0, SVG Export Plug-In . SVG Version: 6.00 Build 0)  -->
<svg version="1.1" id="Layer_1" xmlns="http://www.w3.org/2000/svg" xmlns:xlink="http://www.w3.org/1999/xlink" x="0px" y="0px"
	 viewBox="0 0 24 24" style="enable-background:new 0 0 24 24;" xml:space="preserve">
<g>
	<path d="M22,23c-0.256,0-0.512-0.098-0.707-0.293l-0.421-0.421c-0.159,0.146-0.351,0.257-0.563,0.323
		c-0.539,0.171-0.997-0.033-1.758-0.369l-6.555-2.884L5.439,22.24c-0.759,0.335-1.217,0.538-1.756,0.37
		c-0.468-0.146-0.835-0.513-0.983-0.979c-0.17-0.539,0.031-0.997,0.363-1.755L7.758,9.172L1.293,2.707
		c-0.391-0.391-0.391-1.023,0-1.414s1.023-0.391,1.414,0l20,20c0.391,0.391,0.391,1.023,0,1.414C22.512,22.902,22.256,23,22,23z
		 M19.358,21.32C19.358,21.321,19.358,21.321,19.358,21.32C19.358,21.321,19.358,21.321,19.358,21.32z M4.633,21.32L4.633,21.32
		L4.633,21.32z M9.276,10.69l-4.172,9.513l6.167-2.713c0.162-0.071,0.292-0.128,0.471-0.159c0.173-0.027,0.335-0.027,0.496-0.002
		c0.191,0.033,0.322,0.09,0.473,0.156l6.001,2.64L9.276,10.69z M15.901,11.904c-0.386,0-0.752-0.224-0.917-0.599L11.996,4.49
		l-0.609,1.388c-0.222,0.506-0.811,0.736-1.317,0.514C9.563,6.169,9.333,5.58,9.556,5.074l0.792-1.805
		c0.296-0.677,0.492-1.123,0.978-1.366c0.421-0.208,0.92-0.209,1.339-0.001c0.487,0.244,0.683,0.689,0.979,1.362l3.174,7.238
		c0.222,0.505-0.009,1.095-0.515,1.317C16.171,11.876,16.035,11.904,15.901,11.904z"/>
</g>
</svg>
