<svg width="88" height="92" viewBox="0 0 88 92" fill="none" xmlns="http://www.w3.org/2000/svg">
<path d="M39.1401 34.2789V0.75L0.708618 44.1404L39.1401 34.2789Z" fill="#EAECF0"/>
<path d="M71.373 56.5371L40.3798 64.3965V91.2494L71.373 56.5371Z" fill="#EAECF0"/>
<path d="M39.1401 64.3965L8.14697 56.5371L39.1401 91.2494V64.3965Z" fill="#D0D5DD"/>
<path d="M40.3798 34.2789V0.75L78.8113 44.1404L40.3798 34.2789Z" fill="#D0D5DD"/>
<path d="M1.94836 45.3807L40.0514 35.4629L78.8114 45.3807L40.0514 55.2985L1.94836 45.3807Z" fill="#98A2B3"/>
<ellipse cx="65.8689" cy="69.2818" rx="21.4225" ry="21.4225" fill="#6D88FF"/>
<path d="M66.1645 64.9007V69.5767M66.1645 74.2526H66.1762M54.4745 65.5118V73.6416C54.4745 73.9275 54.4745 74.0704 54.5068 74.205C54.5355 74.3243 54.5827 74.4383 54.6468 74.5429C54.7191 74.6608 54.8202 74.7619 55.0224 74.9641L60.777 80.7188C60.9792 80.921 61.0803 81.022 61.1983 81.0943C61.3029 81.1584 61.4169 81.2057 61.5362 81.2343C61.6707 81.2666 61.8137 81.2666 62.0996 81.2666H70.2294C70.5153 81.2666 70.6583 81.2666 70.7928 81.2343C70.9121 81.2057 71.0261 81.1584 71.1307 81.0943C71.2487 81.022 71.3498 80.921 71.5519 80.7188L77.3066 74.9641C77.5088 74.7619 77.6099 74.6608 77.6822 74.5429C77.7463 74.4383 77.7935 74.3243 77.8221 74.205C77.8544 74.0704 77.8544 73.9275 77.8544 73.6416V65.5118C77.8544 65.2258 77.8544 65.0829 77.8221 64.9483C77.7935 64.8291 77.7463 64.715 77.6822 64.6104C77.6099 64.4925 77.5088 64.3914 77.3066 64.1892L71.5519 58.4345C71.3498 58.2324 71.2487 58.1313 71.1307 58.059C71.0261 57.9949 70.9121 57.9477 70.7928 57.919C70.6583 57.8867 70.5153 57.8867 70.2294 57.8867H62.0996C61.8137 57.8867 61.6707 57.8867 61.5362 57.919C61.4169 57.9477 61.3029 57.9949 61.1983 58.059C61.0803 58.1313 60.9792 58.2324 60.777 58.4345L55.0224 64.1892C54.8202 64.3914 54.7191 64.4925 54.6468 64.6104C54.5827 64.715 54.5355 64.8291 54.5068 64.9483C54.4745 65.0829 54.4745 65.2258 54.4745 65.5118Z" stroke="white" stroke-width="2" stroke-linecap="round" stroke-linejoin="round"/>
</svg>
