<?xml version="1.0" encoding="iso-8859-1"?>
<!-- Generator: Adobe Illustrator 27.4.0, SVG Export Plug-In . SVG Version: 6.00 Build 0)  -->
<svg version="1.1" id="Layer_1" xmlns="http://www.w3.org/2000/svg" xmlns:xlink="http://www.w3.org/1999/xlink" x="0px" y="0px"
	 viewBox="0 0 24 24" style="enable-background:new 0 0 24 24;" xml:space="preserve">
<g>
	<path d="M18,23c-0.256,0-0.512-0.098-0.707-0.293l-2-2c-0.097-0.097-0.169-0.207-0.218-0.326C15.027,20.265,15,20.137,15,20.003
		l0,0c0-0.002,0-0.004,0-0.006l0,0c0-0.134,0.027-0.262,0.075-0.378c0.049-0.119,0.121-0.229,0.218-0.326l2-2
		c0.391-0.391,1.023-0.391,1.414,0s0.391,1.023,0,1.414l-0.26,0.26C19.891,18.75,21,17.502,21,16c0-0.553,0.447-1,1-1s1,0.447,1,1
		c0,2.623-2.03,4.78-4.602,4.984l0.309,0.309c0.391,0.391,0.391,1.023,0,1.414C18.512,22.902,18.256,23,18,23z M16,15
		c-0.553,0-1-0.447-1-1s0.447-1,1-1c2.757,0,5-2.243,5-5s-2.243-5-5-5s-5,2.243-5,5c0,0.552-0.448,1-1,1S9,8.552,9,8
		c0-3.86,3.14-7,7-7c3.859,0,7,3.14,7,7S19.859,15,16,15z M2,9C1.448,9,1,8.552,1,8c0-2.623,2.03-4.781,4.602-4.984L5.293,2.707
		c-0.391-0.391-0.391-1.023,0-1.414s1.023-0.391,1.414,0l2,2C8.803,3.389,8.876,3.5,8.925,3.619C8.973,3.735,9,3.863,9,3.997l0,0
		c0,0.002,0,0.004,0,0.006l0,0c0,0.134-0.027,0.262-0.075,0.378C8.876,4.5,8.803,4.611,8.707,4.707l-2,2
		c-0.391,0.391-1.023,0.391-1.414,0s-0.391-1.023,0-1.414l0.259-0.26C4.11,5.25,3,6.498,3,8C3,8.552,2.552,9,2,9z"/>
</g>
<g>
	<path d="M10.8,22.85H5.2c-1.215,0-1.884,0-2.494-0.31c-0.541-0.277-0.971-0.707-1.246-1.245C1.15,20.685,1.15,20.015,1.15,18.8
		v-5.6c0-1.215,0-1.884,0.31-2.494c0.276-0.54,0.707-0.971,1.246-1.246C3.316,9.15,3.985,9.15,5.2,9.15h5.6
		c1.215,0,1.884,0,2.494,0.31c0.539,0.275,0.969,0.706,1.245,1.245c0.311,0.612,0.311,1.281,0.311,2.496v5.6
		c0,1.215,0,1.885-0.31,2.494c-0.276,0.54-0.706,0.97-1.245,1.245C12.684,22.85,12.015,22.85,10.8,22.85z M5.2,10.85
		c-0.921,0-1.477,0-1.723,0.125c-0.214,0.109-0.393,0.288-0.502,0.502C2.85,11.724,2.85,12.279,2.85,13.2v5.6
		c0,0.921,0,1.477,0.125,1.723c0.111,0.217,0.285,0.392,0.504,0.503c0.245,0.125,0.8,0.125,1.721,0.125h5.6
		c0.921,0,1.477,0,1.723-0.126c0.216-0.11,0.391-0.285,0.502-0.503c0.125-0.245,0.125-0.801,0.125-1.722v-5.6
		c0-0.921,0-1.477-0.126-1.723c-0.111-0.217-0.285-0.391-0.502-0.502c-0.246-0.125-0.801-0.125-1.722-0.125H5.2z"/>
</g>
<g>
	<path d="M12,18.85H4c-0.3,0-0.578-0.158-0.731-0.416s-0.159-0.577-0.015-0.841l2-3.667c0.118-0.217,0.324-0.371,0.565-0.424
		c0.242-0.051,0.493,0.003,0.69,0.151l0.638,0.478l1.161-1.625c0.167-0.233,0.436-0.364,0.726-0.355
		c0.287,0.011,0.548,0.166,0.695,0.412l3,5c0.157,0.263,0.162,0.59,0.011,0.856S12.306,18.85,12,18.85z M5.432,17.15h5.067
		l-1.561-2.602l-0.913,1.278c-0.133,0.187-0.336,0.311-0.562,0.346c-0.225,0.035-0.456-0.022-0.64-0.16l-0.548-0.41L5.432,17.15z"/>
</g>
</svg>
