<svg width="37" height="41" viewBox="0 0 37 41" fill="none" xmlns="http://www.w3.org/2000/svg">
<path fill-rule="evenodd" clip-rule="evenodd" d="M30.1129 0C31.1192 0 31.9351 0.815845 31.9351 1.82237V39.2026C31.9351 40.1953 31.1304 41 30.1376 41C24.5483 41 7.51198 41 1.87716 41C1.3915 41 0.925961 40.8071 0.582435 40.4638C0.239129 40.1203 0.0462646 39.6548 0.0462646 39.1691C0.0462646 32.4539 0.0462646 9.56667 0.0462646 9.56667C2.8054 11.5594 5.36249 11.6298 7.79056 10.4779C6.3736 6.91621 6.51989 3.74532 8.6368 1.06709C9.15526 0.408032 9.94749 0.0231784 10.7859 0.0231784C14.4474 -2.19941e-07 25.6834 0 30.1129 0Z" fill="#667085"/>
<path fill-rule="evenodd" clip-rule="evenodd" d="M28.9923 0.000218547L30.1129 0C31.1192 0 31.9351 0.815845 31.9351 1.82237V39.2026C31.9351 40.1953 31.1304 41 30.1376 41C24.5483 41 7.51198 41 1.87716 41C1.3915 41 0.925961 40.8071 0.582435 40.4638C0.239129 40.1203 0.0462646 39.6548 0.0462646 39.1691V37.001C0.285049 37.7386 0.977348 38.2667 1.78816 38.2667H28.3153C29.308 38.2667 30.1129 37.462 30.1129 36.4692C30.1129 30.0008 30.1129 7.96143 30.1129 1.6822C30.1129 0.929115 29.6542 0.276176 28.9923 0.000218547Z" fill="#475467"/>
<path fill-rule="evenodd" clip-rule="evenodd" d="M7.79056 10.4776C6.95482 11.9866 2.86991 13.6568 0.0462646 12.094V9.56641C0.0462646 9.56641 4.68878 10.482 7.79056 10.4776Z" fill="#475467"/>
<path fill-rule="evenodd" clip-rule="evenodd" d="M10.2178 0.0849609C6.24087 0.974934 1.21985 5.79435 0.0462646 9.567C2.8054 11.5597 5.36249 11.6301 7.79056 10.4782C6.3736 6.91654 6.51989 3.74566 8.6368 1.06743C9.15526 0.408369 9.65798 0.234966 10.2178 0.0849609Z" fill="#D0D5DD"/>
<path fill-rule="evenodd" clip-rule="evenodd" d="M18.2685 6.76711H26.472C27.1007 6.76711 27.6108 6.25674 27.6108 5.62807C27.6108 4.99962 27.1007 4.48926 26.472 4.48926H18.2685C17.6398 4.48926 17.1297 4.99962 17.1297 5.62807C17.1297 6.25674 17.6398 6.76711 18.2685 6.76711Z" fill="#D0D5DD"/>
<path fill-rule="evenodd" clip-rule="evenodd" d="M5.50976 25.189H26.4722C27.1009 25.189 27.6111 24.6786 27.6111 24.05C27.6111 23.4215 27.1009 22.9111 26.4722 22.9111H5.50976C4.8811 22.9111 4.37073 23.4215 4.37073 24.05C4.37073 24.6786 4.8811 25.189 5.50976 25.189Z" fill="#D0D5DD"/>
<path fill-rule="evenodd" clip-rule="evenodd" d="M5.50976 19.4468H26.4722C27.1009 19.4468 27.6111 18.9364 27.6111 18.3078C27.6111 17.6793 27.1009 17.1689 26.4722 17.1689H5.50976C4.8811 17.1689 4.37073 17.6793 4.37073 18.3078C4.37073 18.9364 4.8811 19.4468 5.50976 19.4468Z" fill="#D0D5DD"/>
<path fill-rule="evenodd" clip-rule="evenodd" d="M26.4722 28.6533H5.50976C4.8811 28.6533 4.37073 29.1637 4.37073 29.7921C4.37073 30.4208 4.8811 30.9312 5.50976 30.9312H26.4722C27.1009 30.9312 27.6111 30.4208 27.6111 29.7921C27.6111 29.1637 27.1009 28.6533 26.4722 28.6533Z" fill="#D0D5DD"/>
<path fill-rule="evenodd" clip-rule="evenodd" d="M5.50976 36.6724H17.1555C17.7842 36.6724 18.2945 36.162 18.2945 35.5333C18.2945 34.9049 17.7842 34.3945 17.1555 34.3945H5.50976C4.8811 34.3945 4.37073 34.9049 4.37073 35.5333C4.37073 36.162 4.8811 36.6724 5.50976 36.6724Z" fill="#D0D5DD"/>
<path d="M25.6728 35.9797C31.9031 35.9797 36.9537 30.9291 36.9537 24.6988C36.9537 18.4686 31.9031 13.418 25.6728 13.418C19.4426 13.418 14.392 18.4686 14.392 24.6988C14.392 30.9291 19.4426 35.9797 25.6728 35.9797Z" fill="#6D88FF"/>
<path d="M25.673 24.1051C27.3125 24.1051 28.6416 22.776 28.6416 21.1365C28.6416 19.497 27.3125 18.168 25.673 18.168C24.0335 18.168 22.7045 19.497 22.7045 21.1365C22.7045 22.776 24.0335 24.1051 25.673 24.1051Z" fill="#D0D5DD"/>
<path fill-rule="evenodd" clip-rule="evenodd" d="M17.0331 31.9491L17.034 31.9484C18.8034 29.0277 22.0119 27.0742 25.6731 27.0742C29.3344 27.0742 32.5431 29.0281 34.3128 31.9496C32.2432 34.4129 29.1396 35.9801 25.6731 35.9801C22.2063 35.9801 19.1029 34.4129 17.0331 31.9491Z" fill="#D0D5DD"/>
</svg>
