<svg width="96" height="96" viewBox="0 0 96 96" fill="none" xmlns="http://www.w3.org/2000/svg">
<circle cx="48" cy="48" r="48" fill="#EAECF0"/>
<path d="M25.0879 69.6159C31.206 63.1268 39.5124 59.1387 48.6615 59.1387C57.8107 59.1387 66.117 63.1268 72.2352 69.6159M60.4483 36.8747C60.4483 43.3844 55.1712 48.6615 48.6615 48.6615C42.1518 48.6615 36.8747 43.3844 36.8747 36.8747C36.8747 30.365 42.1518 25.0879 48.6615 25.0879C55.1712 25.0879 60.4483 30.365 60.4483 36.8747Z" stroke="#98A2B3" stroke-width="4" stroke-linecap="round" stroke-linejoin="round"/>
<circle cx="20.5" cy="75.5" r="20.5" fill="#6D88FF"/>
<path d="M17.5289 72.4263C17.7919 71.6787 18.311 71.0482 18.9943 70.6467C19.6776 70.2451 20.4809 70.0983 21.2621 70.2323C22.0432 70.3663 22.7517 70.7724 23.2621 71.3787C23.7725 71.985 24.0519 72.7524 24.0507 73.545C24.0507 75.7823 20.6947 76.9009 20.6947 76.9009M20.7842 81.3755H20.7954M31.9708 75.7823C31.9708 81.9604 26.9624 86.9688 20.7842 86.9688C14.6061 86.9688 9.59766 81.9604 9.59766 75.7823C9.59766 69.6041 14.6061 64.5957 20.7842 64.5957C26.9624 64.5957 31.9708 69.6041 31.9708 75.7823Z" stroke="white" stroke-width="2" stroke-linecap="round" stroke-linejoin="round"/>
</svg>
