<?xml version="1.0" encoding="iso-8859-1"?>
<!-- Generator: Adobe Illustrator 27.4.0, SVG Export Plug-In . SVG Version: 6.00 Build 0)  -->
<svg version="1.1" id="Layer_1" xmlns="http://www.w3.org/2000/svg" xmlns:xlink="http://www.w3.org/1999/xlink" x="0px" y="0px"
	 viewBox="0 0 24 24" style="enable-background:new 0 0 24 24;" xml:space="preserve">
<g>
	<path d="M15.2,22H7.8c-1.838,0-2.76,0-3.616-0.437c-0.757-0.385-1.362-0.989-1.748-1.747C2,18.96,2,18.037,2,16.2V8.8
		c0-1.838,0-2.76,0.436-3.616c0.386-0.757,0.991-1.362,1.748-1.748C5.04,3,5.962,3,7.8,3H11c0.552,0,1,0.448,1,1s-0.448,1-1,1H7.8
		C6.33,5,5.52,5,5.092,5.218C4.713,5.411,4.411,5.713,4.218,6.092C4,6.52,4,7.33,4,8.8v7.4c0,1.47,0,2.279,0.218,2.708
		c0.193,0.379,0.495,0.681,0.874,0.873C5.52,20,6.33,20,7.8,20h7.4c1.47,0,2.279,0,2.708-0.219c0.379-0.192,0.681-0.494,0.873-0.872
		C19,18.479,19,17.67,19,16.2V13c0-0.552,0.447-1,1-1s1,0.448,1,1v3.2c0,1.837,0,2.76-0.436,3.616
		c-0.386,0.758-0.99,1.362-1.749,1.748C17.96,22,17.037,22,15.2,22z M13,18H7c-0.552,0-1-0.447-1-1s0.448-1,1-1h6
		c0.553,0,1,0.447,1,1S13.553,18,13,18z M15,14H7c-0.552,0-1-0.447-1-1c0-0.552,0.448-1,1-1h8c0.553,0,1,0.448,1,1
		C16,13.553,15.553,14,15,14z M18,9.998c-1.024,0-2.049-0.39-2.828-1.17C14.416,8.073,14,7.068,14,6s0.416-2.073,1.172-2.828
		c1.559-1.56,4.098-1.56,5.656,0C21.584,3.927,22,4.932,22,6s-0.416,2.073-1.172,2.828C20.049,9.608,19.024,9.998,18,9.998z
		 M18,4.001c-0.512,0-1.024,0.195-1.414,0.584C16.208,4.964,16,5.466,16,6s0.208,1.036,0.586,1.414c0.779,0.779,2.049,0.779,2.828,0
		C19.792,7.036,20,6.534,20,6s-0.208-1.036-0.586-1.414l0,0C19.024,4.196,18.512,4.001,18,4.001z"/>
</g>
</svg>
