<?xml version="1.0" encoding="iso-8859-1"?>
<!-- Generator: Adobe Illustrator 27.4.0, SVG Export Plug-In . SVG Version: 6.00 Build 0)  -->
<svg version="1.1" id="Layer_1" xmlns="http://www.w3.org/2000/svg" xmlns:xlink="http://www.w3.org/1999/xlink" x="0px" y="0px"
	 viewBox="0 0 24 24" style="enable-background:new 0 0 24 24;" xml:space="preserve">
<g>
	<path d="M11.999,22.856c-0.134,0-0.269-0.014-0.402-0.041c-0.299-0.062-0.518-0.184-0.849-0.367l-7.412-4.117
		c-0.357-0.198-0.592-0.328-0.811-0.567c-0.189-0.205-0.334-0.449-0.425-0.722C2,16.732,2,16.464,2,16.059V7.941
		c0-0.406,0-0.674,0.101-0.979c0.091-0.274,0.235-0.519,0.429-0.729c0.217-0.236,0.45-0.365,0.801-0.561l3.666-2.037
		C7.008,3.629,7.019,3.623,7.03,3.617l3.707-2.06c0.343-0.19,0.562-0.312,0.861-0.373c0.267-0.055,0.538-0.054,0.804,0
		c0.298,0.061,0.517,0.183,0.849,0.366l7.41,4.118c0.354,0.197,0.589,0.327,0.807,0.562c0.198,0.215,0.343,0.461,0.432,0.734
		C22,7.266,22,7.535,22,7.941V12.5c0,0.553-0.447,1-1,1s-1-0.447-1-1V8.7l-3.001,1.667c-0.008,0.005-0.017,0.01-0.025,0.014
		L13,12.588v7.856c0.351,0,0.691,0.186,0.874,0.515c0.269,0.482,0.095,1.091-0.389,1.359l-0.223,0.124
		c-0.342,0.189-0.561,0.311-0.857,0.372C12.27,22.843,12.134,22.856,11.999,22.856z M4,8.7v7.359c0,0.18-0.006,0.293,0.008,0.384
		c0.042,0.005,0.144,0.054,0.298,0.139L11,20.301v-7.712L4,8.7z M5.059,7L12,10.856L14.44,9.5L7.5,5.644L5.059,7z M9.559,4.5
		L16.5,8.356L18.94,7l-6.649-3.694c-0.152-0.084-0.24-0.14-0.32-0.169c-0.022,0.03-0.111,0.085-0.253,0.165L9.559,4.5z M21.5,22
		c-0.256,0-0.512-0.098-0.707-0.293L19,19.914l-1.793,1.793c-0.391,0.391-1.023,0.391-1.414,0s-0.391-1.023,0-1.414l1.793-1.793
		l-1.793-1.793c-0.391-0.391-0.391-1.023,0-1.414s1.023-0.391,1.414,0L19,17.086l1.793-1.793c0.391-0.391,1.023-0.391,1.414,0
		s0.391,1.023,0,1.414L20.414,18.5l1.793,1.793c0.391,0.391,0.391,1.023,0,1.414C22.012,21.902,21.756,22,21.5,22z"/>
</g>
</svg>
