<?xml version="1.0" encoding="iso-8859-1"?>
<!-- Generator: Adobe Illustrator 27.4.0, SVG Export Plug-In . SVG Version: 6.00 Build 0)  -->
<svg version="1.1" id="Layer_1" xmlns="http://www.w3.org/2000/svg" xmlns:xlink="http://www.w3.org/1999/xlink" x="0px" y="0px"
	 viewBox="0 0 24 24" style="enable-background:new 0 0 24 24;" xml:space="preserve">
<g>
	<path d="M14,23H2c-0.552,0-1-0.447-1-1s0.448-1,1-1h12c0.553,0,1,0.447,1,1S14.553,23,14,23z M9,19.173
		c-0.312,0-0.625-0.05-0.928-0.148c-0.683-0.221-1.164-0.702-2.039-1.576L2.555,13.97c-0.875-0.875-1.358-1.357-1.581-2.042
		c-0.197-0.607-0.197-1.248,0-1.854C1.197,9.388,1.68,8.906,2.555,8.03L7.585,3L7.292,2.707c-0.391-0.391-0.391-1.023,0-1.414
		s1.023-0.391,1.414,0l2,2c0,0,0,0,0,0l5.868,5.868c0.459,0.458,0.763,0.762,0.912,1.22c0.132,0.405,0.132,0.833,0,1.238
		c-0.149,0.458-0.453,0.761-0.912,1.22l-4.606,4.605c-0.877,0.878-1.359,1.359-2.044,1.58C9.623,19.123,9.312,19.173,9,19.173z
		 M3.42,12c0.156,0.162,0.34,0.347,0.549,0.556l3.475,3.475c0.615,0.614,1.018,1.019,1.245,1.091
		c0.204,0.068,0.417,0.067,0.619,0.001c0.229-0.073,0.632-0.478,1.243-1.088L14.585,12H3.42z M3.42,10h11.165L9.293,4.708
		c0,0,0,0,0,0L9,4.414l-5.03,5.03C3.76,9.653,3.576,9.838,3.42,10z M20,19c-1.654,0-3-1.346-3-3c0-1.424,1.77-3.212,2.312-3.726
		c0.385-0.366,0.99-0.366,1.375,0C21.23,12.788,23,14.576,23,16C23,17.654,21.654,19,20,19z M20,14.449
		c-0.558,0.644-0.987,1.292-1,1.553C19,16.552,19.448,17,20,17c0.551,0,0.999-0.448,1-0.998C20.986,15.74,20.557,15.093,20,14.449z"
		/>
</g>
</svg>
