<?xml version="1.0" encoding="iso-8859-1"?>
<!-- Generator: Adobe Illustrator 27.4.0, SVG Export Plug-In . SVG Version: 6.00 Build 0)  -->
<svg version="1.1" id="Layer_1" xmlns="http://www.w3.org/2000/svg" xmlns:xlink="http://www.w3.org/1999/xlink" x="0px" y="0px"
	 viewBox="0 0 24 24" style="enable-background:new 0 0 24 24;" xml:space="preserve">
<g>
	<path d="M11.5,22.759c-0.416,0-0.832-0.065-1.237-0.197c-0.914-0.298-1.606-0.99-2.864-2.249l-3.212-3.211
		c-1.3-1.301-1.952-1.952-2.249-2.866c-0.263-0.809-0.263-1.663,0-2.472c0.297-0.914,0.99-1.607,2.249-2.865L10.085,3L9.792,2.707
		c-0.391-0.391-0.391-1.023,0-1.414s1.023-0.391,1.414,0l1.5,1.5c0,0,0,0,0,0l8.368,8.369c0.459,0.458,0.763,0.762,0.912,1.22
		c0.13,0.399,0.13,0.839-0.001,1.238c-0.148,0.457-0.451,0.761-0.911,1.22l-5.475,5.474c-1.257,1.258-1.949,1.951-2.865,2.249
		C12.332,22.693,11.916,22.759,11.5,22.759z M4.04,14c0.274,0.4,0.788,0.915,1.559,1.686l3.213,3.213
		c1.039,1.04,1.612,1.612,2.069,1.761c0.406,0.134,0.832,0.134,1.236,0c0.458-0.148,1.03-0.722,2.069-1.761L19.086,14H4.04z
		 M4.04,12h15.045L11.5,4.414l-5.899,5.899C4.829,11.085,4.314,11.599,4.04,12z"/>
</g>
</svg>
