<?xml version="1.0" encoding="iso-8859-1"?>
<!-- Generator: Adobe Illustrator 27.4.0, SVG Export Plug-In . SVG Version: 6.00 Build 0)  -->
<svg version="1.1" id="Layer_1" xmlns="http://www.w3.org/2000/svg" xmlns:xlink="http://www.w3.org/1999/xlink" x="0px" y="0px"
	 viewBox="0 0 24 24" style="enable-background:new 0 0 24 24;" xml:space="preserve">
<g>
	<path d="M12,23C5.935,23,1,18.065,1,12S5.935,1,12,1s11,4.935,11,11c0,2.206-1.794,4-4,4h-0.5
		c-0.393,0.001-0.595-0.005-0.763,0.017c-0.894,0.118-1.603,0.827-1.721,1.723C15.995,17.904,16,18.103,16,18.5V19
		C16,21.206,14.206,23,12,23z M12,3c-4.962,0-9,4.038-9,9c0,4.963,4.038,9,9,9c1.103,0,2-0.897,2-2v-0.5
		c0-0.532,0.005-0.797,0.034-1.021c0.236-1.793,1.652-3.209,3.443-3.445C17.703,14.005,17.968,14,18.5,14H19c1.103,0,2-0.897,2-2
		C21,7.038,16.963,3,12,3z"/>
</g>
<g>
	<circle cx="7" cy="12" r="2"/>
</g>
<g>
	<circle cx="16" cy="8" r="2"/>
</g>
<g>
	<circle cx="10" cy="7" r="2"/>
</g>
</svg>
