<?xml version="1.0" encoding="iso-8859-1"?>
<!-- Generator: Adobe Illustrator 27.4.0, SVG Export Plug-In . SVG Version: 6.00 Build 0)  -->
<svg version="1.1" id="Layer_1" xmlns="http://www.w3.org/2000/svg" xmlns:xlink="http://www.w3.org/1999/xlink" x="0px" y="0px"
	 viewBox="0 0 24 24" style="enable-background:new 0 0 24 24;" xml:space="preserve">
<g>
	<path d="M8.424,22.449c-1.6,0-3.201-0.609-4.419-1.827c-1.181-1.18-1.831-2.75-1.831-4.419c0-1.67,0.65-3.239,1.831-4.42
		l9.015-9.016c1.753-1.754,4.609-1.755,6.364,0c0.851,0.85,1.318,1.98,1.318,3.182s-0.468,2.332-1.318,3.182l-8.662,8.662
		c-1.072,1.072-2.817,1.072-3.889,0c-1.072-1.072-1.072-2.817,0-3.89l7.603-7.601c0.391-0.391,1.023-0.391,1.414,0
		s0.391,1.023,0,1.414l-7.602,7.601c-0.292,0.293-0.292,0.769,0,1.062c0.292,0.294,0.768,0.292,1.061,0l8.662-8.662
		c0.975-0.975,0.975-2.561,0-3.536c-0.976-0.976-2.563-0.975-3.536,0l-9.015,9.016C4.617,14,4.175,15.067,4.175,16.203
		c0,1.135,0.442,2.202,1.245,3.005c1.658,1.656,4.353,1.657,6.01,0l9.016-9.016c0.391-0.391,1.023-0.391,1.414,0
		s0.391,1.023,0,1.414l-9.016,9.016C11.625,21.84,10.025,22.449,8.424,22.449z"/>
</g>
</svg>
