<?xml version="1.0" encoding="iso-8859-1"?>
<!-- Generator: Adobe Illustrator 27.4.0, SVG Export Plug-In . SVG Version: 6.00 Build 0)  -->
<svg version="1.1" id="Layer_1" xmlns="http://www.w3.org/2000/svg" xmlns:xlink="http://www.w3.org/1999/xlink" x="0px" y="0px"
	 viewBox="0 0 24 24" style="enable-background:new 0 0 24 24;" xml:space="preserve">
<g>
	<path d="M16,21c-0.256,0-0.512-0.098-0.707-0.293l-2-2c-0.097-0.097-0.169-0.207-0.218-0.326C13.027,18.265,13,18.137,13,18.003
		l0,0c0-0.002,0-0.004,0-0.006l0,0c0-0.134,0.027-0.262,0.075-0.378c0.049-0.119,0.121-0.229,0.218-0.326l2-2
		c0.391-0.391,1.023-0.391,1.414,0s0.391,1.023,0,1.414L16.414,17H18c0.534,0,1.036-0.208,1.414-0.586S20,15.534,20,15
		s-0.208-1.036-0.586-1.414S18.534,13,18,13H3c-0.552,0-1-0.448-1-1s0.448-1,1-1h15c1.068,0,2.073,0.417,2.828,1.172
		C21.584,12.927,22,13.932,22,15s-0.416,2.072-1.172,2.828S19.068,19,18,19h-1.586l0.293,0.293c0.391,0.391,0.391,1.023,0,1.414
		C16.512,20.902,16.256,21,16,21z M10,19H3c-0.552,0-1-0.447-1-1s0.448-1,1-1h7c0.552,0,1,0.447,1,1S10.552,19,10,19z M21,7H3
		C2.448,7,2,6.552,2,6s0.448-1,1-1h18c0.553,0,1,0.448,1,1S21.553,7,21,7z"/>
</g>
</svg>
