<?xml version="1.0" encoding="iso-8859-1"?>
<!-- Generator: Adobe Illustrator 27.4.0, SVG Export Plug-In . SVG Version: 6.00 Build 0)  -->
<svg version="1.1" id="Layer_1" xmlns="http://www.w3.org/2000/svg" xmlns:xlink="http://www.w3.org/1999/xlink" x="0px" y="0px"
	 viewBox="0 0 24 24" style="enable-background:new 0 0 24 24;" xml:space="preserve">
<g>
	<path d="M6,21c-0.001,0-0.002,0-0.003,0l0,0c-0.134,0-0.262-0.027-0.378-0.075c-0.119-0.049-0.23-0.121-0.326-0.218l-3-3
		c-0.391-0.391-0.391-1.023,0-1.414s1.023-0.391,1.414,0L5,17.586V6.414L3.707,7.707c-0.391,0.391-1.023,0.391-1.414,0
		s-0.391-1.023,0-1.414l3-3C5.389,3.197,5.5,3.124,5.619,3.075C5.735,3.027,5.863,3,5.997,3l0,0c0.002,0,0.004,0,0.006,0l0,0
		c0.134,0,0.262,0.027,0.378,0.075C6.5,3.124,6.611,3.197,6.707,3.293l3,3c0.391,0.391,0.391,1.023,0,1.414s-1.023,0.391-1.414,0
		L7,6.414v11.172l1.293-1.293c0.391-0.391,1.023-0.391,1.414,0s0.391,1.023,0,1.414l-3,3c-0.096,0.097-0.208,0.169-0.326,0.218
		C6.265,20.973,6.137,21,6.003,21l0,0C6.002,21,6.001,21,6,21z M21,19h-8c-0.552,0-1-0.447-1-1s0.448-1,1-1h8c0.553,0,1,0.447,1,1
		S21.553,19,21,19z M21,15h-8c-0.552,0-1-0.447-1-1s0.448-1,1-1h8c0.553,0,1,0.447,1,1S21.553,15,21,15z M21,11h-8
		c-0.552,0-1-0.448-1-1s0.448-1,1-1h8c0.553,0,1,0.448,1,1S21.553,11,21,11z M21,7h-8c-0.552,0-1-0.448-1-1s0.448-1,1-1h8
		c0.553,0,1,0.448,1,1S21.553,7,21,7z"/>
</g>
</svg>
