<?xml version="1.0" encoding="iso-8859-1"?>
<!-- Generator: Adobe Illustrator 27.4.0, SVG Export Plug-In . SVG Version: 6.00 Build 0)  -->
<svg version="1.1" id="Layer_1" xmlns="http://www.w3.org/2000/svg" xmlns:xlink="http://www.w3.org/1999/xlink" x="0px" y="0px"
	 viewBox="0 0 24 24" style="enable-background:new 0 0 24 24;" xml:space="preserve">
<g>
	<path d="M18.8,18H5.2c-1.238,0-1.92,0-2.562-0.326c-0.57-0.292-1.022-0.744-1.312-1.311C1,15.721,1,15.038,1,13.8v-3.6
		c0-1.238,0-1.92,0.327-2.562C1.617,7.07,2.07,6.617,2.637,6.327C3.28,6,3.962,6,5.2,6h13.6c1.238,0,1.921,0,2.562,0.327
		c0.567,0.29,1.02,0.742,1.311,1.31C23,8.28,23,8.962,23,10.2v3.6c0,1.238,0,1.921-0.326,2.562
		c-0.291,0.567-0.744,1.021-1.311,1.311C20.721,18,20.038,18,18.8,18z M5.2,8C4.333,8,3.76,8,3.545,8.109
		c-0.186,0.095-0.341,0.25-0.437,0.438C3,8.76,3,9.333,3,10.2v3.6c0,0.867,0,1.44,0.109,1.654c0.096,0.188,0.248,0.341,0.438,0.438
		C3.76,16,4.333,16,5.2,16h13.6c0.867,0,1.44,0,1.654-0.109c0.188-0.096,0.341-0.248,0.438-0.438C21,15.24,21,14.667,21,13.8v-3.6
		c0-0.868,0-1.44-0.109-1.655c-0.096-0.188-0.248-0.34-0.438-0.437C20.24,8,19.667,8,18.8,8H5.2z M17,13.25
		c-0.689,0-1.25-0.561-1.25-1.25s0.561-1.25,1.25-1.25s1.25,0.561,1.25,1.25S17.689,13.25,17,13.25z M12,13.25
		c-0.689,0-1.25-0.561-1.25-1.25s0.561-1.25,1.25-1.25s1.25,0.561,1.25,1.25S12.689,13.25,12,13.25z M7,13.25
		c-0.689,0-1.25-0.561-1.25-1.25S6.311,10.75,7,10.75S8.25,11.311,8.25,12S7.689,13.25,7,13.25z"/>
</g>
</svg>
