<?xml version="1.0" encoding="iso-8859-1"?>
<!-- Generator: Adobe Illustrator 27.4.0, SVG Export Plug-In . SVG Version: 6.00 Build 0)  -->
<svg version="1.1" id="Layer_1" xmlns="http://www.w3.org/2000/svg" xmlns:xlink="http://www.w3.org/1999/xlink" x="0px" y="0px"
	 viewBox="0 0 24 24" style="enable-background:new 0 0 24 24;" xml:space="preserve">
<g>
	<path d="M4,23c-0.116,0.001-0.165-0.011-0.243-0.029c-0.096-0.024-0.188-0.062-0.274-0.114c-0.069-0.041-0.132-0.091-0.188-0.146
		c-0.058-0.057-0.109-0.122-0.153-0.193c-0.052-0.087-0.09-0.18-0.113-0.274C3.01,22.162,3,22.079,3,21.995
		c0-0.08,0.011-0.159,0.03-0.235c0.006-0.024,0.013-0.05,0.021-0.074l3.739-12.15c0.11-0.359,0.184-0.597,0.353-0.847
		C7.293,8.466,7.483,8.28,7.707,8.135c0.25-0.163,0.489-0.231,0.851-0.334l4.896-1.399c-0.07-0.339-0.051-0.688,0.058-1.021
		c0.149-0.456,0.453-0.76,0.913-1.22l0.735-0.736c0.463-0.462,0.767-0.766,1.225-0.913c0.396-0.129,0.835-0.129,1.234,0.001
		c0.454,0.146,0.758,0.45,1.218,0.909l3.738,3.739c0.46,0.46,0.764,0.764,0.913,1.22c0.132,0.405,0.132,0.833,0,1.238
		c-0.149,0.456-0.453,0.76-0.913,1.22l-0.735,0.736c-0.463,0.462-0.767,0.766-1.225,0.913c-0.325,0.106-0.679,0.125-1.017,0.057
		L18.2,17.439c-0.099,0.347-0.17,0.598-0.333,0.851c-0.151,0.23-0.336,0.419-0.555,0.567c-0.252,0.171-0.503,0.247-0.849,0.354
		L4.314,22.949c-0.025,0.009-0.049,0.016-0.074,0.021C4.163,22.99,4.082,23,4,23z M10.707,16.707L7.554,19.86l8.323-2.562
		c0.158-0.048,0.259-0.073,0.335-0.109c-0.004-0.036,0.02-0.138,0.064-0.298l1.601-5.6l-3.168-3.168l-5.6,1.6
		c-0.16,0.046-0.261,0.069-0.338,0.104c0.003,0.038-0.022,0.139-0.07,0.297L6.14,18.446l3.153-3.153C9.105,14.901,9,14.463,9,14
		c0-1.654,1.346-3,3-3s3,1.346,3,3s-1.346,3-3,3C11.538,17,11.099,16.895,10.707,16.707z M12,13c-0.551,0-1,0.448-1,1s0.449,1,1,1
		s1-0.448,1-1S12.551,13,12,13z M19.718,10.304c0.146,0.144,0.275,0.269,0.33,0.302c-0.023-0.044,0.179-0.247,0.375-0.443
		l0.737-0.738c0.198-0.198,0.402-0.401,0.447-0.474c-0.045,0.025-0.247-0.177-0.446-0.375v0l-3.736-3.737
		c-0.198-0.197-0.4-0.4-0.473-0.444c0.023,0.044-0.179,0.247-0.375,0.443L15.84,5.575c-0.198,0.198-0.402,0.401-0.447,0.474
		c0.031-0.02,0.146,0.08,0.281,0.212c0.018,0.016,0.035,0.032,0.051,0.049c0.037,0.037,0.076,0.075,0.114,0.113l3.736,3.738
		c0.038,0.038,0.076,0.076,0.114,0.114C19.699,10.285,19.709,10.294,19.718,10.304z M5,9C4.448,9,4,8.552,4,8V6H2
		C1.448,6,1,5.552,1,5s0.448-1,1-1h2V2c0-0.552,0.448-1,1-1s1,0.448,1,1v2h2c0.552,0,1,0.448,1,1S8.552,6,8,6H6v2
		C6,8.552,5.552,9,5,9z"/>
</g>
</svg>
