<?xml version="1.0" encoding="iso-8859-1"?>
<!-- Generator: Adobe Illustrator 27.4.0, SVG Export Plug-In . SVG Version: 6.00 Build 0)  -->
<svg version="1.1" id="Layer_1" xmlns="http://www.w3.org/2000/svg" xmlns:xlink="http://www.w3.org/1999/xlink" x="0px" y="0px"
	 viewBox="0 0 24 24" style="enable-background:new 0 0 24 24;" xml:space="preserve">
<g>
	<path d="M4,23c-0.083,0-0.164-0.01-0.243-0.03c-0.094-0.023-0.186-0.061-0.271-0.111c-0.07-0.042-0.134-0.093-0.191-0.148
		c-0.058-0.058-0.109-0.122-0.151-0.193c-0.053-0.087-0.091-0.181-0.115-0.276C3.01,22.163,3,22.083,3,22.002
		c0-0.083,0.01-0.164,0.03-0.242c0.006-0.024,0.013-0.05,0.021-0.074l3.739-12.15C6.9,9.174,6.973,8.937,7.143,8.688
		c0.15-0.221,0.34-0.407,0.564-0.552c0.25-0.163,0.486-0.23,0.845-0.333l4.903-1.401c-0.069-0.339-0.051-0.688,0.058-1.021
		c0.148-0.456,0.452-0.759,0.911-1.218l0.737-0.738c0.463-0.462,0.766-0.765,1.223-0.913c0.398-0.129,0.836-0.129,1.234,0
		c0.457,0.148,0.76,0.451,1.22,0.91l3.738,3.74l-0.707,0.707l0.709-0.706c0.459,0.459,0.763,0.762,0.911,1.219
		c0.132,0.404,0.132,0.832,0,1.236c-0.149,0.457-0.453,0.761-0.913,1.221l-0.735,0.736c-0.461,0.46-0.766,0.764-1.223,0.913
		c-0.326,0.106-0.682,0.125-1.019,0.057L18.2,17.439c-0.099,0.347-0.17,0.598-0.333,0.851c-0.151,0.23-0.336,0.419-0.555,0.567
		c-0.252,0.171-0.503,0.247-0.849,0.354L4.314,22.95c-0.025,0.008-0.05,0.015-0.075,0.021C4.162,22.99,4.083,23,4.002,23
		C4.001,23,4,23,4,23z M10.707,16.707L7.554,19.86l8.323-2.562c0.158-0.048,0.259-0.073,0.335-0.109
		c-0.004-0.036,0.02-0.138,0.064-0.298l1.601-5.6l-3.168-3.168l-5.6,1.6C8.948,9.769,8.848,9.792,8.771,9.827
		c0.003,0.038-0.022,0.14-0.071,0.297L6.14,18.446l3.153-3.153C9.105,14.901,9,14.463,9,14c0-1.654,1.346-3,3-3s3,1.346,3,3
		s-1.346,3-3,3C11.538,17,11.099,16.895,10.707,16.707z M12,13c-0.551,0-1,0.448-1,1s0.449,1,1,1s1-0.448,1-1S12.551,13,12,13z
		 M19.718,10.303c0.146,0.144,0.275,0.269,0.33,0.303c-0.023-0.044,0.18-0.248,0.377-0.445l0.735-0.736
		c0.198-0.198,0.402-0.401,0.447-0.474c-0.045,0.025-0.246-0.176-0.444-0.373l-0.002-0.002l-3.736-3.737
		c-0.198-0.198-0.401-0.401-0.473-0.445c0.024,0.044-0.179,0.247-0.375,0.443L15.84,5.575c-0.199,0.199-0.402,0.402-0.446,0.473
		c0.019-0.019,0.144,0.081,0.281,0.213c0.017,0.016,0.034,0.032,0.05,0.049c0.037,0.037,0.076,0.075,0.114,0.113l3.736,3.738
		c0.038,0.038,0.077,0.077,0.114,0.114C19.699,10.285,19.708,10.294,19.718,10.303z M8,6H2C1.448,6,1,5.552,1,5s0.448-1,1-1h6
		c0.552,0,1,0.448,1,1S8.552,6,8,6z"/>
</g>
</svg>
