<?xml version="1.0" encoding="iso-8859-1"?>
<!-- Generator: Adobe Illustrator 27.4.0, SVG Export Plug-In . SVG Version: 6.00 Build 0)  -->
<svg version="1.1" id="Layer_1" xmlns="http://www.w3.org/2000/svg" xmlns:xlink="http://www.w3.org/1999/xlink" x="0px" y="0px"
	 viewBox="0 0 24 24" style="enable-background:new 0 0 24 24;" xml:space="preserve">
<g>
	<path d="M15,22.586c-0.209,0-0.419-0.033-0.619-0.099c-0.455-0.147-0.76-0.451-1.22-0.912l-0.736-0.736
		c-0.461-0.461-0.765-0.766-0.913-1.224c-0.095-0.29-0.12-0.604-0.075-0.908l-5.131-1.026c-0.429-0.085-0.714-0.142-1.011-0.32
		c-0.257-0.154-0.482-0.37-0.647-0.623c-0.188-0.288-0.256-0.57-0.359-0.996L1.033,2.254C1.011,2.172,1,2.087,1,2
		c0-0.093,0.013-0.184,0.037-0.271C1.059,1.651,1.09,1.576,1.131,1.504c0.043-0.077,0.097-0.146,0.157-0.208
		c0.064-0.065,0.138-0.122,0.219-0.167c0,0,0,0,0,0c0,0,0,0,0,0c0.071-0.04,0.146-0.071,0.223-0.092C1.818,1.012,1.895,0.972,2,1
		c0.047,0.004,0.172,0.011,0.254,0.033l13.487,3.255c0.426,0.103,0.708,0.171,0.996,0.359c0.253,0.166,0.469,0.39,0.624,0.65
		c0.178,0.295,0.234,0.58,0.319,1.01l1.026,5.129c0.303-0.045,0.618-0.02,0.912,0.077c0.454,0.147,0.759,0.451,1.22,0.912
		l0.736,0.736c0.461,0.46,0.765,0.765,0.913,1.222c0.13,0.397,0.13,0.837-0.001,1.236c-0.147,0.455-0.451,0.76-0.912,1.22
		l-4.736,4.736c-0.46,0.461-0.765,0.765-1.222,0.913C15.419,22.553,15.21,22.586,15,22.586z M13.402,19.046
		c0.058,0,0.25,0.192,0.437,0.379l0.736,0.736c0.197,0.197,0.401,0.401,0.473,0.445c-0.024-0.044,0.18-0.248,0.377-0.445
		l4.736-4.736c0.197-0.197,0.401-0.401,0.445-0.473c-0.032,0.016-0.246-0.178-0.445-0.377l-0.736-0.736
		c-0.197-0.197-0.4-0.4-0.473-0.445c0.017,0.032-0.082,0.145-0.211,0.278c-0.018,0.02-0.036,0.038-0.056,0.057
		c-0.036,0.036-0.073,0.073-0.11,0.11l-4.736,4.736c-0.197,0.197-0.4,0.4-0.445,0.473C13.396,19.046,13.399,19.046,13.402,19.046z
		 M6.371,15.672c0.06,0,0.17,0.017,0.327,0.048l5.974,1.194l4.243-4.243L15.72,6.698c-0.038-0.191-0.055-0.313-0.09-0.405
		c-0.046,0.005-0.169-0.016-0.357-0.061L5.22,3.806l4.487,4.487C10.099,8.105,10.538,8,11,8c1.654,0,3,1.346,3,3s-1.346,3-3,3
		s-3-1.346-3-3c0-0.462,0.105-0.901,0.293-1.293L3.806,5.22l2.426,10.052c0.046,0.189,0.067,0.311,0.106,0.401
		C6.347,15.672,6.357,15.672,6.371,15.672z M11,10c-0.551,0-1,0.449-1,1s0.449,1,1,1s1-0.449,1-1S11.551,10,11,10z"/>
</g>
</svg>
