<?xml version="1.0" encoding="iso-8859-1"?>
<!-- Generator: Adobe Illustrator 27.4.0, SVG Export Plug-In . SVG Version: 6.00 Build 0)  -->
<svg version="1.1" id="Layer_1" xmlns="http://www.w3.org/2000/svg" xmlns:xlink="http://www.w3.org/1999/xlink" x="0px" y="0px"
	 viewBox="0 0 24 24" style="enable-background:new 0 0 24 24;" xml:space="preserve">
<g>
	<path d="M1.999,23c-0.094,0-0.186-0.013-0.273-0.038c-0.074-0.021-0.146-0.051-0.215-0.09c-0.08-0.045-0.151-0.1-0.215-0.162
		c-0.065-0.064-0.122-0.139-0.168-0.222c-0.039-0.069-0.069-0.142-0.09-0.217C1.013,22.184,1,22.092,1,21.999
		c0-0.087,0.011-0.171,0.033-0.253L4.288,8.258c0.103-0.426,0.171-0.707,0.358-0.995c0.167-0.256,0.392-0.471,0.65-0.625
		c0.295-0.176,0.578-0.233,1.006-0.319l5.133-1.026c-0.045-0.304-0.02-0.614,0.077-0.912c0.147-0.455,0.451-0.758,0.911-1.218
		l0.737-0.738c0.463-0.462,0.766-0.765,1.223-0.913c0.398-0.129,0.836-0.129,1.234,0c0.457,0.148,0.76,0.451,1.22,0.91l4.738,4.74
		l-0.707,0.707l0.709-0.706c0.459,0.459,0.763,0.762,0.911,1.219c0.132,0.404,0.132,0.832,0,1.236
		c-0.149,0.457-0.453,0.761-0.913,1.221l-0.735,0.736c-0.461,0.46-0.766,0.764-1.223,0.913c-0.29,0.095-0.604,0.122-0.91,0.076
		l-1.026,5.131c-0.086,0.43-0.143,0.715-0.321,1.013c-0.154,0.258-0.363,0.477-0.62,0.645c-0.289,0.188-0.568,0.256-0.991,0.358
		L2.253,22.968C2.172,22.989,2.134,22.994,1.999,23z M9.707,15.707L5.22,20.193l10.052-2.426c0.192-0.047,0.312-0.068,0.402-0.106
		c-0.01-0.047,0.007-0.168,0.045-0.358l1.194-5.974l-4.242-4.244L6.698,8.28C6.506,8.318,6.384,8.335,6.292,8.371
		C6.3,8.416,6.278,8.538,6.232,8.727L3.806,18.779l4.487-4.486C8.105,13.901,8,13.463,8,13c0-1.654,1.346-3,3-3s3,1.346,3,3
		s-1.346,3-3,3C10.538,16,10.099,15.895,9.707,15.707z M11,12c-0.551,0-1,0.449-1,1c0,0.552,0.449,1,1,1s1-0.448,1-1
		C12,12.449,11.551,12,11,12z M18.715,10.3c0.146,0.146,0.278,0.272,0.333,0.306c-0.023-0.044,0.18-0.248,0.377-0.445l0.735-0.736
		c0.198-0.198,0.402-0.401,0.447-0.474c-0.045,0.025-0.246-0.176-0.444-0.373l-0.002-0.002l-4.736-4.737
		c-0.198-0.198-0.401-0.401-0.473-0.445c0.024,0.044-0.179,0.247-0.375,0.443L13.84,4.575c-0.199,0.199-0.402,0.401-0.446,0.472
		c0.045-0.017,0.147,0.085,0.283,0.216c0.016,0.015,0.031,0.029,0.046,0.045c0.038,0.038,0.077,0.077,0.116,0.115l4.736,4.738
		c0.039,0.039,0.079,0.079,0.117,0.117C18.7,10.286,18.707,10.293,18.715,10.3z"/>
</g>
</svg>
