<?xml version="1.0" encoding="iso-8859-1"?>
<!-- Generator: Adobe Illustrator 27.4.0, SVG Export Plug-In . SVG Version: 6.00 Build 0)  -->
<svg version="1.1" id="Layer_1" xmlns="http://www.w3.org/2000/svg" xmlns:xlink="http://www.w3.org/1999/xlink" x="0px" y="0px"
	 viewBox="0 0 24 24" style="enable-background:new 0 0 24 24;" xml:space="preserve">
<g>
	<path d="M2,23c-0.262,0-0.517-0.103-0.707-0.293c-0.254-0.254-0.352-0.624-0.258-0.97l1.276-4.68
		c0.104-0.383,0.162-0.57,0.241-0.747c0.084-0.189,0.19-0.371,0.314-0.54c0.111-0.153,0.246-0.297,0.523-0.574L13.728,4.859
		c0.248-0.25,0.464-0.466,0.81-0.579c0.303-0.099,0.622-0.099,0.927,0c0.345,0.112,0.561,0.329,0.811,0.58l2.867,2.867
		c0.255,0.256,0.468,0.47,0.578,0.81c0.098,0.304,0.098,0.623,0.001,0.924c-0.111,0.342-0.324,0.556-0.57,0.803L8.808,20.606
		c-0.278,0.277-0.42,0.411-0.576,0.526c-0.173,0.125-0.35,0.227-0.535,0.312c-0.187,0.083-0.375,0.141-0.754,0.244l-4.68,1.276
		C2.176,22.988,2.088,23,2,23z M15,6.415L4.808,16.606c-0.169,0.169-0.257,0.247-0.324,0.341c-0.043,0.06-0.078,0.118-0.105,0.18
		c-0.049,0.109-0.074,0.225-0.136,0.453l-0.817,2.995l2.992-0.816c0.232-0.062,0.349-0.089,0.457-0.137
		c0.057-0.026,0.121-0.063,0.18-0.105c0.088-0.065,0.17-0.154,0.341-0.325L17.586,9L15,6.415z M22,7
		c-0.256,0-0.512-0.098-0.707-0.293l-4-4c-0.391-0.391-0.391-1.023,0-1.414s1.023-0.391,1.414,0l4,4
		c0.391,0.391,0.391,1.023,0,1.414C22.512,6.902,22.256,7,22,7z"/>
</g>
</svg>
