<?xml version="1.0" encoding="iso-8859-1"?>
<!-- Generator: Adobe Illustrator 27.4.0, SVG Export Plug-In . SVG Version: 6.00 Build 0)  -->
<svg version="1.1" id="Layer_1" xmlns="http://www.w3.org/2000/svg" xmlns:xlink="http://www.w3.org/1999/xlink" x="0px" y="0px"
	 viewBox="0 0 24 24" style="enable-background:new 0 0 24 24;" xml:space="preserve">
<g>
	<path d="M2.5,22.5c-0.26,0-0.516-0.102-0.707-0.293c-0.092-0.093-0.164-0.2-0.213-0.315c-0.029-0.069-0.05-0.141-0.063-0.214
		c0,0,0-0.001,0-0.001c0-0.002,0-0.003-0.001-0.005c0-0.001,0-0.002,0-0.004l0,0c-0.03-0.174-0.014-0.355,0.052-0.527l2.134-5.55
		c0.163-0.422,0.245-0.623,0.347-0.812c0.105-0.196,0.227-0.384,0.364-0.561c0.131-0.169,0.282-0.325,0.584-0.628L16.293,2.293
		c1.445-1.446,3.969-1.446,5.414,0c1.492,1.492,1.492,3.921,0,5.414l-11.28,11.279c-0.312,0.312-0.471,0.466-0.644,0.601
		c-0.179,0.139-0.366,0.26-0.563,0.365c-0.186,0.101-0.386,0.183-0.778,0.333l-5.583,2.148C2.742,22.479,2.621,22.5,2.5,22.5z
		 M5.381,16.795l-1.14,2.964l2.963-1.14L5.381,16.795z M6.414,15c0.053,0.052,0.107,0.106,0.164,0.163l2.259,2.26
		c0.057,0.057,0.111,0.111,0.163,0.163c0.004-0.004,0.009-0.009,0.014-0.013l11.28-11.28c0.713-0.713,0.713-1.873,0-2.586
		c-0.691-0.691-1.895-0.691-2.586,0L6.427,14.986C6.423,14.991,6.418,14.996,6.414,15z"/>
</g>
</svg>
