<?xml version="1.0" encoding="iso-8859-1"?>
<!-- Generator: Adobe Illustrator 27.4.0, SVG Export Plug-In . SVG Version: 6.00 Build 0)  -->
<svg version="1.1" id="Layer_1" xmlns="http://www.w3.org/2000/svg" xmlns:xlink="http://www.w3.org/1999/xlink" x="0px" y="0px"
	 viewBox="0 0 24 24" style="enable-background:new 0 0 24 24;" xml:space="preserve">
<g>
	<path d="M2.5,22.5c-0.26,0-0.516-0.102-0.707-0.293c-0.279-0.279-0.368-0.697-0.226-1.066l2.134-5.549
		c0.162-0.42,0.244-0.623,0.347-0.813c0.105-0.196,0.227-0.384,0.364-0.561c0.133-0.172,0.286-0.33,0.596-0.64L16.293,2.293
		c1.492-1.493,3.922-1.493,5.414,0c1.493,1.493,1.493,3.921,0,5.414l-11.28,11.28c-0.313,0.312-0.471,0.465-0.644,0.6
		c-0.179,0.139-0.367,0.261-0.563,0.366c-0.193,0.104-0.397,0.187-0.807,0.344c-0.065,0.025-0.132,0.052-0.203,0.079l-5.352,2.058
		c0,0-0.001,0-0.001,0c-0.001,0-0.002,0.001-0.002,0.001c-0.002,0-0.002,0.001-0.003,0.001c0,0.001-0.001,0.001-0.002,0.001
		c0,0.001-0.001,0.001-0.002,0.001c0,0-0.001,0-0.001,0c0,0.001-0.001,0.001-0.002,0.001c0,0-0.001,0.002-0.003,0.001
		c0,0.001-0.001,0.001-0.002,0.001c-0.001,0.001-0.002,0.001-0.003,0.001h0c-0.002,0.002-0.002,0.001-0.003,0.001
		c0,0.001-0.001,0.001-0.002,0.001c0,0-0.001,0.001-0.003,0.001l0,0c-0.001,0-0.002,0.001-0.002,0.001l0,0
		C2.719,22.482,2.609,22.5,2.5,22.5z M5.381,16.795l-1.14,2.964l2.963-1.14L5.381,16.795z M7.86,18.358L7.86,18.358L7.86,18.358z
		 M6.414,15.001c0.053,0.051,0.107,0.105,0.164,0.162l2.259,2.26C8.894,17.479,8.948,17.534,9,17.587
		c0.004-0.005,0.009-0.01,0.014-0.015L20.293,6.293c0.713-0.713,0.713-1.873,0-2.586s-1.873-0.713-2.586,0l-11.28,11.28
		C6.423,14.992,6.418,14.996,6.414,15.001z M5.642,16.139L5.642,16.139L5.642,16.139z M21,22h-8c-0.552,0-1-0.447-1-1s0.448-1,1-1h8
		c0.553,0,1,0.447,1,1S21.553,22,21,22z"/>
</g>
</svg>
