<?xml version="1.0" encoding="iso-8859-1"?>
<!-- Generator: Adobe Illustrator 27.4.0, SVG Export Plug-In . SVG Version: 6.00 Build 0)  -->
<svg version="1.1" id="Layer_1" xmlns="http://www.w3.org/2000/svg" xmlns:xlink="http://www.w3.org/1999/xlink" x="0px" y="0px"
	 viewBox="0 0 24 24" style="enable-background:new 0 0 24 24;" xml:space="preserve">
<g>
	<path d="M17.019,22.25H6.982c-0.492,0-0.817,0-1.172-0.141c-0.314-0.125-0.591-0.327-0.804-0.584
		c-0.243-0.295-0.343-0.604-0.495-1.07l-3.101-9.532c-0.153-0.471-0.253-0.779-0.229-1.16c0.021-0.334,0.127-0.662,0.307-0.945
		c0.206-0.323,0.469-0.514,0.866-0.803l8.12-5.893c0,0,0,0,0,0c0.398-0.289,0.661-0.479,1.03-0.574c0.327-0.083,0.668-0.083,0.992,0
		c0.372,0.096,0.634,0.286,1.032,0.575l8.118,5.892c0.398,0.289,0.662,0.479,0.867,0.801c0.181,0.287,0.286,0.613,0.308,0.947
		c0.023,0.381-0.076,0.69-0.228,1.157l-3.102,9.534c-0.151,0.467-0.252,0.776-0.496,1.071c-0.212,0.256-0.489,0.458-0.802,0.583
		C17.837,22.25,17.512,22.25,17.019,22.25z M11.648,3.741L3.529,9.633c-0.181,0.131-0.3,0.207-0.376,0.287
		C3.19,9.96,3.242,10.09,3.31,10.299l3.102,9.536c0.069,0.213,0.104,0.349,0.157,0.446C6.62,20.259,6.76,20.25,6.982,20.25h10.037
		c0.223,0,0.364,0.008,0.472-0.012c-0.004-0.055,0.03-0.191,0.099-0.402l3.101-9.532c0.069-0.212,0.121-0.343,0.135-0.454
		c-0.053-0.011-0.172-0.086-0.353-0.217l-8.119-5.893c-0.18-0.13-0.288-0.22-0.388-0.268C11.936,3.521,11.828,3.61,11.648,3.741z"/>
</g>
</svg>
