<?xml version="1.0" encoding="iso-8859-1"?>
<!-- Generator: Adobe Illustrator 27.4.0, SVG Export Plug-In . SVG Version: 6.00 Build 0)  -->
<svg version="1.1" id="Layer_1" xmlns="http://www.w3.org/2000/svg" xmlns:xlink="http://www.w3.org/1999/xlink" x="0px" y="0px"
	 viewBox="0 0 24 24" style="enable-background:new 0 0 24 24;" xml:space="preserve">
<g>
	<path d="M5,20c-0.256,0-0.512-0.098-0.707-0.293c-0.391-0.391-0.391-1.023,0-1.414l14-14c0.391-0.391,1.023-0.391,1.414,0
		s0.391,1.023,0,1.414l-14,14C5.512,19.902,5.256,20,5,20z M17.5,19.5c-1.103,0-2-0.897-2-2s0.897-2,2-2s2,0.897,2,2
		S18.603,19.5,17.5,19.5z M17.5,17.498V17.5V17.498z M6.5,8.5c-1.103,0-2-0.897-2-2s0.897-2,2-2s2,0.897,2,2S7.603,8.5,6.5,8.5z
		 M6.5,6.499V6.5V6.499z"/>
</g>
</svg>
