<?xml version="1.0" encoding="iso-8859-1"?>
<!-- Generator: Adobe Illustrator 27.4.0, SVG Export Plug-In . SVG Version: 6.00 Build 0)  -->
<svg version="1.1" id="Layer_1" xmlns="http://www.w3.org/2000/svg" xmlns:xlink="http://www.w3.org/1999/xlink" x="0px" y="0px"
	 viewBox="0 0 24 24" style="enable-background:new 0 0 24 24;" xml:space="preserve">
<g>
	<path d="M17,20c-1.654,0-3-1.346-3-3s1.346-3,3-3s3,1.346,3,3S18.654,20,17,20z M17,16c-0.552,0-1,0.448-1,1s0.448,1,1,1
		s1-0.448,1-1S17.552,16,17,16z M5,20c-0.256,0-0.512-0.098-0.707-0.293c-0.391-0.391-0.391-1.023,0-1.414l14-14
		c0.391-0.391,1.023-0.391,1.414,0s0.391,1.023,0,1.414l-14,14C5.512,19.902,5.256,20,5,20z M7,10c-1.654,0-3-1.346-3-3s1.346-3,3-3
		s3,1.346,3,3S8.654,10,7,10z M7,6C6.449,6,6,6.449,6,7s0.449,1,1,1s1-0.449,1-1S7.551,6,7,6z"/>
</g>
</svg>
