<?xml version="1.0" encoding="iso-8859-1"?>
<!-- Generator: Adobe Illustrator 27.4.0, SVG Export Plug-In . SVG Version: 6.00 Build 0)  -->
<svg version="1.1" id="Layer_1" xmlns="http://www.w3.org/2000/svg" xmlns:xlink="http://www.w3.org/1999/xlink" x="0px" y="0px"
	 viewBox="0 0 24 24" style="enable-background:new 0 0 24 24;" xml:space="preserve">
<g>
	<path d="M5.4,22H4.6c-0.651,0-1.081,0-1.51-0.219c-0.377-0.192-0.679-0.494-0.872-0.873C2,20.48,2,20.051,2,19.4V18.6
		c0-0.65,0-1.08,0.218-1.508c0.193-0.379,0.496-0.681,0.875-0.874c0.28-0.143,0.562-0.192,0.908-0.209V7.991
		C3.655,7.975,3.373,7.925,3.092,7.782C2.713,7.588,2.412,7.287,2.219,6.91C2,6.48,2,6.05,2,5.4V4.6c0-0.65,0-1.08,0.218-1.508
		C2.412,2.713,2.713,2.412,3.09,2.219C3.52,2,3.95,2,4.6,2h0.8c0.65,0,1.08,0,1.508,0.218C7.287,2.412,7.588,2.713,7.781,3.09
		C7.979,3.479,7.998,3.867,8,4.418l8.057,1.151c0.032-0.167,0.083-0.323,0.162-0.479c0.192-0.377,0.494-0.679,0.873-0.872
		C17.52,4,17.949,4,18.6,4H19.4c0.65,0,1.08,0,1.508,0.218c0.379,0.193,0.681,0.496,0.874,0.875C22,5.519,22,5.949,22,6.6v0.8
		c0,0.651,0,1.081-0.219,1.51c-0.192,0.377-0.494,0.679-0.873,0.872C20.627,9.925,20.345,9.975,20,9.991v4.018
		c0.346,0.017,0.628,0.066,0.909,0.21c0.378,0.191,0.681,0.494,0.873,0.874C22,15.519,22,15.949,22,16.6V17.4
		c0,0.65,0,1.081-0.219,1.509c-0.191,0.378-0.494,0.681-0.874,0.873C20.481,20,20.051,20,19.4,20H18.6c-0.65,0-1.081,0-1.509-0.219
		c-0.378-0.191-0.681-0.494-0.873-0.874c-0.079-0.155-0.13-0.311-0.161-0.477L8,19.581c-0.002,0.552-0.021,0.94-0.218,1.327
		c-0.193,0.379-0.496,0.681-0.875,0.874C6.481,22,6.051,22,5.4,22z M4.6,18c-0.278,0-0.566,0-0.648,0.02C4,18.033,4,18.321,4,18.6
		V19.4c0,0.278,0,0.566,0.02,0.648C4.034,20,4.322,20,4.6,20h0.8c0.278,0,0.566,0,0.648-0.02C6,19.967,6,19.679,6,19.4v-0.672
		c0-0.011,0-0.021,0-0.032V18.6c0-0.278,0-0.566-0.02-0.648C5.966,18,5.678,18,5.4,18H4.6z M18,17.304V17.4
		c0,0.278,0,0.565,0.02,0.647C18.034,18,18.321,18,18.6,18H19.4c0.278,0,0.565,0,0.647-0.02C20,17.966,20,17.679,20,17.4V16.6
		c0-0.278,0-0.565-0.02-0.647C19.966,16,19.679,16,19.4,16H18.6c-0.278,0-0.565,0-0.647,0.02C18,16.034,18,16.321,18,16.6v0.672
		C18,17.282,18,17.293,18,17.304z M6,16.009c0.345,0.017,0.628,0.066,0.91,0.21c0.377,0.192,0.679,0.494,0.872,0.873
		c0.079,0.155,0.13,0.311,0.162,0.478L16,16.419c0.002-0.553,0.021-0.941,0.219-1.328c0.191-0.378,0.494-0.681,0.874-0.873
		c0.28-0.144,0.562-0.192,0.907-0.209V9.991c-0.345-0.017-0.627-0.066-0.908-0.209c-0.379-0.193-0.681-0.496-0.874-0.875
		C16.021,8.522,16.002,8.134,16,7.582L7.944,6.431C7.912,6.597,7.861,6.752,7.782,6.908C7.588,7.287,7.287,7.588,6.91,7.781
		C6.627,7.925,6.345,7.974,6,7.991V16.009z M18,6.729V7.4c0,0.278,0,0.566,0.02,0.648C18.033,8,18.321,8,18.6,8H19.4
		c0.278,0,0.566,0,0.648-0.02C20,7.966,20,7.678,20,7.4V6.6c0-0.278,0-0.566-0.02-0.648C19.967,6,19.679,6,19.4,6H18.6
		c-0.278,0-0.566,0-0.648,0.02C18,6.034,18,6.322,18,6.6v0.097C18,6.708,18,6.718,18,6.729z M4.6,4C4.321,4,4.033,4,3.951,4.02
		C4,4.033,4,4.321,4,4.6v0.8c0,0.279,0,0.567,0.02,0.649C4.033,6,4.321,6,4.6,6h0.8c0.279,0,0.567,0,0.649-0.02
		C6,5.967,6,5.679,6,5.4V5.303c0-0.01,0-0.021,0-0.032V4.6c0-0.279,0-0.567-0.02-0.649C5.967,4,5.679,4,5.4,4H4.6z"/>
</g>
</svg>
