<?xml version="1.0" encoding="iso-8859-1"?>
<!-- Generator: Adobe Illustrator 27.4.0, SVG Export Plug-In . SVG Version: 6.00 Build 0)  -->
<svg version="1.1" id="Layer_1" xmlns="http://www.w3.org/2000/svg" xmlns:xlink="http://www.w3.org/1999/xlink" x="0px" y="0px"
	 viewBox="0 0 24 24" style="enable-background:new 0 0 24 24;" xml:space="preserve">
<g>
	<path d="M4.874,22.479c-0.288,0-0.551-0.038-0.812-0.123c-0.688-0.226-1.27-0.693-1.641-1.316C2,20.332,2,19.507,2,18.011V5.989
		c0-1.497,0-2.321,0.422-3.03c0.371-0.623,0.953-1.089,1.64-1.315c0.784-0.258,1.587-0.08,3.048,0.245l11.601,2.579
		c0.994,0.221,1.541,0.342,2.042,0.702c0.441,0.318,0.788,0.75,1.004,1.25C22,6.988,22,7.549,22,8.567v6.866
		c0,1.019,0,1.579-0.243,2.146c-0.216,0.502-0.562,0.935-1.004,1.252c-0.502,0.36-1.05,0.481-2.042,0.702l-11.6,2.578
		C6.136,22.328,5.453,22.479,4.874,22.479z M4,13v5.011c0,1.028,0,1.771,0.141,2.007c0.124,0.208,0.317,0.363,0.545,0.438
		c0.266,0.088,0.987-0.074,1.991-0.298L9,19.643V13H4z M11,13v6.198l4-0.89V13H11z M17,13v4.864l1.277-0.284
		c0.687-0.151,1.139-0.252,1.308-0.373c0.146-0.105,0.262-0.25,0.334-0.417C20,16.602,20,16.137,20,15.433V13H17z M17,11h3V8.567
		c0-0.704,0-1.168-0.081-1.357c-0.071-0.166-0.188-0.311-0.334-0.417c-0.167-0.12-0.621-0.221-1.308-0.374L17,6.136V11z M11,11h4
		V5.691l-4-0.889V11z M4,11h5V4.358L6.677,3.841C5.673,3.618,4.949,3.456,4.688,3.543c-0.23,0.076-0.424,0.231-0.547,0.438
		C4,4.218,4,4.961,4,5.989V11z"/>
</g>
</svg>
