<?xml version="1.0" encoding="iso-8859-1"?>
<!-- Generator: Adobe Illustrator 27.4.0, SVG Export Plug-In . SVG Version: 6.00 Build 0)  -->
<svg version="1.1" id="Layer_1" xmlns="http://www.w3.org/2000/svg" xmlns:xlink="http://www.w3.org/1999/xlink" x="0px" y="0px"
	 viewBox="0 0 24 24" style="enable-background:new 0 0 24 24;" xml:space="preserve">
<g>
	<path d="M17.592,22.16c-0.55,0.004-0.945-0.111-1.537-0.279c-3.279-0.932-6.294-2.705-8.717-5.129
		c-2.424-2.424-4.198-5.439-5.128-8.718C2.042,7.445,1.932,7.055,1.93,6.505C1.928,5.876,2.133,5.084,2.441,4.535
		c0.271-0.481,0.588-0.798,1.163-1.373L3.76,3.005C4.35,2.417,4.672,2.094,5.099,1.878c0.849-0.428,1.862-0.429,2.709,0
		c0.428,0.217,0.75,0.539,1.335,1.124l0.198,0.198c0.386,0.386,0.599,0.599,0.77,0.862c0.646,0.993,0.646,2.277,0,3.271
		c-0.171,0.264-0.384,0.477-0.77,0.862C9.285,8.251,9.247,8.286,9.219,8.319L9.282,8.42v0c0.664,1.382,1.556,2.639,2.652,3.735
		c1.096,1.096,2.354,1.988,3.735,2.652l0.123,0.058c0.008-0.02,0.039-0.054,0.088-0.102c0.401-0.401,0.614-0.614,0.878-0.786
		c0.994-0.643,2.276-0.645,3.271,0c0.264,0.172,0.477,0.385,0.862,0.771l0.196,0.197c0.585,0.584,0.909,0.907,1.126,1.338
		c0.428,0.846,0.428,1.858-0.001,2.706c-0.216,0.429-0.54,0.752-1.128,1.339l-0.154,0.155c-0.558,0.558-0.894,0.894-1.374,1.163
		C19.01,21.954,18.222,22.16,17.592,22.16z M6.454,3.555c-0.155,0-0.311,0.036-0.452,0.107S5.589,4.005,5.178,4.416L5.019,4.575
		C4.5,5.095,4.314,5.285,4.186,5.514c-0.139,0.248-0.257,0.7-0.256,0.984c0.001,0.263,0.046,0.435,0.204,0.99
		c0.837,2.952,2.435,5.666,4.618,7.85c2.183,2.184,4.898,3.78,7.85,4.619c0.554,0.157,0.726,0.202,0.988,0.203
		c0.001,0,0.002,0,0.003,0c0.286,0,0.736-0.117,0.983-0.257c0.229-0.128,0.42-0.313,0.938-0.831l0.155-0.156
		c0.399-0.398,0.686-0.685,0.757-0.826c0.145-0.285,0.145-0.622,0.001-0.905c-0.072-0.144-0.358-0.43-0.755-0.825l-0.197-0.198
		c-0.27-0.27-0.448-0.448-0.536-0.505c-0.333-0.217-0.759-0.213-1.091,0c-0.088,0.057-0.267,0.235-0.538,0.507
		c-0.177,0.178-0.267,0.257-0.366,0.328c-0.484,0.347-1.143,0.459-1.722,0.291c-0.117-0.033-0.217-0.074-0.404-0.164
		c-1.601-0.769-3.042-1.792-4.298-3.048c-1.256-1.256-2.279-2.697-3.041-4.284l0,0C7.385,9.09,7.343,8.99,7.307,8.866
		C7.139,8.292,7.252,7.632,7.602,7.144C7.673,7.043,7.754,6.953,7.927,6.78c0.271-0.271,0.45-0.45,0.507-0.538
		c0.215-0.332,0.215-0.759,0-1.091C8.377,5.063,8.198,4.884,7.927,4.613L7.732,4.418C7.318,4.005,7.047,3.734,6.904,3.662
		C6.764,3.591,6.609,3.555,6.454,3.555z"/>
</g>
</svg>
