<?xml version="1.0" encoding="iso-8859-1"?>
<!-- Generator: Adobe Illustrator 27.4.0, SVG Export Plug-In . SVG Version: 6.00 Build 0)  -->
<svg version="1.1" id="Layer_1" xmlns="http://www.w3.org/2000/svg" xmlns:xlink="http://www.w3.org/1999/xlink" x="0px" y="0px"
	 viewBox="0 0 24 24" style="enable-background:new 0 0 24 24;" xml:space="preserve">
<g>
	<path d="M15.8,23H8.2c-1.238,0-1.92,0-2.562-0.326c-0.57-0.292-1.022-0.744-1.312-1.311C4,20.721,4,20.038,4,18.8V5.2
		c0-1.238,0-1.92,0.327-2.562C4.617,2.07,5.07,1.617,5.637,1.327C6.28,1,6.962,1,8.2,1h7.6c1.238,0,1.921,0,2.562,0.327
		c0.567,0.29,1.02,0.742,1.311,1.31C20,3.28,20,3.962,20,5.2v13.6c0,1.238,0,1.921-0.326,2.562
		c-0.291,0.567-0.744,1.021-1.311,1.311C17.721,23,17.038,23,15.8,23z M8.2,3C7.333,3,6.76,3,6.545,3.109
		c-0.186,0.095-0.341,0.25-0.437,0.438C6,3.76,6,4.333,6,5.2v13.6c0,0.867,0,1.44,0.109,1.654c0.096,0.188,0.248,0.341,0.438,0.438
		C6.76,21,7.333,21,8.2,21h7.6c0.867,0,1.44,0,1.654-0.109c0.188-0.096,0.341-0.248,0.438-0.438C18,20.24,18,19.667,18,18.8V5.2
		c0-0.868,0-1.44-0.109-1.655c-0.096-0.188-0.248-0.34-0.438-0.437C17.24,3,16.667,3,15.8,3H8.2z M12,19c-0.827,0-1.5-0.673-1.5-1.5
		S11.173,16,12,16s1.5,0.673,1.5,1.5S12.827,19,12,19z"/>
</g>
</svg>
