<?xml version="1.0" encoding="iso-8859-1"?>
<!-- Generator: Adobe Illustrator 27.4.0, SVG Export Plug-In . SVG Version: 6.00 Build 0)  -->
<svg version="1.1" id="Layer_1" xmlns="http://www.w3.org/2000/svg" xmlns:xlink="http://www.w3.org/1999/xlink" x="0px" y="0px"
	 viewBox="0 0 24 24" style="enable-background:new 0 0 24 24;" xml:space="preserve">
<g>
	<path d="M19.505,22H19.26c-0.285,0-0.428-0.003-0.547-0.015c-1.418-0.14-2.55-1.271-2.689-2.69
		c-0.012-0.118-0.015-0.261-0.015-0.546c-2.611-1.043-5.437-0.969-7.987-0.074c-0.031,0.359-0.034,0.502-0.045,0.621
		c-0.14,1.418-1.272,2.55-2.691,2.689C5.167,21.997,5.025,22,4.741,22H4.496c-0.509,0-0.79,0-1.078-0.058
		c-1.196-0.234-2.125-1.162-2.361-2.362C1,19.293,1,19.013,1,18.505v-0.198c0-0.502,0-0.806,0.068-1.169
		c0.155-0.836,0.722-1.801,1.377-2.345c0.286-0.237,0.49-0.351,0.798-0.522c5.326-2.971,12.19-2.971,17.514,0
		c0.308,0.171,0.511,0.285,0.797,0.521c0.657,0.545,1.223,1.509,1.379,2.347C23,17.501,23,17.805,23,18.307v0.198
		c0,0.509,0,0.789-0.058,1.077c-0.234,1.197-1.163,2.126-2.363,2.361C20.294,22,20.014,22,19.505,22z M12,14
		c-2.726,0-5.417,0.697-7.783,2.017c-0.279,0.155-0.357,0.201-0.495,0.315c-0.296,0.246-0.618,0.794-0.688,1.172
		C3.001,17.678,3,17.846,3,18.307v0.198c0,0.357,0,0.593,0.019,0.689c0.079,0.398,0.388,0.708,0.787,0.786
		C3.903,20,4.139,20,4.496,20h0.245c0.181,0,0.271,0.003,0.347-0.005c0.475-0.047,0.852-0.424,0.898-0.897
		c0.008-0.077,0.005-0.167,0.005-0.349c0-0.104,0.001-0.155,0.006-0.216c0.055-0.714,0.532-1.388,1.187-1.678
		c0.062-0.026,0.1-0.041,0.172-0.066c2.984-1.049,6.309-1.048,9.285-0.001c0.076,0.026,0.116,0.041,0.178,0.068
		c0.652,0.288,1.129,0.962,1.185,1.674c0.005,0.063,0.006,0.114,0.006,0.219c0,0.182-0.003,0.271,0.005,0.348
		c0.047,0.475,0.424,0.852,0.897,0.898C18.987,20.005,19.079,20,19.26,20h0.245c0.356,0,0.592,0,0.687-0.019
		c0.402-0.079,0.711-0.388,0.789-0.787C21,19.097,21,18.861,21,18.505v-0.198c0-0.461-0.002-0.629-0.034-0.802
		c-0.07-0.38-0.392-0.928-0.688-1.173c-0.138-0.114-0.217-0.159-0.496-0.315C17.417,14.697,14.727,14,12,14z M16.473,10
		c-0.274,0-0.548-0.112-0.745-0.333C14.779,8.607,13.421,8,12,8c-1.42,0-2.779,0.607-3.727,1.667c-0.368,0.412-1,0.447-1.412,0.078
		c-0.412-0.368-0.446-1-0.078-1.412C8.11,6.851,10.011,6,12,6c1.989,0,3.891,0.851,5.218,2.333c0.368,0.412,0.333,1.044-0.078,1.412
		C16.949,9.916,16.71,10,16.473,10z M19.142,7c-0.259,0-0.519-0.1-0.714-0.3C16.721,4.959,14.438,4,12,4
		C9.562,4,7.279,4.959,5.573,6.7c-0.387,0.396-1.019,0.4-1.415,0.014c-0.394-0.387-0.4-1.02-0.014-1.415C6.23,3.172,9.02,2,12,2
		c2.979,0,5.77,1.172,7.855,3.3c0.387,0.395,0.381,1.027-0.014,1.414C19.647,6.905,19.395,7,19.142,7z"/>
</g>
</svg>
