<?xml version="1.0" encoding="iso-8859-1"?>
<!-- Generator: Adobe Illustrator 27.4.0, SVG Export Plug-In . SVG Version: 6.00 Build 0)  -->
<svg version="1.1" id="Layer_1" xmlns="http://www.w3.org/2000/svg" xmlns:xlink="http://www.w3.org/1999/xlink" x="0px" y="0px"
	 viewBox="0 0 24 24" style="enable-background:new 0 0 24 24;" xml:space="preserve">
<g>
	<path d="M16.592,23.16c-0.519-0.027-0.945-0.111-1.537-0.279c-3.278-0.931-6.292-2.704-8.717-5.129
		c-2.424-2.424-4.198-5.439-5.128-8.718C1.042,8.445,0.932,8.055,0.93,7.505C0.928,6.875,1.133,6.083,1.442,5.534
		c0.271-0.482,0.607-0.817,1.163-1.373L2.76,4.005C3.348,3.417,3.672,3.094,4.1,2.877c0.847-0.429,1.86-0.429,2.708,0
		c0.428,0.216,0.751,0.54,1.338,1.127l0.195,0.195c0.386,0.386,0.599,0.599,0.77,0.862c0.646,0.994,0.646,2.277,0,3.271
		c-0.171,0.263-0.384,0.476-0.77,0.862C8.284,9.251,8.247,9.286,8.219,9.319c0.019,0.011,0.037,0.046,0.062,0.1
		c0.665,1.385,1.557,2.642,2.652,3.738l0,0c1.097,1.096,2.354,1.988,3.735,2.651c0.058,0.027,0.092,0.046,0.125,0.059
		c0.012-0.025,0.046-0.062,0.102-0.117c0.386-0.386,0.599-0.599,0.862-0.771c0.993-0.647,2.279-0.646,3.271,0.001
		c0.263,0.171,0.476,0.384,0.861,0.77l0.194,0.194c0.588,0.588,0.912,0.911,1.128,1.341c0.428,0.846,0.428,1.858-0.001,2.706
		c-0.216,0.429-0.54,0.752-1.128,1.339l-0.154,0.155c-0.558,0.558-0.894,0.894-1.374,1.163C18.01,22.954,17.222,23.16,16.592,23.16z
		 M5.454,4.555c-0.155,0-0.31,0.036-0.452,0.107C4.859,4.734,4.587,5.006,4.175,5.418L4.019,5.575
		C3.5,6.093,3.315,6.284,3.186,6.514C3.046,6.762,2.929,7.213,2.93,7.498c0.001,0.264,0.046,0.436,0.204,0.99
		c0.837,2.952,2.435,5.666,4.618,7.85c2.185,2.184,4.899,3.781,7.85,4.619c0.556,0.158,0.686,0.208,0.991,0.203
		c0.286,0,0.736-0.117,0.983-0.257c0.229-0.128,0.42-0.313,0.938-0.831l0.155-0.156c0.399-0.398,0.686-0.685,0.757-0.826
		c0.145-0.285,0.145-0.622,0.001-0.905c-0.072-0.143-0.344-0.415-0.756-0.827l-0.194-0.194c-0.271-0.271-0.45-0.45-0.538-0.507
		c-0.331-0.217-0.759-0.217-1.09-0.001c-0.089,0.058-0.268,0.236-0.539,0.508c-0.174,0.174-0.264,0.255-0.366,0.327
		c-0.482,0.347-1.143,0.46-1.722,0.292c-0.128-0.038-0.228-0.079-0.421-0.173c-1.583-0.76-3.024-1.782-4.281-3.039l0,0
		c-1.256-1.256-2.279-2.697-3.041-4.285c-0.094-0.194-0.135-0.294-0.171-0.418C6.14,9.293,6.252,8.632,6.601,8.144
		C6.675,8.041,6.756,7.951,6.927,7.78c0.271-0.271,0.45-0.45,0.507-0.538c0.215-0.331,0.215-0.759,0-1.09
		C7.377,6.063,7.198,5.884,6.927,5.613L6.732,5.418C6.32,5.006,6.048,4.734,5.906,4.663C5.764,4.591,5.609,4.555,5.454,4.555z
		 M20,11c-0.553,0-1-0.448-1-1V3c0-0.552,0.447-1,1-1s1,0.448,1,1v7C21,10.552,20.553,11,20,11z M15,11c-0.553,0-1-0.448-1-1V3
		c0-0.552,0.447-1,1-1s1,0.448,1,1v7C16,10.552,15.553,11,15,11z"/>
</g>
</svg>
