<?xml version="1.0" encoding="iso-8859-1"?>
<!-- Generator: Adobe Illustrator 27.4.0, SVG Export Plug-In . SVG Version: 6.00 Build 0)  -->
<svg version="1.1" id="Layer_1" xmlns="http://www.w3.org/2000/svg" xmlns:xlink="http://www.w3.org/1999/xlink" x="0px" y="0px"
	 viewBox="0 0 24 24" style="enable-background:new 0 0 24 24;" xml:space="preserve">
<g>
	<path d="M12,23c-1.586,0-3.095-0.338-4.458-0.944c-2.332-1.033-4.232-2.844-5.377-5.131c-0.093-0.185-0.18-0.371-0.262-0.561
		c-0.493-1.137-0.8-2.373-0.881-3.669c-0.028-0.453-0.029-0.908-0.001-1.362c0.116-1.937,0.736-3.739,1.729-5.279
		C3.442,4.976,4.322,4.018,5.35,3.238c0.459-0.349,0.946-0.66,1.453-0.931C8.326,1.487,10.065,1.015,11.91,1
		c0.07-0.001,0.137,0,0.205,0c0.003,0,0.007,0,0.01,0C18.133,1.068,23,5.977,23,12C23,18.065,18.065,23,12,23z M9.576,20.669
		C10.348,20.885,11.161,21,12,21c4.963,0,9-4.037,9-9c0-4.592-3.458-8.393-7.906-8.934L13,12.007c0,0.066-0.007,0.132-0.021,0.198
		l0,0c0,0,0,0.001,0,0.001v0c0,0,0,0.001,0,0.001c0,0,0,0.001,0,0.001l0,0c0,0,0,0.001,0,0.001c0,0,0,0,0,0c0,0,0,0.001,0,0.001v0
		c0,0,0,0.001,0,0.001l0,0c0,0,0,0.001,0,0.002c0,0,0,0.001,0,0.001l0,0c0,0,0,0.001,0,0.001v0c0,0.001,0,0.002-0.001,0.003l0,0
		c0,0,0,0.002,0,0.002c0,0,0,0.001,0,0.001l0,0c0,0.001,0,0.001,0,0.002v0c0,0,0,0.001,0,0.001c0,0,0,0,0,0.001c0,0,0,0,0,0.001
		c0,0-0.001,0,0,0.001c0,0.001,0,0,0,0.002c0,0,0,0,0,0.001v0c0,0.001-0.001,0,0,0.002c0,0,0,0.001,0,0.001c0,0,0,0.001,0,0.001
		c0,0,0,0,0,0c0,0,0,0.001,0,0.001l0,0c0,0,0,0.001,0,0.001s0,0.001,0,0.003c0,0,0,0,0,0c0,0,0,0.001,0,0.001c0,0,0,0.001,0,0.001
		l0,0c0,0,0,0.001,0,0.001c0,0,0,0,0,0.001v0c0,0,0,0.001,0,0.001c0,0,0,0,0,0c0,0,0,0.001,0,0.001v0c0,0,0,0,0,0.001v0
		c0,0,0,0.001,0,0.001c0,0,0,0,0,0c0,0.001,0,0.001,0,0.002c0,0,0,0.001,0,0.001c0,0,0,0,0,0c0,0,0,0.001,0,0.001l0,0
		c0,0,0,0.001,0,0.001l0,0c0,0,0,0.001,0,0.001l0,0c-0.001,0.004-0.002,0.009-0.004,0.013c0,0,0,0,0,0c0,0.001,0,0.002-0.001,0.003
		l0,0c-0.008,0.028-0.018,0.055-0.028,0.082c0,0,0,0,0,0c0,0,0,0,0,0.001v0c-0.001,0.001-0.001,0.001-0.001,0.001c0,0,0,0,0,0.002
		l0,0c0,0,0,0,0,0L9.576,20.669z M3.749,15.594c0.807,1.845,2.214,3.369,3.974,4.323l2.925-7.24l-7.551-1.996
		c-0.039,0.265-0.066,0.53-0.082,0.795C3.005,11.65,3,11.824,3,12c0,0.173,0.005,0.346,0.015,0.517
		C3.075,13.571,3.322,14.613,3.749,15.594z M3.62,8.719l7.394,1.981l0.08-7.654c-1.168,0.12-2.308,0.469-3.342,1.021
		C6.402,4.793,5.258,5.853,4.431,7.135C4.11,7.635,3.838,8.166,3.62,8.719z"/>
</g>
</svg>
