<?xml version="1.0" encoding="iso-8859-1"?>
<!-- Generator: Adobe Illustrator 27.4.0, SVG Export Plug-In . SVG Version: 6.00 Build 0)  -->
<svg version="1.1" id="Layer_1" xmlns="http://www.w3.org/2000/svg" xmlns:xlink="http://www.w3.org/1999/xlink" x="0px" y="0px"
	 viewBox="0 0 24 24" style="enable-background:new 0 0 24 24;" xml:space="preserve">
<g>
	<path d="M10.005,23.001c-0.587,0-1.177-0.058-1.761-0.174c-1.751-0.348-3.345-1.199-4.608-2.463
		c-1.263-1.263-2.115-2.856-2.463-4.608c-0.348-1.752-0.171-3.55,0.512-5.2S3.515,7.509,5,6.517C6.222,5.701,7.64,5.191,9.102,5.045
		c0.329-0.031,0.633-0.062,0.983,0.086c0.307,0.131,0.572,0.372,0.73,0.661C11,6.129,11,6.44,11,6.8V13h6.2
		c0.36,0,0.671,0,1.008,0.185c0.287,0.157,0.526,0.42,0.657,0.722c0.153,0.363,0.122,0.669,0.09,0.992
		C18.809,16.359,18.3,17.777,17.482,19c-0.991,1.485-2.388,2.632-4.038,3.315C12.345,22.771,11.179,23.001,10.005,23.001z M9,7.072
		C7.969,7.221,6.977,7.602,6.111,8.18c-1.155,0.771-2.047,1.857-2.579,3.141c-0.531,1.283-0.669,2.682-0.398,4.044
		c0.271,1.363,0.933,2.603,1.916,3.585c0.983,0.982,2.223,1.645,3.584,1.916c1.363,0.269,2.761,0.133,4.044-0.398
		s2.369-1.423,3.141-2.579c0.58-0.866,0.96-1.859,1.108-2.889H10.8c-0.354,0-0.661,0-0.982-0.164
		c-0.282-0.144-0.508-0.37-0.653-0.653C9,13.86,9,13.555,9,13.2V7.072z M17.434,15.004h0.011H17.434z M16.982,14.5L16.982,14.5
		L16.982,14.5z"/>
</g>
<g>
	<path d="M21.2,11h-6.4c-0.369,0-0.66,0-0.98-0.163c-0.283-0.143-0.511-0.371-0.656-0.657C13,9.861,13,9.555,13,9.2V2.8
		c0-0.36,0-0.671,0.185-1.008c0.158-0.29,0.425-0.531,0.729-0.66c0.354-0.149,0.658-0.119,0.98-0.087
		c2.065,0.208,4.006,1.127,5.471,2.592c1.464,1.464,2.384,3.405,2.591,5.465c0.032,0.324,0.063,0.63-0.086,0.983
		c-0.134,0.31-0.374,0.573-0.661,0.73C21.871,11,21.561,11,21.2,11z M15.004,9.449h0.01H15.004z M15,9h5.928
		c-0.216-1.49-0.911-2.883-1.978-3.95C17.883,3.983,16.489,3.288,15,3.072V9z"/>
</g>
</svg>
