<?xml version="1.0" encoding="iso-8859-1"?>
<!-- Generator: Adobe Illustrator 27.4.0, SVG Export Plug-In . SVG Version: 6.00 Build 0)  -->
<svg version="1.1" id="Layer_1" xmlns="http://www.w3.org/2000/svg" xmlns:xlink="http://www.w3.org/1999/xlink" x="0px" y="0px"
	 viewBox="0 0 24 24" style="enable-background:new 0 0 24 24;" xml:space="preserve">
<g>
	<path d="M12,23C5.935,23,1,18.065,1,12S5.935,1,12,1c0.004,0,0.009,0,0.011,0c0.002,0,0.005,0,0.009,0c0.002,0,0.005,0,0.008,0
		c0.003,0,0.005-0.001,0.009,0c0.002,0,0.004,0,0.009,0c0.002,0,0.004,0,0.008,0c0.003,0,0.007,0,0.008,0c0.002,0,0.005,0,0.008,0
		c-0.001,0,0.006,0,0.009,0h0c0.394,0.002,0.785,0.026,1.172,0.07c0.004,0,0.004,0.001,0.007,0.001
		c1.031,0.118,2.02,0.379,2.945,0.763c0.002,0.001,0.004,0.001,0.006,0.002c1.341,0.555,2.541,1.357,3.568,2.384
		c1.026,1.026,1.828,2.227,2.385,3.569c0.025,0.061,0.05,0.122,0.074,0.183c0.291,0.738,0.504,1.514,0.63,2.319c0,0,0.001,0,0.001,0
		l0,0c0.084,0.539,0.128,1.085,0.132,1.636l0,0c0,0.002,0,0.005,0,0.008v0c0,0.002,0,0.005,0,0.008c0,0,0,0.001,0,0.001
		c0,0.002,0,0.005,0,0.007c0,0,0,0.001,0,0.001c0,0.002,0,0.004,0,0.007c0,0,0,0.001,0,0.002c0,0.002,0,0.004,0,0.007
		c0,0.001,0,0.001,0,0.002c0,0.002,0,0.004,0,0.006c0,0.001,0,0.002,0,0.002c0,0.002,0,0.005,0,0.007c0,0,0,0.001,0,0.001
		c0,0.003,0,0.006,0,0.009c0,0.003,0,0.006,0,0.01c0,0,0,0.001,0,0.002c0,0.003,0,0.005,0,0.008c0,0,0,0,0,0
		c-0.003,1.537-0.322,3.001-0.897,4.33c-0.094,0.218-0.194,0.433-0.302,0.644c-0.785,1.54-1.938,2.891-3.335,3.905
		c-0.024,0.018-0.05,0.034-0.075,0.049C16.589,22.239,14.381,23,12,23z M11,3.055C6.506,3.554,3,7.375,3,12c0,4.963,4.038,9,9,9
		c1.616,0,3.135-0.429,4.447-1.178l-5.25-7.226c-0.063-0.085-0.113-0.181-0.147-0.284c-0.035-0.106-0.051-0.215-0.05-0.324V3.055z
		 M13.963,13l4.102,5.645c0.94-0.858,1.698-1.914,2.208-3.101c0.347-0.809,0.573-1.669,0.671-2.544H13.963z M13,11h7.944
		c-0.017-0.153-0.037-0.304-0.062-0.455c-0.1-0.609-0.263-1.207-0.487-1.788c-0.89-2.295-2.693-4.138-4.963-5.077
		C14.648,3.357,13.834,3.148,13,3.055V11z"/>
</g>
</svg>
