<?xml version="1.0" encoding="iso-8859-1"?>
<!-- Generator: Adobe Illustrator 27.4.0, SVG Export Plug-In . SVG Version: 6.00 Build 0)  -->
<svg version="1.1" id="Layer_1" xmlns="http://www.w3.org/2000/svg" xmlns:xlink="http://www.w3.org/1999/xlink" x="0px" y="0px"
	 viewBox="0 0 24 24" style="enable-background:new 0 0 24 24;" xml:space="preserve">
<g>
	<path d="M12.003,22.994c-1.071,0-2.142-0.155-3.17-0.464c-1.715-0.517-3.294-1.454-4.567-2.713
		c-1.272-1.258-2.228-2.826-2.763-4.534s-0.645-3.542-0.317-5.302C1.514,8.221,2.276,6.55,3.39,5.15
		c1.114-1.401,2.57-2.521,4.211-3.236c0.505-0.22,1.096,0.01,1.316,0.517C9.138,2.937,8.907,3.526,8.4,3.747
		C7.058,4.333,5.867,5.248,4.955,6.395C4.044,7.541,3.42,8.908,3.152,10.348c-0.268,1.44-0.178,2.94,0.259,4.338
		c0.438,1.397,1.22,2.681,2.261,3.71s2.333,1.797,3.736,2.219c1.402,0.422,2.903,0.492,4.339,0.21
		c1.437-0.285,2.797-0.924,3.934-1.849c1.136-0.924,2.037-2.126,2.607-3.475c0.215-0.509,0.801-0.747,1.31-0.532
		s0.747,0.802,0.532,1.31c-0.696,1.65-1.799,3.119-3.188,4.248c-1.389,1.131-3.051,1.911-4.807,2.259
		C13.434,22.925,12.718,22.994,12.003,22.994z M21.2,13h-8.4c-0.368,0-0.659,0-0.979-0.162c-0.286-0.147-0.512-0.373-0.656-0.654
		C11,11.859,11,11.568,11,11.2V2.8c0-0.359,0-0.669,0.18-1.003c0.157-0.29,0.417-0.529,0.716-0.661
		c0.346-0.153,0.656-0.129,0.985-0.101c1.144,0.091,2.264,0.361,3.329,0.802c1.341,0.556,2.542,1.358,3.568,2.385
		c1.026,1.025,1.828,2.226,2.385,3.568l0,0c0.439,1.061,0.71,2.181,0.803,3.33c0.025,0.328,0.051,0.636-0.102,0.983
		c-0.135,0.302-0.374,0.561-0.659,0.715C21.87,13,21.56,13,21.2,13z M13.001,11h7.944c-0.095-0.841-0.306-1.663-0.63-2.444
		c-0.455-1.099-1.111-2.081-1.951-2.919c-0.84-0.841-1.822-1.497-2.92-1.952c-0.783-0.324-1.604-0.536-2.443-0.629V11z"/>
</g>
</svg>
