<?xml version="1.0" encoding="iso-8859-1"?>
<!-- Generator: Adobe Illustrator 27.4.0, SVG Export Plug-In . SVG Version: 6.00 Build 0)  -->
<svg version="1.1" id="Layer_1" xmlns="http://www.w3.org/2000/svg" xmlns:xlink="http://www.w3.org/1999/xlink" x="0px" y="0px"
	 viewBox="0 0 24 24" style="enable-background:new 0 0 24 24;" xml:space="preserve">
<g>
	<path d="M16.2,22h-1.9c-0.354,0-0.66,0-0.981-0.163c-0.285-0.146-0.512-0.374-0.656-0.659C12.5,20.862,12.5,20.556,12.5,20.2V20h-1
		v0.2c0,0.355,0,0.662-0.165,0.983c-0.141,0.279-0.368,0.507-0.653,0.652C10.361,22,10.055,22,9.7,22H7.8
		c-0.354,0-0.661,0-0.982-0.164c-0.282-0.144-0.509-0.37-0.654-0.655C6,20.86,6,20.569,6,20.2v-2.302
		C4.946,16.824,4.279,15.467,4.07,14H4c-1.654,0-3-1.346-3-3c0-1.067,0.575-2.063,1.5-2.598c0.476-0.276,1.089-0.113,1.366,0.365
		C4.142,9.245,3.979,9.856,3.5,10.133C3.192,10.312,3,10.644,3,11c0,0.551,0.449,1,1,1h0.071c0.278-1.941,1.357-3.676,2.985-4.785
		C7.02,6.982,7,6.743,7,6.5C7,4.019,9.019,2,11.5,2c2.256,0,4.13,1.669,4.451,3.837l1.755-0.507c0.44-0.126,0.792-0.225,1.2-0.111
		c0.365,0.104,0.672,0.336,0.869,0.655C20,6.235,20,6.6,20,7.061v1.04c0.548,0.56,0.992,1.197,1.326,1.899
		c0.3,0.002,0.55,0.016,0.824,0.148c0.306,0.147,0.556,0.397,0.702,0.704C23,11.156,23,11.434,23,11.786V15.2
		c0,0.355,0,0.662-0.165,0.983c-0.142,0.281-0.37,0.51-0.657,0.654C21.862,17,21.556,17,21.2,17h-0.455
		c-0.7,1.003-1.646,1.805-2.745,2.326V20.2c0,0.355,0,0.662-0.165,0.983c-0.142,0.281-0.37,0.51-0.657,0.654
		C16.862,22,16.556,22,16.2,22z M8.004,20.45h0.01H8.004z M14.5,20H16v-0.775c0-0.265,0-0.474,0.084-0.715
		c0.086-0.233,0.206-0.418,0.371-0.578c0.173-0.173,0.366-0.263,0.634-0.387c0.828-0.385,1.527-0.978,2.038-1.721
		c0.13-0.191,0.235-0.345,0.403-0.484c0.17-0.137,0.335-0.223,0.53-0.279C20.26,15,20.445,15,20.659,15H21v-3.002
		c-0.161-0.005-0.309-0.021-0.473-0.077c-0.239-0.08-0.439-0.208-0.612-0.393c-0.167-0.175-0.254-0.364-0.374-0.625
		c-0.245-0.529-0.579-1.01-0.991-1.426c-0.133-0.132-0.239-0.239-0.333-0.396c-0.083-0.135-0.141-0.274-0.177-0.434
		C18,8.484,18,8.338,18,8.17V7.326l-2.118,0.605c-0.018,0.005-0.089,0.024-0.126,0.033C15.146,9.729,13.469,11,11.5,11
		c-1.504,0-2.839-0.742-3.656-1.879C6.688,10.06,6,11.475,6,13c0,1.328,0.515,2.579,1.45,3.521c0.14,0.141,0.24,0.241,0.331,0.392
		c0.085,0.142,0.14,0.276,0.177,0.43C8,17.518,8,17.662,8,17.83V20h1.5v-0.2c0-0.369,0-0.66,0.163-0.98
		c0.146-0.285,0.373-0.512,0.657-0.656C10.639,18,10.945,18,11.3,18h1.4c0.355,0,0.663,0,0.984,0.165
		c0.281,0.142,0.51,0.37,0.654,0.657C14.5,19.138,14.5,19.444,14.5,19.8V20z M11.5,4C10.122,4,9,5.122,9,6.5S10.122,9,11.5,9
		c1.227,0,2.25-0.889,2.461-2.056c0.003-0.059,0.012-0.117,0.024-0.173C13.995,6.682,14,6.591,14,6.5C14,5.122,12.878,4,11.5,4z
		 M18.582,7.166L18.582,7.166L18.582,7.166z"/>
</g>
</svg>
