<?xml version="1.0" encoding="iso-8859-1"?>
<!-- Generator: Adobe Illustrator 27.4.0, SVG Export Plug-In . SVG Version: 6.00 Build 0)  -->
<svg version="1.1" id="Layer_1" xmlns="http://www.w3.org/2000/svg" xmlns:xlink="http://www.w3.org/1999/xlink" x="0px" y="0px"
	 viewBox="0 0 24 24" style="enable-background:new 0 0 24 24;" xml:space="preserve">
<g>
	<path d="M18,21h-4c-0.553,0-1-0.447-1-1s0.447-1,1-1h1v-5h-4.5C7.467,14,5,11.533,5,8.5S7.467,3,10.5,3H18c0.553,0,1,0.448,1,1
		s-0.447,1-1,1h-1v14h1c0.553,0,1,0.447,1,1S18.553,21,18,21z M10.5,5C8.57,5,7,6.57,7,8.5S8.57,12,10.5,12H15V5H10.5z"/>
</g>
</svg>
