<?xml version="1.0" encoding="iso-8859-1"?>
<!-- Generator: Adobe Illustrator 27.4.0, SVG Export Plug-In . SVG Version: 6.00 Build 0)  -->
<svg version="1.1" id="Layer_1" xmlns="http://www.w3.org/2000/svg" xmlns:xlink="http://www.w3.org/1999/xlink" x="0px" y="0px"
	 viewBox="0 0 24 24" style="enable-background:new 0 0 24 24;" xml:space="preserve">
<g>
	<path d="M19.5,21H12c-0.552,0-1-0.447-1-1s0.448-1,1-1h1v-6H9c-2.757,0-5-2.243-5-5s2.243-5,5-5h10.5c0.553,0,1,0.448,1,1
		s-0.447,1-1,1h-1v14h1c0.553,0,1,0.447,1,1S20.053,21,19.5,21z M15,19h1.5V5H15V19z M9,5C7.346,5,6,6.346,6,8s1.346,3,3,3h4V5H9z"
		/>
</g>
</svg>
