<?xml version="1.0" encoding="iso-8859-1"?>
<!-- Generator: Adobe Illustrator 27.4.0, SVG Export Plug-In . SVG Version: 6.00 Build 0)  -->
<svg version="1.1" id="Layer_1" xmlns="http://www.w3.org/2000/svg" xmlns:xlink="http://www.w3.org/1999/xlink" x="0px" y="0px"
	 viewBox="0 0 24 24" style="enable-background:new 0 0 24 24;" xml:space="preserve">
<g>
	<path d="M2.72,22.273c-0.256,0-0.512-0.098-0.707-0.293c-0.391-0.391-0.391-1.023,0-1.414l4.95-4.95L4.127,12.78
		c-0.817-0.817-1.268-1.267-1.36-1.933c-0.08-0.58,0.097-1.164,0.484-1.601c0.447-0.503,1.071-0.627,2.204-0.854L9.12,7.66
		c0.089-0.018,0.146-0.027,0.191-0.041c0.01-0.016,0.049-0.058,0.114-0.122l1.687-1.744l1.072-2.501
		c0.365-0.853,0.585-1.368,1.091-1.699c0.445-0.291,0.979-0.393,1.493-0.288c0.589,0.118,0.982,0.511,1.634,1.162l5.153,5.154
		c0.659,0.66,1.054,1.054,1.173,1.645c0.105,0.518,0.004,1.049-0.288,1.494c-0.33,0.504-0.846,0.725-1.699,1.09l-2.682,1.196
		l-1.562,1.561c-0.064,0.064-0.106,0.104-0.137,0.141c0,0.021-0.01,0.078-0.027,0.166l-0.732,3.665
		c-0.227,1.132-0.351,1.755-0.853,2.202c-0.441,0.391-1.027,0.563-1.603,0.485c-0.664-0.092-1.113-0.54-1.928-1.354L8.376,17.03
		l-4.95,4.95C3.231,22.176,2.976,22.273,2.72,22.273z M4.797,10.588c0.143,0.177,0.448,0.481,0.744,0.777l7.085,7.086
		c0.298,0.298,0.601,0.601,0.778,0.743c0.068-0.217,0.153-0.639,0.235-1.05l0.732-3.665c0.053-0.263,0.088-0.394,0.136-0.516
		c0.055-0.143,0.13-0.283,0.221-0.414c0.077-0.109,0.166-0.21,0.354-0.398l1.562-1.561c0.124-0.124,0.189-0.184,0.258-0.238
		c0.067-0.055,0.156-0.116,0.248-0.168c0.074-0.042,0.152-0.08,0.313-0.147l2.488-1.067c0.309-0.132,0.625-0.268,0.782-0.355
		C20.622,9.477,20.381,9.235,20.146,9l-5.147-5.148c-0.241-0.241-0.482-0.482-0.621-0.594c-0.088,0.157-0.224,0.474-0.355,0.782
		l-1.069,2.495c-0.068,0.159-0.104,0.235-0.146,0.309c-0.054,0.094-0.111,0.178-0.175,0.257c-0.05,0.063-0.108,0.126-0.23,0.248
		L10.84,8.91c-0.188,0.188-0.288,0.277-0.396,0.353c-0.133,0.093-0.274,0.168-0.421,0.225C9.907,9.534,9.777,9.568,9.511,9.621
		l-3.664,0.732C5.437,10.436,5.015,10.52,4.797,10.588z"/>
</g>
</svg>
