<?xml version="1.0" encoding="iso-8859-1"?>
<!-- Generator: Adobe Illustrator 27.4.0, SVG Export Plug-In . SVG Version: 6.00 Build 0)  -->
<svg version="1.1" id="Layer_1" xmlns="http://www.w3.org/2000/svg" xmlns:xlink="http://www.w3.org/1999/xlink" x="0px" y="0px"
	 viewBox="0 0 24 24" style="enable-background:new 0 0 24 24;" xml:space="preserve">
<g>
	<path d="M12,23c-0.552,0-1-0.447-1-1v-6H7.33c-1.298,0-1.949,0-2.497-0.438c-0.479-0.381-0.753-0.952-0.752-1.565
		c0.001-0.701,0.434-1.241,1.218-2.222l1.57-1.962c0.067-0.084,0.11-0.134,0.141-0.18C7.003,9.612,7,9.544,7,9.439L6.963,7.098
		L5.95,4.566C5.604,3.702,5.396,3.183,5.52,2.592c0.107-0.518,0.41-0.966,0.853-1.26C6.875,1,7.436,1,8.364,1h7.273
		c0.928,0,1.488,0,1.991,0.332c0.442,0.293,0.746,0.741,0.854,1.26c0.122,0.593-0.086,1.112-0.43,1.973l-1.054,2.635L17,9.439
		c0,0.105-0.003,0.173,0.003,0.228c0.021,0.016,0.063,0.066,0.129,0.147l1.569,1.961c0.785,0.98,1.217,1.52,1.219,2.221
		c0,0.615-0.274,1.186-0.752,1.566C18.619,16,17.969,16,16.672,16h-3.671v6C13.001,22.553,12.553,23,12,23z M6.137,13.973
		C6.389,14,6.866,14,7.33,14h9.342c0.464,0,0.939,0,1.192-0.027c-0.137-0.214-0.435-0.586-0.724-0.947l-1.57-1.962
		c-0.151-0.188-0.26-0.324-0.353-0.508c-0.079-0.155-0.139-0.324-0.176-0.5C15,9.854,15,9.688,15,9.439V7.308
		c0-0.175,0.004-0.263,0.014-0.349c0.012-0.097,0.031-0.198,0.059-0.297c0.02-0.074,0.049-0.156,0.113-0.317l1.009-2.522
		c0.125-0.311,0.252-0.63,0.302-0.804C16.316,3,15.972,3,15.637,3H8.364c-0.335,0-0.68,0-0.859,0.019
		C7.554,3.191,7.682,3.51,7.806,3.821l1.009,2.521C8.88,6.507,8.908,6.585,8.93,6.665c0.027,0.103,0.046,0.2,0.058,0.298
		C8.998,7.051,9,7.137,9,7.308v2.131c0,0.25,0,0.415-0.041,0.614c-0.036,0.175-0.096,0.347-0.178,0.507
		c-0.092,0.179-0.199,0.313-0.347,0.499l-1.573,1.966C6.571,13.387,6.273,13.759,6.137,13.973z"/>
</g>
</svg>
