<?xml version="1.0" encoding="iso-8859-1"?>
<!-- Generator: Adobe Illustrator 27.4.0, SVG Export Plug-In . SVG Version: 6.00 Build 0)  -->
<svg version="1.1" id="Layer_1" xmlns="http://www.w3.org/2000/svg" xmlns:xlink="http://www.w3.org/1999/xlink" x="0px" y="0px"
	 viewBox="0 0 24 24" style="enable-background:new 0 0 24 24;" xml:space="preserve">
<g>
	<path d="M8.913,22.946c-0.301,0-0.599-0.067-0.873-0.199c-0.491-0.239-0.757-0.639-1.198-1.3L5.2,18.985
		c0,0-0.092-0.057-0.092-0.057L2.755,17.36c-0.662-0.441-1.061-0.707-1.298-1.195c-0.208-0.431-0.256-0.92-0.137-1.379
		c0.139-0.528,0.478-0.867,1.04-1.428l0.197-0.197c0.229-0.229,0.394-0.395,0.633-0.53c0.206-0.117,0.434-0.198,0.674-0.235
		c0.265-0.043,0.485-0.018,0.819,0.02l1.653,0.184c0.145,0.016,0.229,0.022,0.311,0.029c0.015-0.03,0.076-0.098,0.178-0.2
		l2.202-2.202L4.533,8.728C3.554,8.401,3.014,8.221,2.639,7.715c-0.326-0.439-0.459-1-0.364-1.54
		c0.11-0.621,0.512-1.023,1.242-1.752l0.371-0.371C4.16,3.78,4.339,3.6,4.611,3.458c0.24-0.126,0.501-0.201,0.773-0.221
		c0.307-0.02,0.552,0.034,0.926,0.12l7.459,1.722c0.163,0.038,0.263,0.066,0.348,0.073c0.015-0.036,0.082-0.113,0.195-0.229
		l2.714-2.804c0,0,0,0,0,0c0.655-0.676,1.533-1.052,2.475-1.06c0.01,0,0.02,0,0.028,0c0.931,0,1.804,0.361,2.462,1.02
		c1.327,1.327,1.353,3.511,0.057,4.868l-2.778,2.91c-0.114,0.12-0.189,0.19-0.238,0.258c0.021,0.028,0.049,0.124,0.083,0.275
		l1.732,7.504c0.086,0.376,0.143,0.623,0.119,0.927c-0.02,0.266-0.094,0.527-0.221,0.771c-0.143,0.271-0.319,0.449-0.587,0.718
		l-0.379,0.378c-0.729,0.729-1.13,1.13-1.749,1.241c-0.545,0.095-1.104-0.037-1.543-0.364c-0.505-0.375-0.686-0.914-1.012-1.894
		l-1.498-4.494l-2.202,2.201c-0.103,0.103-0.171,0.164-0.217,0.225c0.014,0.028,0.028,0.118,0.044,0.263l0.184,1.656
		c0.038,0.334,0.062,0.556,0.019,0.823c-0.039,0.241-0.119,0.469-0.239,0.677c-0.13,0.229-0.286,0.386-0.522,0.622l-0.201,0.201
		c-0.562,0.562-0.901,0.9-1.424,1.038C9.253,22.925,9.083,22.946,8.913,22.946z M3.279,15.288c0.115,0.094,0.354,0.253,0.586,0.408
		l2.353,1.568c0.159,0.106,0.229,0.157,0.296,0.215c0.073,0.062,0.148,0.137,0.216,0.217c0.059,0.069,0.11,0.142,0.209,0.289
		l1.568,2.353c0.155,0.232,0.314,0.471,0.408,0.586c0.115-0.095,0.318-0.297,0.516-0.494l0.197-0.197
		c0.104-0.104,0.171-0.165,0.217-0.225c-0.014-0.031-0.028-0.122-0.044-0.267l-0.184-1.653c-0.037-0.337-0.061-0.556-0.02-0.82
		c0.039-0.242,0.119-0.468,0.237-0.677c0.133-0.234,0.299-0.399,0.529-0.629l3.344-3.345c0.245-0.245,0.6-0.347,0.937-0.266
		c0.338,0.08,0.609,0.328,0.719,0.657l2.01,6.029c0.116,0.347,0.235,0.703,0.316,0.883c0.154-0.125,0.419-0.391,0.678-0.648
		l0.372-0.371c0.12-0.12,0.198-0.191,0.249-0.26c-0.022-0.032-0.052-0.135-0.09-0.298l-1.729-7.488
		c-0.083-0.363-0.14-0.612-0.118-0.907c0.017-0.26,0.087-0.517,0.209-0.758c0.131-0.264,0.302-0.442,0.561-0.713l2.78-2.912
		c0.553-0.578,0.542-1.508-0.023-2.073c-0.28-0.28-0.652-0.434-1.048-0.434c-0.004,0-0.008,0-0.013,0
		c-0.4,0.003-0.774,0.164-1.053,0.451l-2.71,2.799c-0.267,0.275-0.439,0.453-0.702,0.597c-0.25,0.138-0.534,0.222-0.82,0.242
		c-0.301,0.02-0.54-0.035-0.905-0.118L5.861,5.306C5.697,5.268,5.595,5.238,5.508,5.231C5.492,5.268,5.421,5.347,5.302,5.466
		L4.931,5.836C4.673,6.095,4.407,6.361,4.283,6.514c0.18,0.082,0.536,0.2,0.883,0.316l6.03,2.01c0.329,0.11,0.577,0.382,0.657,0.719
		c0.08,0.337-0.021,0.691-0.266,0.937L8.24,13.841c-0.237,0.238-0.395,0.396-0.632,0.53c-0.205,0.117-0.433,0.197-0.673,0.235
		c-0.265,0.041-0.485,0.018-0.82-0.02l-1.653-0.184c-0.145-0.017-0.24-0.037-0.311-0.029c-0.015,0.03-0.077,0.099-0.179,0.2
		l-0.198,0.198C3.584,14.961,3.375,15.171,3.279,15.288z"/>
</g>
</svg>
