<?xml version="1.0" encoding="iso-8859-1"?>
<!-- Generator: Adobe Illustrator 27.4.0, SVG Export Plug-In . SVG Version: 6.00 Build 0)  -->
<svg version="1.1" id="Layer_1" xmlns="http://www.w3.org/2000/svg" xmlns:xlink="http://www.w3.org/1999/xlink" x="0px" y="0px"
	 viewBox="0 0 24 24" style="enable-background:new 0 0 24 24;" xml:space="preserve">
<g>
	<path d="M9.991,17.084c-0.032,0-0.064-0.001-0.097-0.004c-0.438-0.032-0.835-0.25-1.095-0.598C8.5,16.084,8.5,15.645,8.5,15.035
		v-6.07c0-0.608,0-1.048,0.298-1.448C9.06,7.168,9.459,6.95,9.894,6.919c0.487-0.036,0.868,0.203,1.38,0.532l4.721,3.034
		c0.452,0.291,0.78,0.501,0.962,0.927c0.158,0.374,0.158,0.8,0.001,1.172c-0.183,0.429-0.511,0.639-0.964,0.93l-4.72,3.034
		C10.795,16.856,10.44,17.084,9.991,17.084z M10.51,15.517h0.01H10.51z M10.5,9.332v5.337L14.65,12L10.5,9.332z"/>
</g>
<g>
	<path d="M16.2,22H7.8c-1.838,0-2.76,0-3.616-0.437c-0.757-0.385-1.362-0.989-1.748-1.747C2,18.96,2,18.037,2,16.2V7.8
		c0-1.838,0-2.76,0.436-3.616c0.386-0.757,0.991-1.362,1.748-1.748C5.04,2,5.962,2,7.8,2h8.4c1.837,0,2.76,0,3.616,0.436
		c0.758,0.386,1.362,0.991,1.748,1.749C22,5.04,22,5.962,22,7.8v8.4c0,1.837,0,2.76-0.436,3.616
		c-0.386,0.758-0.99,1.362-1.749,1.748C18.96,22,18.037,22,16.2,22z M7.8,4C6.33,4,5.52,4,5.092,4.218
		C4.713,4.411,4.411,4.713,4.218,5.092C4,5.52,4,6.33,4,7.8v8.4c0,1.47,0,2.279,0.218,2.708c0.193,0.379,0.495,0.681,0.873,0.873
		C5.52,20,6.33,20,7.8,20h8.4c1.47,0,2.279,0,2.708-0.219c0.379-0.192,0.681-0.494,0.873-0.872C20,18.479,20,17.67,20,16.2V7.8
		c0-1.47,0-2.28-0.218-2.708c-0.193-0.379-0.495-0.681-0.874-0.874C18.479,4,17.67,4,16.2,4H7.8z"/>
</g>
</svg>
