<?xml version="1.0" encoding="iso-8859-1"?>
<!-- Generator: Adobe Illustrator 27.4.0, SVG Export Plug-In . SVG Version: 6.00 Build 0)  -->
<svg version="1.1" id="Layer_1" xmlns="http://www.w3.org/2000/svg" xmlns:xlink="http://www.w3.org/1999/xlink" x="0px" y="0px"
	 viewBox="0 0 24 24" style="enable-background:new 0 0 24 24;" xml:space="preserve">
<g>
	<path d="M12,23C5.935,23,1,18.065,1,12S5.935,1,12,1s11,4.935,11,11S18.065,23,12,23z M12,3c-4.962,0-9,4.038-9,9
		c0,4.963,4.038,9,9,9c4.963,0,9-4.037,9-9C21,7.038,16.963,3,12,3z"/>
</g>
<g>
	<path d="M9.991,17.084c-0.032,0-0.064-0.001-0.097-0.004c-0.438-0.032-0.835-0.25-1.095-0.598C8.5,16.084,8.5,15.645,8.5,15.035
		v-6.07c0-0.608,0-1.048,0.298-1.448C9.06,7.168,9.459,6.95,9.894,6.919c0.487-0.036,0.868,0.203,1.38,0.532l4.721,3.034
		c0.452,0.291,0.78,0.501,0.962,0.927c0.158,0.374,0.158,0.8,0.001,1.172c-0.183,0.429-0.511,0.639-0.964,0.93l-4.72,3.034
		C10.795,16.856,10.44,17.084,9.991,17.084z M10.51,15.517h0.01H10.51z M10.5,9.332v5.337L14.65,12L10.5,9.332z"/>
</g>
</svg>
