<?xml version="1.0" encoding="iso-8859-1"?>
<!-- Generator: Adobe Illustrator 27.4.0, SVG Export Plug-In . SVG Version: 6.00 Build 0)  -->
<svg version="1.1" id="Layer_1" xmlns="http://www.w3.org/2000/svg" xmlns:xlink="http://www.w3.org/1999/xlink" x="0px" y="0px"
	 viewBox="0 0 24 24" style="enable-background:new 0 0 24 24;" xml:space="preserve">
<g>
	<path d="M5.982,22.131c-0.033,0-0.066-0.001-0.1-0.003c-0.587-0.035-1.125-0.323-1.478-0.791C4,20.803,4,20.166,4,19.011V4.99
		c0-1.156,0-1.793,0.405-2.328c0.352-0.466,0.89-0.754,1.475-0.79c0.667-0.043,1.2,0.312,2.162,0.954l10.516,7.01
		c0.782,0.521,1.255,0.836,1.487,1.397c0.204,0.495,0.204,1.039,0,1.532c-0.232,0.562-0.705,0.877-1.487,1.397L8.042,21.174
		C7.128,21.782,6.605,22.131,5.982,22.131z M6.046,20.212h0.01H6.046z M6.024,3.914C6,4.14,6,4.571,6,4.99v14.021
		c0,0.419,0,0.849,0.024,1.075c0.202-0.105,0.559-0.344,0.907-0.575l10.517-7.012c0.283-0.188,0.574-0.382,0.715-0.499
		c-0.141-0.117-0.432-0.311-0.715-0.5L6.933,4.49C6.584,4.258,6.226,4.019,6.024,3.914z"/>
</g>
</svg>
