<?xml version="1.0" encoding="iso-8859-1"?>
<!-- Generator: Adobe Illustrator 27.4.0, SVG Export Plug-In . SVG Version: 6.00 Build 0)  -->
<svg version="1.1" id="Layer_1" xmlns="http://www.w3.org/2000/svg" xmlns:xlink="http://www.w3.org/1999/xlink" x="0px" y="0px"
	 viewBox="0 0 24 24" style="enable-background:new 0 0 24 24;" xml:space="preserve">
<g>
	<path d="M12,23c-1.654,0-3-1.346-3-3v-2c0-1.654,1.346-3,3-3s3,1.346,3,3v2C15,21.654,13.654,23,12,23z M12,17
		c-0.551,0-1,0.448-1,1v2c0,0.552,0.449,1,1,1s1-0.448,1-1v-2C13,17.448,12.551,17,12,17z M6.88,19
		c-0.193,0-0.388-0.056-0.559-0.172C3.615,16.999,2,13.992,2,10.785C2,5.39,6.486,1,12,1c5.514,0,10,4.39,10,9.785
		c0,3.206-1.615,6.213-4.32,8.043c-0.46,0.31-1.079,0.188-1.389-0.268c-0.31-0.458-0.189-1.079,0.268-1.389
		C18.714,15.714,20,13.326,20,10.785C20,6.492,16.411,3,12,3s-8,3.492-8,7.785c0,2.542,1.287,4.929,3.441,6.387
		c0.458,0.31,0.578,0.931,0.269,1.389C7.517,18.846,7.201,19,6.88,19z M15.641,15c-0.254,0-0.509-0.097-0.703-0.289
		c-0.393-0.389-0.396-1.021-0.008-1.414C15.62,12.599,16,11.695,16,10.75C16,8.683,14.206,7,12,7c-2.206,0-4,1.683-4,3.75
		c0,0.945,0.38,1.849,1.07,2.545c0.389,0.393,0.386,1.026-0.007,1.415c-0.392,0.388-1.025,0.387-1.414-0.007
		C6.586,13.63,6,12.226,6,10.75C6,7.58,8.691,5,12,5s6,2.58,6,5.75c0,1.475-0.586,2.878-1.648,3.953
		C16.156,14.901,15.898,15,15.641,15z M12,13c-1.103,0-2-0.897-2-2s0.897-2,2-2c1.103,0,2,0.897,2,2S13.103,13,12,13z M12,10.999V11
		V10.999z"/>
</g>
</svg>
