<svg width="16" height="16" viewBox="0 0 18 18" xmlns="http://www.w3.org/2000/svg">
<path d="M13.2021 0C16.263 0 17.991 1.7361 18 4.797V13.203C18 16.263 16.263 18 13.2021 18H4.797C1.7361 18 0 16.263 0 13.203V4.797C0 1.7361 1.7361 0 4.797 0H13.2021ZM9.45 3.717C9.1971 3.564 8.8911 3.564 8.649 3.717C8.4051 3.8691 8.271 4.149 8.2971 4.428V13.599C8.343 13.986 8.6661 14.274 9.0441 14.274C9.432 14.274 9.7551 13.986 9.7911 13.599V4.428C9.8271 4.149 9.693 3.8691 9.45 3.717ZM5.247 6.669C5.004 6.516 4.6971 6.516 4.455 6.669C4.2111 6.822 4.077 7.1001 4.104 7.38V13.599C4.1391 13.986 4.4631 14.274 4.8501 14.274C5.238 14.274 5.5611 13.986 5.5971 13.599V7.38C5.625 7.1001 5.4891 6.822 5.247 6.669ZM13.5801 9.936C13.338 9.783 13.032 9.783 12.78 9.936C12.5361 10.089 12.402 10.3581 12.438 10.647V13.599C12.474 13.986 12.7971 14.274 13.185 14.274C13.563 14.274 13.8861 13.986 13.932 13.599V10.647C13.9581 10.3581 13.824 10.089 13.5801 9.936Z"/>
</svg>
