<?xml version="1.0" encoding="UTF-8"?>
<svg id="Layer_2" data-name="Layer 2" xmlns="http://www.w3.org/2000/svg" viewBox="0 0 21.5 15.5">
  <defs>
    <style>
      .cls-1 {
        stroke-width: 0px;
      }
    </style>
  </defs>
  <g id="Layer_1-2" data-name="Layer 1">
    <path class="cls-1" d="m11.25,15.5c-1.36,0-2.58-.67-3.36-1.72-.83.39-2.01.61-3.29.61-2.22,0-4.6-.7-4.6-2.22V2.22C0,.7,2.38,0,4.6,0s4.6.7,4.6,2.22v4.96c.61-.35,1.31-.55,2.05-.55,2.34,0,4.25,1.99,4.25,4.43s-1.91,4.43-4.25,4.43Zm-2.65-3.66c.32,1.24,1.39,2.16,2.65,2.16,1.52,0,2.75-1.32,2.75-2.93s-1.23-2.93-2.75-2.93-2.75,1.31-2.75,2.92h0v.02h0c0,.27.03.52.1.77Zm-7.1-1.29v1.62c.11.17,1.17.72,3.1.72,1.15,0,2.06-.2,2.61-.45,0-.02-.01-.04-.02-.07-.12-.41-.19-.85-.19-1.31h0v-.02h0c0-.09,0-.18,0-.27-1.56.42-3.94.41-5.51-.23Zm0-1.74c.16.24,1.22.76,3.1.76,1.37,0,2.42-.3,2.9-.6.06-.12.13-.24.2-.36v-1.39c-1.74.71-4.46.71-6.2,0v1.58Zm0-3.28c.11.17,1.17.72,3.1.72s2.94-.52,3.1-.76v-1.58c-1.74.71-4.46.71-6.2,0v1.62Zm.01-3.3c.17.19,1.22.7,3.09.7s2.83-.47,3.07-.72c-.24-.25-1.28-.72-3.07-.72s-2.88.5-3.09.74Zm19.24,9.26h-2.81c-.41,0-.75-.34-.75-.75s.34-.75.75-.75h2.81c.41,0,.75.34.75.75s-.34.75-.75.75Zm0-4h-5.06c-.41,0-.75-.34-.75-.75s.34-.75.75-.75h5.06c.41,0,.75.34.75.75s-.34.75-.75.75Zm0-4h-9c-.41,0-.75-.34-.75-.75s.34-.75.75-.75h9c.41,0,.75.34.75.75s-.34.75-.75.75Z"/>
  </g>
</svg>