<?xml version="1.0" encoding="iso-8859-1"?>
<!-- Generator: Adobe Illustrator 27.4.0, SVG Export Plug-In . SVG Version: 6.00 Build 0)  -->
<svg version="1.1" id="Layer_1" xmlns="http://www.w3.org/2000/svg" xmlns:xlink="http://www.w3.org/1999/xlink" x="0px" y="0px"
	 viewBox="0 0 24 24" style="enable-background:new 0 0 24 24;" xml:space="preserve">
<g>
	<path d="M11.995,23.003c-1.985,0-3.906-0.583-5.556-1.686c-1.649-1.101-2.922-2.652-3.683-4.486C1.997,14.998,1.8,13,2.187,11.053
		c0.387-1.946,1.333-3.717,2.736-5.12c0.39-0.391,1.023-0.391,1.414,0c0.391,0.39,0.391,1.023,0,1.414
		C5.215,8.47,4.458,9.886,4.148,11.443c-0.31,1.558-0.152,3.156,0.456,4.623c0.608,1.467,1.627,2.708,2.946,3.589
		c2.639,1.766,6.25,1.765,8.889,0.001c1.319-0.882,2.338-2.123,2.946-3.59c0.607-1.466,0.765-3.064,0.456-4.623
		c-0.31-1.556-1.066-2.972-2.188-4.096c-0.391-0.391-0.391-1.024,0-1.415c0.391-0.39,1.023-0.39,1.414,0
		c1.403,1.404,2.35,3.175,2.735,5.12c0.387,1.948,0.19,3.946-0.569,5.778c-0.761,1.834-2.034,3.386-3.683,4.487
		C15.9,22.42,13.979,23.003,11.995,23.003z M12,13c-0.552,0-1-0.448-1-1V2c0-0.552,0.448-1,1-1s1,0.448,1,1v10
		C13,12.552,12.552,13,12,13z"/>
</g>
</svg>
