<?xml version="1.0" encoding="iso-8859-1"?>
<!-- Generator: Adobe Illustrator 27.4.0, SVG Export Plug-In . SVG Version: 6.00 Build 0)  -->
<svg version="1.1" id="Layer_1" xmlns="http://www.w3.org/2000/svg" xmlns:xlink="http://www.w3.org/1999/xlink" x="0px" y="0px"
	 viewBox="0 0 24 24" style="enable-background:new 0 0 24 24;" xml:space="preserve">
<g>
	<path d="M12,23C5.935,23,1,18.065,1,12S5.935,1,12,1s11,4.935,11,11S18.065,23,12,23z M12,3c-4.962,0-9,4.038-9,9
		c0,4.963,4.038,9,9,9c4.963,0,9-4.037,9-9C21,7.038,16.963,3,12,3z M12,18c-3.309,0-6-2.691-6-6c0-1.311,0.415-2.556,1.201-3.601
		c0.332-0.442,0.958-0.531,1.4-0.199c0.441,0.332,0.531,0.958,0.199,1.4C8.276,10.296,8,11.126,8,12c0,2.206,1.794,4,4,4
		c2.206,0,4-1.794,4-4c0-0.874-0.276-1.704-0.8-2.4c-0.331-0.441-0.242-1.068,0.199-1.4s1.07-0.242,1.4,0.199
		C17.585,9.444,18,10.689,18,12C18,15.309,15.309,18,12,18z M12,13c-0.552,0-1-0.448-1-1V7c0-0.552,0.448-1,1-1s1,0.448,1,1v5
		C13,12.552,12.552,13,12,13z"/>
</g>
</svg>
