<?xml version="1.0" encoding="iso-8859-1"?>
<!-- Generator: Adobe Illustrator 27.4.0, SVG Export Plug-In . SVG Version: 6.00 Build 0)  -->
<svg version="1.1" id="Layer_1" xmlns="http://www.w3.org/2000/svg" xmlns:xlink="http://www.w3.org/1999/xlink" x="0px" y="0px"
	 viewBox="0 0 24 24" style="enable-background:new 0 0 24 24;" xml:space="preserve">
<g>
	<path d="M17.999,22c-0.226,0-0.452-0.076-0.64-0.231l-3.951-3.293c-0.149-0.125-0.285-0.238-0.408-0.339V21c0,0.553-0.448,1-1,1
		s-1-0.447-1-1v-2.863c-0.123,0.1-0.258,0.213-0.407,0.337L6.64,21.769c-0.425,0.352-1.055,0.296-1.408-0.128
		c-0.354-0.425-0.296-1.056,0.128-1.409L9.238,17H7.8c-1.838,0-2.76,0-3.616-0.437c-0.757-0.385-1.362-0.989-1.748-1.747
		C2,13.96,2,13.037,2,11.2V4C1.448,4,1,3.552,1,3s0.448-1,1-1h20c0.553,0,1,0.448,1,1s-0.447,1-1,1v7.2c0,1.837,0,2.76-0.436,3.616
		c-0.386,0.758-0.99,1.362-1.749,1.748C18.96,17,18.037,17,16.2,17h-1.438l3.878,3.231c0.424,0.354,0.481,0.984,0.128,1.409
		C18.57,21.878,18.286,22,17.999,22z M4,4v7.2c0,1.47,0,2.279,0.218,2.708c0.193,0.379,0.495,0.681,0.873,0.873
		C5.52,15,6.33,15,7.8,15h8.4c1.47,0,2.279,0,2.708-0.219c0.379-0.192,0.681-0.494,0.873-0.872C20,13.479,20,12.67,20,11.2V4H4z
		 M16,13c-0.553,0-1-0.448-1-1V7c0-0.552,0.447-1,1-1s1,0.448,1,1v5C17,12.552,16.553,13,16,13z M12,13c-0.552,0-1-0.448-1-1V9
		c0-0.552,0.448-1,1-1s1,0.448,1,1v3C13,12.552,12.552,13,12,13z M8,13c-0.552,0-1-0.448-1-1v-1c0-0.552,0.448-1,1-1s1,0.448,1,1v1
		C9,12.552,8.552,13,8,13z"/>
</g>
</svg>
