<?xml version="1.0" encoding="iso-8859-1"?>
<!-- Generator: Adobe Illustrator 27.4.0, SVG Export Plug-In . SVG Version: 6.00 Build 0)  -->
<svg version="1.1" id="Layer_1" xmlns="http://www.w3.org/2000/svg" xmlns:xlink="http://www.w3.org/1999/xlink" x="0px" y="0px"
	 viewBox="0 0 24 24" style="enable-background:new 0 0 24 24;" xml:space="preserve">
<g>
	<path d="M17.999,22c-0.226,0-0.452-0.076-0.64-0.231L13,18.135V21c0,0.553-0.448,1-1,1s-1-0.447-1-1v-2.865l-4.36,3.634
		c-0.425,0.352-1.055,0.296-1.408-0.128c-0.354-0.425-0.296-1.056,0.128-1.409L9.238,17H7.8c-1.838,0-2.76,0-3.616-0.437
		c-0.757-0.385-1.362-0.989-1.748-1.747C2,13.96,2,13.037,2,11.2V4C1.448,4,1,3.552,1,3s0.448-1,1-1h20c0.553,0,1,0.448,1,1
		s-0.447,1-1,1v7.2c0,1.837,0,2.76-0.436,3.616c-0.386,0.758-0.99,1.362-1.749,1.748C18.96,17,18.037,17,16.2,17h-1.438l3.879,3.231
		c0.424,0.354,0.481,0.984,0.128,1.409C18.57,21.878,18.286,22,17.999,22z M12.008,15H16.2c1.47,0,2.279,0,2.708-0.219
		c0.379-0.192,0.681-0.494,0.873-0.872C20,13.479,20,12.67,20,11.2V4H4v7.2c0,1.47,0,2.279,0.218,2.708
		c0.193,0.379,0.495,0.681,0.873,0.873C5.52,15,6.33,15,7.8,15h4.192c0.002,0,0.005,0,0.007,0h0h0C12.003,15,12.005,15,12.008,15z
		 M16,13c-0.553,0-1-0.448-1-1v-1c0-0.552,0.447-1,1-1s1,0.448,1,1v1C17,12.552,16.553,13,16,13z M12,13c-0.552,0-1-0.448-1-1V7
		c0-0.552,0.448-1,1-1s1,0.448,1,1v5C13,12.552,12.552,13,12,13z M8,13c-0.552,0-1-0.448-1-1V9c0-0.552,0.448-1,1-1s1,0.448,1,1v3
		C9,12.552,8.552,13,8,13z"/>
</g>
</svg>
