<?xml version="1.0" encoding="iso-8859-1"?>
<!-- Generator: Adobe Illustrator 27.4.0, SVG Export Plug-In . SVG Version: 6.00 Build 0)  -->
<svg version="1.1" id="Layer_1" xmlns="http://www.w3.org/2000/svg" xmlns:xlink="http://www.w3.org/1999/xlink" x="0px" y="0px"
	 viewBox="0 0 24 24" style="enable-background:new 0 0 24 24;" xml:space="preserve">
<g>
	<path d="M14.8,23H9.2c-1.238,0-1.92,0-2.562-0.326c-0.57-0.292-1.022-0.744-1.312-1.311C5.017,20.754,5.001,20.11,5,18.991
		c-0.42-0.013-0.729-0.045-1.036-0.128c-1.375-0.368-2.459-1.452-2.828-2.828C1,15.525,1,15.016,1,14v-2.2
		c0-1.838,0-2.76,0.436-3.616c0.386-0.757,0.991-1.362,1.748-1.748C3.702,6.172,4.245,6.068,5,6.027V5.2c0-1.238,0-1.92,0.327-2.562
		C5.617,2.07,6.07,1.617,6.637,1.327C7.28,1,7.962,1,9.2,1h5.6c1.238,0,1.921,0,2.562,0.327c0.567,0.29,1.02,0.742,1.311,1.31
		C19,3.28,19,3.962,19,5.2v0.827c0.755,0.041,1.298,0.145,1.816,0.409c0.758,0.386,1.362,0.991,1.748,1.749
		C23,9.04,23,9.962,23,11.8V14c0,1.017,0,1.526-0.137,2.036c-0.368,1.375-1.452,2.459-2.828,2.827
		c-0.308,0.083-0.615,0.115-1.035,0.128c-0.001,1.119-0.018,1.763-0.326,2.371c-0.291,0.567-0.744,1.021-1.311,1.311
		C16.721,23,16.038,23,14.8,23z M7,18v0.8c0,0.867,0,1.44,0.109,1.654c0.096,0.188,0.248,0.341,0.438,0.438C7.76,21,8.333,21,9.2,21
		h5.6c0.867,0,1.44,0,1.654-0.109c0.188-0.096,0.341-0.248,0.438-0.438C17,20.24,17,19.667,17,18.8v-1.6c0-0.867,0-1.44-0.109-1.654
		c-0.096-0.188-0.248-0.341-0.438-0.438C16.24,15,15.667,15,14.8,15H9.2c-0.868,0-1.44,0-1.655,0.109
		c-0.188,0.096-0.34,0.248-0.437,0.438C7,15.76,7,16.333,7,17.2V18z M9.2,13h5.6c1.238,0,1.921,0,2.562,0.326
		c0.567,0.291,1.021,0.744,1.311,1.311c0.309,0.605,0.326,1.246,0.327,2.354c0.229-0.009,0.396-0.025,0.517-0.059
		c0.688-0.185,1.23-0.727,1.415-1.414C21,15.263,21,14.814,21,14v-2.2c0-1.47,0-2.28-0.218-2.708
		c-0.193-0.379-0.495-0.681-0.874-0.874C19.479,8,18.67,8,17.2,8H6.8C5.33,8,4.52,8,4.092,8.218
		C3.713,8.411,3.411,8.713,3.218,9.092C3,9.52,3,10.33,3,11.8V14c0,0.814,0,1.264,0.068,1.519c0.184,0.687,0.726,1.229,1.414,1.413
		C4.604,16.964,4.771,16.981,5,16.99c0.001-1.107,0.019-1.748,0.327-2.353c0.29-0.567,0.742-1.02,1.31-1.311
		C7.28,13,7.962,13,9.2,13z M7,6h10V5.2c0-0.868,0-1.44-0.109-1.655c-0.096-0.188-0.248-0.34-0.438-0.437C16.24,3,15.667,3,14.8,3
		H9.2C8.333,3,7.76,3,7.545,3.109c-0.186,0.095-0.341,0.25-0.437,0.438C7,3.76,7,4.333,7,5.2V6z M18,11.5h-3c-0.553,0-1-0.448-1-1
		s0.447-1,1-1h3c0.553,0,1,0.448,1,1S18.553,11.5,18,11.5z"/>
</g>
</svg>
