<?xml version="1.0" encoding="iso-8859-1"?>
<!-- Generator: Adobe Illustrator 27.4.0, SVG Export Plug-In . SVG Version: 6.00 Build 0)  -->
<svg version="1.1" id="Layer_1" xmlns="http://www.w3.org/2000/svg" xmlns:xlink="http://www.w3.org/1999/xlink" x="0px" y="0px"
	 viewBox="0 0 24 24" style="enable-background:new 0 0 24 24;" xml:space="preserve">
<g>
	<path d="M12,23c-0.256,0-0.512-0.098-0.707-0.293l-2.619-2.618c-1.285,1.999-2.999,1.981-3.562,1.915
		c-1.583-0.193-2.921-1.532-3.115-3.115c-0.069-0.564-0.084-2.278,1.915-3.563l-2.619-2.618C1.105,12.52,1,12.265,1,12
		s0.105-0.52,0.293-0.707l3.6-3.6c0.24-0.24,0.586-0.34,0.916-0.271c0.332,0.071,0.605,0.305,0.726,0.622
		c0.516,1.355,1.284,2.073,2.112,1.974c0.674-0.082,1.289-0.697,1.371-1.371c0.101-0.826-0.619-1.596-1.974-2.112
		C7.727,6.414,7.493,6.141,7.422,5.809C7.351,5.478,7.453,5.133,7.693,4.893l3.6-3.6C11.48,1.105,11.735,1,12,1l0,0
		c0.265,0,0.52,0.105,0.707,0.293l2.618,2.619c1.286-2,2.996-1.986,3.563-1.915c1.583,0.193,2.922,1.532,3.115,3.115
		c0.068,0.565,0.084,2.278-1.915,3.562l2.618,2.619c0.391,0.391,0.391,1.023,0,1.414l-3.6,3.6c-0.239,0.239-0.585,0.345-0.916,0.271
		c-0.332-0.07-0.604-0.305-0.726-0.621c-0.517-1.355-1.298-2.07-2.112-1.975c-0.674,0.083-1.289,0.698-1.372,1.372
		c-0.101,0.826,0.619,1.596,1.975,2.112c0.316,0.121,0.551,0.394,0.621,0.726c0.071,0.331-0.03,0.677-0.271,0.916l-3.6,3.6
		C12.512,22.902,12.256,23,12,23z M8.4,17.4c0.262,0,0.518,0.104,0.707,0.293L12,20.586l1.911-1.911
		c-2-1.285-1.983-2.999-1.915-3.563c0.193-1.583,1.532-2.922,3.115-3.115c0.568-0.071,2.279-0.083,3.563,1.915L20.586,12
		l-2.893-2.893c-0.24-0.24-0.342-0.584-0.271-0.916c0.07-0.332,0.305-0.605,0.621-0.726c1.355-0.516,2.075-1.286,1.975-2.112
		c-0.083-0.674-0.698-1.289-1.372-1.372c-0.817-0.104-1.596,0.619-2.112,1.974c-0.121,0.317-0.394,0.551-0.726,0.622
		c-0.334,0.07-0.677-0.032-0.916-0.271L12,3.414l-1.912,1.912c2,1.285,1.984,2.998,1.915,3.562
		c-0.193,1.583-1.532,2.922-3.115,3.115c-0.565,0.068-2.278,0.084-3.562-1.915L3.414,12l2.893,2.893
		c0.24,0.239,0.342,0.585,0.271,0.916c-0.071,0.332-0.305,0.604-0.622,0.726c-1.355,0.517-2.075,1.286-1.974,2.112
		c0.083,0.674,0.697,1.289,1.372,1.372c0.814,0.093,1.595-0.619,2.112-1.975c0.121-0.316,0.394-0.551,0.726-0.621
		C8.26,17.407,8.331,17.4,8.4,17.4z"/>
</g>
</svg>
