<?xml version="1.0" encoding="iso-8859-1"?>
<!-- Generator: Adobe Illustrator 27.4.0, SVG Export Plug-In . SVG Version: 6.00 Build 0)  -->
<svg version="1.1" id="Layer_1" xmlns="http://www.w3.org/2000/svg" xmlns:xlink="http://www.w3.org/1999/xlink" x="0px" y="0px"
	 viewBox="0 0 24 24" style="enable-background:new 0 0 24 24;" xml:space="preserve">
<g>
	<path d="M13.2,23h-0.7c-0.552,0-1-0.447-1-1v-1.75c0-0.689-0.561-1.25-1.25-1.25S9,19.561,9,20.25V22c0,0.553-0.448,1-1,1H6.8
		c-1.838,0-2.76,0-3.616-0.437c-0.757-0.385-1.362-0.989-1.748-1.747C1,19.96,1,19.037,1,17.2v-1.7c0-0.553,0.448-1,1-1h1.5
		C4.327,14.5,5,13.827,5,13s-0.673-1.5-1.5-1.5H2c-0.552,0-1-0.448-1-1c0-1.528,0-2.296,0.305-3.031
		C1.713,6.482,2.482,5.713,3.47,5.305C4.204,5,4.972,5,6.5,5V4.5C6.5,2.57,8.07,1,10,1s3.5,1.57,3.5,3.5V5
		c1.528,0,2.296,0,3.031,0.305c0.986,0.409,1.755,1.177,2.164,2.165c0.229,0.554,0.286,1.127,0.3,2.031H19.5
		c1.93,0,3.5,1.57,3.5,3.5s-1.57,3.5-3.5,3.5H19v0.7c0,1.837,0,2.76-0.436,3.616c-0.386,0.758-0.99,1.362-1.749,1.748
		C15.96,23,15.037,23,13.2,23z M3,16.5v0.7c0,1.47,0,2.279,0.218,2.708c0.193,0.379,0.495,0.681,0.873,0.873C4.52,21,5.33,21,6.8,21
		H7v-0.75C7,18.458,8.458,17,10.25,17s3.25,1.458,3.25,3.25V21c1.282-0.001,2.01-0.016,2.408-0.219
		c0.379-0.192,0.681-0.494,0.873-0.872C17,19.479,17,18.67,17,17.2v-1.7c0-0.553,0.447-1,1-1h1.5c0.827,0,1.5-0.673,1.5-1.5
		s-0.673-1.5-1.5-1.5H18c-0.553,0-1-0.448-1-1c0-1.224,0-1.897-0.152-2.265c-0.205-0.494-0.589-0.878-1.082-1.083
		C15.397,7,14.724,7,13.5,7h-1c-0.552,0-1-0.448-1-1V4.5C11.5,3.673,10.827,3,10,3S8.5,3.673,8.5,4.5V6c0,0.552-0.448,1-1,1h-1
		C5.276,7,4.603,7,4.235,7.152C3.741,7.357,3.357,7.741,3.152,8.234C3.048,8.486,3.015,8.882,3.005,9.5H3.5C5.43,9.5,7,11.07,7,13
		s-1.57,3.5-3.5,3.5H3z"/>
</g>
</svg>
