<?xml version="1.0" encoding="iso-8859-1"?>
<!-- Generator: Adobe Illustrator 27.4.0, SVG Export Plug-In . SVG Version: 6.00 Build 0)  -->
<svg version="1.1" id="Layer_1" xmlns="http://www.w3.org/2000/svg" xmlns:xlink="http://www.w3.org/1999/xlink" x="0px" y="0px"
	 viewBox="0 0 24 24" style="enable-background:new 0 0 24 24;" xml:space="preserve">
<g>
	<path d="M19.4,22H17.6c-0.65,0-1.081,0-1.509-0.219c-0.378-0.191-0.681-0.494-0.873-0.874C15,20.481,15,20.051,15,19.4V17.6
		c0-0.65,0-1.081,0.219-1.509c0.191-0.378,0.494-0.681,0.874-0.873C16.519,15,16.949,15,17.6,15H19.4c0.65,0,1.081,0,1.509,0.219
		c0.378,0.191,0.681,0.494,0.873,0.874C22,16.519,22,16.949,22,17.6V19.4c0,0.65,0,1.081-0.219,1.509
		c-0.191,0.378-0.494,0.681-0.874,0.873C20.481,22,20.051,22,19.4,22z M17.6,17c-0.278,0-0.565,0-0.647,0.02
		C17,17.034,17,17.321,17,17.6V19.4c0,0.278,0,0.565,0.02,0.647C17.034,20,17.321,20,17.6,20H19.4c0.278,0,0.565,0,0.647-0.02
		C20,19.966,20,19.679,20,19.4V17.6c0-0.278,0-0.565-0.02-0.647C19.966,17,19.679,17,19.4,17H17.6z M12.01,22H12
		c-0.552,0-1-0.447-1-1s0.448-1,1-1s1.005,0.447,1.005,1S12.562,22,12.01,22z M8,22H3c-0.552,0-1-0.447-1-1s0.448-1,1-1h5
		c0.552,0,1,0.447,1,1S8.552,22,8,22z M12,18c-0.552,0-1-0.447-1-1v-4H7c-0.552,0-1-0.448-1-1s0.448-1,1-1h5c0.552,0,1,0.448,1,1v5
		C13,17.553,12.552,18,12,18z M8.01,18H8c-0.552,0-1-0.447-1-1s0.448-1,1-1s1.005,0.447,1.005,1S8.562,18,8.01,18z M4.5,18H3
		c-0.552,0-1-0.447-1-1s0.448-1,1-1h1.5c0.552,0,1,0.447,1,1S5.052,18,4.5,18z M21.01,13H21c-0.553,0-1-0.448-1-1s0.447-1,1-1
		s1.005,0.448,1.005,1S21.562,13,21.01,13z M17.5,13h-2c-0.553,0-1-0.448-1-1s0.447-1,1-1h2c0.553,0,1,0.448,1,1S18.053,13,17.5,13z
		 M3.01,13H3c-0.552,0-1-0.448-1-1s0.448-1,1-1s1.005,0.448,1.005,1S3.562,13,3.01,13z M19.4,9H17.6c-0.65,0-1.08,0-1.508-0.218
		c-0.379-0.193-0.681-0.496-0.874-0.875C15,7.481,15,7.051,15,6.4V4.6c0-0.651,0-1.081,0.219-1.51
		c0.192-0.377,0.494-0.679,0.873-0.872C16.52,2,16.949,2,17.6,2H19.4c0.65,0,1.08,0,1.508,0.218
		c0.379,0.193,0.681,0.496,0.874,0.875C22,3.519,22,3.949,22,4.6v1.8c0,0.651,0,1.081-0.219,1.51
		c-0.192,0.377-0.494,0.679-0.873,0.872C20.48,9,20.051,9,19.4,9z M17.6,4c-0.278,0-0.566,0-0.648,0.02C17,4.034,17,4.322,17,4.6
		v1.8c0,0.278,0,0.566,0.02,0.648C17.033,7,17.321,7,17.6,7H19.4c0.278,0,0.566,0,0.648-0.02C20,6.966,20,6.678,20,6.4V4.6
		c0-0.278,0-0.566-0.02-0.648C19.967,4,19.679,4,19.4,4H17.6z M12,9c-0.552,0-1-0.448-1-1V2c0-0.552,0.448-1,1-1s1,0.448,1,1v6
		C13,8.552,12.552,9,12,9z M6.4,9H4.6C3.95,9,3.52,9,3.092,8.782C2.713,8.588,2.412,8.287,2.219,7.91C2,7.48,2,7.05,2,6.4V4.6
		c0-0.65,0-1.08,0.218-1.508C2.412,2.713,2.713,2.412,3.09,2.219C3.52,2,3.95,2,4.6,2h1.8c0.65,0,1.08,0,1.508,0.218
		C8.287,2.412,8.588,2.713,8.781,3.09C9,3.52,9,3.95,9,4.6v1.8c0,0.65,0,1.08-0.218,1.508C8.588,8.287,8.287,8.588,7.91,8.781
		C7.48,9,7.05,9,6.4,9z M4.6,4C4.321,4,4.033,4,3.951,4.02C4,4.033,4,4.321,4,4.6v1.8c0,0.279,0,0.567,0.02,0.649
		C4.033,7,4.321,7,4.6,7h1.8c0.279,0,0.567,0,0.649-0.02C7,6.967,7,6.679,7,6.4V4.6c0-0.279,0-0.567-0.02-0.649
		C6.967,4,6.679,4,6.4,4H4.6z"/>
</g>
</svg>
