<?xml version="1.0" encoding="iso-8859-1"?>
<!-- Generator: Adobe Illustrator 27.4.0, SVG Export Plug-In . SVG Version: 6.00 Build 0)  -->
<svg version="1.1" id="Layer_1" xmlns="http://www.w3.org/2000/svg" xmlns:xlink="http://www.w3.org/1999/xlink" x="0px" y="0px"
	 viewBox="0 0 24 24" style="enable-background:new 0 0 24 24;" xml:space="preserve">
<g>
	<path d="M20,22c-0.207,0-0.414-0.064-0.588-0.191l-2.133-1.551l-1.904,1.523c-0.353,0.281-0.848,0.293-1.213,0.027L12,20.236
		l-2.162,1.572c-0.364,0.266-0.86,0.254-1.213-0.027l-1.904-1.523l-2.133,1.551c-0.303,0.222-0.706,0.254-1.042,0.082
		C3.211,21.721,3,21.376,3,21V7.8c0-1.838,0-2.76,0.436-3.616c0.386-0.757,0.991-1.362,1.748-1.748C6.04,2,6.962,2,8.8,2h6.4
		c1.837,0,2.76,0,3.616,0.436c0.758,0.386,1.362,0.991,1.748,1.749C21,5.04,21,5.962,21,7.8V21c0,0.376-0.211,0.721-0.546,0.891
		C20.311,21.964,20.155,22,20,22z M12,18c0.207,0,0.413,0.063,0.588,0.191l2.132,1.551l1.904-1.523
		c0.352-0.281,0.848-0.293,1.213-0.027L19,19.036V7.8c0-1.47,0-2.28-0.218-2.708c-0.193-0.379-0.495-0.681-0.874-0.874
		C17.479,4,16.67,4,15.2,4H8.8C7.33,4,6.52,4,6.092,4.218C5.713,4.411,5.411,4.713,5.218,5.092C5,5.52,5,6.33,5,7.8v11.236
		l1.162-0.845c0.365-0.265,0.862-0.253,1.213,0.027l1.904,1.523l2.133-1.551C11.587,18.063,11.793,18,12,18z"/>
</g>
</svg>
