<?xml version="1.0" encoding="iso-8859-1"?>
<!-- Generator: Adobe Illustrator 27.4.0, SVG Export Plug-In . SVG Version: 6.00 Build 0)  -->
<svg version="1.1" id="Layer_1" xmlns="http://www.w3.org/2000/svg" xmlns:xlink="http://www.w3.org/1999/xlink" x="0px" y="0px"
	 viewBox="0 0 24 24" style="enable-background:new 0 0 24 24;" xml:space="preserve">
<g>
	<path d="M16.5,22c-0.553,0-1-0.447-1-1V3c0-0.552,0.447-1,1-1s1,0.448,1,1v18C17.5,21.553,17.053,22,16.5,22z M12,19
		c-0.552,0-1-0.447-1-1V6c0-0.552,0.448-1,1-1s1,0.448,1,1v12C13,18.553,12.552,19,12,19z M21,15c-0.553,0-1-0.447-1-1v-4
		c0-0.552,0.447-1,1-1s1,0.448,1,1v4C22,14.553,21.553,15,21,15z M3,15c-0.552,0-1-0.447-1-1v-4c0-0.552,0.448-1,1-1s1,0.448,1,1v4
		C4,14.553,3.552,15,3,15z M7.5,14c-0.552,0-1-0.447-1-1v-2c0-0.552,0.448-1,1-1s1,0.448,1,1v2C8.5,13.553,8.052,14,7.5,14z"/>
</g>
</svg>
