<?xml version="1.0" encoding="iso-8859-1"?>
<!-- Generator: Adobe Illustrator 27.4.0, SVG Export Plug-In . SVG Version: 6.00 Build 0)  -->
<svg version="1.1" id="Layer_1" xmlns="http://www.w3.org/2000/svg" xmlns:xlink="http://www.w3.org/1999/xlink" x="0px" y="0px"
	 viewBox="0 0 24 24" style="enable-background:new 0 0 24 24;" xml:space="preserve">
<g>
	<path d="M12,22c-0.552,0-1-0.447-1-1V3c0-0.552,0.448-1,1-1s1,0.448,1,1v18C13,21.553,12.552,22,12,22z M16.5,19
		c-0.553,0-1-0.447-1-1V6c0-0.552,0.447-1,1-1s1,0.448,1,1v12C17.5,18.553,17.053,19,16.5,19z M7.5,19c-0.552,0-1-0.447-1-1V6
		c0-0.552,0.448-1,1-1s1,0.448,1,1v12C8.5,18.553,8.052,19,7.5,19z M21,15c-0.553,0-1-0.447-1-1v-4c0-0.552,0.447-1,1-1s1,0.448,1,1
		v4C22,14.553,21.553,15,21,15z M3,15c-0.552,0-1-0.447-1-1v-4c0-0.552,0.448-1,1-1s1,0.448,1,1v4C4,14.553,3.552,15,3,15z"/>
</g>
</svg>
