<?xml version="1.0" encoding="iso-8859-1"?>
<!-- Generator: Adobe Illustrator 27.4.0, SVG Export Plug-In . SVG Version: 6.00 Build 0)  -->
<svg version="1.1" id="Layer_1" xmlns="http://www.w3.org/2000/svg" xmlns:xlink="http://www.w3.org/1999/xlink" x="0px" y="0px"
	 viewBox="0 0 24 24" style="enable-background:new 0 0 24 24;" xml:space="preserve">
<g>
	<path d="M12,22c-0.552,0-1-0.447-1-1v-3c0-0.553,0.448-1,1-1s1,0.447,1,1v3C13,21.553,12.552,22,12,22z M2.499,17.484
		c-0.005,0-0.011,0-0.016,0c-0.457-0.006-0.879-0.215-1.161-0.572C1,16.506,1,16.056,1,15.375v-6.75c0-0.68,0-1.129,0.322-1.538
		C1.607,6.727,2.03,6.52,2.484,6.516c0.557-0.001,0.874,0.267,1.412,0.681L3.288,7.991l0.61-0.792l4.388,3.375
		c0.359,0.276,0.643,0.495,0.794,0.887c0.133,0.35,0.133,0.73,0.002,1.074c-0.154,0.398-0.438,0.616-0.796,0.893l-4.389,3.376
		C3.36,17.214,3.009,17.484,2.499,17.484z M3.012,15.915L3.012,15.915L3.012,15.915z M2.243,15.536L2.243,15.536L2.243,15.536z
		 M3,9.031v5.938L6.86,12L3,9.031z M7.325,12.365C7.325,12.365,7.325,12.365,7.325,12.365C7.325,12.365,7.325,12.365,7.325,12.365z
		 M7.325,11.635C7.325,11.635,7.325,11.635,7.325,11.635S7.325,11.635,7.325,11.635z M3.012,8.085L3.012,8.085L3.012,8.085z
		 M21.502,17.484c-0.51,0-0.862-0.271-1.394-0.678l-4.394-3.38c-0.363-0.279-0.646-0.497-0.796-0.893
		c-0.133-0.341-0.133-0.726,0.002-1.075c0.147-0.389,0.431-0.607,0.79-0.883l4.392-3.378c0,0,0,0,0,0
		c0.541-0.415,0.91-0.687,1.417-0.682c0.45,0.004,0.873,0.211,1.156,0.568C23,7.495,23,7.944,23,8.625v6.75
		c0,0.681,0,1.131-0.323,1.539c-0.279,0.355-0.702,0.564-1.158,0.57C21.514,17.484,21.508,17.484,21.502,17.484z M20.987,15.915
		L20.987,15.915L20.987,15.915z M17.14,12L21,14.97V9.031L17.14,12z M20.987,8.085L20.987,8.085L20.987,8.085z M12,14.5
		c-0.552,0-1-0.447-1-1v-3c0-0.552,0.448-1,1-1s1,0.448,1,1v3C13,14.053,12.552,14.5,12,14.5z M12,7c-0.552,0-1-0.448-1-1V3
		c0-0.552,0.448-1,1-1s1,0.448,1,1v3C13,6.552,12.552,7,12,7z"/>
</g>
</svg>
