<?xml version="1.0" encoding="iso-8859-1"?>
<!-- Generator: Adobe Illustrator 27.4.0, SVG Export Plug-In . SVG Version: 6.00 Build 0)  -->
<svg version="1.1" id="Layer_1" xmlns="http://www.w3.org/2000/svg" xmlns:xlink="http://www.w3.org/1999/xlink" x="0px" y="0px"
	 viewBox="0 0 24 24" style="enable-background:new 0 0 24 24;" xml:space="preserve">
<g>
	<path d="M10.001,23c-0.005,0-0.011,0-0.016,0H4c-0.552,0-1-0.447-1-1s0.448-1,1-1h2.954c-0.687-0.614-1.393-1.296-2.025-1.929
		C3.04,17.183,2,14.671,2,12c0-2.671,1.04-5.182,2.929-7.071c1.337-1.337,3.014-2.264,4.85-2.68
		c0.538-0.123,1.074,0.215,1.196,0.754s-0.215,1.074-0.754,1.196C8.754,4.532,7.413,5.273,6.343,6.343C4.832,7.854,4,9.863,4,12
		c0,2.137,0.832,4.146,2.343,5.658C7.531,18.845,8.392,19.621,9,20.126V16c0-0.553,0.448-1,1-1s1,0.447,1,1v5.983
		c0,0.028,0,0.057-0.002,0.086c-0.008,0.118-0.037,0.23-0.082,0.333c-0.06,0.137-0.149,0.257-0.259,0.352
		c-0.111,0.098-0.244,0.17-0.39,0.21C10.181,22.987,10.092,23,10.001,23z M13.999,21.776c-0.456,0-0.869-0.314-0.975-0.778
		c-0.122-0.539,0.216-1.074,0.754-1.197c1.469-0.333,2.81-1.074,3.879-2.144c3.119-3.119,3.119-8.195,0-11.314
		C16.47,5.155,15.608,4.379,15,3.874V8c0,0.552-0.447,1-1,1s-1-0.448-1-1V2.017c0-0.028,0-0.057,0.002-0.085
		c0.009-0.118,0.037-0.23,0.082-0.334c0.061-0.137,0.149-0.256,0.26-0.352c0.111-0.097,0.245-0.17,0.393-0.21
		C13.825,1.011,13.897,0.997,14.015,1H20c0.553,0,1,0.448,1,1s-0.447,1-1,1h-2.954c0.688,0.615,1.393,1.296,2.025,1.929
		c3.899,3.899,3.899,10.243,0,14.142c-1.336,1.336-3.014,2.263-4.85,2.681C14.146,21.769,14.072,21.776,13.999,21.776z"/>
</g>
</svg>
