<?xml version="1.0" encoding="iso-8859-1"?>
<!-- Generator: Adobe Illustrator 27.4.0, SVG Export Plug-In . SVG Version: 6.00 Build 0)  -->
<svg version="1.1" id="Layer_1" xmlns="http://www.w3.org/2000/svg" xmlns:xlink="http://www.w3.org/1999/xlink" x="0px" y="0px"
	 viewBox="0 0 24 24" style="enable-background:new 0 0 24 24;" xml:space="preserve">
<g>
	<path d="M12,22c-4.43,0-8.382-2.97-9.609-7.223c-0.153-0.53,0.153-1.085,0.684-1.238c0.531-0.151,1.084,0.153,1.238,0.684
		C5.294,17.624,8.456,20,12,20c4.411,0,8-3.589,8-8s-3.589-8-8-8C9.862,4,7.853,4.833,6.341,6.345C5.576,7.11,4.713,8.144,4.031,9H8
		c0.552,0,1,0.448,1,1s-0.448,1-1,1H2.007c-0.073-0.009-0.158-0.008-0.236-0.026c0,0-0.001,0-0.001,0l0,0
		c-0.159-0.038-0.302-0.113-0.421-0.215c-0.099-0.084-0.177-0.185-0.234-0.294c-0.065-0.125-0.105-0.264-0.112-0.413
		C1,10.03,1,10.009,1,9.988V4c0-0.552,0.448-1,1-1s1,0.448,1,1v3.094c0.606-0.737,1.29-1.525,1.926-2.163C6.815,3.041,9.328,2,12,2
		c5.514,0,10,4.486,10,10C22,17.514,17.514,22,12,22z"/>
</g>
</svg>
