<?xml version="1.0" encoding="iso-8859-1"?>
<!-- Generator: Adobe Illustrator 27.4.0, SVG Export Plug-In . SVG Version: 6.00 Build 0)  -->
<svg version="1.1" id="Layer_1" xmlns="http://www.w3.org/2000/svg" xmlns:xlink="http://www.w3.org/1999/xlink" x="0px" y="0px"
	 viewBox="0 0 24 24" style="enable-background:new 0 0 24 24;" xml:space="preserve">
<g>
	<path d="M12,21.996c-2.561,0-5.122-0.976-7.071-2.925C4.296,18.438,3.615,17.733,3,17.046V20c0,0.553-0.448,1-1,1s-1-0.447-1-1
		v-5.985c-0.001-0.097,0.011-0.19,0.036-0.279c0.04-0.146,0.112-0.278,0.208-0.389c0.096-0.112,0.217-0.202,0.356-0.263
		c0.103-0.046,0.215-0.074,0.333-0.082C1.961,13.001,1.991,13.001,2.017,13H8c0.552,0,1,0.447,1,1s-0.448,1-1,1H3.874
		c0.505,0.608,1.282,1.47,2.47,2.657c3.119,3.119,8.194,3.119,11.314,0c1.069-1.069,1.811-2.41,2.144-3.879
		c0.122-0.539,0.654-0.875,1.197-0.754c0.538,0.123,0.876,0.658,0.754,1.197c-0.418,1.836-1.345,3.514-2.681,4.85
		C17.122,21.021,14.562,21.996,12,21.996z M3.225,11c-0.073,0-0.148-0.008-0.223-0.025c-0.539-0.122-0.876-0.658-0.753-1.197
		c0.417-1.836,1.344-3.513,2.681-4.849C6.818,3.04,9.329,2,12,2c2.672,0,5.183,1.04,7.071,2.929C19.704,5.562,20.386,6.267,21,6.954
		V4c0-0.552,0.447-1,1-1s1,0.448,1,1v5.985c0.002,0.098-0.011,0.193-0.036,0.283c-0.04,0.144-0.111,0.274-0.206,0.384
		c-0.096,0.112-0.218,0.203-0.357,0.264c-0.103,0.045-0.215,0.073-0.332,0.081C22.038,11,22.005,11,21.983,11H16
		c-0.553,0-1-0.448-1-1s0.447-1,1-1h4.126c-0.505-0.608-1.281-1.469-2.469-2.657C16.146,4.832,14.137,4,12,4
		S7.854,4.832,6.343,6.343c-1.069,1.069-1.811,2.41-2.145,3.878C4.093,10.686,3.681,11,3.225,11z"/>
</g>
</svg>
