<?xml version="1.0" encoding="iso-8859-1"?>
<!-- Generator: Adobe Illustrator 27.4.0, SVG Export Plug-In . SVG Version: 6.00 Build 0)  -->
<svg version="1.1" id="Layer_1" xmlns="http://www.w3.org/2000/svg" xmlns:xlink="http://www.w3.org/1999/xlink" x="0px" y="0px"
	 viewBox="0 0 24 24" style="enable-background:new 0 0 24 24;" xml:space="preserve">
<g>
	<path d="M13.999,23c-0.093,0-0.183-0.013-0.269-0.037c-0.138-0.038-0.264-0.105-0.37-0.194l0,0
		c-0.001-0.001-0.001-0.001-0.001-0.001c-0.119-0.099-0.215-0.225-0.277-0.37c-0.044-0.103-0.072-0.213-0.08-0.329
		C13,22.04,13,22.012,13,21.983V16c0-0.553,0.447-1,1-1s1,0.447,1,1v4.127c0.608-0.506,1.47-1.282,2.657-2.47
		c3.119-3.119,3.119-8.195,0-11.314c-1.069-1.069-2.41-1.811-3.879-2.145c-0.538-0.122-0.876-0.658-0.754-1.197
		s0.652-0.878,1.197-0.753c1.837,0.417,3.514,1.344,4.85,2.681c3.899,3.899,3.899,10.243,0,14.142
		c-0.633,0.633-1.338,1.314-2.025,1.929H20c0.553,0,1,0.447,1,1s-0.447,1-1,1h-5.985C14.009,23,14.004,23,13.999,23z M10.001,21.776
		c-0.073,0-0.148-0.008-0.223-0.024c-1.836-0.418-3.513-1.345-4.849-2.681C3.04,17.183,2,14.672,2,12
		c0-2.671,1.04-5.182,2.929-7.071C5.562,4.296,6.267,3.615,6.955,3H4C3.448,3,3,2.552,3,2s0.448-1,1-1h5.985
		c0.095,0.003,0.191,0.011,0.281,0.036c0.143,0.04,0.273,0.11,0.383,0.204c0.114,0.097,0.206,0.219,0.267,0.36
		c0.045,0.103,0.073,0.214,0.081,0.332C11,1.96,11,1.988,11,2.017V8c0,0.552-0.448,1-1,1S9,8.552,9,8V3.874
		C8.392,4.379,7.531,5.156,6.343,6.343C4.832,7.854,4,9.863,4,12s0.832,4.146,2.343,5.657c1.069,1.069,2.41,1.811,3.878,2.144
		c0.539,0.123,0.876,0.658,0.753,1.197C10.87,21.462,10.458,21.776,10.001,21.776z"/>
</g>
</svg>
