<?xml version="1.0" encoding="iso-8859-1"?>
<!-- Generator: Adobe Illustrator 27.4.0, SVG Export Plug-In . SVG Version: 6.00 Build 0)  -->
<svg version="1.1" id="Layer_1" xmlns="http://www.w3.org/2000/svg" xmlns:xlink="http://www.w3.org/1999/xlink" x="0px" y="0px"
	 viewBox="0 0 24 24" style="enable-background:new 0 0 24 24;" xml:space="preserve">
<g>
	<path d="M11,23.4c-0.256,0-0.512-0.098-0.707-0.293c-0.391-0.391-0.391-1.023,0-1.414l0.297-0.298C6.019,20.713,2.5,16.76,2.5,12
		c0-3.026,1.462-5.898,3.911-7.683c0.447-0.325,1.072-0.227,1.397,0.219c0.325,0.446,0.227,1.072-0.219,1.397
		C5.655,7.343,4.5,9.611,4.5,12c0,3.638,2.603,6.678,6.043,7.358l-0.25-0.251c-0.391-0.391-0.391-1.023,0-1.414s1.023-0.391,1.414,0
		l2,2c0.391,0.391,0.391,1.023,0,1.414l-2,2C11.512,23.303,11.256,23.4,11,23.4z M17.001,19.875c-0.309,0-0.613-0.143-0.81-0.411
		c-0.325-0.446-0.227-1.071,0.22-1.397C18.346,16.657,19.5,14.39,19.5,12c0-3.638-2.603-6.679-6.044-7.358l0.251,0.251
		c0.391,0.391,0.391,1.023,0,1.414s-1.023,0.391-1.414,0l-2-2c-0.391-0.391-0.391-1.023,0-1.414l2-2
		c0.391-0.391,1.023-0.391,1.414,0s0.391,1.023,0,1.414L13.41,2.604C17.982,3.288,21.5,7.241,21.5,12
		c0,3.026-1.462,5.898-3.911,7.684C17.411,19.812,17.205,19.875,17.001,19.875z"/>
</g>
</svg>
