<?xml version="1.0" encoding="iso-8859-1"?>
<!-- Generator: Adobe Illustrator 27.4.0, SVG Export Plug-In . SVG Version: 6.00 Build 0)  -->
<svg version="1.1" id="Layer_1" xmlns="http://www.w3.org/2000/svg" xmlns:xlink="http://www.w3.org/1999/xlink" x="0px" y="0px"
	 viewBox="0 0 24 24" style="enable-background:new 0 0 24 24;" xml:space="preserve">
<g>
	<path d="M11.997,21.496c-1.312,0-2.628-0.27-3.855-0.814c-0.505-0.224-0.733-0.814-0.509-1.319s0.818-0.732,1.319-0.509
		c2.187,0.969,4.729,0.836,6.798-0.358c3.15-1.819,4.482-5.594,3.351-8.913l-0.092,0.343c-0.142,0.534-0.688,0.854-1.225,0.707
		c-0.533-0.143-0.85-0.691-0.707-1.225l0.731-2.732c0.068-0.256,0.236-0.475,0.466-0.607c0.229-0.134,0.504-0.169,0.759-0.1
		L21.766,6.7c0.533,0.143,0.85,0.691,0.707,1.225c-0.143,0.533-0.691,0.85-1.225,0.707l-0.406-0.109
		c1.694,4.301,0.03,9.324-4.092,11.705C15.291,21.07,13.646,21.496,11.997,21.496z M5.226,18.065c-0.085,0-0.172-0.011-0.259-0.034
		L2.235,17.3c-0.533-0.143-0.85-0.691-0.707-1.225c0.143-0.533,0.687-0.853,1.225-0.707l0.404,0.108
		c-0.745-1.882-0.867-3.945-0.333-5.935C3.48,7.09,5.052,5.042,7.25,3.773c2.622-1.513,5.841-1.683,8.609-0.454
		c0.505,0.224,0.732,0.815,0.509,1.32c-0.225,0.504-0.812,0.733-1.319,0.508c-2.188-0.971-4.729-0.838-6.798,0.358
		c-1.735,1.001-2.976,2.619-3.494,4.554c-0.391,1.458-0.336,2.965,0.144,4.362l0.093-0.346c0.143-0.534,0.693-0.852,1.225-0.707
		c0.534,0.143,0.85,0.691,0.707,1.225l-0.732,2.731C6.072,17.771,5.668,18.065,5.226,18.065z"/>
</g>
</svg>
