<?xml version="1.0" encoding="iso-8859-1"?>
<!-- Generator: Adobe Illustrator 27.4.0, SVG Export Plug-In . SVG Version: 6.00 Build 0)  -->
<svg version="1.1" id="Layer_1" xmlns="http://www.w3.org/2000/svg" xmlns:xlink="http://www.w3.org/1999/xlink" x="0px" y="0px"
	 viewBox="0 0 24 24" style="enable-background:new 0 0 24 24;" xml:space="preserve">
<g>
	<path d="M11,22C5.486,22,1,17.514,1,12C1,6.486,5.486,2,11,2c2.672,0,5.185,1.041,7.073,2.931C18.71,5.568,19.394,6.356,20,7.094V4
		c0-0.552,0.447-1,1-1s1,0.448,1,1v5.988c0,0.021,0,0.042-0.001,0.062c-0.008,0.149-0.048,0.289-0.113,0.413
		c-0.057,0.109-0.135,0.209-0.233,0.294c-0.123,0.106-0.272,0.183-0.438,0.219h-0.001l0,0c-0.073,0.016-0.153,0.014-0.221,0.023H15
		c-0.553,0-1-0.448-1-1s0.447-1,1-1h3.969c-0.682-0.856-1.545-1.89-2.31-2.655C15.147,4.833,13.138,4,11,4c-4.411,0-8,3.589-8,8
		s3.589,8,8,8c3.544,0,6.705-2.376,7.688-5.777c0.154-0.531,0.707-0.833,1.238-0.684c0.53,0.153,0.837,0.708,0.684,1.238
		C19.381,19.03,15.43,22,11,22z"/>
</g>
</svg>
