<?xml version="1.0" encoding="iso-8859-1"?>
<!-- Generator: Adobe Illustrator 27.4.0, SVG Export Plug-In . SVG Version: 6.00 Build 0)  -->
<svg version="1.1" id="Layer_1" xmlns="http://www.w3.org/2000/svg" xmlns:xlink="http://www.w3.org/1999/xlink" x="0px" y="0px"
	 viewBox="0 0 24 24" style="enable-background:new 0 0 24 24;" xml:space="preserve">
<g>
	<path d="M12,21.996c-2.561,0-5.122-0.976-7.071-2.925c-1.336-1.336-2.264-3.013-2.681-4.85c-0.123-0.539,0.215-1.074,0.753-1.197
		c0.541-0.119,1.074,0.216,1.197,0.754c0.333,1.469,1.075,2.81,2.145,3.879c3.119,3.119,8.194,3.119,11.314,0
		c1.188-1.188,1.964-2.049,2.47-2.657H16c-0.553,0-1-0.447-1-1s0.447-1,1-1h5.983c0.022,0,0.056,0.001,0.085,0.002
		c0.117,0.008,0.229,0.036,0.332,0.082c0.14,0.061,0.26,0.15,0.356,0.263c0.096,0.11,0.168,0.243,0.208,0.389
		c0.024,0.089,0.037,0.183,0.035,0.279V20c0,0.553-0.447,1-1,1s-1-0.447-1-1v-2.954c-0.614,0.688-1.296,1.393-1.929,2.025
		C17.122,21.021,14.562,21.996,12,21.996z M20.775,11c-0.456,0-0.869-0.314-0.975-0.778c-0.333-1.468-1.074-2.809-2.144-3.878
		C16.146,4.832,14.137,4,12,4S7.854,4.832,6.343,6.343C5.156,7.531,4.379,8.392,3.874,9H8c0.552,0,1,0.448,1,1s-0.448,1-1,1H2.017
		c-0.031,0-0.059,0-0.087-0.002c-0.117-0.008-0.229-0.036-0.331-0.081c-0.139-0.061-0.261-0.152-0.357-0.264
		c-0.094-0.11-0.166-0.24-0.205-0.384C1.011,10.178,0.999,10.083,1,9.985V4c0-0.552,0.448-1,1-1s1,0.448,1,1v2.955
		c0.615-0.688,1.296-1.393,1.929-2.025C6.818,3.04,9.329,2,12,2c2.672,0,5.183,1.04,7.071,2.929
		c1.336,1.336,2.263,3.013,2.681,4.849c0.122,0.539-0.216,1.075-0.754,1.197C20.924,10.992,20.849,11,20.775,11z"/>
</g>
</svg>
