<?xml version="1.0" encoding="iso-8859-1"?>
<!-- Generator: Adobe Illustrator 27.4.0, SVG Export Plug-In . SVG Version: 6.00 Build 0)  -->
<svg version="1.1" id="Layer_1" xmlns="http://www.w3.org/2000/svg" xmlns:xlink="http://www.w3.org/1999/xlink" x="0px" y="0px"
	 viewBox="0 0 24 24" style="enable-background:new 0 0 24 24;" xml:space="preserve">
<g>
	<path d="M12.015,21.504c-0.826,0-1.656-0.108-2.475-0.327c-1.99-0.534-3.715-1.671-4.973-3.256l-0.108,0.404
		c-0.143,0.532-0.69,0.852-1.225,0.707c-0.533-0.143-0.85-0.691-0.707-1.225l0.732-2.732c0.068-0.256,0.236-0.475,0.466-0.607
		s0.503-0.168,0.759-0.1l2.732,0.732c0.534,0.143,0.85,0.691,0.707,1.225c-0.143,0.534-0.69,0.852-1.225,0.707l-0.345-0.093
		c0.97,1.113,2.248,1.914,3.705,2.306c1.937,0.518,3.957,0.252,5.691-0.75c2.069-1.193,3.456-3.327,3.71-5.708
		c0.059-0.549,0.544-0.953,1.101-0.888c0.549,0.058,0.946,0.551,0.888,1.1c-0.321,3.014-2.078,5.716-4.698,7.229
		C15.285,21.072,13.661,21.504,12.015,21.504z M3.547,12.107c-0.035,0-0.071-0.002-0.107-0.005
		c-0.549-0.059-0.947-0.551-0.888-1.101c0.32-3.013,2.077-5.715,4.698-7.229c4.122-2.378,9.305-1.309,12.182,2.309l0.109-0.406
		c0.144-0.534,0.693-0.851,1.225-0.707c0.533,0.143,0.851,0.691,0.707,1.225L20.74,8.925c-0.144,0.534-0.688,0.853-1.225,0.707
		L16.783,8.9c-0.533-0.143-0.85-0.691-0.707-1.225s0.691-0.849,1.225-0.707l0.344,0.092C15.334,4.419,11.4,3.685,8.25,5.505
		C6.18,6.699,4.793,8.833,4.54,11.213C4.486,11.726,4.052,12.107,3.547,12.107z"/>
</g>
</svg>
