<?xml version="1.0" encoding="iso-8859-1"?>
<!-- Generator: Adobe Illustrator 27.4.0, SVG Export Plug-In . SVG Version: 6.00 Build 0)  -->
<svg version="1.1" id="Layer_1" xmlns="http://www.w3.org/2000/svg" xmlns:xlink="http://www.w3.org/1999/xlink" x="0px" y="0px"
	 viewBox="0 0 24 24" style="enable-background:new 0 0 24 24;" xml:space="preserve">
<g>
	<path d="M13,23c-0.256,0-0.512-0.098-0.707-0.293l-3-3C9.197,19.61,9.124,19.5,9.075,19.381C9.027,19.265,9,19.137,9,19.003l0,0
		c0-0.002,0-0.004,0-0.006l0,0c0-0.134,0.027-0.262,0.075-0.378c0.049-0.119,0.122-0.229,0.218-0.326l3-3
		c0.391-0.391,1.023-0.391,1.414,0s0.391,1.023,0,1.414L12.414,18H15c3.309,0,6-2.691,6-6c0-2.305-1.346-4.434-3.429-5.423
		c-0.499-0.237-0.712-0.833-0.475-1.332c0.236-0.5,0.833-0.713,1.332-0.475C21.206,6.089,23,8.927,23,12c0,4.411-3.589,8-8,8h-2.586
		l1.293,1.293c0.391,0.391,0.391,1.023,0,1.414C13.512,22.902,13.256,23,13,23z M6,19.326c-0.144,0-0.29-0.031-0.429-0.097
		C2.794,17.911,1,15.073,1,12c0-4.411,3.589-8,8-8h2.586l-1.293-1.293c-0.391-0.391-0.391-1.023,0-1.414s1.023-0.391,1.414,0l3,3
		c0.097,0.096,0.169,0.208,0.218,0.326C14.973,4.735,15,4.863,15,4.997l0,0c0,0.002,0,0.004,0,0.006l0,0
		c0,0.134-0.027,0.262-0.075,0.378c-0.049,0.119-0.121,0.23-0.218,0.326l-3,3c-0.391,0.391-1.023,0.391-1.414,0
		s-0.391-1.023,0-1.414L11.586,6H9c-3.309,0-6,2.691-6,6c0,2.305,1.346,4.434,3.429,5.423c0.499,0.237,0.711,0.833,0.474,1.332
		C6.732,19.115,6.374,19.326,6,19.326z"/>
</g>
</svg>
