<?xml version="1.0" encoding="iso-8859-1"?>
<!-- Generator: Adobe Illustrator 27.4.0, SVG Export Plug-In . SVG Version: 6.00 Build 0)  -->
<svg version="1.1" id="Layer_1" xmlns="http://www.w3.org/2000/svg" xmlns:xlink="http://www.w3.org/1999/xlink" x="0px" y="0px"
	 viewBox="0 0 24 24" style="enable-background:new 0 0 24 24;" xml:space="preserve">
<g>
	<path d="M13,23.4c-0.256,0-0.512-0.098-0.707-0.293l-2-2c-0.391-0.391-0.391-1.023,0-1.414l2-2c0.391-0.391,1.023-0.391,1.414,0
		s0.391,1.023,0,1.414l-0.25,0.251C16.897,18.678,19.5,15.638,19.5,12c0-2.389-1.154-4.657-3.089-6.066
		c-0.446-0.325-0.545-0.951-0.22-1.397c0.326-0.446,0.95-0.544,1.397-0.219C20.038,6.102,21.5,8.974,21.5,12
		c0,4.76-3.519,8.713-8.091,9.396l0.298,0.298c0.391,0.391,0.391,1.023,0,1.414C13.512,23.303,13.256,23.4,13,23.4z M6.999,19.875
		c-0.204,0-0.41-0.062-0.588-0.191C3.962,17.898,2.5,15.026,2.5,12c0-4.759,3.518-8.712,8.09-9.396l-0.297-0.297
		c-0.391-0.391-0.391-1.023,0-1.414s1.023-0.391,1.414,0l2,2c0.391,0.391,0.391,1.023,0,1.414l-2,2
		c-0.391,0.391-1.023,0.391-1.414,0s-0.391-1.023,0-1.414l0.251-0.251C7.103,5.321,4.5,8.362,4.5,12c0,2.39,1.155,4.657,3.089,6.066
		c0.446,0.326,0.544,0.951,0.219,1.397C7.612,19.732,7.308,19.875,6.999,19.875z"/>
</g>
</svg>
