<?xml version="1.0" encoding="iso-8859-1"?>
<!-- Generator: Adobe Illustrator 27.4.0, SVG Export Plug-In . SVG Version: 6.00 Build 0)  -->
<svg version="1.1" id="Layer_1" xmlns="http://www.w3.org/2000/svg" xmlns:xlink="http://www.w3.org/1999/xlink" x="0px" y="0px"
	 viewBox="0 0 24 24" style="enable-background:new 0 0 24 24;" xml:space="preserve">
<g>
	<path d="M13,23c-0.256,0-0.512-0.098-0.707-0.293l-3-3C9.197,19.61,9.124,19.5,9.075,19.381C9.027,19.265,9,19.137,9,19.003l0,0
		c0-0.002,0-0.004,0-0.006l0,0c0-0.134,0.027-0.262,0.075-0.378c0.049-0.119,0.122-0.229,0.218-0.326l3-3
		c0.391-0.391,1.023-0.391,1.414,0s0.391,1.023,0,1.414L12.414,18H17.2c1.47,0,2.279,0,2.708-0.219
		c0.379-0.192,0.681-0.494,0.873-0.872C21,16.479,21,15.67,21,14.2V8.5c0-0.397,0.005-0.596-0.017-0.762
		c-0.118-0.895-0.826-1.603-1.723-1.721C19.094,5.996,18.895,6,18.5,6c-0.553,0-1-0.448-1-1s0.447-1,1-1
		c0.508,0,0.763,0,1.023,0.035c1.79,0.235,3.206,1.651,3.442,3.443C22.995,7.702,23,7.968,23,8.5v5.7c0,1.837,0,2.76-0.436,3.616
		c-0.386,0.758-0.99,1.362-1.749,1.748C19.96,20,19.037,20,17.2,20h-4.786l1.293,1.293c0.391,0.391,0.391,1.023,0,1.414
		C13.512,22.902,13.256,23,13,23z M5.5,20c-0.532,0-0.798-0.005-1.021-0.034c-1.793-0.236-3.209-1.652-3.444-3.443
		C1,16.263,1,16.008,1,15.5V9.8c0-1.838,0-2.76,0.436-3.616c0.386-0.757,0.991-1.362,1.748-1.748C4.04,4,4.962,4,6.8,4h4.786
		l-1.293-1.293c-0.391-0.391-0.391-1.023,0-1.414s1.023-0.391,1.414,0l3,3c0.097,0.096,0.169,0.208,0.218,0.326
		C14.973,4.735,15,4.863,15,4.997l0,0c0,0.002,0,0.004,0,0.006l0,0c0,0.134-0.027,0.262-0.075,0.378
		c-0.049,0.119-0.121,0.23-0.218,0.326l-3,3c-0.391,0.391-1.023,0.391-1.414,0s-0.391-1.023,0-1.414L11.586,6H6.8
		C5.33,6,4.52,6,4.092,6.218C3.713,6.411,3.411,6.713,3.218,7.092C3,7.52,3,8.33,3,9.8v5.7c0,0.396-0.005,0.594,0.017,0.76
		c0.118,0.897,0.826,1.605,1.722,1.724C4.904,18.004,5.104,18,5.5,18c0.552,0,1,0.447,1,1S6.052,20,5.5,20z"/>
</g>
</svg>
