<?xml version="1.0" encoding="iso-8859-1"?>
<!-- Generator: Adobe Illustrator 27.4.0, SVG Export Plug-In . SVG Version: 6.00 Build 0)  -->
<svg version="1.1" id="Layer_1" xmlns="http://www.w3.org/2000/svg" xmlns:xlink="http://www.w3.org/1999/xlink" x="0px" y="0px"
	 viewBox="0 0 24 24" style="enable-background:new 0 0 24 24;" xml:space="preserve">
<g>
	<path d="M7,23c-0.256,0-0.512-0.098-0.707-0.293l-4-4C2.197,18.61,2.124,18.5,2.075,18.381C2.027,18.265,2,18.137,2,18.003l0,0
		c0-0.002,0-0.004,0-0.006l0,0c0-0.134,0.027-0.262,0.075-0.378c0.049-0.119,0.122-0.229,0.218-0.326l4-4
		c0.391-0.391,1.023-0.391,1.414,0s0.391,1.023,0,1.414L5.414,17H16.2c1.47,0,2.279,0,2.708-0.219
		c0.379-0.192,0.681-0.494,0.873-0.872C20,15.479,20,14.67,20,13.2V13c0-0.552,0.447-1,1-1s1,0.448,1,1v0.2
		c0,1.837,0,2.76-0.436,3.616c-0.386,0.758-0.99,1.362-1.749,1.748C18.96,19,18.037,19,16.2,19H5.414l2.293,2.293
		c0.391,0.391,0.391,1.023,0,1.414C7.512,22.902,7.256,23,7,23z M3,12c-0.552,0-1-0.448-1-1v-0.2c0-1.838,0-2.76,0.436-3.616
		c0.386-0.757,0.991-1.362,1.748-1.748C5.04,5,5.962,5,7.8,5h10.786l-2.293-2.293c-0.391-0.391-0.391-1.023,0-1.414
		s1.023-0.391,1.414,0l4,4c0.097,0.096,0.169,0.208,0.218,0.326C21.973,5.735,22,5.863,22,5.997l0,0c0,0.002,0,0.004,0,0.006l0,0
		c0,0.134-0.027,0.262-0.075,0.378c-0.049,0.119-0.121,0.23-0.218,0.326l-4,4c-0.391,0.391-1.023,0.391-1.414,0
		s-0.391-1.023,0-1.414L18.586,7H7.8C6.33,7,5.52,7,5.092,7.218C4.713,7.411,4.411,7.713,4.218,8.092C4,8.52,4,9.33,4,10.8V11
		C4,11.552,3.552,12,3,12z"/>
</g>
</svg>
