<svg width="39" height="39" viewBox="0 0 39 39" fill="none" xmlns="http://www.w3.org/2000/svg">
<g clip-path="url(#clip0_6044_43525)">
<path d="M38.9961 0.869671L35.7066 29.9437C35.6038 30.8523 34.6347 31.387 33.8115 30.9891C29.1782 28.7491 26.2319 27.3249 24.2945 26.389C24.263 26.4528 20.8624 30.6293 20.8069 30.699C20.1014 31.5669 18.7045 31.2262 18.4782 30.1311L16.9719 22.8499C18.0997 23.392 8.00693 18.5164 6.07294 17.5816C5.06818 17.0958 5.07647 15.6608 6.08703 15.1866L38.056 0.19486C38.5252 -0.0256555 39.0541 0.354029 38.9961 0.869671Z" fill="#6D88FF"/>
<path d="M24.2933 26.3886C24.2623 26.4532 20.7603 30.754 20.8054 30.6985C20.1003 31.5664 18.7037 31.2258 18.4771 30.1308L16.9707 22.8496L24.2933 26.3886Z" fill="#8EA3FF"/>
<path d="M35.7054 29.9431C35.6026 30.8517 34.6335 31.3864 33.8103 30.9885C23.216 25.8677 26.5684 27.4879 16.9707 22.8493C16.9682 22.8343 38.313 0.541521 38.301 0.554122C38.5618 0.281628 39.0331 0.484817 38.9959 0.860191C38.995 0.867984 35.7062 29.9353 35.7054 29.9431Z" fill="#3E55BC"/>
<path d="M13.331 32.9752C13.0382 32.755 12.6225 32.8139 12.4024 33.1068C11.3705 34.4795 9.68358 35.3562 8.08642 34.9635C11.8884 30.2043 8.92562 27.1045 6.82658 27.1045C5.46908 27.1086 4.40729 28.2014 3.95714 29.283C3.17315 31.1691 4.11896 33.8817 5.92885 35.331C4.40472 36.7148 2.5848 37.4072 0.61724 37.544C0.251814 37.5694 -0.0237476 37.8862 0.00161998 38.2516C0.0273192 38.6217 0.349802 38.8932 0.709259 38.8672C3.10724 38.7005 5.2964 37.8108 7.11466 36.0365C9.41656 36.9876 11.973 35.8856 13.4628 33.9037C13.6827 33.611 13.6238 33.1952 13.331 32.9752ZM5.18175 29.7925C5.40898 29.2466 6.03562 28.4333 6.83072 28.431C7.50669 28.431 8.15158 29.0771 8.41951 29.6838C8.99865 30.995 8.09379 32.908 6.85335 34.374C5.34166 33.2538 4.66246 31.0419 5.18175 29.7925Z" fill="#667085"/>
</g>
<defs>
<clipPath id="clip0_6044_43525">
<rect width="39" height="39" fill="white"/>
</clipPath>
</defs>
</svg>
