<?xml version="1.0" encoding="iso-8859-1"?>
<!-- Generator: Adobe Illustrator 27.4.0, SVG Export Plug-In . SVG Version: 6.00 Build 0)  -->
<svg version="1.1" id="Layer_1" xmlns="http://www.w3.org/2000/svg" xmlns:xlink="http://www.w3.org/1999/xlink" x="0px" y="0px"
	 viewBox="0 0 24 24" style="enable-background:new 0 0 24 24;" xml:space="preserve">
<g>
	<path d="M20,20H10c-3.86,0-7-3.141-7-7c0-3.86,3.14-7,7-7h7.586l-2.293-2.293c-0.391-0.391-0.391-1.023,0-1.414
		s1.023-0.391,1.414,0l4,4c0.097,0.096,0.169,0.208,0.218,0.326C20.973,6.735,21,6.863,21,6.997l0,0c0,0.002,0,0.004,0,0.006l0,0
		c0,0.134-0.027,0.262-0.075,0.378c-0.049,0.119-0.121,0.23-0.218,0.326l-4,4c-0.391,0.391-1.023,0.391-1.414,0
		s-0.391-1.023,0-1.414L17.586,8H10c-2.757,0-5,2.243-5,5s2.243,5,5,5h10c0.553,0,1,0.447,1,1S20.553,20,20,20z"/>
</g>
</svg>
