<?xml version="1.0" encoding="iso-8859-1"?>
<!-- Generator: Adobe Illustrator 27.4.0, SVG Export Plug-In . SVG Version: 6.00 Build 0)  -->
<svg version="1.1" id="Layer_1" xmlns="http://www.w3.org/2000/svg" xmlns:xlink="http://www.w3.org/1999/xlink" x="0px" y="0px"
	 viewBox="0 0 24 24" style="enable-background:new 0 0 24 24;" xml:space="preserve">
<g>
	<path d="M14,20H4c-0.552,0-1-0.447-1-1s0.448-1,1-1h10c2.757,0,5-2.243,5-5s-2.243-5-5-5H6.414l2.293,2.293
		c0.391,0.391,0.391,1.023,0,1.414s-1.023,0.391-1.414,0l-4-4C3.197,7.611,3.124,7.5,3.075,7.381C3.027,7.265,3,7.137,3,7.003l0,0
		c0-0.002,0-0.004,0-0.006l0,0c0-0.134,0.027-0.262,0.075-0.378C3.124,6.5,3.197,6.389,3.293,6.293l4-4
		c0.391-0.391,1.023-0.391,1.414,0s0.391,1.023,0,1.414L6.414,6H14c3.859,0,7,3.14,7,7C21,16.859,17.859,20,14,20z"/>
</g>
</svg>
