<?xml version="1.0" encoding="iso-8859-1"?>
<!-- Generator: Adobe Illustrator 27.4.0, SVG Export Plug-In . SVG Version: 6.00 Build 0)  -->
<svg version="1.1" id="Layer_1" xmlns="http://www.w3.org/2000/svg" xmlns:xlink="http://www.w3.org/1999/xlink" x="0px" y="0px"
	 viewBox="0 0 24 24" style="enable-background:new 0 0 24 24;" xml:space="preserve">
<g>
	<path d="M21,21H3c-0.552,0-1-0.447-1-1s0.448-1,1-1h18c0.553,0,1,0.447,1,1S21.553,21,21,21z M21,15.75H3c-0.552,0-1-0.447-1-1
		s0.448-1,1-1h18c0.553,0,1,0.447,1,1S21.553,15.75,21,15.75z M20.505,11.5c-0.505,0-0.857-0.264-1.385-0.66l-3.866-2.9
		c-0.371-0.277-0.663-0.497-0.819-0.897c-0.135-0.352-0.135-0.736,0-1.084c0.156-0.402,0.448-0.621,0.819-0.899L19.12,2.16l0,0
		c0.538-0.403,0.888-0.651,1.41-0.66c0.453,0.011,0.871,0.22,1.149,0.574C22,2.482,22,2.927,22,3.6v5.8c0,0.673,0,1.118-0.319,1.525
		c-0.279,0.355-0.697,0.564-1.147,0.574C20.523,11.5,20.515,11.5,20.505,11.5z M19.988,9.93L19.988,9.93L19.988,9.93z M16.667,6.5
		L20,9V4L16.667,6.5z M20.751,3.451L20.751,3.451C20.751,3.451,20.751,3.451,20.751,3.451z M19.988,3.07L19.988,3.07L19.988,3.07z
		 M12,10.25H3c-0.552,0-1-0.448-1-1s0.448-1,1-1h9c0.552,0,1,0.448,1,1S12.552,10.25,12,10.25z M12,5H3C2.448,5,2,4.552,2,4
		s0.448-1,1-1h9c0.552,0,1,0.448,1,1S12.552,5,12,5z"/>
</g>
</svg>
