<?xml version="1.0" encoding="iso-8859-1"?>
<!-- Generator: Adobe Illustrator 27.4.0, SVG Export Plug-In . SVG Version: 6.00 Build 0)  -->
<svg version="1.1" id="Layer_1" xmlns="http://www.w3.org/2000/svg" xmlns:xlink="http://www.w3.org/1999/xlink" x="0px" y="0px"
	 viewBox="0 0 24 24" style="enable-background:new 0 0 24 24;" xml:space="preserve">
<g>
	<path d="M21,21H3c-0.552,0-1-0.447-1-1s0.448-1,1-1h18c0.553,0,1,0.447,1,1S21.553,21,21,21z M20.498,17
		c-0.497,0-0.846-0.262-1.369-0.652l-3.875-2.907c-0.371-0.277-0.663-0.497-0.819-0.897c-0.135-0.351-0.135-0.735,0-1.084
		c0.156-0.402,0.448-0.621,0.819-0.899L19.12,7.66l0,0c0.538-0.403,0.888-0.676,1.41-0.66c0.453,0.011,0.871,0.22,1.149,0.574
		C22,7.982,22,8.427,22,9.1v5.8c0,0.673,0,1.118-0.319,1.525c-0.28,0.356-0.699,0.565-1.15,0.574C20.52,17,20.509,17,20.498,17z
		 M19.988,15.431L19.988,15.431L19.988,15.431z M16.667,12L20,14.5v-5L16.667,12z M20.751,8.951L20.751,8.951L20.751,8.951z
		 M19.988,8.57L19.988,8.57L19.988,8.57z M12,15.75H3c-0.552,0-1-0.447-1-1s0.448-1,1-1h9c0.552,0,1,0.447,1,1
		S12.552,15.75,12,15.75z M12,10.25H3c-0.552,0-1-0.448-1-1s0.448-1,1-1h9c0.552,0,1,0.448,1,1S12.552,10.25,12,10.25z M21,5H3
		C2.448,5,2,4.552,2,4s0.448-1,1-1h18c0.553,0,1,0.448,1,1S21.553,5,21,5z"/>
</g>
</svg>
