<?xml version="1.0" encoding="iso-8859-1"?>
<!-- Generator: Adobe Illustrator 27.4.0, SVG Export Plug-In . SVG Version: 6.00 Build 0)  -->
<svg version="1.1" id="Layer_1" xmlns="http://www.w3.org/2000/svg" xmlns:xlink="http://www.w3.org/1999/xlink" x="0px" y="0px"
	 viewBox="0 0 24 24" style="enable-background:new 0 0 24 24;" xml:space="preserve">
<g>
	<path d="M13.625,22.715c-0.118,0-0.237-0.011-0.357-0.032c-0.708-0.125-1.279-0.603-1.528-1.277l-0.665-1.804
		c-1.499,0.336-3.099,0.051-4.414-0.85l-2.455,2.455c-0.391,0.391-1.023,0.391-1.414,0s-0.391-1.023,0-1.414l2.441-2.441
		c-0.952-1.33-1.259-2.973-0.915-4.506l-1.804-0.665c-0.675-0.249-1.153-0.82-1.278-1.528c-0.125-0.709,0.128-1.41,0.678-1.875
		L4.771,6.36c0.529-0.448,1.268-0.589,1.925-0.371l2.266,0.755l3.367-3.599c0.513-0.549,1.205-0.92,1.947-1.044l4.908-0.818
		c0.951-0.16,1.93,0.154,2.613,0.837c0.684,0.684,0.997,1.661,0.838,2.615l-0.817,4.906c-0.123,0.742-0.494,1.435-1.045,1.949
		l-3.598,3.366l0.755,2.266c0.219,0.658,0.078,1.395-0.368,1.924l-2.419,2.858C14.756,22.463,14.207,22.715,13.625,22.715z
		 M12.919,18.822l0.697,1.892l2.418-2.856l-0.465-1.396l-1.863,1.744C13.457,18.438,13.194,18.643,12.919,18.822z M8.116,17.298
		c0.962,0.521,2.107,0.577,3.111,0.163c0.035-0.018,0.071-0.033,0.108-0.047c0.002-0.001,0.004-0.001,0.006-0.002
		c0.357-0.162,0.695-0.385,0.998-0.668l2.989-2.796c0.009-0.009,0.018-0.018,0.027-0.026l4-3.742
		c-0.746-1.09-1.606-2.125-2.562-3.08c-0.944-0.944-1.969-1.798-3.049-2.54l-6.569,7.021c-0.284,0.303-0.506,0.64-0.667,0.997
		c-0.001,0.002-0.002,0.005-0.002,0.007c-0.014,0.038-0.03,0.074-0.047,0.109c-0.429,1.04-0.353,2.229,0.22,3.212l5.613-5.613
		c0.391-0.391,1.025-0.391,1.415,0s0.39,1.023,0,1.414L8.116,17.298z M6.063,7.887l-2.857,2.417l1.892,0.697
		c0.179-0.274,0.385-0.538,0.617-0.786l1.744-1.864L6.063,7.887z M16.114,3.823c0.729,0.577,1.431,1.2,2.094,1.863
		c0.674,0.674,1.306,1.385,1.888,2.125l0.567-3.404c0.054-0.323-0.048-0.641-0.279-0.872c-0.231-0.232-0.549-0.334-0.871-0.279
		L16.114,3.823z"/>
</g>
</svg>
