<?xml version="1.0" encoding="iso-8859-1"?>
<!-- Generator: Adobe Illustrator 27.4.0, SVG Export Plug-In . SVG Version: 6.00 Build 0)  -->
<svg version="1.1" id="Layer_1" xmlns="http://www.w3.org/2000/svg" xmlns:xlink="http://www.w3.org/1999/xlink" x="0px" y="0px"
	 viewBox="0 0 24 24" style="enable-background:new 0 0 24 24;" xml:space="preserve">
<g>
	<path d="M2.5,22.5c-0.264,0-0.519-0.104-0.707-0.293c-0.22-0.221-0.325-0.53-0.284-0.84c0.057-0.422,0.602-4.166,2.348-5.633
		c0.6-0.505,1.359-0.769,2.146-0.746c0.785,0.024,1.53,0.337,2.098,0.878c1.161,1.146,1.227,3.021,0.163,4.279
		c-1.464,1.744-5.209,2.289-5.631,2.346C2.588,22.497,2.544,22.5,2.5,22.5z M5.904,16.987c-0.278,0-0.547,0.098-0.759,0.276
		c0,0.001-0.001,0.002-0.002,0.002c-0.607,0.51-1.084,1.796-1.377,2.969c1.173-0.293,2.458-0.771,2.969-1.378
		c0.389-0.46,0.376-1.157-0.027-1.555c-0.198-0.189-0.475-0.305-0.766-0.313C5.929,16.987,5.917,16.987,5.904,16.987z M4.5,16.5
		h0.01H4.5z M12,21c-0.232,0-0.459-0.081-0.641-0.232C11.131,20.577,11,20.297,11,20v-4.586L8.586,13H4
		c-0.296,0-0.578-0.131-0.768-0.359c-0.19-0.228-0.269-0.528-0.216-0.82C3.08,11.469,3.692,8.34,5.444,7.169
		c1.512-1.009,3.937-0.612,5.152-0.316c1.206-1.701,2.796-3.124,4.634-4.135C17.301,1.58,19.653,1,22.006,1
		C22.556,1.003,23,1.45,23,2c0,2.703-0.777,7.691-5.85,11.414c0.294,1.218,0.687,3.633-0.318,5.141
		c-1.172,1.753-4.301,2.365-4.653,2.43C12.119,20.995,12.06,21,12,21z M13,15.679v3.03c0.88-0.289,1.812-0.731,2.169-1.265
		c0.415-0.623,0.353-1.862,0.174-2.895C14.584,14.969,13.801,15.346,13,15.679z M10.175,11.761l2.067,2.067
		c1.114-0.463,2.189-1.02,3.205-1.661c0.005-0.003,0.01-0.006,0.015-0.01c4.061-2.73,5.275-6.298,5.498-9.118
		c-1.666,0.136-3.296,0.623-4.765,1.431c-1.771,0.975-3.275,2.396-4.347,4.11C11.199,9.593,10.639,10.659,10.175,11.761z M5.291,11
		h3.034c0.336-0.799,0.718-1.581,1.143-2.338c-1.038-0.18-2.29-0.247-2.913,0.17C6.021,9.188,5.58,10.12,5.291,11z"/>
</g>
</svg>
