<?xml version="1.0" encoding="iso-8859-1"?>
<!-- Generator: Adobe Illustrator 27.4.0, SVG Export Plug-In . SVG Version: 6.00 Build 0)  -->
<svg version="1.1" id="Layer_1" xmlns="http://www.w3.org/2000/svg" xmlns:xlink="http://www.w3.org/1999/xlink" x="0px" y="0px"
	 viewBox="0 0 24 24" style="enable-background:new 0 0 24 24;" xml:space="preserve">
<g>
	<path d="M12.4,23h-0.8c-0.651,0-1.081,0-1.51-0.219c-0.377-0.192-0.679-0.494-0.872-0.873C9,21.48,9,21.051,9,20.4V16.6
		c0-0.65,0-1.08,0.218-1.508c0.193-0.379,0.496-0.681,0.875-0.874c0.28-0.143,0.562-0.192,0.908-0.209
		c0.001-1.118,0.017-1.762,0.327-2.37c0.29-0.569,0.743-1.022,1.311-1.312C13.279,10,13.962,10,15.2,10h3.6
		c0.867,0,1.44,0,1.654-0.109c0.188-0.096,0.341-0.248,0.438-0.438C21,9.24,21,8.667,21,7.8V7.5c0-0.722,0-1.199-0.076-1.382
		c-0.103-0.248-0.295-0.44-0.541-0.542c-0.083-0.035-0.228-0.053-0.427-0.064c-0.004,0.024-0.009,0.047-0.013,0.071
		c-0.239,1.196-1.164,2.121-2.357,2.359C17.296,8,17.014,8,16.5,8h-11C4.987,8,4.705,8,4.414,7.942
		C3.22,7.705,2.295,6.78,2.058,5.585C2,5.295,2,5.013,2,4.5s0-0.795,0.058-1.086C2.295,2.22,3.22,1.295,4.415,1.058
		C4.705,1,4.987,1,5.5,1h11c0.514,0,0.796,0,1.086,0.058c1.193,0.237,2.118,1.162,2.356,2.356c0.007,0.032,0.013,0.064,0.018,0.096
		c0.479,0.02,0.837,0.072,1.188,0.218c0.74,0.307,1.316,0.883,1.623,1.624C23,5.903,23,6.47,23,7.5v0.3c0,1.238,0,1.92-0.326,2.562
		c-0.292,0.57-0.744,1.022-1.311,1.312C20.721,12,20.038,12,18.8,12h-3.6c-0.867,0-1.44,0-1.654,0.109
		c-0.187,0.095-0.342,0.25-0.438,0.438c-0.101,0.197-0.107,0.702-0.108,1.462c0.346,0.017,0.628,0.066,0.909,0.21
		c0.378,0.191,0.681,0.494,0.873,0.874C15,15.519,15,15.949,15,16.6V20.4c0,0.65,0,1.081-0.219,1.509
		c-0.191,0.378-0.494,0.681-0.874,0.873C13.481,23,13.051,23,12.4,23z M11.6,16c-0.278,0-0.566,0-0.648,0.02
		C11,16.033,11,16.321,11,16.6V20.4c0,0.278,0,0.566,0.02,0.648C11.034,21,11.322,21,11.6,21h0.8c0.278,0,0.566,0,0.648-0.02
		C13,20.966,13,20.679,13,20.4V16.6c0-0.278,0-0.565-0.02-0.647C12.966,16,12.678,16,12.4,16H11.6z M5.5,3
		C5.14,3,4.902,3,4.806,3.019C4.407,3.099,4.099,3.407,4.02,3.805C4,3.902,4,4.14,4,4.5s0,0.598,0.019,0.694
		c0.08,0.399,0.388,0.707,0.786,0.786C4.902,6,5.14,6,5.5,6h11c0.36,0,0.599,0,0.695-0.019c0.398-0.08,0.706-0.388,0.786-0.786
		C18,5.099,18,4.861,18,4.5s0-0.599-0.02-0.697c-0.079-0.396-0.387-0.705-0.785-0.784C17.099,3,16.86,3,16.5,3H5.5z"/>
</g>
</svg>
