<svg width="43" height="33" viewBox="0 0 43 33" fill="none" xmlns="http://www.w3.org/2000/svg">
<path d="M40.0586 25.5526H3.36017V2.11237C3.36017 1.19078 4.10681 0.444336 5.02841 0.444336H38.3904C39.3112 0.444336 40.0586 1.19078 40.0586 2.11237V25.5526Z" fill="#D0D5DD"/>
<path fill-rule="evenodd" clip-rule="evenodd" d="M32.969 22.5475V20.0453C32.969 18.2029 34.4629 16.7091 36.3053 16.7091C38.1475 16.7091 39.6414 18.2029 39.6414 20.0453V22.5475C39.6414 23.0077 40.0151 23.3814 40.4755 23.3814C40.9357 23.3814 41.3096 23.0077 41.3094 22.5475V20.0453C41.3094 17.2819 39.0687 15.041 36.3053 15.041C33.5417 15.041 31.3008 17.2819 31.3008 20.0453V22.5475C31.301 23.0077 31.6747 23.3814 32.1349 23.3814C32.5953 23.3814 32.969 23.0077 32.969 22.5475Z" fill="#6D88FF"/>
<path d="M30.8514 28.8022H4.19346C2.35027 28.8022 0.857178 27.3091 0.857178 25.4659V23.7979H17.5384C17.5384 24.7152 18.289 25.4659 19.2064 25.4659H24.2107C25.1281 25.4659 25.8788 24.7152 25.8788 23.7979H30.4661L30.8514 28.8022Z" fill="#667085"/>
<path d="M30.8514 27.1339H4.19346C2.35027 27.1339 0.857178 25.641 0.857178 23.7979H17.5384C17.5384 24.7152 18.289 25.4659 19.2064 25.4659H24.2107C25.1281 25.4659 25.8788 24.7152 25.8788 23.7979H30.4661L30.8514 27.1339Z" fill="#475467"/>
<path fill-rule="evenodd" clip-rule="evenodd" d="M24.2112 9.61837C24.2112 8.23738 23.0901 7.11621 21.7091 7.11621C20.3281 7.11621 19.2069 8.23738 19.2069 9.61837C19.2069 10.9994 20.3281 12.1205 21.7091 12.1205C23.0901 12.1205 24.2112 10.9994 24.2112 9.61837Z" fill="#6D88FF"/>
<path d="M26.7135 17.1254H16.7048C16.7048 14.3614 18.9452 12.1211 21.7092 12.1211C24.4731 12.1211 26.7135 14.3614 26.7135 17.1254Z" fill="#6D88FF"/>
<path d="M36.3047 32.5555C33.0801 32.5555 30.4662 29.9415 30.4662 26.7171V22.5469H42.1429V26.7171C42.1429 29.9415 39.5291 32.5555 36.3047 32.5555Z" fill="#6D88FF"/>
<path d="M40.415 22.5469V25.8942C40.415 29.1185 37.8012 31.7324 34.5768 31.7324C34.0183 31.7324 33.478 31.6541 32.9664 31.5076C31.4549 30.4523 30.4662 28.7002 30.4662 26.7171V22.5469H40.415Z" fill="#6D88FF"/>
<path fill-rule="evenodd" clip-rule="evenodd" d="M37.5564 25.4649C37.5564 24.7746 36.9957 24.2139 36.3053 24.2139C35.6147 24.2139 35.0542 24.7746 35.0542 25.4649C35.0542 26.1553 35.6147 26.716 36.3053 26.716C36.9957 26.716 37.5564 26.1553 37.5564 25.4649ZM35.8881 25.4649C35.8881 25.2347 36.0751 25.048 36.3053 25.048C36.5353 25.048 36.7222 25.2347 36.7222 25.4649C36.7222 25.6951 36.5353 25.8819 36.3053 25.8819C36.0751 25.8819 35.8881 25.6951 35.8881 25.4649Z" fill="#475467"/>
<path fill-rule="evenodd" clip-rule="evenodd" d="M35.4702 25.048V28.3841C35.4702 28.8445 35.8439 29.2182 36.3041 29.2182C36.7645 29.2182 37.1383 28.8445 37.1383 28.3841V25.048C37.1383 24.5876 36.7645 24.2139 36.3041 24.2139C35.8439 24.2139 35.4702 24.5876 35.4702 25.048Z" fill="#475467"/>
</svg>
