<?xml version="1.0" encoding="iso-8859-1"?>
<!-- Generator: Adobe Illustrator 27.4.0, SVG Export Plug-In . SVG Version: 6.00 Build 0)  -->
<svg version="1.1" id="Layer_1" xmlns="http://www.w3.org/2000/svg" xmlns:xlink="http://www.w3.org/1999/xlink" x="0px" y="0px"
	 viewBox="0 0 24 24" style="enable-background:new 0 0 24 24;" xml:space="preserve">
<g>
	<path d="M19,23c-2.206,0-4-1.794-4-4s1.794-4,4-4s4,1.794,4,4S21.206,23,19,23z M19,17c-1.103,0-2,0.897-2,2s0.897,2,2,2
		s2-0.897,2-2S20.103,17,19,17z M12.5,20.5h-0.935c-3.514,0-4.969,0-5.836-0.82c-0.755-0.716-1.084-1.75-0.88-2.769
		c0.233-1.17,1.421-2.01,4.289-4.039l4.067-2.876c1.728-1.222,3.359-2.376,3.485-2.804c0.066-0.335-0.043-0.681-0.294-0.918
		C16.051,6,14.052,6,11.935,6H11.5c-0.552,0-1-0.448-1-1s0.448-1,1-1h0.435c3.514,0,4.968,0,5.836,0.821
		c0.755,0.714,1.084,1.748,0.88,2.767c-0.234,1.172-1.422,2.012-4.291,4.041l-4.064,2.875c-1.729,1.223-3.359,2.376-3.486,2.804
		c-0.067,0.336,0.043,0.681,0.294,0.92C7.45,18.5,9.449,18.5,11.565,18.5H12.5c0.553,0,1,0.447,1,1S13.053,20.5,12.5,20.5z M5,9
		C2.794,9,1,7.206,1,5s1.794-4,4-4s4,1.794,4,4S7.206,9,5,9z M5,3C3.897,3,3,3.897,3,5s0.897,2,2,2s2-0.897,2-2S6.103,3,5,3z"/>
</g>
</svg>
