<?xml version="1.0" encoding="iso-8859-1"?>
<!-- Generator: Adobe Illustrator 27.4.0, SVG Export Plug-In . SVG Version: 6.00 Build 0)  -->
<svg version="1.1" id="Layer_1" xmlns="http://www.w3.org/2000/svg" xmlns:xlink="http://www.w3.org/1999/xlink" x="0px" y="0px"
	 viewBox="0 0 24 24" style="enable-background:new 0 0 24 24;" xml:space="preserve">
<g>
	<path d="M10.979,22c-0.05,0-0.1-0.004-0.15-0.011c-0.546-0.082-0.922-0.592-0.84-1.138c0.328-2.187-0.194-4.094-1.472-5.371
		c-1.277-1.275-3.185-1.799-5.368-1.469c-0.546,0.07-1.056-0.294-1.138-0.841c-0.082-0.546,0.294-1.055,0.84-1.137
		c2.83-0.427,5.344,0.296,7.08,2.033c1.737,1.736,2.46,4.252,2.035,7.082C11.892,21.645,11.465,22,10.979,22z M15.963,22
		c-0.032,0-0.065-0.002-0.099-0.005c-0.55-0.054-0.951-0.543-0.897-1.093c0.348-3.536-0.69-6.713-2.923-8.945
		C9.811,9.725,6.635,8.685,3.098,9.033C2.545,9.097,2.059,8.685,2.005,8.135c-0.054-0.55,0.348-1.039,0.897-1.093
		c4.144-0.409,7.892,0.837,10.556,3.5c2.664,2.664,3.906,6.412,3.499,10.555C16.906,21.614,16.472,22,15.963,22z M20.949,22
		c-0.024,0-0.049-0.001-0.073-0.003c-0.551-0.04-0.965-0.519-0.925-1.069c0.354-4.877-1.202-9.315-4.383-12.496
		C12.388,5.25,7.948,3.693,3.073,4.05c-0.559,0.031-1.03-0.374-1.07-0.925c-0.04-0.551,0.374-1.03,0.925-1.07
		c5.472-0.394,10.457,1.365,14.055,4.962c3.599,3.599,5.361,8.59,4.963,14.055C21.907,21.599,21.469,22,20.949,22z M5,22
		c-1.654,0-3-1.346-3-3s1.346-3,3-3s3,1.346,3,3S6.654,22,5,22z M5,18c-0.551,0-1,0.448-1,1s0.449,1,1,1s1-0.448,1-1S5.551,18,5,18z
		"/>
</g>
</svg>
