<?xml version="1.0" encoding="iso-8859-1"?>
<!-- Generator: Adobe Illustrator 27.4.0, SVG Export Plug-In . SVG Version: 6.00 Build 0)  -->
<svg version="1.1" id="Layer_1" xmlns="http://www.w3.org/2000/svg" xmlns:xlink="http://www.w3.org/1999/xlink" x="0px" y="0px"
	 viewBox="0 0 24 24" style="enable-background:new 0 0 24 24;" xml:space="preserve">
<g>
	<path d="M20,21c-0.553,0-1-0.447-1-1c0-4.007-1.561-7.773-4.394-10.606S8.007,5,4,5C3.448,5,3,4.552,3,4s0.448-1,1-1
		c4.541,0,8.81,1.769,12.021,4.979C19.231,11.19,21,15.459,21,20C21,20.553,20.553,21,20,21z M13,21c-0.552,0-1-0.447-1-1
		c0-2.137-0.832-4.146-2.343-5.657C8.146,12.832,6.137,12,4,12c-0.552,0-1-0.448-1-1s0.448-1,1-1c2.671,0,5.182,1.04,7.071,2.929
		C12.96,14.818,14,17.329,14,20C14,20.553,13.553,21,13,21z M5,21c-1.103,0-2-0.897-2-2s0.897-2,2-2s2,0.897,2,2S6.103,21,5,21z
		 M5,18.999L5,18.999L5,18.999z"/>
</g>
</svg>
