<?xml version="1.0" encoding="iso-8859-1"?>
<!-- Generator: Adobe Illustrator 27.4.0, SVG Export Plug-In . SVG Version: 6.00 Build 0)  -->
<svg version="1.1" id="Layer_1" xmlns="http://www.w3.org/2000/svg" xmlns:xlink="http://www.w3.org/1999/xlink" x="0px" y="0px"
	 viewBox="0 0 24 24" style="enable-background:new 0 0 24 24;" xml:space="preserve">
<g>
	<path d="M7,22.793c-0.155,0-0.31-0.024-0.46-0.072c-0.342-0.111-0.556-0.324-0.803-0.57l-3.878-3.878c0,0,0-0.001-0.001-0.001
		l0.708-0.706l-0.713,0.701c-0.248-0.248-0.461-0.463-0.572-0.804c-0.098-0.3-0.097-0.63,0.001-0.93
		c0.111-0.341,0.327-0.557,0.578-0.807L15.728,1.858c0.249-0.25,0.465-0.466,0.81-0.578c0.303-0.099,0.622-0.099,0.927,0
		c0.344,0.112,0.56,0.328,0.81,0.579l3.868,3.868c0.255,0.256,0.467,0.469,0.578,0.808c0.098,0.306,0.098,0.625,0.001,0.926
		c-0.111,0.343-0.325,0.557-0.572,0.805L8.272,22.142c-0.254,0.254-0.468,0.468-0.809,0.578C7.311,22.769,7.155,22.793,7,22.793z
		 M3.414,17L7,20.586L20.586,7L17,3.414L15.414,5l1.293,1.293c0.391,0.391,0.391,1.023,0,1.414s-1.023,0.391-1.414,0L14,6.414
		L12.414,8l1.293,1.293c0.391,0.391,0.391,1.023,0,1.414s-1.023,0.391-1.414,0L11,9.414L9.414,11l1.293,1.293
		c0.391,0.391,0.391,1.023,0,1.414s-1.023,0.391-1.414,0L8,12.414L6.414,14l1.293,1.293c0.391,0.391,0.391,1.023,0,1.414
		s-1.023,0.391-1.414,0L5,15.414L3.414,17z M3.201,16.922l-0.635,0.644l0.637-0.637C3.202,16.927,3.201,16.924,3.201,16.922z"/>
</g>
</svg>
