<?xml version="1.0" encoding="iso-8859-1"?>
<!-- Generator: Adobe Illustrator 27.4.0, SVG Export Plug-In . SVG Version: 6.00 Build 0)  -->
<svg version="1.1" id="Layer_1" xmlns="http://www.w3.org/2000/svg" xmlns:xlink="http://www.w3.org/1999/xlink" x="0px" y="0px"
	 viewBox="0 0 24 24" style="enable-background:new 0 0 24 24;" xml:space="preserve">
<g>
	<path d="M18,22h-3c-0.553,0-1-0.447-1-1s0.447-1,1-1h3c0.553,0,1,0.447,1,1S18.553,22,18,22z M9,22H6c-0.552,0-1-0.447-1-1
		s0.448-1,1-1h3c0.552,0,1,0.447,1,1S9.552,22,9,22z M17.8,19H6.2c-1.238,0-1.92,0-2.562-0.326c-0.57-0.292-1.022-0.744-1.312-1.311
		C2,16.721,2,16.038,2,14.8V6.2c0-1.238,0-1.92,0.327-2.562C2.617,3.07,3.07,2.617,3.637,2.327C4.28,2,4.962,2,6.2,2h11.6
		c1.238,0,1.921,0,2.562,0.327c0.567,0.29,1.02,0.742,1.311,1.31C22,4.28,22,4.962,22,6.2v8.6c0,1.238,0,1.921-0.326,2.562
		c-0.291,0.567-0.744,1.021-1.311,1.311C19.721,19,19.038,19,17.8,19z M6.2,4C5.333,4,4.76,4,4.545,4.109
		c-0.186,0.095-0.341,0.25-0.437,0.438C4,4.76,4,5.333,4,6.2v8.6c0,0.867,0,1.44,0.109,1.654c0.096,0.188,0.248,0.341,0.438,0.438
		C4.76,17,5.333,17,6.2,17h11.6c0.867,0,1.44,0,1.654-0.109c0.188-0.096,0.341-0.248,0.438-0.438C20,16.24,20,15.667,20,14.8V6.2
		c0-0.868,0-1.44-0.109-1.655c-0.096-0.188-0.248-0.34-0.438-0.437C19.24,4,18.667,4,17.8,4H6.2z M17.5,15.5c-0.553,0-1-0.447-1-1
		v-8c0-0.552,0.447-1,1-1s1,0.448,1,1v8C18.5,15.053,18.053,15.5,17.5,15.5z M9,14c-1.93,0-3.5-1.57-3.5-3.5S7.07,7,9,7
		s3.5,1.57,3.5,3.5S10.93,14,9,14z M9,9c-0.827,0-1.5,0.673-1.5,1.5S8.173,12,9,12s1.5-0.673,1.5-1.5S9.827,9,9,9z"/>
</g>
</svg>
