<?xml version="1.0" encoding="iso-8859-1"?>
<!-- Generator: Adobe Illustrator 27.4.0, SVG Export Plug-In . SVG Version: 6.00 Build 0)  -->
<svg version="1.1" id="Layer_1" xmlns="http://www.w3.org/2000/svg" xmlns:xlink="http://www.w3.org/1999/xlink" x="0px" y="0px"
	 viewBox="0 0 24 24" style="enable-background:new 0 0 24 24;" xml:space="preserve">
<g>
	<path d="M8.7,23.002c-0.393,0-0.786-0.077-1.16-0.232c-0.749-0.312-1.331-0.894-1.641-1.641l-0.723-1.745
		c-0.104-0.252-0.307-0.456-0.558-0.56l-1.745-0.724c-0.747-0.31-1.33-0.892-1.641-1.639c-0.311-0.75-0.311-1.574-0.001-2.321
		l0.722-1.745c0.105-0.254,0.104-0.535-0.001-0.79L1.23,9.858C1.078,9.489,1,9.099,1,8.699c0-0.4,0.078-0.791,0.231-1.161
		c0.153-0.37,0.374-0.701,0.658-0.984C2.17,6.271,2.501,6.05,2.873,5.896l1.744-0.723C4.868,5.07,5.072,4.867,5.176,4.616
		l0.723-1.744C6.204,2.135,6.802,1.536,7.54,1.231c0.748-0.311,1.572-0.311,2.321,0l1.743,0.722c0.254,0.105,0.536,0.105,0.79-0.001
		l1.749-0.721c0.746-0.31,1.569-0.309,2.317,0c0.749,0.31,1.331,0.893,1.643,1.64l0.703,1.7c0.007,0.015,0.014,0.029,0.02,0.044
		c0.105,0.255,0.304,0.454,0.558,0.559l1.745,0.723c0.748,0.31,1.33,0.893,1.642,1.64c0.306,0.739,0.306,1.585,0,2.322l-0.723,1.744
		c-0.106,0.255-0.105,0.535,0,0.789l0.722,1.747C22.922,14.509,23,14.899,23,15.3s-0.078,0.791-0.231,1.162
		c-0.15,0.364-0.371,0.696-0.655,0.981c-0.287,0.286-0.617,0.506-0.985,0.659l-1.745,0.723c-0.256,0.105-0.454,0.304-0.56,0.559
		l-0.723,1.744c-0.31,0.748-0.893,1.331-1.642,1.641c-0.747,0.311-1.572,0.31-2.321,0l-1.743-0.722c-0.25-0.104-0.539-0.103-0.789,0
		L9.859,22.77C9.485,22.925,9.092,23.002,8.7,23.002z M8.7,3C8.566,3,8.433,3.026,8.306,3.079C8.054,3.183,7.85,3.386,7.746,3.637
		L7.023,5.383c-0.311,0.749-0.894,1.33-1.642,1.639L3.638,7.744C3.511,7.797,3.399,7.872,3.304,7.967
		c-0.098,0.098-0.173,0.21-0.225,0.336C3.026,8.429,3,8.562,3,8.699s0.026,0.269,0.079,0.396l0.722,1.747
		c0.309,0.746,0.31,1.57,0.001,2.319l-0.723,1.745c-0.105,0.254-0.105,0.535,0,0.791c0.104,0.249,0.308,0.452,0.559,0.557
		l1.746,0.724c0.737,0.306,1.335,0.904,1.64,1.643l0.723,1.744c0.105,0.254,0.304,0.453,0.56,0.56
		c0.252,0.104,0.533,0.104,0.788-0.001L10.84,20.2c0.746-0.312,1.571-0.312,2.319-0.001l1.745,0.722
		c0.256,0.105,0.535,0.105,0.789,0c0.256-0.105,0.454-0.304,0.56-0.558l0.723-1.746c0.312-0.75,0.896-1.332,1.644-1.641l1.742-0.722
		c0.126-0.053,0.24-0.128,0.338-0.226c0.094-0.095,0.17-0.208,0.221-0.331C20.974,15.568,21,15.436,21,15.3
		s-0.026-0.269-0.079-0.395L20.2,13.16c-0.308-0.735-0.308-1.583-0.001-2.322l0.723-1.743c0.104-0.251,0.104-0.54,0-0.791
		c-0.105-0.254-0.305-0.453-0.56-0.559l-1.745-0.723c-0.729-0.302-1.3-0.864-1.615-1.585c-0.009-0.018-0.017-0.035-0.024-0.054
		l-0.723-1.746c-0.105-0.254-0.305-0.453-0.56-0.559c-0.254-0.105-0.534-0.105-0.79,0L13.158,3.8c-0.745,0.311-1.57,0.311-2.319,0
		L9.095,3.079C8.968,3.026,8.834,3,8.7,3z M8,17c-0.256,0-0.512-0.098-0.707-0.293c-0.391-0.391-0.391-1.023,0-1.414l8-8
		c0.391-0.391,1.023-0.391,1.414,0s0.391,1.023,0,1.414l-8,8C8.512,16.902,8.256,17,8,17z M15,16.5c-0.827,0-1.5-0.673-1.5-1.5
		s0.673-1.5,1.5-1.5s1.5,0.673,1.5,1.5S15.827,16.5,15,16.5z M9,10.5c-0.827,0-1.5-0.673-1.5-1.5S8.173,7.5,9,7.5s1.5,0.673,1.5,1.5
		S9.827,10.5,9,10.5z"/>
</g>
</svg>
