<?xml version="1.0" encoding="iso-8859-1"?>
<!-- Generator: Adobe Illustrator 27.4.0, SVG Export Plug-In . SVG Version: 6.00 Build 0)  -->
<svg version="1.1" id="Layer_1" xmlns="http://www.w3.org/2000/svg" xmlns:xlink="http://www.w3.org/1999/xlink" x="0px" y="0px"
	 viewBox="0 0 24 24" style="enable-background:new 0 0 24 24;" xml:space="preserve">
<g>
	<path d="M17,22c-0.251-0.002-0.513,0-0.8,0H7.8c-0.288,0-0.548-0.005-0.8,0c-0.022,0-0.044-0.001-0.066-0.002
		c-1.285-0.011-2.04-0.072-2.75-0.435c-0.757-0.385-1.362-0.989-1.748-1.747C2,18.96,2,18.037,2,16.2V7.8
		c0-1.838,0-2.76,0.436-3.616c0.386-0.757,0.991-1.362,1.748-1.748c0.709-0.361,1.464-0.423,2.75-0.434
		c0.039-0.001,0.08-0.003,0.119,0C7.284,2,7.532,2,7.8,2h6.875c0.531,0,0.852,0,1.196,0.083c0.311,0.075,0.602,0.196,0.869,0.36
		c0.305,0.187,0.53,0.414,0.905,0.788l3.124,3.125c0.384,0.384,0.606,0.607,0.789,0.907c0.165,0.27,0.285,0.562,0.358,0.866
		C22,8.473,22,8.794,22,9.326V16.2c0,1.837,0,2.76-0.436,3.616c-0.386,0.758-0.99,1.362-1.749,1.748
		c-0.709,0.361-1.465,0.423-2.749,0.434C17.045,21.999,17.022,22,17,22z M8,20h8v-5.4c0-0.278,0-0.565-0.02-0.647
		C15.966,14,15.679,14,15.4,14H8.6c-0.278,0-0.566,0-0.648,0.02C8,14.033,8,14.321,8,14.6V20z M8.6,12h6.8
		c0.65,0,1.081,0,1.509,0.219c0.378,0.191,0.681,0.494,0.873,0.874C18,13.519,18,13.949,18,14.6v5.369
		c0.41-0.028,0.703-0.083,0.908-0.188c0.379-0.192,0.681-0.494,0.873-0.872C20,18.479,20,17.67,20,16.2V9.326
		c0-0.383,0-0.615-0.027-0.729c-0.025-0.104-0.065-0.201-0.121-0.292c-0.06-0.097-0.218-0.256-0.481-0.52l-3.14-3.14
		c-0.285-0.285-0.438-0.437-0.537-0.498c-0.089-0.055-0.186-0.095-0.29-0.12C15.29,4,15.059,4,14.675,4H8v2.4
		c0,0.279,0,0.567,0.02,0.649C8.033,7,8.321,7,8.6,7H15c0.553,0,1,0.448,1,1s-0.447,1-1,1H8.6C7.95,9,7.52,9,7.092,8.782
		C6.713,8.588,6.412,8.287,6.219,7.91C6,7.48,6,7.05,6,6.4V4.031C5.589,4.059,5.297,4.114,5.092,4.218
		C4.713,4.411,4.411,4.713,4.218,5.092C4,5.52,4,6.33,4,7.8v8.4c0,1.47,0,2.279,0.218,2.708c0.193,0.379,0.495,0.681,0.873,0.873
		C5.297,19.886,5.589,19.94,6,19.969V14.6c0-0.65,0-1.08,0.218-1.508c0.193-0.379,0.496-0.681,0.875-0.874C7.519,12,7.949,12,8.6,12
		z"/>
</g>
</svg>
