<?xml version="1.0" encoding="iso-8859-1"?>
<!-- Generator: Adobe Illustrator 27.4.0, SVG Export Plug-In . SVG Version: 6.00 Build 0)  -->
<svg version="1.1" id="Layer_1" xmlns="http://www.w3.org/2000/svg" xmlns:xlink="http://www.w3.org/1999/xlink" x="0px" y="0px"
	 viewBox="0 0 24 24" style="enable-background:new 0 0 24 24;" xml:space="preserve">
<g>
	<path d="M14.3,22H6.2c-1.238,0-1.92,0-2.562-0.326c-0.57-0.292-1.022-0.744-1.312-1.311C2,19.721,2,19.038,2,17.8V9.7
		c0-1.238,0-1.92,0.327-2.562C2.617,6.57,3.07,6.117,3.637,5.827C4.28,5.5,4.962,5.5,6.2,5.5h7.637c0.293,0,0.486,0,0.717,0.056
		c0.202,0.048,0.396,0.128,0.574,0.238c0.204,0.125,0.341,0.261,0.548,0.468l2.062,2.062c0.207,0.207,0.344,0.344,0.468,0.545
		c0.109,0.18,0.19,0.375,0.239,0.579C18.5,9.679,18.5,9.871,18.5,10.163V17.8c0,1.238,0,1.921-0.326,2.562
		c-0.291,0.567-0.744,1.021-1.311,1.311C16.221,22,15.538,22,14.3,22z M8,20h4.5v-3.4c0-0.278,0-0.565-0.02-0.647
		C12.466,16,12.178,16,11.9,16H8.6c-0.278,0-0.566,0-0.648,0.02C8,16.033,8,16.321,8,16.6V20z M6,7.5
		c-0.756,0-1.257,0.009-1.455,0.109c-0.186,0.095-0.341,0.25-0.437,0.438C4,8.26,4,8.833,4,9.7v8.1c0,0.867,0,1.44,0.109,1.654
		c0.096,0.188,0.248,0.341,0.438,0.438C4.743,19.991,5.244,19.999,6,20v-3.4c0-0.65,0-1.08,0.218-1.508
		c0.193-0.379,0.496-0.681,0.875-0.874C7.519,14,7.949,14,8.6,14h3.3c0.651,0,1.081,0,1.509,0.219
		c0.378,0.191,0.681,0.494,0.873,0.874C14.5,15.519,14.5,15.949,14.5,16.6V20c0.756-0.001,1.258-0.009,1.454-0.109
		c0.188-0.096,0.341-0.248,0.438-0.438C16.5,19.24,16.5,18.667,16.5,17.8v-7.637c0-0.126,0.004-0.206-0.004-0.271
		c-0.024-0.011-0.083-0.064-0.172-0.153l-2.062-2.062c-0.089-0.088-0.143-0.147-0.194-0.188C14.042,7.497,13.962,7.5,13.837,7.5H8
		v0.9c0,0.279,0,0.567,0.02,0.649C8.033,9,8.321,9,8.6,9h3.9c0.553,0,1,0.448,1,1s-0.447,1-1,1H8.6c-0.65,0-1.08,0-1.508-0.218
		c-0.379-0.194-0.681-0.495-0.874-0.873C6,9.48,6,9.05,6,8.4V7.5z M21,18c-0.553,0-1-0.447-1-1V9.326c0-0.383,0-0.615-0.027-0.729
		c-0.025-0.104-0.065-0.201-0.121-0.292c-0.06-0.097-0.218-0.256-0.481-0.52l-3.14-3.14c-0.285-0.285-0.438-0.437-0.537-0.498
		c-0.089-0.055-0.186-0.095-0.29-0.12C15.29,4,15.059,4,14.675,4H7C6.448,4,6,3.552,6,3s0.448-1,1-1h7.675
		c0.531,0,0.852,0,1.196,0.083c0.311,0.075,0.602,0.196,0.869,0.36c0.305,0.187,0.53,0.414,0.905,0.788l3.124,3.125
		c0.384,0.384,0.606,0.607,0.789,0.907c0.165,0.27,0.285,0.562,0.358,0.866C22,8.473,22,8.794,22,9.326V17
		C22,17.553,21.553,18,21,18z"/>
</g>
</svg>
