<?xml version="1.0" encoding="iso-8859-1"?>
<!-- Generator: Adobe Illustrator 27.4.0, SVG Export Plug-In . SVG Version: 6.00 Build 0)  -->
<svg version="1.1" id="Layer_1" xmlns="http://www.w3.org/2000/svg" xmlns:xlink="http://www.w3.org/1999/xlink" x="0px" y="0px"
	 viewBox="0 0 24 24" style="enable-background:new 0 0 24 24;" xml:space="preserve">
<g>
	<path d="M16.2,22H7.8c-1.838,0-2.76,0-3.616-0.437c-0.757-0.385-1.362-0.989-1.748-1.747C2,18.96,2,18.037,2,16.2V7.8
		c0-1.838,0-2.76,0.436-3.616c0.386-0.757,0.991-1.362,1.748-1.748C5.04,2,5.962,2,7.8,2h8.4c1.837,0,2.76,0,3.616,0.436
		c0.758,0.386,1.362,0.991,1.748,1.749C22,5.04,22,5.962,22,7.8v8.4c0,1.837,0,2.76-0.436,3.616
		c-0.386,0.758-0.99,1.362-1.749,1.748C18.96,22,18.037,22,16.2,22z M7.8,4C6.33,4,5.52,4,5.092,4.218
		C4.713,4.411,4.411,4.713,4.218,5.092C4,5.52,4,6.33,4,7.8v8.4c0,1.47,0,2.279,0.218,2.708c0.193,0.379,0.495,0.681,0.873,0.873
		C5.52,20,6.33,20,7.8,20h8.4c1.47,0,2.279,0,2.708-0.219c0.379-0.192,0.681-0.494,0.873-0.872C20,18.479,20,17.67,20,16.2v-3.377
		C19.45,13,18.81,13,17.8,13h-2.6c-1.194,0-1.871,0-2.493-0.293L9.414,16H12c0.552,0,1,0.447,1,1s-0.448,1-1,1H7
		c-0.001,0-0.002,0-0.003,0l0,0c-0.134,0-0.262-0.027-0.378-0.075c-0.119-0.049-0.23-0.121-0.326-0.218S6.124,17.5,6.075,17.381
		C6.027,17.265,6,17.137,6,17.003l0,0C6,17.002,6,17.001,6,17v-5c0-0.552,0.448-1,1-1s1,0.448,1,1v2.586l3.293-3.293
		C11,10.669,11,9.993,11,8.8V6.2c0-1.01,0-1.65,0.177-2.2H7.8z M15.2,4c-0.867,0-1.44,0-1.654,0.109
		c-0.187,0.095-0.342,0.25-0.438,0.438C13,4.76,13,5.333,13,6.2v2.6c0,0.868,0,1.44,0.109,1.655c0.095,0.186,0.25,0.341,0.438,0.437
		C13.76,11,14.333,11,15.2,11h2.6c0.867,0,1.44,0,1.654-0.109c0.188-0.096,0.341-0.248,0.438-0.438C20,10.24,20,9.667,20,8.8v-1
		c0-1.47,0-2.28-0.218-2.708c-0.193-0.379-0.495-0.681-0.874-0.874C18.479,4,17.67,4,16.2,4H15.2z"/>
</g>
</svg>
