<?xml version="1.0" encoding="iso-8859-1"?>
<!-- Generator: Adobe Illustrator 27.4.0, SVG Export Plug-In . SVG Version: 6.00 Build 0)  -->
<svg version="1.1" id="Layer_1" xmlns="http://www.w3.org/2000/svg" xmlns:xlink="http://www.w3.org/1999/xlink" x="0px" y="0px"
	 viewBox="0 0 24 24" style="enable-background:new 0 0 24 24;" xml:space="preserve">
<g>
	<path d="M6,22c-2.757,0-5-2.243-5-5v-0.2c0-0.074,0-0.146,0.001-0.217c0.003-0.229,0.013-0.375,0.035-0.519
		c0.032-0.204,0.085-0.405,0.159-0.599c0.068-0.18,0.158-0.35,0.344-0.676l3.584-6.271c0.045-0.083,0.104-0.161,0.173-0.229
		C5.335,8.25,5.377,8.215,5.421,8.184c0.074-0.053,0.156-0.095,0.244-0.126C5.729,8.035,5.793,8.019,5.858,8.01L11,7.153V3
		c0-0.552,0.448-1,1-1s1,0.448,1,1v3.819l4.812-0.802C17.875,6.006,17.937,6,17.999,6H18h0.001c0.028,0,0.056,0.001,0.084,0.003l0,0
		c0.001,0,0.002,0,0.003,0l0,0c0.002,0.001,0.003,0,0.003,0c0.001,0,0.001,0,0.002,0c0,0,0,0,0.001,0c0,0,0.002,0,0.004,0l0,0
		c0.001,0,0.001,0,0.002,0l0,0c0.023,0.002,0.046,0.005,0.069,0.009l0,0c0.004,0,0.006,0.001,0.006,0.001s0.001,0,0.002,0l0,0
		c0.002,0,0.003,0,0.005,0.001h0.001c0.001,0,0.001,0,0.001,0c0.001,0,0.001,0,0.002,0h0.001c0.001,0,0.001,0,0.002,0
		c0,0,0.001,0,0.003,0l0,0c0.001,0,0.002,0,0.002,0c0.003,0,0.003,0,0.003,0c0.001,0,0.001,0,0.001,0c0.001,0-0.007,0.002,0.003,0
		c0,0,0.001,0,0.002,0c0,0,0,0,0.001,0c0.001,0,0.002,0,0.002,0c0.001,0,0.002,0,0.002,0h0.001c0.001,0,0.001,0,0.002,0h0.001
		c0,0,0.001,0,0.002,0c-0.001,0,0.002,0,0.002,0c0.001,0,0.001,0,0.001,0c0.002,0,0.003,0.001,0.003,0c0.001,0,0.001,0,0.002,0
		c0,0-0.007,0.002,0.003,0c0,0,0.002,0,0.002,0c0.001,0,0.001,0,0.001,0c0.001,0,0.001,0,0.002,0c0,0,0,0,0.001,0
		c0,0,0.001,0,0.002,0c0,0,0.002,0,0.002,0c0.001,0,0.001,0,0.002,0c0,0,0.002,0,0.006,0.001l0,0
		c0.065,0.017,0.129,0.04,0.189,0.068c0.103,0.048,0.197,0.115,0.278,0.197c0.04,0.04,0.076,0.083,0.107,0.128
		c0.023,0.032,0.045,0.066,0.063,0.102l3.566,6.241c0.196,0.344,0.288,0.518,0.357,0.699c0.072,0.188,0.127,0.391,0.16,0.601
		c0.022,0.143,0.031,0.287,0.034,0.514C23,14.651,23,14.725,23,14.8V15c0,2.757-2.243,5-5,5s-5-2.243-5-5v-0.2
		c0-0.074,0-0.146,0.002-0.217c0.003-0.229,0.012-0.375,0.035-0.519c0.032-0.209,0.087-0.412,0.161-0.604
		c0.067-0.177,0.159-0.351,0.354-0.692l2.534-4.436l-3.904,0.651c-0.012,0.002-0.023,0.004-0.035,0.006L7.581,9.75l2.866,5.015
		c0.2,0.351,0.29,0.521,0.357,0.699c0.074,0.194,0.127,0.396,0.159,0.601c0.022,0.143,0.032,0.287,0.035,0.514
		C11,16.651,11,16.725,11,16.8V17C11,19.757,8.757,22,6,22z M3,17c0,1.654,1.346,3,3,3s3-1.346,3-3H3z M15,15c0,1.654,1.346,3,3,3
		s3-1.346,3-3H15z M3.723,15h4.555L6,11.015L3.723,15z M15.724,13h4.553L18,9.016L15.724,13z"/>
</g>
</svg>
