<?xml version="1.0" encoding="iso-8859-1"?>
<!-- Generator: Adobe Illustrator 27.4.0, SVG Export Plug-In . SVG Version: 6.00 Build 0)  -->
<svg version="1.1" id="Layer_1" xmlns="http://www.w3.org/2000/svg" xmlns:xlink="http://www.w3.org/1999/xlink" x="0px" y="0px"
	 viewBox="0 0 24 24" style="enable-background:new 0 0 24 24;" xml:space="preserve">
<g>
	<path d="M18,23c-0.553,0-1-0.447-1-1s0.447-1,1-1c0.814,0,1.263,0,1.517-0.068c0.688-0.185,1.23-0.727,1.415-1.414
		C21,19.263,21,18.814,21,18c0-0.553,0.447-1,1-1s1,0.447,1,1c0,1.017,0,1.526-0.137,2.036c-0.368,1.375-1.452,2.459-2.828,2.827
		C19.526,23,19.017,23,18,23z M14,23H6.8c-1.838,0-2.76,0-3.616-0.437c-0.757-0.385-1.362-0.989-1.748-1.747
		C1,19.96,1,19.037,1,17.2V10c0-0.552,0.448-1,1-1s1,0.448,1,1v1.536c0.061-0.035,0.122-0.068,0.184-0.1C4.04,11,4.962,11,6.8,11
		h0.4c1.838,0,2.76,0,3.616,0.436c0.758,0.386,1.362,0.991,1.748,1.748C13,14.04,13,14.963,13,16.8v0.4c0,1.837,0,2.76-0.436,3.616
		c-0.032,0.062-0.065,0.123-0.1,0.184H14c0.553,0,1,0.447,1,1S14.553,23,14,23z M6.8,21h0.4c1.47,0,2.28,0,2.708-0.218
		c0.379-0.193,0.681-0.495,0.874-0.874C11,19.479,11,18.67,11,17.2v-0.4c0-1.47,0-2.279-0.218-2.708
		c-0.193-0.379-0.495-0.681-0.874-0.874C9.48,13,8.67,13,7.2,13H6.8c-1.47,0-2.28,0-2.708,0.218
		c-0.379,0.193-0.681,0.495-0.874,0.874C3,14.521,3,15.33,3,16.8v0.4c0,1.47,0,2.279,0.218,2.708
		c0.193,0.379,0.495,0.681,0.873,0.873C4.52,21,5.33,21,6.8,21z M22,15c-0.553,0-1-0.447-1-1v-4c0-0.552,0.447-1,1-1s1,0.448,1,1v4
		C23,14.553,22.553,15,22,15z M22,7c-0.553,0-1-0.448-1-1c0-0.814,0-1.263-0.068-1.517c-0.185-0.689-0.727-1.231-1.414-1.416
		C19.264,3,18.814,3,18,3c-0.553,0-1-0.448-1-1s0.447-1,1-1c1.016,0,1.525,0,2.034,0.136c1.377,0.369,2.461,1.453,2.829,2.829
		C23,4.473,23,4.983,23,6C23,6.552,22.553,7,22,7z M2,7C1.448,7,1,6.552,1,6c0-1.017,0-1.526,0.136-2.035
		c0.369-1.376,1.453-2.46,2.829-2.829C4.474,1,4.983,1,6,1c0.552,0,1,0.448,1,1S6.552,3,6,3C5.185,3,4.736,3,4.482,3.068
		C3.794,3.252,3.252,3.794,3.068,4.482C3,4.736,3,5.185,3,6C3,6.552,2.552,7,2,7z M14,3h-4C9.448,3,9,2.552,9,2s0.448-1,1-1h4
		c0.553,0,1,0.448,1,1S14.553,3,14,3z"/>
</g>
</svg>
