<?xml version="1.0" encoding="iso-8859-1"?>
<!-- Generator: Adobe Illustrator 27.4.0, SVG Export Plug-In . SVG Version: 6.00 Build 0)  -->
<svg version="1.1" id="Layer_1" xmlns="http://www.w3.org/2000/svg" xmlns:xlink="http://www.w3.org/1999/xlink" x="0px" y="0px"
	 viewBox="0 0 24 24" style="enable-background:new 0 0 24 24;" xml:space="preserve">
<g>
	<path d="M16.2,22H16c-0.553,0-1-0.447-1-1s0.447-1,1-1h0.2c1.47,0,2.279,0,2.708-0.219c0.379-0.192,0.681-0.494,0.873-0.872
		C20,18.479,20,17.67,20,16.2V7.8c0-1.47,0-2.28-0.218-2.708c-0.193-0.379-0.495-0.681-0.874-0.874C18.479,4,17.67,4,16.2,4H7.8
		C6.33,4,5.52,4,5.092,4.218C4.713,4.411,4.411,4.713,4.218,5.092C4,5.52,4,6.33,4,7.8V8c0,0.552-0.448,1-1,1S2,8.552,2,8V7.8
		c0-1.838,0-2.76,0.436-3.616c0.386-0.757,0.991-1.362,1.748-1.748C5.04,2,5.962,2,7.8,2h8.4c1.837,0,2.76,0,3.616,0.436
		c0.758,0.386,1.362,0.991,1.748,1.749C22,5.04,22,5.962,22,7.8v8.4c0,1.837,0,2.76-0.436,3.616
		c-0.386,0.758-0.99,1.362-1.749,1.748C18.96,22,18.037,22,16.2,22z M8.8,22H6.2c-1.238,0-1.92,0-2.562-0.326
		c-0.57-0.292-1.022-0.744-1.312-1.311C2,19.721,2,19.038,2,17.8v-2.6c0-1.238,0-1.921,0.327-2.562
		c0.29-0.568,0.743-1.021,1.311-1.311C4.28,11,4.962,11,6.2,11h2.6c1.194,0,1.871,0,2.493,0.293L14.586,8H12c-0.552,0-1-0.448-1-1
		s0.448-1,1-1h5c0.001,0,0.002,0,0.003,0l0,0c0.134,0,0.262,0.027,0.378,0.075c0.119,0.049,0.229,0.122,0.326,0.218
		s0.169,0.208,0.218,0.326C17.973,6.735,18,6.863,18,6.997l0,0C18,6.998,18,6.999,18,7v5c0,0.552-0.447,1-1,1s-1-0.448-1-1V9.414
		l-3.293,3.293C13,13.33,13,14.007,13,15.2v2.6c0,1.238,0,1.921-0.327,2.562c-0.29,0.567-0.742,1.02-1.31,1.311
		C10.72,22,10.038,22,8.8,22z M6.2,13c-0.868,0-1.44,0-1.655,0.109c-0.186,0.095-0.341,0.25-0.437,0.438C4,13.76,4,14.333,4,15.2
		v2.6c0,0.867,0,1.44,0.109,1.654c0.096,0.188,0.248,0.341,0.438,0.438C4.76,20,5.333,20,6.2,20h2.6c0.868,0,1.44,0,1.655-0.109
		c0.188-0.096,0.34-0.248,0.437-0.438C11,19.24,11,18.667,11,17.8v-2.6c0-0.867,0-1.44-0.109-1.654
		c-0.095-0.187-0.25-0.342-0.438-0.438C10.24,13,9.667,13,8.8,13H6.2z"/>
</g>
</svg>
