<?xml version="1.0" encoding="iso-8859-1"?>
<!-- Generator: Adobe Illustrator 27.4.0, SVG Export Plug-In . SVG Version: 6.00 Build 0)  -->
<svg version="1.1" id="Layer_1" xmlns="http://www.w3.org/2000/svg" xmlns:xlink="http://www.w3.org/1999/xlink" x="0px" y="0px"
	 viewBox="0 0 24 24" style="enable-background:new 0 0 24 24;" xml:space="preserve">
<g>
	<path d="M16.2,22H16c-0.553,0-1-0.447-1-1s0.447-1,1-1h0.2c1.47,0,2.279,0,2.708-0.219c0.379-0.192,0.681-0.494,0.873-0.872
		C20,18.479,20,17.67,20,16.2V16c0-0.553,0.447-1,1-1s1,0.447,1,1v0.2c0,1.837,0,2.76-0.436,3.616
		c-0.386,0.758-0.99,1.362-1.749,1.748C18.96,22,18.037,22,16.2,22z M8,22H7.8c-1.838,0-2.76,0-3.616-0.437
		c-0.757-0.385-1.362-0.989-1.748-1.747C2,18.96,2,18.037,2,16.2V16c0-0.553,0.448-1,1-1s1,0.447,1,1v0.2
		c0,1.47,0,2.279,0.218,2.708c0.193,0.379,0.495,0.681,0.874,0.873C5.52,20,6.33,20,7.8,20H8c0.552,0,1,0.447,1,1S8.552,22,8,22z
		 M21.01,13c-0.553,0-1.005-0.448-1.005-1s0.442-1,0.995-1h0.01c0.553,0,1,0.448,1,1S21.562,13,21.01,13z M16.51,13
		c-0.553,0-1.005-0.448-1.005-1s0.442-1,0.995-1h0.01c0.553,0,1,0.448,1,1S17.062,13,16.51,13z M12.01,13
		c-0.552,0-1.005-0.448-1.005-1s0.443-1,0.995-1h0.01c0.552,0,1,0.448,1,1S12.562,13,12.01,13z M7.51,13
		c-0.552,0-1.005-0.448-1.005-1s0.443-1,0.995-1h0.01c0.552,0,1,0.448,1,1S8.062,13,7.51,13z M3.01,13c-0.552,0-1.005-0.448-1.005-1
		S2.448,11,3,11h0.01c0.552,0,1,0.448,1,1S3.562,13,3.01,13z M21,9c-0.553,0-1-0.448-1-1V7.8c0-1.47,0-2.28-0.218-2.708
		c-0.193-0.379-0.495-0.681-0.874-0.874C18.479,4,17.67,4,16.2,4H16c-0.553,0-1-0.448-1-1s0.447-1,1-1h0.2
		c1.837,0,2.76,0,3.616,0.436c0.758,0.386,1.362,0.991,1.748,1.749C22,5.04,22,5.962,22,7.8V8C22,8.552,21.553,9,21,9z M3,9
		C2.448,9,2,8.552,2,8V7.8c0-1.838,0-2.76,0.436-3.616c0.386-0.757,0.991-1.362,1.748-1.748C5.04,2,5.962,2,7.8,2H8
		c0.552,0,1,0.448,1,1S8.552,4,8,4H7.8C6.33,4,5.52,4,5.092,4.218C4.713,4.411,4.411,4.713,4.218,5.092C4,5.52,4,6.33,4,7.8V8
		C4,8.552,3.552,9,3,9z"/>
</g>
</svg>
