<?xml version="1.0" encoding="iso-8859-1"?>
<!-- Generator: Adobe Illustrator 27.4.0, SVG Export Plug-In . SVG Version: 6.00 Build 0)  -->
<svg version="1.1" id="Layer_1" xmlns="http://www.w3.org/2000/svg" xmlns:xlink="http://www.w3.org/1999/xlink" x="0px" y="0px"
	 viewBox="0 0 24 24" style="enable-background:new 0 0 24 24;" xml:space="preserve">
<g>
	<path d="M6,22c-2.206,0-4-1.794-4-4s1.794-4,4-4c0.741,0,1.435,0.202,2.031,0.555L10.586,12L8.031,9.445C7.435,9.797,6.741,10,6,10
		c-2.206,0-4-1.794-4-4s1.794-4,4-4s4,1.794,4,4c0,0.741-0.203,1.435-0.555,2.031L12,10.586l7.293-7.293
		c0.391-0.391,1.023-0.391,1.414,0s0.391,1.023,0,1.414L13.414,12l7.293,7.293c0.391,0.391,0.391,1.023,0,1.414
		s-1.023,0.391-1.414,0L12,13.414l-2.555,2.555C9.797,16.564,10,17.259,10,18C10,20.206,8.206,22,6,22z M6,16c-1.103,0-2,0.897-2,2
		s0.897,2,2,2s2-0.897,2-2S7.103,16,6,16z M6,4C4.897,4,4,4.897,4,6s0.897,2,2,2s2-0.897,2-2S7.103,4,6,4z"/>
</g>
</svg>
