<?xml version="1.0" encoding="iso-8859-1"?>
<!-- Generator: Adobe Illustrator 27.4.0, SVG Export Plug-In . SVG Version: 6.00 Build 0)  -->
<svg version="1.1" id="Layer_1" xmlns="http://www.w3.org/2000/svg" xmlns:xlink="http://www.w3.org/1999/xlink" x="0px" y="0px"
	 viewBox="0 0 24 24" style="enable-background:new 0 0 24 24;" xml:space="preserve">
<g>
	<path d="M6,22c-2.206,0-4-1.794-4-4c0-1.45,0.775-2.722,1.933-3.424c0.036-0.024,0.074-0.047,0.113-0.067l0.023-0.012
		c0.08-0.044,0.162-0.086,0.245-0.125L8.975,12L4.303,9.622C4.228,9.586,4.154,9.549,4.082,9.509L4.046,9.491
		C4.004,9.47,3.965,9.446,3.927,9.42C2.772,8.718,2,7.447,2,6c0-2.206,1.794-4,4-4s4,1.794,4,4c0,1.402-0.725,2.637-1.819,3.352
		l2.998,1.526l9.367-4.769c0.492-0.253,1.095-0.055,1.346,0.438c0.25,0.492,0.055,1.094-0.438,1.345L13.383,12l8.071,4.108
		c0.492,0.251,0.688,0.854,0.438,1.346c-0.251,0.492-0.854,0.685-1.346,0.438l-9.367-4.77l-2.998,1.526
		C9.275,15.363,10,16.599,10,18C10,20.206,8.206,22,6,22z M5.006,16.265C4.405,16.61,4,17.259,4,18c0,1.103,0.897,2,2,2s2-0.897,2-2
		s-0.897-2-2-2c-0.289,0-0.564,0.062-0.813,0.173L5.006,16.265z M5.179,7.824C5.43,7.937,5.708,8,6,8c1.103,0,2-0.897,2-2
		S7.103,4,6,4S4,4.897,4,6c0,0.745,0.409,1.396,1.014,1.74L5.179,7.824z M22.01,13c-0.553,0-1.005-0.448-1.005-1s0.442-1,0.995-1
		h0.01c0.553,0,1,0.448,1,1S22.562,13,22.01,13z M17.51,13c-0.553,0-1.005-0.448-1.005-1s0.442-1,0.995-1h0.01c0.553,0,1,0.448,1,1
		S18.062,13,17.51,13z"/>
</g>
</svg>
