<?xml version="1.0" encoding="iso-8859-1"?>
<!-- Generator: Adobe Illustrator 27.4.0, SVG Export Plug-In . SVG Version: 6.00 Build 0)  -->
<svg version="1.1" id="Layer_1" xmlns="http://www.w3.org/2000/svg" xmlns:xlink="http://www.w3.org/1999/xlink" x="0px" y="0px"
	 viewBox="0 0 24 24" style="enable-background:new 0 0 24 24;" xml:space="preserve">
<g>
	<path d="M21,22c-0.256,0-0.512-0.098-0.707-0.293l-5.39-5.39C13.548,17.371,11.846,18,10,18c-4.411,0-8-3.589-8-8s3.589-8,8-8
		s8,3.589,8,8c0,1.846-0.629,3.548-1.683,4.903l5.39,5.39c0.391,0.391,0.391,1.023,0,1.414C21.512,21.902,21.256,22,21,22z M10,4
		c-3.309,0-6,2.691-6,6s2.691,6,6,6s6-2.691,6-6S13.309,4,10,4z"/>
</g>
</svg>
