<?xml version="1.0" encoding="iso-8859-1"?>
<!-- Generator: Adobe Illustrator 27.4.0, SVG Export Plug-In . SVG Version: 6.00 Build 0)  -->
<svg version="1.1" id="Layer_1" xmlns="http://www.w3.org/2000/svg" xmlns:xlink="http://www.w3.org/1999/xlink" x="0px" y="0px"
	 viewBox="0 0 24 24" style="enable-background:new 0 0 24 24;" xml:space="preserve">
<g>
	<path d="M21,22c-0.256,0-0.512-0.098-0.707-0.293l-2.822-2.822C15.838,20.207,13.76,21,11.5,21C6.262,21,2,16.738,2,11.5
		S6.262,2,11.5,2S21,6.262,21,11.5c0,2.26-0.793,4.338-2.115,5.971l2.822,2.822c0.391,0.391,0.391,1.023,0,1.414
		C21.512,21.902,21.256,22,21,22z M11.5,4C7.364,4,4,7.364,4,11.5S7.364,19,11.5,19c2.017,0,3.851-0.801,5.2-2.101
		c0.028-0.037,0.059-0.072,0.093-0.106s0.069-0.064,0.106-0.093c1.3-1.35,2.101-3.184,2.101-5.2C19,7.364,15.636,4,11.5,4z"/>
</g>
</svg>
