<?xml version="1.0" encoding="iso-8859-1"?>
<!-- Generator: Adobe Illustrator 27.4.0, SVG Export Plug-In . SVG Version: 6.00 Build 0)  -->
<svg version="1.1" id="Layer_1" xmlns="http://www.w3.org/2000/svg" xmlns:xlink="http://www.w3.org/1999/xlink" x="0px" y="0px"
	 viewBox="0 0 24 24" style="enable-background:new 0 0 24 24;" xml:space="preserve">
<g>
	<path d="M21,22c-0.256,0-0.512-0.098-0.707-0.293l-3.678-3.678C15.074,19.262,13.122,20,11,20c-4.962,0-9-4.037-9-9
		c0-4.962,4.038-9,9-9c4.963,0,9,4.038,9,9c0,2.122-0.738,4.074-1.971,5.615l3.678,3.678c0.391,0.391,0.391,1.023,0,1.414
		C21.512,21.902,21.256,22,21,22z M11,4c-3.86,0-7,3.14-7,7c0,3.859,3.14,7,7,7c1.894,0,3.613-0.756,4.875-1.981
		c0.021-0.025,0.044-0.051,0.068-0.075s0.05-0.047,0.075-0.068C17.244,14.613,18,12.894,18,11C18,7.14,14.859,4,11,4z"/>
</g>
</svg>
