<?xml version="1.0" encoding="iso-8859-1"?>
<!-- Generator: Adobe Illustrator 27.4.0, SVG Export Plug-In . SVG Version: 6.00 Build 0)  -->
<svg version="1.1" id="Layer_1" xmlns="http://www.w3.org/2000/svg" xmlns:xlink="http://www.w3.org/1999/xlink" x="0px" y="0px"
	 viewBox="0 0 24 24" style="enable-background:new 0 0 24 24;" xml:space="preserve">
<g>
	<path d="M3.862,22.653c-0.164,0-0.323-0.027-0.486-0.092c-0.437-0.173-0.771-0.545-0.896-0.997
		c-0.145-0.521,0.045-0.942,0.361-1.641l7.555-16.716c0.298-0.66,0.495-1.097,0.978-1.335c0.417-0.207,0.914-0.206,1.332,0.002
		c0.479,0.238,0.676,0.674,0.972,1.334l7.49,16.716c0.304,0.679,0.501,1.12,0.355,1.642c-0.128,0.453-0.463,0.822-0.896,0.993
		c-0.514,0.199-0.971,0.043-1.666-0.188l-6.934-2.321l-6.978,2.323C4.573,22.531,4.207,22.653,3.862,22.653z M4.424,21.312
		L4.424,21.312L4.424,21.312z M3.832,20.654L3.832,20.654L3.832,20.654z M20.175,20.653L20.175,20.653L20.175,20.653z M12.035,4.437
		L4.852,20.332L11,18.291V12c0-0.552,0.448-1,1-1s1,0.448,1,1v6.268l6.155,2.061L12.035,4.437z"/>
</g>
</svg>
