<?xml version="1.0" encoding="iso-8859-1"?>
<!-- Generator: Adobe Illustrator 27.4.0, SVG Export Plug-In . SVG Version: 6.00 Build 0)  -->
<svg version="1.1" id="Layer_1" xmlns="http://www.w3.org/2000/svg" xmlns:xlink="http://www.w3.org/1999/xlink" x="0px" y="0px"
	 viewBox="0 0 24 24" style="enable-background:new 0 0 24 24;" xml:space="preserve">
<g>
	<path d="M2.786,21.568c-0.116,0-0.232-0.015-0.353-0.049c-0.45-0.124-0.823-0.461-0.994-0.899
		c-0.198-0.506-0.042-0.969,0.192-1.669l2.319-6.929L1.625,5.044C1.393,4.342,1.24,3.88,1.437,3.376
		C1.609,2.939,1.98,2.605,2.43,2.479c0.522-0.146,0.97,0.054,1.643,0.357l16.717,7.523c0.66,0.297,1.097,0.493,1.336,0.974
		c0.206,0.421,0.206,0.915,0.004,1.329c-0.243,0.487-0.68,0.684-1.34,0.98L4.078,21.162C3.559,21.396,3.174,21.568,2.786,21.568z
		 M5.733,13l-2.059,6.15L19.563,12L3.667,4.846L5.709,11H10.5c0.552,0,1,0.448,1,1s-0.448,1-1,1H5.733z M2.688,4.422L2.688,4.422
		L2.688,4.422z M3.345,3.829L3.345,3.829L3.345,3.829z"/>
</g>
</svg>
