<?xml version="1.0" encoding="iso-8859-1"?>
<!-- Generator: Adobe Illustrator 27.4.0, SVG Export Plug-In . SVG Version: 6.00 Build 0)  -->
<svg version="1.1" id="Layer_1" xmlns="http://www.w3.org/2000/svg" xmlns:xlink="http://www.w3.org/1999/xlink" x="0px" y="0px"
	 viewBox="0 0 24 24" style="enable-background:new 0 0 24 24;" xml:space="preserve">
<g>
	<path d="M18.8,23H5.2c-1.238,0-1.92,0-2.562-0.326c-0.57-0.292-1.022-0.744-1.312-1.311C1,20.721,1,20.038,1,18.8v-1.6
		c0-1.238,0-1.921,0.327-2.562c0.29-0.567,0.742-1.02,1.31-1.311C3.28,13,3.962,13,5.2,13h13.6c1.238,0,1.921,0,2.562,0.326
		c0.567,0.291,1.021,0.744,1.311,1.311C23,15.279,23,15.962,23,17.2v1.6c0,1.238,0,1.921-0.326,2.562
		c-0.291,0.567-0.744,1.021-1.311,1.311C20.721,23,20.038,23,18.8,23z M5.2,15c-0.868,0-1.44,0-1.655,0.109
		c-0.188,0.096-0.34,0.248-0.437,0.438C3,15.76,3,16.333,3,17.2v1.6c0,0.867,0,1.44,0.109,1.654
		c0.096,0.188,0.248,0.341,0.438,0.438C3.76,21,4.333,21,5.2,21h13.6c0.867,0,1.44,0,1.654-0.109
		c0.188-0.096,0.341-0.248,0.438-0.438C21,20.24,21,19.667,21,18.8v-1.6c0-0.867,0-1.44-0.109-1.654
		c-0.096-0.188-0.248-0.341-0.438-0.438C20.24,15,19.667,15,18.8,15H5.2z M6.01,19c-0.552,0-1.005-0.447-1.005-1S5.448,17,6,17h0.01
		c0.552,0,1,0.447,1,1S6.562,19,6.01,19z M18.8,11H5.2c-1.238,0-1.92,0-2.562-0.327C2.07,10.383,1.617,9.93,1.327,9.363
		C1,8.72,1,8.038,1,6.8V5.2c0-1.238,0-1.92,0.327-2.562C1.617,2.07,2.07,1.617,2.637,1.327C3.28,1,3.962,1,5.2,1h13.6
		c1.238,0,1.921,0,2.562,0.327c0.567,0.29,1.02,0.742,1.311,1.31C23,3.28,23,3.962,23,5.2v1.6c0,1.238,0,1.92-0.326,2.562
		c-0.292,0.57-0.744,1.022-1.311,1.312C20.721,11,20.038,11,18.8,11z M5.2,3C4.333,3,3.76,3,3.545,3.109
		c-0.186,0.095-0.341,0.25-0.437,0.438C3,3.76,3,4.333,3,5.2v1.6c0,0.868,0,1.44,0.109,1.655c0.095,0.186,0.25,0.341,0.438,0.437
		C3.76,9,4.333,9,5.2,9h13.6c0.867,0,1.44,0,1.654-0.109c0.188-0.096,0.341-0.248,0.438-0.438C21,8.24,21,7.667,21,6.8V5.2
		c0-0.868,0-1.44-0.109-1.655c-0.096-0.188-0.248-0.34-0.438-0.437C20.24,3,19.667,3,18.8,3H5.2z M6.01,7
		C5.458,7,5.005,6.552,5.005,6S5.448,5,6,5h0.01c0.552,0,1,0.448,1,1S6.562,7,6.01,7z"/>
</g>
</svg>
