<?xml version="1.0" encoding="iso-8859-1"?>
<!-- Generator: Adobe Illustrator 27.4.0, SVG Export Plug-In . SVG Version: 6.00 Build 0)  -->
<svg version="1.1" id="Layer_1" xmlns="http://www.w3.org/2000/svg" xmlns:xlink="http://www.w3.org/1999/xlink" x="0px" y="0px"
	 viewBox="0 0 24 24" style="enable-background:new 0 0 24 24;" xml:space="preserve">
<g>
	<path d="M12,23c-1.304,0-2.416-0.836-2.829-2H3c-0.552,0-1-0.447-1-1s0.448-1,1-1h6.171c0.302-0.852,0.978-1.527,1.829-1.829
		v-0.233C7.059,16.444,4,13.072,4,9c0-4.41,3.587-7.998,7.997-8c0,0,0.001,0,0.002,0h0h0c0,0,0,0,0,0s0,0,0,0h0h0
		c0,0,0.001,0,0.002,0C16.413,1.002,20,4.59,20,9c0,4.072-3.06,7.444-7,7.938v0.233c0.852,0.302,1.527,0.978,1.829,1.829H21
		c0.553,0,1,0.447,1,1s-0.447,1-1,1h-6.171C14.416,22.164,13.304,23,12,23z M11,20c0,0.552,0.449,1,1,1s1-0.448,1-1s-0.449-1-1-1
		S11,19.448,11,20z M15.736,10c-0.172,1.615-0.669,3.16-1.456,4.55c1.884-0.776,3.289-2.486,3.637-4.55H15.736z M6.083,10
		c0.348,2.063,1.752,3.772,3.636,4.55C8.929,13.155,8.431,11.607,8.262,10H6.083z M10.272,10c0.198,1.58,0.792,3.101,1.728,4.412
		c0.931-1.306,1.524-2.821,1.726-4.412H10.272z M15.739,8h2.178c-0.348-2.063-1.752-3.772-3.636-4.549
		C15.072,4.846,15.57,6.394,15.739,8z M10.275,8h3.454C13.53,6.42,12.936,4.9,12,3.588C11.07,4.893,10.478,6.408,10.275,8z M6.083,8
		h2.182C8.437,6.384,8.934,4.839,9.72,3.45C7.836,4.227,6.431,5.936,6.083,8z"/>
</g>
</svg>
