<?xml version="1.0" encoding="iso-8859-1"?>
<!-- Generator: Adobe Illustrator 27.4.0, SVG Export Plug-In . SVG Version: 6.00 Build 0)  -->
<svg version="1.1" id="Layer_1" xmlns="http://www.w3.org/2000/svg" xmlns:xlink="http://www.w3.org/1999/xlink" x="0px" y="0px"
	 viewBox="0 0 24 24" style="enable-background:new 0 0 24 24;" xml:space="preserve">
<g>
	<path d="M18,21H6c-2.757,0-5-2.243-5-5c0-1.634,0.788-3.087,2.003-4C1.788,11.087,1,9.634,1,8c0-2.757,2.243-5,5-5h12
		c2.757,0,5,2.243,5,5c0,1.634-0.788,3.087-2.003,4C22.212,12.913,23,14.366,23,16C23,18.757,20.757,21,18,21z M6,13
		c-1.654,0-3,1.346-3,3s1.346,3,3,3h12c1.654,0,3-1.346,3-3s-1.346-3-3-3H6z M6,11h12c1.654,0,3-1.346,3-3s-1.346-3-3-3H6
		C4.346,5,3,6.346,3,8S4.346,11,6,11z M6.01,17c-0.552,0-1.005-0.447-1.005-1S5.448,15,6,15h0.01c0.552,0,1,0.447,1,1
		S6.562,17,6.01,17z M6.01,9C5.458,9,5.005,8.552,5.005,8S5.448,7,6,7h0.01c0.552,0,1,0.448,1,1S6.562,9,6.01,9z"/>
</g>
</svg>
