<?xml version="1.0" encoding="iso-8859-1"?>
<!-- Generator: Adobe Illustrator 27.4.0, SVG Export Plug-In . SVG Version: 6.00 Build 0)  -->
<svg version="1.1" id="Layer_1" xmlns="http://www.w3.org/2000/svg" xmlns:xlink="http://www.w3.org/1999/xlink" x="0px" y="0px"
	 viewBox="0 0 24 24" style="enable-background:new 0 0 24 24;" xml:space="preserve">
<g>
	<path d="M20,23c-1.654,0-3-1.346-3-3c0-0.189,0.018-0.375,0.052-0.555c-1.44,0.98-3.178,1.554-5.047,1.555
		c-0.001,0-0.002,0-0.003,0h0h0c0,0,0,0,0,0s0,0,0,0h0h0c-0.001,0-0.002,0-0.003,0c-1.869-0.001-3.606-0.574-5.046-1.555
		C6.982,19.625,7,19.811,7,20c0,1.654-1.346,3-3,3s-3-1.346-3-3s1.346-3,3-3c0.189,0,0.375,0.018,0.555,0.052
		C3.574,15.61,3,13.871,3,12s0.574-3.61,1.555-5.051C4.375,6.982,4.189,7,4,7C2.346,7,1,5.654,1,4s1.346-3,3-3s3,1.346,3,3
		c0,0.189-0.018,0.375-0.051,0.555c1.44-0.98,3.177-1.554,5.046-1.555c0.001,0,0.002,0,0.003,0h0h0c0,0,0,0,0,0s0,0,0,0h0h0
		c0.001,0,0.002,0,0.003,0c1.869,0.001,3.606,0.575,5.047,1.555C17.018,4.375,17,4.189,17,4c0-1.654,1.346-3,3-3s3,1.346,3,3
		s-1.346,3-3,3c-0.189,0-0.375-0.018-0.555-0.051C20.427,8.39,21,10.129,21,12s-0.573,3.61-1.555,5.052
		C19.625,17.018,19.811,17,20,17c1.654,0,3,1.346,3,3S21.654,23,20,23z M20,19c-0.552,0-1,0.448-1,1s0.448,1,1,1s1-0.448,1-1
		S20.552,19,20,19z M4,19c-0.551,0-1,0.448-1,1s0.449,1,1,1s1-0.448,1-1S4.551,19,4,19z M16.141,13
		c-0.193,2.007-0.833,3.924-1.862,5.619c2.44-0.842,4.274-2.999,4.65-5.619H16.141z M5.071,13c0.376,2.62,2.21,4.777,4.65,5.619
		C8.688,16.917,8.047,14.997,7.857,13H5.071z M9.865,13c0.216,1.954,0.954,3.832,2.135,5.429c1.176-1.59,1.912-3.462,2.133-5.429
		H9.865z M16.144,11h2.785c-0.376-2.621-2.21-4.777-4.65-5.619C15.313,7.083,15.953,9.003,16.144,11z M9.868,11h4.268
		C13.919,9.047,13.182,7.168,12,5.572C10.825,7.161,10.089,9.034,9.868,11z M5.071,11H7.86c0.193-2.007,0.833-3.924,1.862-5.62
		C7.282,6.223,5.448,8.379,5.071,11z M20,3c-0.552,0-1,0.449-1,1s0.448,1,1,1s1-0.449,1-1S20.552,3,20,3z M4,3C3.449,3,3,3.449,3,4
		s0.449,1,1,1s1-0.449,1-1S4.551,3,4,3z"/>
</g>
</svg>
