<?xml version="1.0" encoding="iso-8859-1"?>
<!-- Generator: Adobe Illustrator 27.4.0, SVG Export Plug-In . SVG Version: 6.00 Build 0)  -->
<svg version="1.1" id="Layer_1" xmlns="http://www.w3.org/2000/svg" xmlns:xlink="http://www.w3.org/1999/xlink" x="0px" y="0px"
	 viewBox="0 0 24 24" style="enable-background:new 0 0 24 24;" xml:space="preserve">
<g>
	<path d="M18.5,22h-13c-2.478,0-4.494-2.013-4.5-4.488c0-0.007,0-0.014,0-0.021c0-0.196,0.013-0.389,0.038-0.578l0.656-9.512
		c0.115-1.67,0.178-2.59,0.633-3.386c0.403-0.705,1.001-1.263,1.73-1.616C4.884,2,5.806,2,7.48,2h9.039c1.675,0,2.598,0,3.422,0.399
		c0.73,0.354,1.329,0.912,1.73,1.616c0.454,0.793,0.518,1.708,0.633,3.37l0.657,9.528C22.986,17.103,23,17.296,23,17.491
		c0,0.007,0,0.014,0,0.02C22.994,19.987,20.978,22,18.5,22z M3,17.531C3.017,18.896,4.132,20,5.5,20h13
		c1.368,0,2.482-1.104,2.5-2.469l-0.028-0.408C20.789,15.923,19.75,15,18.5,15h-13c-1.25,0-2.289,0.923-2.472,2.123L3,17.531z
		 M5.5,13h13c0.811,0,1.571,0.215,2.229,0.592l-0.418-6.053c-0.096-1.382-0.147-2.135-0.375-2.531c-0.2-0.352-0.5-0.631-0.865-0.808
		C18.658,4,17.898,4,16.52,4H7.48C6.102,4,5.342,4,4.929,4.2C4.564,4.376,4.265,4.655,4.063,5.008
		C3.836,5.405,3.784,6.163,3.689,7.539l-0.417,6.052C3.929,13.215,4.69,13,5.5,13z M18,18.5h-6c-0.552,0-1-0.447-1-1s0.448-1,1-1h6
		c0.553,0,1,0.447,1,1S18.553,18.5,18,18.5z M6.01,18.5c-0.552,0-1.005-0.447-1.005-1s0.443-1,0.995-1h0.01c0.552,0,1,0.447,1,1
		S6.562,18.5,6.01,18.5z"/>
</g>
</svg>
