<?xml version="1.0" encoding="iso-8859-1"?>
<!-- Generator: Adobe Illustrator 27.4.0, SVG Export Plug-In . SVG Version: 6.00 Build 0)  -->
<svg version="1.1" id="Layer_1" xmlns="http://www.w3.org/2000/svg" xmlns:xlink="http://www.w3.org/1999/xlink" x="0px" y="0px"
	 viewBox="0 0 24 24" style="enable-background:new 0 0 24 24;" xml:space="preserve">
<g>
	<path d="M18.5,22.5h-13C3.019,22.5,1,20.481,1,18c0-1.412,0.654-2.675,1.674-3.5C1.654,13.675,1,12.412,1,11
		c0-0.114,0.004-0.228,0.013-0.34c-0.015-0.092-0.017-0.187-0.005-0.284l0.475-3.795c0.198-1.583,0.306-2.452,0.773-3.2
		C2.668,2.72,3.26,2.198,3.967,1.871C4.767,1.5,5.644,1.5,7.237,1.5h9.525c1.593,0,2.47,0,3.271,0.37
		c0.708,0.329,1.299,0.851,1.712,1.511c0.468,0.751,0.576,1.621,0.772,3.2l0.475,3.795c0.013,0.097,0.01,0.192-0.005,0.284
		C22.996,10.772,23,10.886,23,11c0,1.412-0.653,2.675-1.675,3.5C22.347,15.325,23,16.588,23,18C23,20.481,20.981,22.5,18.5,22.5z
		 M5.5,15.5C4.122,15.5,3,16.621,3,18s1.122,2.5,2.5,2.5h13c1.379,0,2.5-1.121,2.5-2.5s-1.121-2.5-2.5-2.5H5.5z M5.5,13.5h13
		c1.379,0,2.5-1.122,2.5-2.5s-1.121-2.5-2.5-2.5h-13C4.122,8.5,3,9.622,3,11S4.122,13.5,5.5,13.5z M5.5,6.5h13
		c0.739,0,1.438,0.179,2.054,0.497l-0.021-0.168c-0.162-1.298-0.251-2.013-0.485-2.389c-0.206-0.329-0.502-0.59-0.855-0.754
		C18.793,3.5,18.071,3.5,16.763,3.5H7.237c-1.309,0-2.03,0-2.43,0.185C4.454,3.849,4.158,4.11,3.952,4.44
		C3.719,4.814,3.629,5.528,3.467,6.825L3.446,6.997C4.062,6.679,4.76,6.5,5.5,6.5z M18,19h-6c-0.552,0-1-0.447-1-1s0.448-1,1-1h6
		c0.553,0,1,0.447,1,1S18.553,19,18,19z M6.01,19c-0.552,0-1.005-0.447-1.005-1S5.448,17,6,17h0.01c0.552,0,1,0.447,1,1
		S6.562,19,6.01,19z M18,12h-6c-0.552,0-1-0.448-1-1s0.448-1,1-1h6c0.553,0,1,0.448,1,1S18.553,12,18,12z M6.01,12
		c-0.552,0-1.005-0.448-1.005-1S5.448,10,6,10h0.01c0.552,0,1,0.448,1,1S6.562,12,6.01,12z"/>
</g>
</svg>
