<?xml version="1.0" encoding="iso-8859-1"?>
<!-- Generator: Adobe Illustrator 27.4.0, SVG Export Plug-In . SVG Version: 6.00 Build 0)  -->
<svg version="1.1" id="Layer_1" xmlns="http://www.w3.org/2000/svg" xmlns:xlink="http://www.w3.org/1999/xlink" x="0px" y="0px"
	 viewBox="0 0 24 24" style="enable-background:new 0 0 24 24;" xml:space="preserve">
<g>
	<path d="M12.001,23c-0.623,0-1.229-0.18-1.751-0.52s-0.932-0.82-1.185-1.39l-0.584-1.313c0,0,0,0,0-0.001
		c-0.122-0.273-0.331-0.506-0.589-0.655c-0.265-0.153-0.564-0.215-0.867-0.185l-1.428,0.152c-0.621,0.064-1.24-0.05-1.797-0.333
		c-0.555-0.282-1.012-0.717-1.324-1.256c-0.312-0.538-0.459-1.152-0.427-1.775c0.033-0.621,0.244-1.217,0.61-1.721l0.847-1.164
		c0.179-0.246,0.273-0.536,0.273-0.839c0-0.306-0.094-0.596-0.273-0.841L2.66,9.996c-0.367-0.504-0.578-1.099-0.61-1.721
		C2.017,7.653,2.164,7.039,2.476,6.5C2.787,5.961,3.245,5.526,3.8,5.243C4.356,4.96,4.98,4.845,5.597,4.912L7.03,5.063
		c0.3,0.034,0.602-0.032,0.865-0.184C8.155,4.729,8.358,4.502,8.48,4.225l0.585-1.316c0.253-0.569,0.663-1.049,1.185-1.389
		c1.045-0.679,2.458-0.679,3.502,0c0.524,0.342,0.934,0.823,1.186,1.392l0.587,1.31c0.125,0.282,0.328,0.509,0.59,0.661
		c0.262,0.15,0.563,0.215,0.863,0.182l1.429-0.152c0.618-0.064,1.241,0.049,1.796,0.333c0.556,0.282,1.014,0.717,1.325,1.256
		c0.311,0.539,0.458,1.153,0.426,1.775c-0.033,0.622-0.244,1.217-0.61,1.721l-0.847,1.164c-0.176,0.242-0.273,0.541-0.273,0.84
		c-0.001,0.305,0.095,0.605,0.271,0.85l0.845,1.159c0.367,0.504,0.578,1.1,0.611,1.722c0.032,0.621-0.115,1.234-0.427,1.774
		c-0.312,0.541-0.771,0.976-1.325,1.258s-1.178,0.399-1.795,0.331l-1.431-0.151c-0.3-0.028-0.602,0.032-0.864,0.184
		c-0.261,0.15-0.464,0.376-0.587,0.652l-0.584,1.313c-0.25,0.566-0.66,1.048-1.184,1.389C13.23,22.82,12.625,23,12.001,23z
		 M10.309,18.965l0.584,1.314c0.096,0.215,0.25,0.396,0.448,0.525c0.394,0.256,0.927,0.257,1.322-0.001
		c0.197-0.128,0.351-0.309,0.445-0.521l0.586-1.317c0.296-0.664,0.785-1.207,1.413-1.57c0.632-0.365,1.348-0.521,2.075-0.44
		l1.432,0.151c0.228,0.021,0.467-0.019,0.678-0.126c0.209-0.106,0.382-0.271,0.499-0.474c0.118-0.204,0.174-0.437,0.161-0.67
		c-0.012-0.235-0.092-0.459-0.23-0.649l-0.847-1.163c-0.43-0.597-0.654-1.296-0.651-2.027c0-0.725,0.227-1.422,0.656-2.013
		l0.847-1.164c0.138-0.189,0.218-0.414,0.229-0.649c0.013-0.235-0.043-0.467-0.16-0.67c-0.117-0.204-0.29-0.368-0.5-0.475
		c-0.211-0.107-0.448-0.15-0.677-0.125l-1.431,0.152c-0.728,0.075-1.443-0.076-2.075-0.44c-0.632-0.367-1.12-0.912-1.415-1.579
		l-0.587-1.31c-0.097-0.219-0.251-0.399-0.449-0.528c-0.393-0.255-0.927-0.255-1.321,0c-0.198,0.128-0.353,0.31-0.448,0.525
		l-0.584,1.314C10.015,5.699,9.527,6.245,8.897,6.61C8.263,6.976,7.548,7.128,6.82,7.052L5.385,6.9
		C5.151,6.872,4.917,6.918,4.708,7.025C4.499,7.132,4.326,7.296,4.208,7.5C4.09,7.704,4.034,7.936,4.046,8.17
		c0.012,0.235,0.092,0.459,0.23,0.649l0.847,1.164c0.43,0.59,0.656,1.288,0.656,2.018c0,0.728-0.226,1.426-0.656,2.017l-0.847,1.163
		c-0.138,0.189-0.218,0.415-0.23,0.649s0.043,0.466,0.161,0.669c0.118,0.204,0.292,0.368,0.501,0.476
		c0.21,0.106,0.443,0.147,0.678,0.126l1.429-0.152c0.726-0.076,1.443,0.075,2.076,0.44C9.513,17.747,10.017,18.307,10.309,18.965
		L10.309,18.965z"/>
</g>
<g>
	<path d="M12,16c-2.206,0-4-1.794-4-4c0-2.206,1.794-4,4-4c2.206,0,4,1.794,4,4C16,14.206,14.206,16,12,16z M12,10
		c-1.103,0-2,0.897-2,2c0,1.103,0.897,2,2,2c1.103,0,2-0.897,2-2C14,10.897,13.103,10,12,10z"/>
</g>
</svg>
