<?xml version="1.0" encoding="iso-8859-1"?>
<!-- Generator: Adobe Illustrator 27.4.0, SVG Export Plug-In . SVG Version: 6.00 Build 0)  -->
<svg version="1.1" id="Layer_1" xmlns="http://www.w3.org/2000/svg" xmlns:xlink="http://www.w3.org/1999/xlink" x="0px" y="0px"
	 viewBox="0 0 24 24" style="enable-background:new 0 0 24 24;" xml:space="preserve">
<g>
	<path d="M12,16c-2.206,0-4-1.794-4-4c0-2.206,1.794-4,4-4c2.206,0,4,1.794,4,4C16,14.206,14.206,16,12,16z M12,10
		c-1.103,0-2,0.897-2,2c0,1.103,0.897,2,2,2c1.103,0,2-0.897,2-2C14,10.897,13.103,10,12,10z"/>
</g>
<g>
	<path d="M12.073,23c-0.753,0-1.46-0.293-1.993-0.825c-0.525-0.524-0.826-1.251-0.826-1.993c-0.002-0.159-0.034-0.255-0.092-0.337
		c-0.059-0.082-0.14-0.144-0.233-0.179c-0.151-0.064-0.25-0.076-0.35-0.059c-0.101,0.019-0.189,0.064-0.261,0.135
		c-0.308,0.309-0.616,0.515-0.96,0.657c-0.688,0.287-1.474,0.287-2.161,0c-0.344-0.143-0.651-0.348-0.913-0.61
		c-0.261-0.262-0.467-0.568-0.61-0.911c-0.144-0.348-0.216-0.711-0.216-1.082s0.072-0.734,0.215-1.078
		c0.144-0.347,0.349-0.654,0.611-0.916c0.117-0.119,0.164-0.209,0.182-0.308c0.018-0.098,0.005-0.198-0.035-0.291
		c-0.042-0.099-0.105-0.175-0.186-0.228c-0.083-0.056-0.178-0.084-0.278-0.085H3.818c-0.753,0-1.46-0.293-1.993-0.825
		C1.301,13.542,1,12.815,1,12.073c0-0.753,0.293-1.461,0.826-1.993c0.532-0.532,1.24-0.825,1.992-0.825
		C3.978,9.252,4.074,9.22,4.156,9.162S4.3,9.022,4.334,8.927c0.064-0.149,0.076-0.251,0.058-0.35
		c-0.018-0.098-0.065-0.188-0.135-0.26C3.949,8.01,3.744,7.702,3.6,7.358C3.457,7.012,3.385,6.649,3.385,6.277
		S3.457,5.543,3.6,5.199c0.144-0.346,0.349-0.653,0.611-0.915S4.78,3.816,5.125,3.673c0.691-0.286,1.47-0.286,2.159,0
		c0.346,0.144,0.654,0.35,0.916,0.612C8.316,4.4,8.407,4.447,8.506,4.465C8.605,4.484,8.705,4.472,8.796,4.43
		c0.058-0.025,0.119-0.045,0.18-0.06c0.048-0.035,0.089-0.078,0.122-0.127c0.054-0.082,0.083-0.176,0.083-0.274V3.818
		c0-0.752,0.293-1.46,0.826-1.993c1.063-1.064,2.924-1.064,3.986,0.001c0.531,0.53,0.825,1.238,0.825,1.992
		c0,0.176,0.029,0.271,0.083,0.352c0.054,0.081,0.13,0.145,0.22,0.183c0.102,0.044,0.201,0.057,0.302,0.039
		c0.098-0.018,0.188-0.064,0.259-0.134c0.311-0.31,0.617-0.516,0.961-0.658c0.691-0.286,1.471-0.286,2.158,0
		c0.346,0.143,0.652,0.349,0.915,0.611c0.265,0.265,0.471,0.573,0.612,0.917c0.142,0.34,0.214,0.704,0.214,1.077
		s-0.072,0.737-0.216,1.08c-0.14,0.341-0.346,0.65-0.611,0.914c-0.115,0.117-0.162,0.208-0.181,0.307
		c-0.018,0.098-0.006,0.199,0.035,0.291c0.025,0.058,0.046,0.119,0.06,0.18c0.035,0.048,0.078,0.089,0.128,0.122
		c0.082,0.054,0.176,0.083,0.273,0.083h0.151c0.742,0,1.469,0.301,1.993,0.826C22.707,10.54,23,11.247,23,12
		c0,0.753-0.293,1.461-0.825,1.993c-0.53,0.531-1.239,0.825-1.993,0.825c-0.176,0-0.271,0.029-0.354,0.084
		c-0.079,0.053-0.143,0.129-0.181,0.219c-0.002,0.003-0.004,0.007-0.005,0.01c-0.041,0.092-0.053,0.192-0.035,0.291
		c0.019,0.1,0.064,0.188,0.134,0.26c0.311,0.311,0.516,0.617,0.658,0.961c0.144,0.344,0.216,0.707,0.216,1.08
		s-0.072,0.736-0.216,1.08c-0.143,0.344-0.348,0.65-0.61,0.913c-0.264,0.264-0.571,0.47-0.915,0.611
		c-0.684,0.285-1.471,0.286-2.158-0.001c-0.341-0.14-0.649-0.346-0.914-0.61c-0.118-0.116-0.209-0.163-0.308-0.182
		c-0.098-0.016-0.198-0.006-0.291,0.035c-0.099,0.042-0.175,0.105-0.228,0.187c-0.056,0.083-0.084,0.179-0.085,0.278v0.147
		c0,0.753-0.293,1.461-0.825,1.993C13.541,22.699,12.815,23,12.073,23z M8.669,17.6c0.345,0,0.687,0.071,1.008,0.213
		c0.413,0.149,0.818,0.458,1.112,0.868c0.293,0.409,0.454,0.893,0.465,1.396c0,0.007,0,0.097,0,0.104
		c0,0.216,0.087,0.427,0.24,0.579c0.306,0.307,0.85,0.307,1.157,0c0.152-0.152,0.239-0.363,0.239-0.579v-0.154
		c0.003-0.496,0.147-0.97,0.417-1.375c0.268-0.406,0.647-0.724,1.098-0.917c0.45-0.199,0.955-0.258,1.446-0.168
		c0.493,0.09,0.943,0.321,1.302,0.672c0.139,0.138,0.229,0.199,0.327,0.239c0.203,0.085,0.431,0.083,0.628,0.002
		c0.099-0.042,0.19-0.103,0.267-0.179s0.137-0.166,0.179-0.267c0.041-0.1,0.062-0.204,0.062-0.312s-0.021-0.213-0.062-0.312
		c-0.042-0.101-0.103-0.19-0.179-0.267c-0.414-0.42-0.646-0.872-0.735-1.367c-0.089-0.487-0.03-0.989,0.17-1.446
		c0.192-0.446,0.508-0.824,0.913-1.095c0.412-0.272,0.886-0.416,1.374-0.417c0.304,0,0.509-0.085,0.663-0.239
		C20.915,12.424,21,12.219,21,12s-0.085-0.424-0.239-0.579c-0.152-0.152-0.363-0.24-0.579-0.24h-0.154
		c-0.492-0.001-0.967-0.145-1.374-0.415c-0.408-0.27-0.726-0.65-0.918-1.099C17.7,9.585,17.677,9.5,17.664,9.413
		c-0.141-0.406-0.175-0.839-0.097-1.265c0.089-0.492,0.321-0.942,0.671-1.3c0.14-0.14,0.2-0.23,0.24-0.327
		c0.043-0.103,0.063-0.208,0.063-0.316s-0.021-0.213-0.062-0.312c-0.042-0.1-0.103-0.191-0.179-0.268
		c-0.076-0.077-0.166-0.136-0.267-0.178c-0.197-0.082-0.426-0.083-0.627,0c-0.099,0.042-0.188,0.101-0.265,0.178
		c-0.42,0.413-0.87,0.646-1.364,0.735c-0.494,0.089-0.997,0.029-1.454-0.172C13.886,6,13.505,5.684,13.234,5.275
		c-0.271-0.41-0.415-0.883-0.416-1.372c0-0.304-0.085-0.509-0.239-0.663c-0.312-0.312-0.849-0.31-1.157-0.001
		c-0.155,0.155-0.24,0.361-0.24,0.579v0.154c-0.001,0.493-0.146,0.968-0.416,1.375c-0.269,0.406-0.649,0.724-1.099,0.917
		C9.585,6.299,9.5,6.323,9.413,6.335C9.007,6.477,8.575,6.511,8.149,6.433c-0.494-0.09-0.944-0.322-1.302-0.672
		c-0.14-0.14-0.229-0.199-0.33-0.241c-0.197-0.082-0.425-0.083-0.626,0C5.792,5.562,5.701,5.622,5.625,5.698
		S5.489,5.864,5.447,5.965C5.406,6.064,5.385,6.169,5.385,6.277s0.021,0.213,0.062,0.314C5.489,6.69,5.548,6.78,5.624,6.855
		C6.038,7.277,6.271,7.728,6.36,8.22c0.089,0.494,0.03,0.997-0.172,1.455c-0.151,0.416-0.46,0.82-0.87,1.113
		c-0.41,0.293-0.893,0.454-1.396,0.465c-0.008,0-0.097,0-0.104,0c-0.218,0-0.424,0.085-0.579,0.24S3,11.854,3,12.073
		c0,0.215,0.087,0.426,0.239,0.578c0.155,0.155,0.36,0.24,0.579,0.24h0.154c0.497,0.003,0.971,0.147,1.376,0.417
		c0.405,0.268,0.722,0.647,0.916,1.098c0.198,0.449,0.258,0.952,0.169,1.445c-0.09,0.495-0.323,0.945-0.673,1.304
		c-0.138,0.138-0.198,0.228-0.24,0.329c-0.041,0.099-0.062,0.205-0.062,0.312c0,0.106,0.021,0.215,0.062,0.314
		c0.041,0.097,0.103,0.189,0.178,0.265c0.076,0.076,0.167,0.136,0.268,0.179c0.197,0.082,0.426,0.082,0.625,0
		c0.101-0.042,0.19-0.103,0.266-0.178c0.422-0.415,0.874-0.648,1.368-0.736C8.371,17.612,8.521,17.6,8.669,17.6z M18.728,14.728
		h0.01H18.728z"/>
</g>
</svg>
