<?xml version="1.0" encoding="iso-8859-1"?>
<!-- Generator: Adobe Illustrator 27.4.0, SVG Export Plug-In . SVG Version: 6.00 Build 0)  -->
<svg version="1.1" id="Layer_1" xmlns="http://www.w3.org/2000/svg" xmlns:xlink="http://www.w3.org/1999/xlink" x="0px" y="0px"
	 viewBox="0 0 24 24" style="enable-background:new 0 0 24 24;" xml:space="preserve">
<g>
	<path d="M18,23c-2.206,0-4-1.794-4-4c0-0.378,0.053-0.744,0.151-1.092l-5.311-3.095C8.115,15.546,7.11,16,6,16
		c-2.206,0-4-1.794-4-4c0-2.206,1.794-4,4-4c1.109,0,2.115,0.454,2.84,1.186l5.31-3.099C14.053,5.742,14,5.376,14,5
		c0-2.206,1.794-4,4-4s4,1.794,4,4s-1.794,4-4,4c-1.109,0-2.115-0.454-2.841-1.186l-5.31,3.099C9.948,11.258,10,11.624,10,12
		s-0.052,0.741-0.15,1.087l5.313,3.096C15.888,15.453,16.892,15,18,15c2.206,0,4,1.794,4,4S20.206,23,18,23z M16.217,18.094
		C16.078,18.366,16,18.674,16,19c0,1.103,0.897,2,2,2s2-0.897,2-2s-0.897-2-2-2c-0.693,0-1.305,0.354-1.664,0.892
		c-0.016,0.034-0.032,0.068-0.052,0.103C16.264,18.029,16.241,18.062,16.217,18.094z M6,10c-1.103,0-2,0.897-2,2
		c0,1.103,0.897,2,2,2c0.719,0,1.35-0.381,1.703-0.951c0.007-0.015,0.015-0.028,0.023-0.043c0.008-0.014,0.017-0.029,0.026-0.043
		C7.91,12.677,8,12.349,8,12s-0.09-0.677-0.248-0.963c-0.009-0.014-0.018-0.028-0.026-0.043c-0.008-0.014-0.016-0.028-0.023-0.042
		C7.35,10.381,6.719,10,6,10z M16.298,6.048C16.65,6.619,17.281,7,18,7c1.103,0,2-0.897,2-2s-0.897-2-2-2s-2,0.897-2,2
		c0,0.349,0.09,0.677,0.247,0.963c0.01,0.014,0.019,0.028,0.026,0.043C16.282,6.02,16.29,6.034,16.298,6.048z"/>
</g>
</svg>
