<?xml version="1.0" encoding="iso-8859-1"?>
<!-- Generator: Adobe Illustrator 27.4.0, SVG Export Plug-In . SVG Version: 6.00 Build 0)  -->
<svg version="1.1" id="Layer_1" xmlns="http://www.w3.org/2000/svg" xmlns:xlink="http://www.w3.org/1999/xlink" x="0px" y="0px"
	 viewBox="0 0 24 24" style="enable-background:new 0 0 24 24;" xml:space="preserve">
<g>
	<path d="M11.498,21.412c-0.445,0-0.878-0.205-1.161-0.553C10,20.447,10,19.975,10,19.261v-3.065
		c-0.943,0.163-1.856,0.454-2.726,0.872c-1.361,0.652-2.54,1.572-3.504,2.734c-0.269,0.325-0.712,0.445-1.109,0.302
		C2.264,19.961,2,19.585,2,19.163v-0.612c0.001-2.624,0.965-5.146,2.714-7.104C6.117,9.878,7.97,8.754,10,8.229v-3.49
		c0-0.714,0-1.185,0.336-1.599c0.293-0.358,0.745-0.56,1.201-0.553c0.533,0.013,0.891,0.319,1.432,0.784l8.472,7.262
		c0.316,0.271,0.566,0.484,0.701,0.857c0.118,0.33,0.118,0.689,0.001,1.015c-0.135,0.375-0.384,0.588-0.699,0.859
		c0,0-0.002,0.002-0.003,0.002l-8.47,7.261c-0.549,0.47-0.904,0.773-1.438,0.785C11.522,21.412,11.51,21.412,11.498,21.412z
		 M12.014,19.842L12.014,19.842L12.014,19.842z M11,14.07c0.253,0,0.497,0.096,0.683,0.27C11.885,14.528,12,14.793,12,15.07v3.756
		L19.963,12L12,5.174v3.861c0,0.486-0.349,0.901-0.828,0.985c-1.91,0.334-3.674,1.314-4.967,2.761
		c-0.98,1.097-1.657,2.413-1.983,3.824c0.676-0.519,1.406-0.966,2.187-1.34c1.424-0.685,2.946-1.085,4.524-1.192
		C10.955,14.071,10.978,14.07,11,14.07z M20.791,12.607h0.01H20.791z M12.014,4.157L12.014,4.157z"/>
</g>
</svg>
