<?xml version="1.0" encoding="iso-8859-1"?>
<!-- Generator: Adobe Illustrator 27.4.0, SVG Export Plug-In . SVG Version: 6.00 Build 0)  -->
<svg version="1.1" id="Layer_1" xmlns="http://www.w3.org/2000/svg" xmlns:xlink="http://www.w3.org/1999/xlink" x="0px" y="0px"
	 viewBox="0 0 24 24" style="enable-background:new 0 0 24 24;" xml:space="preserve">
<g>
	<path d="M16.2,22H7.8c-1.838,0-2.76,0-3.616-0.437c-0.757-0.385-1.362-0.989-1.748-1.747C2,18.96,2,18.037,2,16.2V12
		c0-0.552,0.448-1,1-1s1,0.448,1,1v4.2c0,1.47,0,2.279,0.218,2.708c0.193,0.379,0.495,0.681,0.873,0.873C5.52,20,6.33,20,7.8,20h8.4
		c1.47,0,2.279,0,2.708-0.219c0.379-0.192,0.681-0.494,0.873-0.872C20,18.479,20,17.67,20,16.2V12c0-0.552,0.447-1,1-1s1,0.448,1,1
		v4.2c0,1.837,0,2.76-0.436,3.616c-0.386,0.758-0.99,1.362-1.749,1.748C18.96,22,18.037,22,16.2,22z M12,16c-0.552,0-1-0.447-1-1
		V5.414L8.707,7.707c-0.391,0.391-1.023,0.391-1.414,0s-0.391-1.023,0-1.414l4-4c0.096-0.096,0.208-0.169,0.326-0.218
		C11.735,2.027,11.863,2,11.997,2l0,0c0.002,0,0.004,0,0.006,0l0,0c0.134,0,0.262,0.027,0.378,0.075
		c0.119,0.049,0.23,0.122,0.326,0.218l4,4c0.391,0.391,0.391,1.023,0,1.414s-1.023,0.391-1.414,0L13,5.414V15
		C13,15.553,12.552,16,12,16z"/>
</g>
</svg>
