<?xml version="1.0" encoding="iso-8859-1"?>
<!-- Generator: Adobe Illustrator 27.4.0, SVG Export Plug-In . SVG Version: 6.00 Build 0)  -->
<svg version="1.1" id="Layer_1" xmlns="http://www.w3.org/2000/svg" xmlns:xlink="http://www.w3.org/1999/xlink" x="0px" y="0px"
	 viewBox="0 0 24 24" style="enable-background:new 0 0 24 24;" xml:space="preserve">
<g>
	<path d="M12.001,22.861c-0.146,0-0.293-0.014-0.424-0.042c-0.308-0.065-0.516-0.187-0.779-0.34C8.453,21.11,3,17.351,3,12V5.776
		c0-0.383,0.105-0.751,0.292-1.07l-0.999-1c-0.391-0.391-0.391-1.023,0-1.414s1.023-0.391,1.414,0l18,18
		c0.391,0.391,0.391,1.023,0,1.414s-1.023,0.391-1.414,0l-2.641-2.64c-1.616,1.642-3.431,2.815-4.448,3.41
		c-0.264,0.154-0.472,0.275-0.786,0.343C12.29,22.848,12.146,22.861,12.001,22.861z M5,6.414V12c0,4.435,5.209,7.819,6.806,8.752
		c0.091,0.053,0.152,0.093,0.211,0.117c0.025-0.024,0.086-0.064,0.179-0.119c0.929-0.542,2.587-1.614,4.043-3.097L5,6.414z
		 M19.682,15.071c-0.098,0-0.196-0.014-0.295-0.044c-0.527-0.163-0.823-0.723-0.661-1.251C18.908,13.187,19,12.589,19,12V7.218
		c0-0.633,0-1.015-0.065-1.187c-0.058-0.152-0.151-0.288-0.272-0.395c-0.139-0.122-0.497-0.256-1.089-0.478l-5.362-2.011
		c-0.106-0.04-0.172-0.068-0.229-0.083c-0.021,0.015-0.086,0.042-0.192,0.082L9.16,4.133C8.643,4.325,8.067,4.065,7.872,3.548
		C7.678,3.031,7.94,2.454,8.458,2.26l2.629-0.986c0.249-0.093,0.414-0.155,0.63-0.186c0.185-0.028,0.38-0.028,0.574,0.001
		c0.208,0.03,0.373,0.092,0.623,0.186l5.362,2.01c0.835,0.313,1.295,0.485,1.709,0.851c0.363,0.32,0.647,0.729,0.819,1.184
		C21,5.834,21,6.326,21,7.218V12c0,0.789-0.122,1.585-0.362,2.366C20.505,14.796,20.109,15.071,19.682,15.071z"/>
</g>
</svg>
