<?xml version="1.0" encoding="iso-8859-1"?>
<!-- Generator: Adobe Illustrator 27.4.0, SVG Export Plug-In . SVG Version: 6.00 Build 0)  -->
<svg version="1.1" id="Layer_1" xmlns="http://www.w3.org/2000/svg" xmlns:xlink="http://www.w3.org/1999/xlink" x="0px" y="0px"
	 viewBox="0 0 24 24" style="enable-background:new 0 0 24 24;" xml:space="preserve">
<g>
	<path d="M12.001,22.861c-0.146,0-0.293-0.014-0.424-0.042c-0.308-0.065-0.516-0.187-0.779-0.34c0,0,0,0-0.001-0.001
		C8.453,21.11,3,17.351,3,12V8.2c0-1.211,0-1.818,0.248-2.39C3.49,5.254,3.776,4.903,4.27,4.554c0.51-0.36,1.199-0.503,2.709-0.817
		c1.25-0.26,2.241-0.712,3.215-1.465c0.598-0.463,0.897-0.695,1.285-0.8c0.375-0.101,0.666-0.102,1.041,0
		c0.389,0.105,0.689,0.337,1.287,0.801c0.974,0.752,1.966,1.205,3.215,1.464c1.51,0.313,2.199,0.457,2.709,0.817
		c0.492,0.347,0.779,0.698,1.021,1.253C21,6.382,21,6.99,21,8.2V12c0,5.352-5.453,9.111-7.798,10.479
		c-0.264,0.154-0.472,0.275-0.785,0.342C12.29,22.848,12.146,22.861,12.001,22.861z M11.806,20.752
		c0.092,0.053,0.152,0.093,0.211,0.117c0.025-0.024,0.086-0.064,0.179-0.118C13.791,19.82,19,16.436,19,12V8.2
		c0-0.815,0-1.404-0.083-1.595c-0.095-0.217-0.146-0.28-0.34-0.417c-0.182-0.123-1.007-0.294-1.963-0.493
		c-1.541-0.32-2.821-0.905-4.032-1.841C12.355,3.679,12.123,3.498,12,3.418c-0.123,0.08-0.355,0.261-0.582,0.436
		c-1.21,0.936-2.491,1.521-4.032,1.841C6.43,5.894,5.604,6.065,5.423,6.188c-0.195,0.138-0.246,0.2-0.341,0.419
		C5,6.797,5,7.386,5,8.2V12C5,16.435,10.209,19.819,11.806,20.752L11.806,20.752z"/>
</g>
</svg>
