<?xml version="1.0" encoding="iso-8859-1"?>
<!-- Generator: Adobe Illustrator 27.4.0, SVG Export Plug-In . SVG Version: 6.00 Build 0)  -->
<svg version="1.1" id="Layer_1" xmlns="http://www.w3.org/2000/svg" xmlns:xlink="http://www.w3.org/1999/xlink" x="0px" y="0px"
	 viewBox="0 0 24 24" style="enable-background:new 0 0 24 24;" xml:space="preserve">
<g>
	<path d="M12.001,22.861c-0.146,0-0.293-0.014-0.424-0.042c-0.308-0.065-0.516-0.187-0.779-0.34C8.453,21.11,3,17.351,3,12V7.218
		c0-0.892,0-1.383,0.196-1.899c0.171-0.452,0.455-0.861,0.82-1.183C4.432,3.77,4.891,3.598,5.726,3.285l5.361-2.011
		c0.249-0.093,0.414-0.155,0.63-0.186c0.185-0.028,0.38-0.028,0.574,0.001c0.208,0.03,0.373,0.092,0.623,0.186l5.362,2.01
		c0.835,0.313,1.295,0.485,1.709,0.851c0.363,0.32,0.647,0.729,0.819,1.184C21,5.834,21,6.326,21,7.218V12
		c0,5.352-5.453,9.111-7.798,10.479c-0.264,0.154-0.472,0.275-0.785,0.342C12.29,22.848,12.146,22.861,12.001,22.861z M11.981,3.065
		c-0.021,0.015-0.086,0.042-0.192,0.082L6.427,5.158C5.855,5.372,5.478,5.514,5.339,5.636C5.217,5.743,5.123,5.879,5.066,6.03
		C5,6.203,5,6.584,5,7.218V12c0,4.435,5.209,7.819,6.806,8.752c0.091,0.053,0.152,0.093,0.211,0.117
		c0.025-0.024,0.086-0.064,0.179-0.118C13.791,19.82,19,16.436,19,12V7.218c0-0.633,0-1.015-0.065-1.187
		c-0.058-0.152-0.151-0.288-0.272-0.395c-0.139-0.122-0.497-0.256-1.089-0.478l-5.362-2.011C12.105,3.107,12.039,3.08,11.981,3.065z
		 M12,18c-0.552,0-1-0.447-1-1v-0.5h-0.133c-1.069,0-2.042-0.588-2.539-1.535c-0.257-0.488-0.069-1.093,0.42-1.35
		c0.49-0.258,1.094-0.069,1.351,0.42c0.151,0.286,0.445,0.465,0.769,0.465H13c0.552,0,1-0.448,1-1c0-0.551-0.448-1-1-1h-2
		c-1.654,0-3-1.346-3-3s1.346-3,3-3V6c0-0.552,0.448-1,1-1s1,0.448,1,1v0.5h0.133c1.068,0,2.042,0.588,2.539,1.535
		c0.258,0.489,0.069,1.093-0.419,1.351c-0.488,0.257-1.094,0.069-1.351-0.42C13.751,8.678,13.456,8.5,13.133,8.5H11
		c-0.551,0-1,0.449-1,1s0.449,1,1,1h2c1.654,0,3,1.346,3,3s-1.346,3-3,3V17C13,17.553,12.552,18,12,18z"/>
</g>
</svg>
