<?xml version="1.0" encoding="iso-8859-1"?>
<!-- Generator: Adobe Illustrator 27.4.0, SVG Export Plug-In . SVG Version: 6.00 Build 0)  -->
<svg version="1.1" id="Layer_1" xmlns="http://www.w3.org/2000/svg" xmlns:xlink="http://www.w3.org/1999/xlink" x="0px" y="0px"
	 viewBox="0 0 24 24" style="enable-background:new 0 0 24 24;" xml:space="preserve">
<g>
	<path d="M12.001,22.861c-0.146,0-0.293-0.014-0.424-0.042c-0.308-0.065-0.516-0.187-0.779-0.34C8.453,21.11,3,17.351,3,12V7.218
		c0-0.892,0-1.383,0.196-1.899c0.171-0.452,0.455-0.861,0.82-1.183C4.432,3.77,4.891,3.598,5.726,3.285l5.361-2.011
		c0.249-0.093,0.414-0.155,0.63-0.186c0.185-0.028,0.38-0.028,0.574,0.001c0.208,0.03,0.373,0.092,0.623,0.186l5.362,2.01
		c0.835,0.313,1.295,0.485,1.709,0.851c0.363,0.32,0.647,0.729,0.819,1.184C21,5.834,21,6.326,21,7.218V12
		c0,5.352-5.453,9.111-7.798,10.479c-0.264,0.154-0.472,0.275-0.785,0.342C12.29,22.848,12.146,22.861,12.001,22.861z M13,3.443
		v16.812c2.08-1.351,6-4.407,6-8.255V7.218c0-0.633,0-1.015-0.065-1.187c-0.058-0.152-0.151-0.288-0.272-0.395
		c-0.139-0.122-0.497-0.256-1.089-0.478L13,3.443z M11,3.443L6.427,5.158C5.855,5.372,5.478,5.514,5.339,5.636
		C5.217,5.743,5.123,5.879,5.066,6.03C5,6.203,5,6.584,5,7.218V12c0,3.847,3.918,6.903,6,8.254V3.443z"/>
</g>
</svg>
