<?xml version="1.0" encoding="iso-8859-1"?>
<!-- Generator: Adobe Illustrator 27.4.0, SVG Export Plug-In . SVG Version: 6.00 Build 0)  -->
<svg version="1.1" id="Layer_1" xmlns="http://www.w3.org/2000/svg" xmlns:xlink="http://www.w3.org/1999/xlink" x="0px" y="0px"
	 viewBox="0 0 24 24" style="enable-background:new 0 0 24 24;" xml:space="preserve">
<g>
	<path d="M16.229,23H7.771c-1.995,0-2.997,0-3.892-0.488c-0.782-0.426-1.407-1.112-1.76-1.933c-0.402-0.937-0.309-1.933-0.124-3.917
		l0.601-6.403C2.75,8.628,2.833,7.73,3.294,6.955C3.703,6.27,4.298,5.728,5.018,5.386C5.591,5.114,6.209,5.034,7.099,5.01
		C7.56,2.726,9.583,1,12,1c2.417,0,4.44,1.726,4.901,4.01c0.89,0.024,1.508,0.104,2.083,0.377c0.718,0.34,1.313,0.883,1.722,1.568
		c0.462,0.775,0.546,1.674,0.698,3.304l0.601,6.399c0.186,1.993,0.278,2.986-0.124,3.922c-0.352,0.818-0.977,1.505-1.76,1.932
		C19.226,23,18.225,23,16.229,23z M7,7.013c-0.529,0.02-0.886,0.066-1.125,0.18c-0.36,0.17-0.658,0.442-0.862,0.785
		c-0.23,0.387-0.299,1.126-0.425,2.467l0,0l-0.6,6.4c-0.149,1.597-0.232,2.476-0.03,2.944c0.176,0.409,0.488,0.753,0.879,0.966
		C5.285,21,6.168,21,7.771,21h8.458c1.604,0,2.486,0,2.935-0.244c0.392-0.213,0.703-0.556,0.879-0.966
		c0.201-0.468,0.12-1.343-0.028-2.932l-0.603-6.413c-0.125-1.341-0.194-2.08-0.425-2.467c-0.204-0.343-0.502-0.614-0.86-0.784
		C17.886,7.08,17.529,7.033,17,7.013V9c0,0.552-0.447,1-1,1s-1-0.448-1-1V7H9v2c0,0.552-0.448,1-1,1S7,9.552,7,9V7.013z
		 M3.592,10.352h0.01H3.592z M9.172,5h5.657C14.416,3.836,13.304,3,12,3C10.697,3,9.584,3.836,9.172,5z"/>
</g>
</svg>
