<?xml version="1.0" encoding="iso-8859-1"?>
<!-- Generator: Adobe Illustrator 27.4.0, SVG Export Plug-In . SVG Version: 6.00 Build 0)  -->
<svg version="1.1" id="Layer_1" xmlns="http://www.w3.org/2000/svg" xmlns:xlink="http://www.w3.org/1999/xlink" x="0px" y="0px"
	 viewBox="0 0 24 24" style="enable-background:new 0 0 24 24;" xml:space="preserve">
<g>
	<path d="M19,22H7.684c-0.31,0-0.578,0-0.871-0.131c-0.261-0.118-0.48-0.306-0.638-0.544c-0.179-0.272-0.221-0.537-0.269-0.845
		L3.146,3H2C1.448,3,1,2.552,1,2s0.448-1,1-1h1.316c0.311,0,0.58,0,0.875,0.133C4.449,1.25,4.668,1.437,4.825,1.674
		c0.179,0.273,0.221,0.539,0.269,0.846L5.486,5h15.555c0.427,0,0.763,0,1.112,0.202c0.303,0.175,0.538,0.456,0.658,0.789
		c0.139,0.381,0.077,0.713,0,1.133l-1.351,7.427c-0.188,1.039-0.292,1.611-0.649,2.137c-0.315,0.463-0.752,0.827-1.264,1.055
		C18.966,18,18.385,18,17.329,18H7.539l0.316,2H19c0.553,0,1,0.447,1,1S19.553,22,19,22z M7.917,20.377L7.917,20.377L7.917,20.377z
		 M7.223,16h10.106c0.73,0,1.213,0,1.407-0.086c0.171-0.076,0.316-0.197,0.421-0.352c0.119-0.175,0.206-0.649,0.336-1.368L20.802,7
		h-15L7.223,16z M21.345,7.005L21.345,7.005L21.345,7.005z M20.894,6.465C20.894,6.465,20.894,6.465,20.894,6.465
		S20.894,6.465,20.894,6.465z"/>
</g>
</svg>
