<?xml version="1.0" encoding="iso-8859-1"?>
<!-- Generator: Adobe Illustrator 27.4.0, SVG Export Plug-In . SVG Version: 6.00 Build 0)  -->
<svg version="1.1" id="Layer_1" xmlns="http://www.w3.org/2000/svg" xmlns:xlink="http://www.w3.org/1999/xlink" x="0px" y="0px"
	 viewBox="0 0 24 24" style="enable-background:new 0 0 24 24;" xml:space="preserve">
<g>
	<path d="M16.283,22H7.716c-1.977,0-2.969,0-3.86-0.481c-0.78-0.423-1.404-1.103-1.76-1.913c-0.407-0.929-0.324-1.917-0.16-3.887
		l0.7-8.4l0.997,0.083L2.636,7.318l0.997,0.083L2.637,7.314c0.137-1.646,0.212-2.552,0.671-3.335
		C3.713,3.288,4.31,2.738,5.034,2.392C5.852,2,6.763,2,8.416,2h7.167c1.653,0,2.563,0,3.383,0.392
		c0.724,0.346,1.32,0.895,1.726,1.588c0.459,0.785,0.535,1.692,0.671,3.339l0.7,8.4c0.165,1.97,0.247,2.958-0.159,3.887
		c-0.356,0.812-0.981,1.491-1.76,1.912C19.252,22,18.26,22,16.283,22z M8.416,4c-1.36,0-2.11,0-2.519,0.196
		C5.535,4.369,5.236,4.644,5.034,4.99C4.805,5.381,4.743,6.127,4.63,7.48l0,0.004l-0.7,8.4c-0.132,1.582-0.205,2.453-0.001,2.918
		c0.178,0.405,0.49,0.745,0.88,0.957C5.253,20,6.128,20,7.716,20h8.567c1.588,0,2.463,0,2.908-0.241
		c0.389-0.21,0.702-0.551,0.88-0.957c0.203-0.463,0.131-1.335-0.001-2.917l-0.7-8.4c-0.113-1.355-0.175-2.101-0.405-2.495
		c-0.202-0.346-0.501-0.621-0.862-0.793C17.693,4,16.943,4,15.583,4H8.416z M12,13c-1.335,0-2.591-0.52-3.535-1.464
		C7.52,10.591,7,9.335,7,8c0-0.552,0.448-1,1-1s1,0.448,1,1c0,0.801,0.312,1.555,0.879,2.122c1.133,1.133,3.111,1.132,4.243,0
		C14.688,9.554,15,8.801,15,8c0-0.552,0.447-1,1-1s1,0.448,1,1c0,1.335-0.521,2.59-1.465,3.536C14.591,12.48,13.335,13,12,13z"/>
</g>
</svg>
