<?xml version="1.0" encoding="iso-8859-1"?>
<!-- Generator: Adobe Illustrator 27.4.0, SVG Export Plug-In . SVG Version: 6.00 Build 0)  -->
<svg version="1.1" id="Layer_1" xmlns="http://www.w3.org/2000/svg" xmlns:xlink="http://www.w3.org/1999/xlink" x="0px" y="0px"
	 viewBox="0 0 24 24" style="enable-background:new 0 0 24 24;" xml:space="preserve">
<g>
	<path d="M17,23c-1.103,0-2-0.897-2-2s0.897-2,2-2s2,0.897,2,2S18.103,23,17,23z M17,20.998V21V20.998z M9,23c-1.103,0-2-0.897-2-2
		s0.897-2,2-2s2,0.897,2,2S10.103,23,9,23z M9,20.999L9,20.999L9,20.999z M17.352,17.5H8.794c-1.098,0-1.703,0-2.3-0.273
		c-0.527-0.243-0.97-0.63-1.28-1.118c-0.352-0.555-0.434-1.154-0.581-2.242L3.133,3H2C1.448,3,1,2.552,1,2s0.448-1,1-1h1.306
		c0.315,0,0.587,0,0.885,0.136c0.26,0.119,0.481,0.31,0.638,0.553c0.177,0.277,0.215,0.546,0.26,0.857L5.438,5h15.595
		c0.43,0,0.769,0,1.118,0.205c0.308,0.178,0.542,0.462,0.66,0.799c0.133,0.377,0.07,0.708-0.009,1.125l-1.325,6.957
		c-0.195,1.027-0.303,1.595-0.662,2.115c-0.314,0.458-0.75,0.819-1.261,1.044C18.977,17.5,18.399,17.5,17.352,17.5z M5.717,7
		l0.897,6.597c0.103,0.756,0.17,1.255,0.288,1.439c0.104,0.163,0.251,0.292,0.427,0.373C7.527,15.5,8.031,15.5,8.794,15.5h8.558
		c0.725,0,1.203,0,1.396-0.085c0.17-0.075,0.315-0.195,0.42-0.348c0.12-0.175,0.21-0.645,0.345-1.355L20.792,7H5.717z"/>
</g>
</svg>
