<?xml version="1.0" encoding="iso-8859-1"?>
<!-- Generator: Adobe Illustrator 27.4.0, SVG Export Plug-In . SVG Version: 6.00 Build 0)  -->
<svg version="1.1" id="Layer_1" xmlns="http://www.w3.org/2000/svg" xmlns:xlink="http://www.w3.org/1999/xlink" x="0px" y="0px"
	 viewBox="0 0 24 24" style="enable-background:new 0 0 24 24;" xml:space="preserve">
<g>
	<path d="M16.5,23c-0.827,0-1.5-0.673-1.5-1.5s0.673-1.5,1.5-1.5s1.5,0.673,1.5,1.5S17.327,23,16.5,23z M7.5,23
		C6.673,23,6,22.327,6,21.5S6.673,20,7.5,20S9,20.673,9,21.5S8.327,23,7.5,23z M19,19H5.751c-0.337,0-0.629,0-0.941-0.153
		c-0.27-0.13-0.495-0.342-0.646-0.607c-0.17-0.299-0.188-0.59-0.209-0.926L3.061,3H2C1.448,3,1,2.552,1,2s0.448-1,1-1h1.249
		c0.336,0,0.627,0,0.938,0.151c0.277,0.135,0.501,0.347,0.65,0.612c0.169,0.298,0.188,0.588,0.208,0.924L5.127,4h15.979
		c0.404,0,0.724,0,1.062,0.188c0.29,0.16,0.525,0.42,0.656,0.732c0.149,0.365,0.114,0.68,0.07,1.079l-0.585,5.265
		c-0.125,1.12-0.193,1.732-0.542,2.301c-0.305,0.501-0.749,0.899-1.284,1.151C19.877,15,19.259,15,18.136,15H5.814l0.125,2H19
		c0.553,0,1,0.447,1,1S19.553,19,19,19z M5.969,17.42L5.969,17.42L5.969,17.42z M5.519,16.997L5.519,16.997L5.519,16.997z M5.689,13
		h12.446c0.781,0,1.298,0,1.499-0.094c0.177-0.083,0.325-0.216,0.428-0.383c0.116-0.19,0.173-0.701,0.26-1.473L20.883,6H5.252
		L5.689,13z"/>
</g>
</svg>
