<?xml version="1.0" encoding="iso-8859-1"?>
<!-- Generator: Adobe Illustrator 27.4.0, SVG Export Plug-In . SVG Version: 6.00 Build 0)  -->
<svg version="1.1" id="Layer_1" xmlns="http://www.w3.org/2000/svg" xmlns:xlink="http://www.w3.org/1999/xlink" x="0px" y="0px"
	 viewBox="0 0 24 24" style="enable-background:new 0 0 24 24;" xml:space="preserve">
<g>
	<path d="M17.8,23H6.2c-1.238,0-1.92,0-2.562-0.326c-0.57-0.292-1.022-0.744-1.312-1.311C2,20.721,2,20.038,2,18.8V7.067
		c0-0.431,0-0.69,0.056-0.976C2.106,5.836,2.188,5.59,2.3,5.359c0.125-0.26,0.281-0.468,0.54-0.812L4.72,2.04c0,0,0,0,0,0
		c0.201-0.268,0.346-0.462,0.571-0.633c0.198-0.151,0.422-0.263,0.664-0.331C6.219,1,6.45,1,6.8,1h10.4c0.349,0,0.58,0,0.85,0.077
		c0.238,0.067,0.462,0.179,0.661,0.331c0.22,0.167,0.357,0.35,0.565,0.626c-0.001,0.001,0.002,0.004,0.004,0.006l1.88,2.506
		c0.258,0.344,0.412,0.551,0.539,0.812c0.114,0.237,0.195,0.482,0.245,0.732C22,6.376,22,6.636,22,7.067V18.8
		c0,1.238,0,1.921-0.326,2.562c-0.291,0.567-0.744,1.021-1.311,1.311C19.721,23,19.038,23,17.8,23z M4,6.988C4,7.014,4,7.04,4,7.067
		V18.8c0,0.867,0,1.44,0.109,1.654c0.096,0.188,0.248,0.341,0.438,0.438C4.76,21,5.333,21,6.2,21h11.6c0.867,0,1.44,0,1.654-0.109
		c0.188-0.096,0.341-0.248,0.438-0.438C20,20.24,20,19.667,20,18.8V7.067c0-0.027,0-0.053,0-0.079C19.82,7,19.623,7,19.4,7H4.6
		C4.377,7,4.18,7,4,6.988z M19.549,5.752L19.549,5.752L19.549,5.752z M5,5h14l-1.319-1.76c-0.001,0-0.001-0.001-0.001-0.001
		c-0.093-0.123-0.146-0.201-0.2-0.256C17.447,2.995,17.352,3,17.2,3H6.8C6.65,3,6.554,2.996,6.475,3.006
		c-0.01,0.033-0.063,0.112-0.154,0.233c0,0-0.001,0.001-0.001,0.001L5,5z M12,15c-1.334,0-2.59-0.52-3.535-1.464
		C7.52,12.591,7,11.335,7,10c0-0.552,0.448-1,1-1s1,0.448,1,1c0,0.801,0.312,1.555,0.879,2.122c1.125,1.124,3.117,1.125,4.242,0
		C14.688,11.554,15,10.801,15,10c0-0.552,0.447-1,1-1s1,0.448,1,1c0,1.335-0.521,2.59-1.465,3.535C14.604,14.467,13.315,15,12,15z"
		/>
</g>
</svg>
