<?xml version="1.0" encoding="iso-8859-1"?>
<!-- Generator: Adobe Illustrator 27.4.0, SVG Export Plug-In . SVG Version: 6.00 Build 0)  -->
<svg version="1.1" id="Layer_1" xmlns="http://www.w3.org/2000/svg" xmlns:xlink="http://www.w3.org/1999/xlink" x="0px" y="0px"
	 viewBox="0 0 24 24" style="enable-background:new 0 0 24 24;" xml:space="preserve">
<g>
	<path d="M21,22h-5c-0.553,0-1-0.447-1-1s0.447-1,1-1h2.586l-4.293-4.293c-0.391-0.391-0.391-1.023,0-1.414s1.023-0.391,1.414,0
		L20,18.586V16c0-0.553,0.447-1,1-1s1,0.447,1,1v5c0,0.001,0,0.002,0,0.003l0,0c0,0.134-0.027,0.262-0.075,0.378
		c-0.049,0.119-0.121,0.229-0.218,0.326s-0.207,0.169-0.326,0.218C21.265,21.973,21.137,22,21.003,22l0,0C21.002,22,21.001,22,21,22
		z M3,22c-0.256,0-0.512-0.098-0.707-0.293c-0.391-0.391-0.391-1.023,0-1.414L18.586,4H16c-0.553,0-1-0.448-1-1s0.447-1,1-1h5
		c0.001,0,0.002,0,0.003,0l0,0c0.134,0,0.262,0.027,0.378,0.075c0.119,0.049,0.229,0.122,0.326,0.218s0.169,0.208,0.218,0.326
		C21.973,2.735,22,2.863,22,2.997l0,0C22,2.998,22,2.999,22,3v5c0,0.552-0.447,1-1,1s-1-0.448-1-1V5.414L3.707,21.707
		C3.512,21.902,3.256,22,3,22z M9,10c-0.256,0-0.512-0.098-0.707-0.293l-6-6c-0.391-0.391-0.391-1.023,0-1.414s1.023-0.391,1.414,0
		l6,6c0.391,0.391,0.391,1.023,0,1.414C9.512,9.902,9.256,10,9,10z"/>
</g>
</svg>
