<?xml version="1.0" encoding="iso-8859-1"?>
<!-- Generator: Adobe Illustrator 27.4.0, SVG Export Plug-In . SVG Version: 6.00 Build 0)  -->
<svg version="1.1" id="Layer_1" xmlns="http://www.w3.org/2000/svg" xmlns:xlink="http://www.w3.org/1999/xlink" x="0px" y="0px"
	 viewBox="0 0 24 24" style="enable-background:new 0 0 24 24;" xml:space="preserve">
<g>
	<path d="M18,22c-0.256,0-0.512-0.098-0.707-0.293c-0.391-0.391-0.391-1.023,0-1.414L18.586,19h-0.017c-1.005,0-1.558,0-2.127-0.173
		c-0.505-0.153-0.969-0.401-1.377-0.738c-0.458-0.374-0.765-0.835-1.321-1.67l-0.242-0.363c-0.308-0.459-0.184-1.08,0.275-1.387
		c0.46-0.307,1.081-0.183,1.387,0.275l0.242,0.362c0.467,0.7,0.7,1.05,0.929,1.237c0.205,0.169,0.437,0.293,0.688,0.369
		C17.309,17,17.73,17,18.569,17h0.017l-1.293-1.293c-0.391-0.391-0.391-1.023,0-1.414s1.023-0.391,1.414,0l3,3
		c0.097,0.097,0.169,0.207,0.218,0.326C21.973,17.735,22,17.863,22,17.997l0,0c0,0.002,0,0.004,0,0.006l0,0
		c0,0.134-0.027,0.262-0.075,0.378c-0.049,0.119-0.121,0.229-0.218,0.326l-3,3C18.512,21.902,18.256,22,18,22z M5.431,19H3
		c-0.552,0-1-0.447-1-1s0.448-1,1-1h2.431c0.839,0,1.26,0,1.543-0.087c0.254-0.076,0.486-0.2,0.689-0.367
		c0.229-0.188,0.46-0.534,0.92-1.226l5.159-7.738c0.556-0.834,0.862-1.294,1.323-1.673c0.409-0.336,0.872-0.583,1.376-0.737
		C17.012,5,17.565,5,18.569,5h0.017l-1.293-1.293c-0.391-0.391-0.391-1.023,0-1.414s1.023-0.391,1.414,0l3,3
		c0.097,0.096,0.169,0.208,0.218,0.326C21.973,5.735,22,5.863,22,5.997l0,0c0,0.002,0,0.004,0,0.006l0,0
		c0,0.134-0.027,0.262-0.075,0.378c-0.049,0.119-0.121,0.23-0.218,0.326l-3,3c-0.391,0.391-1.023,0.391-1.414,0
		s-0.391-1.023,0-1.414L18.586,7h-0.017c-0.84,0-1.261,0-1.546,0.086c-0.251,0.077-0.483,0.201-0.688,0.369
		c-0.222,0.182-0.433,0.492-0.929,1.237l-5.15,7.725c-0.562,0.842-0.866,1.299-1.324,1.674c-0.406,0.335-0.87,0.583-1.377,0.736
		C6.989,19,6.436,19,5.431,19z M9.667,9.5c-0.323,0-0.641-0.156-0.833-0.446L8.593,8.691c-0.466-0.699-0.7-1.048-0.929-1.237
		C7.46,7.287,7.228,7.163,6.975,7.086C6.691,7,6.27,7,5.431,7H3C2.448,7,2,6.552,2,6s0.448-1,1-1h2.431c1.004,0,1.557,0,2.125,0.172
		c0.505,0.154,0.969,0.401,1.377,0.737c0.459,0.377,0.765,0.836,1.321,1.669l0.244,0.367c0.307,0.459,0.182,1.08-0.277,1.386
		C10.05,9.446,9.858,9.5,9.667,9.5z"/>
</g>
</svg>
