<?xml version="1.0" encoding="iso-8859-1"?>
<!-- Generator: Adobe Illustrator 27.4.0, SVG Export Plug-In . SVG Version: 6.00 Build 0)  -->
<svg version="1.1" id="Layer_1" xmlns="http://www.w3.org/2000/svg" xmlns:xlink="http://www.w3.org/1999/xlink" x="0px" y="0px"
	 viewBox="0 0 24 24" style="enable-background:new 0 0 24 24;" xml:space="preserve">
<g>
	<path d="M4.929,20.071c-0.256,0-0.512-0.098-0.707-0.293c-4.289-4.289-4.289-11.268,0-15.557c4.29-4.289,11.269-4.289,15.557,0
		c4.289,4.289,4.289,11.268,0,15.557c-0.391,0.391-1.023,0.391-1.414,0s-0.391-1.023,0-1.414c3.509-3.51,3.509-9.219,0-12.729
		c-3.511-3.508-9.22-3.509-12.729,0s-3.509,9.22,0,12.729c0.391,0.391,0.391,1.023,0,1.414C5.44,19.974,5.185,20.071,4.929,20.071z
		 M16.242,17.242c-0.256,0-0.512-0.098-0.707-0.293c-0.391-0.391-0.391-1.023,0-1.414C16.479,14.591,17,13.335,17,12
		c0-1.335-0.521-2.591-1.465-3.536S13.335,7,12,7c-1.335,0-2.591,0.52-3.536,1.464S7,10.665,7,12c0,1.335,0.52,2.591,1.464,3.535
		c0.391,0.391,0.391,1.023,0,1.414s-1.023,0.391-1.414,0C5.728,15.627,5,13.87,5,12c0-1.87,0.728-3.627,2.05-4.95S10.13,5,12,5
		c1.87,0,3.627,0.728,4.949,2.05S19,10.13,19,12c0,1.87-0.729,3.628-2.051,4.949C16.754,17.145,16.498,17.242,16.242,17.242z
		 M13.414,14.414c-0.256,0-0.512-0.098-0.708-0.293c-0.39-0.391-0.39-1.024,0-1.415C12.896,12.518,13,12.267,13,12
		s-0.104-0.518-0.293-0.707c-0.378-0.379-1.037-0.378-1.414,0C11.104,11.482,11,11.733,11,12s0.104,0.518,0.293,0.707
		c0.391,0.39,0.391,1.024,0,1.415c-0.391,0.391-1.024,0.391-1.415,0C9.312,13.555,9,12.801,9,12s0.312-1.555,0.879-2.122
		c1.133-1.133,3.109-1.133,4.242,0C14.688,10.445,15,11.199,15,12s-0.312,1.555-0.879,2.121
		C13.926,14.316,13.67,14.414,13.414,14.414z"/>
</g>
</svg>
