<?xml version="1.0" encoding="iso-8859-1"?>
<!-- Generator: Adobe Illustrator 27.4.0, SVG Export Plug-In . SVG Version: 6.00 Build 0)  -->
<svg version="1.1" id="Layer_1" xmlns="http://www.w3.org/2000/svg" xmlns:xlink="http://www.w3.org/1999/xlink" x="0px" y="0px"
	 viewBox="0 0 24 24" style="enable-background:new 0 0 24 24;" xml:space="preserve">
<g>
	<path d="M19.071,20.071c-0.256,0-0.512-0.098-0.707-0.293c-0.391-0.391-0.391-1.023,0-1.414c3.509-3.51,3.509-9.219,0-12.729
		c-0.391-0.391-0.391-1.023,0-1.414s1.023-0.391,1.414,0c4.289,4.289,4.289,11.268,0,15.557
		C19.583,19.974,19.327,20.071,19.071,20.071z M4.929,20.07c-0.256,0-0.512-0.098-0.707-0.293C2.144,17.7,1,14.938,1,12
		s1.144-5.701,3.222-7.778c0.391-0.391,1.023-0.391,1.414,0c0.391,0.39,0.391,1.023,0,1.414C3.936,7.335,3,9.596,3,12
		s0.936,4.664,2.636,6.363c0.391,0.391,0.391,1.023,0,1.414C5.44,19.973,5.185,20.07,4.929,20.07z M7.757,17.242
		c-0.256,0-0.512-0.098-0.707-0.293C5.728,15.627,5,13.869,5,12c0-1.87,0.728-3.628,2.05-4.95c0.391-0.391,1.023-0.391,1.414,0
		s0.391,1.024,0,1.414C7.52,9.409,7,10.664,7,12c0,1.335,0.52,2.591,1.464,3.535c0.391,0.391,0.391,1.023,0,1.414
		C8.269,17.145,8.013,17.242,7.757,17.242z M16.242,17.242c-0.256,0-0.512-0.098-0.707-0.293c-0.391-0.391-0.391-1.023,0-1.414
		C16.479,14.591,17,13.335,17,12c0-1.336-0.521-2.591-1.465-3.536c-0.391-0.39-0.391-1.023,0-1.414s1.023-0.391,1.414,0
		C18.271,8.372,19,10.13,19,12s-0.729,3.628-2.051,4.949C16.754,17.145,16.498,17.242,16.242,17.242z M12,15c-1.654,0-3-1.346-3-3
		s1.346-3,3-3s3,1.346,3,3S13.654,15,12,15z M12,11c-0.551,0-1,0.449-1,1s0.449,1,1,1s1-0.449,1-1S12.551,11,12,11z"/>
</g>
</svg>
