<?xml version="1.0" encoding="iso-8859-1"?>
<!-- Generator: Adobe Illustrator 27.4.0, SVG Export Plug-In . SVG Version: 6.00 Build 0)  -->
<svg version="1.1" id="Layer_1" xmlns="http://www.w3.org/2000/svg" xmlns:xlink="http://www.w3.org/1999/xlink" x="0px" y="0px"
	 viewBox="0 0 24 24" style="enable-background:new 0 0 24 24;" xml:space="preserve">
<g>
	<path d="M12,22c-0.552,0-1-0.447-1-1v-8.171C9.836,12.416,9,11.304,9,10c0-1.654,1.346-3,3-3s3,1.346,3,3
		c0,1.304-0.836,2.416-2,2.829V21C13,21.553,12.552,22,12,22z M12,9c-0.551,0-1,0.449-1,1s0.449,1,1,1s1-0.449,1-1S12.551,9,12,9z
		 M19.071,18.07c-0.256,0-0.512-0.098-0.707-0.293c-0.391-0.391-0.391-1.023,0-1.414C20.064,14.664,21,12.404,21,10
		c0-2.404-0.936-4.664-2.636-6.364c-0.391-0.391-0.391-1.023,0-1.414s1.023-0.391,1.414,0C21.856,4.299,23,7.062,23,10
		c0,2.938-1.144,5.7-3.222,7.777C19.583,17.973,19.327,18.07,19.071,18.07z M4.929,18.07c-0.256,0-0.512-0.098-0.707-0.293
		C2.144,15.7,1,12.938,1,10c0-2.938,1.144-5.701,3.222-7.778c0.391-0.391,1.023-0.391,1.414,0s0.391,1.023,0,1.414
		C3.936,5.336,3,7.596,3,10c0,2.404,0.936,4.664,2.636,6.363c0.391,0.391,0.391,1.023,0,1.414C5.44,17.973,5.185,18.07,4.929,18.07z
		 M7.757,15.242c-0.256,0-0.512-0.098-0.707-0.293C5.728,13.627,5,11.87,5,10c0-1.87,0.728-3.627,2.05-4.95
		c0.391-0.391,1.023-0.391,1.414,0s0.391,1.023,0,1.414C7.52,7.408,7,8.664,7,10c0,1.336,0.52,2.591,1.464,3.536
		c0.391,0.391,0.391,1.023,0,1.414C8.269,15.145,8.013,15.242,7.757,15.242z M16.243,15.242c-0.256,0-0.512-0.098-0.707-0.293
		c-0.391-0.391-0.391-1.023,0-1.414c1.949-1.949,1.949-5.122,0-7.071c-0.391-0.391-0.391-1.024,0-1.414
		c0.391-0.391,1.023-0.391,1.414,0c2.729,2.729,2.729,7.17,0,9.899C16.755,15.145,16.499,15.242,16.243,15.242z"/>
</g>
</svg>
