<?xml version="1.0" encoding="iso-8859-1"?>
<!-- Generator: Adobe Illustrator 27.4.0, SVG Export Plug-In . SVG Version: 6.00 Build 0)  -->
<svg version="1.1" id="Layer_1" xmlns="http://www.w3.org/2000/svg" xmlns:xlink="http://www.w3.org/1999/xlink" x="0px" y="0px"
	 viewBox="0 0 24 24" style="enable-background:new 0 0 24 24;" xml:space="preserve">
<g>
	<path d="M15.2,23H8.8c-1.838,0-2.76,0-3.616-0.437c-0.757-0.385-1.362-0.989-1.748-1.747C3,19.96,3,19.037,3,17.2V6.8
		c0-1.838,0-2.76,0.436-3.616c0.386-0.757,0.991-1.362,1.748-1.748C6.04,1,6.962,1,8.8,1h3.212c0.786,0,1.219,0,1.68,0.111
		c0.407,0.097,0.796,0.258,1.155,0.478c0.4,0.246,0.701,0.546,1.247,1.091l3.207,3.208c0.554,0.553,0.859,0.858,1.109,1.266
		c0.22,0.356,0.381,0.746,0.479,1.157C21,8.769,21,9.202,21,9.988V17.2c0,1.837,0,2.76-0.436,3.616
		c-0.386,0.758-0.99,1.362-1.749,1.748C17.96,23,17.037,23,15.2,23z M8.8,3C7.33,3,6.52,3,6.092,3.218
		C5.713,3.411,5.411,3.713,5.218,4.092C5,4.52,5,5.33,5,6.8v10.4c0,1.47,0,2.279,0.218,2.708c0.193,0.379,0.495,0.681,0.873,0.873
		C6.52,21,7.33,21,8.8,21h6.4c1.47,0,2.279,0,2.708-0.219c0.379-0.192,0.681-0.494,0.873-0.872C19,19.479,19,18.67,19,17.2V9.988
		c0-0.654,0-0.982-0.056-1.212c-0.049-0.206-0.129-0.399-0.238-0.577c-0.122-0.199-0.339-0.419-0.818-0.897l-3.188-3.189
		c-0.471-0.47-0.698-0.697-0.896-0.818c-0.18-0.109-0.374-0.19-0.578-0.239C12.994,3,12.666,3,12.012,3H8.8z"/>
</g>
<g>
	<path d="M15.2,19H8.8c-0.354,0-0.661,0-0.982-0.164c-0.283-0.145-0.511-0.372-0.655-0.658C7,17.862,7,17.556,7,17.2v-3.4
		c0-0.355,0-0.662,0.165-0.983c0.142-0.28,0.369-0.508,0.655-0.653C8.139,12,8.445,12,8.8,12h6.4c0.355,0,0.662,0,0.983,0.165
		c0.281,0.142,0.51,0.371,0.654,0.658C17,13.138,17,13.444,17,13.8v3.4c0,0.355,0,0.662-0.165,0.983
		c-0.142,0.281-0.37,0.51-0.657,0.654C15.862,19,15.556,19,15.2,19z M9.004,17.449h0.01H9.004z M9,17h6v-3H9V17z"/>
</g>
</svg>
