<?xml version="1.0" encoding="iso-8859-1"?>
<!-- Generator: Adobe Illustrator 27.4.0, SVG Export Plug-In . SVG Version: 6.00 Build 0)  -->
<svg version="1.1" id="Layer_1" xmlns="http://www.w3.org/2000/svg" xmlns:xlink="http://www.w3.org/1999/xlink" x="0px" y="0px"
	 viewBox="0 0 24 24" style="enable-background:new 0 0 24 24;" xml:space="preserve">
<g>
	<path d="M18.4,22H17.6c-0.65,0-1.081,0-1.509-0.219c-0.378-0.191-0.681-0.494-0.873-0.874c-0.144-0.28-0.192-0.562-0.209-0.907
		H6.991c-0.017,0.345-0.066,0.627-0.209,0.908c-0.193,0.379-0.496,0.681-0.875,0.874C5.481,22,5.051,22,4.4,22H3.6
		c-0.651,0-1.081,0-1.51-0.219c-0.377-0.192-0.679-0.494-0.872-0.873C1,20.48,1,20.051,1,19.4V18.6c0-0.65,0-1.08,0.218-1.508
		c0.193-0.379,0.496-0.681,0.875-0.874C2.501,16.009,2.913,16,3.52,16l1.431-8.011c-0.323-0.02-0.591-0.07-0.858-0.207
		C3.713,7.588,3.412,7.287,3.219,6.91C3,6.48,3,6.05,3,5.4V4.6c0-0.65,0-1.08,0.218-1.508C3.412,2.713,3.713,2.412,4.09,2.219
		C4.52,2,4.95,2,5.6,2h0.8c0.65,0,1.08,0,1.508,0.218C8.287,2.412,8.588,2.713,8.781,3.09C8.925,3.373,8.974,3.655,8.991,4h8.018
		c0.017-0.345,0.066-0.628,0.21-0.91c0.192-0.377,0.494-0.679,0.873-0.872C18.52,2,18.949,2,19.6,2H20.4c0.65,0,1.08,0,1.508,0.218
		c0.379,0.193,0.681,0.496,0.874,0.875C23,3.519,23,3.949,23,4.6v0.8c0,0.651,0,1.081-0.219,1.51
		c-0.192,0.377-0.494,0.679-0.873,0.872C21.521,7.979,21.133,7.998,20.581,8l-1.151,8.057c0.168,0.032,0.323,0.083,0.479,0.162
		c0.378,0.191,0.681,0.494,0.873,0.874C21,17.519,21,17.949,21,18.6V19.4c0,0.65,0,1.081-0.219,1.509
		c-0.191,0.378-0.494,0.681-0.874,0.873C19.481,22,19.051,22,18.4,22z M3.6,18c-0.278,0-0.566,0-0.648,0.02
		C3,18.033,3,18.321,3,18.6V19.4c0,0.278,0,0.566,0.02,0.648C3.034,20,3.322,20,3.6,20h0.8c0.278,0,0.566,0,0.648-0.02
		C5,19.967,5,19.679,5,19.4V18.6c0-0.278,0-0.566-0.02-0.648C4.966,18,4.678,18,4.4,18H4.376c-0.012,0-0.024,0-0.037,0H3.6z M17,19
		v0.4c0,0.278,0,0.565,0.02,0.647C17.034,20,17.321,20,17.6,20H18.4c0.278,0,0.565,0,0.647-0.02C19,19.966,19,19.679,19,19.4V18.6
		c0-0.278,0-0.565-0.02-0.647C18.966,18,18.679,18,18.4,18h-0.098c-0.012,0-0.021,0.001-0.032,0H17.6c-0.278,0-0.565,0-0.647,0.02
		C17,18.034,17,18.321,17,18.6V19z M6.991,18h8.018c0.017-0.346,0.066-0.628,0.21-0.909c0.191-0.378,0.494-0.681,0.874-0.873
		c0.385-0.197,0.773-0.216,1.325-0.218l1.151-8.056c-0.167-0.032-0.322-0.083-0.478-0.162c-0.379-0.193-0.681-0.496-0.874-0.875
		C17.075,6.627,17.025,6.345,17.009,6H8.991C8.975,6.345,8.925,6.627,8.782,6.908C8.588,7.287,8.287,7.588,7.91,7.781
		C7.623,7.928,7.335,7.976,6.982,7.992L5.537,16.08c0.127,0.032,0.25,0.076,0.373,0.139c0.377,0.192,0.679,0.494,0.872,0.873
		C6.925,17.373,6.975,17.655,6.991,18z M5.6,4C5.321,4,5.033,4,4.951,4.02C5,4.033,5,4.321,5,4.6v0.8c0,0.279,0,0.567,0.02,0.649
		C5.033,6,5.321,6,5.6,6h0.523C6.136,6,6.148,6,6.16,6H6.4c0.279,0,0.567,0,0.649-0.02C7,5.967,7,5.679,7,5.4V4.6
		c0-0.279,0-0.567-0.02-0.649C6.967,4,6.679,4,6.4,4H5.6z M19,5v0.4c0,0.278,0,0.566,0.02,0.648C19.033,6,19.321,6,19.6,6h0.097
		c0.012,0,0.021,0,0.032,0H20.4c0.278,0,0.566,0,0.648-0.02C21,5.966,21,5.678,21,5.4V4.6c0-0.278,0-0.566-0.02-0.648
		C20.967,4,20.679,4,20.4,4H19.6c-0.278,0-0.566,0-0.648,0.02C19,4.034,19,4.322,19,4.6V5z"/>
</g>
</svg>
