<?xml version="1.0" encoding="iso-8859-1"?>
<!-- Generator: Adobe Illustrator 27.4.0, SVG Export Plug-In . SVG Version: 6.00 Build 0)  -->
<svg version="1.1" id="Layer_1" xmlns="http://www.w3.org/2000/svg" xmlns:xlink="http://www.w3.org/1999/xlink" x="0px" y="0px"
	 viewBox="0 0 24 24" style="enable-background:new 0 0 24 24;" xml:space="preserve">
<g>
	<path d="M5,20c-0.552,0-1-0.447-1-1V5c0-0.552,0.448-1,1-1s1,0.448,1,1v14C6,19.553,5.552,20,5,20z M18.002,19.919
		c-0.69,0.018-1.21-0.405-2.227-1.219l-5.838-4.67C9.302,13.522,8.92,13.217,8.728,12.7c-0.169-0.45-0.169-0.949,0.001-1.402
		c0.191-0.514,0.573-0.819,1.204-1.325l5.843-4.674l0,0L16.4,6.08l-0.622-0.783c1.012-0.809,1.52-1.215,2.22-1.216
		c0.001,0,0.002,0,0.003,0c0.611,0,1.181,0.274,1.562,0.753C20,5.38,20,6.032,20,7.329v9.342c0,1.298,0,1.949-0.438,2.497
		C19.183,19.645,18.614,19.919,18.002,19.919z M10.625,12c0.109,0.106,0.337,0.289,0.56,0.467l5.841,4.672
		c0.362,0.29,0.733,0.588,0.947,0.725C18,17.611,18,17.135,18,16.671V7.329c0-0.464,0-0.94-0.027-1.192
		c-0.213,0.136-0.584,0.433-0.945,0.722L16.4,6.08l0.625,0.781l-5.839,4.671C10.961,11.711,10.733,11.894,10.625,12z M18.102,6.067
		L18.102,6.067L18.102,6.067z"/>
</g>
</svg>
