<?xml version="1.0" encoding="iso-8859-1"?>
<!-- Generator: Adobe Illustrator 27.4.0, SVG Export Plug-In . SVG Version: 6.00 Build 0)  -->
<svg version="1.1" id="Layer_1" xmlns="http://www.w3.org/2000/svg" xmlns:xlink="http://www.w3.org/1999/xlink" x="0px" y="0px"
	 viewBox="0 0 24 24" style="enable-background:new 0 0 24 24;" xml:space="preserve">
<g>
	<path d="M19,20c-0.553,0-1-0.447-1-1V5c0-0.552,0.447-1,1-1s1,0.448,1,1v14C20,19.553,19.553,20,19,20z M5.995,19.919
		c-0.607,0-1.176-0.273-1.558-0.752C4,18.62,4,17.969,4,16.671V7.329c0-1.297,0-1.948,0.436-2.496C4.82,4.354,5.389,4.081,6,4.081
		c0.001,0,0.002,0,0.003,0c0.7,0.001,1.208,0.408,2.222,1.218l5.839,4.671c0.638,0.511,1.017,0.814,1.209,1.329
		c0.168,0.453,0.168,0.949,0.001,1.4c-0.193,0.518-0.574,0.822-1.203,1.326L8.225,18.7c-0.981,0.786-1.522,1.219-2.224,1.219
		C5.999,19.919,5.997,19.919,5.995,19.919z M5.898,17.933L5.898,17.933L5.898,17.933z M6.027,6.137C6,6.389,6,6.866,6,7.329v9.342
		c0,0.464,0,0.939,0.027,1.192c0.214-0.137,0.586-0.435,0.948-0.724c0,0,0-0.001,0-0.001l5.839-4.67
		c0.225-0.181,0.453-0.363,0.561-0.468c-0.107-0.105-0.333-0.286-0.553-0.462L6.975,6.86C6.613,6.571,6.241,6.273,6.027,6.137z
		 M5.898,6.067L5.898,6.067L5.898,6.067z"/>
</g>
</svg>
