<?xml version="1.0" encoding="iso-8859-1"?>
<!-- Generator: Adobe Illustrator 27.4.0, SVG Export Plug-In . SVG Version: 6.00 Build 0)  -->
<svg version="1.1" id="Layer_1" xmlns="http://www.w3.org/2000/svg" xmlns:xlink="http://www.w3.org/1999/xlink" x="0px" y="0px"
	 viewBox="0 0 24 24" style="enable-background:new 0 0 24 24;" xml:space="preserve">
<g>
	<path d="M12,23C5.935,23,1,18.065,1,12c0-3.001,1.208-5.726,3.164-7.713c0.019-0.022,0.038-0.043,0.059-0.064
		c0.021-0.021,0.042-0.041,0.064-0.059C6.274,2.208,8.999,1,12,1c6.065,0,11,4.935,11,11c0,2.999-1.206,5.721-3.158,7.707
		c-0.021,0.024-0.042,0.048-0.064,0.07s-0.046,0.044-0.07,0.064C17.721,21.794,14.999,23,12,23z M4.971,6.385
		C3.738,7.925,3,9.878,3,12c0,4.963,4.038,9,9,9c2.122,0,4.074-0.738,5.615-1.971L4.971,6.385z M6.385,4.971l12.644,12.644
		C20.262,16.074,21,14.122,21,12c0-4.962-4.037-9-9-9C9.878,3,7.925,3.738,6.385,4.971z"/>
</g>
</svg>
