<?xml version="1.0" encoding="iso-8859-1"?>
<!-- Generator: Adobe Illustrator 27.4.0, SVG Export Plug-In . SVG Version: 6.00 Build 0)  -->
<svg version="1.1" id="Layer_1" xmlns="http://www.w3.org/2000/svg" xmlns:xlink="http://www.w3.org/1999/xlink" x="0px" y="0px"
	 viewBox="0 0 24 24" style="enable-background:new 0 0 24 24;" xml:space="preserve">
<g>
	<path d="M12,23c-2.998,0-5.721-1.206-7.707-3.158c-0.024-0.021-0.048-0.042-0.071-0.064c-0.023-0.022-0.044-0.046-0.064-0.07
		C2.206,17.721,1,14.998,1,12c0-3.001,1.208-5.726,3.164-7.713c0.019-0.022,0.038-0.043,0.059-0.064
		c0.021-0.021,0.042-0.041,0.064-0.059C6.274,2.208,8.999,1,12,1c3,0,5.724,1.207,7.71,3.162c0.023,0.019,0.046,0.04,0.067,0.062
		c0.021,0.021,0.042,0.044,0.062,0.067C21.793,6.277,23,9,23,12c0,2.999-1.206,5.721-3.158,7.707
		c-0.021,0.024-0.042,0.048-0.064,0.07s-0.046,0.044-0.07,0.064C17.721,21.794,14.999,23,12,23z M6.385,19.029
		C7.925,20.262,9.878,21,12,21c2.122,0,4.074-0.738,5.615-1.971L12,13.414L6.385,19.029z M4.971,6.385C3.738,7.925,3,9.878,3,12
		c0,2.122,0.738,4.074,1.971,5.615L10.586,12L4.971,6.385z M13.414,12l5.615,5.615C20.262,16.074,21,14.122,21,12
		c0-2.122-0.738-4.074-1.971-5.615L13.414,12z M6.385,4.971L12,10.586l5.615-5.615C16.074,3.738,14.122,3,12,3
		C9.878,3,7.925,3.738,6.385,4.971z"/>
</g>
</svg>
