<?xml version="1.0" encoding="iso-8859-1"?>
<!-- Generator: Adobe Illustrator 27.4.0, SVG Export Plug-In . SVG Version: 6.00 Build 0)  -->
<svg version="1.1" id="Layer_1" xmlns="http://www.w3.org/2000/svg" xmlns:xlink="http://www.w3.org/1999/xlink" x="0px" y="0px"
	 viewBox="0 0 24 24" style="enable-background:new 0 0 24 24;" xml:space="preserve">
<g>
	<path d="M19,22c-0.553,0-1-0.447-1-1v-4h-2c-0.553,0-1-0.447-1-1s0.447-1,1-1h6c0.553,0,1,0.447,1,1s-0.447,1-1,1h-2v4
		C20,21.553,19.553,22,19,22z M12,22c-0.552,0-1-0.447-1-1v-9c0-0.552,0.448-1,1-1s1,0.448,1,1v9C13,21.553,12.552,22,12,22z M5,22
		c-0.552,0-1-0.447-1-1v-6H2c-0.552,0-1-0.447-1-1s0.448-1,1-1h6c0.552,0,1,0.447,1,1s-0.448,1-1,1H6v6C6,21.553,5.552,22,5,22z
		 M19,13c-0.553,0-1-0.448-1-1V3c0-0.552,0.447-1,1-1s1,0.448,1,1v9C20,12.552,19.553,13,19,13z M5,11c-0.552,0-1-0.448-1-1V3
		c0-0.552,0.448-1,1-1s1,0.448,1,1v7C6,10.552,5.552,11,5,11z M15,9H9C8.448,9,8,8.552,8,8s0.448-1,1-1h2V3c0-0.552,0.448-1,1-1
		s1,0.448,1,1v4h2c0.553,0,1,0.448,1,1S15.553,9,15,9z"/>
</g>
</svg>
