<?xml version="1.0" encoding="iso-8859-1"?>
<!-- Generator: Adobe Illustrator 27.4.0, SVG Export Plug-In . SVG Version: 6.00 Build 0)  -->
<svg version="1.1" id="Layer_1" xmlns="http://www.w3.org/2000/svg" xmlns:xlink="http://www.w3.org/1999/xlink" x="0px" y="0px"
	 viewBox="0 0 24 24" style="enable-background:new 0 0 24 24;" xml:space="preserve">
<g>
	<path d="M19,22c-0.553,0-1-0.447-1-1v-3.171c-1.164-0.413-2-1.525-2-2.829c0-1.654,1.346-3,3-3s3,1.346,3,3
		c0,1.304-0.836,2.416-2,2.829V21C20,21.553,19.553,22,19,22z M19,14c-0.552,0-1,0.448-1,1s0.448,1,1,1s1-0.448,1-1S19.552,14,19,14
		z M12,22c-0.552,0-1-0.447-1-1v-6c0-0.553,0.448-1,1-1s1,0.447,1,1v6C13,21.553,12.552,22,12,22z M5,22c-0.552,0-1-0.447-1-1
		v-5.171C2.836,15.416,2,14.304,2,13c0-1.654,1.346-3,3-3s3,1.346,3,3c0,1.304-0.836,2.416-2,2.829V21C6,21.553,5.552,22,5,22z
		 M5,12c-0.551,0-1,0.449-1,1c0,0.552,0.449,1,1,1s1-0.448,1-1C6,12.449,5.551,12,5,12z M12,12c-1.654,0-3-1.346-3-3
		c0-1.304,0.836-2.416,2-2.829V3c0-0.552,0.448-1,1-1s1,0.448,1,1v3.171C14.164,6.584,15,7.696,15,9C15,10.654,13.654,12,12,12z
		 M12,8c-0.551,0-1,0.449-1,1s0.449,1,1,1s1-0.449,1-1S12.551,8,12,8z M19,10c-0.553,0-1-0.448-1-1V3c0-0.552,0.447-1,1-1
		s1,0.448,1,1v6C20,9.552,19.553,10,19,10z M5,8C4.448,8,4,7.552,4,7V3c0-0.552,0.448-1,1-1s1,0.448,1,1v4C6,7.552,5.552,8,5,8z"/>
</g>
</svg>
