<?xml version="1.0" encoding="iso-8859-1"?>
<!-- Generator: Adobe Illustrator 27.4.0, SVG Export Plug-In . SVG Version: 6.00 Build 0)  -->
<svg version="1.1" id="Layer_1" xmlns="http://www.w3.org/2000/svg" xmlns:xlink="http://www.w3.org/1999/xlink" x="0px" y="0px"
	 viewBox="0 0 24 24" style="enable-background:new 0 0 24 24;" xml:space="preserve">
<g>
	<path d="M6.5,22C4.019,22,2,19.981,2,17.5S4.019,13,6.5,13c1.069,0,2.053,0.375,2.826,1H18.5c1.93,0,3.5,1.57,3.5,3.5
		S20.43,21,18.5,21H9.326C8.553,21.625,7.569,22,6.5,22z M6.5,15C5.122,15,4,16.121,4,17.5S5.122,20,6.5,20S9,18.879,9,17.5
		S7.878,15,6.5,15z M10.743,19H18.5c0.827,0,1.5-0.673,1.5-1.5S19.327,16,18.5,16h-7.757C10.909,16.47,11,16.975,11,17.5
		S10.909,18.53,10.743,19z M17.5,11c-1.069,0-2.053-0.375-2.825-1H5.5C3.57,10,2,8.43,2,6.5S3.57,3,5.5,3h9.175
		c0.772-0.625,1.756-1,2.825-1C19.981,2,22,4.019,22,6.5S19.981,11,17.5,11z M17.5,4C16.121,4,15,5.122,15,6.5S16.121,9,17.5,9
		S20,7.878,20,6.5S18.879,4,17.5,4z M5.5,5C4.673,5,4,5.673,4,6.5S4.673,8,5.5,8h7.757C13.091,7.531,13,7.026,13,6.5
		s0.091-1.031,0.257-1.5H5.5z"/>
</g>
</svg>
