<?xml version="1.0" encoding="iso-8859-1"?>
<!-- Generator: Adobe Illustrator 27.4.0, SVG Export Plug-In . SVG Version: 6.00 Build 0)  -->
<svg version="1.1" id="Layer_1" xmlns="http://www.w3.org/2000/svg" xmlns:xlink="http://www.w3.org/1999/xlink" x="0px" y="0px"
	 viewBox="0 0 24 24" style="enable-background:new 0 0 24 24;" xml:space="preserve">
<g>
	<path d="M6,20c-2.206,0-4-1.794-4-4s1.794-4,4-4c1.86,0,3.428,1.276,3.874,3H21c0.553,0,1,0.447,1,1s-0.447,1-1,1H9.874
		C9.428,18.724,7.86,20,6,20z M6,14c-1.103,0-2,0.897-2,2s0.897,2,2,2s2-0.897,2-2S7.103,14,6,14z M18,12
		c-1.86,0-3.429-1.277-3.873-3H3C2.448,9,2,8.552,2,8s0.448-1,1-1h11.127C14.571,5.277,16.14,4,18,4c2.206,0,4,1.794,4,4
		S20.206,12,18,12z M18,6c-1.103,0-2,0.897-2,2s0.897,2,2,2s2-0.897,2-2S19.103,6,18,6z"/>
</g>
</svg>
