<?xml version="1.0" encoding="iso-8859-1"?>
<!-- Generator: Adobe Illustrator 27.4.0, SVG Export Plug-In . SVG Version: 6.00 Build 0)  -->
<svg version="1.1" id="Layer_1" xmlns="http://www.w3.org/2000/svg" xmlns:xlink="http://www.w3.org/1999/xlink" x="0px" y="0px"
	 viewBox="0 0 24 24" style="enable-background:new 0 0 24 24;" xml:space="preserve">
<g>
	<path d="M15,23c-0.256,0-0.512-0.098-0.707-0.293L12,20.414l-2.293,2.293c-0.391,0.391-1.023,0.391-1.414,0s-0.391-1.023,0-1.414
		L11,18.586v-4.854l-4.203,2.427l-0.991,3.697c-0.143,0.533-0.692,0.851-1.225,0.707c-0.534-0.143-0.85-0.691-0.707-1.225
		l0.839-3.132l-3.132-0.839c-0.533-0.143-0.85-0.691-0.707-1.225c0.143-0.533,0.687-0.852,1.225-0.707l3.698,0.99L10,12L5.796,9.573
		l-3.698,0.991c-0.535,0.145-1.082-0.174-1.225-0.707C0.731,9.324,1.047,8.775,1.581,8.632l3.132-0.839L3.874,4.661
		C3.731,4.127,4.048,3.579,4.581,3.436C5.116,3.29,5.663,3.61,5.806,4.143l0.991,3.698L11,10.268V5.414L8.293,2.707
		c-0.391-0.391-0.391-1.023,0-1.414s1.023-0.391,1.414,0L12,3.586l2.293-2.293c0.391-0.391,1.023-0.391,1.414,0s0.391,1.023,0,1.414
		L13,5.414v4.854l4.204-2.427l0.99-3.698c0.143-0.533,0.691-0.85,1.225-0.707s0.85,0.691,0.707,1.225l-0.839,3.132l3.132,0.839
		c0.533,0.143,0.85,0.691,0.707,1.225c-0.144,0.534-0.689,0.853-1.225,0.707l-3.697-0.991L14,12l4.204,2.427l3.697-0.991
		c0.534-0.145,1.081,0.173,1.225,0.707c0.144,0.533-0.174,1.082-0.707,1.225l-3.132,0.84l0.839,3.132
		c0.143,0.533-0.174,1.082-0.707,1.225c-0.533,0.144-1.082-0.173-1.225-0.707l-0.99-3.697L13,13.732v4.854l2.707,2.707
		c0.391,0.391,0.391,1.023,0,1.414C15.512,22.902,15.256,23,15,23z"/>
</g>
</svg>
