<?xml version="1.0" encoding="iso-8859-1"?>
<!-- Generator: Adobe Illustrator 27.4.0, SVG Export Plug-In . SVG Version: 6.00 Build 0)  -->
<svg version="1.1" id="Layer_1" xmlns="http://www.w3.org/2000/svg" xmlns:xlink="http://www.w3.org/1999/xlink" x="0px" y="0px"
	 viewBox="0 0 24 24" style="enable-background:new 0 0 24 24;" xml:space="preserve">
<g>
	<path d="M12,23c-0.552,0-1-0.447-1-1v-3.586l-3.293,3.293c-0.391,0.391-1.023,0.391-1.414,0s-0.391-1.023,0-1.414L11,15.586V13
		H8.414l-4.707,4.707c-0.391,0.391-1.023,0.391-1.414,0s-0.391-1.023,0-1.414L5.586,13H2c-0.552,0-1-0.448-1-1s0.448-1,1-1h3.586
		L2.293,7.707c-0.391-0.391-0.391-1.023,0-1.414s1.023-0.391,1.414,0L8.414,11H11V8.414L6.293,3.707
		c-0.391-0.391-0.391-1.023,0-1.414s1.023-0.391,1.414,0L11,5.586V2c0-0.552,0.448-1,1-1s1,0.448,1,1v3.586l3.293-3.293
		c0.391-0.391,1.023-0.391,1.414,0s0.391,1.023,0,1.414L13,8.414V11h2.586l4.707-4.707c0.391-0.391,1.023-0.391,1.414,0
		s0.391,1.023,0,1.414L18.414,11H22c0.553,0,1,0.448,1,1s-0.447,1-1,1h-3.586l3.293,3.293c0.391,0.391,0.391,1.023,0,1.414
		s-1.023,0.391-1.414,0L15.586,13H13v2.586l4.707,4.707c0.391,0.391,0.391,1.023,0,1.414s-1.023,0.391-1.414,0L13,18.414V22
		C13,22.553,12.552,23,12,23z"/>
</g>
</svg>
