<?xml version="1.0" encoding="iso-8859-1"?>
<!-- Generator: Adobe Illustrator 27.4.0, SVG Export Plug-In . SVG Version: 6.00 Build 0)  -->
<svg version="1.1" id="Layer_1" xmlns="http://www.w3.org/2000/svg" xmlns:xlink="http://www.w3.org/1999/xlink" x="0px" y="0px"
	 viewBox="0 0 24 24" style="enable-background:new 0 0 24 24;" xml:space="preserve">
<g>
	<path d="M21,22H3c-0.552,0-1-0.447-1-1s0.448-1,1-1h18c0.553,0,1,0.447,1,1S21.553,22,21,22z M15,18.5H9c-0.552,0-1-0.447-1-1
		s0.448-1,1-1h2v-9H9c-0.552,0-1-0.448-1-1s0.448-1,1-1h6c0.553,0,1,0.448,1,1s-0.447,1-1,1h-2v9h2c0.553,0,1,0.447,1,1
		S15.553,18.5,15,18.5z M21,4H3C2.448,4,2,3.552,2,3s0.448-1,1-1h18c0.553,0,1,0.448,1,1S21.553,4,21,4z"/>
</g>
</svg>
