<?xml version="1.0" encoding="iso-8859-1"?>
<!-- Generator: Adobe Illustrator 27.4.0, SVG Export Plug-In . SVG Version: 6.00 Build 0)  -->
<svg version="1.1" id="Layer_1" xmlns="http://www.w3.org/2000/svg" xmlns:xlink="http://www.w3.org/1999/xlink" x="0px" y="0px"
	 viewBox="0 0 24 24" style="enable-background:new 0 0 24 24;" xml:space="preserve">
<g>
	<path d="M21,22c-0.553,0-1-0.447-1-1V3c0-0.552,0.447-1,1-1s1,0.448,1,1v18C22,21.553,21.553,22,21,22z M3,22c-0.552,0-1-0.447-1-1
		V3c0-0.552,0.448-1,1-1s1,0.448,1,1v18C4,21.553,3.552,22,3,22z M15.999,16c-0.19,0-0.383-0.055-0.554-0.168
		c-0.46-0.307-0.584-0.927-0.277-1.387L16.132,13H7.869l0.963,1.445c0.306,0.46,0.182,1.08-0.277,1.387
		c-0.46,0.305-1.081,0.182-1.387-0.277l-1.987-2.98c-0.023-0.033-0.044-0.067-0.063-0.103c-0.031-0.058-0.056-0.119-0.075-0.183
		C5.014,12.194,5,12.097,5,12s0.014-0.194,0.042-0.289c0.019-0.064,0.044-0.125,0.075-0.183c0.019-0.036,0.04-0.07,0.063-0.103
		l1.987-2.98C7.474,7.986,8.094,7.86,8.555,8.168c0.459,0.306,0.583,0.927,0.277,1.387L7.869,11h8.263l-0.964-1.445
		c-0.307-0.459-0.183-1.081,0.277-1.387c0.461-0.308,1.08-0.182,1.387,0.277l1.987,2.98c0.023,0.033,0.044,0.067,0.062,0.103
		c0.031,0.058,0.057,0.119,0.076,0.183C18.986,11.806,19,11.903,19,12s-0.014,0.194-0.042,0.289
		c-0.02,0.064-0.045,0.125-0.076,0.183c-0.019,0.036-0.039,0.07-0.062,0.103l-1.987,2.98C16.64,15.844,16.322,16,15.999,16z"/>
</g>
</svg>
