<?xml version="1.0" encoding="iso-8859-1"?>
<!-- Generator: Adobe Illustrator 27.4.0, SVG Export Plug-In . SVG Version: 6.00 Build 0)  -->
<svg version="1.1" id="Layer_1" xmlns="http://www.w3.org/2000/svg" xmlns:xlink="http://www.w3.org/1999/xlink" x="0px" y="0px"
	 viewBox="0 0 24 24" style="enable-background:new 0 0 24 24;" xml:space="preserve">
<g>
	<path d="M21,22H3c-0.552,0-1-0.447-1-1s0.448-1,1-1h18c0.553,0,1,0.447,1,1S21.553,22,21,22z M12.001,19C12,19,12,19,11.999,19
		c-0.098,0-0.196-0.015-0.292-0.044c-0.061-0.019-0.119-0.043-0.175-0.072c-0.037-0.019-0.072-0.041-0.106-0.064l-2.98-1.987
		c-0.459-0.307-0.583-0.927-0.277-1.387s0.926-0.584,1.387-0.277L11,16.132V7.869L9.555,8.832c-0.46,0.307-1.081,0.181-1.387-0.277
		C7.862,8.095,7.986,7.474,8.445,7.168l2.981-1.987c0.032-0.022,0.065-0.043,0.1-0.062c0.06-0.032,0.124-0.059,0.19-0.078
		C11.809,5.013,11.904,5,11.999,5C12,5,12,5,12.001,5c0.098,0,0.196,0.014,0.292,0.043c0.061,0.019,0.119,0.043,0.175,0.072
		c0.037,0.02,0.072,0.041,0.106,0.065l2.98,1.987c0.46,0.306,0.584,0.927,0.277,1.387c-0.306,0.458-0.927,0.584-1.387,0.277
		L13,7.869v8.263l1.445-0.964c0.46-0.307,1.081-0.183,1.387,0.277c0.307,0.46,0.183,1.08-0.277,1.387l-2.981,1.987
		c-0.032,0.022-0.065,0.043-0.1,0.062c-0.06,0.032-0.124,0.059-0.19,0.078C12.191,18.986,12.096,19,12.001,19z M21,4H3
		C2.448,4,2,3.552,2,3s0.448-1,1-1h18c0.553,0,1,0.448,1,1S21.553,4,21,4z"/>
</g>
</svg>
