<?xml version="1.0" encoding="iso-8859-1"?>
<!-- Generator: Adobe Illustrator 27.4.0, SVG Export Plug-In . SVG Version: 6.00 Build 0)  -->
<svg version="1.1" id="Layer_1" xmlns="http://www.w3.org/2000/svg" xmlns:xlink="http://www.w3.org/1999/xlink" x="0px" y="0px"
	 viewBox="0 0 24 24" style="enable-background:new 0 0 24 24;" xml:space="preserve">
<g>
	<path d="M21,22c-0.553,0-1-0.447-1-1V3c0-0.552,0.447-1,1-1s1,0.448,1,1v18C22,21.553,21.553,22,21,22z M3,22c-0.552,0-1-0.447-1-1
		V3c0-0.552,0.448-1,1-1s1,0.448,1,1v18C4,21.553,3.552,22,3,22z M17.5,16c-0.553,0-1-0.447-1-1v-2h-9v2c0,0.553-0.448,1-1,1
		s-1-0.447-1-1V9c0-0.552,0.448-1,1-1s1,0.448,1,1v2h9V9c0-0.552,0.447-1,1-1s1,0.448,1,1v6C18.5,15.553,18.053,16,17.5,16z"/>
</g>
</svg>
