<?xml version="1.0" encoding="iso-8859-1"?>
<!-- Generator: Adobe Illustrator 27.4.0, SVG Export Plug-In . SVG Version: 6.00 Build 0)  -->
<svg version="1.1" id="Layer_1" xmlns="http://www.w3.org/2000/svg" xmlns:xlink="http://www.w3.org/1999/xlink" x="0px" y="0px"
	 viewBox="0 0 24 24" style="enable-background:new 0 0 24 24;" xml:space="preserve">
<g>
	<path d="M17.2,23H6.8c-1.838,0-2.76,0-3.616-0.437c-0.757-0.385-1.362-0.989-1.748-1.747C1,19.96,1,19.037,1,17.2V6.8
		c0-1.838,0-2.76,0.436-3.616c0.386-0.757,0.991-1.362,1.748-1.748C4.04,1,4.962,1,6.8,1h10.4c1.837,0,2.76,0,3.616,0.436
		c0.758,0.386,1.362,0.991,1.748,1.749C23,4.04,23,4.962,23,6.8v10.4c0,1.837,0,2.76-0.436,3.616
		c-0.386,0.758-0.99,1.362-1.749,1.748C19.96,23,19.037,23,17.2,23z M6.8,3C5.33,3,4.52,3,4.092,3.218
		C3.713,3.411,3.411,3.713,3.218,4.092C3,4.52,3,5.33,3,6.8v10.4c0,1.47,0,2.279,0.218,2.708c0.193,0.379,0.495,0.681,0.873,0.873
		C4.52,21,5.33,21,6.8,21h10.4c1.47,0,2.279,0,2.708-0.219c0.379-0.192,0.681-0.494,0.873-0.872C21,19.479,21,18.67,21,17.2V6.8
		c0-1.47,0-2.28-0.218-2.708c-0.193-0.379-0.495-0.681-0.874-0.874C19.479,3,18.67,3,17.2,3H6.8z M18.01,19
		c-0.553,0-1.005-0.447-1.005-1s0.442-1,0.995-1h0.01c0.553,0,1,0.447,1,1S18.562,19,18.01,19z M6.01,19
		c-0.552,0-1.005-0.447-1.005-1S5.448,17,6,17h0.01c0.552,0,1,0.447,1,1S6.562,19,6.01,19z M12,18c-3.309,0-6-2.691-6-6s2.691-6,6-6
		s6,2.691,6,6S15.309,18,12,18z M12,8c-2.206,0-4,1.794-4,4c0,2.206,1.794,4,4,4c2.206,0,4-1.794,4-4C16,9.794,14.206,8,12,8z
		 M12,13.5c-0.827,0-1.5-0.673-1.5-1.5s0.673-1.5,1.5-1.5s1.5,0.673,1.5,1.5S12.827,13.5,12,13.5z M18.01,7
		c-0.553,0-1.005-0.448-1.005-1S17.447,5,18,5h0.01c0.553,0,1,0.448,1,1S18.562,7,18.01,7z M6.01,7C5.458,7,5.005,6.552,5.005,6
		S5.448,5,6,5h0.01c0.552,0,1,0.448,1,1S6.562,7,6.01,7z"/>
</g>
</svg>
