<?xml version="1.0" encoding="iso-8859-1"?>
<!-- Generator: Adobe Illustrator 27.4.0, SVG Export Plug-In . SVG Version: 6.00 Build 0)  -->
<svg version="1.1" id="Layer_1" xmlns="http://www.w3.org/2000/svg" xmlns:xlink="http://www.w3.org/1999/xlink" x="0px" y="0px"
	 viewBox="0 0 24 24" style="enable-background:new 0 0 24 24;" xml:space="preserve">
<g>
	<path d="M12,23c-2.966,0-5.663-1.181-7.643-3.097c-0.051-0.034-0.099-0.074-0.145-0.12c-0.044-0.044-0.083-0.091-0.117-0.141
		C2.18,17.662,1,14.967,1,12C1,5.935,5.935,1,12,1s11,4.935,11,11c0,2.967-1.181,5.664-3.098,7.645
		c-0.034,0.05-0.073,0.097-0.117,0.141s-0.091,0.083-0.141,0.117C17.664,21.819,14.967,23,12,23z M6.388,19.031
		C7.928,20.263,9.879,21,12,21c2.12,0,4.072-0.737,5.612-1.969c-0.297-0.288-0.503-0.467-0.701-0.588
		c-0.269-0.166-0.561-0.286-0.869-0.361C15.698,18,15.247,18,14.349,18H9.651c-0.898,0-1.349,0-1.695,0.083
		c-0.307,0.074-0.599,0.195-0.866,0.359C6.891,18.564,6.685,18.743,6.388,19.031z M3.055,13c0.193,1.734,0.88,3.322,1.918,4.617
		c0.406-0.395,0.712-0.66,1.072-0.88c0.445-0.273,0.931-0.476,1.443-0.599C8.065,16,8.628,16,9.651,16h4.698
		c1.022,0,1.586,0,2.161,0.138c0.515,0.124,1.001,0.326,1.446,0.601c0.358,0.219,0.664,0.483,1.071,0.879
		c1.037-1.295,1.725-2.883,1.917-4.617H19.5c-0.553,0-1-0.448-1-1s0.447-1,1-1h1.444c-0.19-1.716-0.865-3.289-1.885-4.577
		l-4.351,4.289C14.896,11.103,15,11.539,15,12c0,1.654-1.346,3-3,3s-3-1.346-3-3s1.346-3,3-3c0.464,0,0.905,0.106,1.298,0.295
		l4.354-4.294C16.351,3.948,14.75,3.25,13,3.055V4.5c0,0.552-0.448,1-1,1s-1-0.448-1-1V3.055C9.248,3.25,7.645,3.95,6.342,5.006
		l1.023,1.023c0.391,0.39,0.391,1.023,0,1.414s-1.023,0.391-1.414,0L4.936,6.429C3.919,7.716,3.246,9.286,3.055,11H4.5
		c0.552,0,1,0.448,1,1s-0.448,1-1,1H3.055z M12,11c-0.551,0-1,0.449-1,1s0.449,1,1,1s1-0.449,1-1S12.551,11,12,11z"/>
</g>
</svg>
