<?xml version="1.0" encoding="iso-8859-1"?>
<!-- Generator: Adobe Illustrator 27.4.0, SVG Export Plug-In . SVG Version: 6.00 Build 0)  -->
<svg version="1.1" id="Layer_1" xmlns="http://www.w3.org/2000/svg" xmlns:xlink="http://www.w3.org/1999/xlink" x="0px" y="0px"
	 viewBox="0 0 24 24" style="enable-background:new 0 0 24 24;" xml:space="preserve">
<g>
	<path d="M12,23C5.935,23,1,18.065,1,12S5.935,1,12,1s11,4.935,11,11S18.065,23,12,23z M12,3c-4.962,0-9,4.038-9,9
		c0,4.963,4.038,9,9,9c4.963,0,9-4.037,9-9C21,7.038,16.963,3,12,3z M17.744,17c-0.197,0-0.396-0.059-0.571-0.18
		c-0.453-0.316-0.563-0.939-0.248-1.393C17.628,14.42,18,13.234,18,12c0-0.434-0.047-0.867-0.138-1.287
		c-0.118-0.54,0.224-1.073,0.764-1.19c0.537-0.118,1.072,0.224,1.189,0.764C19.938,10.847,20,11.423,20,12
		c0,1.646-0.496,3.227-1.435,4.572C18.371,16.851,18.06,17,17.744,17z M6.256,17c-0.316,0-0.626-0.149-0.821-0.428
		C4.496,15.227,4,13.646,4,12c0-4.411,3.589-8,8-8c0.472,0,0.947,0.042,1.412,0.124c0.544,0.097,0.906,0.616,0.81,1.16
		c-0.097,0.542-0.608,0.905-1.159,0.81C12.713,6.031,12.355,6,12,6c-3.309,0-6,2.691-6,6c0,1.234,0.372,2.42,1.075,3.428
		c0.316,0.453,0.205,1.076-0.248,1.393C6.653,16.941,6.453,17,6.256,17z M12,14c-1.103,0-2-0.897-2-2c0-1.103,0.897-2,2-2
		c0.179,0,0.353,0.023,0.518,0.068l3.275-3.275c0.391-0.391,1.023-0.391,1.414,0s0.391,1.023,0,1.414l-3.275,3.275
		C13.977,11.647,14,11.821,14,12C14,13.103,13.103,14,12,14z"/>
</g>
</svg>
