<?xml version="1.0" encoding="iso-8859-1"?>
<!-- Generator: Adobe Illustrator 27.4.0, SVG Export Plug-In . SVG Version: 6.00 Build 0)  -->
<svg version="1.1" id="Layer_1" xmlns="http://www.w3.org/2000/svg" xmlns:xlink="http://www.w3.org/1999/xlink" x="0px" y="0px"
	 viewBox="0 0 24 24" style="enable-background:new 0 0 24 24;" xml:space="preserve">
<g>
	<path d="M12,23c-2.966,0-5.663-1.181-7.643-3.097c-0.05-0.034-0.098-0.073-0.143-0.118c-0.045-0.045-0.084-0.093-0.119-0.143
		C2.18,17.662,1,14.967,1,12C1,5.935,5.935,1,12,1s11,4.935,11,11c0,2.967-1.181,5.664-3.098,7.645
		c-0.034,0.05-0.073,0.097-0.117,0.141s-0.091,0.083-0.141,0.117C17.664,21.819,14.967,23,12,23z M12,18.5c0.552,0,1,0.447,1,1
		v1.444c1.733-0.192,3.32-0.879,4.615-1.915l-1.018-1.018c-0.391-0.391-0.391-1.023,0-1.414s1.023-0.391,1.414,0l1.018,1.018
		c1.036-1.295,1.723-2.882,1.915-4.615H19.5c-0.553,0-1-0.448-1-1s0.447-1,1-1h1.444c-0.19-1.716-0.865-3.289-1.885-4.577
		l-4.351,4.289C14.896,11.103,15,11.539,15,12c0,1.654-1.346,3-3,3s-3-1.346-3-3s1.346-3,3-3c0.464,0,0.905,0.106,1.298,0.295
		l4.354-4.294C16.351,3.948,14.75,3.25,13,3.055V4.5c0,0.552-0.448,1-1,1s-1-0.448-1-1V3.055C9.248,3.25,7.645,3.95,6.342,5.006
		l1.023,1.023c0.391,0.39,0.391,1.023,0,1.414s-1.023,0.391-1.414,0L4.936,6.429C3.919,7.716,3.246,9.286,3.055,11H4.5
		c0.552,0,1,0.448,1,1s-0.448,1-1,1H3.055c0.192,1.733,0.879,3.319,1.916,4.614l1.02-1.019c0.391-0.391,1.023-0.391,1.414,0
		s0.391,1.023,0,1.414l-1.019,1.02C7.68,20.065,9.267,20.752,11,20.944V19.5C11,18.947,11.448,18.5,12,18.5z M12,11
		c-0.551,0-1,0.449-1,1s0.449,1,1,1s1-0.449,1-1S12.551,11,12,11z"/>
</g>
</svg>
