<?xml version="1.0" encoding="iso-8859-1"?>
<!-- Generator: Adobe Illustrator 27.4.0, SVG Export Plug-In . SVG Version: 6.00 Build 0)  -->
<svg version="1.1" id="Layer_1" xmlns="http://www.w3.org/2000/svg" xmlns:xlink="http://www.w3.org/1999/xlink" x="0px" y="0px"
	 viewBox="0 0 24 24" style="enable-background:new 0 0 24 24;" xml:space="preserve">
<g>
	<path d="M12,23C5.935,23,1,18.065,1,12S5.935,1,12,1s11,4.935,11,11S18.065,23,12,23z M12,3c-4.962,0-9,4.038-9,9
		c0,4.963,4.038,9,9,9c4.963,0,9-4.037,9-9C21,7.038,16.963,3,12,3z M12,14c-1.103,0-2-0.897-2-2c0-1.103,0.897-2,2-2
		c0.179,0,0.353,0.023,0.518,0.068l3.275-3.275c0.391-0.391,1.023-0.391,1.414,0s0.391,1.023,0,1.414l-3.275,3.275
		C13.977,11.647,14,11.821,14,12C14,13.103,13.103,14,12,14z M5,13c-0.552,0-1-0.448-1-1c0-4.411,3.589-8,8-8c0.552,0,1,0.448,1,1
		s-0.448,1-1,1c-3.309,0-6,2.691-6,6C6,12.552,5.552,13,5,13z"/>
</g>
</svg>
