<?xml version="1.0" encoding="iso-8859-1"?>
<!-- Generator: Adobe Illustrator 27.4.0, SVG Export Plug-In . SVG Version: 6.00 Build 0)  -->
<svg version="1.1" id="Layer_1" xmlns="http://www.w3.org/2000/svg" xmlns:xlink="http://www.w3.org/1999/xlink" x="0px" y="0px"
	 viewBox="0 0 24 24" style="enable-background:new 0 0 24 24;" xml:space="preserve">
<g>
	<path d="M20,23c-0.256,0-0.512-0.098-0.707-0.293L14.586,18H13v4c0,0.553-0.448,1-1,1s-1-0.447-1-1v-4H9.414l-4.707,4.707
		c-0.391,0.391-1.023,0.391-1.414,0s-0.391-1.023,0-1.414L6.586,18H5.2c-1.238,0-1.92,0-2.562-0.326
		c-0.57-0.292-1.022-0.744-1.312-1.311C1,15.721,1,15.038,1,13.8V7.2c0-1.238,0-1.92,0.327-2.562C1.617,4.07,2.07,3.617,2.637,3.327
		C3.28,3,3.962,3,5.2,3H11V2c0-0.552,0.448-1,1-1s1,0.448,1,1v1h5.8c1.238,0,1.921,0,2.562,0.327c0.567,0.29,1.02,0.742,1.311,1.31
		C23,5.28,23,5.962,23,7.2v6.6c0,1.238,0,1.921-0.326,2.562c-0.291,0.567-0.744,1.021-1.311,1.311C20.721,18,20.038,18,18.8,18
		h-1.386l3.293,3.293c0.391,0.391,0.391,1.023,0,1.414C20.512,22.902,20.256,23,20,23z M5.2,5C4.333,5,3.76,5,3.545,5.109
		c-0.186,0.095-0.341,0.25-0.437,0.438C3,5.76,3,6.333,3,7.2v6.6c0,0.867,0,1.44,0.109,1.654c0.096,0.188,0.248,0.341,0.438,0.438
		C3.76,16,4.333,16,5.2,16h13.6c0.867,0,1.44,0,1.654-0.109c0.188-0.096,0.341-0.248,0.438-0.438C21,15.24,21,14.667,21,13.8V7.2
		c0-0.868,0-1.44-0.109-1.655c-0.096-0.188-0.248-0.34-0.438-0.437C20.24,5,19.667,5,18.8,5H5.2z"/>
</g>
</svg>
