<?xml version="1.0" encoding="iso-8859-1"?>
<!-- Generator: Adobe Illustrator 27.4.0, SVG Export Plug-In . SVG Version: 6.00 Build 0)  -->
<svg version="1.1" id="Layer_1" xmlns="http://www.w3.org/2000/svg" xmlns:xlink="http://www.w3.org/1999/xlink" x="0px" y="0px"
	 viewBox="0 0 24 24" style="enable-background:new 0 0 24 24;" xml:space="preserve">
<g>
	<path d="M17,23c-0.379,0-0.725-0.214-0.895-0.553l-0.951-1.902c-0.252-0.504-0.358-0.715-0.475-0.865
		c-0.103-0.133-0.227-0.257-0.363-0.363c-0.146-0.112-0.357-0.219-0.861-0.471l-1.902-0.951C11.214,17.725,11,17.379,11,17
		s0.214-0.725,0.553-0.895l1.902-0.951c0.504-0.252,0.715-0.358,0.865-0.475c0.133-0.103,0.257-0.227,0.363-0.363
		c0.112-0.146,0.219-0.357,0.471-0.861l0.951-1.902c0.34-0.678,1.449-0.678,1.789,0l0.951,1.902
		c0.252,0.504,0.358,0.715,0.475,0.865c0.103,0.133,0.227,0.257,0.363,0.363c0.146,0.112,0.357,0.219,0.861,0.471l1.902,0.951
		C22.786,16.275,23,16.621,23,17s-0.214,0.725-0.553,0.895l-1.902,0.951c-0.504,0.252-0.715,0.358-0.865,0.475
		c-0.133,0.103-0.257,0.227-0.363,0.363c-0.112,0.146-0.219,0.357-0.471,0.861l-0.951,1.902C17.725,22.786,17.379,23,17,23z
		 M14.236,17l0.113,0.057c0.567,0.283,0.88,0.439,1.188,0.676c0.274,0.213,0.518,0.456,0.727,0.727
		c0.24,0.312,0.396,0.624,0.68,1.191L17,19.764l0.057-0.113c0.283-0.567,0.439-0.88,0.676-1.188
		c0.213-0.274,0.456-0.518,0.727-0.727c0.312-0.24,0.624-0.396,1.191-0.68L19.764,17l-0.113-0.057
		c-0.567-0.283-0.88-0.439-1.188-0.676c-0.274-0.213-0.518-0.456-0.727-0.727c-0.24-0.312-0.396-0.624-0.68-1.191L17,14.236
		l-0.057,0.113c-0.283,0.567-0.439,0.88-0.676,1.188c-0.213,0.274-0.456,0.518-0.727,0.727c-0.312,0.24-0.624,0.396-1.191,0.68
		L14.236,17z M5.5,22c-0.552,0-1-0.447-1-1v-1.5H3c-0.552,0-1-0.447-1-1s0.448-1,1-1h1.5V16c0-0.553,0.448-1,1-1s1,0.447,1,1v1.5H8
		c0.552,0,1,0.447,1,1s-0.448,1-1,1H6.5V21C6.5,21.553,6.052,22,5.5,22z M6.5,12c-0.379,0-0.725-0.214-0.895-0.553L4.821,9.878
		C4.576,9.387,4.462,9.164,4.348,9.015C4.243,8.879,4.121,8.757,3.985,8.652C3.836,8.538,3.613,8.424,3.122,8.179L1.553,7.395
		C1.214,7.225,1,6.879,1,6.5s0.214-0.725,0.553-0.895l1.569-0.785c0.491-0.245,0.715-0.358,0.863-0.473
		c0.136-0.105,0.258-0.227,0.363-0.363c0.114-0.148,0.228-0.372,0.473-0.863l0.785-1.569c0.339-0.678,1.45-0.678,1.789,0
		l0.785,1.569c0.245,0.491,0.358,0.715,0.473,0.863c0.105,0.136,0.227,0.258,0.363,0.363c0.148,0.114,0.372,0.228,0.863,0.473
		l1.569,0.785C11.786,5.775,12,6.121,12,6.5s-0.214,0.725-0.553,0.895L9.878,8.179C9.387,8.424,9.164,8.538,9.015,8.652
		C8.879,8.757,8.757,8.879,8.652,9.015C8.538,9.164,8.424,9.387,8.179,9.878l-0.785,1.569C7.225,11.786,6.879,12,6.5,12z M4.235,6.5
		c0.434,0.218,0.704,0.362,0.97,0.568c0.272,0.21,0.517,0.454,0.727,0.727c0.206,0.266,0.35,0.536,0.568,0.97
		c0.218-0.434,0.362-0.704,0.568-0.97c0.21-0.272,0.454-0.517,0.727-0.727c0.266-0.206,0.536-0.35,0.97-0.568
		c-0.434-0.218-0.704-0.362-0.97-0.568c-0.272-0.21-0.517-0.454-0.727-0.727C6.862,4.939,6.718,4.669,6.5,4.235
		c-0.218,0.434-0.362,0.704-0.568,0.97c-0.21,0.272-0.454,0.517-0.727,0.727C4.939,6.138,4.669,6.282,4.235,6.5z M18.5,9
		c-0.553,0-1-0.448-1-1V6.5H16c-0.553,0-1-0.448-1-1s0.447-1,1-1h1.5V3c0-0.552,0.447-1,1-1s1,0.448,1,1v1.5H21c0.553,0,1,0.448,1,1
		s-0.447,1-1,1h-1.5V8C19.5,8.552,19.053,9,18.5,9z"/>
</g>
</svg>
