<?xml version="1.0" encoding="iso-8859-1"?>
<!-- Generator: Adobe Illustrator 27.4.0, SVG Export Plug-In . SVG Version: 6.00 Build 0)  -->
<svg version="1.1" id="Layer_1" xmlns="http://www.w3.org/2000/svg" xmlns:xlink="http://www.w3.org/1999/xlink" x="0px" y="0px"
	 viewBox="0 0 24 24" style="enable-background:new 0 0 24 24;" xml:space="preserve">
<g>
	<path d="M6.455,21.604c-0.079,0-0.159-0.007-0.242-0.022c-0.452-0.086-0.831-0.362-1.046-0.758c-0.249-0.458-0.173-0.9-0.058-1.571
		l0.816-4.763l-3.462-3.373c-0.486-0.473-0.808-0.786-0.876-1.303c-0.06-0.448,0.085-0.897,0.4-1.228
		c0.356-0.376,0.8-0.441,1.472-0.54l4.788-0.7l2.14-4.335c0,0,0,0,0,0l0.896,0.443l-0.896-0.445c0.3-0.608,0.499-1.01,0.968-1.233
		c0.41-0.194,0.881-0.194,1.29,0c0.469,0.223,0.667,0.625,0.967,1.232l2.143,4.338l4.787,0.7c0.673,0.098,1.116,0.163,1.474,0.541
		c0.312,0.329,0.457,0.776,0.397,1.226c-0.07,0.518-0.39,0.83-0.873,1.301l-3.465,3.375l0.816,4.764
		c0.115,0.67,0.19,1.113-0.059,1.57c-0.217,0.396-0.595,0.672-1.037,0.757c-0.516,0.095-0.914-0.113-1.516-0.43L12,18.899
		L7.72,21.15C7.218,21.415,6.858,21.604,6.455,21.604z M7.001,20.124L7.001,20.124L7.001,20.124z M12.005,16.835
		c0.093,0,0.183,0.009,0.273,0.025c0.235,0.048,0.395,0.133,0.563,0.222l4.011,2.11l-0.767-4.469
		c-0.033-0.189-0.064-0.369-0.038-0.589c0.024-0.194,0.084-0.377,0.177-0.547c0.106-0.194,0.241-0.324,0.383-0.461l3.244-3.161
		l-4.49-0.657c-0.189-0.027-0.371-0.053-0.57-0.146c-0.18-0.083-0.336-0.198-0.469-0.34c-0.151-0.164-0.231-0.329-0.316-0.502
		L12,4.259L9.993,8.325C9.904,8.506,9.827,8.661,9.681,8.82c-0.136,0.146-0.292,0.26-0.47,0.343C9.011,9.256,8.829,9.282,8.637,9.31
		L4.149,9.966l3.248,3.165c0.136,0.131,0.269,0.259,0.378,0.456c0.093,0.166,0.153,0.351,0.177,0.545
		c0.026,0.223-0.004,0.402-0.038,0.594l-0.766,4.466l4.014-2.11c0.166-0.088,0.325-0.173,0.542-0.217
		C11.808,16.845,11.908,16.835,12.005,16.835z M11.283,3.453l0.424,0.209c0,0,0-0.001-0.001-0.002L11.283,3.453z"/>
</g>
</svg>
