<?xml version="1.0" encoding="iso-8859-1"?>
<!-- Generator: Adobe Illustrator 27.4.0, SVG Export Plug-In . SVG Version: 6.00 Build 0)  -->
<svg version="1.1" id="Layer_1" xmlns="http://www.w3.org/2000/svg" xmlns:xlink="http://www.w3.org/1999/xlink" x="0px" y="0px"
	 viewBox="0 0 24 24" style="enable-background:new 0 0 24 24;" xml:space="preserve">
<g>
	<path d="M6.5,23c-0.379,0-0.725-0.214-0.895-0.553l-0.785-1.569c-0.236-0.473-0.355-0.71-0.473-0.864
		c-0.104-0.135-0.227-0.257-0.362-0.36c-0.15-0.116-0.36-0.223-0.864-0.475l-1.569-0.784C1.214,18.226,1,17.879,1,17.5
		s0.214-0.726,0.553-0.895l1.569-0.784c0.504-0.252,0.714-0.358,0.862-0.473c0.137-0.105,0.259-0.228,0.365-0.364
		c0.117-0.152,0.236-0.39,0.472-0.862l0.785-1.569c0.339-0.678,1.45-0.678,1.789,0l0.785,1.569c0.236,0.473,0.355,0.71,0.473,0.864
		c0.104,0.135,0.227,0.257,0.362,0.36c0.15,0.116,0.36,0.223,0.864,0.475l1.569,0.784C11.786,16.774,12,17.121,12,17.5
		s-0.214,0.726-0.553,0.895l-1.569,0.784c-0.504,0.252-0.714,0.358-0.862,0.473c-0.137,0.105-0.259,0.228-0.365,0.364
		c-0.117,0.152-0.236,0.39-0.472,0.862l-0.785,1.569C7.225,22.786,6.879,23,6.5,23z M4.236,17.5c0.435,0.219,0.705,0.363,0.97,0.569
		c0.27,0.207,0.514,0.451,0.725,0.724c0.205,0.267,0.35,0.536,0.568,0.972c0.219-0.436,0.363-0.705,0.567-0.97
		c0.212-0.274,0.457-0.519,0.728-0.728c0.264-0.204,0.534-0.349,0.968-0.567c-0.435-0.219-0.705-0.363-0.97-0.569
		c-0.27-0.207-0.514-0.451-0.725-0.724c-0.205-0.267-0.35-0.536-0.568-0.972c-0.219,0.436-0.363,0.705-0.567,0.97
		c-0.212,0.274-0.457,0.519-0.728,0.728C4.94,17.137,4.671,17.281,4.236,17.5z"/>
</g>
<g>
	<path d="M15,17c-0.414,0-0.785-0.255-0.934-0.641l-1.178-3.064c-0.254-0.659-0.379-0.983-0.524-1.188
		c-0.13-0.184-0.288-0.342-0.471-0.472c-0.207-0.146-0.534-0.272-1.188-0.523L7.641,9.933C7.255,9.785,7,9.414,7,9
		s0.255-0.785,0.641-0.933l3.064-1.179c0.654-0.251,0.981-0.377,1.188-0.524c0.183-0.129,0.34-0.288,0.469-0.469
		c0.147-0.207,0.272-0.533,0.523-1.183l1.181-3.071C14.215,1.255,14.586,1,15,1s0.785,0.255,0.934,0.641l1.179,3.064
		c0.252,0.656,0.378,0.982,0.523,1.187c0.131,0.184,0.289,0.342,0.471,0.472c0.199,0.141,0.49,0.255,1.188,0.523l3.065,1.179
		C22.745,8.215,23,8.586,23,9s-0.255,0.785-0.641,0.933l-3.064,1.179c-0.698,0.269-0.989,0.383-1.188,0.524
		c-0.182,0.129-0.34,0.288-0.47,0.47c-0.146,0.205-0.271,0.529-0.52,1.176l-1.184,3.077C15.785,16.745,15.414,17,15,17z M10.786,9
		l0.638,0.246c0.785,0.301,1.217,0.467,1.628,0.76c0.366,0.261,0.684,0.578,0.942,0.944c0.291,0.408,0.456,0.836,0.756,1.614
		L15,13.215l0.245-0.638c0.305-0.791,0.47-1.22,0.762-1.629c0.26-0.365,0.576-0.682,0.941-0.941
		c0.413-0.293,0.845-0.459,1.629-0.761L19.215,9l-0.639-0.246c-0.783-0.301-1.215-0.467-1.628-0.76
		c-0.365-0.26-0.682-0.577-0.942-0.943c-0.292-0.41-0.457-0.84-0.758-1.622L15,4.786l-0.245,0.638
		c-0.304,0.788-0.469,1.219-0.762,1.629c-0.258,0.364-0.575,0.681-0.941,0.941c-0.412,0.293-0.844,0.459-1.628,0.761L10.786,9z"/>
</g>
</svg>
