<?xml version="1.0" encoding="iso-8859-1"?>
<!-- Generator: Adobe Illustrator 27.4.0, SVG Export Plug-In . SVG Version: 6.00 Build 0)  -->
<svg version="1.1" id="Layer_1" xmlns="http://www.w3.org/2000/svg" xmlns:xlink="http://www.w3.org/1999/xlink" x="0px" y="0px"
	 viewBox="0 0 24 24" style="enable-background:new 0 0 24 24;" xml:space="preserve">
<g>
	<path d="M12,23L12,23c-0.459,0-0.859-0.312-0.97-0.758l-1.301-5.206c-0.228-0.91-0.342-1.365-0.519-1.642
		c-0.154-0.241-0.363-0.45-0.605-0.604c-0.276-0.177-0.731-0.291-1.639-0.518L1.757,12.97C1.312,12.859,1,12.459,1,12
		s0.312-0.859,0.757-0.97l5.206-1.301C7.875,9.5,8.33,9.386,8.604,9.211c0.242-0.155,0.452-0.365,0.606-0.606
		C9.386,8.33,9.5,7.875,9.727,6.97l1.303-5.213C11.141,1.312,11.541,1,12,1s0.859,0.312,0.97,0.757l1.301,5.206
		c0.228,0.91,0.342,1.365,0.518,1.64c0.155,0.243,0.364,0.453,0.606,0.607c0.275,0.175,0.73,0.29,1.637,0.517l5.21,1.302
		C22.688,11.141,23,11.541,23,12s-0.312,0.859-0.758,0.97l-5.206,1.301c-0.908,0.228-1.364,0.342-1.642,0.519
		c-0.241,0.154-0.45,0.363-0.604,0.604c-0.177,0.277-0.291,0.733-0.519,1.642l-1.301,5.206C12.859,22.688,12.459,23,12,23z
		 M6.123,12l1.326,0.332c1.086,0.271,1.683,0.421,2.234,0.774c0.482,0.308,0.902,0.728,1.213,1.212
		c0.352,0.552,0.501,1.147,0.772,2.229L12,17.877l0.332-1.325c0.271-1.085,0.42-1.683,0.773-2.233
		c0.31-0.484,0.729-0.904,1.214-1.214c0.551-0.353,1.148-0.502,2.233-0.773L17.877,12l-1.325-0.331
		c-1.087-0.272-1.683-0.421-2.233-0.772c-0.485-0.312-0.905-0.731-1.214-1.215c-0.352-0.549-0.501-1.146-0.772-2.23L12,6.123
		l-0.331,1.326c-0.272,1.088-0.422,1.684-0.773,2.233c-0.31,0.484-0.729,0.904-1.214,1.214c-0.549,0.352-1.145,0.501-2.226,0.771
		L6.123,12z"/>
</g>
</svg>
