<?xml version="1.0" encoding="iso-8859-1"?>
<!-- Generator: Adobe Illustrator 27.4.0, SVG Export Plug-In . SVG Version: 6.00 Build 0)  -->
<svg version="1.1" id="Layer_1" xmlns="http://www.w3.org/2000/svg" xmlns:xlink="http://www.w3.org/1999/xlink" x="0px" y="0px"
	 viewBox="0 0 24 24" style="enable-background:new 0 0 24 24;" xml:space="preserve">
<g>
	<path d="M12,23c-0.414,0-0.785-0.255-0.934-0.641l-2.012-5.231c-0.253-0.657-0.378-0.983-0.524-1.188
		c-0.129-0.182-0.288-0.34-0.47-0.47c-0.205-0.146-0.53-0.271-1.178-0.521l-5.241-2.016C1.255,12.785,1,12.414,1,12
		s0.255-0.785,0.641-0.934l5.231-2.012C7.526,8.803,7.854,8.677,8.06,8.531c0.183-0.13,0.341-0.288,0.471-0.471
		c0.146-0.206,0.272-0.534,0.524-1.188l2.011-5.23C11.215,1.255,11.586,1,12,1s0.785,0.255,0.934,0.641l2.012,5.231
		c0.253,0.658,0.378,0.983,0.523,1.187c0.131,0.184,0.289,0.343,0.471,0.472c0.205,0.146,0.531,0.271,1.181,0.521l5.239,2.014
		C22.745,11.215,23,11.586,23,12s-0.255,0.785-0.641,0.934l-5.231,2.012c-0.661,0.255-0.984,0.379-1.188,0.523
		c-0.184,0.13-0.342,0.288-0.471,0.471c-0.146,0.204-0.27,0.527-0.518,1.17l-2.019,5.25C12.785,22.745,12.414,23,12,23z M4.786,12
		l2.804,1.078c0.791,0.305,1.22,0.47,1.63,0.762c0.365,0.26,0.682,0.576,0.941,0.941c0.292,0.41,0.457,0.84,0.758,1.619L12,19.214
		l1.078-2.805c0.306-0.793,0.471-1.22,0.762-1.629c0.259-0.364,0.576-0.682,0.941-0.941c0.408-0.29,0.835-0.455,1.609-0.753
		L19.214,12l-2.805-1.078c-0.788-0.304-1.218-0.47-1.628-0.761c-0.365-0.26-0.682-0.577-0.942-0.943
		c-0.291-0.408-0.456-0.838-0.757-1.618L12,4.786L10.922,7.59c-0.303,0.786-0.469,1.218-0.761,1.629
		c-0.26,0.365-0.577,0.682-0.942,0.942c-0.41,0.292-0.843,0.458-1.628,0.761L4.786,12z"/>
</g>
</svg>
