<?xml version="1.0" encoding="iso-8859-1"?>
<!-- Generator: Adobe Illustrator 27.4.0, SVG Export Plug-In . SVG Version: 6.00 Build 0)  -->
<svg version="1.1" id="Layer_1" xmlns="http://www.w3.org/2000/svg" xmlns:xlink="http://www.w3.org/1999/xlink" x="0px" y="0px"
	 viewBox="0 0 24 24" style="enable-background:new 0 0 24 24;" xml:space="preserve">
<g>
	<path d="M8.13,21.532c-0.005,0-0.011,0-0.017,0c-0.447-0.006-0.864-0.207-1.145-0.553c-0.321-0.391-0.334-0.823-0.354-1.479
		L6.519,16.37l-3.031-0.789c-0.637-0.167-1.053-0.275-1.365-0.677c-0.273-0.353-0.376-0.803-0.282-1.236
		c0.106-0.495,0.449-0.787,0.923-1.191l2.402-2.037L3.894,7.578C3.627,6.981,3.452,6.586,3.57,6.091
		c0.105-0.435,0.394-0.796,0.793-0.994c0.456-0.225,0.88-0.143,1.522-0.017l3.073,0.604l1.444-2.779v0l0.887,0.461L10.405,2.9
		c0.301-0.578,0.5-0.96,0.96-1.175c0.402-0.188,0.866-0.188,1.269,0c0.461,0.216,0.661,0.6,0.962,1.18l1.444,2.779l3.073-0.604
		c0.641-0.125,1.066-0.21,1.523,0.018c0.398,0.196,0.688,0.56,0.791,0.995c0.119,0.49-0.056,0.883-0.32,1.479l-1.275,2.868
		l2.388,2.026c0.489,0.416,0.83,0.706,0.938,1.201c0.092,0.439-0.012,0.888-0.282,1.236c-0.314,0.403-0.73,0.512-1.361,0.677
		l-3.035,0.79l-0.095,3.131c-0.019,0.631-0.032,1.087-0.357,1.482c-0.277,0.342-0.694,0.543-1.14,0.549
		c-0.471,0.027-0.853-0.25-1.372-0.638L12,19.01l-2.507,1.878C8.974,21.275,8.63,21.532,8.13,21.532z M15.358,19.948L15.358,19.948
		L15.358,19.948z M4.364,13.742l2.804,0.73c0.268,0.069,0.5,0.129,0.738,0.308c0.199,0.146,0.364,0.352,0.471,0.588
		c0.121,0.278,0.128,0.517,0.136,0.793l0.088,2.895l2.319-1.737c0.223-0.167,0.416-0.312,0.703-0.386
		c0.242-0.065,0.511-0.065,0.765,0.004c0.275,0.07,0.468,0.215,0.691,0.383l2.317,1.736l0.088-2.896
		c0.01-0.284,0.017-0.521,0.137-0.789c0.103-0.234,0.27-0.443,0.48-0.598c0.228-0.171,0.461-0.231,0.731-0.301l2.802-0.73
		l-2.209-1.874c-0.214-0.181-0.396-0.336-0.532-0.596c-0.118-0.228-0.177-0.485-0.168-0.744c0.008-0.288,0.104-0.505,0.216-0.756
		l1.181-2.656l-2.843,0.559c-0.272,0.053-0.506,0.099-0.795,0.044c-0.252-0.048-0.492-0.164-0.69-0.333
		c-0.222-0.19-0.332-0.402-0.459-0.648L12,4.169L10.664,6.74c-0.128,0.246-0.238,0.458-0.46,0.648
		c-0.196,0.168-0.436,0.284-0.691,0.333C9.224,7.775,8.991,7.729,8.72,7.676L5.877,7.118l1.177,2.647
		c0.113,0.252,0.21,0.471,0.22,0.763c0.007,0.261-0.051,0.515-0.167,0.742c-0.138,0.264-0.318,0.417-0.527,0.594L4.364,13.742z
		 M20.309,14.33L20.309,14.33L20.309,14.33z M20.496,13.506L20.496,13.506L20.496,13.506z M3.502,13.506L3.502,13.506L3.502,13.506z
		 M11.29,3.366l0.403,0.209c0-0.001-0.001-0.002-0.001-0.002L11.29,3.366z"/>
</g>
</svg>
