<?xml version="1.0" encoding="iso-8859-1"?>
<!-- Generator: Adobe Illustrator 27.4.0, SVG Export Plug-In . SVG Version: 6.00 Build 0)  -->
<svg version="1.1" id="Layer_1" xmlns="http://www.w3.org/2000/svg" xmlns:xlink="http://www.w3.org/1999/xlink" x="0px" y="0px"
	 viewBox="0 0 24 24" style="enable-background:new 0 0 24 24;" xml:space="preserve">
<g>
	<path d="M12,23c-0.552,0-1-0.447-1-1v-2c0-0.553,0.448-1,1-1s1,0.447,1,1v2C13,22.553,12.552,23,12,23z M4.929,20.071
		c-0.256,0-0.512-0.098-0.707-0.293c-0.391-0.391-0.391-1.023,0-1.414l1.414-1.414c0.391-0.391,1.023-0.391,1.414,0
		s0.391,1.023,0,1.414l-1.414,1.414C5.44,19.974,5.185,20.071,4.929,20.071z M19.071,20.071c-0.256,0-0.512-0.098-0.707-0.293
		l-1.415-1.414c-0.391-0.39-0.391-1.023,0-1.414s1.023-0.391,1.414,0l1.415,1.414c0.391,0.39,0.391,1.023,0,1.414
		C19.583,19.974,19.327,20.071,19.071,20.071z M15.09,17.51c-0.159,0-0.319-0.038-0.466-0.115L12,16.015l-2.625,1.38
		c-0.336,0.178-0.745,0.149-1.053-0.076c-0.308-0.224-0.462-0.603-0.398-0.978l0.501-2.921l-2.123-2.069
		c-0.272-0.266-0.371-0.663-0.253-1.025C6.166,9.964,6.479,9.7,6.855,9.646l2.936-0.429l1.312-2.659
		c0.337-0.683,1.456-0.683,1.793,0l1.312,2.659l2.936,0.429c0.377,0.055,0.689,0.319,0.807,0.681
		c0.117,0.362,0.02,0.759-0.253,1.025l-2.124,2.069l0.501,2.921c0.064,0.375-0.09,0.754-0.397,0.978
		C15.503,17.445,15.297,17.51,15.09,17.51z M12,13.885c0.16,0,0.32,0.038,0.465,0.115l1.296,0.682l-0.247-1.442
		c-0.056-0.324,0.052-0.655,0.287-0.885l1.05-1.022L13.4,11.119c-0.325-0.047-0.606-0.252-0.752-0.547L12,9.259l-0.648,1.313
		c-0.146,0.295-0.427,0.5-0.752,0.547l-1.452,0.212l1.05,1.022c0.236,0.23,0.344,0.561,0.288,0.885l-0.248,1.442L11.535,14
		C11.68,13.923,11.84,13.885,12,13.885z M22,13h-2c-0.553,0-1-0.448-1-1s0.447-1,1-1h2c0.553,0,1,0.448,1,1S22.553,13,22,13z M4,13
		H2c-0.552,0-1-0.448-1-1s0.448-1,1-1h2c0.552,0,1,0.448,1,1S4.552,13,4,13z M6.343,7.343c-0.256,0-0.512-0.098-0.707-0.293
		L4.222,5.636c-0.391-0.391-0.391-1.023,0-1.414s1.023-0.391,1.414,0L7.05,5.636C7.44,6.027,7.44,6.66,7.05,7.05
		C6.854,7.246,6.599,7.343,6.343,7.343z M17.656,7.343c-0.256,0-0.512-0.098-0.707-0.293c-0.391-0.391-0.391-1.024,0-1.415
		l1.415-1.414c0.391-0.39,1.023-0.39,1.414,0s0.391,1.024,0,1.415l-1.415,1.414C18.168,7.246,17.912,7.343,17.656,7.343z M12,5
		c-0.552,0-1-0.448-1-1V2c0-0.552,0.448-1,1-1s1,0.448,1,1v2C13,4.552,12.552,5,12,5z"/>
</g>
</svg>
