<?xml version="1.0" encoding="iso-8859-1"?>
<!-- Generator: Adobe Illustrator 27.4.0, SVG Export Plug-In . SVG Version: 6.00 Build 0)  -->
<svg version="1.1" id="Layer_1" xmlns="http://www.w3.org/2000/svg" xmlns:xlink="http://www.w3.org/1999/xlink" x="0px" y="0px"
	 viewBox="0 0 24 24" style="enable-background:new 0 0 24 24;" xml:space="preserve">
<g>
	<path d="M12,22.496c-0.208,0-0.417-0.043-0.61-0.13c-0.447-0.199-0.658-0.566-0.95-1.075l-1.897-3.302l-3.808,0.008
		c-0.582-0.002-1.008,0.002-1.402-0.281c-0.35-0.256-0.571-0.642-0.615-1.063c-0.05-0.486,0.163-0.853,0.457-1.358L5.084,12
		L3.173,8.706C2.879,8.199,2.667,7.833,2.717,7.348c0.044-0.424,0.266-0.81,0.61-1.06c0.398-0.287,0.83-0.284,1.407-0.285
		l3.808,0.008l1.897-3.301c0.292-0.509,0.503-0.876,0.95-1.076c0.387-0.174,0.833-0.174,1.224,0.001
		c0.445,0.198,0.656,0.566,0.947,1.075l1.897,3.301l3.809-0.008C19.842,6.004,20.274,6,20.671,6.286
		c0.347,0.253,0.568,0.639,0.612,1.061c0.052,0.481-0.158,0.844-0.449,1.347L18.916,12l1.911,3.294
		c0.297,0.514,0.508,0.877,0.455,1.363c-0.043,0.416-0.264,0.801-0.605,1.052c-0.402,0.29-0.828,0.286-1.41,0.288l-3.809-0.008
		l-1.897,3.302c-0.292,0.509-0.503,0.876-0.95,1.075C12.417,22.453,12.208,22.496,12,22.496z M8.671,15.989
		c0.216,0,0.404,0.002,0.621,0.071c0.209,0.07,0.388,0.174,0.542,0.312c0.18,0.164,0.275,0.329,0.385,0.521L12,19.992l1.781-3.1
		c0.114-0.196,0.207-0.356,0.377-0.513c0.164-0.146,0.341-0.248,0.536-0.314c0.237-0.076,0.44-0.066,0.631-0.076l3.597,0.007
		l-1.794-3.093c-0.11-0.189-0.208-0.358-0.257-0.589c-0.045-0.208-0.045-0.418-0.001-0.626c0.051-0.234,0.146-0.397,0.256-0.587
		l1.796-3.097l-3.576,0.007c-0.223,0.001-0.409,0.001-0.637-0.072c-0.205-0.068-0.384-0.171-0.539-0.309
		c-0.181-0.164-0.274-0.325-0.382-0.511L12,4.007l-1.782,3.101c-0.11,0.191-0.205,0.357-0.383,0.518
		C9.677,7.767,9.497,7.871,9.297,7.937C9.065,8.012,8.876,8.011,8.653,8.011L5.078,8.003l1.794,3.093
		c0.112,0.193,0.207,0.357,0.257,0.59c0.044,0.208,0.044,0.418,0,0.626c-0.049,0.231-0.143,0.393-0.251,0.581l-1.8,3.103
		l3.576-0.007C8.66,15.989,8.666,15.989,8.671,15.989z M4.274,8.012C4.273,8.012,4.273,8.012,4.274,8.012
		C4.273,8.012,4.273,8.012,4.274,8.012z M11.307,3.207h0.01H11.307z"/>
</g>
</svg>
