<?xml version="1.0" encoding="iso-8859-1"?>
<!-- Generator: Adobe Illustrator 27.4.0, SVG Export Plug-In . SVG Version: 6.00 Build 0)  -->
<svg version="1.1" id="Layer_1" xmlns="http://www.w3.org/2000/svg" xmlns:xlink="http://www.w3.org/1999/xlink" x="0px" y="0px"
	 viewBox="0 0 24 24" style="enable-background:new 0 0 24 24;" xml:space="preserve">
<g>
	<path d="M16.2,22H7.8c-1.838,0-2.76,0-3.616-0.437c-0.757-0.385-1.362-0.989-1.748-1.747C2,18.96,2,18.037,2,16.2V7.8
		c0-1.838,0-2.76,0.436-3.616c0.386-0.757,0.991-1.362,1.748-1.748C5.04,2,5.962,2,7.8,2h3.212c0.786,0,1.219,0,1.68,0.111
		c0.406,0.097,0.796,0.258,1.155,0.478c0.4,0.246,0.701,0.546,1.247,1.091l5.207,5.208c0.554,0.553,0.859,0.858,1.109,1.266
		c0.22,0.356,0.381,0.746,0.479,1.157C22,11.769,22,12.202,22,12.988V16.2c0,1.837,0,2.76-0.436,3.616
		c-0.386,0.758-0.99,1.362-1.749,1.748C18.96,22,18.037,22,16.2,22z M7.8,4C6.33,4,5.52,4,5.092,4.218
		C4.713,4.411,4.411,4.713,4.218,5.092C4,5.52,4,6.33,4,7.8v8.4c0,1.47,0,2.279,0.218,2.708c0.193,0.379,0.495,0.681,0.873,0.873
		C5.52,20,6.33,20,7.8,20h8.4c1.47,0,2.279,0,2.708-0.219c0.379-0.192,0.681-0.494,0.873-0.872C20,18.479,20,17.67,20,16.2v-3.212
		c0-0.469,0-0.771-0.021-0.988H17.8c-1.837,0-2.76,0-3.616-0.436c-0.758-0.386-1.362-0.991-1.748-1.749C12,8.96,12,8.038,12,6.2
		v-2.18C11.782,4,11.48,4,11.012,4H7.8z M14,5.414V6.2c0,1.47,0,2.28,0.218,2.708c0.193,0.379,0.495,0.681,0.874,0.874
		C15.521,10,16.33,10,17.8,10h0.785L14,5.414z"/>
</g>
</svg>
