<?xml version="1.0" encoding="iso-8859-1"?>
<!-- Generator: Adobe Illustrator 27.4.0, SVG Export Plug-In . SVG Version: 6.00 Build 0)  -->
<svg version="1.1" id="Layer_1" xmlns="http://www.w3.org/2000/svg" xmlns:xlink="http://www.w3.org/1999/xlink" x="0px" y="0px"
	 viewBox="0 0 24 24" style="enable-background:new 0 0 24 24;" xml:space="preserve">
<g>
	<path d="M14.368,22.895c-0.015,0-0.03,0-0.046,0c-0.276-0.006-0.581-0.08-0.834-0.204c-0.301-0.147-0.491-0.339-0.755-0.603
		L1.913,11.267c-0.264-0.264-0.455-0.455-0.601-0.75c-0.124-0.251-0.2-0.558-0.206-0.84C1.099,9.35,1.174,9.107,1.27,8.8
		C2.729,4.133,6.993,1,11.883,1c6.13,0,11.118,4.987,11.118,11.117c0,4.89-3.134,9.155-7.797,10.612
		C14.91,22.821,14.676,22.895,14.368,22.895z M11.883,3C7.873,3,4.375,5.569,3.18,9.394C3.144,9.508,3.115,9.583,3.104,9.652
		c0.037,0.024,0.112,0.09,0.222,0.201l10.821,10.821c0.11,0.11,0.177,0.186,0.245,0.234c0.026-0.023,0.101-0.052,0.215-0.087
		c3.824-1.196,6.394-4.693,6.394-8.704C21.001,7.09,16.911,3,11.883,3z"/>
</g>
<g>
	<path d="M13.728,22.47c-0.048,0-0.096-0.002-0.143-0.007c-0.531-0.053-0.857-0.378-1.269-0.79l-9.989-9.989
		c-0.411-0.411-0.736-0.736-0.79-1.267c-0.045-0.455,0.132-0.929,0.46-1.241C2.389,8.808,2.843,8.775,3.37,8.737
		c0,0,0.006,0,0.006,0c0.264-0.019,0.53-0.028,0.799-0.028c6.13,0,11.117,4.987,11.117,11.117c0,0.269-0.01,0.534-0.027,0.798
		c-0.039,0.534-0.071,0.989-0.44,1.378C14.546,22.297,14.135,22.47,13.728,22.47z M13.234,20.861L13.234,20.861L13.234,20.861z
		 M14.044,20.559L14.044,20.559L14.044,20.559z M4.181,10.708l9.111,9.112C13.289,14.798,9.204,10.712,4.181,10.708z"/>
</g>
</svg>
