<?xml version="1.0" encoding="iso-8859-1"?>
<!-- Generator: Adobe Illustrator 27.4.0, SVG Export Plug-In . SVG Version: 6.00 Build 0)  -->
<svg version="1.1" id="Layer_1" xmlns="http://www.w3.org/2000/svg" xmlns:xlink="http://www.w3.org/1999/xlink" x="0px" y="0px"
	 viewBox="0 0 24 24" style="enable-background:new 0 0 24 24;" xml:space="preserve">
<g>
	<path d="M12,23C5.935,23,1,18.065,1,12S5.935,1,12,1s11,4.935,11,11S18.065,23,12,23z M12,3c-4.962,0-9,4.038-9,9
		c0,4.963,4.038,9,9,9c4.963,0,9-4.037,9-9C21,7.038,16.963,3,12,3z"/>
</g>
<g>
	<path d="M14.4,17H9.6c-0.651,0-1.081,0-1.51-0.219c-0.377-0.192-0.679-0.494-0.872-0.873C7,15.48,7,15.051,7,14.4V9.6
		c0-0.65,0-1.08,0.218-1.508C7.412,7.713,7.713,7.412,8.09,7.219C8.52,7,8.95,7,9.6,7h4.8c0.65,0,1.08,0,1.508,0.218
		c0.379,0.193,0.681,0.496,0.874,0.875C17,8.519,17,8.949,17,9.6v4.8c0,0.65,0,1.081-0.219,1.509
		c-0.191,0.378-0.494,0.681-0.874,0.873C15.481,17,15.051,17,14.4,17z M9.6,9C9.321,9,9.033,9,8.951,9.02C9,9.033,9,9.321,9,9.6v4.8
		c0,0.278,0,0.566,0.02,0.648C9.034,15,9.322,15,9.6,15h4.8c0.278,0,0.565,0,0.647-0.02C15,14.966,15,14.679,15,14.4V9.6
		c0-0.278,0-0.566-0.02-0.648C14.967,9,14.679,9,14.4,9H9.6z"/>
</g>
</svg>
