<?xml version="1.0" encoding="iso-8859-1"?>
<!-- Generator: Adobe Illustrator 27.4.0, SVG Export Plug-In . SVG Version: 6.00 Build 0)  -->
<svg version="1.1" id="Layer_1" xmlns="http://www.w3.org/2000/svg" xmlns:xlink="http://www.w3.org/1999/xlink" x="0px" y="0px"
	 viewBox="0 0 24 24" style="enable-background:new 0 0 24 24;" xml:space="preserve">
<g>
	<path d="M14,21h-4c-2.757,0-5-2.243-5-5c0-0.553,0.448-1,1-1s1,0.447,1,1c0,1.654,1.346,3,3,3h4c1.654,0,3-1.346,3-3s-1.346-3-3-3
		H3c-0.552,0-1-0.448-1-1s0.448-1,1-1h18c0.553,0,1,0.448,1,1s-0.447,1-1,1h-3.002C18.627,13.836,19,14.875,19,16
		C19,18.757,16.757,21,14,21z M18,9c-0.553,0-1-0.448-1-1c0-1.654-1.346-3-3-3h-4C8.346,5,7,6.346,7,8c0,0.552-0.448,1-1,1
		S5,8.552,5,8c0-2.757,2.243-5,5-5h4c2.757,0,5,2.243,5,5C19,8.552,18.553,9,18,9z"/>
</g>
</svg>
