<?xml version="1.0" encoding="iso-8859-1"?>
<!-- Generator: Adobe Illustrator 27.4.0, SVG Export Plug-In . SVG Version: 6.00 Build 0)  -->
<svg version="1.1" id="Layer_1" xmlns="http://www.w3.org/2000/svg" xmlns:xlink="http://www.w3.org/1999/xlink" x="0px" y="0px"
	 viewBox="0 0 24 24" style="enable-background:new 0 0 24 24;" xml:space="preserve">
<g>
	<path d="M16.2,22H7.8c-1.838,0-2.76,0-3.616-0.437c-0.757-0.385-1.362-0.989-1.748-1.747C2,18.96,2,18.037,2,16.2V7.8
		c0-1.838,0-2.76,0.436-3.616c0.386-0.757,0.991-1.362,1.748-1.748C5.04,2,5.962,2,7.8,2h8.4c1.837,0,2.76,0,3.616,0.436
		c0.758,0.386,1.362,0.991,1.748,1.749C22,5.04,22,5.962,22,7.8v8.4c0,1.837,0,2.76-0.436,3.616
		c-0.386,0.758-0.99,1.362-1.749,1.748C18.96,22,18.037,22,16.2,22z M7.8,4C6.33,4,5.52,4,5.092,4.218
		C4.713,4.411,4.411,4.713,4.218,5.092C4,5.52,4,6.33,4,7.8v8.4c0,1.47,0,2.279,0.218,2.708c0.193,0.379,0.495,0.681,0.873,0.873
		C5.52,20,6.33,20,7.8,20h8.4c1.47,0,2.279,0,2.708-0.219c0.379-0.192,0.681-0.494,0.873-0.872C20,18.479,20,17.67,20,16.2V7.8
		c0-1.47,0-2.28-0.218-2.708c-0.193-0.379-0.495-0.681-0.874-0.874C18.479,4,17.67,4,16.2,4H7.8z M13,18h-2.167
		c-1.373,0-2.624-0.861-3.114-2.143c-0.197-0.516,0.061-1.094,0.577-1.291c0.515-0.196,1.094,0.06,1.292,0.576
		C9.784,15.655,10.284,16,10.833,16H13c0.827,0,1.5-0.673,1.5-1.5S13.827,13,13,13H6c-0.552,0-1-0.448-1-1s0.448-1,1-1h12
		c0.553,0,1,0.448,1,1s-0.447,1-1,1h-1.838c0.217,0.455,0.338,0.964,0.338,1.5C16.5,16.43,14.93,18,13,18z M15.347,9.5
		c-0.402,0-0.782-0.245-0.935-0.644C14.217,8.344,13.716,8,13.167,8H11c-0.597,0-1.137,0.354-1.375,0.9
		C9.403,9.407,8.812,9.635,8.308,9.417C7.802,9.195,7.57,8.605,7.792,8.1C8.349,6.824,9.608,6,11,6h2.167
		c1.373,0,2.624,0.861,3.114,2.143c0.196,0.516-0.062,1.094-0.578,1.291C15.586,9.479,15.466,9.5,15.347,9.5z"/>
</g>
</svg>
