<?xml version="1.0" encoding="iso-8859-1"?>
<!-- Generator: Adobe Illustrator 27.4.0, SVG Export Plug-In . SVG Version: 6.00 Build 0)  -->
<svg version="1.1" id="Layer_1" xmlns="http://www.w3.org/2000/svg" xmlns:xlink="http://www.w3.org/1999/xlink" x="0px" y="0px"
	 viewBox="0 0 24 24" style="enable-background:new 0 0 24 24;" xml:space="preserve">
<g>
	<path d="M21,20h-4c-0.553,0-1-0.447-1-1c0-1.769,0.562-2.691,2.073-3.404C19.138,15.094,20,14.635,20,14
		c0-0.232-0.085-0.459-0.238-0.638c-0.159-0.181-0.39-0.309-0.64-0.351c-0.252-0.04-0.51,0.004-0.729,0.129
		c-0.209,0.119-0.371,0.311-0.45,0.535c-0.187,0.52-0.757,0.79-1.278,0.606c-0.52-0.186-0.791-0.758-0.606-1.278
		c0.24-0.674,0.719-1.243,1.347-1.602c0.623-0.352,1.352-0.479,2.049-0.362c0.702,0.118,1.347,0.477,1.816,1.009
		C21.743,12.598,22,13.288,22,14c0,1.954-1.909,2.855-3.05,3.394c-0.418,0.197-0.667,0.33-0.804,0.606H21c0.553,0,1,0.447,1,1
		S21.553,20,21,20z M13,16c-0.256,0-0.512-0.098-0.707-0.293L8,11.414l-4.293,4.293c-0.391,0.391-1.023,0.391-1.414,0
		s-0.391-1.023,0-1.414L6.586,10L2.293,5.707c-0.391-0.391-0.391-1.023,0-1.414s1.023-0.391,1.414,0L8,8.586l4.293-4.293
		c0.391-0.391,1.023-0.391,1.414,0s0.391,1.023,0,1.414L9.414,10l4.293,4.293c0.391,0.391,0.391,1.023,0,1.414
		C13.512,15.902,13.256,16,13,16z"/>
</g>
</svg>
