<?xml version="1.0" encoding="iso-8859-1"?>
<!-- Generator: Adobe Illustrator 27.4.0, SVG Export Plug-In . SVG Version: 6.00 Build 0)  -->
<svg version="1.1" id="Layer_1" xmlns="http://www.w3.org/2000/svg" xmlns:xlink="http://www.w3.org/1999/xlink" x="0px" y="0px"
	 viewBox="0 0 24 24" style="enable-background:new 0 0 24 24;" xml:space="preserve">
<g>
	<path d="M20,21H4c-0.552,0-1-0.447-1-1s0.448-1,1-1h16c0.553,0,1,0.447,1,1S20.553,21,20,21z M22,17.5H2c-0.552,0-1-0.447-1-1
		s0.448-1,1-1h20c0.553,0,1,0.447,1,1S22.553,17.5,22,17.5z M22,14h-2c-0.553,0-1-0.447-1-1c0-0.552,0.447-1,1-1h2
		c0.553,0,1,0.448,1,1C23,13.553,22.553,14,22,14z M17,14c-0.553,0-1-0.447-1-1c0-2.206-1.794-4-4-4c-2.206,0-4,1.794-4,4
		c0,0.553-0.448,1-1,1s-1-0.447-1-1c0-3.309,2.691-6,6-6s6,2.691,6,6C18,13.553,17.553,14,17,14z M4,14H2c-0.552,0-1-0.447-1-1
		c0-0.552,0.448-1,1-1h2c0.552,0,1,0.448,1,1C5,13.553,4.552,14,4,14z M17.686,8.314c-0.256,0-0.512-0.098-0.707-0.293
		c-0.391-0.391-0.391-1.023,0-1.414l1.414-1.414c0.391-0.391,1.023-0.391,1.414,0s0.391,1.023,0,1.414l-1.414,1.414
		C18.197,8.216,17.941,8.314,17.686,8.314z M6.314,8.314c-0.256,0-0.512-0.098-0.707-0.293L4.193,6.607
		c-0.391-0.391-0.391-1.023,0-1.414s1.023-0.391,1.414,0l1.414,1.414c0.391,0.391,0.391,1.023,0,1.414
		C6.826,8.216,6.57,8.314,6.314,8.314z M12,6c-0.552,0-1-0.448-1-1V3c0-0.552,0.448-1,1-1s1,0.448,1,1v2C13,5.552,12.552,6,12,6z"/>
</g>
</svg>
