<?xml version="1.0" encoding="iso-8859-1"?>
<!-- Generator: Adobe Illustrator 27.4.0, SVG Export Plug-In . SVG Version: 6.00 Build 0)  -->
<svg version="1.1" id="Layer_1" xmlns="http://www.w3.org/2000/svg" xmlns:xlink="http://www.w3.org/1999/xlink" x="0px" y="0px"
	 viewBox="0 0 24 24" style="enable-background:new 0 0 24 24;" xml:space="preserve">
<g>
	<path d="M8.04,22.326c-0.828,0-1.656-0.168-2.394-0.504C5.143,21.594,4.921,21,5.15,20.498c0.229-0.503,0.822-0.726,1.324-0.496
		c0.951,0.434,2.181,0.434,3.132,0c1.476-0.672,3.311-0.673,4.788,0c0.952,0.433,2.181,0.435,3.133,0
		c0.504-0.23,1.096-0.005,1.324,0.496c0.229,0.502,0.007,1.096-0.496,1.324c-1.476,0.671-3.311,0.673-4.788,0
		c-0.952-0.433-2.182-0.432-3.133,0C9.696,22.158,8.868,22.326,8.04,22.326z M15.961,18.826c-0.828,0-1.656-0.168-2.395-0.504
		c-0.952-0.432-2.182-0.432-3.133,0c-1.476,0.671-3.312,0.671-4.788,0c-0.951-0.432-2.18-0.432-3.132,0
		c-0.501,0.229-1.095,0.006-1.324-0.496c-0.228-0.503-0.006-1.096,0.497-1.324c1.477-0.672,3.311-0.672,4.787,0
		c0.952,0.433,2.181,0.433,3.132,0c1.476-0.672,3.311-0.673,4.788,0c0.952,0.433,2.181,0.435,3.133,0
		c1.475-0.672,3.311-0.672,4.788,0c0.502,0.229,0.725,0.821,0.496,1.324c-0.228,0.501-0.816,0.728-1.324,0.496
		c-0.95-0.431-2.18-0.433-3.132,0C17.616,18.658,16.788,18.826,15.961,18.826z M22,14h-2c-0.553,0-1-0.447-1-1c0-0.552,0.447-1,1-1
		h2c0.553,0,1,0.448,1,1C23,13.553,22.553,14,22,14z M17,14c-0.553,0-1-0.447-1-1c0-2.206-1.794-4-4-4c-2.206,0-4,1.794-4,4
		c0,0.553-0.448,1-1,1s-1-0.447-1-1c0-3.309,2.691-6,6-6s6,2.691,6,6C18,13.553,17.553,14,17,14z M4,14H2c-0.552,0-1-0.447-1-1
		c0-0.552,0.448-1,1-1h2c0.552,0,1,0.448,1,1C5,13.553,4.552,14,4,14z M17.686,8.314c-0.256,0-0.512-0.098-0.707-0.293
		c-0.391-0.391-0.391-1.023,0-1.414l1.414-1.414c0.391-0.391,1.023-0.391,1.414,0s0.391,1.023,0,1.414l-1.414,1.414
		C18.197,8.216,17.941,8.314,17.686,8.314z M6.314,8.314c-0.256,0-0.512-0.098-0.707-0.293L4.193,6.607
		c-0.391-0.391-0.391-1.023,0-1.414s1.023-0.391,1.414,0l1.414,1.414c0.391,0.391,0.391,1.023,0,1.414
		C6.826,8.216,6.57,8.314,6.314,8.314z M12,6c-0.552,0-1-0.448-1-1V3c0-0.552,0.448-1,1-1s1,0.448,1,1v2C13,5.552,12.552,6,12,6z"/>
</g>
</svg>
