<?xml version="1.0" encoding="iso-8859-1"?>
<!-- Generator: Adobe Illustrator 27.4.0, SVG Export Plug-In . SVG Version: 6.00 Build 0)  -->
<svg version="1.1" id="Layer_1" xmlns="http://www.w3.org/2000/svg" xmlns:xlink="http://www.w3.org/1999/xlink" x="0px" y="0px"
	 viewBox="0 0 24 24" style="enable-background:new 0 0 24 24;" xml:space="preserve">
<g>
	<path d="M19,20H5c-0.552,0-1-0.447-1-1s0.448-1,1-1h14c0.553,0,1,0.447,1,1S19.553,20,19,20z M22,16H2c-0.552,0-1-0.447-1-1
		s0.448-1,1-1h3.071C5.558,10.612,8.479,8,12,8s6.442,2.612,6.929,6H22c0.553,0,1,0.447,1,1S22.553,16,22,16z M7.101,14h9.799
		c-0.465-2.279-2.484-4-4.899-4C9.585,10,7.565,11.721,7.101,14z M18.686,8.314c-0.256,0-0.512-0.098-0.707-0.293
		c-0.391-0.391-0.391-1.023,0-1.414l1.414-1.414c0.391-0.391,1.023-0.391,1.414,0s0.391,1.023,0,1.414l-1.414,1.414
		C19.197,8.216,18.941,8.314,18.686,8.314z M5.314,8.314c-0.256,0-0.512-0.098-0.707-0.293L3.193,6.607
		c-0.391-0.391-0.391-1.023,0-1.414s1.023-0.391,1.414,0l1.414,1.414c0.391,0.391,0.391,1.023,0,1.414
		C5.826,8.216,5.57,8.314,5.314,8.314z M12,6c-0.552,0-1-0.448-1-1V3c0-0.552,0.448-1,1-1s1,0.448,1,1v2C13,5.552,12.552,6,12,6z"/>
</g>
</svg>
