<?xml version="1.0" encoding="iso-8859-1"?>
<!-- Generator: Adobe Illustrator 27.4.0, SVG Export Plug-In . SVG Version: 6.00 Build 0)  -->
<svg version="1.1" id="Layer_1" xmlns="http://www.w3.org/2000/svg" xmlns:xlink="http://www.w3.org/1999/xlink" x="0px" y="0px"
	 viewBox="0 0 24 24" style="enable-background:new 0 0 24 24;" xml:space="preserve">
<g>
	<path d="M12,23c-0.552,0-1-0.447-1-1v-2c0-0.553,0.448-1,1-1s1,0.447,1,1v2C13,22.553,12.552,23,12,23z M4.9,20.104
		c-0.256,0-0.512-0.098-0.707-0.293c-0.391-0.391-0.391-1.023,0-1.414l1.414-1.414c0.391-0.391,1.023-0.391,1.414,0
		s0.391,1.023,0,1.414l-1.414,1.414C5.412,20.007,5.156,20.104,4.9,20.104z M19.101,20.104c-0.256,0-0.512-0.098-0.707-0.293
		l-1.415-1.414c-0.391-0.39-0.391-1.023,0-1.414s1.023-0.391,1.414,0l1.415,1.414c0.391,0.39,0.391,1.023,0,1.414
		C19.612,20.007,19.356,20.104,19.101,20.104z M12,18c-3.309,0-6-2.691-6-6s2.691-6,6-6s6,2.691,6,6S15.309,18,12,18z M12,8
		c-2.206,0-4,1.794-4,4c0,2.206,1.794,4,4,4c2.206,0,4-1.794,4-4C16,9.794,14.206,8,12,8z M22,13h-2c-0.553,0-1-0.448-1-1
		s0.447-1,1-1h2c0.553,0,1,0.448,1,1S22.553,13,22,13z M4,13H2c-0.552,0-1-0.448-1-1s0.448-1,1-1h2c0.552,0,1,0.448,1,1
		S4.552,13,4,13z M17.686,7.314c-0.256,0-0.512-0.098-0.707-0.293c-0.391-0.391-0.391-1.024,0-1.415l1.415-1.414
		c0.391-0.39,1.023-0.39,1.414,0s0.391,1.024,0,1.415l-1.415,1.414C18.197,7.216,17.941,7.314,17.686,7.314z M6.314,7.314
		c-0.256,0-0.512-0.098-0.707-0.293L4.193,5.607c-0.391-0.391-0.391-1.023,0-1.414s1.023-0.391,1.414,0l1.414,1.414
		c0.391,0.391,0.391,1.023,0,1.414C6.826,7.216,6.57,7.314,6.314,7.314z M12,5c-0.552,0-1-0.448-1-1V2c0-0.552,0.448-1,1-1
		s1,0.448,1,1v2C13,4.552,12.552,5,12,5z"/>
</g>
</svg>
