<?xml version="1.0" encoding="iso-8859-1"?>
<!-- Generator: Adobe Illustrator 27.4.0, SVG Export Plug-In . SVG Version: 6.00 Build 0)  -->
<svg version="1.1" id="Layer_1" xmlns="http://www.w3.org/2000/svg" xmlns:xlink="http://www.w3.org/1999/xlink" x="0px" y="0px"
	 viewBox="0 0 24 24" style="enable-background:new 0 0 24 24;" xml:space="preserve">
<g>
	<path d="M22,23H2c-0.552,0-1-0.447-1-1s0.448-1,1-1h20c0.553,0,1,0.447,1,1S22.553,23,22,23z M22,19h-2c-0.553,0-1-0.447-1-1
		s0.447-1,1-1h2c0.553,0,1,0.447,1,1S22.553,19,22,19z M17,19c-0.553,0-1-0.447-1-1c0-2.206-1.794-4-4-4c-2.206,0-4,1.794-4,4
		c0,0.553-0.448,1-1,1s-1-0.447-1-1c0-3.309,2.691-6,6-6s6,2.691,6,6C18,18.553,17.553,19,17,19z M4,19H2c-0.552,0-1-0.447-1-1
		s0.448-1,1-1h2c0.552,0,1,0.447,1,1S4.552,19,4,19z M17.686,13.314c-0.256,0-0.512-0.098-0.707-0.293
		c-0.391-0.391-0.391-1.024,0-1.415l1.414-1.414c0.391-0.391,1.023-0.391,1.414,0s0.391,1.023,0,1.414l-1.414,1.415
		C18.197,13.217,17.941,13.314,17.686,13.314z M6.314,13.314c-0.256,0-0.512-0.098-0.707-0.293l-1.414-1.415
		c-0.391-0.391-0.391-1.023,0-1.414s1.023-0.391,1.414,0l1.414,1.414c0.391,0.391,0.391,1.023,0,1.415
		C6.826,13.217,6.57,13.314,6.314,13.314z M12,10c-0.001,0-0.002,0-0.003,0l0,0c-0.134,0-0.262-0.027-0.378-0.075
		c-0.119-0.049-0.23-0.122-0.326-0.218l-4-4c-0.391-0.391-0.391-1.023,0-1.414s1.023-0.391,1.414,0L11,6.586V2c0-0.552,0.448-1,1-1
		s1,0.448,1,1v4.586l2.293-2.293c0.391-0.391,1.023-0.391,1.414,0s0.391,1.023,0,1.414l-4,4c-0.096,0.096-0.208,0.169-0.326,0.218
		C12.265,9.973,12.137,10,12.003,10l0,0C12.002,10,12.001,10,12,10z"/>
</g>
</svg>
