<?xml version="1.0" encoding="iso-8859-1"?>
<!-- Generator: Adobe Illustrator 27.4.0, SVG Export Plug-In . SVG Version: 6.00 Build 0)  -->
<svg version="1.1" id="Layer_1" xmlns="http://www.w3.org/2000/svg" xmlns:xlink="http://www.w3.org/1999/xlink" x="0px" y="0px"
	 viewBox="0 0 24 24" style="enable-background:new 0 0 24 24;" xml:space="preserve">
<g>
	<path d="M8,22c-0.256,0-0.512-0.098-0.707-0.293l-4-4C3.197,17.61,3.124,17.5,3.075,17.381C3.027,17.265,3,17.137,3,17.003l0,0
		c0-0.002,0-0.004,0-0.006l0,0c0-0.134,0.027-0.262,0.075-0.378c0.049-0.119,0.122-0.229,0.218-0.326l4-4
		c0.391-0.391,1.023-0.391,1.414,0s0.391,1.023,0,1.414L6.414,16H20c0.553,0,1,0.447,1,1s-0.447,1-1,1H6.414l2.293,2.293
		c0.391,0.391,0.391,1.023,0,1.414C8.512,21.902,8.256,22,8,22z M16,12c-0.256,0-0.512-0.098-0.707-0.293
		c-0.391-0.391-0.391-1.023,0-1.414L17.586,8H4C3.448,8,3,7.552,3,7s0.448-1,1-1h13.586l-2.293-2.293
		c-0.391-0.391-0.391-1.023,0-1.414s1.023-0.391,1.414,0l4,4c0.097,0.096,0.169,0.208,0.218,0.326C20.973,6.735,21,6.863,21,6.997
		l0,0c0,0.002,0,0.004,0,0.006l0,0c0,0.134-0.027,0.262-0.075,0.378c-0.049,0.119-0.121,0.23-0.218,0.326l-4,4
		C16.512,11.902,16.256,12,16,12z"/>
</g>
</svg>
