<?xml version="1.0" encoding="iso-8859-1"?>
<!-- Generator: Adobe Illustrator 27.4.0, SVG Export Plug-In . SVG Version: 6.00 Build 0)  -->
<svg version="1.1" id="Layer_1" xmlns="http://www.w3.org/2000/svg" xmlns:xlink="http://www.w3.org/1999/xlink" x="0px" y="0px"
	 viewBox="0 0 24 24" style="enable-background:new 0 0 24 24;" xml:space="preserve">
<g>
	<path d="M17,21c-0.001,0-0.002,0-0.003,0l0,0c-0.134,0-0.262-0.027-0.378-0.075c-0.119-0.049-0.229-0.121-0.326-0.218l-4-4
		c-0.391-0.391-0.391-1.023,0-1.414s1.023-0.391,1.414,0L16,17.586V4c0-0.552,0.447-1,1-1s1,0.448,1,1v13.586l2.293-2.293
		c0.391-0.391,1.023-0.391,1.414,0s0.391,1.023,0,1.414l-4,4c-0.097,0.097-0.207,0.169-0.326,0.218
		C17.265,20.973,17.137,21,17.003,21l0,0C17.002,21,17.001,21,17,21z M7,21c-0.552,0-1-0.447-1-1V6.414L3.707,8.707
		c-0.391,0.391-1.023,0.391-1.414,0s-0.391-1.023,0-1.414l4-4C6.389,3.197,6.5,3.124,6.619,3.075C6.735,3.027,6.863,3,6.997,3l0,0
		c0.002,0,0.004,0,0.006,0l0,0c0.134,0,0.262,0.027,0.378,0.075C7.5,3.124,7.611,3.197,7.707,3.293l4,4
		c0.391,0.391,0.391,1.023,0,1.414s-1.023,0.391-1.414,0L8,6.414V20C8,20.553,7.552,21,7,21z"/>
</g>
</svg>
