<?xml version="1.0" encoding="iso-8859-1"?>
<!-- Generator: Adobe Illustrator 27.4.0, SVG Export Plug-In . SVG Version: 6.00 Build 0)  -->
<svg version="1.1" id="Layer_1" xmlns="http://www.w3.org/2000/svg" xmlns:xlink="http://www.w3.org/1999/xlink" x="0px" y="0px"
	 viewBox="0 0 24 24" style="enable-background:new 0 0 24 24;" xml:space="preserve">
<g>
	<path d="M16.8,23H7.2c-1.238,0-1.92,0-2.562-0.326c-0.57-0.292-1.022-0.744-1.312-1.311C3,20.721,3,20.038,3,18.8V5.2
		c0-1.238,0-1.92,0.327-2.562C3.617,2.07,4.07,1.617,4.637,1.327C5.28,1,5.962,1,7.2,1h9.6c1.238,0,1.921,0,2.562,0.327
		c0.567,0.29,1.02,0.742,1.311,1.31C21,3.28,21,3.962,21,5.2v13.6c0,1.238,0,1.921-0.326,2.562
		c-0.291,0.567-0.744,1.021-1.311,1.311C18.721,23,18.038,23,16.8,23z M7.2,3C6.333,3,5.76,3,5.545,3.109
		c-0.186,0.095-0.341,0.25-0.437,0.438C5,3.76,5,4.333,5,5.2v13.6c0,0.867,0,1.44,0.109,1.654c0.096,0.188,0.248,0.341,0.438,0.438
		C5.76,21,6.333,21,7.2,21h9.6c0.867,0,1.44,0,1.654-0.109c0.188-0.096,0.341-0.248,0.438-0.438C19,20.24,19,19.667,19,18.8V5.2
		c0-0.868,0-1.44-0.109-1.655c-0.096-0.188-0.248-0.34-0.438-0.437C18.24,3,17.667,3,16.8,3H16v0.4c0,0.651,0,1.081-0.219,1.51
		c-0.192,0.377-0.494,0.679-0.873,0.872C14.48,6,14.051,6,13.4,6h-2.8C9.95,6,9.52,6,9.092,5.782
		C8.713,5.588,8.412,5.287,8.219,4.91C8,4.48,8,4.05,8,3.4V3H7.2z M10,3v0.4c0,0.279,0,0.567,0.02,0.649C10.033,4,10.321,4,10.6,4
		h2.8c0.278,0,0.566,0,0.648-0.02C14,3.966,14,3.678,14,3.4V3H10z"/>
</g>
</svg>
