<?xml version="1.0" encoding="iso-8859-1"?>
<!-- Generator: Adobe Illustrator 27.4.0, SVG Export Plug-In . SVG Version: 6.00 Build 0)  -->
<svg version="1.1" id="Layer_1" xmlns="http://www.w3.org/2000/svg" xmlns:xlink="http://www.w3.org/1999/xlink" x="0px" y="0px"
	 viewBox="0 0 24 24" style="enable-background:new 0 0 24 24;" xml:space="preserve">
<g>
	<path d="M14,23.172c-0.312,0-0.624-0.049-0.928-0.147c-0.683-0.221-1.165-0.702-2.038-1.576L3.23,13.645
		c-0.376-0.376-0.603-0.603-0.788-0.905c-0.164-0.267-0.285-0.559-0.359-0.865C2,11.526,2,11.206,2,10.674V8.7
		c0-1.238,0-1.92,0.327-2.562C2.617,5.57,3.07,5.117,3.637,4.827C4.28,4.5,4.962,4.5,6.2,4.5h2.974c0.531,0,0.852,0,1.197,0.083
		c0.309,0.075,0.601,0.196,0.868,0.36c0.303,0.185,0.529,0.412,0.905,0.788l7.3,7.3c0.876,0.876,1.358,1.358,1.58,2.044
		c0.197,0.605,0.197,1.246,0,1.854c-0.222,0.684-0.704,1.166-1.58,2.042l-2.475,2.475c-0.876,0.876-1.358,1.358-2.044,1.58
		C14.623,23.123,14.312,23.172,14,23.172z M6.2,6.5c-0.868,0-1.44,0-1.655,0.109c-0.186,0.095-0.341,0.25-0.437,0.438
		C4,7.26,4,7.833,4,8.7v1.974c0,0.384,0,0.616,0.028,0.731c0.024,0.101,0.065,0.199,0.12,0.289c0.062,0.101,0.226,0.265,0.497,0.536
		l7.8,7.8c0.615,0.614,1.019,1.019,1.245,1.092c0.202,0.066,0.417,0.066,0.619,0c0.229-0.073,0.634-0.479,1.247-1.092l2.475-2.475
		c0.613-0.613,1.019-1.019,1.092-1.245c0.066-0.204,0.066-0.417,0-0.619c-0.073-0.229-0.479-0.634-1.092-1.247l-7.3-7.3
		c-0.271-0.271-0.436-0.435-0.536-0.497c-0.089-0.055-0.188-0.095-0.291-0.121C9.79,6.5,9.559,6.5,9.174,6.5H6.2z M21,12
		c-0.256,0-0.512-0.098-0.707-0.293l-7.594-7.594c-0.464-0.463-0.696-0.695-0.897-0.818c-0.179-0.11-0.374-0.19-0.578-0.239
		C10.994,3,10.666,3,10.012,3H6C5.448,3,5,2.552,5,2s0.448-1,1-1h4.012c0.786,0,1.219,0,1.68,0.111
		c0.407,0.097,0.796,0.258,1.155,0.478c0.403,0.247,0.709,0.552,1.263,1.106l7.598,7.598c0.391,0.391,0.391,1.023,0,1.414
		C21.512,11.902,21.256,12,21,12z"/>
</g>
</svg>
