<?xml version="1.0" encoding="iso-8859-1"?>
<!-- Generator: Adobe Illustrator 27.4.0, SVG Export Plug-In . SVG Version: 6.00 Build 0)  -->
<svg version="1.1" id="Layer_1" xmlns="http://www.w3.org/2000/svg" xmlns:xlink="http://www.w3.org/1999/xlink" x="0px" y="0px"
	 viewBox="0 0 24 24" style="enable-background:new 0 0 24 24;" xml:space="preserve">
<g>
	<path d="M14,22.759c-0.416,0-0.832-0.065-1.236-0.197c-0.914-0.298-1.607-0.99-2.865-2.249L2.23,12.645
		c-0.376-0.376-0.603-0.603-0.788-0.905c-0.164-0.267-0.285-0.559-0.359-0.865C1,10.526,1,10.206,1,9.674V5.2
		c0-1.238,0-1.92,0.327-2.562C1.617,2.07,2.07,1.617,2.637,1.327C3.28,1,3.962,1,5.2,1h4.474c0.531,0,0.852,0,1.197,0.083
		c0.309,0.075,0.601,0.196,0.868,0.36c0.303,0.185,0.529,0.412,0.905,0.788l7.668,7.668c1.259,1.258,1.951,1.951,2.249,2.865
		c0.263,0.808,0.263,1.664,0,2.472c-0.297,0.913-0.949,1.565-2.249,2.865l-2.211,2.211c-1.3,1.3-1.952,1.952-2.866,2.249
		C14.832,22.693,14.416,22.759,14,22.759z M5.2,3C4.333,3,3.76,3,3.545,3.109c-0.186,0.095-0.341,0.25-0.437,0.438
		C3,3.76,3,4.333,3,5.2v4.474c0,0.384,0,0.616,0.028,0.731c0.024,0.101,0.065,0.199,0.12,0.289c0.062,0.101,0.226,0.265,0.497,0.536
		l7.668,7.668c1.039,1.039,1.612,1.612,2.07,1.761c0.404,0.133,0.83,0.133,1.234,0c0.458-0.148,1.03-0.721,2.07-1.761l2.211-2.211
		c1.04-1.04,1.612-1.612,1.761-2.069c0.132-0.405,0.132-0.831,0-1.235c-0.148-0.458-0.722-1.031-1.761-2.07L11.23,3.645
		c-0.271-0.271-0.436-0.435-0.536-0.497c-0.089-0.055-0.188-0.095-0.291-0.121C10.29,3,10.059,3,9.674,3H5.2z M8,9.5
		C7.173,9.5,6.5,8.827,6.5,8S7.173,6.5,8,6.5S9.5,7.173,9.5,8S8.827,9.5,8,9.5z"/>
</g>
</svg>
