<?xml version="1.0" encoding="iso-8859-1"?>
<!-- Generator: Adobe Illustrator 27.4.0, SVG Export Plug-In . SVG Version: 6.00 Build 0)  -->
<svg version="1.1" id="Layer_1" xmlns="http://www.w3.org/2000/svg" xmlns:xlink="http://www.w3.org/1999/xlink" x="0px" y="0px"
	 viewBox="0 0 24 24" style="enable-background:new 0 0 24 24;" xml:space="preserve">
<g>
	<path d="M14,22.759c-0.416,0-0.832-0.065-1.236-0.197c-0.914-0.298-1.607-0.99-2.865-2.249L2.23,12.645
		c-0.376-0.376-0.603-0.603-0.788-0.905c-0.164-0.267-0.285-0.559-0.359-0.865C1,10.526,1,10.206,1,9.674V6.826
		c0-0.531,0-0.852,0.083-1.197c0.075-0.309,0.196-0.6,0.36-0.868C1.627,4.458,1.854,4.231,2.23,3.855L3.855,2.23
		c0.376-0.376,0.603-0.603,0.905-0.788C5.028,1.278,5.32,1.157,5.626,1.083C5.974,1,6.294,1,6.826,1h2.849
		c0.531,0,0.852,0,1.197,0.083c0.309,0.075,0.601,0.196,0.868,0.36c0.303,0.185,0.529,0.412,0.905,0.788l7.668,7.668
		c1.259,1.258,1.951,1.951,2.249,2.865c0.263,0.808,0.263,1.664,0,2.472c-0.297,0.913-0.949,1.565-2.249,2.865l-2.211,2.211
		c-1.3,1.3-1.952,1.952-2.866,2.249C14.832,22.693,14.416,22.759,14,22.759z M6.826,3C6.441,3,6.21,3,6.094,3.028
		c-0.101,0.024-0.199,0.065-0.289,0.12C5.705,3.209,5.541,3.373,5.27,3.645L3.645,5.27C3.373,5.541,3.209,5.705,3.147,5.806
		c-0.055,0.09-0.095,0.188-0.12,0.291C3,6.21,3,6.441,3,6.826v2.849c0,0.384,0,0.616,0.028,0.731
		c0.024,0.101,0.065,0.199,0.12,0.289c0.062,0.101,0.226,0.265,0.497,0.536l7.668,7.668c1.039,1.039,1.612,1.612,2.07,1.761
		c0.404,0.133,0.83,0.133,1.234,0c0.458-0.148,1.03-0.721,2.07-1.761l2.211-2.211c1.04-1.04,1.612-1.612,1.761-2.069
		c0.132-0.405,0.132-0.831,0-1.235c-0.148-0.458-0.722-1.031-1.761-2.07L11.23,3.645c-0.271-0.271-0.436-0.435-0.536-0.497
		c-0.089-0.055-0.188-0.095-0.291-0.121C10.29,3,10.059,3,9.674,3H6.826z M8,9.5C7.173,9.5,6.5,8.827,6.5,8S7.173,6.5,8,6.5
		S9.5,7.173,9.5,8S8.827,9.5,8,9.5z"/>
</g>
</svg>
