<?xml version="1.0" encoding="iso-8859-1"?>
<!-- Generator: Adobe Illustrator 27.4.0, SVG Export Plug-In . SVG Version: 6.00 Build 0)  -->
<svg version="1.1" id="Layer_1" xmlns="http://www.w3.org/2000/svg" xmlns:xlink="http://www.w3.org/1999/xlink" x="0px" y="0px"
	 viewBox="0 0 24 24" style="enable-background:new 0 0 24 24;" xml:space="preserve">
<g>
	<path d="M12,23C5.935,23,1,18.065,1,12S5.935,1,12,1s11,4.935,11,11S18.065,23,12,23z M12,17c0.552,0,1,0.447,1,1v2.944
		c4.165-0.462,7.482-3.779,7.944-7.944H18c-0.553,0-1-0.448-1-1s0.447-1,1-1h2.944C20.482,6.835,17.165,3.518,13,3.055V6
		c0,0.552-0.448,1-1,1s-1-0.448-1-1V3.055C6.835,3.518,3.518,6.835,3.055,11H6c0.552,0,1,0.448,1,1s-0.448,1-1,1H3.055
		c0.462,4.165,3.78,7.482,7.945,7.944V18C11,17.447,11.448,17,12,17z"/>
</g>
</svg>
