<?xml version="1.0" encoding="iso-8859-1"?>
<!-- Generator: Adobe Illustrator 27.4.0, SVG Export Plug-In . SVG Version: 6.00 Build 0)  -->
<svg version="1.1" id="Layer_1" xmlns="http://www.w3.org/2000/svg" xmlns:xlink="http://www.w3.org/1999/xlink" x="0px" y="0px"
	 viewBox="0 0 24 24" style="enable-background:new 0 0 24 24;" xml:space="preserve">
<g>
	<path d="M12,23c-0.552,0-1-0.447-1-1v-1.056C6.835,20.482,3.518,17.165,3.055,13H2c-0.552,0-1-0.448-1-1s0.448-1,1-1h1.055
		C3.518,6.835,6.835,3.518,11,3.055V2c0-0.552,0.448-1,1-1s1,0.448,1,1v1.055c4.165,0.462,7.482,3.78,7.944,7.945H22
		c0.553,0,1,0.448,1,1s-0.447,1-1,1h-1.056c-0.462,4.165-3.779,7.482-7.944,7.944V22C13,22.553,12.552,23,12,23z M12,17
		c0.552,0,1,0.447,1,1v0.929c3.062-0.439,5.489-2.867,5.929-5.929H18c-0.553,0-1-0.448-1-1s0.447-1,1-1h0.929
		C18.489,7.939,16.062,5.511,13,5.071V6c0,0.552-0.448,1-1,1s-1-0.448-1-1V5.071C7.939,5.511,5.511,7.939,5.071,11H6
		c0.552,0,1,0.448,1,1s-0.448,1-1,1H5.071c0.44,3.062,2.868,5.489,5.929,5.929V18C11,17.447,11.448,17,12,17z M12,16
		c-2.206,0-4-1.794-4-4c0-2.206,1.794-4,4-4c2.206,0,4,1.794,4,4C16,14.206,14.206,16,12,16z M12,10c-1.103,0-2,0.897-2,2
		c0,1.103,0.897,2,2,2c1.103,0,2-0.897,2-2C14,10.897,13.103,10,12,10z"/>
</g>
</svg>
