<?xml version="1.0" encoding="iso-8859-1"?>
<!-- Generator: Adobe Illustrator 27.4.0, SVG Export Plug-In . SVG Version: 6.00 Build 0)  -->
<svg version="1.1" id="Layer_1" xmlns="http://www.w3.org/2000/svg" xmlns:xlink="http://www.w3.org/1999/xlink" x="0px" y="0px"
	 viewBox="0 0 24 24" style="enable-background:new 0 0 24 24;" xml:space="preserve">
<g>
	<path d="M6,23c-0.194,0-0.39-0.057-0.562-0.174c-0.456-0.312-0.574-0.934-0.263-1.39l4.407-6.464C9.216,14.476,9,13.862,9,13.2
		c0-0.093,0.004-0.186,0.013-0.276l-2.096,0.562c-0.348,0.092-0.64,0.17-0.994,0.095c-0.302-0.062-0.589-0.229-0.801-0.465
		c-0.044-0.05-0.084-0.101-0.119-0.152l-1.243,0.333c0,0,0,0,0,0c-0.356,0.096-0.637,0.171-0.989,0.096
		c-0.312-0.066-0.589-0.227-0.803-0.463c-0.241-0.268-0.32-0.564-0.412-0.906l-0.362-1.352c-0.092-0.341-0.171-0.636-0.097-0.989
		c0.067-0.313,0.227-0.59,0.464-0.804c0.267-0.24,0.561-0.319,0.901-0.411L3.71,8.133C3.714,8.07,3.723,8.006,3.737,7.938
		C3.803,7.627,3.963,7.349,4.2,7.136c0.268-0.241,0.564-0.32,0.906-0.412l11.555-3.096c0.165-0.328,0.391-0.624,0.67-0.876
		c0.537-0.483,1.196-0.659,2.392-0.979c0.34-0.092,0.633-0.173,0.989-0.096c0.313,0.066,0.592,0.228,0.805,0.466
		c0.239,0.262,0.318,0.559,0.41,0.903l1.397,5.216c0.095,0.354,0.17,0.635,0.098,0.985c-0.069,0.319-0.229,0.594-0.462,0.806
		c-0.272,0.244-0.567,0.323-0.909,0.414c-1.194,0.32-1.854,0.498-2.559,0.347c-0.368-0.078-0.712-0.222-1.02-0.423l-4.024,1.079
		C14.796,11.958,15,12.555,15,13.2c0,0.662-0.216,1.275-0.581,1.772l4.407,6.464c0.312,0.456,0.193,1.079-0.263,1.39
		c-0.456,0.31-1.079,0.194-1.39-0.263l-4.406-6.463c-0.49,0.131-1.045,0.131-1.535,0l-4.406,6.463C6.633,22.848,6.319,23,6,23z
		 M11.52,14.077c0.285,0.156,0.677,0.157,0.962-0.001c0.024-0.021,0.05-0.039,0.077-0.058c0.026-0.018,0.053-0.034,0.08-0.049
		C12.859,13.786,13,13.509,13,13.2c0-0.551-0.448-1-1-1s-1,0.449-1,1c0,0.309,0.141,0.585,0.361,0.769
		c0.027,0.015,0.055,0.031,0.081,0.05C11.469,14.037,11.495,14.057,11.52,14.077z M3.502,12.33h0.01H3.502z M3.556,11.746
		L3.556,11.746L3.556,11.746z M5.816,8.604l0.776,2.898l10.626-2.847l-0.777-2.898L5.816,8.604z M4.515,11.488L4.515,11.488
		L4.515,11.488z M3.178,10.346l0.259,0.966l0.966-0.259l-0.259-0.966L3.178,10.346z M2.745,10.466L2.745,10.466L2.745,10.466z
		 M3.065,9.912L3.065,9.912L3.065,9.912z M21.453,9.021L21.453,9.021L21.453,9.021z M20.047,3.756
		c-0.73,0.196-1.212,0.333-1.377,0.482c-0.157,0.142-0.265,0.327-0.309,0.535c-0.05,0.233,0.098,0.784,0.321,1.618l0.157,0.587
		c0.224,0.837,0.371,1.39,0.533,1.57c0.14,0.155,0.33,0.265,0.535,0.309c0.218,0.044,0.701-0.076,1.433-0.271L20.047,3.756z
		 M19.928,3.324L19.928,3.324L19.928,3.324z"/>
</g>
</svg>
