<svg width="17" height="16" viewBox="0 0 17 16" fill="none" xmlns="http://www.w3.org/2000/svg">
<path d="M0 8.5713C0.0760287 8.39108 0.217571 8.24639 0.39608 8.16642C5.5504 5.47542 10.703 2.78501 15.8538 0.0951845C15.9439 0.0331903 16.0507 0 16.1601 0C16.2695 0 16.3763 0.0331903 16.4664 0.0951845C16.5556 0.159085 16.6227 0.249194 16.6583 0.352988C16.694 0.456782 16.6964 0.569104 16.6653 0.674342C16.6389 0.808129 16.6266 0.943676 16.6072 1.07746C16.3725 2.6653 16.1378 4.25315 15.9031 5.84099C15.6578 7.48399 15.4119 9.13109 15.1655 10.7823C15.037 11.6466 14.9137 12.511 14.7817 13.3736C14.7131 13.8136 14.4296 13.9826 14.0072 13.84L8.07827 11.8244C7.65755 11.6818 7.23858 11.5375 6.79674 11.3843L13.7977 2.95752L13.7783 2.93112C13.7431 2.95576 13.7061 2.97865 13.6727 3.00681C10.7212 5.5253 7.77315 8.04495 4.82866 10.5658C4.79196 10.6034 4.74445 10.6288 4.69273 10.6382C4.641 10.6477 4.58761 10.6408 4.53996 10.6186C3.16688 10.1492 1.79263 9.67974 0.417204 9.21031C0.325651 9.17878 0.241461 9.12897 0.169743 9.06391C0.0980248 8.99885 0.0402754 8.91989 0 8.83183V8.5713Z" fill="black"/>
<path d="M6.54851 16C6.163 15.8574 6.08554 15.743 6.08554 15.324V12.2451L8.90211 13.2098L8.79649 13.3595C8.24022 14.1164 7.68218 14.8716 7.12943 15.6321C7.02437 15.8029 6.86414 15.9327 6.67526 16H6.54851Z" fill="black"/>
</svg>
