<?xml version="1.0" encoding="iso-8859-1"?>
<!-- Generator: Adobe Illustrator 27.4.0, SVG Export Plug-In . SVG Version: 6.00 Build 0)  -->
<svg version="1.1" id="Layer_1" xmlns="http://www.w3.org/2000/svg" xmlns:xlink="http://www.w3.org/1999/xlink" x="0px" y="0px"
	 viewBox="0 0 24 24" style="enable-background:new 0 0 24 24;" xml:space="preserve">
<g>
	<path d="M19.5,22h-5c-0.553,0-1-0.447-1-1s0.447-1,1-1H16V4h-1.5c-0.553,0-1-0.448-1-1s0.447-1,1-1h5c0.553,0,1,0.448,1,1
		s-0.447,1-1,1H18v2h0.8c1.238,0,1.921,0,2.562,0.327c0.567,0.29,1.02,0.742,1.311,1.31C23,8.28,23,8.962,23,10.2v3.6
		c0,1.238,0,1.921-0.326,2.562c-0.291,0.567-0.744,1.021-1.311,1.311C20.721,18,20.038,18,18.8,18H18v2h1.5c0.553,0,1,0.447,1,1
		S20.053,22,19.5,22z M18,16h0.8c0.867,0,1.44,0,1.654-0.109c0.188-0.096,0.341-0.248,0.438-0.438C21,15.24,21,14.667,21,13.8v-3.6
		c0-0.868,0-1.44-0.109-1.655c-0.096-0.188-0.248-0.34-0.438-0.437C20.24,8,19.667,8,18.8,8H18V16z M13,18H5.2
		c-1.238,0-1.92,0-2.562-0.326c-0.57-0.292-1.022-0.744-1.312-1.311C1,15.721,1,15.038,1,13.8v-3.6c0-1.238,0-1.92,0.327-2.562
		C1.617,7.07,2.07,6.617,2.637,6.327C3.28,6,3.962,6,5.2,6H13c0.553,0,1,0.448,1,1s-0.447,1-1,1H5.2C4.333,8,3.76,8,3.545,8.109
		c-0.186,0.095-0.341,0.25-0.437,0.438C3,8.76,3,9.333,3,10.2v3.6c0,0.867,0,1.44,0.109,1.654c0.096,0.188,0.248,0.341,0.438,0.438
		C3.76,16,4.333,16,5.2,16H13c0.553,0,1,0.447,1,1S13.553,18,13,18z"/>
</g>
</svg>
