<?xml version="1.0" encoding="iso-8859-1"?>
<!-- Generator: Adobe Illustrator 27.4.0, SVG Export Plug-In . SVG Version: 6.00 Build 0)  -->
<svg version="1.1" id="Layer_1" xmlns="http://www.w3.org/2000/svg" xmlns:xlink="http://www.w3.org/1999/xlink" x="0px" y="0px"
	 viewBox="0 0 24 24" style="enable-background:new 0 0 24 24;" xml:space="preserve">
<g>
	<path d="M18,23c-2.757,0-5-2.243-5-5c0-1.578,0.754-3.062,2-4V4c0-1.654,1.346-3,3-3s3,1.346,3,3v10c1.246,0.938,2,2.422,2,4
		C23,20.757,20.757,23,18,23z M18,3c-0.552,0-1,0.449-1,1v10.535c0,0.357-0.19,0.687-0.499,0.865C15.575,15.937,15,16.933,15,18
		c0,1.654,1.346,3,3,3s3-1.346,3-3c0-1.067-0.575-2.063-1.501-2.6C19.19,15.222,19,14.893,19,14.535V4C19,3.449,18.552,3,18,3z
		 M9,21c-0.552,0-1-0.447-1-1v-2.586l-1.293,1.293c-0.391,0.391-1.023,0.391-1.414,0s-0.391-1.023,0-1.414L8,14.586V13H6.414
		l-2.707,2.707c-0.391,0.391-1.023,0.391-1.414,0s-0.391-1.023,0-1.414L3.586,13H2c-0.552,0-1-0.448-1-1s0.448-1,1-1h1.586
		L2.293,9.707c-0.391-0.391-0.391-1.023,0-1.414s1.023-0.391,1.414,0L6.414,11H8V9.414L5.293,6.707
		c-0.391-0.391-0.391-1.023,0-1.414s1.023-0.391,1.414,0L8,6.586V4c0-0.552,0.448-1,1-1s1,0.448,1,1v2.586l1.293-1.293
		c0.391-0.391,1.023-0.391,1.414,0s0.391,1.023,0,1.414L10,9.414V11h2c0.552,0,1,0.448,1,1s-0.448,1-1,1h-2v1.586l1.207,1.207
		c0.391,0.391,0.391,1.023,0,1.414c-0.328,0.327-0.824,0.379-1.207,0.159V20C10,20.553,9.552,21,9,21z"/>
</g>
</svg>
