<?xml version="1.0" encoding="iso-8859-1"?>
<!-- Generator: Adobe Illustrator 27.4.0, SVG Export Plug-In . SVG Version: 6.00 Build 0)  -->
<svg version="1.1" id="Layer_1" xmlns="http://www.w3.org/2000/svg" xmlns:xlink="http://www.w3.org/1999/xlink" x="0px" y="0px"
	 viewBox="0 0 24 24" style="enable-background:new 0 0 24 24;" xml:space="preserve">
<g>
	<path d="M8,23c-3.033,0-5.5-2.468-5.5-5.5c0-1.653,0.739-3.202,2-4.243V4.5C4.5,2.57,6.07,1,8,1s3.5,1.57,3.5,3.5v8.757
		c1.261,1.041,2,2.59,2,4.243C13.5,20.532,11.033,23,8,23z M8,3C7.173,3,6.5,3.673,6.5,4.5v9.258c0,0.334-0.167,0.646-0.443,0.831
		C5.082,15.241,4.5,16.33,4.5,17.5C4.5,19.43,6.07,21,8,21s3.5-1.57,3.5-3.5c0-1.17-0.582-2.259-1.557-2.911
		C9.667,14.403,9.5,14.092,9.5,13.758V4.5C9.5,3.673,8.827,3,8,3z M5.5,13.758h0.01H5.5z M8,19.5c-1.103,0-2-0.897-2-2s0.897-2,2-2
		s2,0.897,2,2S9.103,19.5,8,19.5z M8,17.499L8,17.499L8,17.499z M21,12h-6c-0.553,0-1-0.448-1-1s0.447-1,1-1h6c0.553,0,1,0.448,1,1
		S21.553,12,21,12z M21,8h-6c-0.553,0-1-0.448-1-1s0.447-1,1-1h6c0.553,0,1,0.448,1,1S21.553,8,21,8z M21,4h-6c-0.553,0-1-0.448-1-1
		s0.447-1,1-1h6c0.553,0,1,0.448,1,1S21.553,4,21,4z"/>
</g>
</svg>
