<?xml version="1.0" encoding="iso-8859-1"?>
<!-- Generator: Adobe Illustrator 27.4.0, SVG Export Plug-In . SVG Version: 6.00 Build 0)  -->
<svg version="1.1" id="Layer_1" xmlns="http://www.w3.org/2000/svg" xmlns:xlink="http://www.w3.org/1999/xlink" x="0px" y="0px"
	 viewBox="0 0 24 24" style="enable-background:new 0 0 24 24;" xml:space="preserve">
<g>
	<path d="M18,23c-2.757,0-5-2.243-5-5c0-1.578,0.754-3.062,2-4V4c0-1.654,1.346-3,3-3s3,1.346,3,3v10c1.246,0.938,2,2.422,2,4
		C23,20.757,20.757,23,18,23z M18,3c-0.552,0-1,0.449-1,1v10.535c0,0.357-0.19,0.687-0.499,0.865C15.575,15.937,15,16.933,15,18
		c0,1.654,1.346,3,3,3s3-1.346,3-3c0-1.067-0.575-2.063-1.501-2.6C19.19,15.222,19,14.893,19,14.535V4C19,3.449,18.552,3,18,3z
		 M5.2,20.8c-0.256,0-0.512-0.098-0.707-0.293c-0.391-0.391-0.391-1.023,0-1.414l1.4-1.399c0.391-0.391,1.023-0.391,1.414,0
		s0.391,1.023,0,1.414l-1.4,1.399C5.712,20.702,5.456,20.8,5.2,20.8z M9.999,17.5c-0.164,0-0.33-0.04-0.483-0.125
		c-0.972-0.537-1.746-1.396-2.181-2.417c-0.435-1.021-0.517-2.174-0.231-3.247S8.036,9.679,8.922,9.01
		c0.885-0.669,1.98-1.026,3.094-1.01C12.568,8.009,13.009,8.464,13,9.016C12.991,9.562,12.545,10,12,10c-0.019,0-0.042,0-0.063,0
		c-0.65,0-1.291,0.214-1.81,0.606c-0.532,0.401-0.919,0.977-1.09,1.621c-0.172,0.644-0.123,1.335,0.138,1.948
		c0.261,0.613,0.726,1.128,1.309,1.45c0.483,0.267,0.659,0.876,0.391,1.358C10.693,17.313,10.351,17.5,9.999,17.5z M4,14H2
		c-0.552,0-1-0.447-1-1c0-0.552,0.448-1,1-1h2c0.552,0,1,0.448,1,1C5,13.553,4.552,14,4,14z M6.6,8.6
		c-0.256,0-0.512-0.098-0.707-0.293l-1.4-1.4c-0.391-0.391-0.391-1.023,0-1.414s1.023-0.391,1.414,0l1.4,1.4
		c0.391,0.391,0.391,1.023,0,1.414C7.112,8.502,6.856,8.6,6.6,8.6z M12,6c-0.552,0-1-0.448-1-1V3c0-0.552,0.448-1,1-1s1,0.448,1,1v2
		C13,5.552,12.552,6,12,6z"/>
</g>
</svg>
