<?xml version="1.0" encoding="iso-8859-1"?>
<!-- Generator: Adobe Illustrator 27.4.0, SVG Export Plug-In . SVG Version: 6.00 Build 0)  -->
<svg version="1.1" id="Layer_1" xmlns="http://www.w3.org/2000/svg" xmlns:xlink="http://www.w3.org/1999/xlink" x="0px" y="0px"
	 viewBox="0 0 24 24" style="enable-background:new 0 0 24 24;" xml:space="preserve">
<g>
	<path d="M12,23c-3.033,0-5.5-2.468-5.5-5.5c0-1.653,0.739-3.202,2-4.243V4.5C8.5,2.57,10.07,1,12,1s3.5,1.57,3.5,3.5v8.757
		c1.262,1.041,2,2.59,2,4.243C17.5,20.532,15.032,23,12,23z M12,3c-0.827,0-1.5,0.673-1.5,1.5v9.258
		c0,0.334-0.167,0.646-0.443,0.831C9.082,15.241,8.5,16.33,8.5,17.5c0,1.93,1.57,3.5,3.5,3.5s3.5-1.57,3.5-3.5
		c0-1.17-0.582-2.259-1.557-2.911c-0.277-0.186-0.443-0.497-0.443-0.831V4.5C13.5,3.673,12.827,3,12,3z"/>
</g>
<g>
	<circle cx="12" cy="17.5" r="2"/>
</g>
</svg>
