<?xml version="1.0" encoding="iso-8859-1"?>
<!-- Generator: Adobe Illustrator 27.4.0, SVG Export Plug-In . SVG Version: 6.00 Build 0)  -->
<svg version="1.1" id="Layer_1" xmlns="http://www.w3.org/2000/svg" xmlns:xlink="http://www.w3.org/1999/xlink" x="0px" y="0px"
	 viewBox="0 0 24 24" style="enable-background:new 0 0 24 24;" xml:space="preserve">
<g>
	<path d="M17.426,23H4c-1.654,0-3-1.346-3-3v-7c0-1.654,1.346-3,3-3h2.35l3.52-7.918C10.161,1.425,10.815,1,11.534,1
		C13.445,1,15,2.555,15,4.466V8h3.503c1.169,0,2.275,0.509,3.036,1.396s1.096,2.058,0.918,3.212l-1.077,7
		C21.077,21.573,19.414,23,17.426,23z M8,21h9.426c0.994,0,1.826-0.714,1.978-1.696l1.077-7c0.089-0.578-0.079-1.163-0.459-1.606
		C19.641,10.254,19.087,10,18.503,10H15c-1.103,0-2-0.897-2-2V4.466c0-0.77-0.597-1.403-1.352-1.461l-3.47,7.808
		C8.128,10.925,8.068,11.031,8,11.13V21z M4,12c-0.551,0-1,0.449-1,1v7c0,0.552,0.449,1,1,1h2v-9H4z"/>
</g>
</svg>
