<?xml version="1.0" encoding="iso-8859-1"?>
<!-- Generator: Adobe Illustrator 27.4.0, SVG Export Plug-In . SVG Version: 6.00 Build 0)  -->
<svg version="1.1" id="Layer_1" xmlns="http://www.w3.org/2000/svg" xmlns:xlink="http://www.w3.org/1999/xlink" x="0px" y="0px"
	 viewBox="0 0 24 24" style="enable-background:new 0 0 24 24;" xml:space="preserve">
<g>
	<path d="M12.466,23C10.555,23,9,21.445,9,19.534V16.6c0-0.278,0-0.566-0.02-0.648C8.966,16,8.678,16,8.4,16H7.595
		c-2.101,0-3.156,0-4.075-0.523c-0.805-0.457-1.43-1.186-1.76-2.051c-0.377-0.988-0.216-2.031,0.103-4.107l0.523-3.4
		c0.236-1.536,0.366-2.38,0.838-3.104c0.417-0.64,1.005-1.144,1.7-1.458C5.71,1,6.565,1,8.118,1H18.8c1.238,0,1.921,0,2.562,0.327
		c0.567,0.29,1.02,0.742,1.311,1.31C23,3.28,23,3.962,23,5.2v4.6c0,1.238,0,1.92-0.326,2.562c-0.292,0.57-0.744,1.022-1.311,1.312
		C20.721,14,20.038,14,18.8,14h-0.76c-0.199-0.001-0.324-0.009-0.422,0.01c-0.002,0.048-0.046,0.165-0.126,0.346l-3.361,7.562
		C13.839,22.575,13.186,23,12.466,23z M8.118,3c-1.274,0-1.977,0-2.37,0.178c-0.347,0.157-0.641,0.409-0.85,0.729
		C4.663,4.269,4.556,4.961,4.363,6.219L3.839,9.623c-0.257,1.674-0.399,2.596-0.21,3.09c0.165,0.433,0.477,0.797,0.879,1.025
		C4.968,14,5.901,14,7.595,14H8.4c0.651,0,1.081,0,1.51,0.219c0.377,0.192,0.679,0.494,0.872,0.873C11,15.52,11,15.949,11,16.6
		v2.935c0,0.77,0.597,1.403,1.352,1.462l3.312-7.452c0.121-0.272,0.214-0.483,0.336-0.668V3H8.118z M18,3v9c0.014,0,0.026,0,0.04,0
		h0.76c0.867,0,1.44,0,1.654-0.109c0.188-0.096,0.341-0.248,0.438-0.438C21,11.24,21,10.667,21,9.8V5.2c0-0.868,0-1.44-0.109-1.655
		c-0.096-0.188-0.248-0.34-0.438-0.437C20.24,3,19.667,3,18.8,3H18z"/>
</g>
</svg>
