<?xml version="1.0" encoding="iso-8859-1"?>
<!-- Generator: Adobe Illustrator 27.4.0, SVG Export Plug-In . SVG Version: 6.00 Build 0)  -->
<svg version="1.1" id="Layer_1" xmlns="http://www.w3.org/2000/svg" xmlns:xlink="http://www.w3.org/1999/xlink" x="0px" y="0px"
	 viewBox="0 0 24 24" style="enable-background:new 0 0 24 24;" xml:space="preserve">
<g>
	<path d="M17.2,21H6.8c-1.838,0-2.76,0-3.616-0.437c-0.757-0.385-1.362-0.989-1.748-1.747C1,17.96,1,17.037,1,15.2V8.8
		c0-1.838,0-2.76,0.436-3.616c0.386-0.757,0.991-1.362,1.748-1.748C4.04,3,4.962,3,6.8,3h10.4c1.837,0,2.76,0,3.616,0.436
		c0.758,0.386,1.362,0.991,1.748,1.749C23,6.04,23,6.962,23,8.8v6.4c0,1.837,0,2.76-0.436,3.616
		c-0.386,0.758-0.99,1.362-1.749,1.748C19.96,21,19.037,21,17.2,21z M6.8,5C5.33,5,4.52,5,4.092,5.218
		C3.713,5.411,3.411,5.713,3.218,6.092C3,6.52,3,7.33,3,8.8v6.4c0,1.47,0,2.279,0.218,2.708c0.193,0.379,0.495,0.681,0.873,0.873
		C4.52,19,5.33,19,6.8,19h10.4c1.47,0,2.279,0,2.708-0.219c0.379-0.192,0.681-0.494,0.873-0.872C21,17.479,21,16.67,21,15.2V8.8
		c0-1.47,0-2.28-0.218-2.708c-0.193-0.379-0.495-0.681-0.874-0.874C19.479,5,18.67,5,17.2,5H6.8z M8,18c-0.552,0-1-0.447-1-1v-1
		c0-0.553,0.448-1,1-1s1,0.447,1,1v1C9,17.553,8.552,18,8,18z M8,13.5c-0.552,0-1-0.447-1-1v-1c0-0.552,0.448-1,1-1s1,0.448,1,1v1
		C9,13.053,8.552,13.5,8,13.5z M8,9C7.448,9,7,8.552,7,8V7c0-0.552,0.448-1,1-1s1,0.448,1,1v1C9,8.552,8.552,9,8,9z"/>
</g>
</svg>
