<?xml version="1.0" encoding="iso-8859-1"?>
<!-- Generator: Adobe Illustrator 27.4.0, SVG Export Plug-In . SVG Version: 6.00 Build 0)  -->
<svg version="1.1" id="Layer_1" xmlns="http://www.w3.org/2000/svg" xmlns:xlink="http://www.w3.org/1999/xlink" x="0px" y="0px"
	 viewBox="0 0 24 24" style="enable-background:new 0 0 24 24;" xml:space="preserve">
<g>
	<path d="M18.8,21H5.2c-1.238,0-1.92,0-2.562-0.326c-0.57-0.292-1.022-0.744-1.312-1.311C1,18.721,1,18.038,1,16.8v-1.3
		c0-0.553,0.448-1,1-1c1.378,0,2.5-1.121,2.5-2.5c0-1.378-1.122-2.5-2.5-2.5c-0.552,0-1-0.448-1-1V7.2c0-1.238,0-1.92,0.327-2.562
		C1.617,4.07,2.07,3.617,2.637,3.327C3.28,3,3.962,3,5.2,3h13.6c1.238,0,1.921,0,2.562,0.327c0.567,0.29,1.02,0.742,1.311,1.31
		C23,5.28,23,5.962,23,7.2v1.3c0,0.552-0.447,1-1,1c-1.379,0-2.5,1.122-2.5,2.5c0,1.379,1.121,2.5,2.5,2.5c0.553,0,1,0.447,1,1v1.3
		c0,1.238,0,1.921-0.326,2.562c-0.291,0.567-0.744,1.021-1.311,1.311C20.721,21,20.038,21,18.8,21z M3,16.388V16.8
		c0,0.867,0,1.44,0.109,1.654c0.096,0.188,0.248,0.341,0.438,0.438C3.76,19,4.333,19,5.2,19h13.6c0.867,0,1.44,0,1.654-0.109
		c0.188-0.096,0.341-0.248,0.438-0.438C21,18.24,21,17.667,21,16.8v-0.412c-2.002-0.456-3.5-2.25-3.5-4.388s1.498-3.932,3.5-4.388
		V7.2c0-0.868,0-1.44-0.109-1.655c-0.096-0.188-0.248-0.34-0.438-0.437C20.24,5,19.667,5,18.8,5H5.2C4.333,5,3.76,5,3.545,5.109
		c-0.186,0.095-0.341,0.25-0.437,0.438C3,5.76,3,6.333,3,7.2v0.412C5.001,8.068,6.5,9.862,6.5,12S5.001,15.932,3,16.388z M10,18
		c-0.552,0-1-0.447-1-1v-1c0-0.553,0.448-1,1-1s1,0.447,1,1v1C11,17.553,10.552,18,10,18z M10,13.5c-0.552,0-1-0.447-1-1v-1
		c0-0.552,0.448-1,1-1s1,0.448,1,1v1C11,13.053,10.552,13.5,10,13.5z M10,9C9.448,9,9,8.552,9,8V7c0-0.552,0.448-1,1-1s1,0.448,1,1
		v1C11,8.552,10.552,9,10,9z"/>
</g>
</svg>
