<?xml version="1.0" encoding="iso-8859-1"?>
<!-- Generator: Adobe Illustrator 27.4.0, SVG Export Plug-In . SVG Version: 6.00 Build 0)  -->
<svg version="1.1" id="Layer_1" xmlns="http://www.w3.org/2000/svg" xmlns:xlink="http://www.w3.org/1999/xlink" x="0px" y="0px"
	 viewBox="0 0 24 24" style="enable-background:new 0 0 24 24;" xml:space="preserve">
<g>
	<path d="M17,18H7c-3.309,0-6-2.691-6-6s2.691-6,6-6h10c3.309,0,6,2.691,6,6S20.309,18,17,18z M17,8c-2.206,0-4,1.794-4,4
		c0,2.206,1.794,4,4,4s4-1.794,4-4C21,9.794,19.206,8,17,8z M7,8c-2.206,0-4,1.794-4,4c0,2.206,1.794,4,4,4h5.532
		C11.58,14.938,11,13.535,11,12s0.58-2.938,1.532-4H7z"/>
</g>
</svg>
