<?xml version="1.0" encoding="iso-8859-1"?>
<!-- Generator: Adobe Illustrator 27.4.0, SVG Export Plug-In . SVG Version: 6.00 Build 0)  -->
<svg version="1.1" id="Layer_1" xmlns="http://www.w3.org/2000/svg" xmlns:xlink="http://www.w3.org/1999/xlink" x="0px" y="0px"
	 viewBox="0 0 24 24" style="enable-background:new 0 0 24 24;" xml:space="preserve">
<g>
	<path d="M7,18c-3.309,0-6-2.691-6-6s2.691-6,6-6c1.224,0,2.363,0.368,3.313,1H18c2.757,0,5,2.243,5,5s-2.243,5-5,5h-7.687
		C9.363,17.632,8.224,18,7,18z M7,8c-2.206,0-4,1.794-4,4c0,2.206,1.794,4,4,4s4-1.794,4-4C11,9.794,9.206,8,7,8z M12.195,15H18
		c1.654,0,3-1.346,3-3s-1.346-3-3-3h-5.805C12.707,9.883,13,10.908,13,12S12.707,14.117,12.195,15z"/>
</g>
</svg>
