<?xml version="1.0" encoding="iso-8859-1"?>
<!-- Generator: Adobe Illustrator 27.4.0, SVG Export Plug-In . SVG Version: 6.00 Build 0)  -->
<svg version="1.1" id="Layer_1" xmlns="http://www.w3.org/2000/svg" xmlns:xlink="http://www.w3.org/1999/xlink" x="0px" y="0px"
	 viewBox="0 0 24 24" style="enable-background:new 0 0 24 24;" xml:space="preserve">
<g>
	<path d="M16.999,18c-1.224,0-2.363-0.368-3.313-1H6c-2.757,0-5-2.243-5-5s2.243-5,5-5h7.686c0.95-0.632,2.09-1,3.313-1
		c3.309,0,6,2.691,6,6S20.308,18,16.999,18z M16.999,8c-2.205,0-4,1.794-4,4c0,2.206,1.794,4,4,4c2.206,0,4-1.794,4-4
		C20.999,9.794,19.205,8,16.999,8z M6,9c-1.654,0-3,1.346-3,3s1.346,3,3,3h5.805C11.293,14.117,11,13.092,11,12s0.293-2.117,0.805-3
		H6z"/>
</g>
</svg>
