<?xml version="1.0" encoding="iso-8859-1"?>
<!-- Generator: Adobe Illustrator 27.4.0, SVG Export Plug-In . SVG Version: 6.00 Build 0)  -->
<svg version="1.1" id="Layer_1" xmlns="http://www.w3.org/2000/svg" xmlns:xlink="http://www.w3.org/1999/xlink" x="0px" y="0px"
	 viewBox="0 0 24 24" style="enable-background:new 0 0 24 24;" xml:space="preserve">
<g>
	<path d="M16,19H8c-3.86,0-7-3.141-7-7c0-3.86,3.14-7,7-7h8c3.859,0,7,3.14,7,7C23,15.859,19.859,19,16,19z M8,7
		c-2.757,0-5,2.243-5,5s2.243,5,5,5h8c2.757,0,5-2.243,5-5s-2.243-5-5-5H8z"/>
</g>
<g>
	<path d="M16,15.5c-1.93,0-3.5-1.57-3.5-3.5s1.57-3.5,3.5-3.5s3.5,1.57,3.5,3.5S17.93,15.5,16,15.5z M16,10.5
		c-0.827,0-1.5,0.673-1.5,1.5s0.673,1.5,1.5,1.5s1.5-0.673,1.5-1.5S16.827,10.5,16,10.5z"/>
</g>
</svg>
