<?xml version="1.0" encoding="iso-8859-1"?>
<!-- Generator: Adobe Illustrator 27.4.0, SVG Export Plug-In . SVG Version: 6.00 Build 0)  -->
<svg version="1.1" id="Layer_1" xmlns="http://www.w3.org/2000/svg" xmlns:xlink="http://www.w3.org/1999/xlink" x="0px" y="0px"
	 viewBox="0 0 24 24" style="enable-background:new 0 0 24 24;" xml:space="preserve">
<g>
	<path d="M18,23c-0.256,0-0.512-0.098-0.707-0.293l-2-2c-0.097-0.097-0.169-0.207-0.218-0.326C15.027,20.265,15,20.137,15,20.003
		l0,0c0-0.002,0-0.004,0-0.006l0,0c0-0.134,0.027-0.262,0.075-0.378c0.049-0.119,0.121-0.229,0.218-0.326l2-2
		c0.391-0.391,1.023-0.391,1.414,0s0.391,1.023,0,1.414l-0.26,0.26C19.891,18.75,21,17.502,21,16c0-0.553,0.447-1,1-1s1,0.447,1,1
		c0,2.623-2.03,4.78-4.602,4.984l0.309,0.309c0.391,0.391,0.391,1.023,0,1.414C18.512,22.902,18.256,23,18,23z M8,23
		c-3.86,0-7-3.141-7-7c0-3.86,3.14-7,7-7s7,3.14,7,7C15,19.859,11.86,23,8,23z M8,11c-2.757,0-5,2.243-5,5s2.243,5,5,5s5-2.243,5-5
		S10.757,11,8,11z M2,9C1.448,9,1,8.552,1,8c0-2.623,2.03-4.781,4.602-4.984L5.293,2.707c-0.391-0.391-0.391-1.023,0-1.414
		s1.023-0.391,1.414,0l2,2C8.803,3.389,8.876,3.5,8.925,3.619C8.973,3.735,9,3.863,9,3.997l0,0c0,0.002,0,0.004,0,0.006l0,0
		c0,0.134-0.027,0.262-0.075,0.378C8.876,4.5,8.803,4.611,8.707,4.707l-2,2c-0.391,0.391-1.023,0.391-1.414,0s-0.391-1.023,0-1.414
		l0.259-0.26C4.11,5.25,3,6.498,3,8C3,8.552,2.552,9,2,9z"/>
</g>
<g>
	<path d="M16,14.85c-0.47,0-0.85-0.38-0.85-0.85s0.38-0.85,0.85-0.85c3.65,0,4.43-0.109,4.596-0.156
		c0.144-0.081,0.318-0.255,0.43-0.473c0.125-0.245,0.125-0.8,0.125-1.721V5.2c0-0.921,0-1.477-0.126-1.723
		c-0.11-0.217-0.285-0.391-0.503-0.502C20.276,2.85,19.721,2.85,18.8,2.85h-5.6c-0.921,0-1.477,0-1.723,0.125
		c-0.214,0.109-0.393,0.288-0.502,0.502C10.959,3.57,10.85,4.35,10.85,8c0,0.469-0.381,0.85-0.85,0.85S9.15,8.469,9.15,8
		c0-4.331,0.141-4.96,0.31-5.293c0.276-0.54,0.707-0.971,1.246-1.246C11.316,1.15,11.985,1.15,13.2,1.15h5.6
		c1.215,0,1.885,0,2.494,0.311c0.539,0.275,0.969,0.705,1.245,1.244C22.85,3.316,22.85,3.985,22.85,5.2v5.6
		c0,1.215,0,1.884-0.31,2.494c-0.276,0.54-0.706,0.97-1.245,1.245C20.96,14.709,20.332,14.85,16,14.85z M20,10.85h-8
		c-0.3,0-0.578-0.158-0.731-0.416c-0.153-0.258-0.159-0.578-0.015-0.841l2-3.667c0.118-0.216,0.324-0.371,0.565-0.423
		c0.238-0.054,0.492,0.002,0.69,0.15l0.638,0.478l1.161-1.625c0.167-0.233,0.448-0.367,0.726-0.355
		c0.286,0.011,0.547,0.166,0.694,0.412l3,5c0.158,0.263,0.162,0.59,0.011,0.856C20.589,10.685,20.307,10.85,20,10.85z M13.432,9.15
		h5.067l-1.561-2.601l-0.914,1.279c-0.133,0.186-0.335,0.311-0.562,0.346c-0.226,0.035-0.458-0.023-0.64-0.16l-0.548-0.411
		L13.432,9.15z"/>
</g>
</svg>
