<?xml version="1.0" encoding="iso-8859-1"?>
<!-- Generator: Adobe Illustrator 27.4.0, SVG Export Plug-In . SVG Version: 6.00 Build 0)  -->
<svg version="1.1" id="Layer_1" xmlns="http://www.w3.org/2000/svg" xmlns:xlink="http://www.w3.org/1999/xlink" x="0px" y="0px"
	 viewBox="0 0 24 24" style="enable-background:new 0 0 24 24;" xml:space="preserve">
<g>
	<path d="M5,22.119c-0.799,0-1.599-0.304-2.207-0.912C2.203,20.618,1.878,19.834,1.878,19s0.325-1.618,0.915-2.207l6.248-6.248
		c0.157-0.157,0.258-0.249,0.319-0.332c-0.03-0.046-0.083-0.234-0.161-0.551C9.067,9.121,9,8.561,9,8c0-3.86,3.14-7,7-7
		c1.005,0,1.975,0.208,2.882,0.619c0.299,0.135,0.513,0.409,0.571,0.732c0.06,0.323-0.044,0.654-0.276,0.886l-2.838,2.838
		c-0.197,0.197-0.401,0.401-0.446,0.473c0.045-0.025,0.247,0.177,0.446,0.375c0,0,0,0,0.001,0.001l0.736,0.737
		c0.197,0.197,0.399,0.4,0.472,0.444c-0.023-0.044,0.179-0.247,0.375-0.443l2.84-2.84c0.232-0.233,0.558-0.334,0.887-0.277
		c0.322,0.059,0.596,0.272,0.731,0.572C22.792,6.026,23,6.996,23,8c0,3.86-3.141,7-7,7c-0.563,0-1.122-0.066-1.662-0.198
		c-0.319-0.078-0.509-0.132-0.636-0.143c0.002,0.042-0.09,0.143-0.245,0.298l-6.25,6.25C6.599,21.815,5.799,22.119,5,22.119z M16,3
		c-2.757,0-5,2.243-5,5c0,0.402,0.048,0.802,0.142,1.188c0.144,0.589,0.215,0.884,0.194,1.194c-0.021,0.298-0.083,0.518-0.22,0.783
		c-0.142,0.275-0.338,0.47-0.662,0.794l-6.248,6.248C3.995,18.419,3.878,18.7,3.878,19s0.117,0.581,0.329,0.793
		c0.438,0.436,1.148,0.436,1.586,0l6.248-6.248c0.326-0.325,0.52-0.52,0.794-0.662c0.265-0.137,0.483-0.198,0.779-0.22
		c0.312-0.02,0.609,0.052,1.197,0.195C15.196,12.953,15.597,13,16,13c2.757,0,5-2.243,5-5c0-0.187-0.01-0.372-0.03-0.555
		l-1.631,1.631c-0.462,0.461-0.766,0.765-1.224,0.913c-0.396,0.129-0.834,0.13-1.234-0.001c-0.454-0.146-0.758-0.45-1.218-0.909
		l-0.738-0.74c-0.46-0.459-0.765-0.763-0.913-1.22c-0.132-0.405-0.132-0.833,0-1.238c0.149-0.456,0.453-0.76,0.913-1.22l1.631-1.631
		C16.372,3.01,16.188,3,16,3z"/>
</g>
</svg>
