<?xml version="1.0" encoding="iso-8859-1"?>
<!-- Generator: Adobe Illustrator 27.4.0, SVG Export Plug-In . SVG Version: 6.00 Build 0)  -->
<svg version="1.1" id="Layer_1" xmlns="http://www.w3.org/2000/svg" xmlns:xlink="http://www.w3.org/1999/xlink" x="0px" y="0px"
	 viewBox="0 0 24 24" style="enable-background:new 0 0 24 24;" xml:space="preserve">
<g>
	<path d="M19,22.12c-0.799,0-1.599-0.305-2.207-0.913L12,16.414l-4.793,4.793c-1.217,1.217-3.197,1.217-4.414,0
		C2.203,20.618,1.878,19.834,1.878,19s0.325-1.618,0.915-2.207L9.086,10.5L5.586,7H3C2.569,7,2.188,6.725,2.051,6.316l-1-3
		c-0.12-0.359-0.026-0.756,0.242-1.023l1-1c0.268-0.268,0.664-0.362,1.023-0.242l3,1C6.725,2.188,7,2.569,7,3v2.586l3.11,3.11
		C10.036,8.296,10,7.898,10,7.5C10,3.916,12.916,1,16.5,1c1.147,0,2.274,0.303,3.262,0.876c0.268,0.156,0.448,0.428,0.488,0.736
		c0.04,0.308-0.064,0.617-0.284,0.836l-2.627,2.627c-0.197,0.197-0.401,0.401-0.446,0.473c0.045-0.025,0.247,0.177,0.446,0.375
		l0.238,0.239c0.196,0.196,0.398,0.399,0.471,0.443c-0.023-0.044,0.179-0.247,0.375-0.443l2.459-2.459
		c0.236-0.237,0.576-0.34,0.903-0.273c0.328,0.065,0.602,0.291,0.729,0.601C22.837,5.815,23,6.646,23,7.5
		c0,3-2.042,5.53-4.809,6.276l3.016,3.017c1.217,1.217,1.217,3.197,0,4.414C20.599,21.815,19.799,22.12,19,22.12z M13.414,15
		l4.793,4.793c0.438,0.438,1.148,0.438,1.586,0s0.438-1.148,0-1.586l-4.281-4.282c-0.093-0.014-0.185-0.029-0.275-0.048
		c-0.288-0.057-0.467-0.097-0.589-0.109c-0.001,0-0.002,0.001-0.002,0.001l-0.241,0.24c-0.013,0.014-0.026,0.027-0.04,0.041
		L13.414,15z M11.207,11.207l-7,7C3.995,18.419,3.878,18.7,3.878,19s0.117,0.581,0.329,0.793c0.438,0.436,1.148,0.436,1.586,0
		l7.157-7.157c0.013-0.013,0.026-0.026,0.038-0.039l0.244-0.244c0.092-0.092,0.191-0.174,0.299-0.245
		c0.057-0.04,0.115-0.077,0.179-0.11c0.252-0.136,0.454-0.198,0.743-0.227c0.026-0.002,0.053-0.004,0.078-0.006
		c0.257-0.02,0.517,0.003,0.774,0.074c0.135,0.037,0.272,0.068,0.411,0.092C18.509,12.418,21,10.241,21,7.5
		c0-0.028,0-0.057-0.001-0.085l-1.16,1.161c-0.462,0.461-0.766,0.765-1.224,0.913c-0.396,0.129-0.835,0.129-1.234-0.001
		c-0.454-0.146-0.758-0.45-1.218-0.909l-0.24-0.241c-0.458-0.458-0.762-0.762-0.911-1.218c-0.132-0.405-0.132-0.833,0-1.238
		c0.149-0.456,0.453-0.76,0.913-1.22l1.554-1.554C17.159,3.036,16.831,3,16.5,3C14.019,3,12,5.019,12,7.5
		c0,0.296,0.029,0.591,0.085,0.876c0.12,0.606,0.173,0.876,0.144,1.169C12.2,9.835,12.138,10.038,12,10.293
		c-0.138,0.259-0.325,0.446-0.636,0.756L11.207,11.207z M3.721,5H5V3.721L3.27,3.144L3.144,3.27L3.721,5z"/>
</g>
</svg>
