<?xml version="1.0" encoding="iso-8859-1"?>
<!-- Generator: Adobe Illustrator 27.4.0, SVG Export Plug-In . SVG Version: 6.00 Build 0)  -->
<svg version="1.1" id="Layer_1" xmlns="http://www.w3.org/2000/svg" xmlns:xlink="http://www.w3.org/1999/xlink" x="0px" y="0px"
	 viewBox="0 0 24 24" style="enable-background:new 0 0 24 24;" xml:space="preserve">
<g>
	<path d="M18.501,23c-0.367,0-0.72-0.202-0.896-0.553l-1.227-2.453C16.031,20,15.643,20,15.2,20H8.8c-0.442,0-0.831,0-1.179-0.006
		l-1.227,2.453c-0.248,0.493-0.846,0.692-1.342,0.447c-0.494-0.247-0.694-0.848-0.447-1.342l0.92-1.839
		c-0.116-0.043-0.229-0.093-0.341-0.15c-0.757-0.385-1.362-0.989-1.748-1.747C3,16.96,3,16.037,3,14.2V9.8
		c0-1.838,0-2.76,0.436-3.616c0.386-0.757,0.991-1.362,1.748-1.748C6.04,4,6.962,4,8.8,4H11V3H8C7.448,3,7,2.552,7,2s0.448-1,1-1h8
		c0.553,0,1,0.448,1,1s-0.447,1-1,1h-3v1h2.2c1.837,0,2.76,0,3.616,0.436c0.758,0.386,1.362,0.991,1.748,1.749
		C21,7.04,21,7.962,21,9.8v4.4c0,1.837,0,2.76-0.436,3.616c-0.386,0.758-0.99,1.362-1.749,1.748
		c-0.111,0.057-0.225,0.106-0.341,0.149l0.92,1.839c0.247,0.494,0.047,1.095-0.447,1.342C18.804,22.966,18.651,23,18.501,23z M5,13
		v1.2c0,1.47,0,2.279,0.218,2.708c0.193,0.379,0.495,0.681,0.873,0.873C6.52,18,7.33,18,8.8,18h6.4c1.47,0,2.279,0,2.708-0.219
		c0.379-0.192,0.681-0.494,0.873-0.872C19,16.479,19,15.67,19,14.2V13H5z M5,11h14V9.8c0-1.47,0-2.28-0.218-2.708
		c-0.193-0.379-0.495-0.681-0.874-0.874C17.479,6,16.67,6,15.2,6H8.8C7.33,6,6.52,6,6.092,6.218
		C5.713,6.411,5.411,6.713,5.218,7.092C5,7.52,5,8.33,5,9.8V11z M14.5,23h-5c-0.552,0-1-0.447-1-1s0.448-1,1-1h5
		c0.553,0,1,0.447,1,1S15.053,23,14.5,23z M15.5,17c-0.827,0-1.5-0.673-1.5-1.5s0.673-1.5,1.5-1.5s1.5,0.673,1.5,1.5
		S16.327,17,15.5,17z M8.5,17C7.673,17,7,16.327,7,15.5S7.673,14,8.5,14s1.5,0.673,1.5,1.5S9.327,17,8.5,17z"/>
</g>
</svg>
