<?xml version="1.0" encoding="iso-8859-1"?>
<!-- Generator: Adobe Illustrator 27.4.0, SVG Export Plug-In . SVG Version: 6.00 Build 0)  -->
<svg version="1.1" id="Layer_1" xmlns="http://www.w3.org/2000/svg" xmlns:xlink="http://www.w3.org/1999/xlink" x="0px" y="0px"
	 viewBox="0 0 24 24" style="enable-background:new 0 0 24 24;" xml:space="preserve">
<g>
	<path d="M18.001,23c-0.367,0-0.72-0.202-0.896-0.553l-0.727-1.453C16.031,21,15.643,21,15.2,21H8.8c-0.442,0-0.831,0-1.179-0.006
		l-0.727,1.453c-0.247,0.493-0.846,0.692-1.342,0.447c-0.494-0.247-0.694-0.848-0.447-1.342l0.42-0.839
		c-0.116-0.043-0.229-0.093-0.341-0.15c-0.757-0.385-1.362-0.989-1.748-1.747C3,17.96,3,17.037,3,15.2v-4.4
		c0-1.838,0-2.76,0.436-3.616c0.386-0.757,0.991-1.362,1.748-1.748C6.04,5,6.962,5,8.8,5h0.582l-1-2
		c-0.203-0.003-0.326,0.002-0.451,0.02C7.809,3.036,7.688,3.065,7.57,3.104C7.405,3.16,7.249,3.244,6.934,3.401L5.947,3.895
		C5.453,4.143,4.853,3.941,4.605,3.447C4.358,2.953,4.559,2.353,5.053,2.105l0.986-0.493c0.406-0.203,0.63-0.315,0.894-0.403
		c0.234-0.079,0.477-0.136,0.72-0.17C7.93,1,8.18,1,8.633,1h0.345C8.994,1.001,9.007,1,9.02,1h5.959c0.014,0,0.028,0,0.042,0h0.346
		c0.453,0,0.703,0,0.979,0.039c0.245,0.034,0.486,0.091,0.721,0.17c0.265,0.088,0.488,0.2,0.895,0.403l0.986,0.493
		c0.494,0.247,0.694,0.848,0.447,1.342c-0.248,0.495-0.848,0.695-1.342,0.447l-0.986-0.493c-0.314-0.158-0.471-0.241-0.636-0.296
		c-0.119-0.04-0.239-0.069-0.362-0.086c-0.124-0.018-0.206-0.015-0.45-0.02l-1,2H15.2c1.837,0,2.76,0,3.616,0.436
		c0.758,0.386,1.362,0.991,1.748,1.749C21,8.04,21,8.962,21,10.8v4.4c0,1.837,0,2.76-0.436,3.616
		c-0.386,0.758-0.99,1.362-1.749,1.748c-0.111,0.057-0.225,0.106-0.341,0.149l0.42,0.839c0.247,0.494,0.047,1.095-0.447,1.342
		C18.304,22.966,18.151,23,18.001,23z M5,14v1.2c0,1.47,0,2.279,0.218,2.708c0.193,0.379,0.495,0.681,0.873,0.873
		C6.52,19,7.33,19,8.8,19h6.4c1.47,0,2.279,0,2.708-0.219c0.379-0.192,0.681-0.494,0.873-0.872C19,17.479,19,16.67,19,15.2V14H5z
		 M5,12h14v-1.2c0-1.47,0-2.28-0.218-2.708c-0.193-0.379-0.495-0.681-0.874-0.874C17.479,7,16.67,7,15.2,7h-2.18
		c-0.014,0-0.028,0-0.042,0h-1.956c-0.015,0-0.029,0-0.042,0H8.8C7.33,7,6.52,7,6.092,7.218C5.713,7.411,5.411,7.713,5.218,8.092
		C5,8.52,5,9.33,5,10.8V12z M11.618,5h0.764l1-2h-2.764L11.618,5z M15.5,18c-0.827,0-1.5-0.673-1.5-1.5s0.673-1.5,1.5-1.5
		s1.5,0.673,1.5,1.5S16.327,18,15.5,18z M8.5,18C7.673,18,7,17.327,7,16.5S7.673,15,8.5,15s1.5,0.673,1.5,1.5S9.327,18,8.5,18z"/>
</g>
</svg>
