<?xml version="1.0" encoding="iso-8859-1"?>
<!-- Generator: Adobe Illustrator 27.4.0, SVG Export Plug-In . SVG Version: 6.00 Build 0)  -->
<svg version="1.1" id="Layer_1" xmlns="http://www.w3.org/2000/svg" xmlns:xlink="http://www.w3.org/1999/xlink" x="0px" y="0px"
	 viewBox="0 0 24 24" style="enable-background:new 0 0 24 24;" xml:space="preserve">
<g>
	<path d="M22.001,22c-0.373,0-0.731-0.21-0.903-0.568L19.457,18h-5.914l-1.641,3.432c-0.238,0.497-0.837,0.709-1.334,0.471
		c-0.498-0.238-0.709-0.836-0.471-1.334l1.904-3.979c0.006-0.014,0.012-0.026,0.018-0.039l2.856-5.973
		c0.299-0.625,0.497-1.039,0.971-1.269c0.416-0.201,0.892-0.2,1.306-0.001c0.475,0.23,0.673,0.644,0.972,1.27l2.856,5.972
		c0.006,0.013,0.013,0.025,0.019,0.039l1.903,3.979c0.238,0.498,0.027,1.096-0.471,1.334C22.292,21.969,22.146,22,22.001,22z
		 M14.5,16h4l-2-4.183L14.5,16z M4,15c-0.256,0-0.512-0.098-0.707-0.293c-0.391-0.391-0.391-1.023,0-1.414L6.086,10.5L4.293,8.707
		c-0.391-0.391-0.391-1.023,0-1.414s1.023-0.391,1.414,0L7.5,9.086l1.723-1.723L10.131,6H2C1.448,6,1,5.552,1,5s0.448-1,1-1h9.986
		c0.01,0,0.02,0,0.029,0H14c0.553,0,1,0.448,1,1s-0.447,1-1,1h-1.465l-1.703,2.555c-0.037,0.055-0.078,0.106-0.125,0.152L8.914,10.5
		l1.793,1.793c0.391,0.391,0.391,1.023,0,1.414s-1.023,0.391-1.414,0L7.5,11.914l-2.793,2.793C4.512,14.902,4.256,15,4,15z M8,3H7
		C6.448,3,6,2.552,6,2s0.448-1,1-1h1c0.552,0,1,0.448,1,1S8.552,3,8,3z"/>
</g>
</svg>
