<?xml version="1.0" encoding="iso-8859-1"?>
<!-- Generator: Adobe Illustrator 27.4.0, SVG Export Plug-In . SVG Version: 6.00 Build 0)  -->
<svg version="1.1" id="Layer_1" xmlns="http://www.w3.org/2000/svg" xmlns:xlink="http://www.w3.org/1999/xlink" x="0px" y="0px"
	 viewBox="0 0 24 24" style="enable-background:new 0 0 24 24;" xml:space="preserve">
<g>
	<path d="M19.4,22H18.6c-0.65,0-1.081,0-1.509-0.219c-0.378-0.191-0.681-0.494-0.873-0.874c-0.144-0.28-0.192-0.562-0.209-0.907
		H7.991c-0.017,0.345-0.066,0.627-0.209,0.908c-0.193,0.379-0.496,0.681-0.875,0.874C6.481,22,6.051,22,5.4,22H4.6
		c-0.651,0-1.081,0-1.51-0.219c-0.377-0.192-0.679-0.494-0.872-0.873C2,20.48,2,20.051,2,19.4V18.6c0-0.65,0-1.08,0.218-1.508
		c0.193-0.379,0.496-0.681,0.875-0.874c0.28-0.143,0.562-0.192,0.908-0.209V7.991C3.655,7.975,3.373,7.925,3.092,7.782
		C2.713,7.588,2.412,7.287,2.219,6.91C2,6.48,2,6.05,2,5.4V4.6c0-0.65,0-1.08,0.218-1.508C2.412,2.713,2.713,2.412,3.09,2.219
		C3.52,2,3.95,2,4.6,2h0.8c0.65,0,1.08,0,1.508,0.218C7.287,2.412,7.588,2.713,7.781,3.09C7.925,3.373,7.974,3.655,7.991,4h8.018
		c0.017-0.345,0.066-0.628,0.21-0.91c0.192-0.377,0.494-0.679,0.873-0.872C17.52,2,17.949,2,18.6,2H19.4c0.65,0,1.08,0,1.508,0.218
		c0.379,0.193,0.681,0.496,0.874,0.875C22,3.519,22,3.949,22,4.6v0.8c0,0.651,0,1.081-0.219,1.51
		c-0.192,0.377-0.494,0.679-0.873,0.872C20.627,7.925,20.345,7.975,20,7.991v8.018c0.346,0.017,0.628,0.066,0.909,0.21
		c0.378,0.191,0.681,0.494,0.873,0.874C22,17.519,22,17.949,22,18.6V19.4c0,0.65,0,1.081-0.219,1.509
		c-0.191,0.378-0.494,0.681-0.874,0.873C20.481,22,20.051,22,19.4,22z M4.6,18c-0.278,0-0.566,0-0.648,0.02
		C4,18.033,4,18.321,4,18.6V19.4c0,0.278,0,0.566,0.02,0.648C4.034,20,4.322,20,4.6,20h0.8c0.278,0,0.566,0,0.648-0.02
		C6,19.967,6,19.679,6,19.4V18.6c0-0.278,0-0.566-0.02-0.648C5.966,18,5.678,18,5.4,18H4.6z M18,19v0.4c0,0.278,0,0.565,0.02,0.647
		C18.034,20,18.321,20,18.6,20H19.4c0.278,0,0.565,0,0.647-0.02C20,19.966,20,19.679,20,19.4V18.6c0-0.278,0-0.565-0.02-0.647
		C19.966,18,19.679,18,19.4,18H18.6c-0.278,0-0.565,0-0.647,0.02C18,18.034,18,18.321,18,18.6V19z M7.991,18h8.018
		c0.017-0.346,0.066-0.628,0.21-0.909c0.191-0.378,0.494-0.681,0.874-0.873c0.28-0.144,0.562-0.192,0.907-0.209V7.991
		c-0.345-0.017-0.627-0.066-0.908-0.209c-0.379-0.193-0.681-0.496-0.874-0.875C16.075,6.627,16.025,6.345,16.009,6H7.991
		C7.975,6.345,7.925,6.627,7.782,6.908C7.588,7.287,7.287,7.588,6.91,7.781C6.627,7.925,6.345,7.974,6,7.991v8.018
		c0.345,0.017,0.628,0.066,0.91,0.21c0.377,0.192,0.679,0.494,0.872,0.873C7.925,17.373,7.975,17.655,7.991,18z M4.6,4
		C4.321,4,4.033,4,3.951,4.02C4,4.033,4,4.321,4,4.6v0.8c0,0.279,0,0.567,0.02,0.649C4.033,6,4.321,6,4.6,6h0.8
		c0.279,0,0.567,0,0.649-0.02C6,5.967,6,5.679,6,5.4V4.6c0-0.279,0-0.567-0.02-0.649C5.967,4,5.679,4,5.4,4H4.6z M18,5v0.4
		c0,0.278,0,0.566,0.02,0.648C18.033,6,18.321,6,18.6,6H19.4c0.278,0,0.566,0,0.648-0.02C20,5.966,20,5.678,20,5.4V4.6
		c0-0.278,0-0.566-0.02-0.648C19.967,4,19.679,4,19.4,4H18.6c-0.278,0-0.566,0-0.648,0.02C18,4.034,18,4.322,18,4.6V5z"/>
</g>
</svg>
