<?xml version="1.0" encoding="iso-8859-1"?>
<!-- Generator: Adobe Illustrator 27.4.0, SVG Export Plug-In . SVG Version: 6.00 Build 0)  -->
<svg version="1.1" id="Layer_1" xmlns="http://www.w3.org/2000/svg" xmlns:xlink="http://www.w3.org/1999/xlink" x="0px" y="0px"
	 viewBox="0 0 24 24" style="enable-background:new 0 0 24 24;" xml:space="preserve">
<g>
	<path d="M22.001,22c-0.373,0-0.731-0.21-0.903-0.568L19.457,18h-5.914l-1.641,3.432c-0.238,0.497-0.837,0.709-1.334,0.471
		c-0.498-0.238-0.709-0.836-0.471-1.334l1.904-3.979c0.006-0.014,0.012-0.026,0.018-0.039l2.856-5.973
		c0.299-0.625,0.497-1.039,0.971-1.269c0.416-0.201,0.892-0.2,1.306-0.001c0.475,0.23,0.673,0.644,0.972,1.27l2.856,5.972
		c0.006,0.013,0.013,0.025,0.019,0.039l1.903,3.979c0.238,0.498,0.027,1.096-0.471,1.334C22.292,21.969,22.146,22,22.001,22z
		 M14.5,16h4l-2-4.183L14.5,16z M2.001,19c-0.368,0-0.722-0.203-0.896-0.555c-0.246-0.495-0.044-1.095,0.45-1.341
		c2.033-1.011,3.786-2.38,5.22-4.078c-1.203-1.087-2.163-2.375-2.696-3.637C3.864,8.88,4.102,8.293,4.611,8.079
		C5.12,7.865,5.706,8.102,5.921,8.611c0.396,0.938,1.137,1.94,2.055,2.802C9.048,9.777,9.819,7.964,10.28,6H2C1.448,6,1,5.552,1,5
		s0.448-1,1-1h5V3c0-0.552,0.448-1,1-1s1,0.448,1,1v1h2.481c0.011,0,0.024,0,0.036,0H14c0.553,0,1,0.448,1,1s-0.447,1-1,1h-1.671
		c-0.509,2.419-1.435,4.645-2.763,6.637c0.286,0.175,0.57,0.328,0.845,0.451c0.504,0.227,0.729,0.818,0.502,1.322
		c-0.226,0.503-0.818,0.727-1.322,0.502c-0.408-0.184-0.818-0.407-1.226-0.668c-1.622,1.941-3.609,3.503-5.918,4.651
		C2.302,18.967,2.15,19,2.001,19z"/>
</g>
</svg>
