<?xml version="1.0" encoding="iso-8859-1"?>
<!-- Generator: Adobe Illustrator 27.4.0, SVG Export Plug-In . SVG Version: 6.00 Build 0)  -->
<svg version="1.1" id="Layer_1" xmlns="http://www.w3.org/2000/svg" xmlns:xlink="http://www.w3.org/1999/xlink" x="0px" y="0px"
	 viewBox="0 0 24 24" style="enable-background:new 0 0 24 24;" xml:space="preserve">
<g>
	<path d="M13.51,22h-3.019c-1.678,0-2.603,0-3.429-0.401c-0.729-0.352-1.329-0.912-1.731-1.618
		c-0.454-0.797-0.516-1.717-0.627-3.387L4.064,7H3C2.448,7,2,6.552,2,6s0.448-1,1-1h1.992C4.999,5,5.004,5,5.01,5h13.98
		c0.006,0,0.012,0,0.018,0H21c0.553,0,1,0.448,1,1s-0.447,1-1,1h-1.064l-0.639,9.586c-0.112,1.674-0.174,2.597-0.628,3.395
		c-0.402,0.705-1.001,1.266-1.731,1.619C16.111,22,15.188,22,13.51,22z M6.069,7l0.63,9.453c0.093,1.382,0.143,2.139,0.37,2.537
		c0.201,0.353,0.5,0.633,0.865,0.809C8.348,20,9.109,20,10.491,20h3.019c1.382,0,2.143,0,2.556-0.2
		c0.366-0.177,0.665-0.457,0.865-0.81c0.228-0.399,0.278-1.158,0.37-2.537L17.931,7H6.069z M14,16.5c-0.553,0-1-0.447-1-1v-5
		c0-0.552,0.447-1,1-1s1,0.448,1,1v5C15,16.053,14.553,16.5,14,16.5z M10,16.5c-0.552,0-1-0.447-1-1v-5c0-0.552,0.448-1,1-1
		s1,0.448,1,1v5C11,16.053,10.552,16.5,10,16.5z M15,4H9C8.448,4,8,3.552,8,3s0.448-1,1-1h6c0.553,0,1,0.448,1,1S15.553,4,15,4z"/>
</g>
</svg>
