<?xml version="1.0" encoding="iso-8859-1"?>
<!-- Generator: Adobe Illustrator 27.4.0, SVG Export Plug-In . SVG Version: 6.00 Build 0)  -->
<svg version="1.1" id="Layer_1" xmlns="http://www.w3.org/2000/svg" xmlns:xlink="http://www.w3.org/1999/xlink" x="0px" y="0px"
	 viewBox="0 0 24 24" style="enable-background:new 0 0 24 24;" xml:space="preserve">
<g>
	<path d="M14.2,23H9.8c-1.838,0-2.76,0-3.616-0.437c-0.757-0.385-1.362-0.989-1.748-1.747C4,19.96,4,19.037,4,17.2V7H3
		C2.448,7,2,6.552,2,6s0.448-1,1-1h4c0.001-1.113,0.018-1.755,0.327-2.361C7.617,2.07,8.07,1.617,8.637,1.327C9.28,1,9.962,1,11.2,1
		h1.6c1.238,0,1.921,0,2.562,0.327c0.567,0.29,1.02,0.742,1.311,1.31C16.981,3.245,16.999,3.887,17,5h4c0.553,0,1,0.448,1,1
		s-0.447,1-1,1h-1v10.2c0,1.837,0,2.76-0.436,3.616c-0.386,0.758-0.99,1.362-1.749,1.748C16.96,23,16.037,23,14.2,23z M6,7v10.2
		c0,1.47,0,2.279,0.218,2.708c0.193,0.379,0.495,0.681,0.873,0.873C7.52,21,8.33,21,9.8,21h4.4c1.47,0,2.279,0,2.708-0.219
		c0.379-0.192,0.681-0.494,0.873-0.872C18,19.479,18,18.67,18,17.2V7H6z M9,5h6c-0.001-0.756-0.009-1.257-0.109-1.455
		c-0.096-0.188-0.248-0.34-0.438-0.437C14.24,3,13.667,3,12.8,3h-1.6c-0.868,0-1.44,0-1.655,0.109
		c-0.186,0.095-0.341,0.25-0.437,0.438C9.009,3.743,9,4.244,9,5z M14,17.5c-0.553,0-1-0.447-1-1v-5c0-0.552,0.447-1,1-1s1,0.448,1,1
		v5C15,17.053,14.553,17.5,14,17.5z M10,17.5c-0.552,0-1-0.447-1-1v-5c0-0.552,0.448-1,1-1s1,0.448,1,1v5
		C11,17.053,10.552,17.5,10,17.5z"/>
</g>
</svg>
