<?xml version="1.0" encoding="iso-8859-1"?>
<!-- Generator: Adobe Illustrator 27.4.0, SVG Export Plug-In . SVG Version: 6.00 Build 0)  -->
<svg version="1.1" id="Layer_1" xmlns="http://www.w3.org/2000/svg" xmlns:xlink="http://www.w3.org/1999/xlink" x="0px" y="0px"
	 viewBox="0 0 24 24" style="enable-background:new 0 0 24 24;" xml:space="preserve">
<g>
	<path d="M22,18h-7c-0.553,0-1-0.447-1-1s0.447-1,1-1h4.586l-6.161-6.162c-0.198-0.197-0.4-0.4-0.472-0.444
		c0.023,0.044-0.18,0.248-0.377,0.444l-2.737,2.737c-0.46,0.46-0.765,0.764-1.222,0.913c-0.402,0.131-0.831,0.132-1.236-0.001
		c-0.455-0.147-0.759-0.451-1.219-0.912L1.293,7.707c-0.391-0.391-0.391-1.023,0-1.414s1.023-0.391,1.414,0l4.869,4.869
		c0.197,0.197,0.4,0.4,0.472,0.445c-0.024-0.044,0.18-0.248,0.376-0.445l2.737-2.737c0.46-0.46,0.765-0.765,1.222-0.913
		c0.396-0.129,0.835-0.129,1.236,0.001c0.454,0.146,0.758,0.45,1.218,0.909L21,14.586V10c0-0.552,0.447-1,1-1s1,0.448,1,1v7
		c0,0.136-0.027,0.266-0.076,0.384c-0.048,0.114-0.117,0.222-0.208,0.314c-0.001,0.002-0.002,0.001-0.002,0.002
		c-0.001,0.001-0.001,0.002-0.002,0.002c0,0-0.003-0.001-0.002,0.003c-0.001,0-0.001,0-0.001,0c0,0.001-0.001,0.001-0.002,0.002l0,0
		c-0.001,0.001-0.001,0.002-0.002,0.002v0.001c-0.001,0-0.003,0.001-0.003,0.002c-0.001,0.001-0.001,0.001-0.002,0.002
		c0,0,0,0-0.001,0.001c0,0,0,0-0.001,0.001c-0.092,0.09-0.196,0.158-0.309,0.205C22.27,17.972,22.139,18,22,18z"/>
</g>
</svg>
