<?xml version="1.0" encoding="iso-8859-1"?>
<!-- Generator: Adobe Illustrator 27.4.0, SVG Export Plug-In . SVG Version: 6.00 Build 0)  -->
<svg version="1.1" id="Layer_1" xmlns="http://www.w3.org/2000/svg" xmlns:xlink="http://www.w3.org/1999/xlink" x="0px" y="0px"
	 viewBox="0 0 24 24" style="enable-background:new 0 0 24 24;" xml:space="preserve">
<g>
	<path d="M2,18c-0.256,0-0.512-0.098-0.707-0.293c-0.391-0.391-0.391-1.023,0-1.414l4.869-4.869c0.46-0.46,0.765-0.765,1.222-0.913
		c0.402-0.131,0.831-0.132,1.236,0.001c0.455,0.147,0.759,0.451,1.219,0.912l2.737,2.737c0.197,0.197,0.401,0.401,0.473,0.446
		c-0.025-0.045,0.179-0.249,0.376-0.446L19.586,8H15c-0.553,0-1-0.448-1-1s0.447-1,1-1h7c0.001,0,0.002,0,0.003,0l0,0
		c0.134,0,0.262,0.027,0.378,0.075c0.119,0.049,0.229,0.122,0.326,0.218s0.169,0.208,0.218,0.326C22.973,6.735,23,6.863,23,6.997
		l0,0C23,6.998,23,6.999,23,7v7c0,0.553-0.447,1-1,1s-1-0.447-1-1V9.414l-6.161,6.161c-0.46,0.461-0.765,0.765-1.222,0.913
		c-0.396,0.13-0.835,0.13-1.236,0c-0.456-0.149-0.76-0.453-1.22-0.913l-2.737-2.737c-0.197-0.197-0.4-0.4-0.472-0.445
		c0.024,0.044-0.18,0.248-0.376,0.445l-4.869,4.869C2.512,17.902,2.256,18,2,18z"/>
</g>
</svg>
