<?xml version="1.0" encoding="iso-8859-1"?>
<!-- Generator: Adobe Illustrator 27.4.0, SVG Export Plug-In . SVG Version: 6.00 Build 0)  -->
<svg version="1.1" id="Layer_1" xmlns="http://www.w3.org/2000/svg" xmlns:xlink="http://www.w3.org/1999/xlink" x="0px" y="0px"
	 viewBox="0 0 24 24" style="enable-background:new 0 0 24 24;" xml:space="preserve">
<g>
	<path d="M20.225,21.5H3.775c-1.09,0-1.691,0-2.217-0.383c-0.457-0.331-0.754-0.846-0.812-1.41
		c-0.067-0.646,0.233-1.165,0.778-2.106l0.002-0.003L9.75,3.391c0.545-0.941,0.844-1.458,1.437-1.722
		c0.516-0.231,1.109-0.23,1.626,0c0.591,0.263,0.891,0.779,1.434,1.716l8.228,14.212c0.549,0.947,0.848,1.465,0.779,2.111
		c-0.059,0.563-0.355,1.078-0.814,1.41C21.916,21.5,21.315,21.5,20.225,21.5z M2.773,19.478C2.983,19.5,3.385,19.5,3.775,19.5h16.45
		c0.391,0,0.792,0,1.002-0.022c-0.086-0.191-0.284-0.535-0.478-0.87L12.52,4.393C12.323,4.055,12.124,3.71,12,3.541
		c-0.124,0.17-0.324,0.515-0.518,0.85L3.255,18.6c0,0.001-0.001,0.003-0.001,0.003C3.059,18.939,2.859,19.285,2.773,19.478z"/>
</g>
</svg>
