<?xml version="1.0" encoding="iso-8859-1"?>
<!-- Generator: Adobe Illustrator 27.4.0, SVG Export Plug-In . SVG Version: 6.00 Build 0)  -->
<svg version="1.1" id="Layer_1" xmlns="http://www.w3.org/2000/svg" xmlns:xlink="http://www.w3.org/1999/xlink" x="0px" y="0px"
	 viewBox="0 0 24 24" style="enable-background:new 0 0 24 24;" xml:space="preserve">
<g>
	<path d="M17.5,22c-1.93,0-3.5-1.57-3.5-3.5c0-0.536,0.121-1.045,0.338-1.5H9.662C9.878,17.455,10,17.964,10,18.5
		c0,1.93-1.57,3.5-3.5,3.5S3,20.43,3,18.5c0-0.569,0.137-1.108,0.379-1.584c-0.269-0.048-0.507-0.124-0.741-0.242
		c-0.57-0.292-1.022-0.744-1.312-1.311C1,14.721,1,14.038,1,12.8V6.2c0-1.238,0-1.92,0.327-2.562C1.617,3.07,2.07,2.617,2.637,2.327
		C3.28,2,3.962,2,5.2,2h7.6c1.238,0,1.921,0,2.562,0.327c0.567,0.29,1.02,0.742,1.311,1.31C17,4.28,17,4.962,17,6.2V7h1.337
		c0.293,0,0.486,0,0.717,0.056c0.202,0.048,0.396,0.128,0.574,0.238c0.204,0.125,0.341,0.261,0.548,0.468l2.062,2.062
		c0.207,0.207,0.344,0.344,0.468,0.545c0.109,0.18,0.19,0.375,0.239,0.579C23,11.179,23,11.371,23,11.663V14.4
		c0,0.65,0,1.081-0.219,1.509c-0.191,0.378-0.494,0.681-0.874,0.873c-0.366,0.188-0.735,0.214-1.245,0.217
		C20.879,17.454,21,17.963,21,18.5C21,20.43,19.43,22,17.5,22z M17.5,17c-0.827,0-1.5,0.673-1.5,1.5s0.673,1.5,1.5,1.5
		s1.5-0.673,1.5-1.5S18.327,17,17.5,17z M6.5,17C5.673,17,5,17.673,5,18.5S5.673,20,6.5,20S8,19.327,8,18.5S7.327,17,6.5,17z
		 M17.5,15h2.9c0.278,0,0.565,0,0.647-0.02C21,14.966,21,14.679,21,14.4v-2.738c0-0.126,0.004-0.206-0.004-0.271
		c-0.024-0.011-0.083-0.064-0.172-0.153l-2.062-2.062c-0.089-0.088-0.143-0.147-0.194-0.188C18.542,8.997,18.462,9,18.337,9H17v6
		H17.5z M6.5,15H15V6.2c0-0.868,0-1.44-0.109-1.655c-0.096-0.188-0.248-0.34-0.438-0.437C14.24,4,13.667,4,12.8,4H5.2
		C4.333,4,3.76,4,3.545,4.109c-0.186,0.095-0.341,0.25-0.437,0.438C3,4.76,3,5.333,3,6.2v6.6c0,0.867,0,1.44,0.109,1.654
		c0.096,0.188,0.248,0.341,0.438,0.438C3.76,15,4.333,15,5.2,15H6.5z"/>
</g>
</svg>
