<?xml version="1.0" encoding="iso-8859-1"?>
<!-- Generator: Adobe Illustrator 27.4.0, SVG Export Plug-In . SVG Version: 6.00 Build 0)  -->
<svg version="1.1" id="Layer_1" xmlns="http://www.w3.org/2000/svg" xmlns:xlink="http://www.w3.org/1999/xlink" x="0px" y="0px"
	 viewBox="0 0 24 24" style="enable-background:new 0 0 24 24;" xml:space="preserve">
<g>
	<path d="M18,21c-1.76,0-3.221-1.306-3.465-3h-3.662C10.428,19.724,8.86,21,7,21c-1.911,0-3.513-1.347-3.907-3.14
		C1.881,17.475,1,16.338,1,15V7.2c0-1.238,0-1.92,0.327-2.562C1.617,4.07,2.07,3.617,2.637,3.327C3.28,3,3.962,3,5.2,3h5.6
		c1.238,0,1.92,0,2.562,0.327c0.568,0.29,1.021,0.742,1.312,1.31c0.202,0.399,0.279,0.812,0.31,1.364h1.354
		c0.293,0,0.486,0,0.717,0.056c0.202,0.048,0.396,0.128,0.574,0.238c0.204,0.125,0.341,0.261,0.548,0.468l4.062,4.062
		c0.207,0.207,0.344,0.344,0.468,0.545c0.109,0.18,0.19,0.375,0.239,0.579C23,12.179,23,12.371,23,12.663V15.5
		c0,0.561,0,0.898-0.152,1.266c-0.204,0.493-0.589,0.878-1.082,1.082c-0.099,0.041-0.194,0.07-0.293,0.093
		C21.256,19.663,19.781,21,18,21z M18,16c-0.827,0-1.5,0.673-1.5,1.5S17.173,19,18,19s1.5-0.673,1.5-1.5S18.827,16,18,16z M5,17
		c0,1.103,0.897,2,2,2s2-0.897,2-2s-0.897-2-2-2S5,15.897,5,17z M10.874,16H13V7.2c0-0.868,0-1.44-0.109-1.655
		c-0.097-0.188-0.248-0.34-0.438-0.437C12.24,5,11.667,5,10.8,5H5.2C4.333,5,3.76,5,3.545,5.109
		c-0.186,0.095-0.341,0.25-0.437,0.438C3,5.76,3,6.333,3,7.2V15c0,0.245,0.089,0.471,0.236,0.645C3.793,14.104,5.27,13,7,13
		C8.86,13,10.428,14.276,10.874,16z M18,14c1.272,0,2.389,0.683,3.001,1.7C21,15.637,21,15.568,21,15.5v-2.837
		c0-0.126,0.004-0.206-0.004-0.271c-0.024-0.011-0.083-0.064-0.172-0.153l-4.062-4.062c-0.089-0.088-0.143-0.147-0.194-0.188
		C16.542,7.997,16.462,8,16.337,8H15v7.699C15.613,14.682,16.729,14,18,14z"/>
</g>
</svg>
