<?xml version="1.0" encoding="iso-8859-1"?>
<!-- Generator: Adobe Illustrator 27.4.0, SVG Export Plug-In . SVG Version: 6.00 Build 0)  -->
<svg version="1.1" id="Layer_1" xmlns="http://www.w3.org/2000/svg" xmlns:xlink="http://www.w3.org/1999/xlink" x="0px" y="0px"
	 viewBox="0 0 24 24" style="enable-background:new 0 0 24 24;" xml:space="preserve">
<g>
	<path d="M16.999,22c-0.219,0-0.439-0.071-0.624-0.219L12,18.28l-4.375,3.501c-0.431,0.345-1.061,0.275-1.405-0.156
		c-0.345-0.432-0.275-1.061,0.156-1.406L9.149,18H6.8c-1.838,0-2.76,0-3.616-0.437c-0.757-0.385-1.362-0.989-1.748-1.747
		C1,14.96,1,14.037,1,12.2V7.8c0-1.838,0-2.76,0.436-3.616c0.386-0.757,0.991-1.362,1.748-1.748C4.04,2,4.962,2,6.8,2h10.4
		c1.837,0,2.76,0,3.616,0.436c0.758,0.386,1.362,0.991,1.748,1.749C23,5.04,23,5.962,23,7.8v4.4c0,1.837,0,2.76-0.436,3.616
		c-0.386,0.758-0.99,1.362-1.749,1.748C19.96,18,19.037,18,17.2,18h-2.35l2.774,2.219c0.431,0.346,0.501,0.975,0.156,1.406
		C17.583,21.871,17.293,22,16.999,22z M6.8,4C5.33,4,4.52,4,4.092,4.218C3.713,4.411,3.411,4.713,3.218,5.092C3,5.52,3,6.33,3,7.8
		v4.4c0,1.47,0,2.279,0.218,2.708c0.193,0.379,0.495,0.681,0.873,0.873C4.52,16,5.33,16,6.8,16h10.4c1.47,0,2.279,0,2.708-0.219
		c0.379-0.192,0.681-0.494,0.873-0.872C21,14.479,21,13.67,21,12.2V7.8c0-1.47,0-2.28-0.218-2.708
		c-0.193-0.379-0.495-0.681-0.874-0.874C19.479,4,18.67,4,17.2,4H6.8z"/>
</g>
</svg>
