<?xml version="1.0" encoding="iso-8859-1"?>
<!-- Generator: Adobe Illustrator 27.4.0, SVG Export Plug-In . SVG Version: 6.00 Build 0)  -->
<svg version="1.1" id="Layer_1" xmlns="http://www.w3.org/2000/svg" xmlns:xlink="http://www.w3.org/1999/xlink" x="0px" y="0px"
	 viewBox="0 0 24 24" style="enable-background:new 0 0 24 24;" xml:space="preserve">
<g>
	<path d="M17.2,22H6.8c-1.838,0-2.76,0-3.616-0.437c-0.757-0.385-1.362-0.989-1.748-1.747C1,18.96,1,18.037,1,16.2v-4.4
		c0-1.838,0-2.76,0.436-3.616c0.386-0.757,0.991-1.362,1.748-1.748C4.04,6,4.962,6,6.8,6h2.35L6.375,3.781
		C5.944,3.436,5.874,2.807,6.219,2.375c0.345-0.432,0.976-0.5,1.405-0.156L12,5.719l4.375-3.5c0.433-0.345,1.061-0.274,1.406,0.156
		c0.345,0.431,0.274,1.061-0.156,1.405L14.851,6h2.35c1.837,0,2.76,0,3.616,0.436c0.758,0.386,1.362,0.991,1.748,1.749
		C23,9.04,23,9.962,23,11.8v4.4c0,1.837,0,2.76-0.436,3.616c-0.386,0.758-0.99,1.362-1.749,1.748C19.96,22,19.037,22,17.2,22z
		 M6.8,8C5.33,8,4.52,8,4.092,8.218C3.713,8.411,3.411,8.713,3.218,9.092C3,9.52,3,10.33,3,11.8v4.4c0,1.47,0,2.279,0.218,2.708
		c0.193,0.379,0.495,0.681,0.873,0.873C4.52,20,5.33,20,6.8,20h10.4c1.47,0,2.279,0,2.708-0.219
		c0.379-0.192,0.681-0.494,0.873-0.872C21,18.479,21,17.67,21,16.2v-4.4c0-1.47,0-2.28-0.218-2.708
		c-0.193-0.379-0.495-0.681-0.874-0.874C19.479,8,18.67,8,17.2,8H6.8z"/>
</g>
</svg>
