<?xml version="1.0" encoding="iso-8859-1"?>
<!-- Generator: Adobe Illustrator 27.4.0, SVG Export Plug-In . SVG Version: 6.00 Build 0)  -->
<svg version="1.1" id="Layer_1" xmlns="http://www.w3.org/2000/svg" xmlns:xlink="http://www.w3.org/1999/xlink" x="0px" y="0px"
	 viewBox="0 0 24 24" style="enable-background:new 0 0 24 24;" xml:space="preserve">
<g>
	<path d="M16,21H8c-0.552,0-1-0.447-1-1s0.448-1,1-1h1.25V5H7C6.278,5,5.801,5,5.618,5.076C5.371,5.179,5.179,5.371,5.076,5.618
		C5,5.801,5,6.278,5,7c0,0.552-0.448,1-1,1S3,7.552,3,7c0-1.03,0-1.597,0.229-2.148c0.307-0.74,0.883-1.316,1.624-1.623
		C5.403,3,5.97,3,7,3h10c1.029,0,1.596,0,2.148,0.229c0.74,0.307,1.316,0.883,1.623,1.624C21,5.403,21,5.97,21,7
		c0,0.552-0.447,1-1,1s-1-0.448-1-1c0-0.722,0-1.199-0.076-1.382c-0.103-0.248-0.295-0.44-0.541-0.542C18.199,5,17.722,5,17,5h-2.25
		v14H16c0.553,0,1,0.447,1,1S16.553,21,16,21z M11.25,19h1.5V5h-1.5V19z"/>
</g>
</svg>
