<?xml version="1.0" encoding="iso-8859-1"?>
<!-- Generator: Adobe Illustrator 27.4.0, SVG Export Plug-In . SVG Version: 6.00 Build 0)  -->
<svg version="1.1" id="Layer_1" xmlns="http://www.w3.org/2000/svg" xmlns:xlink="http://www.w3.org/1999/xlink" x="0px" y="0px"
	 viewBox="0 0 24 24" style="enable-background:new 0 0 24 24;" xml:space="preserve">
<g>
	<path d="M21,22c-0.256,0-0.512-0.098-0.707-0.293l-5.543-5.543V19H16c0.553,0,1,0.447,1,1s-0.447,1-1,1H8c-0.552,0-1-0.447-1-1
		s0.448-1,1-1h1.25v-8.336L5,6.414V7c0,0.552-0.448,1-1,1S3,7.552,3,7V6c0-0.455,0.101-0.895,0.292-1.294L2.293,3.707
		c-0.391-0.391-0.391-1.023,0-1.414s1.023-0.391,1.414,0l18,18c0.391,0.391,0.391,1.023,0,1.414C21.512,21.902,21.256,22,21,22z
		 M11.25,19h1.5v-4.836l-1.5-1.5V19z M13.75,9c-0.553,0-1-0.448-1-1V5h-1.5c0,0.552-0.448,1-1,1s-1-0.448-1-1V4.968
		C8.819,4.857,8.5,4.466,8.5,4c0-0.552,0.448-1,1-1H17c1.029,0,1.596,0,2.148,0.229c0.74,0.307,1.316,0.883,1.623,1.624
		C21,5.403,21,5.97,21,7c0,0.552-0.447,1-1,1s-1-0.448-1-1c0-0.722,0-1.199-0.076-1.382c-0.103-0.248-0.295-0.44-0.541-0.542
		C18.199,5,17.722,5,17,5h-2.25v3C14.75,8.552,14.303,9,13.75,9z"/>
</g>
</svg>
