<?xml version="1.0" encoding="iso-8859-1"?>
<!-- Generator: Adobe Illustrator 27.4.0, SVG Export Plug-In . SVG Version: 6.00 Build 0)  -->
<svg version="1.1" id="Layer_1" xmlns="http://www.w3.org/2000/svg" xmlns:xlink="http://www.w3.org/1999/xlink" x="0px" y="0px"
	 viewBox="0 0 24 24" style="enable-background:new 0 0 24 24;" xml:space="preserve">
<g>
	<path d="M22,23H2c-0.552,0-1-0.447-1-1s0.448-1,1-1h3.649l4.985-8.634l-2.593-1.498c-0.003-0.003-0.006-0.003-0.009-0.005
		L4.226,8.666C3.68,8.352,3.286,8.124,3.017,7.665C2.792,7.279,2.698,6.768,2.771,6.329c0.086-0.523,0.357-0.856,0.7-1.277
		C6.892,0.841,12.792-0.245,17.5,2.474c4.707,2.718,6.718,8.37,4.782,13.439c-0.193,0.508-0.347,0.908-0.758,1.245
		c-0.342,0.28-0.828,0.454-1.271,0.454c-0.002,0-0.005,0-0.008,0c-0.53-0.004-0.925-0.231-1.471-0.546l-6.409-3.7L7.958,21H22
		c0.553,0,1,0.447,1,1S22.553,23,22,23z M16.813,13.625l2.961,1.709c0.213,0.123,0.455,0.263,0.531,0.284
		c-0.04-0.031,0.038-0.236,0.107-0.418c1.165-3.051,0.583-6.36-1.34-8.781c-0.015,0.323-0.048,0.662-0.099,1.014
		C18.704,9.313,17.944,11.481,16.813,13.625z M9.92,9.644l5.16,2.98c1.006-1.92,1.679-3.835,1.915-5.476
		c0.215-1.488,0.021-2.642-0.493-2.941c-0.001,0-0.001-0.001-0.002-0.001l0,0c-0.514-0.297-1.613,0.112-2.796,1.042
		C12.402,6.273,11.079,7.813,9.92,9.644z M4.743,6.69c0.06,0,0.283,0.128,0.481,0.243l2.962,1.71
		c1.291-2.051,2.789-3.793,4.281-4.967c0.28-0.22,0.557-0.418,0.829-0.592c-3.058-0.458-6.215,0.695-8.275,3.229
		C4.899,6.464,4.761,6.635,4.733,6.692C4.735,6.691,4.739,6.69,4.743,6.69z"/>
</g>
</svg>
