<?xml version="1.0" encoding="iso-8859-1"?>
<!-- Generator: Adobe Illustrator 27.4.0, SVG Export Plug-In . SVG Version: 6.00 Build 0)  -->
<svg version="1.1" id="Layer_1" xmlns="http://www.w3.org/2000/svg" xmlns:xlink="http://www.w3.org/1999/xlink" x="0px" y="0px"
	 viewBox="0 0 24 24" style="enable-background:new 0 0 24 24;" xml:space="preserve">
<g>
	<path d="M14.5,23c-1.93,0-3.5-1.615-3.5-3.6V13H3.6c-0.631,0-1.087,0-1.549-0.264c-0.384-0.219-0.721-0.614-0.878-1.03
		c-0.188-0.5-0.12-0.923-0.034-1.459C1.997,4.889,6.565,1,12,1c5.435,0,10.003,3.889,10.861,9.248
		c0.086,0.537,0.153,0.96-0.034,1.458c-0.156,0.416-0.494,0.812-0.88,1.032C21.487,13,21.031,13,20.4,13H13v6.4
		c0,0.882,0.673,1.6,1.5,1.6s1.5-0.718,1.5-1.6c0-0.553,0.447-1,1-1s1,0.447,1,1C18,21.385,16.43,23,14.5,23z M12,3
		c-4.447,0-8.184,3.181-8.886,7.564c0,0,0,0,0,0c-0.031,0.192-0.065,0.409-0.061,0.473C3.076,11,3.354,11,3.6,11h16.8
		c0.245,0,0.523,0,0.6-0.019c-0.048-0.008-0.083-0.225-0.113-0.417C20.185,6.181,16.447,3,12,3z M2.126,10.406h0.01H2.126z"/>
</g>
</svg>
