<?xml version="1.0" encoding="iso-8859-1"?>
<!-- Generator: Adobe Illustrator 27.4.0, SVG Export Plug-In . SVG Version: 6.00 Build 0)  -->
<svg version="1.1" id="Layer_1" xmlns="http://www.w3.org/2000/svg" xmlns:xlink="http://www.w3.org/1999/xlink" x="0px" y="0px"
	 viewBox="0 0 24 24" style="enable-background:new 0 0 24 24;" xml:space="preserve">
<g>
	<path d="M9.5,23C7.57,23,6,21.385,6,19.4c0-0.553,0.448-1,1-1s1,0.447,1,1C8,20.282,8.673,21,9.5,21s1.5-0.718,1.5-1.6v-7.285
		c-1.025,0.202-2.159,0.617-2.614,0.808c-0.321,0.134-0.688,0.092-0.97-0.111C7.408,12.806,6.254,12,5,12
		c-1.253,0-2.405,0.804-2.416,0.812c-0.305,0.22-0.705,0.25-1.04,0.079C1.21,12.719,1,12.375,1,12C1,5.935,5.935,1,12,1
		s11,4.935,11,11c0,0.375-0.21,0.719-0.544,0.89c-0.333,0.171-0.736,0.142-1.04-0.079C21.407,12.806,20.255,12,19,12
		c-1.253,0-2.404,0.804-2.416,0.812c-0.282,0.204-0.649,0.245-0.97,0.111c-0.456-0.19-1.589-0.605-2.614-0.808V19.4
		C13,21.385,11.43,23,9.5,23z M12,10c1.354,0,3.063,0.572,3.9,0.886C16.527,10.534,17.692,10,19,10c0.67,0,1.302,0.14,1.844,0.324
		C20.056,6.159,16.391,3,12,3c-4.39,0-8.056,3.159-8.844,7.324C3.698,10.14,4.331,10,5,10c1.308,0,2.473,0.534,3.099,0.886
		C8.937,10.572,10.646,10,12,10z"/>
</g>
</svg>
