<?xml version="1.0" encoding="iso-8859-1"?>
<!-- Generator: Adobe Illustrator 27.4.0, SVG Export Plug-In . SVG Version: 6.00 Build 0)  -->
<svg version="1.1" id="Layer_1" xmlns="http://www.w3.org/2000/svg" xmlns:xlink="http://www.w3.org/1999/xlink" x="0px" y="0px"
	 viewBox="0 0 24 24" style="enable-background:new 0 0 24 24;" xml:space="preserve">
<g>
	<path d="M20,22H4c-0.552,0-1-0.447-1-1s0.448-1,1-1h16c0.553,0,1,0.447,1,1S20.553,22,20,22z M12,18c-4.411,0-8-3.589-8-8V5H3
		C2.448,5,2,4.552,2,4s0.448-1,1-1h7.5c0.552,0,1,0.448,1,1s-0.448,1-1,1h-1v5c0,2.639,1.739,4.977,4.248,5.74
		C16.206,14.99,18,12.701,18,10V5h-1c-0.553,0-1-0.448-1-1s0.447-1,1-1h4c0.553,0,1,0.448,1,1s-0.447,1-1,1h-1v5
		C20,14.411,16.411,18,12,18z M6,5v5c0,2.516,1.556,4.675,3.756,5.564C8.347,14.106,7.5,12.126,7.5,10V5H6z"/>
</g>
</svg>
