<svg width="20" height="22" viewBox="0 0 20 22" fill="none" xmlns="http://www.w3.org/2000/svg">
<path d="M8.12186 4.77866C7.88478 4.74615 7.87349 4.73532 7.98639 4.72448C8.20089 4.69197 8.69762 4.73532 9.04759 4.81117C9.86042 4.99538 10.5942 5.47216 11.3732 6.30653L11.5764 6.53408L11.8699 6.49074C13.123 6.29569 14.41 6.44739 15.4825 6.92417C15.776 7.0542 16.2389 7.31427 16.2954 7.37928C16.3179 7.40095 16.3518 7.54182 16.3744 7.68269C16.4534 8.19197 16.4195 8.57123 16.2502 8.8638C16.1599 9.02634 16.1599 9.06968 16.2163 9.21055C16.2615 9.31891 16.397 9.39476 16.5211 9.39476C16.7921 9.39476 17.0743 8.983 17.2098 8.40869L17.2662 8.18114L17.3678 8.2895C17.9436 8.90715 18.3952 9.76318 18.4629 10.37L18.4855 10.5325L18.3839 10.3917C18.2146 10.1424 18.0565 9.9799 17.842 9.83903C17.4582 9.58981 17.0517 9.51396 15.9793 9.45978C15.0084 9.4056 14.4552 9.32975 13.9133 9.15637C12.9876 8.8638 12.5134 8.48454 11.4184 7.08671C10.9329 6.46906 10.6281 6.13315 10.3233 5.85142C9.65721 5.23377 8.99114 4.90869 8.12186 4.77866Z" fill="#181818"/>
<path d="M16.5324 6.1548C16.555 5.74303 16.6114 5.47213 16.7356 5.22291C16.7808 5.12538 16.8259 5.0387 16.8372 5.0387C16.8485 5.0387 16.8259 5.11455 16.7921 5.20123C16.7018 5.43963 16.6905 5.77554 16.7469 6.1548C16.8259 6.64241 16.8598 6.70743 17.4017 7.23839C17.6501 7.48761 17.9436 7.80185 18.0565 7.93188L18.2484 8.17028L18.0565 7.9969C17.8194 7.78018 17.2775 7.36842 17.1533 7.31424C17.0743 7.27089 17.063 7.27089 17.0066 7.32507C16.9614 7.36842 16.9501 7.43343 16.9501 7.74767C16.9388 8.23529 16.8711 8.5387 16.7018 8.85294C16.6114 9.01548 16.6001 8.98297 16.6792 8.79876C16.7356 8.65789 16.7469 8.59288 16.7469 8.12693C16.7469 7.18421 16.634 6.95665 15.9454 6.5774C15.776 6.47987 15.4825 6.33901 15.3132 6.26315C15.1325 6.1873 14.9971 6.12229 15.0083 6.12229C15.0309 6.10062 15.697 6.28483 15.9567 6.39319C16.3518 6.54489 16.4195 6.55572 16.4647 6.54489C16.4985 6.51238 16.5211 6.42569 16.5324 6.1548Z" fill="#181818"/>
<path d="M8.58476 7.76937C8.11061 7.14089 7.80579 6.16566 7.87353 5.43965L7.89611 5.2121L8.009 5.23377C8.21221 5.26628 8.56218 5.39631 8.73152 5.49383C9.1831 5.75389 9.38631 6.11148 9.57823 7.00002C9.63467 7.26008 9.7137 7.56349 9.74757 7.66101C9.80401 7.82355 10.0185 8.20281 10.1991 8.4412C10.3233 8.61457 10.2443 8.70126 9.96206 8.67959C9.53307 8.63625 8.95731 8.25699 8.58476 7.76937Z" fill="#181818"/>
<path d="M15.9567 12.483C13.7214 11.6161 12.9312 10.8684 12.9312 9.60062C12.9312 9.41641 12.9424 9.26471 12.9424 9.26471C12.9537 9.26471 13.0328 9.32973 13.1344 9.40558C13.5859 9.75233 14.094 9.90403 15.5051 10.0991C16.3293 10.2183 16.8034 10.305 17.2324 10.4458C18.5984 10.8793 19.4451 11.7678 19.6483 12.9706C19.7048 13.3173 19.6709 13.9783 19.5806 14.3251C19.5016 14.596 19.2758 15.0944 19.2193 15.1053C19.208 15.1053 19.1855 15.0511 19.1855 14.9644C19.1629 14.5093 18.9258 14.0759 18.5307 13.7399C18.0565 13.3498 17.4469 13.0573 15.9567 12.483Z" fill="#181818"/>
<path d="M14.3762 12.8405C14.3536 12.678 14.2971 12.4721 14.2633 12.3854L14.2068 12.2229L14.3084 12.3421C14.4552 12.5046 14.5681 12.6997 14.6697 12.9706C14.7487 13.1765 14.7487 13.2415 14.7487 13.5774C14.7487 13.9025 14.7374 13.9783 14.6697 14.1625C14.5568 14.4551 14.4213 14.661 14.1955 14.8885C13.7891 15.2895 13.2585 15.5062 12.5021 15.6037C12.3667 15.6145 11.9828 15.647 11.6441 15.6687C10.7974 15.7121 10.233 15.7988 9.72495 15.9721C9.65721 15.9938 9.58948 16.0155 9.57819 16.0046C9.55561 15.983 9.90558 15.7879 10.1878 15.6579C10.5829 15.4737 10.9894 15.3762 11.8812 15.2244C12.3215 15.1594 12.7731 15.0727 12.886 15.0294C14.0036 14.6935 14.5568 13.8591 14.3762 12.8405Z" fill="#181818"/>
<path d="M15.4035 14.5852C15.11 13.9675 15.0422 13.3824 15.2003 12.8297C15.2229 12.7756 15.2454 12.7214 15.268 12.7214C15.2906 12.7214 15.3583 12.7539 15.4261 12.7972C15.5615 12.8839 15.8438 13.0356 16.5663 13.4149C17.4807 13.8917 18 14.2601 18.3613 14.6827C18.6774 15.0511 18.8693 15.4737 18.9596 15.9938C19.0161 16.2864 18.9822 16.9907 18.9032 17.2833C18.6548 18.2043 18.0904 18.9412 17.2662 19.3638C17.1421 19.4288 17.0405 19.4721 17.0292 19.4721C17.0179 19.4721 17.063 19.3638 17.1308 19.2338C17.4017 18.6811 17.4356 18.1502 17.2324 17.5542C17.1082 17.1858 16.8485 16.7415 16.3292 15.9938C15.7083 15.1269 15.5615 14.8994 15.4035 14.5852Z" fill="#181818"/>
<path d="M6.99294 17.9009C7.82835 17.2291 8.85568 16.7523 9.80399 16.6006C10.2104 16.5356 10.8878 16.5573 11.2603 16.6548C11.8587 16.8065 12.4005 17.1316 12.6828 17.5325C12.9537 17.9226 13.0779 18.2585 13.2021 19.0062C13.2472 19.2988 13.3037 19.6022 13.315 19.6672C13.4053 20.0573 13.5859 20.3607 13.8117 20.5232C14.1617 20.7725 14.7713 20.7833 15.3696 20.5666C15.4712 20.5341 15.5616 20.5016 15.5616 20.5124C15.5841 20.5341 15.2793 20.7291 15.0761 20.8266C14.7939 20.9675 14.5681 21.0109 14.2633 21.0109C13.7214 21.0109 13.2585 20.74 12.886 20.1982C12.807 20.0898 12.6489 19.7756 12.5134 19.483C12.1183 18.6053 11.9151 18.3452 11.4522 18.0527C11.0458 17.8034 10.5265 17.7492 10.1314 17.9335C9.61207 18.1718 9.4766 18.8112 9.83786 19.2013C9.98462 19.3638 10.2556 19.4938 10.4813 19.5263C10.8991 19.5805 11.2603 19.2663 11.2603 18.8653C11.2603 18.6053 11.1587 18.4536 10.8878 18.3344C10.5265 18.1827 10.1314 18.3561 10.1427 18.692C10.1427 18.8328 10.2104 18.9195 10.3572 18.9845C10.4475 19.0279 10.4475 19.0279 10.3797 19.017C10.0524 18.952 9.97333 18.5619 10.233 18.3127C10.5491 18.0093 11.2152 18.1393 11.4409 18.5619C11.5313 18.7353 11.5425 19.0821 11.4635 19.2988C11.2716 19.7756 10.7297 20.0248 10.1765 19.8839C9.80399 19.7864 9.64594 19.6889 9.19436 19.2446C8.40411 18.4644 8.09929 18.3127 6.97036 18.1502L6.75586 18.1177L6.99294 17.9009Z" fill="#181818"/>
<path fill-rule="evenodd" clip-rule="evenodd" d="M1.05475 0.465944C3.68517 3.53251 7.73805 8.30031 7.94126 8.56037C8.1106 8.77709 8.04287 8.98297 7.76063 9.13468C7.60258 9.22136 7.27519 9.30805 7.11714 9.30805C6.93651 9.30805 6.72201 9.22136 6.57525 9.0805C6.47365 8.98297 6.03336 8.36532 5.0399 6.88081C4.28351 5.74303 3.64002 4.80031 3.62873 4.78947C3.58357 4.7678 3.58357 4.7678 4.96087 7.13003C5.83015 8.61455 6.11239 9.14551 6.11239 9.21053C6.11239 9.35139 6.06723 9.42725 5.8866 9.62229C5.58179 9.94737 5.44631 10.3158 5.34471 11.0851C5.23182 11.9412 4.927 12.548 4.05772 13.5774C3.5497 14.1842 3.47067 14.2926 3.34649 14.5418C3.18844 14.8452 3.14328 15.0186 3.1207 15.4087C3.09813 15.8204 3.14328 16.0805 3.26747 16.4706C3.38036 16.8173 3.50454 17.0449 3.80936 17.4892C4.06901 17.8793 4.22706 18.1718 4.22706 18.2802C4.22706 18.3669 4.24964 18.3669 4.65606 18.2802C5.62694 18.0635 6.42849 17.695 6.86877 17.2399C7.13972 16.9582 7.20745 16.8065 7.20745 16.4164C7.20745 16.1672 7.19617 16.113 7.12843 15.9613C7.01554 15.7229 6.80104 15.5279 6.33817 15.2245C5.72855 14.8235 5.46889 14.4985 5.40116 14.065C5.34471 13.6966 5.41245 13.4474 5.75113 12.7647C6.1011 12.0604 6.19141 11.7678 6.24786 11.0526C6.28173 10.5975 6.33817 10.4133 6.47365 10.2724C6.62041 10.1207 6.74459 10.0666 7.09456 10.0232C7.67032 9.94737 8.04287 9.8065 8.33639 9.5356C8.59605 9.30805 8.70894 9.08049 8.72023 8.74458L8.73152 8.49536L8.58476 8.34365C8.05416 7.75851 0.70478 0 0.670912 0C0.659623 0 0.840253 0.205882 1.05475 0.465944ZM4.52059 15.8746C4.64477 15.6687 4.57703 15.4087 4.37382 15.2786C4.1819 15.1594 3.88838 15.2136 3.88838 15.3762C3.88838 15.4195 3.91096 15.4628 3.9787 15.4845C4.0803 15.5387 4.09159 15.5929 4.01256 15.7121C3.93354 15.8313 3.93354 15.9396 4.03514 16.0155C4.19319 16.1347 4.40769 16.0697 4.52059 15.8746Z" fill="#181818"/>
<path fill-rule="evenodd" clip-rule="evenodd" d="M9.09272 10.1749C8.82178 10.2508 8.56212 10.5325 8.4831 10.8142C8.43794 10.9876 8.46052 11.3019 8.53955 11.3994C8.66373 11.5511 8.77662 11.5944 9.09272 11.5944C9.71364 11.5944 10.2442 11.3344 10.3007 11.0201C10.3571 10.7601 10.1201 10.4025 9.79267 10.2399C9.62332 10.1533 9.27335 10.1207 9.09272 10.1749ZM9.81524 10.7167C9.90556 10.5867 9.87169 10.4458 9.70235 10.3483C9.39754 10.1641 8.93467 10.3158 8.93467 10.5975C8.93467 10.7384 9.17175 10.8901 9.39754 10.8901C9.5443 10.8901 9.74751 10.8034 9.81524 10.7167Z" fill="#181818"/>
</svg>
