<?xml version="1.0" encoding="iso-8859-1"?>
<!-- Generator: Adobe Illustrator 27.4.0, SVG Export Plug-In . SVG Version: 6.00 Build 0)  -->
<svg version="1.1" id="Layer_1" xmlns="http://www.w3.org/2000/svg" xmlns:xlink="http://www.w3.org/1999/xlink" x="0px" y="0px"
	 viewBox="0 0 24 24" style="enable-background:new 0 0 24 24;" xml:space="preserve">
<g>
	<path d="M12,22c-0.552,0-1-0.447-1-1V9.414l-4.293,4.293c-0.391,0.391-1.023,0.391-1.414,0s-0.391-1.023,0-1.414l6-6
		c0.096-0.096,0.208-0.169,0.326-0.218C11.735,6.027,11.863,6,11.997,6l0,0c0.002,0,0.004,0,0.006,0l0,0
		c0.134,0,0.262,0.027,0.378,0.075c0.119,0.049,0.23,0.122,0.326,0.218l6,6c0.391,0.391,0.391,1.023,0,1.414s-1.023,0.391-1.414,0
		L13,9.414V21C13,21.553,12.552,22,12,22z M21,4H3C2.448,4,2,3.552,2,3s0.448-1,1-1h18c0.553,0,1,0.448,1,1S21.553,4,21,4z"/>
</g>
</svg>
