<?xml version="1.0" encoding="iso-8859-1"?>
<!-- Generator: Adobe Illustrator 27.4.0, SVG Export Plug-In . SVG Version: 6.00 Build 0)  -->
<svg version="1.1" id="Layer_1" xmlns="http://www.w3.org/2000/svg" xmlns:xlink="http://www.w3.org/1999/xlink" x="0px" y="0px"
	 viewBox="0 0 24 24" style="enable-background:new 0 0 24 24;" xml:space="preserve">
<g>
	<path d="M15.121,22.345c-0.199,0-0.416-0.016-0.657-0.048c-0.902-0.122-2.204-0.911-2.73-1.655C11,19.604,11,18.647,11,17.2v-6.786
		l-2.293,2.293c-0.391,0.391-1.023,0.391-1.414,0s-0.391-1.023,0-1.414l4-4c0-0.001,0.002-0.003,0.002-0.002
		c0,0,0.001-0.001,0.002-0.002l0,0c0.001-0.001,0.001-0.001,0.002-0.002c0,0,0.001-0.001,0.001-0.001
		c0.093-0.091,0.2-0.16,0.313-0.207c0,0,0,0,0.001,0l0,0c0.237-0.099,0.532-0.099,0.77,0l0,0c0,0,0,0,0.001,0
		c0.113,0.047,0.22,0.116,0.313,0.207c0,0.001,0.001,0.001,0.002,0.002c0,0,0.001,0.001,0.001,0.001l0,0
		c0,0,0.001,0.001,0.002,0.002c0,0.001,0.002,0.001,0.002,0.002l0,0l4,4c0.391,0.391,0.391,1.023,0,1.414s-1.023,0.391-1.414,0
		L13,10.414V17.2c0,1.372,0.016,1.79,0.367,2.287c0.206,0.292,1.01,0.779,1.364,0.827c0.632,0.087,0.767,0.014,1.424-0.329
		C19.144,18.426,21,15.366,21,12c0-4.962-4.037-9-9-9c-4.962,0-9,4.038-9,9c0,3.202,1.725,6.19,4.501,7.797
		c0.478,0.276,0.641,0.888,0.365,1.366s-0.889,0.644-1.367,0.364C3.107,19.564,1,15.914,1,12C1,5.935,5.935,1,12,1s11,4.935,11,11
		c0,4.114-2.269,7.854-5.919,9.759C16.468,22.078,15.958,22.344,15.121,22.345z"/>
</g>
</svg>
