<?xml version="1.0" encoding="iso-8859-1"?>
<!-- Generator: Adobe Illustrator 27.4.0, SVG Export Plug-In . SVG Version: 6.00 Build 0)  -->
<svg version="1.1" id="Layer_1" xmlns="http://www.w3.org/2000/svg" xmlns:xlink="http://www.w3.org/1999/xlink" x="0px" y="0px"
	 viewBox="0 0 24 24" style="enable-background:new 0 0 24 24;" xml:space="preserve">
<g>
	<path d="M15.2,23H8.8c-1.838,0-2.76,0-3.616-0.437c-0.757-0.385-1.362-0.989-1.748-1.747C3,19.96,3,19.037,3,17.2v-5
		c0-1.238,0-1.92,0.327-2.562C3.617,9.07,4.07,8.617,4.637,8.327C4.756,8.267,4.875,8.218,5,8.178V3.6c0-0.65,0-1.08,0.218-1.508
		C5.412,1.713,5.713,1.412,6.09,1.219C6.52,1,6.95,1,7.6,1h8.8c0.65,0,1.08,0,1.508,0.218c0.379,0.193,0.681,0.496,0.874,0.875
		C19,2.519,19,2.949,19,3.6v4.577c0.124,0.04,0.244,0.089,0.362,0.149c0.567,0.29,1.02,0.742,1.311,1.31C21,10.28,21,10.962,21,12.2
		v5c0,1.837,0,2.76-0.436,3.616c-0.386,0.758-0.99,1.362-1.749,1.748C17.96,23,17.037,23,15.2,23z M7.2,10
		c-0.868,0-1.44,0-1.655,0.109c-0.186,0.095-0.341,0.25-0.437,0.438C5,10.76,5,11.333,5,12.2v5c0,1.47,0,2.279,0.218,2.708
		c0.193,0.379,0.495,0.681,0.873,0.873C6.52,21,7.33,21,8.8,21h6.4c1.47,0,2.279,0,2.708-0.219c0.379-0.192,0.681-0.494,0.873-0.872
		C19,19.479,19,18.67,19,17.2v-5c0-0.868,0-1.44-0.109-1.655c-0.096-0.188-0.248-0.34-0.438-0.437C18.24,10,17.667,10,16.8,10H7.2z
		 M7.6,3C7.321,3,7.033,3,6.951,3.02C7,3.033,7,3.321,7,3.6V8c0.065,0,0.132,0,0.2,0h9.6c0.068,0,0.135,0,0.2,0V3.6
		c0-0.278,0-0.566-0.02-0.648C16.967,3,16.679,3,16.4,3H7.6z M14,7c-0.553,0-1-0.448-1-1V5c0-0.552,0.447-1,1-1s1,0.448,1,1v1
		C15,6.552,14.553,7,14,7z M10,7C9.448,7,9,6.552,9,6V5c0-0.552,0.448-1,1-1s1,0.448,1,1v1C11,6.552,10.552,7,10,7z"/>
</g>
</svg>
