<?xml version="1.0" encoding="iso-8859-1"?>
<!-- Generator: Adobe Illustrator 27.4.0, SVG Export Plug-In . SVG Version: 6.00 Build 0)  -->
<svg version="1.1" id="Layer_1" xmlns="http://www.w3.org/2000/svg" xmlns:xlink="http://www.w3.org/1999/xlink" x="0px" y="0px"
	 viewBox="0 0 24 24" style="enable-background:new 0 0 24 24;" xml:space="preserve">
<g>
	<path d="M16,22c-0.553,0-1-0.447-1-1v-1.2c0-1.47,0-2.279-0.219-2.708c-0.192-0.379-0.494-0.681-0.872-0.873
		C13.479,16,12.67,16,11.2,16H6.8c-1.47,0-2.28,0-2.708,0.218c-0.379,0.193-0.681,0.495-0.874,0.874C3,17.521,3,18.33,3,19.8V21
		c0,0.553-0.448,1-1,1s-1-0.447-1-1v-1.2c0-1.837,0-2.76,0.436-3.616c0.386-0.758,0.991-1.362,1.749-1.748C4.04,14,4.962,14,6.8,14
		h4.4c1.837,0,2.76,0,3.616,0.436c0.758,0.386,1.362,0.99,1.748,1.749C17,17.04,17,17.963,17,19.8V21C17,21.553,16.553,22,16,22z
		 M9,12c-2.481,0-4.5-2.019-4.5-4.5S6.519,3,9,3s4.5,2.019,4.5,4.5S11.481,12,9,12z M9,5C7.622,5,6.5,6.122,6.5,7.5S7.622,10,9,10
		s2.5-1.122,2.5-2.5S10.378,5,9,5z M18,9c-0.256,0-0.512-0.098-0.707-0.293l-2-2c-0.391-0.391-0.391-1.023,0-1.414
		s1.023-0.391,1.414,0L18,6.586l3.293-3.293c0.391-0.391,1.023-0.391,1.414,0s0.391,1.023,0,1.414l-4,4C18.512,8.902,18.256,9,18,9z
		"/>
</g>
</svg>
