<?xml version="1.0" encoding="iso-8859-1"?>
<!-- Generator: Adobe Illustrator 27.4.0, SVG Export Plug-In . SVG Version: 6.00 Build 0)  -->
<svg version="1.1" id="Layer_1" xmlns="http://www.w3.org/2000/svg" xmlns:xlink="http://www.w3.org/1999/xlink" x="0px" y="0px"
	 viewBox="0 0 24 24" style="enable-background:new 0 0 24 24;" xml:space="preserve">
<g>
	<path d="M18.573,22H5.427c-0.888,0-1.475,0-2.018-0.426c-0.448-0.352-0.755-0.97-0.766-1.537c-0.013-0.692,0.335-1.152,0.775-1.734
		C5.484,15.568,8.612,14,12,14c3.388,0,6.516,1.568,8.582,4.304c0.44,0.582,0.787,1.042,0.775,1.731
		c-0.011,0.569-0.317,1.187-0.765,1.538C20.049,22,19.462,22,18.573,22z M4.672,19.982C4.835,20,5.146,20,5.427,20h13.146
		c0.274,0,0.577,0,0.743-0.017c-0.043-0.094-0.193-0.294-0.33-0.474C17.302,17.279,14.755,16,12,16
		c-2.755,0-5.302,1.279-6.986,3.509C4.884,19.681,4.741,19.87,4.672,19.982z"/>
</g>
<g>
	<path d="M12,13c-3.033,0-5.5-2.467-5.5-5.5S8.967,2,12,2c3.032,0,5.5,2.467,5.5,5.5S15.032,13,12,13z M12,4
		c-1.93,0-3.5,1.57-3.5,3.5S10.07,11,12,11s3.5-1.57,3.5-3.5S13.93,4,12,4z"/>
</g>
</svg>
