<?xml version="1.0" encoding="iso-8859-1"?>
<!-- Generator: Adobe Illustrator 27.4.0, SVG Export Plug-In . SVG Version: 6.00 Build 0)  -->
<svg version="1.1" id="Layer_1" xmlns="http://www.w3.org/2000/svg" xmlns:xlink="http://www.w3.org/1999/xlink" x="0px" y="0px"
	 viewBox="0 0 24 24" style="enable-background:new 0 0 24 24;" xml:space="preserve">
<g>
	<path d="M20,22c-0.553,0-1-0.447-1-1c0-1.255,0-1.945-0.129-2.371c-0.291-0.961-1.039-1.709-2-2C16.445,16.5,15.755,16.5,14.5,16.5
		h-5c-1.254,0-1.945,0-2.372,0.129c-0.96,0.291-1.708,1.039-1.999,2C5,19.055,5,19.746,5,21c0,0.553-0.448,1-1,1s-1-0.447-1-1
		c0-1.493,0-2.242,0.215-2.952c0.486-1.601,1.732-2.848,3.333-3.333C7.259,14.5,8.008,14.5,9.5,14.5h5c1.492,0,2.242,0,2.951,0.215
		c1.602,0.486,2.848,1.732,3.334,3.334C21,18.758,21,19.508,21,21C21,21.553,20.553,22,20,22z M12,13c-3.033,0-5.5-2.467-5.5-5.5
		S8.967,2,12,2c3.032,0,5.5,2.467,5.5,5.5S15.032,13,12,13z M12,4c-1.93,0-3.5,1.57-3.5,3.5S10.07,11,12,11s3.5-1.57,3.5-3.5
		S13.93,4,12,4z"/>
</g>
</svg>
