<?xml version="1.0" encoding="iso-8859-1"?>
<!-- Generator: Adobe Illustrator 27.4.0, SVG Export Plug-In . SVG Version: 6.00 Build 0)  -->
<svg version="1.1" id="Layer_1" xmlns="http://www.w3.org/2000/svg" xmlns:xlink="http://www.w3.org/1999/xlink" x="0px" y="0px"
	 viewBox="0 0 24 24" style="enable-background:new 0 0 24 24;" xml:space="preserve">
<g>
	<path d="M22,22c-0.553,0-1-0.447-1-1v-2c0-1.37-0.925-2.564-2.249-2.905c-0.535-0.138-0.857-0.684-0.72-1.218
		c0.138-0.535,0.691-0.856,1.218-0.72C21.458,14.727,23,16.718,23,19v2C23,21.553,22.553,22,22,22z M17,22c-0.553,0-1-0.447-1-1
		c0-1.675,0-2.597-0.229-3.147c-0.307-0.74-0.884-1.317-1.624-1.624C13.597,16,12.674,16,11,16H8c-1.729,0-2.597,0-3.148,0.229
		c-0.741,0.307-1.317,0.884-1.624,1.624C3,18.403,3,19.325,3,21c0,0.553-0.448,1-1,1s-1-0.447-1-1c0-1.994,0-2.995,0.381-3.913
		c0.51-1.233,1.471-2.194,2.706-2.706C5.006,14,6.006,14,8,14h3c1.994,0,2.995,0,3.913,0.381c1.233,0.511,2.195,1.473,2.706,2.706
		C18,18.005,18,19.006,18,21C18,21.553,17.553,22,17,22z M9.5,12c-2.757,0-5-2.243-5-5s2.243-5,5-5s5,2.243,5,5S12.257,12,9.5,12z
		 M9.5,4c-1.654,0-3,1.346-3,3s1.346,3,3,3s3-1.346,3-3S11.154,4,9.5,4z M15.5,11.709c-0.396,0-0.77-0.236-0.927-0.625
		c-0.207-0.512,0.04-1.095,0.552-1.302C16.264,9.321,17,8.229,17,7s-0.736-2.321-1.875-2.783c-0.513-0.207-0.759-0.791-0.552-1.302
		c0.207-0.512,0.79-0.759,1.302-0.551C17.773,3.132,19,4.952,19,7s-1.227,3.868-3.125,4.636
		C15.752,11.686,15.625,11.709,15.5,11.709z"/>
</g>
</svg>
