<?xml version="1.0" encoding="iso-8859-1"?>
<!-- Generator: Adobe Illustrator 27.4.0, SVG Export Plug-In . SVG Version: 6.00 Build 0)  -->
<svg version="1.1" id="Layer_1" xmlns="http://www.w3.org/2000/svg" xmlns:xlink="http://www.w3.org/1999/xlink" x="0px" y="0px"
	 viewBox="0 0 24 24" style="enable-background:new 0 0 24 24;" xml:space="preserve">
<g>
	<path d="M21,21c-0.266,0-0.531-0.105-0.728-0.314C18.031,18.309,15.094,17,12,17c-3.093,0-6.031,1.309-8.272,3.686
		c-0.379,0.402-1.012,0.422-1.414,0.042c-0.402-0.379-0.42-1.012-0.042-1.413C4.896,16.532,8.35,15,12,15
		c3.65,0,7.104,1.532,9.728,4.314c0.379,0.401,0.36,1.034-0.042,1.413C21.493,20.91,21.246,21,21,21z M12,13
		c-3.033,0-5.5-2.467-5.5-5.5S8.967,2,12,2c3.032,0,5.5,2.467,5.5,5.5S15.032,13,12,13z M12,4c-1.93,0-3.5,1.57-3.5,3.5
		S10.07,11,12,11s3.5-1.57,3.5-3.5S13.93,4,12,4z"/>
</g>
</svg>
