<?xml version="1.0" encoding="iso-8859-1"?>
<!-- Generator: Adobe Illustrator 27.4.0, SVG Export Plug-In . SVG Version: 6.00 Build 0)  -->
<svg version="1.1" id="Layer_1" xmlns="http://www.w3.org/2000/svg" xmlns:xlink="http://www.w3.org/1999/xlink" x="0px" y="0px"
	 viewBox="0 0 24 24" style="enable-background:new 0 0 24 24;" xml:space="preserve">
<g>
	<path d="M12,22.5c-0.263,0-0.518-0.104-0.707-0.293c-0.236-0.236-0.339-0.575-0.273-0.903l0.405-2.025
		c0.054-0.268,0.088-0.396,0.135-0.516c0.057-0.146,0.132-0.285,0.221-0.414c0.073-0.104,0.159-0.202,0.336-0.38l6.676-6.676
		c0.941-0.94,2.473-0.941,3.414,0c0.456,0.456,0.707,1.062,0.707,1.708c0,0.645-0.251,1.251-0.707,1.707l-6.657,6.657
		c-0.189,0.189-0.289,0.278-0.396,0.354c-0.134,0.093-0.274,0.168-0.422,0.225c-0.116,0.046-0.246,0.08-0.505,0.132l-2.031,0.406
		C12.131,22.493,12.065,22.5,12,22.5z M20.5,12.586c-0.106,0-0.212,0.04-0.293,0.121l-6.657,6.657
		c-0.071,0.071-0.109,0.107-0.139,0.143c0.003,0.015-0.007,0.069-0.023,0.152l-0.113,0.566l0.555-0.111
		c0.093-0.019,0.148-0.028,0.193-0.041c0.008-0.015,0.048-0.058,0.113-0.123l6.657-6.657c0.105-0.105,0.121-0.229,0.121-0.293
		c0-0.064-0.016-0.187-0.121-0.292C20.712,12.626,20.606,12.586,20.5,12.586z M2,22c-0.552,0-1-0.447-1-1
		c0-1.994,0-2.995,0.381-3.913c0.51-1.233,1.471-2.194,2.706-2.706C5.006,14,6.006,14,8,14h3c0.552,0,1,0.447,1,1s-0.448,1-1,1H8
		c-1.729,0-2.597,0-3.148,0.229c-0.741,0.307-1.317,0.884-1.624,1.624C3,18.403,3,19.325,3,21C3,21.553,2.552,22,2,22z M9.5,12
		c-2.757,0-5-2.243-5-5s2.243-5,5-5s5,2.243,5,5S12.257,12,9.5,12z M9.5,4c-1.654,0-3,1.346-3,3s1.346,3,3,3s3-1.346,3-3
		S11.154,4,9.5,4z M18,8c-0.553,0-1-0.448-1-1c0-1.229-0.736-2.321-1.875-2.783c-0.513-0.207-0.759-0.791-0.552-1.302
		c0.207-0.512,0.79-0.759,1.302-0.551C17.773,3.132,19,4.952,19,7C19,7.552,18.553,8,18,8z"/>
</g>
</svg>
