<?xml version="1.0" encoding="iso-8859-1"?>
<!-- Generator: Adobe Illustrator 27.4.0, SVG Export Plug-In . SVG Version: 6.00 Build 0)  -->
<svg version="1.1" id="Layer_1" xmlns="http://www.w3.org/2000/svg" xmlns:xlink="http://www.w3.org/1999/xlink" x="0px" y="0px"
	 viewBox="0 0 24 24" style="enable-background:new 0 0 24 24;" xml:space="preserve">
<g>
	<path d="M17.001,21c-0.297,0-0.59-0.131-0.787-0.382C14.381,18.285,11.997,17,9.5,17s-4.881,1.285-6.714,3.618
		c-0.342,0.434-0.97,0.511-1.404,0.168c-0.435-0.341-0.51-0.97-0.168-1.404C3.434,16.557,6.376,15,9.5,15s6.066,1.557,8.286,4.382
		c0.342,0.435,0.266,1.063-0.168,1.404C17.435,20.931,17.217,21,17.001,21z M22.001,21c-0.297,0-0.59-0.131-0.787-0.382
		c-1.038-1.32-2.292-2.337-3.626-2.94c-0.503-0.228-0.727-0.82-0.499-1.323c0.228-0.502,0.819-0.727,1.323-0.499
		c1.626,0.735,3.138,1.954,4.374,3.526c0.342,0.435,0.266,1.062-0.168,1.404C22.435,20.93,22.217,21,22.001,21z M9.5,13
		C6.467,13,4,10.533,4,7.5S6.467,2,9.5,2S15,4.467,15,7.5S12.533,13,9.5,13z M9.5,4C7.57,4,6,5.57,6,7.5S7.57,11,9.5,11
		S13,9.43,13,7.5S11.43,4,9.5,4z M16.001,12.532c-0.368,0-0.722-0.203-0.896-0.555c-0.246-0.495-0.044-1.095,0.45-1.341
		c1.2-0.596,1.945-1.798,1.945-3.137s-0.745-2.541-1.945-3.137c-0.494-0.246-0.696-0.846-0.45-1.341
		c0.246-0.494,0.844-0.697,1.341-0.45C18.329,3.509,19.5,5.397,19.5,7.5s-1.171,3.991-3.055,4.928
		C16.302,12.499,16.15,12.532,16.001,12.532z"/>
</g>
</svg>
