<?xml version="1.0" encoding="iso-8859-1"?>
<!-- Generator: Adobe Illustrator 27.4.0, SVG Export Plug-In . SVG Version: 6.00 Build 0)  -->
<svg version="1.1" id="Layer_1" xmlns="http://www.w3.org/2000/svg" xmlns:xlink="http://www.w3.org/1999/xlink" x="0px" y="0px"
	 viewBox="0 0 24 24" style="enable-background:new 0 0 24 24;" xml:space="preserve">
<g>
	<path d="M20.5,22c-0.553,0-1-0.447-1-1s0.447-1,1-1c0.216,0,0.354,0.011,0.464-0.012c-0.061-0.044-0.119-0.124-0.197-0.25
		c-0.822-1.324-1.934-2.364-3.216-3.008c-0.493-0.248-0.692-0.849-0.444-1.343c0.248-0.493,0.847-0.692,1.343-0.444
		c1.611,0.81,3,2.103,4.016,3.739c0.211,0.338,0.377,0.605,0.44,1.011c0.134,0.864-0.391,1.808-1.195,2.147
		C21.338,22,20.986,22,20.5,22z M15.178,22H3.822c-0.866,0-1.439,0-1.974-0.403c-0.441-0.336-0.758-0.929-0.791-1.478
		c-0.041-0.668,0.271-1.138,0.667-1.731l0.002-0.004C3.583,15.598,6.416,14,9.5,14s5.918,1.598,7.772,4.384
		c0.397,0.597,0.711,1.066,0.67,1.737c-0.033,0.547-0.35,1.14-0.787,1.473C16.617,22,16.045,22,15.178,22z M3.392,19.492
		l-0.002,0.004c-0.148,0.222-0.315,0.474-0.341,0.556C3.098,20,3.483,20,3.822,20h11.355c0.271,0,0.569,0,0.731-0.017
		c-0.036-0.094-0.175-0.302-0.3-0.488C14.13,17.273,11.904,16,9.5,16C7.097,16,4.87,17.273,3.392,19.492z M9.5,13
		C6.467,13,4,10.533,4,7.5S6.467,2,9.5,2S15,4.467,15,7.5S12.533,13,9.5,13z M9.5,4C7.57,4,6,5.57,6,7.5S7.57,11,9.5,11
		S13,9.43,13,7.5S11.43,4,9.5,4z M16.001,12.532c-0.368,0-0.722-0.203-0.896-0.555c-0.246-0.495-0.044-1.095,0.45-1.341
		c1.2-0.596,1.945-1.798,1.945-3.137s-0.745-2.541-1.945-3.137c-0.494-0.246-0.696-0.846-0.45-1.341
		c0.246-0.494,0.844-0.697,1.341-0.45C18.329,3.509,19.5,5.397,19.5,7.5s-1.171,3.991-3.055,4.928
		C16.302,12.499,16.15,12.532,16.001,12.532z"/>
</g>
</svg>
