<?xml version="1.0" encoding="iso-8859-1"?>
<!-- Generator: Adobe Illustrator 27.4.0, SVG Export Plug-In . SVG Version: 6.00 Build 0)  -->
<svg version="1.1" id="Layer_1" xmlns="http://www.w3.org/2000/svg" xmlns:xlink="http://www.w3.org/1999/xlink" x="0px" y="0px"
	 viewBox="0 0 24 24" style="enable-background:new 0 0 24 24;" xml:space="preserve">
<g>
	<path d="M12,23c-2.784,0-5.329-1.039-7.269-2.75c-0.059-0.043-0.113-0.091-0.16-0.145C2.377,18.094,1,15.204,1,12
		C1,5.935,5.935,1,12,1s11,4.935,11,11c0,3.204-1.377,6.094-3.571,8.105c-0.048,0.054-0.101,0.102-0.16,0.145
		C17.329,21.961,14.783,23,12,23z M6.601,19.196C8.106,20.328,9.976,21,12,21c2.024,0,3.894-0.672,5.398-1.804
		C16.841,18.453,15.959,18,15,18H9C8.041,18,7.16,18.453,6.601,19.196z M9,16h6c1.521,0,2.926,0.685,3.86,1.819
		C20.194,16.249,21,14.217,21,12c0-4.962-4.037-9-9-9c-4.962,0-9,4.038-9,9c0,2.217,0.806,4.249,2.14,5.819
		C6.074,16.685,7.479,16,9,16z M12,14.5c-2.757,0-5-2.243-5-5s2.243-5,5-5s5,2.243,5,5S14.757,14.5,12,14.5z M12,6.5
		c-1.654,0-3,1.346-3,3s1.346,3,3,3s3-1.346,3-3S13.654,6.5,12,6.5z"/>
</g>
</svg>
