<?xml version="1.0" encoding="iso-8859-1"?>
<!-- Generator: Adobe Illustrator 27.4.0, SVG Export Plug-In . SVG Version: 6.00 Build 0)  -->
<svg version="1.1" id="Layer_1" xmlns="http://www.w3.org/2000/svg" xmlns:xlink="http://www.w3.org/1999/xlink" x="0px" y="0px"
	 viewBox="0 0 24 24" style="enable-background:new 0 0 24 24;" xml:space="preserve">
<g>
	<path d="M11,22c-0.262,0-0.517-0.103-0.707-0.293c-0.257-0.257-0.354-0.633-0.254-0.981l0.886-3.102
		c0.064-0.224,0.101-0.332,0.147-0.434c0.056-0.123,0.124-0.237,0.202-0.345c0.076-0.102,0.15-0.184,0.305-0.339l6.464-6.464
		c1.078-1.079,2.836-1.079,3.914,0c1.079,1.079,1.079,2.835,0,3.914L15.5,20.414c-0.162,0.162-0.246,0.238-0.336,0.305
		c-0.113,0.084-0.23,0.152-0.353,0.208c-0.108,0.049-0.215,0.085-0.432,0.148l-3.105,0.887C11.184,21.987,11.092,22,11,22z
		 M20,11.232c-0.196,0-0.394,0.075-0.543,0.225L13,17.914c-0.059,0.06-0.095,0.093-0.122,0.125c0.004,0.009-0.008,0.055-0.028,0.126
		l-0.394,1.379l1.371-0.392c0.075-0.021,0.124-0.034,0.164-0.049c0.004-0.011,0.038-0.047,0.095-0.104l6.457-6.457
		c0.299-0.299,0.299-0.787,0-1.086C20.394,11.308,20.196,11.232,20,11.232z M2,22c-0.552,0-1-0.447-1-1c0-1.493,0-2.242,0.215-2.952
		c0.486-1.601,1.732-2.848,3.333-3.333C5.259,14.5,6.008,14.5,7.5,14.5H9c0.552,0,1,0.447,1,1s-0.448,1-1,1H7.5
		c-1.254,0-1.945,0-2.372,0.129c-0.96,0.291-1.708,1.039-1.999,2C3,19.055,3,19.746,3,21C3,21.553,2.552,22,2,22z M10,13
		c-3.033,0-5.5-2.467-5.5-5.5S6.967,2,10,2c3.033,0,5.5,2.467,5.5,5.5S13.033,13,10,13z M10,4C8.07,4,6.5,5.57,6.5,7.5
		S8.07,11,10,11s3.5-1.57,3.5-3.5S11.93,4,10,4z"/>
</g>
</svg>
