<?xml version="1.0" encoding="iso-8859-1"?>
<!-- Generator: Adobe Illustrator 27.4.0, SVG Export Plug-In . SVG Version: 6.00 Build 0)  -->
<svg version="1.1" id="Layer_1" xmlns="http://www.w3.org/2000/svg" xmlns:xlink="http://www.w3.org/1999/xlink" x="0px" y="0px"
	 viewBox="0 0 24 24" style="enable-background:new 0 0 24 24;" xml:space="preserve">
<g>
	<path d="M17.2,23H6.8c-1.446,0-2.325,0-3.064-0.218c-0.017-0.005-0.034-0.01-0.051-0.016c-0.178-0.056-0.343-0.122-0.5-0.202
		c-0.758-0.386-1.363-0.99-1.749-1.748C1,19.96,1,19.037,1,17.2V6.8c0-1.838,0-2.76,0.436-3.616
		c0.386-0.757,0.991-1.362,1.748-1.748C4.04,1,4.962,1,6.8,1h10.4c1.837,0,2.76,0,3.616,0.436c0.758,0.386,1.362,0.991,1.748,1.749
		C23,4.04,23,4.962,23,6.8v10.4c0,1.837,0,2.76-0.436,3.616c-0.386,0.758-0.99,1.362-1.749,1.748
		c-0.156,0.079-0.322,0.146-0.499,0.202c-0.018,0.006-0.034,0.011-0.052,0.016C19.525,23,18.646,23,17.2,23z M5.008,20.97
		C5.452,21,6.035,21,6.8,21h10.4c0.765,0,1.349,0,1.792-0.03c-0.008-0.245-0.021-0.414-0.05-0.554
		c-0.237-1.195-1.163-2.121-2.357-2.358C16.295,18,15.835,18,15,18H9c-0.835,0-1.295,0-1.584,0.058
		c-1.195,0.237-2.12,1.163-2.358,2.357C5.03,20.554,5.016,20.724,5.008,20.97z M9,16h6c0.993,0,1.492,0,1.976,0.097
		c1.901,0.378,3.394,1.802,3.868,3.663C21,19.302,21,18.515,21,17.2V6.8c0-1.47,0-2.28-0.218-2.708
		c-0.193-0.379-0.495-0.681-0.874-0.874C19.479,3,18.67,3,17.2,3H6.8C5.33,3,4.52,3,4.092,3.218
		C3.713,3.411,3.411,3.713,3.218,4.092C3,4.52,3,5.33,3,6.8v10.4c0,1.314,0,2.101,0.156,2.56c0.476-1.862,1.968-3.285,3.869-3.663
		C7.507,16,8.006,16,9,16z M12,14.5c-2.757,0-5-2.243-5-5s2.243-5,5-5s5,2.243,5,5S14.757,14.5,12,14.5z M12,6.5
		c-1.654,0-3,1.346-3,3s1.346,3,3,3s3-1.346,3-3S13.654,6.5,12,6.5z"/>
</g>
</svg>
