<?xml version="1.0" encoding="iso-8859-1"?>
<!-- Generator: Adobe Illustrator 27.4.0, SVG Export Plug-In . SVG Version: 6.00 Build 0)  -->
<svg version="1.1" id="Layer_1" xmlns="http://www.w3.org/2000/svg" xmlns:xlink="http://www.w3.org/1999/xlink" x="0px" y="0px"
	 viewBox="0 0 24 24" style="enable-background:new 0 0 24 24;" xml:space="preserve">
<g>
	<path d="M19,22c-0.256,0-0.512-0.098-0.707-0.293c-0.391-0.391-0.391-1.023,0-1.414L19.586,19H16c-0.553,0-1-0.447-1-1s0.447-1,1-1
		h3.586l-1.293-1.293c-0.391-0.391-0.391-1.023,0-1.414s1.023-0.391,1.414,0l3,3c0.097,0.097,0.169,0.207,0.218,0.326
		C22.973,17.735,23,17.863,23,17.997l0,0c0,0.002,0,0.004,0,0.006l0,0c0,0.134-0.027,0.262-0.075,0.378
		c-0.049,0.119-0.121,0.229-0.218,0.326l-3,3C19.512,21.902,19.256,22,19,22z M2,22c-0.552,0-1-0.447-1-1
		c0-1.493,0-2.242,0.215-2.952c0.486-1.601,1.732-2.848,3.333-3.333C5.259,14.5,6.008,14.5,7.5,14.5H12c0.552,0,1,0.447,1,1
		s-0.448,1-1,1H7.5c-1.254,0-1.945,0-2.372,0.129c-0.96,0.291-1.708,1.039-1.999,2C3,19.055,3,19.746,3,21C3,21.553,2.552,22,2,22z
		 M10,13c-3.033,0-5.5-2.467-5.5-5.5S6.967,2,10,2c3.032,0,5.5,2.467,5.5,5.5S13.032,13,10,13z M10,4C8.07,4,6.5,5.57,6.5,7.5
		S8.07,11,10,11s3.5-1.57,3.5-3.5S11.93,4,10,4z"/>
</g>
</svg>
