<?xml version="1.0" encoding="iso-8859-1"?>
<!-- Generator: Adobe Illustrator 27.4.0, SVG Export Plug-In . SVG Version: 6.00 Build 0)  -->
<svg version="1.1" id="Layer_1" xmlns="http://www.w3.org/2000/svg" xmlns:xlink="http://www.w3.org/1999/xlink" x="0px" y="0px"
	 viewBox="0 0 24 24" style="enable-background:new 0 0 24 24;" xml:space="preserve">
<g>
	<path d="M4.095,22c-0.369,0-0.723-0.204-0.897-0.557C1.739,18.494,1,15.317,1,12c0-3.317,0.739-6.494,2.197-9.443
		c0.245-0.495,0.843-0.699,1.34-0.453c0.495,0.245,0.698,0.845,0.453,1.34C3.669,6.114,3,8.993,3,12s0.669,5.886,1.99,8.557
		c0.245,0.495,0.042,1.095-0.453,1.34C4.395,21.967,4.243,22,4.095,22z M19.905,22c-0.148,0-0.3-0.033-0.442-0.104
		c-0.495-0.245-0.698-0.845-0.453-1.34C20.33,17.885,21,15.006,21,12s-0.67-5.885-1.99-8.557c-0.245-0.495-0.042-1.095,0.453-1.339
		c0.497-0.245,1.096-0.042,1.34,0.454C22.261,5.507,23,8.684,23,12c0,3.316-0.739,6.493-2.197,9.443
		C20.629,21.796,20.274,22,19.905,22z M15.43,17.5h-1.395c-0.941,0-1.779-0.634-2.038-1.542l-0.376-1.325l-1.476,1.729
		C9.53,17.085,8.633,17.5,7.685,17.5c-0.552,0-1.045-0.447-1.045-1s0.403-1,0.956-1c0.45,0,0.792-0.158,1.028-0.435l2.34-2.745
		l-0.741-2.606c-0.015-0.053-0.062-0.089-0.114-0.089H8.715c-0.552,0-1-0.448-1-1s0.448-1,1-1h1.394c0.942,0,1.78,0.634,2.038,1.542
		l0.376,1.325l1.476-1.73c0.615-0.722,1.512-1.137,2.46-1.137c0.553,0,1.045,0.448,1.045,1s-0.402,1-0.955,1h-0.09
		c-0.361,0-0.703,0.158-0.938,0.434l-2.34,2.745l0.74,2.607c0.016,0.053,0.062,0.089,0.114,0.089h1.395c0.553,0,1,0.447,1,1
		S15.982,17.5,15.43,17.5z"/>
</g>
</svg>
