<?xml version="1.0" encoding="iso-8859-1"?>
<!-- Generator: Adobe Illustrator 27.4.0, SVG Export Plug-In . SVG Version: 6.00 Build 0)  -->
<svg version="1.1" id="Layer_1" xmlns="http://www.w3.org/2000/svg" xmlns:xlink="http://www.w3.org/1999/xlink" x="0px" y="0px"
	 viewBox="0 0 24 24" style="enable-background:new 0 0 24 24;" xml:space="preserve">
<g>
	<path d="M22,23c-0.256,0-0.512-0.098-0.707-0.293l-4.184-4.184C16.369,19.441,15.242,20,14,20H5c-2.206,0-4-1.794-4-4V8
		c0-1.51,0.841-2.827,2.078-3.507L1.293,2.707c-0.391-0.391-0.391-1.023,0-1.414s1.023-0.391,1.414,0l20,20
		c0.391,0.391,0.391,1.023,0,1.414C22.512,22.902,22.256,23,22,23z M4.622,6.036C3.699,6.213,3,7.026,3,8v8c0,1.103,0.897,2,2,2h9
		c0.683,0,1.312-0.356,1.676-0.91L4.622,6.036z M21.5,17.293c-0.039,0-0.079-0.002-0.118-0.005c-0.549-0.041-0.89-0.382-1.454-0.946
		l-3.635-3.635c-0.011-0.01-0.021-0.021-0.031-0.032c0,0,0,0-0.001-0.001v0c-0.161-0.177-0.26-0.412-0.261-0.67l0,0
		c0-0.001,0-0.002,0-0.003V9.8c0-1.47,0-2.28-0.218-2.708c-0.193-0.379-0.495-0.681-0.874-0.874C14.479,6,13.67,6,12.2,6H9.5
		c-0.552,0-1-0.448-1-1s0.448-1,1-1h2.7c1.837,0,2.76,0,3.616,0.436c0.758,0.386,1.362,0.991,1.748,1.749
		C17.982,7.006,17.999,7.889,18,9.586l1.928-1.927c0.562-0.563,0.901-0.903,1.454-0.947c0.462-0.035,0.949,0.158,1.26,0.522
		C23,7.652,23,8.134,23,8.931v6.137c0,0.798,0,1.28-0.362,1.701C22.357,17.101,21.938,17.293,21.5,17.293z M18.414,12L21,14.586
		V9.415L18.414,12z"/>
</g>
</svg>
