<?xml version="1.0" encoding="iso-8859-1"?>
<!-- Generator: Adobe Illustrator 27.4.0, SVG Export Plug-In . SVG Version: 6.00 Build 0)  -->
<svg version="1.1" id="Layer_1" xmlns="http://www.w3.org/2000/svg" xmlns:xlink="http://www.w3.org/1999/xlink" x="0px" y="0px"
	 viewBox="0 0 24 24" style="enable-background:new 0 0 24 24;" xml:space="preserve">
<g>
	<path d="M12,23c-0.771,0-1.542-0.081-2.292-0.239c-0.54-0.115-0.885-0.646-0.771-1.186c0.114-0.541,0.644-0.886,1.186-0.771
		c0.289,0.062,0.582,0.108,0.877,0.142v-3.028c-0.911-0.153-1.752-0.513-2.475-1.028l-2.142,2.143c0.23,0.186,0.47,0.358,0.716,0.52
		c0.463,0.301,0.594,0.921,0.292,1.384c-0.301,0.462-0.92,0.593-1.383,0.292c-1.299-0.846-2.386-1.932-3.231-3.229
		c-0.301-0.463-0.171-1.082,0.292-1.384c0.462-0.301,1.082-0.17,1.384,0.292c0.16,0.245,0.332,0.482,0.516,0.712l2.143-2.143
		C6.596,14.752,6.237,13.91,6.083,13H3.055c0.032,0.294,0.079,0.586,0.14,0.873c0.114,0.54-0.231,1.071-0.771,1.186
		c-0.54,0.11-1.07-0.23-1.186-0.771C1.08,13.54,1,12.771,1,12c0-0.772,0.081-1.543,0.239-2.291c0.114-0.541,0.645-0.889,1.186-0.771
		c0.541,0.114,0.885,0.646,0.771,1.186C3.134,10.413,3.087,10.705,3.055,11h3.029c0.153-0.91,0.512-1.752,1.027-2.475L4.969,6.383
		C4.784,6.613,4.61,6.853,4.45,7.099C4.149,7.562,3.529,7.693,3.066,7.392C2.604,7.091,2.473,6.471,2.773,6.008
		c0.846-1.3,1.934-2.388,3.234-3.234c0.463-0.302,1.082-0.17,1.383,0.292s0.17,1.082-0.292,1.383
		C6.852,4.611,6.613,4.784,6.383,4.969l2.143,2.142C9.248,6.596,10.09,6.237,11,6.083V3.055c-0.294,0.032-0.585,0.079-0.873,0.14
		C9.585,3.309,9.056,2.964,8.941,2.424c-0.114-0.54,0.231-1.071,0.771-1.186c1.494-0.316,3.08-0.316,4.574,0
		c0.54,0.115,0.886,0.646,0.771,1.186c-0.114,0.541-0.647,0.885-1.186,0.771C13.586,3.134,13.294,3.087,13,3.055v3.028
		c0.91,0.153,1.752,0.512,2.475,1.027l2.143-2.142c-0.23-0.185-0.47-0.358-0.716-0.518c-0.463-0.301-0.595-0.92-0.294-1.383
		c0.302-0.463,0.922-0.595,1.384-0.293c0.623,0.405,1.207,0.877,1.738,1.402c0.017,0.015,0.033,0.03,0.049,0.045
		s0.031,0.032,0.046,0.048c0.525,0.532,0.997,1.116,1.402,1.739c0.302,0.463,0.17,1.083-0.293,1.384
		c-0.463,0.301-1.082,0.169-1.383-0.293c-0.161-0.247-0.334-0.487-0.52-0.717l-2.143,2.142c0.516,0.723,0.875,1.564,1.028,2.475
		h3.028c-0.032-0.294-0.079-0.585-0.141-0.872c-0.114-0.541,0.23-1.071,0.771-1.186c0.547-0.115,1.071,0.23,1.187,0.77
		C22.92,10.457,23,11.227,23,12c0,0.772-0.08,1.542-0.238,2.287c-0.115,0.54-0.649,0.882-1.187,0.771
		c-0.54-0.115-0.885-0.646-0.771-1.187c0.062-0.286,0.108-0.577,0.141-0.871h-3.028c-0.153,0.91-0.513,1.752-1.028,2.475
		l2.143,2.143c0.185-0.229,0.356-0.468,0.517-0.713c0.301-0.463,0.921-0.597,1.383-0.293c0.463,0.301,0.595,0.92,0.293,1.383
		c-0.403,0.621-0.875,1.204-1.399,1.735c-0.015,0.017-0.029,0.033-0.046,0.049c-0.016,0.016-0.032,0.031-0.049,0.046
		c-0.532,0.525-1.116,0.998-1.74,1.403c-0.463,0.305-1.082,0.17-1.383-0.293c-0.302-0.463-0.17-1.082,0.293-1.383
		c0.247-0.161,0.486-0.335,0.718-0.521l-2.143-2.143c-0.723,0.516-1.564,0.875-2.475,1.028v3.028c0.293-0.032,0.584-0.079,0.87-0.14
		c0.545-0.114,1.071,0.231,1.186,0.771c0.114,0.541-0.231,1.071-0.771,1.186C13.538,22.92,12.77,23,12,23z M8,12
		c0,2.206,1.794,4,4,4c2.206,0,4-1.794,4-4c0-2.206-1.794-4-4-4C9.794,8,8,9.794,8,12z"/>
</g>
</svg>
