<?xml version="1.0" encoding="iso-8859-1"?>
<!-- Generator: Adobe Illustrator 27.4.0, SVG Export Plug-In . SVG Version: 6.00 Build 0)  -->
<svg version="1.1" id="Layer_1" xmlns="http://www.w3.org/2000/svg" xmlns:xlink="http://www.w3.org/1999/xlink" x="0px" y="0px"
	 viewBox="0 0 24 24" style="enable-background:new 0 0 24 24;" xml:space="preserve">
<g>
	<path d="M18,17H6c-2.757,0-5-2.243-5-5s2.243-5,5-5s5,2.243,5,5c0,1.125-0.374,2.164-1.002,3h4.004C13.373,14.164,13,13.125,13,12
		c0-2.757,2.243-5,5-5s5,2.243,5,5S20.757,17,18,17z M18,9c-1.654,0-3,1.346-3,3s1.346,3,3,3s3-1.346,3-3S19.654,9,18,9z M6,9
		c-1.654,0-3,1.346-3,3s1.346,3,3,3s3-1.346,3-3S7.654,9,6,9z"/>
</g>
</svg>
