<?xml version="1.0" encoding="iso-8859-1"?>
<!-- Generator: Adobe Illustrator 27.4.0, SVG Export Plug-In . SVG Version: 6.00 Build 0)  -->
<svg version="1.1" id="Layer_1" xmlns="http://www.w3.org/2000/svg" xmlns:xlink="http://www.w3.org/1999/xlink" x="0px" y="0px"
	 viewBox="0 0 24 24" style="enable-background:new 0 0 24 24;" xml:space="preserve">
<g>
	<path d="M10.5,20.293c-0.039,0-0.079-0.002-0.118-0.005c-0.552-0.044-0.892-0.384-1.455-0.947l-3.165-3.165
		c-0.089-0.089-0.143-0.147-0.194-0.188C5.543,15.996,5.464,16,5.337,16H3.6c-0.651,0-1.081,0-1.51-0.219
		c-0.377-0.192-0.679-0.494-0.872-0.873C1,14.48,1,14.05,1,13.399V10.6c0-0.65,0-1.08,0.218-1.508
		c0.195-0.38,0.497-0.682,0.875-0.875C2.52,8,2.95,8,3.6,8h1.737c0.125,0,0.205,0.003,0.269-0.004
		c0.012-0.024,0.066-0.083,0.155-0.172l3.165-3.165c0.562-0.563,0.902-0.904,1.455-0.948c0.477-0.037,0.947,0.157,1.258,0.521
		C12,4.654,12,5.134,12,5.931v12.137c0,0.798,0,1.279-0.36,1.699C11.356,20.101,10.936,20.293,10.5,20.293z M3.6,14h1.737
		c0.292,0,0.484,0,0.713,0.055c0.205,0.049,0.4,0.13,0.58,0.24c0.202,0.123,0.338,0.26,0.545,0.467L10,17.585V6.414L7.176,9.238
		C6.978,9.437,6.834,9.58,6.633,9.704C6.451,9.815,6.256,9.896,6.052,9.945C5.823,10,5.63,10,5.337,10H3.6
		c-0.279,0-0.567,0-0.649,0.02C3,10.033,3,10.321,3,10.6v2.799c0,0.279,0,0.567,0.02,0.649C3.034,14,3.322,14,3.6,14z M9.634,5.366
		h0.01H9.634z M19.747,20c-0.202,0-0.406-0.062-0.583-0.188c-0.448-0.322-0.551-0.947-0.228-1.396C20.286,16.538,21,14.319,21,12
		c0-2.32-0.714-4.539-2.063-6.416c-0.323-0.448-0.221-1.073,0.228-1.396c0.448-0.322,1.073-0.22,1.396,0.228
		C22.156,6.636,23,9.258,23,12c0,2.741-0.844,5.363-2.44,7.584C20.364,19.855,20.059,20,19.747,20z M15.744,17
		c-0.197,0-0.396-0.059-0.571-0.18c-0.453-0.316-0.563-0.939-0.248-1.393C15.628,14.42,16,13.234,16,12s-0.372-2.42-1.075-3.428
		c-0.315-0.453-0.205-1.076,0.248-1.393c0.455-0.317,1.077-0.205,1.393,0.248C17.504,8.773,18,10.354,18,12
		c0,1.646-0.496,3.227-1.435,4.572C16.371,16.851,16.06,17,15.744,17z"/>
</g>
</svg>
