<?xml version="1.0" encoding="iso-8859-1"?>
<!-- Generator: Adobe Illustrator 27.4.0, SVG Export Plug-In . SVG Version: 6.00 Build 0)  -->
<svg version="1.1" id="Layer_1" xmlns="http://www.w3.org/2000/svg" xmlns:xlink="http://www.w3.org/1999/xlink" x="0px" y="0px"
	 viewBox="0 0 24 24" style="enable-background:new 0 0 24 24;" xml:space="preserve">
<g>
	<path d="M10.5,21.293c-0.039,0-0.079-0.002-0.118-0.005c-0.552-0.044-0.892-0.384-1.455-0.947l-3.165-3.165
		c-0.089-0.089-0.143-0.147-0.194-0.188C5.543,16.996,5.464,17,5.337,17H3.6c-0.651,0-1.081,0-1.51-0.219
		c-0.377-0.192-0.679-0.494-0.872-0.873C1,15.48,1,15.05,1,14.399V9.6c0-0.65,0-1.08,0.218-1.508
		c0.195-0.38,0.497-0.682,0.875-0.875C2.52,7,2.95,7,3.6,7h1.737c0.125,0,0.205,0.004,0.269-0.004
		c0.012-0.024,0.066-0.083,0.155-0.172l3.165-3.165c0.562-0.563,0.902-0.904,1.455-0.948c0.477-0.033,0.947,0.157,1.258,0.521
		C12,3.654,12,4.134,12,4.931v14.137c0,0.798,0,1.279-0.36,1.699C11.356,21.101,10.936,21.293,10.5,21.293z M3.6,15h1.737
		c0.292,0,0.484,0,0.713,0.055c0.205,0.049,0.4,0.13,0.58,0.24c0.202,0.123,0.338,0.26,0.545,0.467L10,18.585V5.414L7.176,8.238
		C6.978,8.437,6.834,8.58,6.633,8.704C6.451,8.815,6.256,8.896,6.052,8.945C5.823,9,5.63,9,5.337,9H3.6C3.321,9,3.033,9,2.951,9.02
		C3,9.033,3,9.321,3,9.6v4.799c0,0.279,0,0.567,0.02,0.649C3.034,15,3.322,15,3.6,15z M9.634,4.366h0.01H9.634z M22,16
		c-0.256,0-0.512-0.098-0.707-0.293L19,13.414l-2.293,2.293c-0.391,0.391-1.023,0.391-1.414,0s-0.391-1.023,0-1.414L17.586,12
		l-2.293-2.293c-0.391-0.391-0.391-1.023,0-1.414s1.023-0.391,1.414,0L19,10.586l2.293-2.293c0.391-0.391,1.023-0.391,1.414,0
		s0.391,1.023,0,1.414L20.414,12l2.293,2.293c0.391,0.391,0.391,1.023,0,1.414C22.512,15.902,22.256,16,22,16z"/>
</g>
</svg>
