<?xml version="1.0" encoding="iso-8859-1"?>
<!-- Generator: Adobe Illustrator 27.4.0, SVG Export Plug-In . SVG Version: 6.00 Build 0)  -->
<svg version="1.1" id="Layer_1" xmlns="http://www.w3.org/2000/svg" xmlns:xlink="http://www.w3.org/1999/xlink" x="0px" y="0px"
	 viewBox="0 0 24 24" style="enable-background:new 0 0 24 24;" xml:space="preserve">
<g>
	<path d="M13,21.293c-0.04,0-0.079-0.002-0.119-0.005c-0.552-0.044-0.892-0.384-1.455-0.947l-3.165-3.165
		c-0.089-0.089-0.143-0.147-0.194-0.188C8.043,16.996,7.964,17,7.837,17H6.1c-0.651,0-1.081,0-1.51-0.219
		c-0.377-0.192-0.679-0.494-0.872-0.873C3.5,15.48,3.5,15.05,3.5,14.399V9.6c0-0.65,0-1.08,0.218-1.508
		c0.195-0.38,0.497-0.682,0.875-0.875C5.02,7,5.45,7,6.1,7h1.737c0.125,0,0.205,0.004,0.269-0.004
		c0.012-0.024,0.066-0.083,0.155-0.172l3.165-3.165c0.562-0.563,0.902-0.904,1.455-0.948c0.475-0.037,0.949,0.158,1.26,0.522
		C14.5,3.652,14.5,4.134,14.5,4.931v14.137c0,0.798,0,1.28-0.362,1.701C13.857,21.101,13.438,21.293,13,21.293z M6.1,15h1.737
		c0.292,0,0.484,0,0.713,0.055c0.205,0.049,0.4,0.13,0.58,0.24c0.202,0.123,0.338,0.26,0.545,0.467l2.824,2.823V5.414L9.676,8.238
		C9.478,8.437,9.334,8.58,9.133,8.704C8.951,8.815,8.756,8.896,8.552,8.945C8.323,9,8.13,9,7.837,9H6.1C5.821,9,5.533,9,5.451,9.02
		C5.5,9.033,5.5,9.321,5.5,9.6v4.799c0,0.279,0,0.567,0.02,0.649C5.534,15,5.822,15,6.1,15z M12.134,4.366h0.01H12.134z M18.244,17
		c-0.197,0-0.396-0.059-0.571-0.18c-0.453-0.316-0.563-0.939-0.248-1.393C18.128,14.42,18.5,13.234,18.5,12s-0.372-2.42-1.075-3.428
		c-0.315-0.453-0.205-1.076,0.248-1.393c0.455-0.317,1.076-0.205,1.393,0.248C20.004,8.773,20.5,10.354,20.5,12
		c0,1.646-0.496,3.227-1.435,4.572C18.871,16.851,18.56,17,18.244,17z"/>
</g>
</svg>
