<?xml version="1.0" encoding="iso-8859-1"?>
<!-- Generator: Adobe Illustrator 27.4.0, SVG Export Plug-In . SVG Version: 6.00 Build 0)  -->
<svg version="1.1" id="Layer_1" xmlns="http://www.w3.org/2000/svg" xmlns:xlink="http://www.w3.org/1999/xlink" x="0px" y="0px"
	 viewBox="0 0 24 24" style="enable-background:new 0 0 24 24;" xml:space="preserve">
<g>
	<path d="M19,22H5c-1.654,0-3-1.346-3-3V5c0,0,0-0.001,0-0.001C2.001,3.345,3.346,2,5,2h12c0.553,0,1,0.448,1,1s-0.447,1-1,1H5
		C4.449,4,4,4.449,4,5s0.449,1,1,1h14c1.654,0,3,1.346,3,3v10C22,20.654,20.654,22,19,22z M4,7.829V19c0,0.552,0.449,1,1,1h14
		c0.552,0,1-0.448,1-1V9c0-0.551-0.448-1-1-1H5C4.649,8,4.313,7.939,4,7.829z M16.5,15.5c-0.827,0-1.5-0.673-1.5-1.5
		s0.673-1.5,1.5-1.5S18,13.173,18,14S17.327,15.5,16.5,15.5z"/>
</g>
</svg>
