<?xml version="1.0" encoding="iso-8859-1"?>
<!-- Generator: Adobe Illustrator 27.4.0, SVG Export Plug-In . SVG Version: 6.00 Build 0)  -->
<svg version="1.1" id="Layer_1" xmlns="http://www.w3.org/2000/svg" xmlns:xlink="http://www.w3.org/1999/xlink" x="0px" y="0px"
	 viewBox="0 0 24 24" style="enable-background:new 0 0 24 24;" xml:space="preserve">
<g>
	<path d="M18.8,21H5.2c-1.238,0-1.92,0-2.562-0.326c-0.57-0.292-1.022-0.744-1.312-1.311C1,18.721,1,18.038,1,16.8V7.2
		c0-1.238,0-1.92,0.327-2.562C1.617,4.07,2.07,3.617,2.637,3.327C3.28,3,3.962,3,5.2,3h13.6c1.238,0,1.921,0,2.562,0.327
		c0.567,0.29,1.02,0.742,1.311,1.31C23,5.28,23,5.962,23,7.2v9.6c0,1.238,0,1.921-0.326,2.562c-0.291,0.567-0.744,1.021-1.311,1.311
		C20.721,21,20.038,21,18.8,21z M3,13.5v3.3c0,0.867,0,1.44,0.109,1.654c0.096,0.188,0.248,0.341,0.438,0.438
		C3.76,19,4.333,19,5.2,19h13.6c0.867,0,1.44,0,1.654-0.109c0.188-0.096,0.341-0.248,0.438-0.438C21,18.24,21,17.667,21,16.8v-3.3
		h-2.547c-0.48,0-0.723,0-0.896,0.031c-0.154,0.027-0.306,0.073-0.448,0.136c-0.162,0.07-0.362,0.204-0.763,0.472l-0.583,0.388
		c-0.486,0.324-0.749,0.5-1.073,0.64c-0.283,0.125-0.586,0.217-0.896,0.271C13.446,15.5,13.127,15.5,12.547,15.5h-1.094
		c-0.58,0-0.899,0-1.248-0.062c-0.308-0.055-0.611-0.146-0.899-0.272c-0.319-0.139-0.58-0.312-1.055-0.63l-0.596-0.396
		c-0.402-0.268-0.603-0.401-0.764-0.472c-0.143-0.062-0.294-0.108-0.449-0.137C6.269,13.5,6.027,13.5,5.547,13.5H3z M3,11.5h2.547
		c0.579,0,0.898,0,1.246,0.062c0.311,0.055,0.612,0.147,0.899,0.272c0.324,0.142,0.588,0.318,1.068,0.638l0.584,0.389
		c0.407,0.271,0.603,0.402,0.761,0.471c0.146,0.063,0.296,0.109,0.45,0.137c0.176,0.031,0.417,0.031,0.897,0.031h1.094
		c0.48,0,0.722,0,0.895-0.031c0.156-0.027,0.307-0.073,0.448-0.136c0.163-0.07,0.36-0.202,0.753-0.464l0.595-0.396
		c0.48-0.32,0.746-0.498,1.069-0.639c0.287-0.125,0.59-0.217,0.898-0.272c0.35-0.062,0.669-0.062,1.248-0.062H21v-2H3V11.5z M3,7.5
		h18V7.2c0-0.868,0-1.44-0.109-1.655c-0.096-0.188-0.248-0.34-0.438-0.437C20.24,5,19.667,5,18.8,5H5.2C4.333,5,3.76,5,3.545,5.109
		c-0.186,0.095-0.341,0.25-0.437,0.438C3,5.76,3,6.333,3,7.2V7.5z"/>
</g>
</svg>
