<?xml version="1.0" encoding="iso-8859-1"?>
<!-- Generator: Adobe Illustrator 27.4.0, SVG Export Plug-In . SVG Version: 6.00 Build 0)  -->
<svg version="1.1" id="Layer_1" xmlns="http://www.w3.org/2000/svg" xmlns:xlink="http://www.w3.org/1999/xlink" x="0px" y="0px"
	 viewBox="0 0 24 24" style="enable-background:new 0 0 24 24;" xml:space="preserve">
<g>
	<path d="M17.8,22H6.2c-1.238,0-1.92,0-2.562-0.326c-0.57-0.292-1.022-0.744-1.312-1.311C2,19.721,2,19.038,2,17.8v-7.752
		c0-0.829,0-1.285,0.174-1.773c0.152-0.428,0.404-0.822,0.729-1.14c0.369-0.361,0.782-0.552,1.531-0.898l8.876-4.097
		c0.881-0.407,1.414-0.652,2.024-0.549c0.531,0.09,1.01,0.396,1.314,0.84C17,2.943,17,3.497,17,4.5V7h0.8
		c1.238,0,1.921,0,2.562,0.328c0.566,0.288,1.02,0.741,1.311,1.31C22,9.28,22,9.962,22,11.2v6.6c0,1.238,0,1.921-0.326,2.562
		c-0.291,0.567-0.744,1.021-1.311,1.311C19.721,22,19.038,22,17.8,22z M4,15v2.8c0,0.867,0,1.44,0.109,1.654
		c0.096,0.188,0.248,0.341,0.438,0.438C4.76,20,5.333,20,6.2,20h11.6c0.867,0,1.44,0,1.654-0.109
		c0.188-0.096,0.341-0.248,0.438-0.438C20,19.24,20,18.667,20,17.8v-6.6c0-0.867,0-1.44-0.109-1.654
		c-0.096-0.189-0.247-0.34-0.437-0.437C19.24,9,18.667,9,17.8,9H6.2C5.333,9,4.76,9,4.546,9.109
		c-0.187,0.095-0.342,0.25-0.437,0.437C4,9.76,4,10.333,4,11.2V15z M7.553,7H15V4.5c0-0.354,0-0.717-0.02-0.907
		C14.8,3.655,14.47,3.808,14.148,3.956L7.553,7z M16.5,16c-0.827,0-1.5-0.673-1.5-1.5s0.673-1.5,1.5-1.5s1.5,0.673,1.5,1.5
		S17.327,16,16.5,16z"/>
</g>
</svg>
