<?xml version="1.0" encoding="iso-8859-1"?>
<!-- Generator: Adobe Illustrator 27.4.0, SVG Export Plug-In . SVG Version: 6.00 Build 0)  -->
<svg version="1.1" id="Layer_1" xmlns="http://www.w3.org/2000/svg" xmlns:xlink="http://www.w3.org/1999/xlink" x="0px" y="0px"
	 viewBox="0 0 24 24" style="enable-background:new 0 0 24 24;" xml:space="preserve">
<g>
	<path d="M16.54,22H7.46c-1.326,0-2.056,0-2.761-0.277c-0.621-0.244-1.175-0.644-1.604-1.155c-0.488-0.584-0.718-1.276-1.137-2.534
		L1.75,17.411c-0.275-0.825-0.426-1.279-0.459-1.799c-0.029-0.461,0.021-0.92,0.15-1.364c0.145-0.499,0.391-0.91,0.838-1.656
		l1.641-2.735L3.622,8.814c-0.234-0.817-0.375-1.311-0.22-1.859c0.136-0.481,0.446-0.892,0.872-1.155
		c0.391-0.242,0.802-0.289,1.396-0.297C5.558,5.185,5.5,4.847,5.5,4.5c0-0.798,0.306-1.549,0.862-2.115
		C6.915,1.823,7.681,1.5,8.464,1.5c1.738,0,2.85,1.116,3.536,2.274C12.686,2.616,13.798,1.5,15.536,1.5
		c0.783,0,1.55,0.323,2.103,0.885C18.194,2.951,18.5,3.702,18.5,4.5c0,0.347-0.058,0.685-0.169,1.002
		c0.594,0.009,1.005,0.055,1.396,0.298c0.425,0.263,0.733,0.672,0.871,1.153c0.155,0.551,0.014,1.045-0.221,1.862l-0.297,1.042
		l1.641,2.734c0.447,0.745,0.693,1.155,0.839,1.657c0.128,0.443,0.178,0.902,0.149,1.363c-0.032,0.518-0.184,0.97-0.457,1.792
		l-0.211,0.63c-0.417,1.255-0.647,1.947-1.135,2.531c-0.431,0.514-0.985,0.914-1.606,1.157C18.596,22,17.865,22,16.54,22z M5.566,11
		l-1.573,2.621c-0.372,0.621-0.559,0.933-0.632,1.183c-0.064,0.223-0.089,0.452-0.075,0.683c0.016,0.26,0.131,0.605,0.36,1.292
		l0.208,0.623c0.341,1.025,0.529,1.591,0.773,1.882c0.214,0.256,0.492,0.456,0.802,0.578C5.783,20,6.379,20,7.46,20h9.08
		c1.081,0,1.677,0,2.029-0.139c0.312-0.122,0.589-0.322,0.804-0.579c0.233-0.279,0.405-0.778,0.771-1.88l0.209-0.624
		c0.229-0.69,0.344-1.034,0.36-1.291c0.015-0.23-0.011-0.461-0.075-0.684c-0.069-0.241-0.233-0.52-0.632-1.183L18.434,11H5.566z
		 M5.754,9h12.491l0.21-0.735c0.084-0.291,0.169-0.589,0.198-0.749C18.492,7.5,18.182,7.5,17.879,7.5H6.121
		c-0.302,0-0.613,0-0.774,0.016c0.029,0.163,0.118,0.471,0.197,0.748L5.754,9z M13.366,5.5h2.17c0.254,0,0.494-0.102,0.675-0.287
		C16.395,5.026,16.5,4.767,16.5,4.5s-0.105-0.526-0.289-0.713C16.03,3.602,15.79,3.5,15.536,3.5C14.434,3.5,13.746,4.593,13.366,5.5
		z M8.464,3.5C8.21,3.5,7.97,3.602,7.788,3.787C7.605,3.974,7.5,4.233,7.5,4.5s0.105,0.526,0.289,0.713
		C7.97,5.398,8.21,5.5,8.464,5.5h2.165C10.246,4.593,9.557,3.5,8.464,3.5z"/>
</g>
</svg>
