<?xml version="1.0" encoding="iso-8859-1"?>
<!-- Generator: Adobe Illustrator 27.4.0, SVG Export Plug-In . SVG Version: 6.00 Build 0)  -->
<svg version="1.1" id="Layer_1" xmlns="http://www.w3.org/2000/svg" xmlns:xlink="http://www.w3.org/1999/xlink" x="0px" y="0px"
	 viewBox="0 0 24 24" style="enable-background:new 0 0 24 24;" xml:space="preserve">
<g>
	<path d="M16.8,21H5.2c-1.238,0-1.92,0-2.562-0.326c-0.57-0.292-1.022-0.744-1.312-1.311C1,18.721,1,18.038,1,16.8V7.2
		c0-1.238,0-1.92,0.327-2.562C1.617,4.07,2.07,3.617,2.637,3.327C3.28,3,3.962,3,5.2,3h11.6c1.238,0,1.921,0,2.562,0.327
		c0.567,0.29,1.02,0.742,1.311,1.31C21,5.28,21,5.962,21,7.2v1.471c0.99,0.348,1.732,1.191,1.942,2.244C23,11.206,23,11.488,23,12
		s0,0.794-0.057,1.083c-0.21,1.054-0.953,1.897-1.943,2.246V16.8c0,1.238,0,1.921-0.326,2.562c-0.291,0.567-0.744,1.021-1.311,1.311
		C18.721,21,18.038,21,16.8,21z M5.2,5C4.333,5,3.76,5,3.545,5.109c-0.186,0.095-0.341,0.25-0.437,0.438C3,5.76,3,6.333,3,7.2v9.6
		c0,0.867,0,1.44,0.109,1.654c0.096,0.188,0.248,0.341,0.438,0.438C3.76,19,4.333,19,5.2,19h11.6c0.867,0,1.44,0,1.654-0.109
		c0.188-0.096,0.341-0.248,0.438-0.438C19,18.24,19,17.667,19,16.8v-1.3h-1.5c-0.513,0-0.795,0-1.084-0.057
		c-1.195-0.239-2.121-1.164-2.358-2.357C14,12.794,14,12.512,14,12s0-0.794,0.057-1.083c0.239-1.196,1.164-2.121,2.357-2.359
		C16.704,8.5,16.986,8.5,17.5,8.5H19V7.2c0-0.868,0-1.44-0.109-1.655c-0.096-0.188-0.248-0.34-0.438-0.437C18.24,5,17.667,5,16.8,5
		H5.2z M17.5,10.5c-0.36,0-0.599,0-0.695,0.019c-0.398,0.08-0.706,0.388-0.786,0.786C16,11.401,16,11.639,16,12s0,0.599,0.02,0.697
		c0.079,0.396,0.388,0.705,0.785,0.785C16.9,13.5,17.139,13.5,17.5,13.5h2c0.361,0,0.6,0,0.697-0.02
		c0.396-0.079,0.704-0.388,0.784-0.786C21,12.599,21,12.361,21,12s0-0.599-0.02-0.697c-0.079-0.396-0.387-0.705-0.785-0.784
		C20.099,10.5,19.86,10.5,19.5,10.5H17.5z"/>
</g>
</svg>
