<?xml version="1.0" encoding="iso-8859-1"?>
<!-- Generator: Adobe Illustrator 27.4.0, SVG Export Plug-In . SVG Version: 6.00 Build 0)  -->
<svg version="1.1" id="Layer_1" xmlns="http://www.w3.org/2000/svg" xmlns:xlink="http://www.w3.org/1999/xlink" x="0px" y="0px"
	 viewBox="0 0 24 24" style="enable-background:new 0 0 24 24;" xml:space="preserve">
<g>
	<path d="M13.377,23h-2.753c-1.039,0-1.61,0-2.185-0.25c-0.51-0.225-0.945-0.581-1.26-1.034c-0.358-0.512-0.47-1.07-0.673-2.084
		L6.048,17.34C4.775,15.923,4,14.05,4,12c0-2.05,0.775-3.923,2.048-5.34l0.457-2.283C6.71,3.354,6.822,2.795,7.18,2.283
		c0.317-0.454,0.752-0.811,1.259-1.032C9.013,1,9.585,1,10.624,1h2.753c1.038,0,1.61,0,2.185,0.251
		c0.506,0.22,0.941,0.577,1.258,1.031c0.359,0.514,0.472,1.075,0.676,2.092l0.457,2.286C19.225,8.077,20,9.95,20,12
		c0,2.05-0.775,3.923-2.048,5.34l-0.457,2.284c-0.204,1.019-0.316,1.579-0.675,2.093c-0.315,0.452-0.75,0.809-1.257,1.032
		C14.987,23,14.415,23,13.377,23z M8.454,19.17l0.012,0.062c0.142,0.708,0.234,1.17,0.354,1.341
		c0.105,0.151,0.251,0.271,0.422,0.345C9.43,21,9.905,21,10.624,21h2.753c0.718,0,1.192,0,1.385-0.084
		c0.167-0.073,0.312-0.192,0.418-0.343c0.12-0.173,0.213-0.638,0.354-1.342l0.012-0.062C13.407,20.232,10.592,20.232,8.454,19.17z
		 M12,6c-3.309,0-6,2.691-6,6s2.691,6,6,6s6-2.691,6-6S15.309,6,12,6z M10.624,3C9.905,3,9.431,3,9.24,3.083
		c-0.17,0.074-0.315,0.193-0.42,0.344C8.701,3.598,8.608,4.06,8.468,4.759L8.454,4.83c2.139-1.062,4.954-1.062,7.092,0l-0.012-0.062
		C15.393,4.063,15.3,3.599,15.18,3.427c-0.105-0.151-0.25-0.27-0.419-0.343C14.569,3,14.095,3,13.377,3H10.624z M13.5,14.5
		c-0.256,0-0.512-0.098-0.707-0.293l-1.5-1.5C11.105,12.52,11,12.265,11,12V9c0-0.552,0.448-1,1-1s1,0.448,1,1v2.586l1.207,1.207
		c0.391,0.391,0.391,1.023,0,1.414C14.012,14.402,13.756,14.5,13.5,14.5z"/>
</g>
</svg>
