<?xml version="1.0" encoding="iso-8859-1"?>
<!-- Generator: Adobe Illustrator 27.4.0, SVG Export Plug-In . SVG Version: 6.00 Build 0)  -->
<svg version="1.1" id="Layer_1" xmlns="http://www.w3.org/2000/svg" xmlns:xlink="http://www.w3.org/1999/xlink" x="0px" y="0px"
	 viewBox="0 0 24 24" style="enable-background:new 0 0 24 24;" xml:space="preserve">
<g>
	<path d="M13.586,23h-3.172c-0.963,0-1.494,0-2.04-0.223c-0.479-0.195-0.902-0.515-1.224-0.924
		c-0.364-0.463-0.509-0.972-0.773-1.896l-0.222-0.775c-0.005-0.003-0.011-0.005-0.016-0.008c-0.57-0.292-1.022-0.744-1.312-1.311
		C4.5,17.221,4.5,16.538,4.5,15.3V8.7c0-1.238,0-1.92,0.327-2.562C5.117,5.57,5.57,5.117,6.137,4.827
		c0.006-0.003,0.012-0.006,0.018-0.009l0.221-0.772c0.265-0.928,0.411-1.438,0.774-1.9c0.321-0.408,0.745-0.728,1.225-0.923
		C8.919,1,9.45,1,10.414,1h3.172c0.963,0,1.494,0,2.039,0.222c0.481,0.197,0.904,0.516,1.225,0.924
		c0.365,0.463,0.511,0.974,0.775,1.9l0.22,0.772c0.006,0.002,0.012,0.005,0.018,0.008c0.567,0.29,1.02,0.742,1.311,1.31
		C19.5,6.78,19.5,7.462,19.5,8.7v6.6c0,1.238,0,1.921-0.326,2.562c-0.291,0.567-0.744,1.021-1.311,1.311
		c-0.006,0.003-0.012,0.006-0.019,0.009l-0.22,0.771c-0.265,0.927-0.41,1.437-0.776,1.901c-0.319,0.407-0.742,0.727-1.223,0.923
		C15.08,23,14.549,23,13.586,23z M8.326,19.5c0.173,0.604,0.282,0.971,0.396,1.117c0.107,0.137,0.249,0.243,0.408,0.309
		C9.312,21,9.727,21,10.414,21h3.172c0.688,0,1.102,0,1.285-0.074c0.158-0.065,0.299-0.172,0.406-0.308
		c0.116-0.148,0.23-0.535,0.396-1.118c-0.118,0-0.243,0-0.374,0H8.7C8.569,19.5,8.445,19.5,8.326,19.5z M8.7,6.5
		c-0.868,0-1.44,0-1.655,0.109c-0.186,0.095-0.341,0.25-0.437,0.438C6.5,7.26,6.5,7.833,6.5,8.7v6.6c0,0.867,0,1.44,0.109,1.654
		c0.096,0.188,0.248,0.341,0.438,0.438C7.26,17.5,7.833,17.5,8.7,17.5h6.6c0.867,0,1.44,0,1.654-0.109
		c0.188-0.096,0.341-0.248,0.438-0.438C17.5,16.74,17.5,16.167,17.5,15.3V8.7c0-0.868,0-1.44-0.109-1.655
		c-0.096-0.188-0.248-0.34-0.438-0.437C16.74,6.5,16.167,6.5,15.3,6.5H8.7z M10.414,3C9.727,3,9.312,3,9.131,3.074
		C8.97,3.14,8.829,3.246,8.722,3.382C8.607,3.529,8.499,3.896,8.326,4.5c0.119,0,0.244,0,0.375,0h6.6c0.131,0,0.256,0,0.375,0
		c-0.167-0.584-0.281-0.971-0.396-1.117c-0.108-0.138-0.249-0.244-0.408-0.309C14.688,3,14.273,3,13.586,3H10.414z M13.5,14.5
		c-0.256,0-0.512-0.098-0.707-0.293l-1.5-1.5C11.105,12.52,11,12.265,11,12V9c0-0.552,0.448-1,1-1s1,0.448,1,1v2.586l1.207,1.207
		c0.391,0.391,0.391,1.023,0,1.414C14.012,14.402,13.756,14.5,13.5,14.5z"/>
</g>
</svg>
