<?xml version="1.0" encoding="iso-8859-1"?>
<!-- Generator: Adobe Illustrator 27.4.0, SVG Export Plug-In . SVG Version: 6.00 Build 0)  -->
<svg version="1.1" id="Layer_1" xmlns="http://www.w3.org/2000/svg" xmlns:xlink="http://www.w3.org/1999/xlink" x="0px" y="0px"
	 viewBox="0 0 24 24" style="enable-background:new 0 0 24 24;" xml:space="preserve">
<g>
	<path d="M14.5,20c-1.662,0-2.481-0.683-3.14-1.231C10.805,18.306,10.438,18,9.5,18c-0.899,0-1.288,0.311-1.875,0.781
		C6.946,19.324,6.101,20,4.5,20c-1.662,0-2.481-0.683-3.14-1.231c-0.424-0.354-0.481-0.984-0.128-1.408
		c0.353-0.426,0.984-0.481,1.408-0.129C3.195,17.694,3.562,18,4.5,18c0.899,0,1.288-0.311,1.875-0.781C7.054,16.676,7.899,16,9.5,16
		c1.662,0,2.481,0.683,3.14,1.231C13.195,17.694,13.562,18,14.5,18c0.899,0,1.287-0.311,1.875-0.781
		C17.055,16.676,17.899,16,19.5,16c1.663,0,2.482,0.683,3.141,1.232c0.424,0.354,0.481,0.983,0.127,1.408
		c-0.353,0.424-0.981,0.481-1.408,0.127C20.805,18.306,20.438,18,19.5,18c-0.899,0-1.287,0.311-1.875,0.781
		C16.945,19.324,16.101,20,14.5,20z M14.5,14c-1.662,0-2.481-0.683-3.14-1.232C10.805,12.306,10.438,12,9.5,12
		c-0.899,0-1.288,0.311-1.875,0.781C6.946,13.324,6.101,14,4.5,14c-1.662,0-2.481-0.683-3.14-1.232
		c-0.424-0.354-0.481-0.984-0.128-1.408c0.353-0.424,0.984-0.482,1.408-0.128C3.195,11.694,3.562,12,4.5,12
		c0.899,0,1.288-0.311,1.875-0.781C7.054,10.676,7.899,10,9.5,10c1.662,0,2.481,0.683,3.14,1.232C13.195,11.694,13.562,12,14.5,12
		c0.899,0,1.287-0.311,1.875-0.781C17.055,10.676,17.899,10,19.5,10c1.663,0,2.482,0.683,3.141,1.232
		c0.424,0.354,0.481,0.984,0.127,1.409c-0.353,0.423-0.981,0.481-1.408,0.127C20.805,12.306,20.438,12,19.5,12
		c-0.899,0-1.287,0.311-1.875,0.781C16.945,13.324,16.101,14,14.5,14z M14.5,8c-1.662,0-2.481-0.683-3.14-1.232
		C10.805,6.306,10.438,6,9.5,6C8.601,6,8.212,6.311,7.625,6.781C6.946,7.324,6.101,8,4.5,8C2.838,8,2.019,7.317,1.36,6.768
		C0.936,6.415,0.878,5.784,1.232,5.36C1.585,4.936,2.216,4.878,2.64,5.232C3.195,5.694,3.562,6,4.5,6
		c0.899,0,1.288-0.311,1.875-0.781C7.054,4.676,7.899,4,9.5,4c1.662,0,2.481,0.683,3.14,1.232C13.195,5.694,13.562,6,14.5,6
		c0.899,0,1.287-0.311,1.875-0.781C17.055,4.676,17.899,4,19.5,4c1.663,0,2.482,0.683,3.141,1.232
		c0.424,0.354,0.481,0.984,0.127,1.409c-0.353,0.422-0.981,0.481-1.408,0.127C20.805,6.306,20.438,6,19.5,6
		c-0.899,0-1.287,0.311-1.875,0.781C16.945,7.324,16.101,8,14.5,8z"/>
</g>
</svg>
