<?xml version="1.0" encoding="iso-8859-1"?>
<!-- Generator: Adobe Illustrator 27.4.0, SVG Export Plug-In . SVG Version: 6.00 Build 0)  -->
<svg version="1.1" id="Layer_1" xmlns="http://www.w3.org/2000/svg" xmlns:xlink="http://www.w3.org/1999/xlink" x="0px" y="0px"
	 viewBox="0 0 24 24" style="enable-background:new 0 0 24 24;" xml:space="preserve">
<g>
	<path d="M17,23H7c-0.552,0-1-0.447-1-1s0.448-1,1-1h4v-2.056C6.506,18.445,3,14.625,3,10c0-4.962,4.038-9,9-9c4.963,0,9,4.038,9,9
		c0,4.625-3.506,8.445-8,8.944V21h4c0.553,0,1,0.447,1,1S17.553,23,17,23z M12,3c-3.86,0-7,3.14-7,7c0,3.859,3.14,7,7,7
		c3.859,0,7-3.141,7-7C19,6.14,15.859,3,12,3z M12,14c-2.206,0-4-1.794-4-4s1.794-4,4-4c2.206,0,4,1.794,4,4S14.206,14,12,14z M12,8
		c-1.103,0-2,0.897-2,2s0.897,2,2,2c1.103,0,2-0.897,2-2S13.103,8,12,8z"/>
</g>
</svg>
