<?xml version="1.0" encoding="iso-8859-1"?>
<!-- Generator: Adobe Illustrator 27.4.0, SVG Export Plug-In . SVG Version: 6.00 Build 0)  -->
<svg version="1.1" id="Layer_1" xmlns="http://www.w3.org/2000/svg" xmlns:xlink="http://www.w3.org/1999/xlink" x="0px" y="0px"
	 viewBox="0 0 24 24" style="enable-background:new 0 0 24 24;" xml:space="preserve">
<g>
	<path d="M16,23H8c-0.552,0-1-0.447-1-1s0.448-1,1-1h8c0.553,0,1,0.447,1,1S16.553,23,16,23z M12,20c-5.238,0-9.5-4.262-9.5-9.5
		S6.762,1,12,1s9.5,4.262,9.5,9.5S17.238,20,12,20z M12,3c-4.136,0-7.5,3.364-7.5,7.5S7.864,18,12,18s7.5-3.364,7.5-7.5
		S16.136,3,12,3z M12,14.688c-2.309,0-4.188-1.878-4.188-4.188S9.691,6.312,12,6.312c2.309,0,4.188,1.878,4.188,4.188
		S14.309,14.688,12,14.688z M12,8.312c-1.206,0-2.188,0.981-2.188,2.188s0.981,2.188,2.188,2.188s2.188-0.981,2.188-2.188
		S13.206,8.312,12,8.312z"/>
</g>
</svg>
