<?xml version="1.0" encoding="iso-8859-1"?>
<!-- Generator: Adobe Illustrator 27.4.0, SVG Export Plug-In . SVG Version: 6.00 Build 0)  -->
<svg version="1.1" id="Layer_1" xmlns="http://www.w3.org/2000/svg" xmlns:xlink="http://www.w3.org/1999/xlink" x="0px" y="0px"
	 viewBox="0 0 24 24" style="enable-background:new 0 0 24 24;" xml:space="preserve">
<g>
	<path d="M21,22c-0.256,0-0.512-0.098-0.707-0.293l-5.032-5.032c-0.062-0.03-0.123-0.068-0.18-0.112
		c-0.172-0.135-0.35-0.257-0.534-0.367c-1.657-0.981-3.852-0.898-5.438,0.23c-0.024,0.017-0.05,0.033-0.075,0.048
		c-0.052,0.039-0.104,0.078-0.154,0.119c-0.431,0.345-1.061,0.274-1.406-0.157C7.129,16.005,7.2,15.375,7.631,15.03
		c0.557-0.444,1.178-0.8,1.837-1.055c0.459-0.18,0.937-0.309,1.426-0.387c0.393-0.063,0.789-0.102,1.193-0.088l-2.665-2.666
		c-1.484,0.396-2.868,1.136-4.028,2.158c-0.414,0.365-1.047,0.325-1.412-0.089c-0.365-0.415-0.325-1.046,0.089-1.412
		c1.108-0.976,2.386-1.738,3.76-2.248L5.542,6.957C4.203,7.596,2.97,8.429,1.869,9.438C1.462,9.812,0.829,9.784,0.456,9.376
		C0.083,8.969,0.11,8.336,0.518,7.963c1.074-0.984,2.259-1.82,3.536-2.496l-1.76-1.761c-0.391-0.391-0.391-1.023,0-1.414
		s1.023-0.391,1.414,0l18,18c0.391,0.391,0.391,1.023,0,1.414C21.512,21.902,21.256,22,21,22z M12.01,20.5
		c-0.552,0-1.005-0.447-1.005-1s0.443-1,0.995-1h0.01c0.552,0,1,0.447,1,1S12.562,20.5,12.01,20.5z M19.079,13.05
		c-0.225,0-0.452-0.076-0.639-0.231c-1.015-0.845-2.168-1.472-3.426-1.864c-0.527-0.164-0.822-0.725-0.658-1.252
		c0.165-0.527,0.728-0.822,1.252-0.657c1.511,0.47,2.894,1.222,4.111,2.236c0.425,0.353,0.482,0.984,0.129,1.408
		C19.651,12.927,19.366,13.05,19.079,13.05z M22.58,9.5c-0.235,0-0.471-0.082-0.661-0.25c-3.162-2.787-7.381-4.129-11.609-3.652
		C9.762,5.663,9.266,5.266,9.204,4.717s0.333-1.044,0.881-1.106c4.784-0.539,9.572,0.98,13.156,4.139
		c0.414,0.365,0.454,0.997,0.089,1.411C23.133,9.385,22.856,9.5,22.58,9.5z"/>
</g>
</svg>
