<?xml version="1.0" encoding="iso-8859-1"?>
<!-- Generator: Adobe Illustrator 27.4.0, SVG Export Plug-In . SVG Version: 6.00 Build 0)  -->
<svg version="1.1" id="Layer_1" xmlns="http://www.w3.org/2000/svg" xmlns:xlink="http://www.w3.org/1999/xlink" x="0px" y="0px"
	 viewBox="0 0 24 24" style="enable-background:new 0 0 24 24;" xml:space="preserve">
<g>
	<path d="M12.01,20.5c-0.552,0-1.005-0.447-1.005-1s0.443-1,0.995-1h0.01c0.552,0,1,0.447,1,1S12.562,20.5,12.01,20.5z
		 M8.256,16.812c-0.293,0-0.584-0.129-0.782-0.376C7.129,16.005,7.2,15.375,7.631,15.03C8.866,14.044,10.417,13.5,12,13.5
		c1.581,0,3.073,0.515,4.315,1.488c0.435,0.341,0.511,0.97,0.17,1.404c-0.341,0.434-0.969,0.511-1.404,0.17
		c-1.785-1.4-4.427-1.39-6.201,0.03C8.695,16.74,8.475,16.812,8.256,16.812z M4.732,13.243c-0.277,0-0.553-0.114-0.751-0.339
		c-0.365-0.415-0.325-1.046,0.089-1.412C6.261,9.563,9.077,8.5,12,8.5s5.739,1.063,7.929,2.993c0.414,0.365,0.454,0.997,0.089,1.411
		c-0.364,0.417-0.996,0.455-1.411,0.089C16.782,11.386,14.436,10.5,12,10.5s-4.782,0.886-6.607,2.494
		C5.203,13.161,4.967,13.243,4.732,13.243z M22.807,9.701c-0.241,0-0.483-0.087-0.676-0.263C19.36,6.898,15.763,5.5,12,5.5
		c-3.762,0-7.36,1.398-10.131,3.938C1.462,9.812,0.829,9.782,0.456,9.376C0.083,8.969,0.11,8.336,0.518,7.963
		C3.658,5.085,7.736,3.5,12,3.5s8.342,1.585,11.482,4.463c0.407,0.373,0.435,1.006,0.062,1.413
		C23.347,9.591,23.077,9.701,22.807,9.701z"/>
</g>
</svg>
