<?xml version="1.0" encoding="iso-8859-1"?>
<!-- Generator: Adobe Illustrator 27.4.0, SVG Export Plug-In . SVG Version: 6.00 Build 0)  -->
<svg version="1.1" id="Layer_1" xmlns="http://www.w3.org/2000/svg" xmlns:xlink="http://www.w3.org/1999/xlink" x="0px" y="0px"
	 viewBox="0 0 24 24" style="enable-background:new 0 0 24 24;" xml:space="preserve">
<g>
	<path d="M13,22c-1.136,0-2.223-0.485-2.981-1.333c-0.368-0.411-0.333-1.043,0.078-1.412c0.411-0.368,1.044-0.333,1.412,0.078
		C11.888,19.757,12.432,20,13,20c1.103,0,2-0.897,2-2s-0.897-2-2-2H2c-0.552,0-1-0.447-1-1s0.448-1,1-1h11c2.206,0,4,1.794,4,4
		S15.206,22,13,22z M19,12.5h-6c-0.552,0-1-0.448-1-1s0.448-1,1-1h6c1.103,0,2-0.897,2-2s-0.897-2-2-2
		c-0.568,0-1.111,0.243-1.491,0.667c-0.37,0.413-1.001,0.447-1.412,0.078c-0.411-0.368-0.446-1-0.078-1.412
		C16.777,4.986,17.864,4.5,19,4.5c2.206,0,4,1.794,4,4S21.206,12.5,19,12.5z M9,10H2c-0.552,0-1-0.448-1-1s0.448-1,1-1h7
		c1.103,0,2-0.897,2-2s-0.897-2-2-2C8.432,4,7.888,4.243,7.509,4.667c-0.367,0.412-1,0.446-1.412,0.078
		c-0.412-0.368-0.446-1-0.078-1.412C6.777,2.486,7.863,2,9,2c2.206,0,4,1.794,4,4S11.206,10,9,10z"/>
</g>
</svg>
