<?xml version="1.0" encoding="iso-8859-1"?>
<!-- Generator: Adobe Illustrator 27.4.0, SVG Export Plug-In . SVG Version: 6.00 Build 0)  -->
<svg version="1.1" id="Layer_1" xmlns="http://www.w3.org/2000/svg" xmlns:xlink="http://www.w3.org/1999/xlink" x="0px" y="0px"
	 viewBox="0 0 24 24" style="enable-background:new 0 0 24 24;" xml:space="preserve">
<g>
	<path d="M7.197,20.003c-0.789,0-1.608-0.1-2.469-0.342c-0.849-0.24-2.045-0.711-2.096-0.73c-0.514-0.203-0.766-0.784-0.563-1.298
		c0.203-0.513,0.784-0.763,1.297-0.563c0.011,0.005,1.154,0.455,1.904,0.667c2.271,0.642,4.289-0.005,6.424-0.688
		c2.323-0.745,4.726-1.512,7.576-0.709c0.849,0.24,2.045,0.711,2.096,0.73c0.514,0.203,0.766,0.784,0.563,1.298
		c-0.202,0.513-0.781,0.763-1.298,0.563c-0.012-0.005-1.153-0.455-1.904-0.667c-2.273-0.642-4.289,0.006-6.424,0.688
		C10.683,19.472,9.021,20.003,7.197,20.003z M7.198,14.002c-0.789,0-1.609-0.099-2.469-0.342c-0.848-0.239-2.045-0.71-2.096-0.73
		c-0.514-0.203-0.766-0.783-0.563-1.297c0.203-0.513,0.784-0.764,1.297-0.563c0.011,0.004,1.153,0.454,1.904,0.666
		c2.27,0.639,4.289-0.005,6.424-0.688c2.323-0.743,4.726-1.512,7.576-0.708c0.849,0.239,2.045,0.71,2.096,0.73
		c0.514,0.203,0.766,0.783,0.563,1.297c-0.202,0.514-0.781,0.764-1.298,0.563c-0.012-0.004-1.153-0.454-1.904-0.666
		c-2.27-0.64-4.288,0.004-6.424,0.688C10.683,13.472,9.022,14.002,7.198,14.002z M7.198,8.002c-0.789,0-1.609-0.1-2.469-0.342
		C3.88,7.421,2.684,6.95,2.633,6.93C2.119,6.728,1.867,6.147,2.07,5.633C2.273,5.119,2.854,4.869,3.367,5.07
		c0.011,0.004,1.153,0.454,1.904,0.666c2.27,0.639,4.289-0.005,6.424-0.688c2.323-0.743,4.726-1.512,7.576-0.708
		c0.849,0.239,2.045,0.71,2.096,0.73c0.514,0.203,0.766,0.783,0.563,1.297c-0.202,0.514-0.781,0.766-1.298,0.563
		c-0.012-0.004-1.153-0.454-1.904-0.666c-2.27-0.639-4.288,0.005-6.424,0.688C10.683,7.471,9.022,8.002,7.198,8.002z"/>
</g>
</svg>
