<?xml version="1.0" encoding="iso-8859-1"?>
<!-- Generator: Adobe Illustrator 27.4.0, SVG Export Plug-In . SVG Version: 6.00 Build 0)  -->
<svg version="1.1" id="Layer_1" xmlns="http://www.w3.org/2000/svg" xmlns:xlink="http://www.w3.org/1999/xlink" x="0px" y="0px"
	 viewBox="0 0 24 24" style="enable-background:new 0 0 24 24;" xml:space="preserve">
<g>
	<path d="M14,21c-0.853,0-1.667-0.364-2.236-1c-0.368-0.412-0.333-1.044,0.078-1.412c0.413-0.369,1.043-0.333,1.413,0.078
		C13.447,18.882,13.712,19,14,19c0.552,0,1-0.448,1-1s-0.448-1-1-1H2c-0.552,0-1-0.447-1-1s0.448-1,1-1h12c1.654,0,3,1.346,3,3
		S15.654,21,14,21z M19,13H2c-0.552,0-1-0.448-1-1s0.448-1,1-1h17c1.103,0,2-0.897,2-2s-0.897-2-2-2
		c-0.568,0-1.111,0.243-1.491,0.667c-0.37,0.413-1.001,0.447-1.412,0.078c-0.411-0.368-0.446-1-0.078-1.412
		C16.777,5.486,17.864,5,19,5c2.206,0,4,1.794,4,4S21.206,13,19,13z M11,9H2C1.448,9,1,8.552,1,8s0.448-1,1-1h9c0.551,0,1-0.449,1-1
		s-0.449-1-1-1c-0.289,0-0.553,0.118-0.746,0.333c-0.368,0.411-1,0.447-1.412,0.078C8.431,5.043,8.396,4.411,8.764,4
		C9.333,3.364,10.147,3,11,3c1.654,0,3,1.346,3,3S12.654,9,11,9z"/>
</g>
</svg>
