<?xml version="1.0" encoding="iso-8859-1"?>
<!-- Generator: Adobe Illustrator 27.4.0, SVG Export Plug-In . SVG Version: 6.00 Build 0)  -->
<svg version="1.1" id="Layer_1" xmlns="http://www.w3.org/2000/svg" xmlns:xlink="http://www.w3.org/1999/xlink" x="0px" y="0px"
	 viewBox="0 0 24 24" style="enable-background:new 0 0 24 24;" xml:space="preserve">
<g>
	<path d="M18,19c-0.256,0-0.512-0.098-0.707-0.293L12,13.414l-5.293,5.293c-0.391,0.391-1.023,0.391-1.414,0s-0.391-1.023,0-1.414
		L10.586,12L5.293,6.707c-0.391-0.391-0.391-1.023,0-1.414s1.023-0.391,1.414,0L12,10.586l5.293-5.293
		c0.391-0.391,1.023-0.391,1.414,0s0.391,1.023,0,1.414L13.414,12l5.293,5.293c0.391,0.391,0.391,1.023,0,1.414
		C18.512,18.902,18.256,19,18,19z"/>
</g>
</svg>
