<?xml version="1.0" encoding="iso-8859-1"?>
<!-- Generator: Adobe Illustrator 27.4.0, SVG Export Plug-In . SVG Version: 6.00 Build 0)  -->
<svg version="1.1" id="Layer_1" xmlns="http://www.w3.org/2000/svg" xmlns:xlink="http://www.w3.org/1999/xlink" x="0px" y="0px"
	 viewBox="0 0 24 24" style="enable-background:new 0 0 24 24;" xml:space="preserve">
<g>
	<path d="M12,20.054c-0.654,0-6.433-0.013-8.076-0.452c-0.59-0.162-1.126-0.472-1.556-0.896c-0.431-0.427-0.746-0.959-0.912-1.54
		C1.136,15.412,0.99,13.72,1,12.039C0.992,10.379,1.138,8.7,1.435,7.059C1.6,6.392,1.907,5.839,2.338,5.394s0.975-0.77,1.571-0.938
		C5.567,4.013,11.346,4,12,4c0.652,0,6.422,0.012,8.055,0.41c0.631,0.178,1.174,0.502,1.606,0.947c0.433,0.447,0.74,1,0.891,1.601
		c0.005,0.021,0.01,0.042,0.014,0.064c0.299,1.654,0.444,3.346,0.434,5.03c0.006,1.648-0.14,3.314-0.434,4.943
		c-0.163,0.665-0.472,1.219-0.904,1.665c-0.434,0.445-0.977,0.77-1.572,0.938C18.433,20.041,12.653,20.054,12,20.054z M12,6
		C9.632,6,5.486,6.104,4.44,6.384C4.196,6.453,3.961,6.594,3.774,6.786C3.587,6.979,3.454,7.219,3.388,7.48
		C3.128,8.935,2.993,10.492,3,12.04c-0.01,1.569,0.125,3.138,0.402,4.673c0.049,0.155,0.186,0.386,0.372,0.57
		c0.186,0.185,0.418,0.318,0.672,0.389c1.04,0.277,5.186,0.382,7.553,0.382s6.513-0.104,7.56-0.384
		c0.243-0.069,0.479-0.21,0.667-0.403c0.187-0.192,0.319-0.432,0.384-0.69c0.259-1.445,0.395-2.99,0.389-4.527
		c0.011-1.558-0.123-3.114-0.396-4.635c-0.067-0.249-0.197-0.478-0.378-0.664c-0.187-0.192-0.422-0.333-0.68-0.405
		C18.519,6.094,14.466,6,12,6z"/>
</g>
<g>
	<path d="M10.241,16.584c-0.032,0-0.064-0.001-0.097-0.004c-0.438-0.032-0.835-0.25-1.095-0.598
		C8.75,15.584,8.75,15.145,8.75,14.535v-5.07c0-0.608,0-1.048,0.298-1.448C9.31,7.668,9.709,7.45,10.144,7.419
		c0.493-0.039,0.868,0.203,1.38,0.532l3.943,2.534c0.455,0.293,0.783,0.504,0.963,0.933c0.156,0.368,0.156,0.795-0.001,1.167
		c-0.179,0.425-0.507,0.636-0.961,0.928l-3.944,2.536C11.045,16.356,10.69,16.584,10.241,16.584z M10.76,15.017h0.01H10.76z
		 M10.75,9.832v4.337L14.123,12L10.75,9.832z"/>
</g>
</svg>
