<?xml version="1.0" encoding="iso-8859-1"?>
<!-- Generator: Adobe Illustrator 27.4.0, SVG Export Plug-In . SVG Version: 6.00 Build 0)  -->
<svg version="1.1" id="Layer_1" xmlns="http://www.w3.org/2000/svg" xmlns:xlink="http://www.w3.org/1999/xlink" x="0px" y="0px"
	 viewBox="0 0 24 24" style="enable-background:new 0 0 24 24;" xml:space="preserve">
<g>
	<path d="M15,22c-0.123,0-0.248-0.022-0.367-0.07c-0.428-0.169-0.685-0.606-0.624-1.062l0.849-6.368h-3.803
		c-0.659,0-1.095,0-1.5-0.313c-0.354-0.274-0.566-0.687-0.582-1.132c-0.019-0.509,0.233-0.863,0.615-1.397l6.599-9.238
		c0.267-0.374,0.756-0.519,1.181-0.349c0.428,0.169,0.685,0.607,0.624,1.062L17.143,9.5h3.803c0.659,0,1.095,0,1.5,0.312
		c0.353,0.273,0.564,0.685,0.582,1.129c0.018,0.515-0.234,0.869-0.616,1.404l-6.598,9.235C15.622,21.851,15.315,22,15,22z
		 M11.443,12.5H16c0.288,0,0.562,0.125,0.752,0.341c0.19,0.217,0.277,0.505,0.239,0.791l-0.469,3.517l4.035-5.648H16
		c-0.288,0-0.562-0.125-0.752-0.341c-0.19-0.217-0.277-0.505-0.239-0.791l0.469-3.516L11.443,12.5z M10.541,12.488L10.541,12.488
		L10.541,12.488z M21.46,11.512L21.46,11.512L21.46,11.512z M21.072,10.759L21.072,10.759L21.072,10.759z M9,18.5H3.5
		c-0.552,0-1-0.447-1-1s0.448-1,1-1H9c0.552,0,1,0.447,1,1S9.552,18.5,9,18.5z M6.5,13H2c-0.552,0-1-0.448-1-1s0.448-1,1-1h4.5
		c0.552,0,1,0.448,1,1S7.052,13,6.5,13z M9,7.5H4c-0.552,0-1-0.448-1-1s0.448-1,1-1h5c0.552,0,1,0.448,1,1S9.552,7.5,9,7.5z"/>
</g>
</svg>
