<?xml version="1.0" encoding="iso-8859-1"?>
<!-- Generator: Adobe Illustrator 27.4.0, SVG Export Plug-In . SVG Version: 6.00 Build 0)  -->
<svg version="1.1" id="Layer_1" xmlns="http://www.w3.org/2000/svg" xmlns:xlink="http://www.w3.org/1999/xlink" x="0px" y="0px"
	 viewBox="0 0 24 24" style="enable-background:new 0 0 24 24;" xml:space="preserve">
<g>
	<path d="M12,19.5c-0.099,0-0.199-0.015-0.296-0.045C11.285,19.325,11,18.938,11,18.5v-4H8.021c-0.648,0-1.077,0-1.479-0.307
		c-0.353-0.269-0.567-0.677-0.589-1.119c-0.025-0.506,0.218-0.859,0.585-1.394l4.638-6.747c0.249-0.36,0.703-0.517,1.121-0.389
		C12.715,4.675,13,5.062,13,5.5v4h2.979c0.649,0,1.078,0,1.481,0.309c0.352,0.268,0.566,0.677,0.587,1.12
		c0.026,0.502-0.217,0.856-0.585,1.391l-4.639,6.747C12.634,19.343,12.323,19.5,12,19.5z M8.401,12.5H12c0.552,0,1,0.448,1,1v1.78
		l2.6-3.78H12c-0.552,0-1-0.448-1-1V8.72L8.401,12.5z M16.48,11.511L16.48,11.511L16.48,11.511z M16.09,10.768L16.09,10.768
		L16.09,10.768z"/>
</g>
<g>
	<path d="M12,23C5.935,23,1,18.065,1,12S5.935,1,12,1s11,4.935,11,11S18.065,23,12,23z M12,3c-4.962,0-9,4.038-9,9
		c0,4.963,4.038,9,9,9c4.963,0,9-4.037,9-9C21,7.038,16.963,3,12,3z"/>
</g>
</svg>
