<?xml version="1.0" encoding="iso-8859-1"?>
<!-- Generator: Adobe Illustrator 27.4.0, SVG Export Plug-In . SVG Version: 6.00 Build 0)  -->
<svg version="1.1" id="Layer_1" xmlns="http://www.w3.org/2000/svg" xmlns:xlink="http://www.w3.org/1999/xlink" x="0px" y="0px"
	 viewBox="0 0 24 24" style="enable-background:new 0 0 24 24;" xml:space="preserve">
<g>
	<path d="M11,23c-0.134,0-0.269-0.027-0.397-0.083c-0.407-0.177-0.649-0.601-0.594-1.041L10.867,15H4.708
		c-0.706,0-1.172,0-1.584-0.335c-0.359-0.29-0.562-0.723-0.556-1.186c0.009-0.533,0.306-0.89,0.756-1.43l8.908-10.69
		c0.285-0.342,0.76-0.453,1.167-0.277c0.407,0.177,0.648,0.601,0.594,1.042L13.133,9h6.159c0.705,0,1.171,0,1.584,0.333
		c0.359,0.291,0.562,0.723,0.557,1.187c-0.009,0.533-0.306,0.89-0.756,1.43l-8.909,10.691C11.574,22.873,11.29,23,11,23z M5.135,13
		H12c0.287,0,0.56,0.123,0.75,0.338c0.19,0.216,0.279,0.502,0.243,0.786l-0.577,4.615L18.864,11H12c-0.287,0-0.56-0.123-0.75-0.338
		c-0.19-0.215-0.278-0.501-0.243-0.786l0.577-4.616L5.135,13z"/>
</g>
</svg>
